%TF.GenerationSoftware,KiCad,Pcbnew,7.0.10*%
%TF.CreationDate,2024-03-01T12:14:43-06:00*%
%TF.ProjectId,ESP32,45535033-322e-46b6-9963-61645f706362,rev?*%
%TF.SameCoordinates,Original*%
%TF.FileFunction,Legend,Top*%
%TF.FilePolarity,Positive*%
%FSLAX46Y46*%
G04 Gerber Fmt 4.6, Leading zero omitted, Abs format (unit mm)*
G04 Created by KiCad (PCBNEW 7.0.10) date 2024-03-01 12:14:43*
%MOMM*%
%LPD*%
G01*
G04 APERTURE LIST*
%ADD10C,0.150000*%
%ADD11C,0.300000*%
%ADD12C,0.100000*%
%ADD13C,0.120000*%
%ADD14C,0.152400*%
G04 APERTURE END LIST*
D10*
X116478207Y-98167819D02*
X116144874Y-97691628D01*
X115906779Y-98167819D02*
X115906779Y-97167819D01*
X115906779Y-97167819D02*
X116287731Y-97167819D01*
X116287731Y-97167819D02*
X116382969Y-97215438D01*
X116382969Y-97215438D02*
X116430588Y-97263057D01*
X116430588Y-97263057D02*
X116478207Y-97358295D01*
X116478207Y-97358295D02*
X116478207Y-97501152D01*
X116478207Y-97501152D02*
X116430588Y-97596390D01*
X116430588Y-97596390D02*
X116382969Y-97644009D01*
X116382969Y-97644009D02*
X116287731Y-97691628D01*
X116287731Y-97691628D02*
X115906779Y-97691628D01*
X116811541Y-97167819D02*
X117478207Y-98167819D01*
X117478207Y-97167819D02*
X116811541Y-98167819D01*
X94427922Y-69481819D02*
X94999350Y-69481819D01*
X94713636Y-70481819D02*
X94713636Y-69481819D01*
X95237446Y-69481819D02*
X95904112Y-70481819D01*
X95904112Y-69481819D02*
X95237446Y-70481819D01*
X115668588Y-89595438D02*
X115573350Y-89547819D01*
X115573350Y-89547819D02*
X115430493Y-89547819D01*
X115430493Y-89547819D02*
X115287636Y-89595438D01*
X115287636Y-89595438D02*
X115192398Y-89690676D01*
X115192398Y-89690676D02*
X115144779Y-89785914D01*
X115144779Y-89785914D02*
X115097160Y-89976390D01*
X115097160Y-89976390D02*
X115097160Y-90119247D01*
X115097160Y-90119247D02*
X115144779Y-90309723D01*
X115144779Y-90309723D02*
X115192398Y-90404961D01*
X115192398Y-90404961D02*
X115287636Y-90500200D01*
X115287636Y-90500200D02*
X115430493Y-90547819D01*
X115430493Y-90547819D02*
X115525731Y-90547819D01*
X115525731Y-90547819D02*
X115668588Y-90500200D01*
X115668588Y-90500200D02*
X115716207Y-90452580D01*
X115716207Y-90452580D02*
X115716207Y-90119247D01*
X115716207Y-90119247D02*
X115525731Y-90119247D01*
X116144779Y-90547819D02*
X116144779Y-89547819D01*
X116144779Y-89547819D02*
X116716207Y-90547819D01*
X116716207Y-90547819D02*
X116716207Y-89547819D01*
X117192398Y-90547819D02*
X117192398Y-89547819D01*
X117192398Y-89547819D02*
X117430493Y-89547819D01*
X117430493Y-89547819D02*
X117573350Y-89595438D01*
X117573350Y-89595438D02*
X117668588Y-89690676D01*
X117668588Y-89690676D02*
X117716207Y-89785914D01*
X117716207Y-89785914D02*
X117763826Y-89976390D01*
X117763826Y-89976390D02*
X117763826Y-90119247D01*
X117763826Y-90119247D02*
X117716207Y-90309723D01*
X117716207Y-90309723D02*
X117668588Y-90404961D01*
X117668588Y-90404961D02*
X117573350Y-90500200D01*
X117573350Y-90500200D02*
X117430493Y-90547819D01*
X117430493Y-90547819D02*
X117192398Y-90547819D01*
X116017922Y-99707819D02*
X116589350Y-99707819D01*
X116303636Y-100707819D02*
X116303636Y-99707819D01*
X116827446Y-99707819D02*
X117494112Y-100707819D01*
X117494112Y-99707819D02*
X116827446Y-100707819D01*
D11*
X79474885Y-62776510D02*
X79403457Y-62990796D01*
X79403457Y-62990796D02*
X79332028Y-63062225D01*
X79332028Y-63062225D02*
X79189171Y-63133653D01*
X79189171Y-63133653D02*
X78974885Y-63133653D01*
X78974885Y-63133653D02*
X78832028Y-63062225D01*
X78832028Y-63062225D02*
X78760600Y-62990796D01*
X78760600Y-62990796D02*
X78689171Y-62847939D01*
X78689171Y-62847939D02*
X78689171Y-62276510D01*
X78689171Y-62276510D02*
X80189171Y-62276510D01*
X80189171Y-62276510D02*
X80189171Y-62776510D01*
X80189171Y-62776510D02*
X80117742Y-62919368D01*
X80117742Y-62919368D02*
X80046314Y-62990796D01*
X80046314Y-62990796D02*
X79903457Y-63062225D01*
X79903457Y-63062225D02*
X79760600Y-63062225D01*
X79760600Y-63062225D02*
X79617742Y-62990796D01*
X79617742Y-62990796D02*
X79546314Y-62919368D01*
X79546314Y-62919368D02*
X79474885Y-62776510D01*
X79474885Y-62776510D02*
X79474885Y-62276510D01*
X78760600Y-64347939D02*
X78689171Y-64205082D01*
X78689171Y-64205082D02*
X78689171Y-63919368D01*
X78689171Y-63919368D02*
X78760600Y-63776510D01*
X78760600Y-63776510D02*
X78903457Y-63705082D01*
X78903457Y-63705082D02*
X79474885Y-63705082D01*
X79474885Y-63705082D02*
X79617742Y-63776510D01*
X79617742Y-63776510D02*
X79689171Y-63919368D01*
X79689171Y-63919368D02*
X79689171Y-64205082D01*
X79689171Y-64205082D02*
X79617742Y-64347939D01*
X79617742Y-64347939D02*
X79474885Y-64419368D01*
X79474885Y-64419368D02*
X79332028Y-64419368D01*
X79332028Y-64419368D02*
X79189171Y-63705082D01*
X79689171Y-65062224D02*
X78689171Y-65062224D01*
X79546314Y-65062224D02*
X79617742Y-65133653D01*
X79617742Y-65133653D02*
X79689171Y-65276510D01*
X79689171Y-65276510D02*
X79689171Y-65490796D01*
X79689171Y-65490796D02*
X79617742Y-65633653D01*
X79617742Y-65633653D02*
X79474885Y-65705082D01*
X79474885Y-65705082D02*
X78689171Y-65705082D01*
X79689171Y-66419367D02*
X78403457Y-66419367D01*
X78403457Y-66419367D02*
X78260600Y-66347939D01*
X78260600Y-66347939D02*
X78189171Y-66205082D01*
X78189171Y-66205082D02*
X78189171Y-66133653D01*
X80189171Y-66419367D02*
X80117742Y-66347939D01*
X80117742Y-66347939D02*
X80046314Y-66419367D01*
X80046314Y-66419367D02*
X80117742Y-66490796D01*
X80117742Y-66490796D02*
X80189171Y-66419367D01*
X80189171Y-66419367D02*
X80046314Y-66419367D01*
X78689171Y-67776511D02*
X79474885Y-67776511D01*
X79474885Y-67776511D02*
X79617742Y-67705082D01*
X79617742Y-67705082D02*
X79689171Y-67562225D01*
X79689171Y-67562225D02*
X79689171Y-67276511D01*
X79689171Y-67276511D02*
X79617742Y-67133653D01*
X78760600Y-67776511D02*
X78689171Y-67633653D01*
X78689171Y-67633653D02*
X78689171Y-67276511D01*
X78689171Y-67276511D02*
X78760600Y-67133653D01*
X78760600Y-67133653D02*
X78903457Y-67062225D01*
X78903457Y-67062225D02*
X79046314Y-67062225D01*
X79046314Y-67062225D02*
X79189171Y-67133653D01*
X79189171Y-67133653D02*
X79260600Y-67276511D01*
X79260600Y-67276511D02*
X79260600Y-67633653D01*
X79260600Y-67633653D02*
X79332028Y-67776511D01*
X78689171Y-68490796D02*
X79689171Y-68490796D01*
X79546314Y-68490796D02*
X79617742Y-68562225D01*
X79617742Y-68562225D02*
X79689171Y-68705082D01*
X79689171Y-68705082D02*
X79689171Y-68919368D01*
X79689171Y-68919368D02*
X79617742Y-69062225D01*
X79617742Y-69062225D02*
X79474885Y-69133654D01*
X79474885Y-69133654D02*
X78689171Y-69133654D01*
X79474885Y-69133654D02*
X79617742Y-69205082D01*
X79617742Y-69205082D02*
X79689171Y-69347939D01*
X79689171Y-69347939D02*
X79689171Y-69562225D01*
X79689171Y-69562225D02*
X79617742Y-69705082D01*
X79617742Y-69705082D02*
X79474885Y-69776511D01*
X79474885Y-69776511D02*
X78689171Y-69776511D01*
X78689171Y-70490796D02*
X79689171Y-70490796D01*
X80189171Y-70490796D02*
X80117742Y-70419368D01*
X80117742Y-70419368D02*
X80046314Y-70490796D01*
X80046314Y-70490796D02*
X80117742Y-70562225D01*
X80117742Y-70562225D02*
X80189171Y-70490796D01*
X80189171Y-70490796D02*
X80046314Y-70490796D01*
X79689171Y-71205082D02*
X78689171Y-71205082D01*
X79546314Y-71205082D02*
X79617742Y-71276511D01*
X79617742Y-71276511D02*
X79689171Y-71419368D01*
X79689171Y-71419368D02*
X79689171Y-71633654D01*
X79689171Y-71633654D02*
X79617742Y-71776511D01*
X79617742Y-71776511D02*
X79474885Y-71847940D01*
X79474885Y-71847940D02*
X78689171Y-71847940D01*
X80117742Y-74490797D02*
X80189171Y-74347940D01*
X80189171Y-74347940D02*
X80189171Y-74133654D01*
X80189171Y-74133654D02*
X80117742Y-73919368D01*
X80117742Y-73919368D02*
X79974885Y-73776511D01*
X79974885Y-73776511D02*
X79832028Y-73705082D01*
X79832028Y-73705082D02*
X79546314Y-73633654D01*
X79546314Y-73633654D02*
X79332028Y-73633654D01*
X79332028Y-73633654D02*
X79046314Y-73705082D01*
X79046314Y-73705082D02*
X78903457Y-73776511D01*
X78903457Y-73776511D02*
X78760600Y-73919368D01*
X78760600Y-73919368D02*
X78689171Y-74133654D01*
X78689171Y-74133654D02*
X78689171Y-74276511D01*
X78689171Y-74276511D02*
X78760600Y-74490797D01*
X78760600Y-74490797D02*
X78832028Y-74562225D01*
X78832028Y-74562225D02*
X79332028Y-74562225D01*
X79332028Y-74562225D02*
X79332028Y-74276511D01*
X78689171Y-75847940D02*
X79474885Y-75847940D01*
X79474885Y-75847940D02*
X79617742Y-75776511D01*
X79617742Y-75776511D02*
X79689171Y-75633654D01*
X79689171Y-75633654D02*
X79689171Y-75347940D01*
X79689171Y-75347940D02*
X79617742Y-75205082D01*
X78760600Y-75847940D02*
X78689171Y-75705082D01*
X78689171Y-75705082D02*
X78689171Y-75347940D01*
X78689171Y-75347940D02*
X78760600Y-75205082D01*
X78760600Y-75205082D02*
X78903457Y-75133654D01*
X78903457Y-75133654D02*
X79046314Y-75133654D01*
X79046314Y-75133654D02*
X79189171Y-75205082D01*
X79189171Y-75205082D02*
X79260600Y-75347940D01*
X79260600Y-75347940D02*
X79260600Y-75705082D01*
X79260600Y-75705082D02*
X79332028Y-75847940D01*
X78689171Y-76776511D02*
X78760600Y-76633654D01*
X78760600Y-76633654D02*
X78832028Y-76562225D01*
X78832028Y-76562225D02*
X78974885Y-76490797D01*
X78974885Y-76490797D02*
X79403457Y-76490797D01*
X79403457Y-76490797D02*
X79546314Y-76562225D01*
X79546314Y-76562225D02*
X79617742Y-76633654D01*
X79617742Y-76633654D02*
X79689171Y-76776511D01*
X79689171Y-76776511D02*
X79689171Y-76990797D01*
X79689171Y-76990797D02*
X79617742Y-77133654D01*
X79617742Y-77133654D02*
X79546314Y-77205083D01*
X79546314Y-77205083D02*
X79403457Y-77276511D01*
X79403457Y-77276511D02*
X78974885Y-77276511D01*
X78974885Y-77276511D02*
X78832028Y-77205083D01*
X78832028Y-77205083D02*
X78760600Y-77133654D01*
X78760600Y-77133654D02*
X78689171Y-76990797D01*
X78689171Y-76990797D02*
X78689171Y-76776511D01*
X78689171Y-79062225D02*
X80189171Y-79062225D01*
X79617742Y-79062225D02*
X79689171Y-79205083D01*
X79689171Y-79205083D02*
X79689171Y-79490797D01*
X79689171Y-79490797D02*
X79617742Y-79633654D01*
X79617742Y-79633654D02*
X79546314Y-79705083D01*
X79546314Y-79705083D02*
X79403457Y-79776511D01*
X79403457Y-79776511D02*
X78974885Y-79776511D01*
X78974885Y-79776511D02*
X78832028Y-79705083D01*
X78832028Y-79705083D02*
X78760600Y-79633654D01*
X78760600Y-79633654D02*
X78689171Y-79490797D01*
X78689171Y-79490797D02*
X78689171Y-79205083D01*
X78689171Y-79205083D02*
X78760600Y-79062225D01*
X79689171Y-81062226D02*
X78474885Y-81062226D01*
X78474885Y-81062226D02*
X78332028Y-80990797D01*
X78332028Y-80990797D02*
X78260600Y-80919368D01*
X78260600Y-80919368D02*
X78189171Y-80776511D01*
X78189171Y-80776511D02*
X78189171Y-80562226D01*
X78189171Y-80562226D02*
X78260600Y-80419368D01*
X78760600Y-81062226D02*
X78689171Y-80919368D01*
X78689171Y-80919368D02*
X78689171Y-80633654D01*
X78689171Y-80633654D02*
X78760600Y-80490797D01*
X78760600Y-80490797D02*
X78832028Y-80419368D01*
X78832028Y-80419368D02*
X78974885Y-80347940D01*
X78974885Y-80347940D02*
X79403457Y-80347940D01*
X79403457Y-80347940D02*
X79546314Y-80419368D01*
X79546314Y-80419368D02*
X79617742Y-80490797D01*
X79617742Y-80490797D02*
X79689171Y-80633654D01*
X79689171Y-80633654D02*
X79689171Y-80919368D01*
X79689171Y-80919368D02*
X79617742Y-81062226D01*
X78689171Y-82419369D02*
X79474885Y-82419369D01*
X79474885Y-82419369D02*
X79617742Y-82347940D01*
X79617742Y-82347940D02*
X79689171Y-82205083D01*
X79689171Y-82205083D02*
X79689171Y-81919369D01*
X79689171Y-81919369D02*
X79617742Y-81776511D01*
X78760600Y-82419369D02*
X78689171Y-82276511D01*
X78689171Y-82276511D02*
X78689171Y-81919369D01*
X78689171Y-81919369D02*
X78760600Y-81776511D01*
X78760600Y-81776511D02*
X78903457Y-81705083D01*
X78903457Y-81705083D02*
X79046314Y-81705083D01*
X79046314Y-81705083D02*
X79189171Y-81776511D01*
X79189171Y-81776511D02*
X79260600Y-81919369D01*
X79260600Y-81919369D02*
X79260600Y-82276511D01*
X79260600Y-82276511D02*
X79332028Y-82419369D01*
X78689171Y-83347940D02*
X78760600Y-83205083D01*
X78760600Y-83205083D02*
X78832028Y-83133654D01*
X78832028Y-83133654D02*
X78974885Y-83062226D01*
X78974885Y-83062226D02*
X79403457Y-83062226D01*
X79403457Y-83062226D02*
X79546314Y-83133654D01*
X79546314Y-83133654D02*
X79617742Y-83205083D01*
X79617742Y-83205083D02*
X79689171Y-83347940D01*
X79689171Y-83347940D02*
X79689171Y-83562226D01*
X79689171Y-83562226D02*
X79617742Y-83705083D01*
X79617742Y-83705083D02*
X79546314Y-83776512D01*
X79546314Y-83776512D02*
X79403457Y-83847940D01*
X79403457Y-83847940D02*
X78974885Y-83847940D01*
X78974885Y-83847940D02*
X78832028Y-83776512D01*
X78832028Y-83776512D02*
X78760600Y-83705083D01*
X78760600Y-83705083D02*
X78689171Y-83562226D01*
X78689171Y-83562226D02*
X78689171Y-83347940D01*
X79546314Y-84705083D02*
X79617742Y-84562226D01*
X79617742Y-84562226D02*
X79689171Y-84490797D01*
X79689171Y-84490797D02*
X79832028Y-84419369D01*
X79832028Y-84419369D02*
X79903457Y-84419369D01*
X79903457Y-84419369D02*
X80046314Y-84490797D01*
X80046314Y-84490797D02*
X80117742Y-84562226D01*
X80117742Y-84562226D02*
X80189171Y-84705083D01*
X80189171Y-84705083D02*
X80189171Y-84990797D01*
X80189171Y-84990797D02*
X80117742Y-85133655D01*
X80117742Y-85133655D02*
X80046314Y-85205083D01*
X80046314Y-85205083D02*
X79903457Y-85276512D01*
X79903457Y-85276512D02*
X79832028Y-85276512D01*
X79832028Y-85276512D02*
X79689171Y-85205083D01*
X79689171Y-85205083D02*
X79617742Y-85133655D01*
X79617742Y-85133655D02*
X79546314Y-84990797D01*
X79546314Y-84990797D02*
X79546314Y-84705083D01*
X79546314Y-84705083D02*
X79474885Y-84562226D01*
X79474885Y-84562226D02*
X79403457Y-84490797D01*
X79403457Y-84490797D02*
X79260600Y-84419369D01*
X79260600Y-84419369D02*
X78974885Y-84419369D01*
X78974885Y-84419369D02*
X78832028Y-84490797D01*
X78832028Y-84490797D02*
X78760600Y-84562226D01*
X78760600Y-84562226D02*
X78689171Y-84705083D01*
X78689171Y-84705083D02*
X78689171Y-84990797D01*
X78689171Y-84990797D02*
X78760600Y-85133655D01*
X78760600Y-85133655D02*
X78832028Y-85205083D01*
X78832028Y-85205083D02*
X78974885Y-85276512D01*
X78974885Y-85276512D02*
X79260600Y-85276512D01*
X79260600Y-85276512D02*
X79403457Y-85205083D01*
X79403457Y-85205083D02*
X79474885Y-85133655D01*
X79474885Y-85133655D02*
X79546314Y-84990797D01*
X76274171Y-62276510D02*
X77774171Y-62276510D01*
X77774171Y-62276510D02*
X76702742Y-62776510D01*
X76702742Y-62776510D02*
X77774171Y-63276510D01*
X77774171Y-63276510D02*
X76274171Y-63276510D01*
X76274171Y-64633654D02*
X77059885Y-64633654D01*
X77059885Y-64633654D02*
X77202742Y-64562225D01*
X77202742Y-64562225D02*
X77274171Y-64419368D01*
X77274171Y-64419368D02*
X77274171Y-64133654D01*
X77274171Y-64133654D02*
X77202742Y-63990796D01*
X76345600Y-64633654D02*
X76274171Y-64490796D01*
X76274171Y-64490796D02*
X76274171Y-64133654D01*
X76274171Y-64133654D02*
X76345600Y-63990796D01*
X76345600Y-63990796D02*
X76488457Y-63919368D01*
X76488457Y-63919368D02*
X76631314Y-63919368D01*
X76631314Y-63919368D02*
X76774171Y-63990796D01*
X76774171Y-63990796D02*
X76845600Y-64133654D01*
X76845600Y-64133654D02*
X76845600Y-64490796D01*
X76845600Y-64490796D02*
X76917028Y-64633654D01*
X77274171Y-65133654D02*
X77274171Y-65705082D01*
X77774171Y-65347939D02*
X76488457Y-65347939D01*
X76488457Y-65347939D02*
X76345600Y-65419368D01*
X76345600Y-65419368D02*
X76274171Y-65562225D01*
X76274171Y-65562225D02*
X76274171Y-65705082D01*
X77274171Y-65990797D02*
X77274171Y-66562225D01*
X77774171Y-66205082D02*
X76488457Y-66205082D01*
X76488457Y-66205082D02*
X76345600Y-66276511D01*
X76345600Y-66276511D02*
X76274171Y-66419368D01*
X76274171Y-66419368D02*
X76274171Y-66562225D01*
X76274171Y-69062225D02*
X76988457Y-68562225D01*
X76274171Y-68205082D02*
X77774171Y-68205082D01*
X77774171Y-68205082D02*
X77774171Y-68776511D01*
X77774171Y-68776511D02*
X77702742Y-68919368D01*
X77702742Y-68919368D02*
X77631314Y-68990797D01*
X77631314Y-68990797D02*
X77488457Y-69062225D01*
X77488457Y-69062225D02*
X77274171Y-69062225D01*
X77274171Y-69062225D02*
X77131314Y-68990797D01*
X77131314Y-68990797D02*
X77059885Y-68919368D01*
X77059885Y-68919368D02*
X76988457Y-68776511D01*
X76988457Y-68776511D02*
X76988457Y-68205082D01*
X77274171Y-69562225D02*
X76274171Y-69919368D01*
X77274171Y-70276511D02*
X76274171Y-69919368D01*
X76274171Y-69919368D02*
X75917028Y-69776511D01*
X75917028Y-69776511D02*
X75845600Y-69705082D01*
X75845600Y-69705082D02*
X75774171Y-69562225D01*
X76274171Y-71062225D02*
X76345600Y-70919368D01*
X76345600Y-70919368D02*
X76488457Y-70847939D01*
X76488457Y-70847939D02*
X77774171Y-70847939D01*
X76274171Y-72276511D02*
X77059885Y-72276511D01*
X77059885Y-72276511D02*
X77202742Y-72205082D01*
X77202742Y-72205082D02*
X77274171Y-72062225D01*
X77274171Y-72062225D02*
X77274171Y-71776511D01*
X77274171Y-71776511D02*
X77202742Y-71633653D01*
X76345600Y-72276511D02*
X76274171Y-72133653D01*
X76274171Y-72133653D02*
X76274171Y-71776511D01*
X76274171Y-71776511D02*
X76345600Y-71633653D01*
X76345600Y-71633653D02*
X76488457Y-71562225D01*
X76488457Y-71562225D02*
X76631314Y-71562225D01*
X76631314Y-71562225D02*
X76774171Y-71633653D01*
X76774171Y-71633653D02*
X76845600Y-71776511D01*
X76845600Y-71776511D02*
X76845600Y-72133653D01*
X76845600Y-72133653D02*
X76917028Y-72276511D01*
X77274171Y-72990796D02*
X76274171Y-72990796D01*
X77131314Y-72990796D02*
X77202742Y-73062225D01*
X77202742Y-73062225D02*
X77274171Y-73205082D01*
X77274171Y-73205082D02*
X77274171Y-73419368D01*
X77274171Y-73419368D02*
X77202742Y-73562225D01*
X77202742Y-73562225D02*
X77059885Y-73633654D01*
X77059885Y-73633654D02*
X76274171Y-73633654D01*
X76274171Y-74990797D02*
X77774171Y-74990797D01*
X76345600Y-74990797D02*
X76274171Y-74847939D01*
X76274171Y-74847939D02*
X76274171Y-74562225D01*
X76274171Y-74562225D02*
X76345600Y-74419368D01*
X76345600Y-74419368D02*
X76417028Y-74347939D01*
X76417028Y-74347939D02*
X76559885Y-74276511D01*
X76559885Y-74276511D02*
X76988457Y-74276511D01*
X76988457Y-74276511D02*
X77131314Y-74347939D01*
X77131314Y-74347939D02*
X77202742Y-74419368D01*
X77202742Y-74419368D02*
X77274171Y-74562225D01*
X77274171Y-74562225D02*
X77274171Y-74847939D01*
X77274171Y-74847939D02*
X77202742Y-74990797D01*
X76345600Y-76276511D02*
X76274171Y-76133654D01*
X76274171Y-76133654D02*
X76274171Y-75847940D01*
X76274171Y-75847940D02*
X76345600Y-75705082D01*
X76345600Y-75705082D02*
X76488457Y-75633654D01*
X76488457Y-75633654D02*
X77059885Y-75633654D01*
X77059885Y-75633654D02*
X77202742Y-75705082D01*
X77202742Y-75705082D02*
X77274171Y-75847940D01*
X77274171Y-75847940D02*
X77274171Y-76133654D01*
X77274171Y-76133654D02*
X77202742Y-76276511D01*
X77202742Y-76276511D02*
X77059885Y-76347940D01*
X77059885Y-76347940D02*
X76917028Y-76347940D01*
X76917028Y-76347940D02*
X76774171Y-75633654D01*
X76274171Y-76990796D02*
X77274171Y-76990796D01*
X76988457Y-76990796D02*
X77131314Y-77062225D01*
X77131314Y-77062225D02*
X77202742Y-77133654D01*
X77202742Y-77133654D02*
X77274171Y-77276511D01*
X77274171Y-77276511D02*
X77274171Y-77419368D01*
X76274171Y-79062224D02*
X77274171Y-79062224D01*
X77131314Y-79062224D02*
X77202742Y-79133653D01*
X77202742Y-79133653D02*
X77274171Y-79276510D01*
X77274171Y-79276510D02*
X77274171Y-79490796D01*
X77274171Y-79490796D02*
X77202742Y-79633653D01*
X77202742Y-79633653D02*
X77059885Y-79705082D01*
X77059885Y-79705082D02*
X76274171Y-79705082D01*
X77059885Y-79705082D02*
X77202742Y-79776510D01*
X77202742Y-79776510D02*
X77274171Y-79919367D01*
X77274171Y-79919367D02*
X77274171Y-80133653D01*
X77274171Y-80133653D02*
X77202742Y-80276510D01*
X77202742Y-80276510D02*
X77059885Y-80347939D01*
X77059885Y-80347939D02*
X76274171Y-80347939D01*
X77274171Y-81062224D02*
X75988457Y-81062224D01*
X75988457Y-81062224D02*
X75845600Y-80990796D01*
X75845600Y-80990796D02*
X75774171Y-80847939D01*
X75774171Y-80847939D02*
X75774171Y-80776510D01*
X77774171Y-81062224D02*
X77702742Y-80990796D01*
X77702742Y-80990796D02*
X77631314Y-81062224D01*
X77631314Y-81062224D02*
X77702742Y-81133653D01*
X77702742Y-81133653D02*
X77774171Y-81062224D01*
X77774171Y-81062224D02*
X77631314Y-81062224D01*
X76274171Y-81776510D02*
X77274171Y-81776510D01*
X76988457Y-81776510D02*
X77131314Y-81847939D01*
X77131314Y-81847939D02*
X77202742Y-81919368D01*
X77202742Y-81919368D02*
X77274171Y-82062225D01*
X77274171Y-82062225D02*
X77274171Y-82205082D01*
X77774171Y-82562224D02*
X77774171Y-83562224D01*
X77774171Y-83562224D02*
X76274171Y-82919367D01*
X74287742Y-62205082D02*
X74287742Y-62919368D01*
X73859171Y-62062225D02*
X75359171Y-62562225D01*
X75359171Y-62562225D02*
X73859171Y-63062225D01*
X73859171Y-63776510D02*
X73930600Y-63633653D01*
X73930600Y-63633653D02*
X74073457Y-63562224D01*
X74073457Y-63562224D02*
X75359171Y-63562224D01*
X73859171Y-64562224D02*
X73930600Y-64419367D01*
X73930600Y-64419367D02*
X74073457Y-64347938D01*
X74073457Y-64347938D02*
X75359171Y-64347938D01*
X73930600Y-65705081D02*
X73859171Y-65562224D01*
X73859171Y-65562224D02*
X73859171Y-65276510D01*
X73859171Y-65276510D02*
X73930600Y-65133652D01*
X73930600Y-65133652D02*
X74073457Y-65062224D01*
X74073457Y-65062224D02*
X74644885Y-65062224D01*
X74644885Y-65062224D02*
X74787742Y-65133652D01*
X74787742Y-65133652D02*
X74859171Y-65276510D01*
X74859171Y-65276510D02*
X74859171Y-65562224D01*
X74859171Y-65562224D02*
X74787742Y-65705081D01*
X74787742Y-65705081D02*
X74644885Y-65776510D01*
X74644885Y-65776510D02*
X74502028Y-65776510D01*
X74502028Y-65776510D02*
X74359171Y-65062224D01*
X74859171Y-66419366D02*
X73859171Y-66419366D01*
X74716314Y-66419366D02*
X74787742Y-66490795D01*
X74787742Y-66490795D02*
X74859171Y-66633652D01*
X74859171Y-66633652D02*
X74859171Y-66847938D01*
X74859171Y-66847938D02*
X74787742Y-66990795D01*
X74787742Y-66990795D02*
X74644885Y-67062224D01*
X74644885Y-67062224D02*
X73859171Y-67062224D01*
X73930600Y-68847938D02*
X73859171Y-69062224D01*
X73859171Y-69062224D02*
X73859171Y-69419366D01*
X73859171Y-69419366D02*
X73930600Y-69562224D01*
X73930600Y-69562224D02*
X74002028Y-69633652D01*
X74002028Y-69633652D02*
X74144885Y-69705081D01*
X74144885Y-69705081D02*
X74287742Y-69705081D01*
X74287742Y-69705081D02*
X74430600Y-69633652D01*
X74430600Y-69633652D02*
X74502028Y-69562224D01*
X74502028Y-69562224D02*
X74573457Y-69419366D01*
X74573457Y-69419366D02*
X74644885Y-69133652D01*
X74644885Y-69133652D02*
X74716314Y-68990795D01*
X74716314Y-68990795D02*
X74787742Y-68919366D01*
X74787742Y-68919366D02*
X74930600Y-68847938D01*
X74930600Y-68847938D02*
X75073457Y-68847938D01*
X75073457Y-68847938D02*
X75216314Y-68919366D01*
X75216314Y-68919366D02*
X75287742Y-68990795D01*
X75287742Y-68990795D02*
X75359171Y-69133652D01*
X75359171Y-69133652D02*
X75359171Y-69490795D01*
X75359171Y-69490795D02*
X75287742Y-69705081D01*
X74859171Y-70133652D02*
X74859171Y-70705080D01*
X75359171Y-70347937D02*
X74073457Y-70347937D01*
X74073457Y-70347937D02*
X73930600Y-70419366D01*
X73930600Y-70419366D02*
X73859171Y-70562223D01*
X73859171Y-70562223D02*
X73859171Y-70705080D01*
X73930600Y-71776509D02*
X73859171Y-71633652D01*
X73859171Y-71633652D02*
X73859171Y-71347938D01*
X73859171Y-71347938D02*
X73930600Y-71205080D01*
X73930600Y-71205080D02*
X74073457Y-71133652D01*
X74073457Y-71133652D02*
X74644885Y-71133652D01*
X74644885Y-71133652D02*
X74787742Y-71205080D01*
X74787742Y-71205080D02*
X74859171Y-71347938D01*
X74859171Y-71347938D02*
X74859171Y-71633652D01*
X74859171Y-71633652D02*
X74787742Y-71776509D01*
X74787742Y-71776509D02*
X74644885Y-71847938D01*
X74644885Y-71847938D02*
X74502028Y-71847938D01*
X74502028Y-71847938D02*
X74359171Y-71133652D01*
X73859171Y-72490794D02*
X74859171Y-72490794D01*
X75359171Y-72490794D02*
X75287742Y-72419366D01*
X75287742Y-72419366D02*
X75216314Y-72490794D01*
X75216314Y-72490794D02*
X75287742Y-72562223D01*
X75287742Y-72562223D02*
X75359171Y-72490794D01*
X75359171Y-72490794D02*
X75216314Y-72490794D01*
X74859171Y-73205080D02*
X73859171Y-73205080D01*
X74716314Y-73205080D02*
X74787742Y-73276509D01*
X74787742Y-73276509D02*
X74859171Y-73419366D01*
X74859171Y-73419366D02*
X74859171Y-73633652D01*
X74859171Y-73633652D02*
X74787742Y-73776509D01*
X74787742Y-73776509D02*
X74644885Y-73847938D01*
X74644885Y-73847938D02*
X73859171Y-73847938D01*
X73859171Y-74562223D02*
X75359171Y-74562223D01*
X74787742Y-74562223D02*
X74859171Y-74705081D01*
X74859171Y-74705081D02*
X74859171Y-74990795D01*
X74859171Y-74990795D02*
X74787742Y-75133652D01*
X74787742Y-75133652D02*
X74716314Y-75205081D01*
X74716314Y-75205081D02*
X74573457Y-75276509D01*
X74573457Y-75276509D02*
X74144885Y-75276509D01*
X74144885Y-75276509D02*
X74002028Y-75205081D01*
X74002028Y-75205081D02*
X73930600Y-75133652D01*
X73930600Y-75133652D02*
X73859171Y-74990795D01*
X73859171Y-74990795D02*
X73859171Y-74705081D01*
X73859171Y-74705081D02*
X73930600Y-74562223D01*
X73930600Y-76490795D02*
X73859171Y-76347938D01*
X73859171Y-76347938D02*
X73859171Y-76062224D01*
X73859171Y-76062224D02*
X73930600Y-75919366D01*
X73930600Y-75919366D02*
X74073457Y-75847938D01*
X74073457Y-75847938D02*
X74644885Y-75847938D01*
X74644885Y-75847938D02*
X74787742Y-75919366D01*
X74787742Y-75919366D02*
X74859171Y-76062224D01*
X74859171Y-76062224D02*
X74859171Y-76347938D01*
X74859171Y-76347938D02*
X74787742Y-76490795D01*
X74787742Y-76490795D02*
X74644885Y-76562224D01*
X74644885Y-76562224D02*
X74502028Y-76562224D01*
X74502028Y-76562224D02*
X74359171Y-75847938D01*
X73859171Y-77205080D02*
X74859171Y-77205080D01*
X74573457Y-77205080D02*
X74716314Y-77276509D01*
X74716314Y-77276509D02*
X74787742Y-77347938D01*
X74787742Y-77347938D02*
X74859171Y-77490795D01*
X74859171Y-77490795D02*
X74859171Y-77633652D01*
X74859171Y-78776509D02*
X73644885Y-78776509D01*
X73644885Y-78776509D02*
X73502028Y-78705080D01*
X73502028Y-78705080D02*
X73430600Y-78633651D01*
X73430600Y-78633651D02*
X73359171Y-78490794D01*
X73359171Y-78490794D02*
X73359171Y-78276509D01*
X73359171Y-78276509D02*
X73430600Y-78133651D01*
X73930600Y-78776509D02*
X73859171Y-78633651D01*
X73859171Y-78633651D02*
X73859171Y-78347937D01*
X73859171Y-78347937D02*
X73930600Y-78205080D01*
X73930600Y-78205080D02*
X74002028Y-78133651D01*
X74002028Y-78133651D02*
X74144885Y-78062223D01*
X74144885Y-78062223D02*
X74573457Y-78062223D01*
X74573457Y-78062223D02*
X74716314Y-78133651D01*
X74716314Y-78133651D02*
X74787742Y-78205080D01*
X74787742Y-78205080D02*
X74859171Y-78347937D01*
X74859171Y-78347937D02*
X74859171Y-78633651D01*
X74859171Y-78633651D02*
X74787742Y-78776509D01*
X73859171Y-81276509D02*
X74644885Y-81276509D01*
X74644885Y-81276509D02*
X74787742Y-81205080D01*
X74787742Y-81205080D02*
X74859171Y-81062223D01*
X74859171Y-81062223D02*
X74859171Y-80776509D01*
X74859171Y-80776509D02*
X74787742Y-80633651D01*
X73930600Y-81276509D02*
X73859171Y-81133651D01*
X73859171Y-81133651D02*
X73859171Y-80776509D01*
X73859171Y-80776509D02*
X73930600Y-80633651D01*
X73930600Y-80633651D02*
X74073457Y-80562223D01*
X74073457Y-80562223D02*
X74216314Y-80562223D01*
X74216314Y-80562223D02*
X74359171Y-80633651D01*
X74359171Y-80633651D02*
X74430600Y-80776509D01*
X74430600Y-80776509D02*
X74430600Y-81133651D01*
X74430600Y-81133651D02*
X74502028Y-81276509D01*
X73859171Y-82205080D02*
X73930600Y-82062223D01*
X73930600Y-82062223D02*
X74073457Y-81990794D01*
X74073457Y-81990794D02*
X75359171Y-81990794D01*
X73859171Y-82990794D02*
X73930600Y-82847937D01*
X73930600Y-82847937D02*
X74073457Y-82776508D01*
X74073457Y-82776508D02*
X75359171Y-82776508D01*
X73930600Y-84133651D02*
X73859171Y-83990794D01*
X73859171Y-83990794D02*
X73859171Y-83705080D01*
X73859171Y-83705080D02*
X73930600Y-83562222D01*
X73930600Y-83562222D02*
X74073457Y-83490794D01*
X74073457Y-83490794D02*
X74644885Y-83490794D01*
X74644885Y-83490794D02*
X74787742Y-83562222D01*
X74787742Y-83562222D02*
X74859171Y-83705080D01*
X74859171Y-83705080D02*
X74859171Y-83990794D01*
X74859171Y-83990794D02*
X74787742Y-84133651D01*
X74787742Y-84133651D02*
X74644885Y-84205080D01*
X74644885Y-84205080D02*
X74502028Y-84205080D01*
X74502028Y-84205080D02*
X74359171Y-83490794D01*
X74859171Y-84847936D02*
X73859171Y-84847936D01*
X74716314Y-84847936D02*
X74787742Y-84919365D01*
X74787742Y-84919365D02*
X74859171Y-85062222D01*
X74859171Y-85062222D02*
X74859171Y-85276508D01*
X74859171Y-85276508D02*
X74787742Y-85419365D01*
X74787742Y-85419365D02*
X74644885Y-85490794D01*
X74644885Y-85490794D02*
X73859171Y-85490794D01*
X73859171Y-86847937D02*
X75359171Y-86847937D01*
X73930600Y-86847937D02*
X73859171Y-86705079D01*
X73859171Y-86705079D02*
X73859171Y-86419365D01*
X73859171Y-86419365D02*
X73930600Y-86276508D01*
X73930600Y-86276508D02*
X74002028Y-86205079D01*
X74002028Y-86205079D02*
X74144885Y-86133651D01*
X74144885Y-86133651D02*
X74573457Y-86133651D01*
X74573457Y-86133651D02*
X74716314Y-86205079D01*
X74716314Y-86205079D02*
X74787742Y-86276508D01*
X74787742Y-86276508D02*
X74859171Y-86419365D01*
X74859171Y-86419365D02*
X74859171Y-86705079D01*
X74859171Y-86705079D02*
X74787742Y-86847937D01*
X73930600Y-87490794D02*
X73859171Y-87633651D01*
X73859171Y-87633651D02*
X73859171Y-87919365D01*
X73859171Y-87919365D02*
X73930600Y-88062222D01*
X73930600Y-88062222D02*
X74073457Y-88133651D01*
X74073457Y-88133651D02*
X74144885Y-88133651D01*
X74144885Y-88133651D02*
X74287742Y-88062222D01*
X74287742Y-88062222D02*
X74359171Y-87919365D01*
X74359171Y-87919365D02*
X74359171Y-87705080D01*
X74359171Y-87705080D02*
X74430600Y-87562222D01*
X74430600Y-87562222D02*
X74573457Y-87490794D01*
X74573457Y-87490794D02*
X74644885Y-87490794D01*
X74644885Y-87490794D02*
X74787742Y-87562222D01*
X74787742Y-87562222D02*
X74859171Y-87705080D01*
X74859171Y-87705080D02*
X74859171Y-87919365D01*
X74859171Y-87919365D02*
X74787742Y-88062222D01*
X75216314Y-88705080D02*
X75287742Y-88776508D01*
X75287742Y-88776508D02*
X75359171Y-88919366D01*
X75359171Y-88919366D02*
X75359171Y-89276508D01*
X75359171Y-89276508D02*
X75287742Y-89419366D01*
X75287742Y-89419366D02*
X75216314Y-89490794D01*
X75216314Y-89490794D02*
X75073457Y-89562223D01*
X75073457Y-89562223D02*
X74930600Y-89562223D01*
X74930600Y-89562223D02*
X74716314Y-89490794D01*
X74716314Y-89490794D02*
X73859171Y-88633651D01*
X73859171Y-88633651D02*
X73859171Y-89562223D01*
D10*
X94888207Y-73021819D02*
X94554874Y-72545628D01*
X94316779Y-73021819D02*
X94316779Y-72021819D01*
X94316779Y-72021819D02*
X94697731Y-72021819D01*
X94697731Y-72021819D02*
X94792969Y-72069438D01*
X94792969Y-72069438D02*
X94840588Y-72117057D01*
X94840588Y-72117057D02*
X94888207Y-72212295D01*
X94888207Y-72212295D02*
X94888207Y-72355152D01*
X94888207Y-72355152D02*
X94840588Y-72450390D01*
X94840588Y-72450390D02*
X94792969Y-72498009D01*
X94792969Y-72498009D02*
X94697731Y-72545628D01*
X94697731Y-72545628D02*
X94316779Y-72545628D01*
X95221541Y-72021819D02*
X95888207Y-73021819D01*
X95888207Y-72021819D02*
X95221541Y-73021819D01*
X119716779Y-106041819D02*
X119716779Y-105041819D01*
X119716779Y-105041819D02*
X119954874Y-105041819D01*
X119954874Y-105041819D02*
X120097731Y-105089438D01*
X120097731Y-105089438D02*
X120192969Y-105184676D01*
X120192969Y-105184676D02*
X120240588Y-105279914D01*
X120240588Y-105279914D02*
X120288207Y-105470390D01*
X120288207Y-105470390D02*
X120288207Y-105613247D01*
X120288207Y-105613247D02*
X120240588Y-105803723D01*
X120240588Y-105803723D02*
X120192969Y-105898961D01*
X120192969Y-105898961D02*
X120097731Y-105994200D01*
X120097731Y-105994200D02*
X119954874Y-106041819D01*
X119954874Y-106041819D02*
X119716779Y-106041819D01*
X120573922Y-105041819D02*
X121145350Y-105041819D01*
X120859636Y-106041819D02*
X120859636Y-105041819D01*
X122050112Y-106041819D02*
X121716779Y-105565628D01*
X121478684Y-106041819D02*
X121478684Y-105041819D01*
X121478684Y-105041819D02*
X121859636Y-105041819D01*
X121859636Y-105041819D02*
X121954874Y-105089438D01*
X121954874Y-105089438D02*
X122002493Y-105137057D01*
X122002493Y-105137057D02*
X122050112Y-105232295D01*
X122050112Y-105232295D02*
X122050112Y-105375152D01*
X122050112Y-105375152D02*
X122002493Y-105470390D01*
X122002493Y-105470390D02*
X121954874Y-105518009D01*
X121954874Y-105518009D02*
X121859636Y-105565628D01*
X121859636Y-105565628D02*
X121478684Y-105565628D01*
D11*
X82969558Y-40348019D02*
X83636225Y-40348019D01*
X83921939Y-41395638D02*
X82969558Y-41395638D01*
X82969558Y-41395638D02*
X82969558Y-39395638D01*
X82969558Y-39395638D02*
X83921939Y-39395638D01*
X85921939Y-41205161D02*
X85826701Y-41300400D01*
X85826701Y-41300400D02*
X85540987Y-41395638D01*
X85540987Y-41395638D02*
X85350511Y-41395638D01*
X85350511Y-41395638D02*
X85064796Y-41300400D01*
X85064796Y-41300400D02*
X84874320Y-41109923D01*
X84874320Y-41109923D02*
X84779082Y-40919447D01*
X84779082Y-40919447D02*
X84683844Y-40538495D01*
X84683844Y-40538495D02*
X84683844Y-40252780D01*
X84683844Y-40252780D02*
X84779082Y-39871828D01*
X84779082Y-39871828D02*
X84874320Y-39681352D01*
X84874320Y-39681352D02*
X85064796Y-39490876D01*
X85064796Y-39490876D02*
X85350511Y-39395638D01*
X85350511Y-39395638D02*
X85540987Y-39395638D01*
X85540987Y-39395638D02*
X85826701Y-39490876D01*
X85826701Y-39490876D02*
X85921939Y-39586114D01*
X86779082Y-40348019D02*
X87445749Y-40348019D01*
X87731463Y-41395638D02*
X86779082Y-41395638D01*
X86779082Y-41395638D02*
X86779082Y-39395638D01*
X86779082Y-39395638D02*
X87731463Y-39395638D01*
X90969559Y-40062304D02*
X90969559Y-41395638D01*
X90493368Y-39300400D02*
X90017178Y-40728971D01*
X90017178Y-40728971D02*
X91255273Y-40728971D01*
X92874321Y-40062304D02*
X92874321Y-41395638D01*
X92398130Y-39300400D02*
X91921940Y-40728971D01*
X91921940Y-40728971D02*
X93160035Y-40728971D01*
X94874321Y-39395638D02*
X93921940Y-39395638D01*
X93921940Y-39395638D02*
X93826702Y-40348019D01*
X93826702Y-40348019D02*
X93921940Y-40252780D01*
X93921940Y-40252780D02*
X94112416Y-40157542D01*
X94112416Y-40157542D02*
X94588607Y-40157542D01*
X94588607Y-40157542D02*
X94779083Y-40252780D01*
X94779083Y-40252780D02*
X94874321Y-40348019D01*
X94874321Y-40348019D02*
X94969559Y-40538495D01*
X94969559Y-40538495D02*
X94969559Y-41014685D01*
X94969559Y-41014685D02*
X94874321Y-41205161D01*
X94874321Y-41205161D02*
X94779083Y-41300400D01*
X94779083Y-41300400D02*
X94588607Y-41395638D01*
X94588607Y-41395638D02*
X94112416Y-41395638D01*
X94112416Y-41395638D02*
X93921940Y-41300400D01*
X93921940Y-41300400D02*
X93826702Y-41205161D01*
X98398131Y-39490876D02*
X98207655Y-39395638D01*
X98207655Y-39395638D02*
X97921941Y-39395638D01*
X97921941Y-39395638D02*
X97636226Y-39490876D01*
X97636226Y-39490876D02*
X97445750Y-39681352D01*
X97445750Y-39681352D02*
X97350512Y-39871828D01*
X97350512Y-39871828D02*
X97255274Y-40252780D01*
X97255274Y-40252780D02*
X97255274Y-40538495D01*
X97255274Y-40538495D02*
X97350512Y-40919447D01*
X97350512Y-40919447D02*
X97445750Y-41109923D01*
X97445750Y-41109923D02*
X97636226Y-41300400D01*
X97636226Y-41300400D02*
X97921941Y-41395638D01*
X97921941Y-41395638D02*
X98112417Y-41395638D01*
X98112417Y-41395638D02*
X98398131Y-41300400D01*
X98398131Y-41300400D02*
X98493369Y-41205161D01*
X98493369Y-41205161D02*
X98493369Y-40538495D01*
X98493369Y-40538495D02*
X98112417Y-40538495D01*
X99350512Y-41395638D02*
X99350512Y-40062304D01*
X99350512Y-40443257D02*
X99445750Y-40252780D01*
X99445750Y-40252780D02*
X99540988Y-40157542D01*
X99540988Y-40157542D02*
X99731464Y-40062304D01*
X99731464Y-40062304D02*
X99921941Y-40062304D01*
X100874321Y-41395638D02*
X100683845Y-41300400D01*
X100683845Y-41300400D02*
X100588607Y-41205161D01*
X100588607Y-41205161D02*
X100493369Y-41014685D01*
X100493369Y-41014685D02*
X100493369Y-40443257D01*
X100493369Y-40443257D02*
X100588607Y-40252780D01*
X100588607Y-40252780D02*
X100683845Y-40157542D01*
X100683845Y-40157542D02*
X100874321Y-40062304D01*
X100874321Y-40062304D02*
X101160036Y-40062304D01*
X101160036Y-40062304D02*
X101350512Y-40157542D01*
X101350512Y-40157542D02*
X101445750Y-40252780D01*
X101445750Y-40252780D02*
X101540988Y-40443257D01*
X101540988Y-40443257D02*
X101540988Y-41014685D01*
X101540988Y-41014685D02*
X101445750Y-41205161D01*
X101445750Y-41205161D02*
X101350512Y-41300400D01*
X101350512Y-41300400D02*
X101160036Y-41395638D01*
X101160036Y-41395638D02*
X100874321Y-41395638D01*
X103255274Y-40062304D02*
X103255274Y-41395638D01*
X102398131Y-40062304D02*
X102398131Y-41109923D01*
X102398131Y-41109923D02*
X102493369Y-41300400D01*
X102493369Y-41300400D02*
X102683845Y-41395638D01*
X102683845Y-41395638D02*
X102969560Y-41395638D01*
X102969560Y-41395638D02*
X103160036Y-41300400D01*
X103160036Y-41300400D02*
X103255274Y-41205161D01*
X104207655Y-40062304D02*
X104207655Y-42062304D01*
X104207655Y-40157542D02*
X104398131Y-40062304D01*
X104398131Y-40062304D02*
X104779084Y-40062304D01*
X104779084Y-40062304D02*
X104969560Y-40157542D01*
X104969560Y-40157542D02*
X105064798Y-40252780D01*
X105064798Y-40252780D02*
X105160036Y-40443257D01*
X105160036Y-40443257D02*
X105160036Y-41014685D01*
X105160036Y-41014685D02*
X105064798Y-41205161D01*
X105064798Y-41205161D02*
X104969560Y-41300400D01*
X104969560Y-41300400D02*
X104779084Y-41395638D01*
X104779084Y-41395638D02*
X104398131Y-41395638D01*
X104398131Y-41395638D02*
X104207655Y-41300400D01*
X108588608Y-41395638D02*
X107445751Y-41395638D01*
X108017179Y-41395638D02*
X108017179Y-39395638D01*
X108017179Y-39395638D02*
X107826703Y-39681352D01*
X107826703Y-39681352D02*
X107636227Y-39871828D01*
X107636227Y-39871828D02*
X107445751Y-39967066D01*
D10*
X115970207Y-93087819D02*
X115636874Y-92611628D01*
X115398779Y-93087819D02*
X115398779Y-92087819D01*
X115398779Y-92087819D02*
X115779731Y-92087819D01*
X115779731Y-92087819D02*
X115874969Y-92135438D01*
X115874969Y-92135438D02*
X115922588Y-92183057D01*
X115922588Y-92183057D02*
X115970207Y-92278295D01*
X115970207Y-92278295D02*
X115970207Y-92421152D01*
X115970207Y-92421152D02*
X115922588Y-92516390D01*
X115922588Y-92516390D02*
X115874969Y-92564009D01*
X115874969Y-92564009D02*
X115779731Y-92611628D01*
X115779731Y-92611628D02*
X115398779Y-92611628D01*
X116255922Y-92087819D02*
X116827350Y-92087819D01*
X116541636Y-93087819D02*
X116541636Y-92087819D01*
X117113065Y-93040200D02*
X117255922Y-93087819D01*
X117255922Y-93087819D02*
X117494017Y-93087819D01*
X117494017Y-93087819D02*
X117589255Y-93040200D01*
X117589255Y-93040200D02*
X117636874Y-92992580D01*
X117636874Y-92992580D02*
X117684493Y-92897342D01*
X117684493Y-92897342D02*
X117684493Y-92802104D01*
X117684493Y-92802104D02*
X117636874Y-92706866D01*
X117636874Y-92706866D02*
X117589255Y-92659247D01*
X117589255Y-92659247D02*
X117494017Y-92611628D01*
X117494017Y-92611628D02*
X117303541Y-92564009D01*
X117303541Y-92564009D02*
X117208303Y-92516390D01*
X117208303Y-92516390D02*
X117160684Y-92468771D01*
X117160684Y-92468771D02*
X117113065Y-92373533D01*
X117113065Y-92373533D02*
X117113065Y-92278295D01*
X117113065Y-92278295D02*
X117160684Y-92183057D01*
X117160684Y-92183057D02*
X117208303Y-92135438D01*
X117208303Y-92135438D02*
X117303541Y-92087819D01*
X117303541Y-92087819D02*
X117541636Y-92087819D01*
X117541636Y-92087819D02*
X117684493Y-92135438D01*
X93824588Y-74355438D02*
X93729350Y-74307819D01*
X93729350Y-74307819D02*
X93586493Y-74307819D01*
X93586493Y-74307819D02*
X93443636Y-74355438D01*
X93443636Y-74355438D02*
X93348398Y-74450676D01*
X93348398Y-74450676D02*
X93300779Y-74545914D01*
X93300779Y-74545914D02*
X93253160Y-74736390D01*
X93253160Y-74736390D02*
X93253160Y-74879247D01*
X93253160Y-74879247D02*
X93300779Y-75069723D01*
X93300779Y-75069723D02*
X93348398Y-75164961D01*
X93348398Y-75164961D02*
X93443636Y-75260200D01*
X93443636Y-75260200D02*
X93586493Y-75307819D01*
X93586493Y-75307819D02*
X93681731Y-75307819D01*
X93681731Y-75307819D02*
X93824588Y-75260200D01*
X93824588Y-75260200D02*
X93872207Y-75212580D01*
X93872207Y-75212580D02*
X93872207Y-74879247D01*
X93872207Y-74879247D02*
X93681731Y-74879247D01*
X94300779Y-75307819D02*
X94300779Y-74307819D01*
X94300779Y-74307819D02*
X94872207Y-75307819D01*
X94872207Y-75307819D02*
X94872207Y-74307819D01*
X95348398Y-75307819D02*
X95348398Y-74307819D01*
X95348398Y-74307819D02*
X95586493Y-74307819D01*
X95586493Y-74307819D02*
X95729350Y-74355438D01*
X95729350Y-74355438D02*
X95824588Y-74450676D01*
X95824588Y-74450676D02*
X95872207Y-74545914D01*
X95872207Y-74545914D02*
X95919826Y-74736390D01*
X95919826Y-74736390D02*
X95919826Y-74879247D01*
X95919826Y-74879247D02*
X95872207Y-75069723D01*
X95872207Y-75069723D02*
X95824588Y-75164961D01*
X95824588Y-75164961D02*
X95729350Y-75260200D01*
X95729350Y-75260200D02*
X95586493Y-75307819D01*
X95586493Y-75307819D02*
X95348398Y-75307819D01*
X95046969Y-66941819D02*
X94570779Y-66941819D01*
X94570779Y-66941819D02*
X94523160Y-67418009D01*
X94523160Y-67418009D02*
X94570779Y-67370390D01*
X94570779Y-67370390D02*
X94666017Y-67322771D01*
X94666017Y-67322771D02*
X94904112Y-67322771D01*
X94904112Y-67322771D02*
X94999350Y-67370390D01*
X94999350Y-67370390D02*
X95046969Y-67418009D01*
X95046969Y-67418009D02*
X95094588Y-67513247D01*
X95094588Y-67513247D02*
X95094588Y-67751342D01*
X95094588Y-67751342D02*
X95046969Y-67846580D01*
X95046969Y-67846580D02*
X94999350Y-67894200D01*
X94999350Y-67894200D02*
X94904112Y-67941819D01*
X94904112Y-67941819D02*
X94666017Y-67941819D01*
X94666017Y-67941819D02*
X94570779Y-67894200D01*
X94570779Y-67894200D02*
X94523160Y-67846580D01*
X95380303Y-66941819D02*
X95713636Y-67941819D01*
X95713636Y-67941819D02*
X96046969Y-66941819D01*
D11*
X99392225Y-61038828D02*
X99535082Y-61038828D01*
X99535082Y-61038828D02*
X99677939Y-61110257D01*
X99677939Y-61110257D02*
X99749368Y-61181685D01*
X99749368Y-61181685D02*
X99820796Y-61324542D01*
X99820796Y-61324542D02*
X99892225Y-61610257D01*
X99892225Y-61610257D02*
X99892225Y-61967400D01*
X99892225Y-61967400D02*
X99820796Y-62253114D01*
X99820796Y-62253114D02*
X99749368Y-62395971D01*
X99749368Y-62395971D02*
X99677939Y-62467400D01*
X99677939Y-62467400D02*
X99535082Y-62538828D01*
X99535082Y-62538828D02*
X99392225Y-62538828D01*
X99392225Y-62538828D02*
X99249368Y-62467400D01*
X99249368Y-62467400D02*
X99177939Y-62395971D01*
X99177939Y-62395971D02*
X99106510Y-62253114D01*
X99106510Y-62253114D02*
X99035082Y-61967400D01*
X99035082Y-61967400D02*
X99035082Y-61610257D01*
X99035082Y-61610257D02*
X99106510Y-61324542D01*
X99106510Y-61324542D02*
X99177939Y-61181685D01*
X99177939Y-61181685D02*
X99249368Y-61110257D01*
X99249368Y-61110257D02*
X99392225Y-61038828D01*
X100463653Y-61181685D02*
X100535081Y-61110257D01*
X100535081Y-61110257D02*
X100677939Y-61038828D01*
X100677939Y-61038828D02*
X101035081Y-61038828D01*
X101035081Y-61038828D02*
X101177939Y-61110257D01*
X101177939Y-61110257D02*
X101249367Y-61181685D01*
X101249367Y-61181685D02*
X101320796Y-61324542D01*
X101320796Y-61324542D02*
X101320796Y-61467400D01*
X101320796Y-61467400D02*
X101249367Y-61681685D01*
X101249367Y-61681685D02*
X100392224Y-62538828D01*
X100392224Y-62538828D02*
X101320796Y-62538828D01*
X103035081Y-60967400D02*
X101749367Y-62895971D01*
X103463653Y-61181685D02*
X103535081Y-61110257D01*
X103535081Y-61110257D02*
X103677939Y-61038828D01*
X103677939Y-61038828D02*
X104035081Y-61038828D01*
X104035081Y-61038828D02*
X104177939Y-61110257D01*
X104177939Y-61110257D02*
X104249367Y-61181685D01*
X104249367Y-61181685D02*
X104320796Y-61324542D01*
X104320796Y-61324542D02*
X104320796Y-61467400D01*
X104320796Y-61467400D02*
X104249367Y-61681685D01*
X104249367Y-61681685D02*
X103392224Y-62538828D01*
X103392224Y-62538828D02*
X104320796Y-62538828D01*
X105677938Y-61038828D02*
X104963652Y-61038828D01*
X104963652Y-61038828D02*
X104892224Y-61753114D01*
X104892224Y-61753114D02*
X104963652Y-61681685D01*
X104963652Y-61681685D02*
X105106510Y-61610257D01*
X105106510Y-61610257D02*
X105463652Y-61610257D01*
X105463652Y-61610257D02*
X105606510Y-61681685D01*
X105606510Y-61681685D02*
X105677938Y-61753114D01*
X105677938Y-61753114D02*
X105749367Y-61895971D01*
X105749367Y-61895971D02*
X105749367Y-62253114D01*
X105749367Y-62253114D02*
X105677938Y-62395971D01*
X105677938Y-62395971D02*
X105606510Y-62467400D01*
X105606510Y-62467400D02*
X105463652Y-62538828D01*
X105463652Y-62538828D02*
X105106510Y-62538828D01*
X105106510Y-62538828D02*
X104963652Y-62467400D01*
X104963652Y-62467400D02*
X104892224Y-62395971D01*
X107463652Y-60967400D02*
X106177938Y-62895971D01*
X107892224Y-61181685D02*
X107963652Y-61110257D01*
X107963652Y-61110257D02*
X108106510Y-61038828D01*
X108106510Y-61038828D02*
X108463652Y-61038828D01*
X108463652Y-61038828D02*
X108606510Y-61110257D01*
X108606510Y-61110257D02*
X108677938Y-61181685D01*
X108677938Y-61181685D02*
X108749367Y-61324542D01*
X108749367Y-61324542D02*
X108749367Y-61467400D01*
X108749367Y-61467400D02*
X108677938Y-61681685D01*
X108677938Y-61681685D02*
X107820795Y-62538828D01*
X107820795Y-62538828D02*
X108749367Y-62538828D01*
X109677938Y-61038828D02*
X109820795Y-61038828D01*
X109820795Y-61038828D02*
X109963652Y-61110257D01*
X109963652Y-61110257D02*
X110035081Y-61181685D01*
X110035081Y-61181685D02*
X110106509Y-61324542D01*
X110106509Y-61324542D02*
X110177938Y-61610257D01*
X110177938Y-61610257D02*
X110177938Y-61967400D01*
X110177938Y-61967400D02*
X110106509Y-62253114D01*
X110106509Y-62253114D02*
X110035081Y-62395971D01*
X110035081Y-62395971D02*
X109963652Y-62467400D01*
X109963652Y-62467400D02*
X109820795Y-62538828D01*
X109820795Y-62538828D02*
X109677938Y-62538828D01*
X109677938Y-62538828D02*
X109535081Y-62467400D01*
X109535081Y-62467400D02*
X109463652Y-62395971D01*
X109463652Y-62395971D02*
X109392223Y-62253114D01*
X109392223Y-62253114D02*
X109320795Y-61967400D01*
X109320795Y-61967400D02*
X109320795Y-61610257D01*
X109320795Y-61610257D02*
X109392223Y-61324542D01*
X109392223Y-61324542D02*
X109463652Y-61181685D01*
X109463652Y-61181685D02*
X109535081Y-61110257D01*
X109535081Y-61110257D02*
X109677938Y-61038828D01*
X110749366Y-61181685D02*
X110820794Y-61110257D01*
X110820794Y-61110257D02*
X110963652Y-61038828D01*
X110963652Y-61038828D02*
X111320794Y-61038828D01*
X111320794Y-61038828D02*
X111463652Y-61110257D01*
X111463652Y-61110257D02*
X111535080Y-61181685D01*
X111535080Y-61181685D02*
X111606509Y-61324542D01*
X111606509Y-61324542D02*
X111606509Y-61467400D01*
X111606509Y-61467400D02*
X111535080Y-61681685D01*
X111535080Y-61681685D02*
X110677937Y-62538828D01*
X110677937Y-62538828D02*
X111606509Y-62538828D01*
X112892223Y-61538828D02*
X112892223Y-62538828D01*
X112535080Y-60967400D02*
X112177937Y-62038828D01*
X112177937Y-62038828D02*
X113106508Y-62038828D01*
X114606508Y-61038828D02*
X115106508Y-62538828D01*
X115106508Y-62538828D02*
X115606508Y-61038828D01*
X116892222Y-62538828D02*
X116035079Y-62538828D01*
X116463650Y-62538828D02*
X116463650Y-61038828D01*
X116463650Y-61038828D02*
X116320793Y-61253114D01*
X116320793Y-61253114D02*
X116177936Y-61395971D01*
X116177936Y-61395971D02*
X116035079Y-61467400D01*
X117535078Y-62395971D02*
X117606507Y-62467400D01*
X117606507Y-62467400D02*
X117535078Y-62538828D01*
X117535078Y-62538828D02*
X117463650Y-62467400D01*
X117463650Y-62467400D02*
X117535078Y-62395971D01*
X117535078Y-62395971D02*
X117535078Y-62538828D01*
X118535079Y-61038828D02*
X118677936Y-61038828D01*
X118677936Y-61038828D02*
X118820793Y-61110257D01*
X118820793Y-61110257D02*
X118892222Y-61181685D01*
X118892222Y-61181685D02*
X118963650Y-61324542D01*
X118963650Y-61324542D02*
X119035079Y-61610257D01*
X119035079Y-61610257D02*
X119035079Y-61967400D01*
X119035079Y-61967400D02*
X118963650Y-62253114D01*
X118963650Y-62253114D02*
X118892222Y-62395971D01*
X118892222Y-62395971D02*
X118820793Y-62467400D01*
X118820793Y-62467400D02*
X118677936Y-62538828D01*
X118677936Y-62538828D02*
X118535079Y-62538828D01*
X118535079Y-62538828D02*
X118392222Y-62467400D01*
X118392222Y-62467400D02*
X118320793Y-62395971D01*
X118320793Y-62395971D02*
X118249364Y-62253114D01*
X118249364Y-62253114D02*
X118177936Y-61967400D01*
X118177936Y-61967400D02*
X118177936Y-61610257D01*
X118177936Y-61610257D02*
X118249364Y-61324542D01*
X118249364Y-61324542D02*
X118320793Y-61181685D01*
X118320793Y-61181685D02*
X118392222Y-61110257D01*
X118392222Y-61110257D02*
X118535079Y-61038828D01*
D10*
X115681619Y-86576819D02*
X115681619Y-87386342D01*
X115681619Y-87386342D02*
X115729238Y-87481580D01*
X115729238Y-87481580D02*
X115776857Y-87529200D01*
X115776857Y-87529200D02*
X115872095Y-87576819D01*
X115872095Y-87576819D02*
X116062571Y-87576819D01*
X116062571Y-87576819D02*
X116157809Y-87529200D01*
X116157809Y-87529200D02*
X116205428Y-87481580D01*
X116205428Y-87481580D02*
X116253047Y-87386342D01*
X116253047Y-87386342D02*
X116253047Y-86576819D01*
X116681619Y-87529200D02*
X116824476Y-87576819D01*
X116824476Y-87576819D02*
X117062571Y-87576819D01*
X117062571Y-87576819D02*
X117157809Y-87529200D01*
X117157809Y-87529200D02*
X117205428Y-87481580D01*
X117205428Y-87481580D02*
X117253047Y-87386342D01*
X117253047Y-87386342D02*
X117253047Y-87291104D01*
X117253047Y-87291104D02*
X117205428Y-87195866D01*
X117205428Y-87195866D02*
X117157809Y-87148247D01*
X117157809Y-87148247D02*
X117062571Y-87100628D01*
X117062571Y-87100628D02*
X116872095Y-87053009D01*
X116872095Y-87053009D02*
X116776857Y-87005390D01*
X116776857Y-87005390D02*
X116729238Y-86957771D01*
X116729238Y-86957771D02*
X116681619Y-86862533D01*
X116681619Y-86862533D02*
X116681619Y-86767295D01*
X116681619Y-86767295D02*
X116729238Y-86672057D01*
X116729238Y-86672057D02*
X116776857Y-86624438D01*
X116776857Y-86624438D02*
X116872095Y-86576819D01*
X116872095Y-86576819D02*
X117110190Y-86576819D01*
X117110190Y-86576819D02*
X117253047Y-86624438D01*
X118014952Y-87053009D02*
X118157809Y-87100628D01*
X118157809Y-87100628D02*
X118205428Y-87148247D01*
X118205428Y-87148247D02*
X118253047Y-87243485D01*
X118253047Y-87243485D02*
X118253047Y-87386342D01*
X118253047Y-87386342D02*
X118205428Y-87481580D01*
X118205428Y-87481580D02*
X118157809Y-87529200D01*
X118157809Y-87529200D02*
X118062571Y-87576819D01*
X118062571Y-87576819D02*
X117681619Y-87576819D01*
X117681619Y-87576819D02*
X117681619Y-86576819D01*
X117681619Y-86576819D02*
X118014952Y-86576819D01*
X118014952Y-86576819D02*
X118110190Y-86624438D01*
X118110190Y-86624438D02*
X118157809Y-86672057D01*
X118157809Y-86672057D02*
X118205428Y-86767295D01*
X118205428Y-86767295D02*
X118205428Y-86862533D01*
X118205428Y-86862533D02*
X118157809Y-86957771D01*
X118157809Y-86957771D02*
X118110190Y-87005390D01*
X118110190Y-87005390D02*
X118014952Y-87053009D01*
X118014952Y-87053009D02*
X117681619Y-87053009D01*
X118443524Y-87672057D02*
X119205428Y-87672057D01*
X119443524Y-86576819D02*
X119443524Y-87386342D01*
X119443524Y-87386342D02*
X119491143Y-87481580D01*
X119491143Y-87481580D02*
X119538762Y-87529200D01*
X119538762Y-87529200D02*
X119634000Y-87576819D01*
X119634000Y-87576819D02*
X119824476Y-87576819D01*
X119824476Y-87576819D02*
X119919714Y-87529200D01*
X119919714Y-87529200D02*
X119967333Y-87481580D01*
X119967333Y-87481580D02*
X120014952Y-87386342D01*
X120014952Y-87386342D02*
X120014952Y-86576819D01*
X120443524Y-87291104D02*
X120919714Y-87291104D01*
X120348286Y-87576819D02*
X120681619Y-86576819D01*
X120681619Y-86576819D02*
X121014952Y-87576819D01*
X121919714Y-87576819D02*
X121586381Y-87100628D01*
X121348286Y-87576819D02*
X121348286Y-86576819D01*
X121348286Y-86576819D02*
X121729238Y-86576819D01*
X121729238Y-86576819D02*
X121824476Y-86624438D01*
X121824476Y-86624438D02*
X121872095Y-86672057D01*
X121872095Y-86672057D02*
X121919714Y-86767295D01*
X121919714Y-86767295D02*
X121919714Y-86910152D01*
X121919714Y-86910152D02*
X121872095Y-87005390D01*
X121872095Y-87005390D02*
X121824476Y-87053009D01*
X121824476Y-87053009D02*
X121729238Y-87100628D01*
X121729238Y-87100628D02*
X121348286Y-87100628D01*
X122205429Y-86576819D02*
X122776857Y-86576819D01*
X122491143Y-87576819D02*
X122491143Y-86576819D01*
X123634000Y-87576819D02*
X123062572Y-87576819D01*
X123348286Y-87576819D02*
X123348286Y-86576819D01*
X123348286Y-86576819D02*
X123253048Y-86719676D01*
X123253048Y-86719676D02*
X123157810Y-86814914D01*
X123157810Y-86814914D02*
X123062572Y-86862533D01*
X80483819Y-75800333D02*
X81198104Y-75800333D01*
X81198104Y-75800333D02*
X81340961Y-75847952D01*
X81340961Y-75847952D02*
X81436200Y-75943190D01*
X81436200Y-75943190D02*
X81483819Y-76086047D01*
X81483819Y-76086047D02*
X81483819Y-76181285D01*
X81483819Y-75324142D02*
X80483819Y-75324142D01*
X80483819Y-75324142D02*
X80483819Y-74943190D01*
X80483819Y-74943190D02*
X80531438Y-74847952D01*
X80531438Y-74847952D02*
X80579057Y-74800333D01*
X80579057Y-74800333D02*
X80674295Y-74752714D01*
X80674295Y-74752714D02*
X80817152Y-74752714D01*
X80817152Y-74752714D02*
X80912390Y-74800333D01*
X80912390Y-74800333D02*
X80960009Y-74847952D01*
X80960009Y-74847952D02*
X81007628Y-74943190D01*
X81007628Y-74943190D02*
X81007628Y-75324142D01*
X81483819Y-73800333D02*
X81483819Y-74371761D01*
X81483819Y-74086047D02*
X80483819Y-74086047D01*
X80483819Y-74086047D02*
X80626676Y-74181285D01*
X80626676Y-74181285D02*
X80721914Y-74276523D01*
X80721914Y-74276523D02*
X80769533Y-74371761D01*
X122904819Y-51605143D02*
X121904819Y-51605143D01*
X121904819Y-51605143D02*
X122619104Y-51271810D01*
X122619104Y-51271810D02*
X121904819Y-50938477D01*
X121904819Y-50938477D02*
X122904819Y-50938477D01*
X122904819Y-50462286D02*
X122238152Y-50462286D01*
X121904819Y-50462286D02*
X121952438Y-50509905D01*
X121952438Y-50509905D02*
X122000057Y-50462286D01*
X122000057Y-50462286D02*
X121952438Y-50414667D01*
X121952438Y-50414667D02*
X121904819Y-50462286D01*
X121904819Y-50462286D02*
X122000057Y-50462286D01*
X122857200Y-49557525D02*
X122904819Y-49652763D01*
X122904819Y-49652763D02*
X122904819Y-49843239D01*
X122904819Y-49843239D02*
X122857200Y-49938477D01*
X122857200Y-49938477D02*
X122809580Y-49986096D01*
X122809580Y-49986096D02*
X122714342Y-50033715D01*
X122714342Y-50033715D02*
X122428628Y-50033715D01*
X122428628Y-50033715D02*
X122333390Y-49986096D01*
X122333390Y-49986096D02*
X122285771Y-49938477D01*
X122285771Y-49938477D02*
X122238152Y-49843239D01*
X122238152Y-49843239D02*
X122238152Y-49652763D01*
X122238152Y-49652763D02*
X122285771Y-49557525D01*
X122904819Y-49128953D02*
X122238152Y-49128953D01*
X122428628Y-49128953D02*
X122333390Y-49081334D01*
X122333390Y-49081334D02*
X122285771Y-49033715D01*
X122285771Y-49033715D02*
X122238152Y-48938477D01*
X122238152Y-48938477D02*
X122238152Y-48843239D01*
X122904819Y-48367048D02*
X122857200Y-48462286D01*
X122857200Y-48462286D02*
X122809580Y-48509905D01*
X122809580Y-48509905D02*
X122714342Y-48557524D01*
X122714342Y-48557524D02*
X122428628Y-48557524D01*
X122428628Y-48557524D02*
X122333390Y-48509905D01*
X122333390Y-48509905D02*
X122285771Y-48462286D01*
X122285771Y-48462286D02*
X122238152Y-48367048D01*
X122238152Y-48367048D02*
X122238152Y-48224191D01*
X122238152Y-48224191D02*
X122285771Y-48128953D01*
X122285771Y-48128953D02*
X122333390Y-48081334D01*
X122333390Y-48081334D02*
X122428628Y-48033715D01*
X122428628Y-48033715D02*
X122714342Y-48033715D01*
X122714342Y-48033715D02*
X122809580Y-48081334D01*
X122809580Y-48081334D02*
X122857200Y-48128953D01*
X122857200Y-48128953D02*
X122904819Y-48224191D01*
X122904819Y-48224191D02*
X122904819Y-48367048D01*
X121904819Y-47605143D02*
X122714342Y-47605143D01*
X122714342Y-47605143D02*
X122809580Y-47557524D01*
X122809580Y-47557524D02*
X122857200Y-47509905D01*
X122857200Y-47509905D02*
X122904819Y-47414667D01*
X122904819Y-47414667D02*
X122904819Y-47224191D01*
X122904819Y-47224191D02*
X122857200Y-47128953D01*
X122857200Y-47128953D02*
X122809580Y-47081334D01*
X122809580Y-47081334D02*
X122714342Y-47033715D01*
X122714342Y-47033715D02*
X121904819Y-47033715D01*
X122857200Y-46605143D02*
X122904819Y-46462286D01*
X122904819Y-46462286D02*
X122904819Y-46224191D01*
X122904819Y-46224191D02*
X122857200Y-46128953D01*
X122857200Y-46128953D02*
X122809580Y-46081334D01*
X122809580Y-46081334D02*
X122714342Y-46033715D01*
X122714342Y-46033715D02*
X122619104Y-46033715D01*
X122619104Y-46033715D02*
X122523866Y-46081334D01*
X122523866Y-46081334D02*
X122476247Y-46128953D01*
X122476247Y-46128953D02*
X122428628Y-46224191D01*
X122428628Y-46224191D02*
X122381009Y-46414667D01*
X122381009Y-46414667D02*
X122333390Y-46509905D01*
X122333390Y-46509905D02*
X122285771Y-46557524D01*
X122285771Y-46557524D02*
X122190533Y-46605143D01*
X122190533Y-46605143D02*
X122095295Y-46605143D01*
X122095295Y-46605143D02*
X122000057Y-46557524D01*
X122000057Y-46557524D02*
X121952438Y-46509905D01*
X121952438Y-46509905D02*
X121904819Y-46414667D01*
X121904819Y-46414667D02*
X121904819Y-46176572D01*
X121904819Y-46176572D02*
X121952438Y-46033715D01*
X122381009Y-45271810D02*
X122428628Y-45128953D01*
X122428628Y-45128953D02*
X122476247Y-45081334D01*
X122476247Y-45081334D02*
X122571485Y-45033715D01*
X122571485Y-45033715D02*
X122714342Y-45033715D01*
X122714342Y-45033715D02*
X122809580Y-45081334D01*
X122809580Y-45081334D02*
X122857200Y-45128953D01*
X122857200Y-45128953D02*
X122904819Y-45224191D01*
X122904819Y-45224191D02*
X122904819Y-45605143D01*
X122904819Y-45605143D02*
X121904819Y-45605143D01*
X121904819Y-45605143D02*
X121904819Y-45271810D01*
X121904819Y-45271810D02*
X121952438Y-45176572D01*
X121952438Y-45176572D02*
X122000057Y-45128953D01*
X122000057Y-45128953D02*
X122095295Y-45081334D01*
X122095295Y-45081334D02*
X122190533Y-45081334D01*
X122190533Y-45081334D02*
X122285771Y-45128953D01*
X122285771Y-45128953D02*
X122333390Y-45176572D01*
X122333390Y-45176572D02*
X122381009Y-45271810D01*
X122381009Y-45271810D02*
X122381009Y-45605143D01*
X123000057Y-44843239D02*
X123000057Y-44081334D01*
X121904819Y-43367048D02*
X121904819Y-43843238D01*
X121904819Y-43843238D02*
X122381009Y-43890857D01*
X122381009Y-43890857D02*
X122333390Y-43843238D01*
X122333390Y-43843238D02*
X122285771Y-43748000D01*
X122285771Y-43748000D02*
X122285771Y-43509905D01*
X122285771Y-43509905D02*
X122333390Y-43414667D01*
X122333390Y-43414667D02*
X122381009Y-43367048D01*
X122381009Y-43367048D02*
X122476247Y-43319429D01*
X122476247Y-43319429D02*
X122714342Y-43319429D01*
X122714342Y-43319429D02*
X122809580Y-43367048D01*
X122809580Y-43367048D02*
X122857200Y-43414667D01*
X122857200Y-43414667D02*
X122904819Y-43509905D01*
X122904819Y-43509905D02*
X122904819Y-43748000D01*
X122904819Y-43748000D02*
X122857200Y-43843238D01*
X122857200Y-43843238D02*
X122809580Y-43890857D01*
X121904819Y-43033714D02*
X122904819Y-42700381D01*
X122904819Y-42700381D02*
X121904819Y-42367048D01*
X122904819Y-41509905D02*
X122904819Y-42081333D01*
X122904819Y-41795619D02*
X121904819Y-41795619D01*
X121904819Y-41795619D02*
X122047676Y-41890857D01*
X122047676Y-41890857D02*
X122142914Y-41986095D01*
X122142914Y-41986095D02*
X122190533Y-42081333D01*
X122619104Y-41128952D02*
X122619104Y-40652762D01*
X122904819Y-41224190D02*
X121904819Y-40890857D01*
X121904819Y-40890857D02*
X122904819Y-40557524D01*
X123000057Y-40462286D02*
X123000057Y-39700381D01*
X121904819Y-39557523D02*
X122904819Y-39319428D01*
X122904819Y-39319428D02*
X122190533Y-39128952D01*
X122190533Y-39128952D02*
X122904819Y-38938476D01*
X122904819Y-38938476D02*
X121904819Y-38700381D01*
X122904819Y-37890857D02*
X122381009Y-37890857D01*
X122381009Y-37890857D02*
X122285771Y-37938476D01*
X122285771Y-37938476D02*
X122238152Y-38033714D01*
X122238152Y-38033714D02*
X122238152Y-38224190D01*
X122238152Y-38224190D02*
X122285771Y-38319428D01*
X122857200Y-37890857D02*
X122904819Y-37986095D01*
X122904819Y-37986095D02*
X122904819Y-38224190D01*
X122904819Y-38224190D02*
X122857200Y-38319428D01*
X122857200Y-38319428D02*
X122761961Y-38367047D01*
X122761961Y-38367047D02*
X122666723Y-38367047D01*
X122666723Y-38367047D02*
X122571485Y-38319428D01*
X122571485Y-38319428D02*
X122523866Y-38224190D01*
X122523866Y-38224190D02*
X122523866Y-37986095D01*
X122523866Y-37986095D02*
X122476247Y-37890857D01*
X122904819Y-37271809D02*
X122857200Y-37367047D01*
X122857200Y-37367047D02*
X122761961Y-37414666D01*
X122761961Y-37414666D02*
X121904819Y-37414666D01*
X122904819Y-36747999D02*
X122857200Y-36843237D01*
X122857200Y-36843237D02*
X122761961Y-36890856D01*
X122761961Y-36890856D02*
X121904819Y-36890856D01*
X122904819Y-35843237D02*
X122904819Y-36414665D01*
X122904819Y-36128951D02*
X121904819Y-36128951D01*
X121904819Y-36128951D02*
X122047676Y-36224189D01*
X122047676Y-36224189D02*
X122142914Y-36319427D01*
X122142914Y-36319427D02*
X122190533Y-36414665D01*
X121666095Y-79702819D02*
X121666095Y-78702819D01*
X121666095Y-79179009D02*
X122237523Y-79179009D01*
X122237523Y-79702819D02*
X122237523Y-78702819D01*
X123142285Y-79036152D02*
X123142285Y-79702819D01*
X122904190Y-78655200D02*
X122666095Y-79369485D01*
X122666095Y-79369485D02*
X123285142Y-79369485D01*
X87935333Y-90522819D02*
X87602000Y-90046628D01*
X87363905Y-90522819D02*
X87363905Y-89522819D01*
X87363905Y-89522819D02*
X87744857Y-89522819D01*
X87744857Y-89522819D02*
X87840095Y-89570438D01*
X87840095Y-89570438D02*
X87887714Y-89618057D01*
X87887714Y-89618057D02*
X87935333Y-89713295D01*
X87935333Y-89713295D02*
X87935333Y-89856152D01*
X87935333Y-89856152D02*
X87887714Y-89951390D01*
X87887714Y-89951390D02*
X87840095Y-89999009D01*
X87840095Y-89999009D02*
X87744857Y-90046628D01*
X87744857Y-90046628D02*
X87363905Y-90046628D01*
X88840095Y-89522819D02*
X88363905Y-89522819D01*
X88363905Y-89522819D02*
X88316286Y-89999009D01*
X88316286Y-89999009D02*
X88363905Y-89951390D01*
X88363905Y-89951390D02*
X88459143Y-89903771D01*
X88459143Y-89903771D02*
X88697238Y-89903771D01*
X88697238Y-89903771D02*
X88792476Y-89951390D01*
X88792476Y-89951390D02*
X88840095Y-89999009D01*
X88840095Y-89999009D02*
X88887714Y-90094247D01*
X88887714Y-90094247D02*
X88887714Y-90332342D01*
X88887714Y-90332342D02*
X88840095Y-90427580D01*
X88840095Y-90427580D02*
X88792476Y-90475200D01*
X88792476Y-90475200D02*
X88697238Y-90522819D01*
X88697238Y-90522819D02*
X88459143Y-90522819D01*
X88459143Y-90522819D02*
X88363905Y-90475200D01*
X88363905Y-90475200D02*
X88316286Y-90427580D01*
X76374095Y-38846819D02*
X76374095Y-37846819D01*
X76374095Y-38323009D02*
X76945523Y-38323009D01*
X76945523Y-38846819D02*
X76945523Y-37846819D01*
X77945523Y-38846819D02*
X77374095Y-38846819D01*
X77659809Y-38846819D02*
X77659809Y-37846819D01*
X77659809Y-37846819D02*
X77564571Y-37989676D01*
X77564571Y-37989676D02*
X77469333Y-38084914D01*
X77469333Y-38084914D02*
X77374095Y-38132533D01*
X87935333Y-85950819D02*
X87602000Y-85474628D01*
X87363905Y-85950819D02*
X87363905Y-84950819D01*
X87363905Y-84950819D02*
X87744857Y-84950819D01*
X87744857Y-84950819D02*
X87840095Y-84998438D01*
X87840095Y-84998438D02*
X87887714Y-85046057D01*
X87887714Y-85046057D02*
X87935333Y-85141295D01*
X87935333Y-85141295D02*
X87935333Y-85284152D01*
X87935333Y-85284152D02*
X87887714Y-85379390D01*
X87887714Y-85379390D02*
X87840095Y-85427009D01*
X87840095Y-85427009D02*
X87744857Y-85474628D01*
X87744857Y-85474628D02*
X87363905Y-85474628D01*
X88268667Y-84950819D02*
X88935333Y-84950819D01*
X88935333Y-84950819D02*
X88506762Y-85950819D01*
X90106667Y-47719200D02*
X90249524Y-47766819D01*
X90249524Y-47766819D02*
X90487619Y-47766819D01*
X90487619Y-47766819D02*
X90582857Y-47719200D01*
X90582857Y-47719200D02*
X90630476Y-47671580D01*
X90630476Y-47671580D02*
X90678095Y-47576342D01*
X90678095Y-47576342D02*
X90678095Y-47481104D01*
X90678095Y-47481104D02*
X90630476Y-47385866D01*
X90630476Y-47385866D02*
X90582857Y-47338247D01*
X90582857Y-47338247D02*
X90487619Y-47290628D01*
X90487619Y-47290628D02*
X90297143Y-47243009D01*
X90297143Y-47243009D02*
X90201905Y-47195390D01*
X90201905Y-47195390D02*
X90154286Y-47147771D01*
X90154286Y-47147771D02*
X90106667Y-47052533D01*
X90106667Y-47052533D02*
X90106667Y-46957295D01*
X90106667Y-46957295D02*
X90154286Y-46862057D01*
X90154286Y-46862057D02*
X90201905Y-46814438D01*
X90201905Y-46814438D02*
X90297143Y-46766819D01*
X90297143Y-46766819D02*
X90535238Y-46766819D01*
X90535238Y-46766819D02*
X90678095Y-46814438D01*
X91011429Y-46766819D02*
X91249524Y-47766819D01*
X91249524Y-47766819D02*
X91440000Y-47052533D01*
X91440000Y-47052533D02*
X91630476Y-47766819D01*
X91630476Y-47766819D02*
X91868572Y-46766819D01*
X92201905Y-46862057D02*
X92249524Y-46814438D01*
X92249524Y-46814438D02*
X92344762Y-46766819D01*
X92344762Y-46766819D02*
X92582857Y-46766819D01*
X92582857Y-46766819D02*
X92678095Y-46814438D01*
X92678095Y-46814438D02*
X92725714Y-46862057D01*
X92725714Y-46862057D02*
X92773333Y-46957295D01*
X92773333Y-46957295D02*
X92773333Y-47052533D01*
X92773333Y-47052533D02*
X92725714Y-47195390D01*
X92725714Y-47195390D02*
X92154286Y-47766819D01*
X92154286Y-47766819D02*
X92773333Y-47766819D01*
X87935333Y-102966819D02*
X87602000Y-102490628D01*
X87363905Y-102966819D02*
X87363905Y-101966819D01*
X87363905Y-101966819D02*
X87744857Y-101966819D01*
X87744857Y-101966819D02*
X87840095Y-102014438D01*
X87840095Y-102014438D02*
X87887714Y-102062057D01*
X87887714Y-102062057D02*
X87935333Y-102157295D01*
X87935333Y-102157295D02*
X87935333Y-102300152D01*
X87935333Y-102300152D02*
X87887714Y-102395390D01*
X87887714Y-102395390D02*
X87840095Y-102443009D01*
X87840095Y-102443009D02*
X87744857Y-102490628D01*
X87744857Y-102490628D02*
X87363905Y-102490628D01*
X88887714Y-102966819D02*
X88316286Y-102966819D01*
X88602000Y-102966819D02*
X88602000Y-101966819D01*
X88602000Y-101966819D02*
X88506762Y-102109676D01*
X88506762Y-102109676D02*
X88411524Y-102204914D01*
X88411524Y-102204914D02*
X88316286Y-102252533D01*
X89749333Y-57478819D02*
X89416000Y-57002628D01*
X89177905Y-57478819D02*
X89177905Y-56478819D01*
X89177905Y-56478819D02*
X89558857Y-56478819D01*
X89558857Y-56478819D02*
X89654095Y-56526438D01*
X89654095Y-56526438D02*
X89701714Y-56574057D01*
X89701714Y-56574057D02*
X89749333Y-56669295D01*
X89749333Y-56669295D02*
X89749333Y-56812152D01*
X89749333Y-56812152D02*
X89701714Y-56907390D01*
X89701714Y-56907390D02*
X89654095Y-56955009D01*
X89654095Y-56955009D02*
X89558857Y-57002628D01*
X89558857Y-57002628D02*
X89177905Y-57002628D01*
X90130286Y-56574057D02*
X90177905Y-56526438D01*
X90177905Y-56526438D02*
X90273143Y-56478819D01*
X90273143Y-56478819D02*
X90511238Y-56478819D01*
X90511238Y-56478819D02*
X90606476Y-56526438D01*
X90606476Y-56526438D02*
X90654095Y-56574057D01*
X90654095Y-56574057D02*
X90701714Y-56669295D01*
X90701714Y-56669295D02*
X90701714Y-56764533D01*
X90701714Y-56764533D02*
X90654095Y-56907390D01*
X90654095Y-56907390D02*
X90082667Y-57478819D01*
X90082667Y-57478819D02*
X90701714Y-57478819D01*
X108153580Y-51982666D02*
X108201200Y-52030285D01*
X108201200Y-52030285D02*
X108248819Y-52173142D01*
X108248819Y-52173142D02*
X108248819Y-52268380D01*
X108248819Y-52268380D02*
X108201200Y-52411237D01*
X108201200Y-52411237D02*
X108105961Y-52506475D01*
X108105961Y-52506475D02*
X108010723Y-52554094D01*
X108010723Y-52554094D02*
X107820247Y-52601713D01*
X107820247Y-52601713D02*
X107677390Y-52601713D01*
X107677390Y-52601713D02*
X107486914Y-52554094D01*
X107486914Y-52554094D02*
X107391676Y-52506475D01*
X107391676Y-52506475D02*
X107296438Y-52411237D01*
X107296438Y-52411237D02*
X107248819Y-52268380D01*
X107248819Y-52268380D02*
X107248819Y-52173142D01*
X107248819Y-52173142D02*
X107296438Y-52030285D01*
X107296438Y-52030285D02*
X107344057Y-51982666D01*
X108248819Y-51030285D02*
X108248819Y-51601713D01*
X108248819Y-51315999D02*
X107248819Y-51315999D01*
X107248819Y-51315999D02*
X107391676Y-51411237D01*
X107391676Y-51411237D02*
X107486914Y-51506475D01*
X107486914Y-51506475D02*
X107534533Y-51601713D01*
X87935333Y-98394819D02*
X87602000Y-97918628D01*
X87363905Y-98394819D02*
X87363905Y-97394819D01*
X87363905Y-97394819D02*
X87744857Y-97394819D01*
X87744857Y-97394819D02*
X87840095Y-97442438D01*
X87840095Y-97442438D02*
X87887714Y-97490057D01*
X87887714Y-97490057D02*
X87935333Y-97585295D01*
X87935333Y-97585295D02*
X87935333Y-97728152D01*
X87935333Y-97728152D02*
X87887714Y-97823390D01*
X87887714Y-97823390D02*
X87840095Y-97871009D01*
X87840095Y-97871009D02*
X87744857Y-97918628D01*
X87744857Y-97918628D02*
X87363905Y-97918628D01*
X88792476Y-97728152D02*
X88792476Y-98394819D01*
X88554381Y-97347200D02*
X88316286Y-98061485D01*
X88316286Y-98061485D02*
X88935333Y-98061485D01*
X85581261Y-64098057D02*
X85486023Y-64050438D01*
X85486023Y-64050438D02*
X85390785Y-63955200D01*
X85390785Y-63955200D02*
X85247928Y-63812342D01*
X85247928Y-63812342D02*
X85152690Y-63764723D01*
X85152690Y-63764723D02*
X85057452Y-63764723D01*
X85105071Y-64002819D02*
X85009833Y-63955200D01*
X85009833Y-63955200D02*
X84914595Y-63859961D01*
X84914595Y-63859961D02*
X84866976Y-63669485D01*
X84866976Y-63669485D02*
X84866976Y-63336152D01*
X84866976Y-63336152D02*
X84914595Y-63145676D01*
X84914595Y-63145676D02*
X85009833Y-63050438D01*
X85009833Y-63050438D02*
X85105071Y-63002819D01*
X85105071Y-63002819D02*
X85295547Y-63002819D01*
X85295547Y-63002819D02*
X85390785Y-63050438D01*
X85390785Y-63050438D02*
X85486023Y-63145676D01*
X85486023Y-63145676D02*
X85533642Y-63336152D01*
X85533642Y-63336152D02*
X85533642Y-63669485D01*
X85533642Y-63669485D02*
X85486023Y-63859961D01*
X85486023Y-63859961D02*
X85390785Y-63955200D01*
X85390785Y-63955200D02*
X85295547Y-64002819D01*
X85295547Y-64002819D02*
X85105071Y-64002819D01*
X85914595Y-63098057D02*
X85962214Y-63050438D01*
X85962214Y-63050438D02*
X86057452Y-63002819D01*
X86057452Y-63002819D02*
X86295547Y-63002819D01*
X86295547Y-63002819D02*
X86390785Y-63050438D01*
X86390785Y-63050438D02*
X86438404Y-63098057D01*
X86438404Y-63098057D02*
X86486023Y-63193295D01*
X86486023Y-63193295D02*
X86486023Y-63288533D01*
X86486023Y-63288533D02*
X86438404Y-63431390D01*
X86438404Y-63431390D02*
X85866976Y-64002819D01*
X85866976Y-64002819D02*
X86486023Y-64002819D01*
D12*
X121192580Y-43180095D02*
X120383057Y-43180095D01*
X120383057Y-43180095D02*
X120287819Y-43227714D01*
X120287819Y-43227714D02*
X120240200Y-43275333D01*
X120240200Y-43275333D02*
X120192580Y-43370571D01*
X120192580Y-43370571D02*
X120192580Y-43561047D01*
X120192580Y-43561047D02*
X120240200Y-43656285D01*
X120240200Y-43656285D02*
X120287819Y-43703904D01*
X120287819Y-43703904D02*
X120383057Y-43751523D01*
X120383057Y-43751523D02*
X121192580Y-43751523D01*
X120192580Y-44751523D02*
X120192580Y-44180095D01*
X120192580Y-44465809D02*
X121192580Y-44465809D01*
X121192580Y-44465809D02*
X121049723Y-44370571D01*
X121049723Y-44370571D02*
X120954485Y-44275333D01*
X120954485Y-44275333D02*
X120906866Y-44180095D01*
D10*
X114387333Y-106014819D02*
X114054000Y-105538628D01*
X113815905Y-106014819D02*
X113815905Y-105014819D01*
X113815905Y-105014819D02*
X114196857Y-105014819D01*
X114196857Y-105014819D02*
X114292095Y-105062438D01*
X114292095Y-105062438D02*
X114339714Y-105110057D01*
X114339714Y-105110057D02*
X114387333Y-105205295D01*
X114387333Y-105205295D02*
X114387333Y-105348152D01*
X114387333Y-105348152D02*
X114339714Y-105443390D01*
X114339714Y-105443390D02*
X114292095Y-105491009D01*
X114292095Y-105491009D02*
X114196857Y-105538628D01*
X114196857Y-105538628D02*
X113815905Y-105538628D01*
X114958762Y-105443390D02*
X114863524Y-105395771D01*
X114863524Y-105395771D02*
X114815905Y-105348152D01*
X114815905Y-105348152D02*
X114768286Y-105252914D01*
X114768286Y-105252914D02*
X114768286Y-105205295D01*
X114768286Y-105205295D02*
X114815905Y-105110057D01*
X114815905Y-105110057D02*
X114863524Y-105062438D01*
X114863524Y-105062438D02*
X114958762Y-105014819D01*
X114958762Y-105014819D02*
X115149238Y-105014819D01*
X115149238Y-105014819D02*
X115244476Y-105062438D01*
X115244476Y-105062438D02*
X115292095Y-105110057D01*
X115292095Y-105110057D02*
X115339714Y-105205295D01*
X115339714Y-105205295D02*
X115339714Y-105252914D01*
X115339714Y-105252914D02*
X115292095Y-105348152D01*
X115292095Y-105348152D02*
X115244476Y-105395771D01*
X115244476Y-105395771D02*
X115149238Y-105443390D01*
X115149238Y-105443390D02*
X114958762Y-105443390D01*
X114958762Y-105443390D02*
X114863524Y-105491009D01*
X114863524Y-105491009D02*
X114815905Y-105538628D01*
X114815905Y-105538628D02*
X114768286Y-105633866D01*
X114768286Y-105633866D02*
X114768286Y-105824342D01*
X114768286Y-105824342D02*
X114815905Y-105919580D01*
X114815905Y-105919580D02*
X114863524Y-105967200D01*
X114863524Y-105967200D02*
X114958762Y-106014819D01*
X114958762Y-106014819D02*
X115149238Y-106014819D01*
X115149238Y-106014819D02*
X115244476Y-105967200D01*
X115244476Y-105967200D02*
X115292095Y-105919580D01*
X115292095Y-105919580D02*
X115339714Y-105824342D01*
X115339714Y-105824342D02*
X115339714Y-105633866D01*
X115339714Y-105633866D02*
X115292095Y-105538628D01*
X115292095Y-105538628D02*
X115244476Y-105491009D01*
X115244476Y-105491009D02*
X115149238Y-105443390D01*
X101536667Y-47719200D02*
X101679524Y-47766819D01*
X101679524Y-47766819D02*
X101917619Y-47766819D01*
X101917619Y-47766819D02*
X102012857Y-47719200D01*
X102012857Y-47719200D02*
X102060476Y-47671580D01*
X102060476Y-47671580D02*
X102108095Y-47576342D01*
X102108095Y-47576342D02*
X102108095Y-47481104D01*
X102108095Y-47481104D02*
X102060476Y-47385866D01*
X102060476Y-47385866D02*
X102012857Y-47338247D01*
X102012857Y-47338247D02*
X101917619Y-47290628D01*
X101917619Y-47290628D02*
X101727143Y-47243009D01*
X101727143Y-47243009D02*
X101631905Y-47195390D01*
X101631905Y-47195390D02*
X101584286Y-47147771D01*
X101584286Y-47147771D02*
X101536667Y-47052533D01*
X101536667Y-47052533D02*
X101536667Y-46957295D01*
X101536667Y-46957295D02*
X101584286Y-46862057D01*
X101584286Y-46862057D02*
X101631905Y-46814438D01*
X101631905Y-46814438D02*
X101727143Y-46766819D01*
X101727143Y-46766819D02*
X101965238Y-46766819D01*
X101965238Y-46766819D02*
X102108095Y-46814438D01*
X102441429Y-46766819D02*
X102679524Y-47766819D01*
X102679524Y-47766819D02*
X102870000Y-47052533D01*
X102870000Y-47052533D02*
X103060476Y-47766819D01*
X103060476Y-47766819D02*
X103298572Y-46766819D01*
X104203333Y-47766819D02*
X103631905Y-47766819D01*
X103917619Y-47766819D02*
X103917619Y-46766819D01*
X103917619Y-46766819D02*
X103822381Y-46909676D01*
X103822381Y-46909676D02*
X103727143Y-47004914D01*
X103727143Y-47004914D02*
X103631905Y-47052533D01*
X121165580Y-52236666D02*
X121213200Y-52284285D01*
X121213200Y-52284285D02*
X121260819Y-52427142D01*
X121260819Y-52427142D02*
X121260819Y-52522380D01*
X121260819Y-52522380D02*
X121213200Y-52665237D01*
X121213200Y-52665237D02*
X121117961Y-52760475D01*
X121117961Y-52760475D02*
X121022723Y-52808094D01*
X121022723Y-52808094D02*
X120832247Y-52855713D01*
X120832247Y-52855713D02*
X120689390Y-52855713D01*
X120689390Y-52855713D02*
X120498914Y-52808094D01*
X120498914Y-52808094D02*
X120403676Y-52760475D01*
X120403676Y-52760475D02*
X120308438Y-52665237D01*
X120308438Y-52665237D02*
X120260819Y-52522380D01*
X120260819Y-52522380D02*
X120260819Y-52427142D01*
X120260819Y-52427142D02*
X120308438Y-52284285D01*
X120308438Y-52284285D02*
X120356057Y-52236666D01*
X120260819Y-51903332D02*
X120260819Y-51284285D01*
X120260819Y-51284285D02*
X120641771Y-51617618D01*
X120641771Y-51617618D02*
X120641771Y-51474761D01*
X120641771Y-51474761D02*
X120689390Y-51379523D01*
X120689390Y-51379523D02*
X120737009Y-51331904D01*
X120737009Y-51331904D02*
X120832247Y-51284285D01*
X120832247Y-51284285D02*
X121070342Y-51284285D01*
X121070342Y-51284285D02*
X121165580Y-51331904D01*
X121165580Y-51331904D02*
X121213200Y-51379523D01*
X121213200Y-51379523D02*
X121260819Y-51474761D01*
X121260819Y-51474761D02*
X121260819Y-51760475D01*
X121260819Y-51760475D02*
X121213200Y-51855713D01*
X121213200Y-51855713D02*
X121165580Y-51903332D01*
X86225142Y-70812819D02*
X85891809Y-70336628D01*
X85653714Y-70812819D02*
X85653714Y-69812819D01*
X85653714Y-69812819D02*
X86034666Y-69812819D01*
X86034666Y-69812819D02*
X86129904Y-69860438D01*
X86129904Y-69860438D02*
X86177523Y-69908057D01*
X86177523Y-69908057D02*
X86225142Y-70003295D01*
X86225142Y-70003295D02*
X86225142Y-70146152D01*
X86225142Y-70146152D02*
X86177523Y-70241390D01*
X86177523Y-70241390D02*
X86129904Y-70289009D01*
X86129904Y-70289009D02*
X86034666Y-70336628D01*
X86034666Y-70336628D02*
X85653714Y-70336628D01*
X87177523Y-70812819D02*
X86606095Y-70812819D01*
X86891809Y-70812819D02*
X86891809Y-69812819D01*
X86891809Y-69812819D02*
X86796571Y-69955676D01*
X86796571Y-69955676D02*
X86701333Y-70050914D01*
X86701333Y-70050914D02*
X86606095Y-70098533D01*
X87510857Y-69812819D02*
X88129904Y-69812819D01*
X88129904Y-69812819D02*
X87796571Y-70193771D01*
X87796571Y-70193771D02*
X87939428Y-70193771D01*
X87939428Y-70193771D02*
X88034666Y-70241390D01*
X88034666Y-70241390D02*
X88082285Y-70289009D01*
X88082285Y-70289009D02*
X88129904Y-70384247D01*
X88129904Y-70384247D02*
X88129904Y-70622342D01*
X88129904Y-70622342D02*
X88082285Y-70717580D01*
X88082285Y-70717580D02*
X88034666Y-70765200D01*
X88034666Y-70765200D02*
X87939428Y-70812819D01*
X87939428Y-70812819D02*
X87653714Y-70812819D01*
X87653714Y-70812819D02*
X87558476Y-70765200D01*
X87558476Y-70765200D02*
X87510857Y-70717580D01*
X90797142Y-70812819D02*
X90463809Y-70336628D01*
X90225714Y-70812819D02*
X90225714Y-69812819D01*
X90225714Y-69812819D02*
X90606666Y-69812819D01*
X90606666Y-69812819D02*
X90701904Y-69860438D01*
X90701904Y-69860438D02*
X90749523Y-69908057D01*
X90749523Y-69908057D02*
X90797142Y-70003295D01*
X90797142Y-70003295D02*
X90797142Y-70146152D01*
X90797142Y-70146152D02*
X90749523Y-70241390D01*
X90749523Y-70241390D02*
X90701904Y-70289009D01*
X90701904Y-70289009D02*
X90606666Y-70336628D01*
X90606666Y-70336628D02*
X90225714Y-70336628D01*
X91749523Y-70812819D02*
X91178095Y-70812819D01*
X91463809Y-70812819D02*
X91463809Y-69812819D01*
X91463809Y-69812819D02*
X91368571Y-69955676D01*
X91368571Y-69955676D02*
X91273333Y-70050914D01*
X91273333Y-70050914D02*
X91178095Y-70098533D01*
X92130476Y-69908057D02*
X92178095Y-69860438D01*
X92178095Y-69860438D02*
X92273333Y-69812819D01*
X92273333Y-69812819D02*
X92511428Y-69812819D01*
X92511428Y-69812819D02*
X92606666Y-69860438D01*
X92606666Y-69860438D02*
X92654285Y-69908057D01*
X92654285Y-69908057D02*
X92701904Y-70003295D01*
X92701904Y-70003295D02*
X92701904Y-70098533D01*
X92701904Y-70098533D02*
X92654285Y-70241390D01*
X92654285Y-70241390D02*
X92082857Y-70812819D01*
X92082857Y-70812819D02*
X92701904Y-70812819D01*
X101450095Y-92114819D02*
X101450095Y-92924342D01*
X101450095Y-92924342D02*
X101497714Y-93019580D01*
X101497714Y-93019580D02*
X101545333Y-93067200D01*
X101545333Y-93067200D02*
X101640571Y-93114819D01*
X101640571Y-93114819D02*
X101831047Y-93114819D01*
X101831047Y-93114819D02*
X101926285Y-93067200D01*
X101926285Y-93067200D02*
X101973904Y-93019580D01*
X101973904Y-93019580D02*
X102021523Y-92924342D01*
X102021523Y-92924342D02*
X102021523Y-92114819D01*
X102450095Y-92210057D02*
X102497714Y-92162438D01*
X102497714Y-92162438D02*
X102592952Y-92114819D01*
X102592952Y-92114819D02*
X102831047Y-92114819D01*
X102831047Y-92114819D02*
X102926285Y-92162438D01*
X102926285Y-92162438D02*
X102973904Y-92210057D01*
X102973904Y-92210057D02*
X103021523Y-92305295D01*
X103021523Y-92305295D02*
X103021523Y-92400533D01*
X103021523Y-92400533D02*
X102973904Y-92543390D01*
X102973904Y-92543390D02*
X102402476Y-93114819D01*
X102402476Y-93114819D02*
X103021523Y-93114819D01*
X92077700Y-86854819D02*
X92077700Y-87092914D01*
X91839605Y-86997676D02*
X92077700Y-87092914D01*
X92077700Y-87092914D02*
X92315795Y-86997676D01*
X91934843Y-87283390D02*
X92077700Y-87092914D01*
X92077700Y-87092914D02*
X92220557Y-87283390D01*
X92077700Y-86854819D02*
X92077700Y-87092914D01*
X91839605Y-86997676D02*
X92077700Y-87092914D01*
X92077700Y-87092914D02*
X92315795Y-86997676D01*
X91934843Y-87283390D02*
X92077700Y-87092914D01*
X92077700Y-87092914D02*
X92220557Y-87283390D01*
X116339580Y-52236666D02*
X116387200Y-52284285D01*
X116387200Y-52284285D02*
X116434819Y-52427142D01*
X116434819Y-52427142D02*
X116434819Y-52522380D01*
X116434819Y-52522380D02*
X116387200Y-52665237D01*
X116387200Y-52665237D02*
X116291961Y-52760475D01*
X116291961Y-52760475D02*
X116196723Y-52808094D01*
X116196723Y-52808094D02*
X116006247Y-52855713D01*
X116006247Y-52855713D02*
X115863390Y-52855713D01*
X115863390Y-52855713D02*
X115672914Y-52808094D01*
X115672914Y-52808094D02*
X115577676Y-52760475D01*
X115577676Y-52760475D02*
X115482438Y-52665237D01*
X115482438Y-52665237D02*
X115434819Y-52522380D01*
X115434819Y-52522380D02*
X115434819Y-52427142D01*
X115434819Y-52427142D02*
X115482438Y-52284285D01*
X115482438Y-52284285D02*
X115530057Y-52236666D01*
X115768152Y-51379523D02*
X116434819Y-51379523D01*
X115387200Y-51617618D02*
X116101485Y-51855713D01*
X116101485Y-51855713D02*
X116101485Y-51236666D01*
X80592819Y-60110666D02*
X80116628Y-60443999D01*
X80592819Y-60682094D02*
X79592819Y-60682094D01*
X79592819Y-60682094D02*
X79592819Y-60301142D01*
X79592819Y-60301142D02*
X79640438Y-60205904D01*
X79640438Y-60205904D02*
X79688057Y-60158285D01*
X79688057Y-60158285D02*
X79783295Y-60110666D01*
X79783295Y-60110666D02*
X79926152Y-60110666D01*
X79926152Y-60110666D02*
X80021390Y-60158285D01*
X80021390Y-60158285D02*
X80069009Y-60205904D01*
X80069009Y-60205904D02*
X80116628Y-60301142D01*
X80116628Y-60301142D02*
X80116628Y-60682094D01*
X79592819Y-59253523D02*
X79592819Y-59443999D01*
X79592819Y-59443999D02*
X79640438Y-59539237D01*
X79640438Y-59539237D02*
X79688057Y-59586856D01*
X79688057Y-59586856D02*
X79830914Y-59682094D01*
X79830914Y-59682094D02*
X80021390Y-59729713D01*
X80021390Y-59729713D02*
X80402342Y-59729713D01*
X80402342Y-59729713D02*
X80497580Y-59682094D01*
X80497580Y-59682094D02*
X80545200Y-59634475D01*
X80545200Y-59634475D02*
X80592819Y-59539237D01*
X80592819Y-59539237D02*
X80592819Y-59348761D01*
X80592819Y-59348761D02*
X80545200Y-59253523D01*
X80545200Y-59253523D02*
X80497580Y-59205904D01*
X80497580Y-59205904D02*
X80402342Y-59158285D01*
X80402342Y-59158285D02*
X80164247Y-59158285D01*
X80164247Y-59158285D02*
X80069009Y-59205904D01*
X80069009Y-59205904D02*
X80021390Y-59253523D01*
X80021390Y-59253523D02*
X79973771Y-59348761D01*
X79973771Y-59348761D02*
X79973771Y-59539237D01*
X79973771Y-59539237D02*
X80021390Y-59634475D01*
X80021390Y-59634475D02*
X80069009Y-59682094D01*
X80069009Y-59682094D02*
X80164247Y-59729713D01*
X80467580Y-55538666D02*
X80515200Y-55586285D01*
X80515200Y-55586285D02*
X80562819Y-55729142D01*
X80562819Y-55729142D02*
X80562819Y-55824380D01*
X80562819Y-55824380D02*
X80515200Y-55967237D01*
X80515200Y-55967237D02*
X80419961Y-56062475D01*
X80419961Y-56062475D02*
X80324723Y-56110094D01*
X80324723Y-56110094D02*
X80134247Y-56157713D01*
X80134247Y-56157713D02*
X79991390Y-56157713D01*
X79991390Y-56157713D02*
X79800914Y-56110094D01*
X79800914Y-56110094D02*
X79705676Y-56062475D01*
X79705676Y-56062475D02*
X79610438Y-55967237D01*
X79610438Y-55967237D02*
X79562819Y-55824380D01*
X79562819Y-55824380D02*
X79562819Y-55729142D01*
X79562819Y-55729142D02*
X79610438Y-55586285D01*
X79610438Y-55586285D02*
X79658057Y-55538666D01*
X79658057Y-55157713D02*
X79610438Y-55110094D01*
X79610438Y-55110094D02*
X79562819Y-55014856D01*
X79562819Y-55014856D02*
X79562819Y-54776761D01*
X79562819Y-54776761D02*
X79610438Y-54681523D01*
X79610438Y-54681523D02*
X79658057Y-54633904D01*
X79658057Y-54633904D02*
X79753295Y-54586285D01*
X79753295Y-54586285D02*
X79848533Y-54586285D01*
X79848533Y-54586285D02*
X79991390Y-54633904D01*
X79991390Y-54633904D02*
X80562819Y-55205332D01*
X80562819Y-55205332D02*
X80562819Y-54586285D01*
X121374095Y-54846819D02*
X121374095Y-53846819D01*
X121374095Y-54323009D02*
X121945523Y-54323009D01*
X121945523Y-54846819D02*
X121945523Y-53846819D01*
X122326476Y-53846819D02*
X122945523Y-53846819D01*
X122945523Y-53846819D02*
X122612190Y-54227771D01*
X122612190Y-54227771D02*
X122755047Y-54227771D01*
X122755047Y-54227771D02*
X122850285Y-54275390D01*
X122850285Y-54275390D02*
X122897904Y-54323009D01*
X122897904Y-54323009D02*
X122945523Y-54418247D01*
X122945523Y-54418247D02*
X122945523Y-54656342D01*
X122945523Y-54656342D02*
X122897904Y-54751580D01*
X122897904Y-54751580D02*
X122850285Y-54799200D01*
X122850285Y-54799200D02*
X122755047Y-54846819D01*
X122755047Y-54846819D02*
X122469333Y-54846819D01*
X122469333Y-54846819D02*
X122374095Y-54799200D01*
X122374095Y-54799200D02*
X122326476Y-54751580D01*
X125563333Y-50749580D02*
X125515714Y-50797200D01*
X125515714Y-50797200D02*
X125372857Y-50844819D01*
X125372857Y-50844819D02*
X125277619Y-50844819D01*
X125277619Y-50844819D02*
X125134762Y-50797200D01*
X125134762Y-50797200D02*
X125039524Y-50701961D01*
X125039524Y-50701961D02*
X124991905Y-50606723D01*
X124991905Y-50606723D02*
X124944286Y-50416247D01*
X124944286Y-50416247D02*
X124944286Y-50273390D01*
X124944286Y-50273390D02*
X124991905Y-50082914D01*
X124991905Y-50082914D02*
X125039524Y-49987676D01*
X125039524Y-49987676D02*
X125134762Y-49892438D01*
X125134762Y-49892438D02*
X125277619Y-49844819D01*
X125277619Y-49844819D02*
X125372857Y-49844819D01*
X125372857Y-49844819D02*
X125515714Y-49892438D01*
X125515714Y-49892438D02*
X125563333Y-49940057D01*
X126468095Y-49844819D02*
X125991905Y-49844819D01*
X125991905Y-49844819D02*
X125944286Y-50321009D01*
X125944286Y-50321009D02*
X125991905Y-50273390D01*
X125991905Y-50273390D02*
X126087143Y-50225771D01*
X126087143Y-50225771D02*
X126325238Y-50225771D01*
X126325238Y-50225771D02*
X126420476Y-50273390D01*
X126420476Y-50273390D02*
X126468095Y-50321009D01*
X126468095Y-50321009D02*
X126515714Y-50416247D01*
X126515714Y-50416247D02*
X126515714Y-50654342D01*
X126515714Y-50654342D02*
X126468095Y-50749580D01*
X126468095Y-50749580D02*
X126420476Y-50797200D01*
X126420476Y-50797200D02*
X126325238Y-50844819D01*
X126325238Y-50844819D02*
X126087143Y-50844819D01*
X126087143Y-50844819D02*
X125991905Y-50797200D01*
X125991905Y-50797200D02*
X125944286Y-50749580D01*
X94471261Y-59364057D02*
X94376023Y-59316438D01*
X94376023Y-59316438D02*
X94280785Y-59221200D01*
X94280785Y-59221200D02*
X94137928Y-59078342D01*
X94137928Y-59078342D02*
X94042690Y-59030723D01*
X94042690Y-59030723D02*
X93947452Y-59030723D01*
X93995071Y-59268819D02*
X93899833Y-59221200D01*
X93899833Y-59221200D02*
X93804595Y-59125961D01*
X93804595Y-59125961D02*
X93756976Y-58935485D01*
X93756976Y-58935485D02*
X93756976Y-58602152D01*
X93756976Y-58602152D02*
X93804595Y-58411676D01*
X93804595Y-58411676D02*
X93899833Y-58316438D01*
X93899833Y-58316438D02*
X93995071Y-58268819D01*
X93995071Y-58268819D02*
X94185547Y-58268819D01*
X94185547Y-58268819D02*
X94280785Y-58316438D01*
X94280785Y-58316438D02*
X94376023Y-58411676D01*
X94376023Y-58411676D02*
X94423642Y-58602152D01*
X94423642Y-58602152D02*
X94423642Y-58935485D01*
X94423642Y-58935485D02*
X94376023Y-59125961D01*
X94376023Y-59125961D02*
X94280785Y-59221200D01*
X94280785Y-59221200D02*
X94185547Y-59268819D01*
X94185547Y-59268819D02*
X93995071Y-59268819D01*
X95376023Y-59268819D02*
X94804595Y-59268819D01*
X95090309Y-59268819D02*
X95090309Y-58268819D01*
X95090309Y-58268819D02*
X94995071Y-58411676D01*
X94995071Y-58411676D02*
X94899833Y-58506914D01*
X94899833Y-58506914D02*
X94804595Y-58554533D01*
X95782190Y-65224819D02*
X95782190Y-64224819D01*
X95782190Y-64224819D02*
X96353618Y-65224819D01*
X96353618Y-65224819D02*
X96353618Y-64224819D01*
X97210761Y-65177200D02*
X97115523Y-65224819D01*
X97115523Y-65224819D02*
X96925047Y-65224819D01*
X96925047Y-65224819D02*
X96829809Y-65177200D01*
X96829809Y-65177200D02*
X96782190Y-65081961D01*
X96782190Y-65081961D02*
X96782190Y-64701009D01*
X96782190Y-64701009D02*
X96829809Y-64605771D01*
X96829809Y-64605771D02*
X96925047Y-64558152D01*
X96925047Y-64558152D02*
X97115523Y-64558152D01*
X97115523Y-64558152D02*
X97210761Y-64605771D01*
X97210761Y-64605771D02*
X97258380Y-64701009D01*
X97258380Y-64701009D02*
X97258380Y-64796247D01*
X97258380Y-64796247D02*
X96782190Y-64891485D01*
X97591714Y-65224819D02*
X98115523Y-64558152D01*
X97591714Y-64558152D02*
X98115523Y-65224819D01*
X98353619Y-64558152D02*
X98734571Y-64558152D01*
X98496476Y-64224819D02*
X98496476Y-65081961D01*
X98496476Y-65081961D02*
X98544095Y-65177200D01*
X98544095Y-65177200D02*
X98639333Y-65224819D01*
X98639333Y-65224819D02*
X98734571Y-65224819D01*
X99067905Y-65224819D02*
X99067905Y-64558152D01*
X99067905Y-64224819D02*
X99020286Y-64272438D01*
X99020286Y-64272438D02*
X99067905Y-64320057D01*
X99067905Y-64320057D02*
X99115524Y-64272438D01*
X99115524Y-64272438D02*
X99067905Y-64224819D01*
X99067905Y-64224819D02*
X99067905Y-64320057D01*
X99686952Y-65224819D02*
X99591714Y-65177200D01*
X99591714Y-65177200D02*
X99544095Y-65129580D01*
X99544095Y-65129580D02*
X99496476Y-65034342D01*
X99496476Y-65034342D02*
X99496476Y-64748628D01*
X99496476Y-64748628D02*
X99544095Y-64653390D01*
X99544095Y-64653390D02*
X99591714Y-64605771D01*
X99591714Y-64605771D02*
X99686952Y-64558152D01*
X99686952Y-64558152D02*
X99829809Y-64558152D01*
X99829809Y-64558152D02*
X99925047Y-64605771D01*
X99925047Y-64605771D02*
X99972666Y-64653390D01*
X99972666Y-64653390D02*
X100020285Y-64748628D01*
X100020285Y-64748628D02*
X100020285Y-65034342D01*
X100020285Y-65034342D02*
X99972666Y-65129580D01*
X99972666Y-65129580D02*
X99925047Y-65177200D01*
X99925047Y-65177200D02*
X99829809Y-65224819D01*
X99829809Y-65224819D02*
X99686952Y-65224819D01*
X100448857Y-64558152D02*
X100448857Y-65224819D01*
X100448857Y-64653390D02*
X100496476Y-64605771D01*
X100496476Y-64605771D02*
X100591714Y-64558152D01*
X100591714Y-64558152D02*
X100734571Y-64558152D01*
X100734571Y-64558152D02*
X100829809Y-64605771D01*
X100829809Y-64605771D02*
X100877428Y-64701009D01*
X100877428Y-64701009D02*
X100877428Y-65224819D01*
X101877428Y-65224819D02*
X101306000Y-65224819D01*
X101591714Y-65224819D02*
X101591714Y-64224819D01*
X101591714Y-64224819D02*
X101496476Y-64367676D01*
X101496476Y-64367676D02*
X101401238Y-64462914D01*
X101401238Y-64462914D02*
X101306000Y-64510533D01*
X76374095Y-98846819D02*
X76374095Y-97846819D01*
X76374095Y-98323009D02*
X76945523Y-98323009D01*
X76945523Y-98846819D02*
X76945523Y-97846819D01*
X77374095Y-97942057D02*
X77421714Y-97894438D01*
X77421714Y-97894438D02*
X77516952Y-97846819D01*
X77516952Y-97846819D02*
X77755047Y-97846819D01*
X77755047Y-97846819D02*
X77850285Y-97894438D01*
X77850285Y-97894438D02*
X77897904Y-97942057D01*
X77897904Y-97942057D02*
X77945523Y-98037295D01*
X77945523Y-98037295D02*
X77945523Y-98132533D01*
X77945523Y-98132533D02*
X77897904Y-98275390D01*
X77897904Y-98275390D02*
X77326476Y-98846819D01*
X77326476Y-98846819D02*
X77945523Y-98846819D01*
X89749333Y-65858819D02*
X89416000Y-65382628D01*
X89177905Y-65858819D02*
X89177905Y-64858819D01*
X89177905Y-64858819D02*
X89558857Y-64858819D01*
X89558857Y-64858819D02*
X89654095Y-64906438D01*
X89654095Y-64906438D02*
X89701714Y-64954057D01*
X89701714Y-64954057D02*
X89749333Y-65049295D01*
X89749333Y-65049295D02*
X89749333Y-65192152D01*
X89749333Y-65192152D02*
X89701714Y-65287390D01*
X89701714Y-65287390D02*
X89654095Y-65335009D01*
X89654095Y-65335009D02*
X89558857Y-65382628D01*
X89558857Y-65382628D02*
X89177905Y-65382628D01*
X90082667Y-64858819D02*
X90701714Y-64858819D01*
X90701714Y-64858819D02*
X90368381Y-65239771D01*
X90368381Y-65239771D02*
X90511238Y-65239771D01*
X90511238Y-65239771D02*
X90606476Y-65287390D01*
X90606476Y-65287390D02*
X90654095Y-65335009D01*
X90654095Y-65335009D02*
X90701714Y-65430247D01*
X90701714Y-65430247D02*
X90701714Y-65668342D01*
X90701714Y-65668342D02*
X90654095Y-65763580D01*
X90654095Y-65763580D02*
X90606476Y-65811200D01*
X90606476Y-65811200D02*
X90511238Y-65858819D01*
X90511238Y-65858819D02*
X90225524Y-65858819D01*
X90225524Y-65858819D02*
X90130286Y-65811200D01*
X90130286Y-65811200D02*
X90082667Y-65763580D01*
D13*
%TO.C,USB_UART1*%
X118618000Y-88900000D02*
X119888000Y-88900000D01*
X118618000Y-90170000D02*
X118618000Y-88900000D01*
X120930929Y-92330000D02*
X121328000Y-92330000D01*
X120930929Y-93090000D02*
X121328000Y-93090000D01*
X120930929Y-94870000D02*
X121328000Y-94870000D01*
X120930929Y-95630000D02*
X121328000Y-95630000D01*
X120930929Y-97410000D02*
X121328000Y-97410000D01*
X120930929Y-98170000D02*
X121328000Y-98170000D01*
X120930929Y-99950000D02*
X121328000Y-99950000D01*
X120930929Y-100710000D02*
X121328000Y-100710000D01*
X120930929Y-102490000D02*
X121328000Y-102490000D01*
X120930929Y-103250000D02*
X121328000Y-103250000D01*
X120998000Y-89790000D02*
X121328000Y-89790000D01*
X120998000Y-90550000D02*
X121328000Y-90550000D01*
X121328000Y-88840000D02*
X121328000Y-104200000D01*
X121328000Y-91440000D02*
X123988000Y-91440000D01*
X121328000Y-93980000D02*
X123988000Y-93980000D01*
X121328000Y-96520000D02*
X123988000Y-96520000D01*
X121328000Y-99060000D02*
X123988000Y-99060000D01*
X121328000Y-101600000D02*
X123988000Y-101600000D01*
X121328000Y-104200000D02*
X123988000Y-104200000D01*
X123988000Y-88840000D02*
X121328000Y-88840000D01*
X123988000Y-89790000D02*
X129988000Y-89790000D01*
X123988000Y-89850000D02*
X129988000Y-89850000D01*
X123988000Y-89970000D02*
X129988000Y-89970000D01*
X123988000Y-90090000D02*
X129988000Y-90090000D01*
X123988000Y-90210000D02*
X129988000Y-90210000D01*
X123988000Y-90330000D02*
X129988000Y-90330000D01*
X123988000Y-90450000D02*
X129988000Y-90450000D01*
X123988000Y-92330000D02*
X129988000Y-92330000D01*
X123988000Y-94870000D02*
X129988000Y-94870000D01*
X123988000Y-97410000D02*
X129988000Y-97410000D01*
X123988000Y-99950000D02*
X129988000Y-99950000D01*
X123988000Y-102490000D02*
X129988000Y-102490000D01*
X123988000Y-104200000D02*
X123988000Y-88840000D01*
X129988000Y-89790000D02*
X129988000Y-90550000D01*
X129988000Y-90550000D02*
X123988000Y-90550000D01*
X129988000Y-92330000D02*
X129988000Y-93090000D01*
X129988000Y-93090000D02*
X123988000Y-93090000D01*
X129988000Y-94870000D02*
X129988000Y-95630000D01*
X129988000Y-95630000D02*
X123988000Y-95630000D01*
X129988000Y-97410000D02*
X129988000Y-98170000D01*
X129988000Y-98170000D02*
X123988000Y-98170000D01*
X129988000Y-99950000D02*
X129988000Y-100710000D01*
X129988000Y-100710000D02*
X123988000Y-100710000D01*
X129988000Y-102490000D02*
X129988000Y-103250000D01*
X129988000Y-103250000D02*
X123988000Y-103250000D01*
%TO.C,JP1*%
X81804000Y-78442000D02*
X81804000Y-72942000D01*
X83754000Y-78442000D02*
X81804000Y-78442000D01*
X84304000Y-77392000D02*
X84304000Y-76792000D01*
X84004000Y-77092000D02*
X84304000Y-77392000D01*
X84304000Y-76792000D02*
X84004000Y-77092000D01*
X81804000Y-72942000D02*
X83754000Y-72942000D01*
X83754000Y-72942000D02*
X83754000Y-78442000D01*
%TO.C,MicroUSB_5V1A_Wall1*%
X124340000Y-47608000D02*
X124340000Y-45548000D01*
X126050000Y-47608000D02*
X124340000Y-47608000D01*
X130160000Y-47608000D02*
X128550000Y-47608000D01*
X130160000Y-47608000D02*
X130160000Y-39888000D01*
X124340000Y-45548000D02*
X123750000Y-45548000D01*
X124340000Y-39888000D02*
X124340000Y-41948000D01*
X126050000Y-39888000D02*
X124340000Y-39888000D01*
X130160000Y-39888000D02*
X128550000Y-39888000D01*
%TO.C,R5*%
X87874936Y-90983000D02*
X88329064Y-90983000D01*
X87874936Y-92453000D02*
X88329064Y-92453000D01*
%TO.C,R7*%
X87874936Y-86411000D02*
X88329064Y-86411000D01*
X87874936Y-87881000D02*
X88329064Y-87881000D01*
%TO.C,SW2*%
X87940000Y-50812000D02*
X87940000Y-52312000D01*
X89190000Y-54812000D02*
X93690000Y-54812000D01*
X93690000Y-48312000D02*
X89190000Y-48312000D01*
X94940000Y-52312000D02*
X94940000Y-50812000D01*
%TO.C,R1*%
X88329064Y-101597000D02*
X87874936Y-101597000D01*
X88329064Y-100127000D02*
X87874936Y-100127000D01*
%TO.C,R2*%
X89688936Y-57939000D02*
X90143064Y-57939000D01*
X89688936Y-59409000D02*
X90143064Y-59409000D01*
%TO.C,C1*%
X108739000Y-52077252D02*
X108739000Y-51554748D01*
X110209000Y-52077252D02*
X110209000Y-51554748D01*
%TO.C,R4*%
X88329064Y-97025000D02*
X87874936Y-97025000D01*
X88329064Y-95555000D02*
X87874936Y-95555000D01*
%TO.C,Q2*%
X85676500Y-62708000D02*
X87351500Y-62708000D01*
X85676500Y-62708000D02*
X85026500Y-62708000D01*
X85676500Y-59588000D02*
X86326500Y-59588000D01*
X85676500Y-59588000D02*
X85026500Y-59588000D01*
%TO.C,R8*%
X114781064Y-104645000D02*
X114326936Y-104645000D01*
X114781064Y-103175000D02*
X114326936Y-103175000D01*
%TO.C,SW1*%
X99370000Y-50812000D02*
X99370000Y-52312000D01*
X100620000Y-54812000D02*
X105120000Y-54812000D01*
X105120000Y-48312000D02*
X100620000Y-48312000D01*
X106370000Y-52312000D02*
X106370000Y-50812000D01*
%TO.C,C3*%
X119861000Y-51808748D02*
X119861000Y-52331252D01*
X118391000Y-51808748D02*
X118391000Y-52331252D01*
%TO.C,R13*%
X87095064Y-73125000D02*
X86640936Y-73125000D01*
X87095064Y-71655000D02*
X86640936Y-71655000D01*
%TO.C,R12*%
X92683064Y-73125000D02*
X92228936Y-73125000D01*
X92683064Y-71655000D02*
X92228936Y-71655000D01*
D14*
%TO.C,U2*%
X93080700Y-79782200D02*
X111343300Y-79782200D01*
X93080700Y-86622760D02*
X93080700Y-79782200D01*
X93080700Y-105537800D02*
X93080700Y-104687240D01*
X94449760Y-105537800D02*
X93080700Y-105537800D01*
X111343300Y-79782200D02*
X111343300Y-86622760D01*
X111343300Y-104687240D02*
X111343300Y-105537800D01*
X111343300Y-105537800D02*
X109974240Y-105537800D01*
D13*
%TO.C,C4*%
X115035000Y-51808748D02*
X115035000Y-52331252D01*
X113565000Y-51808748D02*
X113565000Y-52331252D01*
%TO.C,R6*%
X81053000Y-60171064D02*
X81053000Y-59716936D01*
X82523000Y-60171064D02*
X82523000Y-59716936D01*
%TO.C,C2*%
X81053000Y-55633252D02*
X81053000Y-55110748D01*
X82523000Y-55633252D02*
X82523000Y-55110748D01*
%TO.C,C5*%
X125468748Y-51335000D02*
X125991252Y-51335000D01*
X125468748Y-52805000D02*
X125991252Y-52805000D01*
%TO.C,Q1*%
X94566500Y-59654000D02*
X92891500Y-59654000D01*
X94566500Y-59654000D02*
X95216500Y-59654000D01*
X94566500Y-62774000D02*
X93916500Y-62774000D01*
X94566500Y-62774000D02*
X95216500Y-62774000D01*
%TO.C,Nextion1*%
X96774000Y-66040000D02*
X98044000Y-66040000D01*
X96774000Y-67310000D02*
X96774000Y-66040000D01*
X99086929Y-69470000D02*
X99484000Y-69470000D01*
X99086929Y-70230000D02*
X99484000Y-70230000D01*
X99086929Y-72010000D02*
X99484000Y-72010000D01*
X99086929Y-72770000D02*
X99484000Y-72770000D01*
X99086929Y-74550000D02*
X99484000Y-74550000D01*
X99086929Y-75310000D02*
X99484000Y-75310000D01*
X99154000Y-66930000D02*
X99484000Y-66930000D01*
X99154000Y-67690000D02*
X99484000Y-67690000D01*
X99484000Y-65980000D02*
X99484000Y-76260000D01*
X99484000Y-68580000D02*
X102144000Y-68580000D01*
X99484000Y-71120000D02*
X102144000Y-71120000D01*
X99484000Y-73660000D02*
X102144000Y-73660000D01*
X99484000Y-76260000D02*
X102144000Y-76260000D01*
X102144000Y-65980000D02*
X99484000Y-65980000D01*
X102144000Y-66930000D02*
X108144000Y-66930000D01*
X102144000Y-66990000D02*
X108144000Y-66990000D01*
X102144000Y-67110000D02*
X108144000Y-67110000D01*
X102144000Y-67230000D02*
X108144000Y-67230000D01*
X102144000Y-67350000D02*
X108144000Y-67350000D01*
X102144000Y-67470000D02*
X108144000Y-67470000D01*
X102144000Y-67590000D02*
X108144000Y-67590000D01*
X102144000Y-69470000D02*
X108144000Y-69470000D01*
X102144000Y-72010000D02*
X108144000Y-72010000D01*
X102144000Y-74550000D02*
X108144000Y-74550000D01*
X102144000Y-76260000D02*
X102144000Y-65980000D01*
X108144000Y-66930000D02*
X108144000Y-67690000D01*
X108144000Y-67690000D02*
X102144000Y-67690000D01*
X108144000Y-69470000D02*
X108144000Y-70230000D01*
X108144000Y-70230000D02*
X102144000Y-70230000D01*
X108144000Y-72010000D02*
X108144000Y-72770000D01*
X108144000Y-72770000D02*
X102144000Y-72770000D01*
X108144000Y-74550000D02*
X108144000Y-75310000D01*
X108144000Y-75310000D02*
X102144000Y-75310000D01*
%TO.C,R3*%
X90143064Y-64489000D02*
X89688936Y-64489000D01*
X90143064Y-63019000D02*
X89688936Y-63019000D01*
%TD*%
M02*
