M48
; DRILL file {KiCad 7.0.10} date Sun Feb 25 15:08:56 2024
; FORMAT={-:-/ absolute / inch / decimal}
; #@! TF.CreationDate,2024-02-25T15:08:56-06:00
; #@! TF.GenerationSoftware,Kicad,Pcbnew,7.0.10
; #@! TF.FileFunction,Plated,1,2,PTH
FMAT,2
INCH
; #@! TA.AperFunction,Plated,PTH,ViaDrill
T1C0.0200
; #@! TA.AperFunction,Plated,PTH,ComponentDrill
T2C0.0394
%
G90
G05
T1
X2.96Y-2.2
X2.97Y-3.7
X2.99Y-2.65
X3.04Y-3.38
X3.18Y-2.64
X3.19Y-3.8
X3.31Y-2.04
X3.31Y-3.21
X3.34Y-1.7
X3.34Y-3.61
X3.34Y-3.8
X3.35Y-3.51
X3.35Y-4.09
X3.36Y-2.65
X3.38Y-2.29
X3.38Y-3.88
X3.52Y-3.71
X3.53Y-2.8
X3.57Y-2.41
X3.6Y-2.94
X3.6Y-4.01
X3.75Y-1.84
X3.75Y-3.55
X3.76Y-3.84
X3.78Y-3.49
X3.78Y-3.72
X3.86Y-2.23
X3.89Y-2.38
X3.97Y-3.5
X4.03Y-1.53
X4.05Y-3.95
X4.07Y-2.33
X4.18Y-1.84
X4.23Y-3.74
X4.24Y-4.07
X4.3Y-3.57
X4.34Y-3.23
X4.45Y-3.59
X4.53Y-2.36
X4.54Y-4.01
X4.58Y-1.58
X4.59Y-3.47
X4.59Y-3.79
X4.65Y-4.15
X4.77Y-1.93
T2
X3.86Y-2.65
X3.86Y-2.75
X3.86Y-2.85
X3.86Y-2.95
X4.72Y-3.55
X4.72Y-3.65
X4.72Y-3.75
X4.72Y-3.85
X4.72Y-3.95
X4.72Y-4.05
M30
