%TF.GenerationSoftware,KiCad,Pcbnew,7.0.10*%
%TF.CreationDate,2024-02-25T15:08:51-06:00*%
%TF.ProjectId,ESP32,45535033-322e-46b6-9963-61645f706362,rev?*%
%TF.SameCoordinates,Original*%
%TF.FileFunction,Copper,L2,Bot*%
%TF.FilePolarity,Positive*%
%FSLAX46Y46*%
G04 Gerber Fmt 4.6, Leading zero omitted, Abs format (unit mm)*
G04 Created by KiCad (PCBNEW 7.0.10) date 2024-02-25 15:08:51*
%MOMM*%
%LPD*%
G01*
G04 APERTURE LIST*
%TA.AperFunction,ComponentPad*%
%ADD10R,1.700000X1.700000*%
%TD*%
%TA.AperFunction,ComponentPad*%
%ADD11O,1.700000X1.700000*%
%TD*%
%TA.AperFunction,ViaPad*%
%ADD12C,1.016000*%
%TD*%
%TA.AperFunction,Conductor*%
%ADD13C,0.508000*%
%TD*%
G04 APERTURE END LIST*
D10*
%TO.P,USB_UART1,1,Pin_1*%
%TO.N,GND*%
X119888000Y-90170000D03*
D11*
%TO.P,USB_UART1,2,Pin_2*%
%TO.N,/RTS*%
X119888000Y-92710000D03*
%TO.P,USB_UART1,3,Pin_3*%
%TO.N,unconnected-(USB_UART1-Pin_3-Pad3)*%
X119888000Y-95250000D03*
%TO.P,USB_UART1,4,Pin_4*%
%TO.N,/RX*%
X119888000Y-97790000D03*
%TO.P,USB_UART1,5,Pin_5*%
%TO.N,/TX*%
X119888000Y-100330000D03*
%TO.P,USB_UART1,6,Pin_6*%
%TO.N,/DTR*%
X119888000Y-102870000D03*
%TD*%
%TO.P,Nextion1,4,Pin_4*%
%TO.N,GND*%
X98044000Y-74930000D03*
%TO.P,Nextion1,3,Pin_3*%
%TO.N,Net-(Nextion1-Pin_3)*%
X98044000Y-72390000D03*
%TO.P,Nextion1,2,Pin_2*%
%TO.N,/LCD_TX*%
X98044000Y-69850000D03*
D10*
%TO.P,Nextion1,1,Pin_1*%
%TO.N,+5V*%
X98044000Y-67310000D03*
%TD*%
D12*
%TO.N,GND*%
X85090000Y-89154000D03*
X91440000Y-101854000D03*
X85852000Y-98552000D03*
X89408000Y-94234000D03*
X116586000Y-96266000D03*
X110236000Y-82042000D03*
X116586000Y-88138000D03*
X118110000Y-105410000D03*
X84074000Y-81534000D03*
X116332000Y-40132000D03*
X121158000Y-49022000D03*
X115062000Y-59944000D03*
X84074000Y-51816000D03*
X85344000Y-67310000D03*
X98806000Y-60452000D03*
X103378000Y-59182000D03*
X106172000Y-46736000D03*
X95250000Y-46736000D03*
X102362000Y-38862000D03*
X84836000Y-43180000D03*
X75184000Y-55880000D03*
X75946000Y-67310000D03*
X77216000Y-85852000D03*
X75438000Y-93980000D03*
X85090000Y-103886000D03*
X96012000Y-94488000D03*
X102870000Y-100330000D03*
X107442000Y-94996000D03*
X100838000Y-88900000D03*
X109220000Y-90678000D03*
%TO.N,/LCD_RX*%
X91440000Y-74676000D03*
X95504000Y-97536000D03*
%TO.N,/CHIP_PU*%
X98044000Y-56642000D03*
X95250000Y-90170000D03*
%TO.N,/GPIO0_STRAPPING*%
X107696000Y-103378000D03*
X80772000Y-67056000D03*
%TO.N,/RTS*%
X90678000Y-61214000D03*
%TO.N,/DTR*%
X85852000Y-58166000D03*
%TO.N,/TX*%
X113030000Y-91186000D03*
%TO.N,+3V3*%
X96012000Y-88646000D03*
X115316000Y-101854000D03*
%TO.N,Net-(JP1-C)*%
X84836000Y-96520000D03*
X81026000Y-96520000D03*
%TO.N,Net-(Q1-C)*%
X89662000Y-71120000D03*
X84836000Y-91694000D03*
%TD*%
D13*
%TO.N,/TX*%
X113030000Y-94742000D02*
X113030000Y-91186000D01*
X118618000Y-100330000D02*
X113030000Y-94742000D01*
X119888000Y-100330000D02*
X118618000Y-100330000D01*
%TO.N,/RTS*%
X94234000Y-64770000D02*
X90678000Y-61214000D01*
X107442000Y-89408000D02*
X94234000Y-76200000D01*
X94234000Y-76200000D02*
X94234000Y-64770000D01*
X113284000Y-89408000D02*
X107442000Y-89408000D01*
X116586000Y-92710000D02*
X113284000Y-89408000D01*
X119888000Y-92710000D02*
X116586000Y-92710000D01*
%TO.N,/LCD_RX*%
X91440000Y-93472000D02*
X91440000Y-74676000D01*
X95504000Y-97536000D02*
X91440000Y-93472000D01*
%TO.N,/CHIP_PU*%
X84836000Y-57658000D02*
X85852000Y-56642000D01*
X85852000Y-56642000D02*
X98044000Y-56642000D01*
X84836000Y-58510474D02*
X84836000Y-57658000D01*
X92764000Y-66438474D02*
X84836000Y-58510474D01*
X92764000Y-87684000D02*
X92764000Y-66438474D01*
X95250000Y-90170000D02*
X92764000Y-87684000D01*
%TO.N,/DTR*%
X93472000Y-65786000D02*
X85852000Y-58166000D01*
X93472000Y-76454000D02*
X93472000Y-65786000D01*
X119888000Y-102870000D02*
X93472000Y-76454000D01*
%TO.N,/GPIO0_STRAPPING*%
X95159526Y-103378000D02*
X107696000Y-103378000D01*
X80772000Y-88990474D02*
X95159526Y-103378000D01*
X80772000Y-67056000D02*
X80772000Y-88990474D01*
%TO.N,Net-(Q1-C)*%
X89662000Y-86868000D02*
X84836000Y-91694000D01*
X89662000Y-71120000D02*
X89662000Y-86868000D01*
%TO.N,+3V3*%
X109220000Y-101854000D02*
X96012000Y-88646000D01*
X115316000Y-101854000D02*
X109220000Y-101854000D01*
%TO.N,Net-(JP1-C)*%
X81026000Y-96520000D02*
X84836000Y-96520000D01*
%TD*%
%TA.AperFunction,Conductor*%
%TO.N,GND*%
G36*
X114174310Y-91375850D02*
G01*
X114209475Y-91400499D01*
X116007234Y-93198258D01*
X116019015Y-93211890D01*
X116033461Y-93231294D01*
X116071638Y-93263328D01*
X116079614Y-93270638D01*
X116083554Y-93274579D01*
X116108010Y-93293916D01*
X116110807Y-93296195D01*
X116168572Y-93344667D01*
X116174609Y-93348637D01*
X116174579Y-93348682D01*
X116181038Y-93352796D01*
X116181067Y-93352750D01*
X116187207Y-93356537D01*
X116187209Y-93356539D01*
X116255557Y-93388410D01*
X116258775Y-93389968D01*
X116312669Y-93417034D01*
X116326189Y-93423824D01*
X116326191Y-93423824D01*
X116332979Y-93426295D01*
X116332960Y-93426347D01*
X116340188Y-93428859D01*
X116340206Y-93428808D01*
X116347055Y-93431077D01*
X116347056Y-93431077D01*
X116347060Y-93431079D01*
X116420972Y-93446339D01*
X116424419Y-93447104D01*
X116497812Y-93464500D01*
X116497813Y-93464500D01*
X116497817Y-93464501D01*
X116504985Y-93465339D01*
X116504978Y-93465392D01*
X116512594Y-93466170D01*
X116512599Y-93466117D01*
X116519788Y-93466746D01*
X116519792Y-93466745D01*
X116519793Y-93466746D01*
X116595179Y-93464551D01*
X116598786Y-93464500D01*
X118703099Y-93464500D01*
X118770138Y-93484185D01*
X118804674Y-93517376D01*
X118849505Y-93581401D01*
X118849506Y-93581402D01*
X119016597Y-93748493D01*
X119016603Y-93748498D01*
X119202158Y-93878425D01*
X119245783Y-93933002D01*
X119252977Y-94002500D01*
X119221454Y-94064855D01*
X119202158Y-94081575D01*
X119016597Y-94211505D01*
X118849505Y-94378597D01*
X118713965Y-94572169D01*
X118713964Y-94572171D01*
X118614098Y-94786335D01*
X118614094Y-94786344D01*
X118552938Y-95014586D01*
X118552936Y-95014596D01*
X118532341Y-95249999D01*
X118532341Y-95250000D01*
X118552936Y-95485403D01*
X118552938Y-95485413D01*
X118614094Y-95713655D01*
X118614096Y-95713659D01*
X118614097Y-95713663D01*
X118638269Y-95765500D01*
X118713965Y-95927830D01*
X118713967Y-95927834D01*
X118849501Y-96121395D01*
X118849506Y-96121402D01*
X119016597Y-96288493D01*
X119016603Y-96288498D01*
X119202158Y-96418425D01*
X119245783Y-96473002D01*
X119252977Y-96542500D01*
X119221454Y-96604855D01*
X119202158Y-96621575D01*
X119016597Y-96751505D01*
X118849505Y-96918597D01*
X118713965Y-97112169D01*
X118713964Y-97112171D01*
X118614098Y-97326335D01*
X118614094Y-97326344D01*
X118552938Y-97554586D01*
X118552936Y-97554596D01*
X118532341Y-97789999D01*
X118532341Y-97790000D01*
X118552936Y-98025403D01*
X118552938Y-98025413D01*
X118614094Y-98253655D01*
X118614096Y-98253659D01*
X118614097Y-98253663D01*
X118713965Y-98467830D01*
X118713967Y-98467834D01*
X118849501Y-98661395D01*
X118849506Y-98661402D01*
X119016597Y-98828493D01*
X119016603Y-98828498D01*
X119202158Y-98958425D01*
X119245783Y-99013002D01*
X119252977Y-99082500D01*
X119221454Y-99144855D01*
X119202158Y-99161575D01*
X119016600Y-99291503D01*
X118919244Y-99388859D01*
X118857920Y-99422343D01*
X118788229Y-99417359D01*
X118743882Y-99388858D01*
X113820819Y-94465795D01*
X113787334Y-94404472D01*
X113784500Y-94378114D01*
X113784500Y-91900715D01*
X113804185Y-91833676D01*
X113812639Y-91822058D01*
X113872595Y-91749004D01*
X113966241Y-91573804D01*
X114003134Y-91452183D01*
X114041431Y-91393746D01*
X114105243Y-91365290D01*
X114174310Y-91375850D01*
G37*
%TD.AperFunction*%
%TA.AperFunction,Conductor*%
G36*
X112407911Y-90182185D02*
G01*
X112453666Y-90234989D01*
X112463610Y-90304147D01*
X112434585Y-90367703D01*
X112419537Y-90382353D01*
X112313431Y-90469431D01*
X112187405Y-90622994D01*
X112187401Y-90623001D01*
X112093760Y-90798191D01*
X112036091Y-90988300D01*
X112016620Y-91186000D01*
X112036091Y-91383699D01*
X112093760Y-91573808D01*
X112187401Y-91748998D01*
X112187402Y-91748999D01*
X112187405Y-91749004D01*
X112247353Y-91822051D01*
X112274666Y-91886359D01*
X112275500Y-91900715D01*
X112275500Y-93891114D01*
X112255815Y-93958153D01*
X112203011Y-94003908D01*
X112133853Y-94013852D01*
X112070297Y-93984827D01*
X112063819Y-93978795D01*
X108459205Y-90374181D01*
X108425720Y-90312858D01*
X108430704Y-90243166D01*
X108472576Y-90187233D01*
X108538040Y-90162816D01*
X108546886Y-90162500D01*
X112340872Y-90162500D01*
X112407911Y-90182185D01*
G37*
%TD.AperFunction*%
%TA.AperFunction,Conductor*%
G36*
X128692539Y-37612185D02*
G01*
X128738294Y-37664989D01*
X128749500Y-37716500D01*
X128749500Y-64137500D01*
X128729815Y-64204539D01*
X128677011Y-64250294D01*
X128625500Y-64261500D01*
X102132760Y-64261500D01*
X102132554Y-64261459D01*
X102107998Y-64261459D01*
X102107807Y-64261538D01*
X102107619Y-64261615D01*
X102107615Y-64261618D01*
X102107459Y-64261999D01*
X102107476Y-64286616D01*
X102107471Y-64286616D01*
X102107500Y-64286759D01*
X102107500Y-77953467D01*
X102107416Y-77953889D01*
X102107459Y-77978000D01*
X102107500Y-77978099D01*
X102107617Y-77978383D01*
X102107618Y-77978384D01*
X102107808Y-77978462D01*
X102108000Y-77978541D01*
X102108002Y-77978539D01*
X102132616Y-77978524D01*
X102132616Y-77978528D01*
X102132760Y-77978500D01*
X123827500Y-77978500D01*
X123894539Y-77998185D01*
X123940294Y-78050989D01*
X123951500Y-78102500D01*
X123951500Y-107467500D01*
X123931815Y-107534539D01*
X123879011Y-107580294D01*
X123827500Y-107591500D01*
X72260500Y-107591500D01*
X72193461Y-107571815D01*
X72147706Y-107519011D01*
X72136500Y-107467500D01*
X72136500Y-102659763D01*
X75281787Y-102659763D01*
X75311413Y-102929013D01*
X75311415Y-102929024D01*
X75379926Y-103191082D01*
X75379928Y-103191088D01*
X75485870Y-103440390D01*
X75626979Y-103671605D01*
X75626986Y-103671615D01*
X75800253Y-103879819D01*
X75800259Y-103879824D01*
X75952950Y-104016635D01*
X76001998Y-104060582D01*
X76227910Y-104210044D01*
X76473176Y-104325020D01*
X76473183Y-104325022D01*
X76473185Y-104325023D01*
X76732557Y-104403057D01*
X76732564Y-104403058D01*
X76732569Y-104403060D01*
X77000561Y-104442500D01*
X77000566Y-104442500D01*
X77203629Y-104442500D01*
X77203631Y-104442500D01*
X77203636Y-104442499D01*
X77203648Y-104442499D01*
X77241191Y-104439750D01*
X77406156Y-104427677D01*
X77518758Y-104402593D01*
X77670546Y-104368782D01*
X77670548Y-104368781D01*
X77670553Y-104368780D01*
X77923558Y-104272014D01*
X78159777Y-104139441D01*
X78374177Y-103973888D01*
X78562186Y-103778881D01*
X78719799Y-103558579D01*
X78835436Y-103333664D01*
X78843649Y-103317690D01*
X78843651Y-103317684D01*
X78843656Y-103317675D01*
X78931118Y-103061305D01*
X78980319Y-102794933D01*
X78990212Y-102524235D01*
X78960586Y-102254982D01*
X78892072Y-101992912D01*
X78786130Y-101743610D01*
X78645018Y-101512390D01*
X78555747Y-101405119D01*
X78471746Y-101304180D01*
X78471740Y-101304175D01*
X78270002Y-101123418D01*
X78044092Y-100973957D01*
X78044090Y-100973956D01*
X77798824Y-100858980D01*
X77798819Y-100858978D01*
X77798814Y-100858976D01*
X77539442Y-100780942D01*
X77539428Y-100780939D01*
X77423791Y-100763921D01*
X77271439Y-100741500D01*
X77068369Y-100741500D01*
X77068351Y-100741500D01*
X76865844Y-100756323D01*
X76865831Y-100756325D01*
X76601453Y-100815217D01*
X76601446Y-100815220D01*
X76348439Y-100911987D01*
X76112226Y-101044557D01*
X76112224Y-101044558D01*
X76112223Y-101044559D01*
X76066565Y-101079815D01*
X75897822Y-101210112D01*
X75709822Y-101405109D01*
X75709816Y-101405116D01*
X75552202Y-101625419D01*
X75552199Y-101625424D01*
X75428350Y-101866309D01*
X75428343Y-101866327D01*
X75340884Y-102122685D01*
X75340881Y-102122699D01*
X75291681Y-102389068D01*
X75291680Y-102389075D01*
X75281787Y-102659763D01*
X72136500Y-102659763D01*
X72136500Y-96520000D01*
X80012620Y-96520000D01*
X80032091Y-96717699D01*
X80089760Y-96907808D01*
X80183401Y-97082998D01*
X80183405Y-97083005D01*
X80309431Y-97236568D01*
X80462994Y-97362594D01*
X80463001Y-97362598D01*
X80638191Y-97456239D01*
X80638193Y-97456239D01*
X80638196Y-97456241D01*
X80828299Y-97513908D01*
X80828298Y-97513908D01*
X80846024Y-97515653D01*
X81026000Y-97533380D01*
X81223701Y-97513908D01*
X81413804Y-97456241D01*
X81589004Y-97362595D01*
X81633176Y-97326344D01*
X81662051Y-97302647D01*
X81726361Y-97275334D01*
X81740716Y-97274500D01*
X84121284Y-97274500D01*
X84188323Y-97294185D01*
X84199949Y-97302647D01*
X84272994Y-97362594D01*
X84273001Y-97362598D01*
X84448191Y-97456239D01*
X84448193Y-97456239D01*
X84448196Y-97456241D01*
X84638299Y-97513908D01*
X84638298Y-97513908D01*
X84656024Y-97515653D01*
X84836000Y-97533380D01*
X85033701Y-97513908D01*
X85223804Y-97456241D01*
X85399004Y-97362595D01*
X85552568Y-97236568D01*
X85678595Y-97083004D01*
X85772241Y-96907804D01*
X85829908Y-96717701D01*
X85849380Y-96520000D01*
X85829908Y-96322299D01*
X85772241Y-96132196D01*
X85772239Y-96132193D01*
X85772239Y-96132191D01*
X85678598Y-95957001D01*
X85678594Y-95956994D01*
X85552568Y-95803431D01*
X85399005Y-95677405D01*
X85398998Y-95677401D01*
X85223808Y-95583760D01*
X85128752Y-95554925D01*
X85033701Y-95526092D01*
X85033699Y-95526091D01*
X85033701Y-95526091D01*
X84836000Y-95506620D01*
X84638300Y-95526091D01*
X84448191Y-95583760D01*
X84273001Y-95677401D01*
X84272994Y-95677405D01*
X84199949Y-95737353D01*
X84135639Y-95764666D01*
X84121284Y-95765500D01*
X81740716Y-95765500D01*
X81673677Y-95745815D01*
X81662051Y-95737353D01*
X81589005Y-95677405D01*
X81588998Y-95677401D01*
X81413808Y-95583760D01*
X81318752Y-95554925D01*
X81223701Y-95526092D01*
X81223699Y-95526091D01*
X81223701Y-95526091D01*
X81026000Y-95506620D01*
X80828300Y-95526091D01*
X80638191Y-95583760D01*
X80463001Y-95677401D01*
X80462994Y-95677405D01*
X80309431Y-95803431D01*
X80183405Y-95956994D01*
X80183401Y-95957001D01*
X80089760Y-96132191D01*
X80032091Y-96322300D01*
X80012620Y-96520000D01*
X72136500Y-96520000D01*
X72136500Y-67056000D01*
X79758620Y-67056000D01*
X79778091Y-67253699D01*
X79835760Y-67443808D01*
X79929401Y-67618998D01*
X79929402Y-67618999D01*
X79929405Y-67619004D01*
X79989353Y-67692051D01*
X80016666Y-67756359D01*
X80017500Y-67770715D01*
X80017500Y-88926474D01*
X80016191Y-88944443D01*
X80012684Y-88968382D01*
X80017028Y-89018019D01*
X80017500Y-89028828D01*
X80017500Y-89034420D01*
X80021116Y-89065359D01*
X80021482Y-89068944D01*
X80028056Y-89144084D01*
X80029516Y-89151151D01*
X80029464Y-89151161D01*
X80031123Y-89158641D01*
X80031174Y-89158629D01*
X80032840Y-89165659D01*
X80058621Y-89236494D01*
X80059804Y-89239897D01*
X80083533Y-89311503D01*
X80086586Y-89318049D01*
X80086536Y-89318072D01*
X80089876Y-89324971D01*
X80089925Y-89324947D01*
X80093167Y-89331404D01*
X80134613Y-89394420D01*
X80136550Y-89397460D01*
X80176131Y-89461630D01*
X80180611Y-89467296D01*
X80180569Y-89467329D01*
X80185401Y-89473260D01*
X80185443Y-89473226D01*
X80190088Y-89478762D01*
X80244938Y-89530510D01*
X80247525Y-89533023D01*
X94580760Y-103866258D01*
X94592542Y-103879891D01*
X94606987Y-103899294D01*
X94645160Y-103931325D01*
X94653135Y-103938633D01*
X94657083Y-103942581D01*
X94657091Y-103942588D01*
X94681534Y-103961917D01*
X94684326Y-103964191D01*
X94742095Y-104012664D01*
X94742099Y-104012667D01*
X94742101Y-104012668D01*
X94748133Y-104016635D01*
X94748102Y-104016680D01*
X94754564Y-104020797D01*
X94754593Y-104020751D01*
X94760729Y-104024536D01*
X94760731Y-104024537D01*
X94760734Y-104024539D01*
X94829123Y-104056429D01*
X94832305Y-104057969D01*
X94899715Y-104091824D01*
X94899720Y-104091825D01*
X94906505Y-104094295D01*
X94906486Y-104094347D01*
X94913714Y-104096859D01*
X94913732Y-104096808D01*
X94920582Y-104099078D01*
X94920585Y-104099078D01*
X94920586Y-104099079D01*
X94994519Y-104114344D01*
X94997880Y-104115089D01*
X95071338Y-104132500D01*
X95071344Y-104132500D01*
X95078511Y-104133338D01*
X95078504Y-104133391D01*
X95086121Y-104134169D01*
X95086126Y-104134116D01*
X95093315Y-104134745D01*
X95093318Y-104134744D01*
X95093319Y-104134745D01*
X95152593Y-104133020D01*
X95168687Y-104132552D01*
X95172293Y-104132500D01*
X106981284Y-104132500D01*
X107048323Y-104152185D01*
X107059949Y-104160647D01*
X107132994Y-104220594D01*
X107133001Y-104220598D01*
X107308191Y-104314239D01*
X107308193Y-104314239D01*
X107308196Y-104314241D01*
X107498299Y-104371908D01*
X107498298Y-104371908D01*
X107516024Y-104373653D01*
X107696000Y-104391380D01*
X107893701Y-104371908D01*
X108083804Y-104314241D01*
X108259004Y-104220595D01*
X108412568Y-104094568D01*
X108538595Y-103941004D01*
X108594782Y-103835884D01*
X108632239Y-103765808D01*
X108632239Y-103765807D01*
X108632241Y-103765804D01*
X108689908Y-103575701D01*
X108709380Y-103378000D01*
X108689908Y-103180299D01*
X108632241Y-102990196D01*
X108632239Y-102990193D01*
X108632239Y-102990191D01*
X108538598Y-102815001D01*
X108538594Y-102814994D01*
X108412568Y-102661431D01*
X108259005Y-102535405D01*
X108258998Y-102535401D01*
X108083808Y-102441760D01*
X107967026Y-102406335D01*
X107893701Y-102384092D01*
X107893699Y-102384091D01*
X107893701Y-102384091D01*
X107696000Y-102364620D01*
X107498300Y-102384091D01*
X107308191Y-102441760D01*
X107133001Y-102535401D01*
X107132994Y-102535405D01*
X107059949Y-102595353D01*
X106995639Y-102622666D01*
X106981284Y-102623500D01*
X95523412Y-102623500D01*
X95456373Y-102603815D01*
X95435731Y-102587181D01*
X85488133Y-92639583D01*
X85454648Y-92578260D01*
X85459632Y-92508568D01*
X85497149Y-92456049D01*
X85552568Y-92410568D01*
X85678595Y-92257004D01*
X85772241Y-92081804D01*
X85829908Y-91891701D01*
X85839170Y-91797657D01*
X85865330Y-91732870D01*
X85874883Y-91722139D01*
X90150264Y-87446758D01*
X90163883Y-87434988D01*
X90183294Y-87420539D01*
X90215334Y-87382354D01*
X90222623Y-87374399D01*
X90226583Y-87370441D01*
X90245927Y-87345974D01*
X90248161Y-87343232D01*
X90296667Y-87285427D01*
X90296671Y-87285418D01*
X90300637Y-87279390D01*
X90300683Y-87279420D01*
X90304795Y-87272965D01*
X90304748Y-87272936D01*
X90308532Y-87266799D01*
X90308539Y-87266791D01*
X90340417Y-87198428D01*
X90341972Y-87195214D01*
X90375824Y-87127811D01*
X90375826Y-87127798D01*
X90378293Y-87121024D01*
X90378346Y-87121043D01*
X90380858Y-87113815D01*
X90380807Y-87113798D01*
X90383077Y-87106945D01*
X90383077Y-87106943D01*
X90383079Y-87106940D01*
X90398345Y-87033001D01*
X90399097Y-87029610D01*
X90416500Y-86956188D01*
X90416500Y-86956181D01*
X90417338Y-86949015D01*
X90417392Y-86949021D01*
X90418170Y-86941405D01*
X90418117Y-86941401D01*
X90418746Y-86934210D01*
X90416552Y-86858804D01*
X90416500Y-86855198D01*
X90416500Y-75365127D01*
X90436185Y-75298088D01*
X90488989Y-75252333D01*
X90558147Y-75242389D01*
X90621703Y-75271414D01*
X90636352Y-75286461D01*
X90657352Y-75312049D01*
X90684666Y-75376359D01*
X90685500Y-75390715D01*
X90685500Y-93408000D01*
X90684191Y-93425969D01*
X90680684Y-93449908D01*
X90685028Y-93499545D01*
X90685500Y-93510354D01*
X90685500Y-93515946D01*
X90689116Y-93546885D01*
X90689482Y-93550470D01*
X90696056Y-93625610D01*
X90697516Y-93632677D01*
X90697464Y-93632687D01*
X90699123Y-93640167D01*
X90699174Y-93640155D01*
X90700840Y-93647185D01*
X90726621Y-93718020D01*
X90727804Y-93721423D01*
X90751533Y-93793029D01*
X90754586Y-93799575D01*
X90754536Y-93799598D01*
X90757876Y-93806497D01*
X90757925Y-93806473D01*
X90761167Y-93812930D01*
X90802613Y-93875946D01*
X90804550Y-93878986D01*
X90844131Y-93943156D01*
X90848611Y-93948822D01*
X90848569Y-93948855D01*
X90853401Y-93954786D01*
X90853443Y-93954752D01*
X90858088Y-93960288D01*
X90912938Y-94012036D01*
X90915525Y-94014549D01*
X94465106Y-97564130D01*
X94498591Y-97625453D01*
X94500828Y-97639655D01*
X94510091Y-97733699D01*
X94567760Y-97923808D01*
X94661401Y-98098998D01*
X94661405Y-98099005D01*
X94787431Y-98252568D01*
X94940994Y-98378594D01*
X94941001Y-98378598D01*
X95116191Y-98472239D01*
X95116193Y-98472239D01*
X95116196Y-98472241D01*
X95306299Y-98529908D01*
X95306298Y-98529908D01*
X95324024Y-98531653D01*
X95504000Y-98549380D01*
X95701701Y-98529908D01*
X95891804Y-98472241D01*
X95900057Y-98467830D01*
X96066998Y-98378598D01*
X96067004Y-98378595D01*
X96220568Y-98252568D01*
X96346595Y-98099004D01*
X96440241Y-97923804D01*
X96497908Y-97733701D01*
X96517380Y-97536000D01*
X96497908Y-97338299D01*
X96440241Y-97148196D01*
X96440239Y-97148193D01*
X96440239Y-97148191D01*
X96346598Y-96973001D01*
X96346594Y-96972994D01*
X96220568Y-96819431D01*
X96067005Y-96693405D01*
X96066998Y-96693401D01*
X95891808Y-96599760D01*
X95701699Y-96542091D01*
X95607655Y-96532828D01*
X95542868Y-96506666D01*
X95532130Y-96497106D01*
X92230819Y-93195795D01*
X92197334Y-93134472D01*
X92194500Y-93108114D01*
X92194500Y-88480886D01*
X92214185Y-88413847D01*
X92266989Y-88368092D01*
X92336147Y-88358148D01*
X92399703Y-88387173D01*
X92406181Y-88393205D01*
X94211106Y-90198130D01*
X94244591Y-90259453D01*
X94246828Y-90273655D01*
X94256091Y-90367699D01*
X94313760Y-90557808D01*
X94407401Y-90732998D01*
X94407405Y-90733005D01*
X94533431Y-90886568D01*
X94686994Y-91012594D01*
X94687001Y-91012598D01*
X94862191Y-91106239D01*
X94862193Y-91106239D01*
X94862196Y-91106241D01*
X95052299Y-91163908D01*
X95052298Y-91163908D01*
X95070024Y-91165653D01*
X95250000Y-91183380D01*
X95447701Y-91163908D01*
X95637804Y-91106241D01*
X95813004Y-91012595D01*
X95966568Y-90886568D01*
X96092595Y-90733004D01*
X96186241Y-90557804D01*
X96243908Y-90367701D01*
X96256116Y-90243750D01*
X96282277Y-90178964D01*
X96339311Y-90138605D01*
X96409111Y-90135488D01*
X96467200Y-90168224D01*
X108641234Y-102342258D01*
X108653015Y-102355890D01*
X108667461Y-102375294D01*
X108705638Y-102407328D01*
X108713614Y-102414638D01*
X108717554Y-102418579D01*
X108742010Y-102437916D01*
X108744807Y-102440195D01*
X108802572Y-102488667D01*
X108808609Y-102492637D01*
X108808579Y-102492682D01*
X108815038Y-102496796D01*
X108815067Y-102496750D01*
X108821207Y-102500537D01*
X108821209Y-102500539D01*
X108889557Y-102532410D01*
X108892775Y-102533968D01*
X108951975Y-102563699D01*
X108960189Y-102567824D01*
X108960191Y-102567824D01*
X108966979Y-102570295D01*
X108966960Y-102570347D01*
X108974185Y-102572858D01*
X108974203Y-102572807D01*
X108981055Y-102575077D01*
X108981056Y-102575077D01*
X108981060Y-102575079D01*
X109055003Y-102590346D01*
X109058410Y-102591102D01*
X109131812Y-102608500D01*
X109131815Y-102608500D01*
X109138986Y-102609339D01*
X109138979Y-102609392D01*
X109146594Y-102610170D01*
X109146599Y-102610117D01*
X109153789Y-102610746D01*
X109153793Y-102610745D01*
X109153794Y-102610746D01*
X109215827Y-102608940D01*
X109229196Y-102608552D01*
X109232802Y-102608500D01*
X114601284Y-102608500D01*
X114668323Y-102628185D01*
X114679949Y-102636647D01*
X114752994Y-102696594D01*
X114753001Y-102696598D01*
X114928191Y-102790239D01*
X114928193Y-102790239D01*
X114928196Y-102790241D01*
X115118299Y-102847908D01*
X115118298Y-102847908D01*
X115136024Y-102849653D01*
X115316000Y-102867380D01*
X115513701Y-102847908D01*
X115703804Y-102790241D01*
X115879004Y-102696595D01*
X116032568Y-102570568D01*
X116158595Y-102417004D01*
X116252241Y-102241804D01*
X116309908Y-102051701D01*
X116329380Y-101854000D01*
X116309908Y-101656299D01*
X116252241Y-101466196D01*
X116252239Y-101466193D01*
X116252239Y-101466191D01*
X116158598Y-101291001D01*
X116158594Y-101290994D01*
X116032568Y-101137431D01*
X115879005Y-101011405D01*
X115878998Y-101011401D01*
X115703808Y-100917760D01*
X115608752Y-100888925D01*
X115513701Y-100860092D01*
X115513699Y-100860091D01*
X115513701Y-100860091D01*
X115316000Y-100840620D01*
X115118300Y-100860091D01*
X114928191Y-100917760D01*
X114753001Y-101011401D01*
X114752994Y-101011405D01*
X114679949Y-101071353D01*
X114615639Y-101098666D01*
X114601284Y-101099500D01*
X109583887Y-101099500D01*
X109516848Y-101079815D01*
X109496206Y-101063181D01*
X97050892Y-88617868D01*
X97017407Y-88556545D01*
X97015170Y-88542341D01*
X97009117Y-88480886D01*
X97005908Y-88448299D01*
X96948241Y-88258196D01*
X96948239Y-88258193D01*
X96948239Y-88258191D01*
X96854598Y-88083001D01*
X96854594Y-88082994D01*
X96728568Y-87929431D01*
X96575005Y-87803405D01*
X96574998Y-87803401D01*
X96399808Y-87709760D01*
X96304752Y-87680925D01*
X96209701Y-87652092D01*
X96209699Y-87652091D01*
X96209701Y-87652091D01*
X96012000Y-87632620D01*
X95814300Y-87652091D01*
X95624191Y-87709760D01*
X95449001Y-87803401D01*
X95448994Y-87803405D01*
X95295431Y-87929431D01*
X95169405Y-88082994D01*
X95169401Y-88083001D01*
X95075760Y-88258191D01*
X95018091Y-88448300D01*
X95005883Y-88572249D01*
X94979722Y-88637036D01*
X94922687Y-88677395D01*
X94852887Y-88680511D01*
X94794799Y-88647775D01*
X93554819Y-87407795D01*
X93521334Y-87346472D01*
X93518500Y-87320114D01*
X93518500Y-77866886D01*
X93538185Y-77799847D01*
X93590989Y-77754092D01*
X93660147Y-77744148D01*
X93723703Y-77773173D01*
X93730181Y-77779205D01*
X118514675Y-102563699D01*
X118548160Y-102625022D01*
X118550522Y-102662187D01*
X118532341Y-102869997D01*
X118532341Y-102870000D01*
X118552936Y-103105403D01*
X118552938Y-103105413D01*
X118614094Y-103333655D01*
X118614096Y-103333659D01*
X118614097Y-103333663D01*
X118663865Y-103440390D01*
X118713965Y-103547830D01*
X118713967Y-103547834D01*
X118800633Y-103671605D01*
X118849505Y-103741401D01*
X119016599Y-103908495D01*
X119096141Y-103964191D01*
X119210165Y-104044032D01*
X119210167Y-104044033D01*
X119210170Y-104044035D01*
X119424337Y-104143903D01*
X119652592Y-104205063D01*
X119830108Y-104220594D01*
X119887999Y-104225659D01*
X119888000Y-104225659D01*
X119888001Y-104225659D01*
X119945880Y-104220595D01*
X120123408Y-104205063D01*
X120351663Y-104143903D01*
X120565830Y-104044035D01*
X120759401Y-103908495D01*
X120926495Y-103741401D01*
X121062035Y-103547830D01*
X121161903Y-103333663D01*
X121223063Y-103105408D01*
X121243659Y-102870000D01*
X121223063Y-102634592D01*
X121170662Y-102439027D01*
X121161905Y-102406344D01*
X121161904Y-102406343D01*
X121161903Y-102406337D01*
X121062035Y-102192171D01*
X121013391Y-102122699D01*
X120926494Y-101998597D01*
X120759402Y-101831506D01*
X120759396Y-101831501D01*
X120573842Y-101701575D01*
X120530217Y-101646998D01*
X120523023Y-101577500D01*
X120554546Y-101515145D01*
X120573842Y-101498425D01*
X120619877Y-101466191D01*
X120759401Y-101368495D01*
X120926495Y-101201401D01*
X121062035Y-101007830D01*
X121161903Y-100793663D01*
X121223063Y-100565408D01*
X121243659Y-100330000D01*
X121223063Y-100094592D01*
X121161903Y-99866337D01*
X121062035Y-99652171D01*
X120941273Y-99479703D01*
X120926494Y-99458597D01*
X120759402Y-99291506D01*
X120759396Y-99291501D01*
X120573842Y-99161575D01*
X120530217Y-99106998D01*
X120523023Y-99037500D01*
X120554546Y-98975145D01*
X120573842Y-98958425D01*
X120596026Y-98942891D01*
X120759401Y-98828495D01*
X120926495Y-98661401D01*
X121062035Y-98467830D01*
X121161903Y-98253663D01*
X121223063Y-98025408D01*
X121243659Y-97790000D01*
X121223063Y-97554592D01*
X121171618Y-97362594D01*
X121161905Y-97326344D01*
X121161904Y-97326343D01*
X121161903Y-97326337D01*
X121062035Y-97112171D01*
X121041613Y-97083004D01*
X120926494Y-96918597D01*
X120759402Y-96751506D01*
X120759396Y-96751501D01*
X120573842Y-96621575D01*
X120530217Y-96566998D01*
X120523023Y-96497500D01*
X120554546Y-96435145D01*
X120573842Y-96418425D01*
X120596026Y-96402891D01*
X120759401Y-96288495D01*
X120926495Y-96121401D01*
X121062035Y-95927830D01*
X121161903Y-95713663D01*
X121223063Y-95485408D01*
X121243659Y-95250000D01*
X121223063Y-95014592D01*
X121161903Y-94786337D01*
X121062035Y-94572171D01*
X120962120Y-94429476D01*
X120926494Y-94378597D01*
X120759402Y-94211506D01*
X120759396Y-94211501D01*
X120573842Y-94081575D01*
X120530217Y-94026998D01*
X120523023Y-93957500D01*
X120554546Y-93895145D01*
X120573842Y-93878425D01*
X120667387Y-93812924D01*
X120759401Y-93748495D01*
X120926495Y-93581401D01*
X121062035Y-93387830D01*
X121161903Y-93173663D01*
X121223063Y-92945408D01*
X121243659Y-92710000D01*
X121223063Y-92474592D01*
X121176626Y-92301285D01*
X121161905Y-92246344D01*
X121161904Y-92246343D01*
X121161903Y-92246337D01*
X121062035Y-92032171D01*
X120963677Y-91891701D01*
X120926496Y-91838600D01*
X120885554Y-91797658D01*
X120804179Y-91716283D01*
X120770696Y-91654963D01*
X120775680Y-91585271D01*
X120817551Y-91529337D01*
X120848529Y-91512422D01*
X120980086Y-91463354D01*
X120980093Y-91463350D01*
X121095187Y-91377190D01*
X121095190Y-91377187D01*
X121181350Y-91262093D01*
X121181354Y-91262086D01*
X121231596Y-91127379D01*
X121231598Y-91127372D01*
X121237999Y-91067844D01*
X121238000Y-91067827D01*
X121238000Y-90420000D01*
X120321686Y-90420000D01*
X120347493Y-90379844D01*
X120388000Y-90241889D01*
X120388000Y-90098111D01*
X120347493Y-89960156D01*
X120321686Y-89920000D01*
X121238000Y-89920000D01*
X121238000Y-89272172D01*
X121237999Y-89272155D01*
X121231598Y-89212627D01*
X121231596Y-89212620D01*
X121181354Y-89077913D01*
X121181350Y-89077906D01*
X121095190Y-88962812D01*
X121095187Y-88962809D01*
X120980093Y-88876649D01*
X120980086Y-88876645D01*
X120845379Y-88826403D01*
X120845372Y-88826401D01*
X120785844Y-88820000D01*
X120138000Y-88820000D01*
X120138000Y-89734498D01*
X120030315Y-89685320D01*
X119923763Y-89670000D01*
X119852237Y-89670000D01*
X119745685Y-89685320D01*
X119638000Y-89734498D01*
X119638000Y-88820000D01*
X118990155Y-88820000D01*
X118930627Y-88826401D01*
X118930620Y-88826403D01*
X118795913Y-88876645D01*
X118795906Y-88876649D01*
X118680812Y-88962809D01*
X118680809Y-88962812D01*
X118594649Y-89077906D01*
X118594645Y-89077913D01*
X118544403Y-89212620D01*
X118544401Y-89212627D01*
X118538000Y-89272155D01*
X118538000Y-89920000D01*
X119454314Y-89920000D01*
X119428507Y-89960156D01*
X119388000Y-90098111D01*
X119388000Y-90241889D01*
X119428507Y-90379844D01*
X119454314Y-90420000D01*
X118538000Y-90420000D01*
X118538000Y-91067844D01*
X118544401Y-91127372D01*
X118544403Y-91127379D01*
X118594645Y-91262086D01*
X118594649Y-91262093D01*
X118680809Y-91377187D01*
X118680812Y-91377190D01*
X118795906Y-91463350D01*
X118795913Y-91463354D01*
X118927470Y-91512421D01*
X118983403Y-91554292D01*
X119007821Y-91619756D01*
X118992970Y-91688029D01*
X118971819Y-91716284D01*
X118849503Y-91838601D01*
X118804674Y-91902624D01*
X118750096Y-91946249D01*
X118703099Y-91955500D01*
X116949886Y-91955500D01*
X116882847Y-91935815D01*
X116862205Y-91919181D01*
X113862766Y-88919742D01*
X113850984Y-88906109D01*
X113847604Y-88901569D01*
X113836539Y-88886706D01*
X113836537Y-88886704D01*
X113836538Y-88886704D01*
X113798367Y-88854676D01*
X113790384Y-88847360D01*
X113786444Y-88843419D01*
X113761987Y-88824081D01*
X113759191Y-88821803D01*
X113701427Y-88773333D01*
X113695394Y-88769365D01*
X113695422Y-88769321D01*
X113688961Y-88765204D01*
X113688934Y-88765250D01*
X113682790Y-88761460D01*
X113614442Y-88729589D01*
X113611196Y-88728017D01*
X113543815Y-88694177D01*
X113537031Y-88691708D01*
X113537049Y-88691658D01*
X113529807Y-88689141D01*
X113529791Y-88689191D01*
X113522938Y-88686920D01*
X113449088Y-88671671D01*
X113445567Y-88670891D01*
X113372181Y-88653498D01*
X113365014Y-88652661D01*
X113365020Y-88652607D01*
X113357405Y-88651829D01*
X113357401Y-88651883D01*
X113350210Y-88651253D01*
X113274804Y-88653448D01*
X113271198Y-88653500D01*
X107805887Y-88653500D01*
X107738848Y-88633815D01*
X107718206Y-88617181D01*
X101760788Y-82659763D01*
X117281787Y-82659763D01*
X117311413Y-82929013D01*
X117311415Y-82929024D01*
X117379926Y-83191082D01*
X117379928Y-83191088D01*
X117485870Y-83440390D01*
X117557998Y-83558575D01*
X117626979Y-83671605D01*
X117626986Y-83671615D01*
X117800253Y-83879819D01*
X117800259Y-83879824D01*
X118001998Y-84060582D01*
X118227910Y-84210044D01*
X118473176Y-84325020D01*
X118473183Y-84325022D01*
X118473185Y-84325023D01*
X118732557Y-84403057D01*
X118732564Y-84403058D01*
X118732569Y-84403060D01*
X119000561Y-84442500D01*
X119000566Y-84442500D01*
X119203629Y-84442500D01*
X119203631Y-84442500D01*
X119203636Y-84442499D01*
X119203648Y-84442499D01*
X119241191Y-84439750D01*
X119406156Y-84427677D01*
X119518758Y-84402593D01*
X119670546Y-84368782D01*
X119670548Y-84368781D01*
X119670553Y-84368780D01*
X119923558Y-84272014D01*
X120159777Y-84139441D01*
X120374177Y-83973888D01*
X120562186Y-83778881D01*
X120719799Y-83558579D01*
X120793787Y-83414669D01*
X120843649Y-83317690D01*
X120843651Y-83317684D01*
X120843656Y-83317675D01*
X120931118Y-83061305D01*
X120980319Y-82794933D01*
X120990212Y-82524235D01*
X120960586Y-82254982D01*
X120892072Y-81992912D01*
X120786130Y-81743610D01*
X120645018Y-81512390D01*
X120555747Y-81405119D01*
X120471746Y-81304180D01*
X120471740Y-81304175D01*
X120270002Y-81123418D01*
X120044092Y-80973957D01*
X120044090Y-80973956D01*
X119798824Y-80858980D01*
X119798819Y-80858978D01*
X119798814Y-80858976D01*
X119539442Y-80780942D01*
X119539428Y-80780939D01*
X119423791Y-80763921D01*
X119271439Y-80741500D01*
X119068369Y-80741500D01*
X119068351Y-80741500D01*
X118865844Y-80756323D01*
X118865831Y-80756325D01*
X118601453Y-80815217D01*
X118601446Y-80815220D01*
X118348439Y-80911987D01*
X118112226Y-81044557D01*
X117897822Y-81210112D01*
X117709822Y-81405109D01*
X117709816Y-81405116D01*
X117552202Y-81625419D01*
X117552199Y-81625424D01*
X117428350Y-81866309D01*
X117428343Y-81866327D01*
X117340884Y-82122685D01*
X117340881Y-82122699D01*
X117291681Y-82389068D01*
X117291680Y-82389075D01*
X117281787Y-82659763D01*
X101760788Y-82659763D01*
X95024819Y-75923794D01*
X94991334Y-75862471D01*
X94988500Y-75836113D01*
X94988500Y-72390000D01*
X96688341Y-72390000D01*
X96708936Y-72625403D01*
X96708938Y-72625413D01*
X96770094Y-72853655D01*
X96770096Y-72853659D01*
X96770097Y-72853663D01*
X96869965Y-73067830D01*
X96869967Y-73067834D01*
X97005501Y-73261395D01*
X97005506Y-73261402D01*
X97172597Y-73428493D01*
X97172603Y-73428498D01*
X97358594Y-73558730D01*
X97402219Y-73613307D01*
X97409413Y-73682805D01*
X97377890Y-73745160D01*
X97358595Y-73761880D01*
X97172922Y-73891890D01*
X97172920Y-73891891D01*
X97005891Y-74058920D01*
X97005886Y-74058926D01*
X96870400Y-74252420D01*
X96870399Y-74252422D01*
X96770570Y-74466507D01*
X96770567Y-74466513D01*
X96713364Y-74679999D01*
X96713364Y-74680000D01*
X97610314Y-74680000D01*
X97584507Y-74720156D01*
X97544000Y-74858111D01*
X97544000Y-75001889D01*
X97584507Y-75139844D01*
X97610314Y-75180000D01*
X96713364Y-75180000D01*
X96770567Y-75393486D01*
X96770570Y-75393492D01*
X96870399Y-75607578D01*
X97005894Y-75801082D01*
X97172917Y-75968105D01*
X97366421Y-76103600D01*
X97580507Y-76203429D01*
X97580516Y-76203433D01*
X97794000Y-76260634D01*
X97794000Y-75365501D01*
X97901685Y-75414680D01*
X98008237Y-75430000D01*
X98079763Y-75430000D01*
X98186315Y-75414680D01*
X98294000Y-75365501D01*
X98294000Y-76260633D01*
X98507483Y-76203433D01*
X98507492Y-76203429D01*
X98721578Y-76103600D01*
X98915082Y-75968105D01*
X99082105Y-75801082D01*
X99217600Y-75607578D01*
X99317429Y-75393492D01*
X99317432Y-75393486D01*
X99374636Y-75180000D01*
X98477686Y-75180000D01*
X98503493Y-75139844D01*
X98544000Y-75001889D01*
X98544000Y-74858111D01*
X98503493Y-74720156D01*
X98477686Y-74680000D01*
X99374636Y-74680000D01*
X99374635Y-74679999D01*
X99317432Y-74466513D01*
X99317429Y-74466507D01*
X99217600Y-74252422D01*
X99217599Y-74252420D01*
X99082113Y-74058926D01*
X99082108Y-74058920D01*
X98915078Y-73891890D01*
X98729405Y-73761879D01*
X98685780Y-73707302D01*
X98678588Y-73637804D01*
X98710110Y-73575449D01*
X98729406Y-73558730D01*
X98915401Y-73428495D01*
X99082495Y-73261401D01*
X99218035Y-73067830D01*
X99317903Y-72853663D01*
X99379063Y-72625408D01*
X99399659Y-72390000D01*
X99379063Y-72154592D01*
X99317903Y-71926337D01*
X99218035Y-71712171D01*
X99197613Y-71683004D01*
X99082494Y-71518597D01*
X98915402Y-71351506D01*
X98915396Y-71351501D01*
X98729842Y-71221575D01*
X98686217Y-71166998D01*
X98679023Y-71097500D01*
X98710546Y-71035145D01*
X98729842Y-71018425D01*
X98752026Y-71002891D01*
X98915401Y-70888495D01*
X99082495Y-70721401D01*
X99218035Y-70527830D01*
X99317903Y-70313663D01*
X99379063Y-70085408D01*
X99399659Y-69850000D01*
X99379063Y-69614592D01*
X99317903Y-69386337D01*
X99218035Y-69172171D01*
X99082495Y-68978599D01*
X98960567Y-68856671D01*
X98927084Y-68795351D01*
X98932068Y-68725659D01*
X98973939Y-68669725D01*
X99004915Y-68652810D01*
X99136331Y-68603796D01*
X99251546Y-68517546D01*
X99337796Y-68402331D01*
X99388091Y-68267483D01*
X99394500Y-68207873D01*
X99394499Y-66412128D01*
X99388091Y-66352517D01*
X99383210Y-66339431D01*
X99337797Y-66217671D01*
X99337793Y-66217664D01*
X99251547Y-66102455D01*
X99251544Y-66102452D01*
X99136335Y-66016206D01*
X99136328Y-66016202D01*
X99001482Y-65965908D01*
X99001483Y-65965908D01*
X98941883Y-65959501D01*
X98941881Y-65959500D01*
X98941873Y-65959500D01*
X98941864Y-65959500D01*
X97146129Y-65959500D01*
X97146123Y-65959501D01*
X97086516Y-65965908D01*
X96951671Y-66016202D01*
X96951664Y-66016206D01*
X96836455Y-66102452D01*
X96836452Y-66102455D01*
X96750206Y-66217664D01*
X96750202Y-66217671D01*
X96699908Y-66352517D01*
X96693501Y-66412116D01*
X96693501Y-66412123D01*
X96693500Y-66412135D01*
X96693500Y-68207870D01*
X96693501Y-68207876D01*
X96699908Y-68267483D01*
X96750202Y-68402328D01*
X96750206Y-68402335D01*
X96836452Y-68517544D01*
X96836455Y-68517547D01*
X96951664Y-68603793D01*
X96951671Y-68603797D01*
X97083081Y-68652810D01*
X97139015Y-68694681D01*
X97163432Y-68760145D01*
X97148580Y-68828418D01*
X97127430Y-68856673D01*
X97005503Y-68978600D01*
X96869965Y-69172169D01*
X96869964Y-69172171D01*
X96770098Y-69386335D01*
X96770094Y-69386344D01*
X96708938Y-69614586D01*
X96708936Y-69614596D01*
X96688341Y-69849999D01*
X96688341Y-69850000D01*
X96708936Y-70085403D01*
X96708938Y-70085413D01*
X96770094Y-70313655D01*
X96770096Y-70313659D01*
X96770097Y-70313663D01*
X96811957Y-70403431D01*
X96869965Y-70527830D01*
X96869967Y-70527834D01*
X97005501Y-70721395D01*
X97005506Y-70721402D01*
X97172597Y-70888493D01*
X97172603Y-70888498D01*
X97358158Y-71018425D01*
X97401783Y-71073002D01*
X97408977Y-71142500D01*
X97377454Y-71204855D01*
X97358158Y-71221575D01*
X97172597Y-71351505D01*
X97005505Y-71518597D01*
X96869965Y-71712169D01*
X96869964Y-71712171D01*
X96770098Y-71926335D01*
X96770094Y-71926344D01*
X96708938Y-72154586D01*
X96708936Y-72154596D01*
X96688341Y-72389999D01*
X96688341Y-72390000D01*
X94988500Y-72390000D01*
X94988500Y-64833992D01*
X94989809Y-64816022D01*
X94990194Y-64813388D01*
X94993314Y-64792093D01*
X94988972Y-64742463D01*
X94988500Y-64731655D01*
X94988500Y-64726066D01*
X94988499Y-64726050D01*
X94984877Y-64695063D01*
X94984515Y-64691524D01*
X94977942Y-64616388D01*
X94977940Y-64616383D01*
X94976482Y-64609318D01*
X94976535Y-64609306D01*
X94974878Y-64601830D01*
X94974825Y-64601843D01*
X94973160Y-64594820D01*
X94973160Y-64594816D01*
X94947357Y-64523922D01*
X94946181Y-64520538D01*
X94922464Y-64448964D01*
X94922460Y-64448957D01*
X94919410Y-64442416D01*
X94919460Y-64442392D01*
X94916128Y-64435509D01*
X94916079Y-64435534D01*
X94912835Y-64429075D01*
X94871376Y-64366038D01*
X94869469Y-64363046D01*
X94829870Y-64298846D01*
X94829867Y-64298843D01*
X94825392Y-64293183D01*
X94825434Y-64293149D01*
X94820597Y-64287211D01*
X94820556Y-64287246D01*
X94815912Y-64281712D01*
X94761061Y-64229963D01*
X94758473Y-64227449D01*
X91716892Y-61185868D01*
X91683407Y-61124545D01*
X91681170Y-61110341D01*
X91671908Y-61016300D01*
X91652071Y-60950905D01*
X91614241Y-60826196D01*
X91614239Y-60826193D01*
X91614239Y-60826191D01*
X91520598Y-60651001D01*
X91520594Y-60650994D01*
X91394568Y-60497431D01*
X91241005Y-60371405D01*
X91240998Y-60371401D01*
X91065808Y-60277760D01*
X90970752Y-60248925D01*
X90875701Y-60220092D01*
X90875699Y-60220091D01*
X90875701Y-60220091D01*
X90678000Y-60200620D01*
X90480300Y-60220091D01*
X90290191Y-60277760D01*
X90115001Y-60371401D01*
X90114994Y-60371405D01*
X89961431Y-60497431D01*
X89835405Y-60650994D01*
X89835403Y-60650997D01*
X89763956Y-60784666D01*
X89714994Y-60834510D01*
X89646856Y-60849970D01*
X89581176Y-60826138D01*
X89566917Y-60813893D01*
X87412787Y-58659763D01*
X120281787Y-58659763D01*
X120311413Y-58929013D01*
X120311415Y-58929024D01*
X120379926Y-59191082D01*
X120379928Y-59191088D01*
X120485870Y-59440390D01*
X120557998Y-59558575D01*
X120626979Y-59671605D01*
X120626986Y-59671615D01*
X120800253Y-59879819D01*
X120800259Y-59879824D01*
X121001998Y-60060582D01*
X121227910Y-60210044D01*
X121473176Y-60325020D01*
X121473183Y-60325022D01*
X121473185Y-60325023D01*
X121732557Y-60403057D01*
X121732564Y-60403058D01*
X121732569Y-60403060D01*
X122000561Y-60442500D01*
X122000566Y-60442500D01*
X122203629Y-60442500D01*
X122203631Y-60442500D01*
X122203636Y-60442499D01*
X122203648Y-60442499D01*
X122241191Y-60439750D01*
X122406156Y-60427677D01*
X122518758Y-60402593D01*
X122670546Y-60368782D01*
X122670548Y-60368781D01*
X122670553Y-60368780D01*
X122923558Y-60272014D01*
X123159777Y-60139441D01*
X123374177Y-59973888D01*
X123562186Y-59778881D01*
X123719799Y-59558579D01*
X123793787Y-59414669D01*
X123843649Y-59317690D01*
X123843651Y-59317684D01*
X123843656Y-59317675D01*
X123931118Y-59061305D01*
X123980319Y-58794933D01*
X123990212Y-58524235D01*
X123960586Y-58254982D01*
X123892072Y-57992912D01*
X123786130Y-57743610D01*
X123645018Y-57512390D01*
X123628808Y-57492911D01*
X123471746Y-57304180D01*
X123471740Y-57304175D01*
X123270002Y-57123418D01*
X123044092Y-56973957D01*
X123044090Y-56973956D01*
X122798824Y-56858980D01*
X122798819Y-56858978D01*
X122798814Y-56858976D01*
X122539442Y-56780942D01*
X122539428Y-56780939D01*
X122423791Y-56763921D01*
X122271439Y-56741500D01*
X122068369Y-56741500D01*
X122068351Y-56741500D01*
X121865844Y-56756323D01*
X121865831Y-56756325D01*
X121601453Y-56815217D01*
X121601446Y-56815220D01*
X121348439Y-56911987D01*
X121112226Y-57044557D01*
X120897822Y-57210112D01*
X120709822Y-57405109D01*
X120709816Y-57405116D01*
X120552202Y-57625419D01*
X120552199Y-57625424D01*
X120428350Y-57866309D01*
X120428343Y-57866327D01*
X120340884Y-58122685D01*
X120340881Y-58122699D01*
X120291681Y-58389068D01*
X120291680Y-58389075D01*
X120281787Y-58659763D01*
X87412787Y-58659763D01*
X86890892Y-58137868D01*
X86857407Y-58076545D01*
X86855170Y-58062341D01*
X86845908Y-57968300D01*
X86814975Y-57866327D01*
X86788241Y-57778196D01*
X86788239Y-57778193D01*
X86788239Y-57778191D01*
X86694598Y-57603001D01*
X86694593Y-57602993D01*
X86691453Y-57599167D01*
X86664138Y-57534858D01*
X86675928Y-57465990D01*
X86723078Y-57414429D01*
X86787304Y-57396500D01*
X97329284Y-57396500D01*
X97396323Y-57416185D01*
X97407949Y-57424647D01*
X97480994Y-57484594D01*
X97481001Y-57484598D01*
X97656191Y-57578239D01*
X97656193Y-57578239D01*
X97656196Y-57578241D01*
X97846299Y-57635908D01*
X97846298Y-57635908D01*
X97864024Y-57637653D01*
X98044000Y-57655380D01*
X98241701Y-57635908D01*
X98431804Y-57578241D01*
X98607004Y-57484595D01*
X98760568Y-57358568D01*
X98886595Y-57205004D01*
X98980241Y-57029804D01*
X99037908Y-56839701D01*
X99057380Y-56642000D01*
X99037908Y-56444299D01*
X98980241Y-56254196D01*
X98980239Y-56254193D01*
X98980239Y-56254191D01*
X98886598Y-56079001D01*
X98886594Y-56078994D01*
X98760568Y-55925431D01*
X98607005Y-55799405D01*
X98606998Y-55799401D01*
X98431808Y-55705760D01*
X98336752Y-55676925D01*
X98241701Y-55648092D01*
X98241699Y-55648091D01*
X98241701Y-55648091D01*
X98044000Y-55628620D01*
X97846300Y-55648091D01*
X97656191Y-55705760D01*
X97481001Y-55799401D01*
X97480994Y-55799405D01*
X97407949Y-55859353D01*
X97343639Y-55886666D01*
X97329284Y-55887500D01*
X85916000Y-55887500D01*
X85898031Y-55886191D01*
X85874091Y-55882684D01*
X85827330Y-55886776D01*
X85824451Y-55887028D01*
X85813645Y-55887500D01*
X85808051Y-55887500D01*
X85777113Y-55891116D01*
X85773529Y-55891482D01*
X85698387Y-55898056D01*
X85691321Y-55899516D01*
X85691310Y-55899464D01*
X85683832Y-55901122D01*
X85683845Y-55901174D01*
X85676812Y-55902840D01*
X85605925Y-55928639D01*
X85602525Y-55929821D01*
X85530962Y-55953536D01*
X85524420Y-55956587D01*
X85524397Y-55956539D01*
X85517507Y-55959875D01*
X85517531Y-55959922D01*
X85511076Y-55963163D01*
X85448067Y-56004604D01*
X85445030Y-56006539D01*
X85380846Y-56046130D01*
X85375179Y-56050611D01*
X85375146Y-56050569D01*
X85369214Y-56055401D01*
X85369248Y-56055442D01*
X85363712Y-56060087D01*
X85311944Y-56114956D01*
X85309433Y-56117541D01*
X84347742Y-57079232D01*
X84334113Y-57091011D01*
X84314707Y-57105459D01*
X84282674Y-57143633D01*
X84275387Y-57151586D01*
X84271420Y-57155554D01*
X84271418Y-57155556D01*
X84252089Y-57180001D01*
X84249815Y-57182793D01*
X84201334Y-57240571D01*
X84197366Y-57246605D01*
X84197322Y-57246576D01*
X84193209Y-57253031D01*
X84193254Y-57253059D01*
X84189462Y-57259206D01*
X84157581Y-57327572D01*
X84156012Y-57330812D01*
X84122175Y-57398191D01*
X84119704Y-57404979D01*
X84119655Y-57404961D01*
X84117141Y-57412193D01*
X84117191Y-57412210D01*
X84114920Y-57419062D01*
X84099671Y-57492911D01*
X84098891Y-57496430D01*
X84081499Y-57569816D01*
X84080661Y-57576987D01*
X84080607Y-57576980D01*
X84079830Y-57584596D01*
X84079883Y-57584601D01*
X84079253Y-57591790D01*
X84081448Y-57667193D01*
X84081500Y-57670800D01*
X84081500Y-58446474D01*
X84080191Y-58464443D01*
X84076684Y-58488382D01*
X84081028Y-58538019D01*
X84081500Y-58548828D01*
X84081500Y-58554420D01*
X84085116Y-58585359D01*
X84085482Y-58588944D01*
X84092056Y-58664084D01*
X84093516Y-58671151D01*
X84093464Y-58671161D01*
X84095123Y-58678641D01*
X84095174Y-58678629D01*
X84096840Y-58685659D01*
X84122621Y-58756494D01*
X84123804Y-58759897D01*
X84147533Y-58831503D01*
X84150586Y-58838049D01*
X84150536Y-58838072D01*
X84153876Y-58844971D01*
X84153925Y-58844947D01*
X84157167Y-58851404D01*
X84198613Y-58914420D01*
X84200550Y-58917460D01*
X84240131Y-58981630D01*
X84244611Y-58987296D01*
X84244569Y-58987329D01*
X84249401Y-58993260D01*
X84249443Y-58993226D01*
X84254088Y-58998762D01*
X84308938Y-59050510D01*
X84311525Y-59053023D01*
X91973181Y-66714679D01*
X92006666Y-66776002D01*
X92009500Y-66802360D01*
X92009500Y-73629995D01*
X91989815Y-73697034D01*
X91937011Y-73742789D01*
X91867853Y-73752733D01*
X91833669Y-73741527D01*
X91833436Y-73742091D01*
X91827814Y-73739762D01*
X91640051Y-73682805D01*
X91637701Y-73682092D01*
X91637699Y-73682091D01*
X91637701Y-73682091D01*
X91440000Y-73662620D01*
X91242300Y-73682091D01*
X91052191Y-73739760D01*
X90877001Y-73833401D01*
X90876994Y-73833405D01*
X90723431Y-73959431D01*
X90636353Y-74065537D01*
X90578607Y-74104871D01*
X90508763Y-74106742D01*
X90448994Y-74070554D01*
X90418279Y-74007798D01*
X90416500Y-73986872D01*
X90416500Y-71834715D01*
X90436185Y-71767676D01*
X90444639Y-71756058D01*
X90504595Y-71683004D01*
X90598241Y-71507804D01*
X90655908Y-71317701D01*
X90675380Y-71120000D01*
X90655908Y-70922299D01*
X90598241Y-70732196D01*
X90598239Y-70732193D01*
X90598239Y-70732191D01*
X90504598Y-70557001D01*
X90504594Y-70556994D01*
X90378568Y-70403431D01*
X90225005Y-70277405D01*
X90224998Y-70277401D01*
X90049808Y-70183760D01*
X89954752Y-70154925D01*
X89859701Y-70126092D01*
X89859699Y-70126091D01*
X89859701Y-70126091D01*
X89662000Y-70106620D01*
X89464300Y-70126091D01*
X89274191Y-70183760D01*
X89099001Y-70277401D01*
X89098994Y-70277405D01*
X88945431Y-70403431D01*
X88819405Y-70556994D01*
X88819401Y-70557001D01*
X88725760Y-70732191D01*
X88668091Y-70922300D01*
X88648620Y-71120000D01*
X88668091Y-71317699D01*
X88725760Y-71507808D01*
X88819401Y-71682998D01*
X88819402Y-71682999D01*
X88819405Y-71683004D01*
X88879353Y-71756051D01*
X88906666Y-71820359D01*
X88907500Y-71834715D01*
X88907500Y-86504113D01*
X88887815Y-86571152D01*
X88871181Y-86591794D01*
X84807868Y-90655106D01*
X84746545Y-90688591D01*
X84732343Y-90690828D01*
X84638300Y-90700091D01*
X84448191Y-90757760D01*
X84273001Y-90851401D01*
X84272994Y-90851405D01*
X84119430Y-90977432D01*
X84073949Y-91032851D01*
X84016203Y-91072185D01*
X83946359Y-91074054D01*
X83890416Y-91041866D01*
X81562819Y-88714269D01*
X81529334Y-88652946D01*
X81526500Y-88626588D01*
X81526500Y-67770715D01*
X81546185Y-67703676D01*
X81554639Y-67692058D01*
X81614595Y-67619004D01*
X81708241Y-67443804D01*
X81765908Y-67253701D01*
X81785380Y-67056000D01*
X81765908Y-66858299D01*
X81708241Y-66668196D01*
X81708239Y-66668193D01*
X81708239Y-66668191D01*
X81614598Y-66493001D01*
X81614594Y-66492994D01*
X81488568Y-66339431D01*
X81335005Y-66213405D01*
X81334998Y-66213401D01*
X81159808Y-66119760D01*
X81064752Y-66090925D01*
X80969701Y-66062092D01*
X80969699Y-66062091D01*
X80969701Y-66062091D01*
X80772000Y-66042620D01*
X80574300Y-66062091D01*
X80384191Y-66119760D01*
X80209001Y-66213401D01*
X80208994Y-66213405D01*
X80055431Y-66339431D01*
X79929405Y-66492994D01*
X79929401Y-66493001D01*
X79835760Y-66668191D01*
X79778091Y-66858300D01*
X79758620Y-67056000D01*
X72136500Y-67056000D01*
X72136500Y-42659763D01*
X75281787Y-42659763D01*
X75311413Y-42929013D01*
X75311415Y-42929024D01*
X75379926Y-43191082D01*
X75379928Y-43191088D01*
X75485870Y-43440390D01*
X75557998Y-43558575D01*
X75626979Y-43671605D01*
X75626986Y-43671615D01*
X75800253Y-43879819D01*
X75800259Y-43879824D01*
X76001998Y-44060582D01*
X76227910Y-44210044D01*
X76473176Y-44325020D01*
X76473183Y-44325022D01*
X76473185Y-44325023D01*
X76732557Y-44403057D01*
X76732564Y-44403058D01*
X76732569Y-44403060D01*
X77000561Y-44442500D01*
X77000566Y-44442500D01*
X77203629Y-44442500D01*
X77203631Y-44442500D01*
X77203636Y-44442499D01*
X77203648Y-44442499D01*
X77241191Y-44439750D01*
X77406156Y-44427677D01*
X77518758Y-44402593D01*
X77670546Y-44368782D01*
X77670548Y-44368781D01*
X77670553Y-44368780D01*
X77923558Y-44272014D01*
X78159777Y-44139441D01*
X78374177Y-43973888D01*
X78562186Y-43778881D01*
X78719799Y-43558579D01*
X78793787Y-43414669D01*
X78843649Y-43317690D01*
X78843651Y-43317684D01*
X78843656Y-43317675D01*
X78931118Y-43061305D01*
X78980319Y-42794933D01*
X78990212Y-42524235D01*
X78960586Y-42254982D01*
X78892072Y-41992912D01*
X78786130Y-41743610D01*
X78645018Y-41512390D01*
X78555747Y-41405119D01*
X78471746Y-41304180D01*
X78471740Y-41304175D01*
X78270002Y-41123418D01*
X78044092Y-40973957D01*
X78044090Y-40973956D01*
X77798824Y-40858980D01*
X77798819Y-40858978D01*
X77798814Y-40858976D01*
X77539442Y-40780942D01*
X77539428Y-40780939D01*
X77423791Y-40763921D01*
X77271439Y-40741500D01*
X77068369Y-40741500D01*
X77068351Y-40741500D01*
X76865844Y-40756323D01*
X76865831Y-40756325D01*
X76601453Y-40815217D01*
X76601446Y-40815220D01*
X76348439Y-40911987D01*
X76112226Y-41044557D01*
X75897822Y-41210112D01*
X75709822Y-41405109D01*
X75709816Y-41405116D01*
X75552202Y-41625419D01*
X75552199Y-41625424D01*
X75428350Y-41866309D01*
X75428343Y-41866327D01*
X75340884Y-42122685D01*
X75340881Y-42122699D01*
X75291681Y-42389068D01*
X75291680Y-42389075D01*
X75281787Y-42659763D01*
X72136500Y-42659763D01*
X72136500Y-37716500D01*
X72156185Y-37649461D01*
X72208989Y-37603706D01*
X72260500Y-37592500D01*
X128625500Y-37592500D01*
X128692539Y-37612185D01*
G37*
%TD.AperFunction*%
%TD*%
M02*
