%TF.GenerationSoftware,KiCad,Pcbnew,7.0.10*%
%TF.CreationDate,2024-03-01T12:14:43-06:00*%
%TF.ProjectId,ESP32,45535033-322e-46b6-9963-61645f706362,rev?*%
%TF.SameCoordinates,Original*%
%TF.FileFunction,Paste,Top*%
%TF.FilePolarity,Positive*%
%FSLAX46Y46*%
G04 Gerber Fmt 4.6, Leading zero omitted, Abs format (unit mm)*
G04 Created by KiCad (PCBNEW 7.0.10) date 2024-03-01 12:14:43*
%MOMM*%
%LPD*%
G01*
G04 APERTURE LIST*
G04 Aperture macros list*
%AMRoundRect*
0 Rectangle with rounded corners*
0 $1 Rounding radius*
0 $2 $3 $4 $5 $6 $7 $8 $9 X,Y pos of 4 corners*
0 Add a 4 corners polygon primitive as box body*
4,1,4,$2,$3,$4,$5,$6,$7,$8,$9,$2,$3,0*
0 Add four circle primitives for the rounded corners*
1,1,$1+$1,$2,$3*
1,1,$1+$1,$4,$5*
1,1,$1+$1,$6,$7*
1,1,$1+$1,$8,$9*
0 Add four rect primitives between the rounded corners*
20,1,$1+$1,$2,$3,$4,$5,0*
20,1,$1+$1,$4,$5,$6,$7,0*
20,1,$1+$1,$6,$7,$8,$9,0*
20,1,$1+$1,$8,$9,$2,$3,0*%
G04 Aperture macros list end*
%ADD10R,1.400000X0.400000*%
%ADD11R,1.900000X2.300000*%
%ADD12R,1.900000X1.800000*%
%ADD13RoundRect,0.250000X-0.262500X-0.450000X0.262500X-0.450000X0.262500X0.450000X-0.262500X0.450000X0*%
%ADD14RoundRect,0.250000X0.262500X0.450000X-0.262500X0.450000X-0.262500X-0.450000X0.262500X-0.450000X0*%
%ADD15RoundRect,0.250000X0.475000X-0.250000X0.475000X0.250000X-0.475000X0.250000X-0.475000X-0.250000X0*%
%ADD16RoundRect,0.150000X0.587500X0.150000X-0.587500X0.150000X-0.587500X-0.150000X0.587500X-0.150000X0*%
%ADD17R,2.200000X1.200000*%
%ADD18R,2.200000X3.500000*%
%ADD19RoundRect,0.250000X-0.475000X0.250000X-0.475000X-0.250000X0.475000X-0.250000X0.475000X0.250000X0*%
%ADD20R,1.498600X0.889000*%
%ADD21R,0.889000X1.498600*%
%ADD22R,0.889000X0.889000*%
%ADD23RoundRect,0.250000X0.450000X-0.262500X0.450000X0.262500X-0.450000X0.262500X-0.450000X-0.262500X0*%
%ADD24RoundRect,0.250000X-0.250000X-0.475000X0.250000X-0.475000X0.250000X0.475000X-0.250000X0.475000X0*%
%ADD25RoundRect,0.150000X-0.587500X-0.150000X0.587500X-0.150000X0.587500X0.150000X-0.587500X0.150000X0*%
G04 APERTURE END LIST*
D10*
%TO.C,MicroUSB_5V1A_Wall1*%
X124450000Y-45048000D03*
X124450000Y-44398000D03*
X124450000Y-43748000D03*
X124450000Y-43098000D03*
X124450000Y-42448000D03*
D11*
X127300000Y-47498000D03*
D12*
X127300000Y-44898000D03*
X127300000Y-42598000D03*
D11*
X127300000Y-39998000D03*
%TD*%
D13*
%TO.C,R5*%
X87189500Y-91718000D03*
X89014500Y-91718000D03*
%TD*%
%TO.C,R7*%
X87189500Y-87146000D03*
X89014500Y-87146000D03*
%TD*%
D14*
%TO.C,R1*%
X89014500Y-100862000D03*
X87189500Y-100862000D03*
%TD*%
D13*
%TO.C,R2*%
X89003500Y-58674000D03*
X90828500Y-58674000D03*
%TD*%
D15*
%TO.C,C1*%
X109474000Y-52766000D03*
X109474000Y-50866000D03*
%TD*%
D14*
%TO.C,R4*%
X89014500Y-96290000D03*
X87189500Y-96290000D03*
%TD*%
D16*
%TO.C,Q2*%
X86614000Y-62098000D03*
X86614000Y-60198000D03*
X84739000Y-61148000D03*
%TD*%
D17*
%TO.C,U1*%
X112470000Y-41642000D03*
X112470000Y-43942000D03*
X112470000Y-46242000D03*
D18*
X118670000Y-43942000D03*
%TD*%
D14*
%TO.C,R8*%
X115466500Y-103910000D03*
X113641500Y-103910000D03*
%TD*%
D19*
%TO.C,C3*%
X119126000Y-51120000D03*
X119126000Y-53020000D03*
%TD*%
D14*
%TO.C,R13*%
X87780500Y-72390000D03*
X85955500Y-72390000D03*
%TD*%
%TO.C,R12*%
X93368500Y-72390000D03*
X91543500Y-72390000D03*
%TD*%
D20*
%TO.C,U2*%
X93462000Y-87400000D03*
X93462000Y-88670000D03*
X93462000Y-89940000D03*
X93462000Y-91210000D03*
X93462000Y-92480000D03*
X93462000Y-93750000D03*
X93462000Y-95020000D03*
X93462000Y-96290000D03*
X93462000Y-97560000D03*
X93462000Y-98830000D03*
X93462000Y-100100000D03*
X93462000Y-101370000D03*
X93462000Y-102640000D03*
X93462000Y-103910000D03*
D21*
X95227000Y-105160000D03*
X96497000Y-105160000D03*
X97767000Y-105160000D03*
X99037000Y-105160000D03*
X100307000Y-105160000D03*
X101577000Y-105160000D03*
X102847000Y-105160000D03*
X104117000Y-105160000D03*
X105387000Y-105160000D03*
X106657000Y-105160000D03*
X107927000Y-105160000D03*
X109197000Y-105160000D03*
D20*
X110962000Y-103910000D03*
X110962000Y-102640000D03*
X110962000Y-101370000D03*
X110962000Y-100100000D03*
X110962000Y-98830000D03*
X110962000Y-97560000D03*
X110962000Y-96290000D03*
X110962000Y-95020000D03*
X110962000Y-93750000D03*
X110962000Y-92480000D03*
X110962000Y-91210000D03*
X110962000Y-89940000D03*
X110962000Y-88670000D03*
X110962000Y-87400000D03*
D22*
X100962000Y-95120000D03*
X100962000Y-93720000D03*
X99562000Y-93720000D03*
X99562000Y-95120000D03*
X99562000Y-96520000D03*
X100962000Y-96520000D03*
X102362000Y-96520000D03*
X102362000Y-95120000D03*
X102362000Y-93720000D03*
%TD*%
D19*
%TO.C,C4*%
X114300000Y-51120000D03*
X114300000Y-53020000D03*
%TD*%
D23*
%TO.C,R6*%
X81788000Y-60856500D03*
X81788000Y-59031500D03*
%TD*%
D15*
%TO.C,C2*%
X81788000Y-56322000D03*
X81788000Y-54422000D03*
%TD*%
D24*
%TO.C,C5*%
X124780000Y-52070000D03*
X126680000Y-52070000D03*
%TD*%
D25*
%TO.C,Q1*%
X93629000Y-60264000D03*
X93629000Y-62164000D03*
X95504000Y-61214000D03*
%TD*%
D14*
%TO.C,R3*%
X90828500Y-63754000D03*
X89003500Y-63754000D03*
%TD*%
M02*
