M48
; DRILL file {KiCad 7.0.10} date Tue Mar 26 13:41:40 2024
; FORMAT={-:-/ absolute / inch / decimal}
; #@! TF.CreationDate,2024-03-26T13:41:40-05:00
; #@! TF.GenerationSoftware,Kicad,Pcbnew,7.0.10
; #@! TF.FileFunction,Plated,1,2,PTH
FMAT,2
INCH
; #@! TA.AperFunction,Plated,PTH,ViaDrill
T1C0.0157
; #@! TA.AperFunction,Plated,PTH,ViaDrill
T2C0.0200
; #@! TA.AperFunction,Plated,PTH,ComponentDrill
T3C0.0276
; #@! TA.AperFunction,Plated,PTH,ComponentDrill
T4C0.0394
; #@! TA.AperFunction,Plated,PTH,ComponentDrill
T5C0.0433
%
G90
G05
T1
X3.2Y-4.02
X3.21Y-4.82
X3.47Y-3.31
X3.54Y-3.12
X3.54Y-3.96
X3.55Y-2.91
X3.58Y-4.82
X3.59Y-3.98
X3.63Y-3.48
X3.64Y-3.29
X3.64Y-3.84
X3.65Y-4.43
X3.67Y-3.41
X3.67Y-3.72
X3.68Y-3.79
X3.71Y-3.98
X3.76Y-3.78
X3.79Y-3.28
X3.83Y-3.47
X3.86Y-3.36
X3.98Y-3.42
X3.99Y-2.89
X3.99Y-4.55
X4.0Y-4.0087
X4.02Y-3.64
X4.06Y-3.3
X4.06Y-4.8
X4.09Y-2.8
X4.1Y-3.14
X4.1Y-4.09
X4.12Y-2.94
X4.13Y-4.32
X4.27Y-4.13
X4.51Y-3.53
X4.51Y-4.37
X4.53Y-2.98
X4.55Y-3.14
X4.55Y-4.08
X4.59Y-4.9
X4.61Y-4.22
X4.6685Y-4.17
X4.79Y-4.32
X4.83Y-3.62
X4.86Y-4.52
X5.19Y-3.14
X5.46Y-3.98
X5.46Y-4.5
X5.49Y-3.32
X5.807Y-3.0099
X5.84Y-4.85
X6.2Y-3.35
T2
X3.73Y-4.42
X3.88Y-4.0321
X4.02Y-4.42
X4.2Y-4.49
T3
X4.36Y-4.59
X4.36Y-4.75
X4.56Y-4.59
X4.56Y-4.75
T4
X3.33Y-4.21
X3.33Y-4.31
X3.33Y-4.41
X3.33Y-4.51
X3.33Y-4.61
X3.33Y-4.71
X3.75Y-4.7154
X3.75Y-4.98
X3.8823Y-4.6607
X3.8823Y-5.0347
X4.0146Y-4.7154
X4.0146Y-4.98
X5.01Y-2.79
X5.02Y-5.0
X5.11Y-2.79
X5.12Y-5.0
X5.21Y-2.79
X5.22Y-5.0
X5.31Y-2.79
X5.32Y-5.0
T5
X6.1228Y-4.07
X6.1228Y-4.3259
X6.1228Y-4.49
X6.1228Y-4.7459
X6.3Y-4.07
X6.3Y-4.3259
X6.3Y-4.49
X6.3Y-4.7459
M30
