%TF.GenerationSoftware,KiCad,Pcbnew,7.0.10*%
%TF.CreationDate,2024-03-26T13:41:38-05:00*%
%TF.ProjectId,ESP32,45535033-322e-46b6-9963-61645f706362,rev?*%
%TF.SameCoordinates,Original*%
%TF.FileFunction,Legend,Top*%
%TF.FilePolarity,Positive*%
%FSLAX46Y46*%
G04 Gerber Fmt 4.6, Leading zero omitted, Abs format (unit mm)*
G04 Created by KiCad (PCBNEW 7.0.10) date 2024-03-26 13:41:38*
%MOMM*%
%LPD*%
G01*
G04 APERTURE LIST*
%ADD10C,0.150000*%
%ADD11C,0.600000*%
%ADD12C,0.100000*%
%ADD13C,0.120000*%
%ADD14C,0.152400*%
G04 APERTURE END LIST*
D10*
X80457922Y-114185819D02*
X81029350Y-114185819D01*
X80743636Y-115185819D02*
X80743636Y-114185819D01*
X81267446Y-114185819D02*
X81934112Y-115185819D01*
X81934112Y-114185819D02*
X81267446Y-115185819D01*
X81172207Y-117725819D02*
X80838874Y-117249628D01*
X80600779Y-117725819D02*
X80600779Y-116725819D01*
X80600779Y-116725819D02*
X80981731Y-116725819D01*
X80981731Y-116725819D02*
X81076969Y-116773438D01*
X81076969Y-116773438D02*
X81124588Y-116821057D01*
X81124588Y-116821057D02*
X81172207Y-116916295D01*
X81172207Y-116916295D02*
X81172207Y-117059152D01*
X81172207Y-117059152D02*
X81124588Y-117154390D01*
X81124588Y-117154390D02*
X81076969Y-117202009D01*
X81076969Y-117202009D02*
X80981731Y-117249628D01*
X80981731Y-117249628D02*
X80600779Y-117249628D01*
X81505541Y-116725819D02*
X82172207Y-117725819D01*
X82172207Y-116725819D02*
X81505541Y-117725819D01*
X80362588Y-106359438D02*
X80267350Y-106311819D01*
X80267350Y-106311819D02*
X80124493Y-106311819D01*
X80124493Y-106311819D02*
X79981636Y-106359438D01*
X79981636Y-106359438D02*
X79886398Y-106454676D01*
X79886398Y-106454676D02*
X79838779Y-106549914D01*
X79838779Y-106549914D02*
X79791160Y-106740390D01*
X79791160Y-106740390D02*
X79791160Y-106883247D01*
X79791160Y-106883247D02*
X79838779Y-107073723D01*
X79838779Y-107073723D02*
X79886398Y-107168961D01*
X79886398Y-107168961D02*
X79981636Y-107264200D01*
X79981636Y-107264200D02*
X80124493Y-107311819D01*
X80124493Y-107311819D02*
X80219731Y-107311819D01*
X80219731Y-107311819D02*
X80362588Y-107264200D01*
X80362588Y-107264200D02*
X80410207Y-107216580D01*
X80410207Y-107216580D02*
X80410207Y-106883247D01*
X80410207Y-106883247D02*
X80219731Y-106883247D01*
X80838779Y-107311819D02*
X80838779Y-106311819D01*
X80838779Y-106311819D02*
X81410207Y-107311819D01*
X81410207Y-107311819D02*
X81410207Y-106311819D01*
X81886398Y-107311819D02*
X81886398Y-106311819D01*
X81886398Y-106311819D02*
X82124493Y-106311819D01*
X82124493Y-106311819D02*
X82267350Y-106359438D01*
X82267350Y-106359438D02*
X82362588Y-106454676D01*
X82362588Y-106454676D02*
X82410207Y-106549914D01*
X82410207Y-106549914D02*
X82457826Y-106740390D01*
X82457826Y-106740390D02*
X82457826Y-106883247D01*
X82457826Y-106883247D02*
X82410207Y-107073723D01*
X82410207Y-107073723D02*
X82362588Y-107168961D01*
X82362588Y-107168961D02*
X82267350Y-107264200D01*
X82267350Y-107264200D02*
X82124493Y-107311819D01*
X82124493Y-107311819D02*
X81886398Y-107311819D01*
X95046969Y-128663819D02*
X94570779Y-128663819D01*
X94570779Y-128663819D02*
X94523160Y-129140009D01*
X94523160Y-129140009D02*
X94570779Y-129092390D01*
X94570779Y-129092390D02*
X94666017Y-129044771D01*
X94666017Y-129044771D02*
X94904112Y-129044771D01*
X94904112Y-129044771D02*
X94999350Y-129092390D01*
X94999350Y-129092390D02*
X95046969Y-129140009D01*
X95046969Y-129140009D02*
X95094588Y-129235247D01*
X95094588Y-129235247D02*
X95094588Y-129473342D01*
X95094588Y-129473342D02*
X95046969Y-129568580D01*
X95046969Y-129568580D02*
X94999350Y-129616200D01*
X94999350Y-129616200D02*
X94904112Y-129663819D01*
X94904112Y-129663819D02*
X94666017Y-129663819D01*
X94666017Y-129663819D02*
X94570779Y-129616200D01*
X94570779Y-129616200D02*
X94523160Y-129568580D01*
X95380303Y-128663819D02*
X95713636Y-129663819D01*
X95713636Y-129663819D02*
X96046969Y-128663819D01*
D11*
X155252228Y-97442978D02*
X155252228Y-96442978D01*
X156823657Y-96014406D02*
X156823657Y-97442978D01*
X156823657Y-97442978D02*
X153823657Y-97442978D01*
X153823657Y-97442978D02*
X153823657Y-96014406D01*
X156537942Y-93014406D02*
X156680800Y-93157263D01*
X156680800Y-93157263D02*
X156823657Y-93585835D01*
X156823657Y-93585835D02*
X156823657Y-93871549D01*
X156823657Y-93871549D02*
X156680800Y-94300120D01*
X156680800Y-94300120D02*
X156395085Y-94585835D01*
X156395085Y-94585835D02*
X156109371Y-94728692D01*
X156109371Y-94728692D02*
X155537942Y-94871549D01*
X155537942Y-94871549D02*
X155109371Y-94871549D01*
X155109371Y-94871549D02*
X154537942Y-94728692D01*
X154537942Y-94728692D02*
X154252228Y-94585835D01*
X154252228Y-94585835D02*
X153966514Y-94300120D01*
X153966514Y-94300120D02*
X153823657Y-93871549D01*
X153823657Y-93871549D02*
X153823657Y-93585835D01*
X153823657Y-93585835D02*
X153966514Y-93157263D01*
X153966514Y-93157263D02*
X154109371Y-93014406D01*
X155252228Y-91728692D02*
X155252228Y-90728692D01*
X156823657Y-90300120D02*
X156823657Y-91728692D01*
X156823657Y-91728692D02*
X153823657Y-91728692D01*
X153823657Y-91728692D02*
X153823657Y-90300120D01*
X154823657Y-85442978D02*
X156823657Y-85442978D01*
X153680800Y-86157263D02*
X155823657Y-86871549D01*
X155823657Y-86871549D02*
X155823657Y-85014406D01*
X154823657Y-82585835D02*
X156823657Y-82585835D01*
X153680800Y-83300120D02*
X155823657Y-84014406D01*
X155823657Y-84014406D02*
X155823657Y-82157263D01*
X153823657Y-79585834D02*
X153823657Y-81014406D01*
X153823657Y-81014406D02*
X155252228Y-81157263D01*
X155252228Y-81157263D02*
X155109371Y-81014406D01*
X155109371Y-81014406D02*
X154966514Y-80728692D01*
X154966514Y-80728692D02*
X154966514Y-80014406D01*
X154966514Y-80014406D02*
X155109371Y-79728692D01*
X155109371Y-79728692D02*
X155252228Y-79585834D01*
X155252228Y-79585834D02*
X155537942Y-79442977D01*
X155537942Y-79442977D02*
X156252228Y-79442977D01*
X156252228Y-79442977D02*
X156537942Y-79585834D01*
X156537942Y-79585834D02*
X156680800Y-79728692D01*
X156680800Y-79728692D02*
X156823657Y-80014406D01*
X156823657Y-80014406D02*
X156823657Y-80728692D01*
X156823657Y-80728692D02*
X156680800Y-81014406D01*
X156680800Y-81014406D02*
X156537942Y-81157263D01*
X158796514Y-95871549D02*
X158653657Y-96157264D01*
X158653657Y-96157264D02*
X158653657Y-96585835D01*
X158653657Y-96585835D02*
X158796514Y-97014406D01*
X158796514Y-97014406D02*
X159082228Y-97300121D01*
X159082228Y-97300121D02*
X159367942Y-97442978D01*
X159367942Y-97442978D02*
X159939371Y-97585835D01*
X159939371Y-97585835D02*
X160367942Y-97585835D01*
X160367942Y-97585835D02*
X160939371Y-97442978D01*
X160939371Y-97442978D02*
X161225085Y-97300121D01*
X161225085Y-97300121D02*
X161510800Y-97014406D01*
X161510800Y-97014406D02*
X161653657Y-96585835D01*
X161653657Y-96585835D02*
X161653657Y-96300121D01*
X161653657Y-96300121D02*
X161510800Y-95871549D01*
X161510800Y-95871549D02*
X161367942Y-95728692D01*
X161367942Y-95728692D02*
X160367942Y-95728692D01*
X160367942Y-95728692D02*
X160367942Y-96300121D01*
X161653657Y-94442978D02*
X159653657Y-94442978D01*
X160225085Y-94442978D02*
X159939371Y-94300121D01*
X159939371Y-94300121D02*
X159796514Y-94157264D01*
X159796514Y-94157264D02*
X159653657Y-93871549D01*
X159653657Y-93871549D02*
X159653657Y-93585835D01*
X161653657Y-92157263D02*
X161510800Y-92442978D01*
X161510800Y-92442978D02*
X161367942Y-92585835D01*
X161367942Y-92585835D02*
X161082228Y-92728692D01*
X161082228Y-92728692D02*
X160225085Y-92728692D01*
X160225085Y-92728692D02*
X159939371Y-92585835D01*
X159939371Y-92585835D02*
X159796514Y-92442978D01*
X159796514Y-92442978D02*
X159653657Y-92157263D01*
X159653657Y-92157263D02*
X159653657Y-91728692D01*
X159653657Y-91728692D02*
X159796514Y-91442978D01*
X159796514Y-91442978D02*
X159939371Y-91300121D01*
X159939371Y-91300121D02*
X160225085Y-91157263D01*
X160225085Y-91157263D02*
X161082228Y-91157263D01*
X161082228Y-91157263D02*
X161367942Y-91300121D01*
X161367942Y-91300121D02*
X161510800Y-91442978D01*
X161510800Y-91442978D02*
X161653657Y-91728692D01*
X161653657Y-91728692D02*
X161653657Y-92157263D01*
X159653657Y-88585835D02*
X161653657Y-88585835D01*
X159653657Y-89871549D02*
X161225085Y-89871549D01*
X161225085Y-89871549D02*
X161510800Y-89728692D01*
X161510800Y-89728692D02*
X161653657Y-89442977D01*
X161653657Y-89442977D02*
X161653657Y-89014406D01*
X161653657Y-89014406D02*
X161510800Y-88728692D01*
X161510800Y-88728692D02*
X161367942Y-88585835D01*
X159653657Y-87157263D02*
X162653657Y-87157263D01*
X159796514Y-87157263D02*
X159653657Y-86871549D01*
X159653657Y-86871549D02*
X159653657Y-86300120D01*
X159653657Y-86300120D02*
X159796514Y-86014406D01*
X159796514Y-86014406D02*
X159939371Y-85871549D01*
X159939371Y-85871549D02*
X160225085Y-85728691D01*
X160225085Y-85728691D02*
X161082228Y-85728691D01*
X161082228Y-85728691D02*
X161367942Y-85871549D01*
X161367942Y-85871549D02*
X161510800Y-86014406D01*
X161510800Y-86014406D02*
X161653657Y-86300120D01*
X161653657Y-86300120D02*
X161653657Y-86871549D01*
X161653657Y-86871549D02*
X161510800Y-87157263D01*
X161653657Y-80585834D02*
X161653657Y-82300120D01*
X161653657Y-81442977D02*
X158653657Y-81442977D01*
X158653657Y-81442977D02*
X159082228Y-81728691D01*
X159082228Y-81728691D02*
X159367942Y-82014406D01*
X159367942Y-82014406D02*
X159510800Y-82300120D01*
D10*
X117652969Y-72783819D02*
X117176779Y-72783819D01*
X117176779Y-72783819D02*
X117129160Y-73260009D01*
X117129160Y-73260009D02*
X117176779Y-73212390D01*
X117176779Y-73212390D02*
X117272017Y-73164771D01*
X117272017Y-73164771D02*
X117510112Y-73164771D01*
X117510112Y-73164771D02*
X117605350Y-73212390D01*
X117605350Y-73212390D02*
X117652969Y-73260009D01*
X117652969Y-73260009D02*
X117700588Y-73355247D01*
X117700588Y-73355247D02*
X117700588Y-73593342D01*
X117700588Y-73593342D02*
X117652969Y-73688580D01*
X117652969Y-73688580D02*
X117605350Y-73736200D01*
X117605350Y-73736200D02*
X117510112Y-73783819D01*
X117510112Y-73783819D02*
X117272017Y-73783819D01*
X117272017Y-73783819D02*
X117176779Y-73736200D01*
X117176779Y-73736200D02*
X117129160Y-73688580D01*
X117986303Y-72783819D02*
X118319636Y-73783819D01*
X118319636Y-73783819D02*
X118652969Y-72783819D01*
X130797541Y-130949819D02*
X131416588Y-130949819D01*
X131416588Y-130949819D02*
X131083255Y-131330771D01*
X131083255Y-131330771D02*
X131226112Y-131330771D01*
X131226112Y-131330771D02*
X131321350Y-131378390D01*
X131321350Y-131378390D02*
X131368969Y-131426009D01*
X131368969Y-131426009D02*
X131416588Y-131521247D01*
X131416588Y-131521247D02*
X131416588Y-131759342D01*
X131416588Y-131759342D02*
X131368969Y-131854580D01*
X131368969Y-131854580D02*
X131321350Y-131902200D01*
X131321350Y-131902200D02*
X131226112Y-131949819D01*
X131226112Y-131949819D02*
X130940398Y-131949819D01*
X130940398Y-131949819D02*
X130845160Y-131902200D01*
X130845160Y-131902200D02*
X130797541Y-131854580D01*
X131702303Y-130949819D02*
X132035636Y-131949819D01*
X132035636Y-131949819D02*
X132368969Y-130949819D01*
X132607065Y-130949819D02*
X133226112Y-130949819D01*
X133226112Y-130949819D02*
X132892779Y-131330771D01*
X132892779Y-131330771D02*
X133035636Y-131330771D01*
X133035636Y-131330771D02*
X133130874Y-131378390D01*
X133130874Y-131378390D02*
X133178493Y-131426009D01*
X133178493Y-131426009D02*
X133226112Y-131521247D01*
X133226112Y-131521247D02*
X133226112Y-131759342D01*
X133226112Y-131759342D02*
X133178493Y-131854580D01*
X133178493Y-131854580D02*
X133130874Y-131902200D01*
X133130874Y-131902200D02*
X133035636Y-131949819D01*
X133035636Y-131949819D02*
X132749922Y-131949819D01*
X132749922Y-131949819D02*
X132654684Y-131902200D01*
X132654684Y-131902200D02*
X132607065Y-131854580D01*
X109572588Y-72831438D02*
X109477350Y-72783819D01*
X109477350Y-72783819D02*
X109334493Y-72783819D01*
X109334493Y-72783819D02*
X109191636Y-72831438D01*
X109191636Y-72831438D02*
X109096398Y-72926676D01*
X109096398Y-72926676D02*
X109048779Y-73021914D01*
X109048779Y-73021914D02*
X109001160Y-73212390D01*
X109001160Y-73212390D02*
X109001160Y-73355247D01*
X109001160Y-73355247D02*
X109048779Y-73545723D01*
X109048779Y-73545723D02*
X109096398Y-73640961D01*
X109096398Y-73640961D02*
X109191636Y-73736200D01*
X109191636Y-73736200D02*
X109334493Y-73783819D01*
X109334493Y-73783819D02*
X109429731Y-73783819D01*
X109429731Y-73783819D02*
X109572588Y-73736200D01*
X109572588Y-73736200D02*
X109620207Y-73688580D01*
X109620207Y-73688580D02*
X109620207Y-73355247D01*
X109620207Y-73355247D02*
X109429731Y-73355247D01*
X110048779Y-73783819D02*
X110048779Y-72783819D01*
X110048779Y-72783819D02*
X110620207Y-73783819D01*
X110620207Y-73783819D02*
X110620207Y-72783819D01*
X111096398Y-73783819D02*
X111096398Y-72783819D01*
X111096398Y-72783819D02*
X111334493Y-72783819D01*
X111334493Y-72783819D02*
X111477350Y-72831438D01*
X111477350Y-72831438D02*
X111572588Y-72926676D01*
X111572588Y-72926676D02*
X111620207Y-73021914D01*
X111620207Y-73021914D02*
X111667826Y-73212390D01*
X111667826Y-73212390D02*
X111667826Y-73355247D01*
X111667826Y-73355247D02*
X111620207Y-73545723D01*
X111620207Y-73545723D02*
X111572588Y-73640961D01*
X111572588Y-73640961D02*
X111477350Y-73736200D01*
X111477350Y-73736200D02*
X111334493Y-73783819D01*
X111334493Y-73783819D02*
X111096398Y-73783819D01*
X83738095Y-124254819D02*
X83738095Y-123254819D01*
X83738095Y-123731009D02*
X84309523Y-123731009D01*
X84309523Y-124254819D02*
X84309523Y-123254819D01*
X84690476Y-123254819D02*
X85309523Y-123254819D01*
X85309523Y-123254819D02*
X84976190Y-123635771D01*
X84976190Y-123635771D02*
X85119047Y-123635771D01*
X85119047Y-123635771D02*
X85214285Y-123683390D01*
X85214285Y-123683390D02*
X85261904Y-123731009D01*
X85261904Y-123731009D02*
X85309523Y-123826247D01*
X85309523Y-123826247D02*
X85309523Y-124064342D01*
X85309523Y-124064342D02*
X85261904Y-124159580D01*
X85261904Y-124159580D02*
X85214285Y-124207200D01*
X85214285Y-124207200D02*
X85119047Y-124254819D01*
X85119047Y-124254819D02*
X84833333Y-124254819D01*
X84833333Y-124254819D02*
X84738095Y-124207200D01*
X84738095Y-124207200D02*
X84690476Y-124159580D01*
X108142856Y-126254819D02*
X108142856Y-125254819D01*
X108142856Y-125254819D02*
X108476189Y-125969104D01*
X108476189Y-125969104D02*
X108809522Y-125254819D01*
X108809522Y-125254819D02*
X108809522Y-126254819D01*
X109285713Y-126254819D02*
X109285713Y-125588152D01*
X109285713Y-125254819D02*
X109238094Y-125302438D01*
X109238094Y-125302438D02*
X109285713Y-125350057D01*
X109285713Y-125350057D02*
X109333332Y-125302438D01*
X109333332Y-125302438D02*
X109285713Y-125254819D01*
X109285713Y-125254819D02*
X109285713Y-125350057D01*
X110190474Y-126207200D02*
X110095236Y-126254819D01*
X110095236Y-126254819D02*
X109904760Y-126254819D01*
X109904760Y-126254819D02*
X109809522Y-126207200D01*
X109809522Y-126207200D02*
X109761903Y-126159580D01*
X109761903Y-126159580D02*
X109714284Y-126064342D01*
X109714284Y-126064342D02*
X109714284Y-125778628D01*
X109714284Y-125778628D02*
X109761903Y-125683390D01*
X109761903Y-125683390D02*
X109809522Y-125635771D01*
X109809522Y-125635771D02*
X109904760Y-125588152D01*
X109904760Y-125588152D02*
X110095236Y-125588152D01*
X110095236Y-125588152D02*
X110190474Y-125635771D01*
X110619046Y-126254819D02*
X110619046Y-125588152D01*
X110619046Y-125778628D02*
X110666665Y-125683390D01*
X110666665Y-125683390D02*
X110714284Y-125635771D01*
X110714284Y-125635771D02*
X110809522Y-125588152D01*
X110809522Y-125588152D02*
X110904760Y-125588152D01*
X111380951Y-126254819D02*
X111285713Y-126207200D01*
X111285713Y-126207200D02*
X111238094Y-126159580D01*
X111238094Y-126159580D02*
X111190475Y-126064342D01*
X111190475Y-126064342D02*
X111190475Y-125778628D01*
X111190475Y-125778628D02*
X111238094Y-125683390D01*
X111238094Y-125683390D02*
X111285713Y-125635771D01*
X111285713Y-125635771D02*
X111380951Y-125588152D01*
X111380951Y-125588152D02*
X111523808Y-125588152D01*
X111523808Y-125588152D02*
X111619046Y-125635771D01*
X111619046Y-125635771D02*
X111666665Y-125683390D01*
X111666665Y-125683390D02*
X111714284Y-125778628D01*
X111714284Y-125778628D02*
X111714284Y-126064342D01*
X111714284Y-126064342D02*
X111666665Y-126159580D01*
X111666665Y-126159580D02*
X111619046Y-126207200D01*
X111619046Y-126207200D02*
X111523808Y-126254819D01*
X111523808Y-126254819D02*
X111380951Y-126254819D01*
X112142856Y-125254819D02*
X112142856Y-126064342D01*
X112142856Y-126064342D02*
X112190475Y-126159580D01*
X112190475Y-126159580D02*
X112238094Y-126207200D01*
X112238094Y-126207200D02*
X112333332Y-126254819D01*
X112333332Y-126254819D02*
X112523808Y-126254819D01*
X112523808Y-126254819D02*
X112619046Y-126207200D01*
X112619046Y-126207200D02*
X112666665Y-126159580D01*
X112666665Y-126159580D02*
X112714284Y-126064342D01*
X112714284Y-126064342D02*
X112714284Y-125254819D01*
X113142856Y-126207200D02*
X113285713Y-126254819D01*
X113285713Y-126254819D02*
X113523808Y-126254819D01*
X113523808Y-126254819D02*
X113619046Y-126207200D01*
X113619046Y-126207200D02*
X113666665Y-126159580D01*
X113666665Y-126159580D02*
X113714284Y-126064342D01*
X113714284Y-126064342D02*
X113714284Y-125969104D01*
X113714284Y-125969104D02*
X113666665Y-125873866D01*
X113666665Y-125873866D02*
X113619046Y-125826247D01*
X113619046Y-125826247D02*
X113523808Y-125778628D01*
X113523808Y-125778628D02*
X113333332Y-125731009D01*
X113333332Y-125731009D02*
X113238094Y-125683390D01*
X113238094Y-125683390D02*
X113190475Y-125635771D01*
X113190475Y-125635771D02*
X113142856Y-125540533D01*
X113142856Y-125540533D02*
X113142856Y-125445295D01*
X113142856Y-125445295D02*
X113190475Y-125350057D01*
X113190475Y-125350057D02*
X113238094Y-125302438D01*
X113238094Y-125302438D02*
X113333332Y-125254819D01*
X113333332Y-125254819D02*
X113571427Y-125254819D01*
X113571427Y-125254819D02*
X113714284Y-125302438D01*
X114476189Y-125731009D02*
X114619046Y-125778628D01*
X114619046Y-125778628D02*
X114666665Y-125826247D01*
X114666665Y-125826247D02*
X114714284Y-125921485D01*
X114714284Y-125921485D02*
X114714284Y-126064342D01*
X114714284Y-126064342D02*
X114666665Y-126159580D01*
X114666665Y-126159580D02*
X114619046Y-126207200D01*
X114619046Y-126207200D02*
X114523808Y-126254819D01*
X114523808Y-126254819D02*
X114142856Y-126254819D01*
X114142856Y-126254819D02*
X114142856Y-125254819D01*
X114142856Y-125254819D02*
X114476189Y-125254819D01*
X114476189Y-125254819D02*
X114571427Y-125302438D01*
X114571427Y-125302438D02*
X114619046Y-125350057D01*
X114619046Y-125350057D02*
X114666665Y-125445295D01*
X114666665Y-125445295D02*
X114666665Y-125540533D01*
X114666665Y-125540533D02*
X114619046Y-125635771D01*
X114619046Y-125635771D02*
X114571427Y-125683390D01*
X114571427Y-125683390D02*
X114476189Y-125731009D01*
X114476189Y-125731009D02*
X114142856Y-125731009D01*
X114904761Y-126350057D02*
X115666665Y-126350057D01*
X116380951Y-125254819D02*
X115904761Y-125254819D01*
X115904761Y-125254819D02*
X115857142Y-125731009D01*
X115857142Y-125731009D02*
X115904761Y-125683390D01*
X115904761Y-125683390D02*
X115999999Y-125635771D01*
X115999999Y-125635771D02*
X116238094Y-125635771D01*
X116238094Y-125635771D02*
X116333332Y-125683390D01*
X116333332Y-125683390D02*
X116380951Y-125731009D01*
X116380951Y-125731009D02*
X116428570Y-125826247D01*
X116428570Y-125826247D02*
X116428570Y-126064342D01*
X116428570Y-126064342D02*
X116380951Y-126159580D01*
X116380951Y-126159580D02*
X116333332Y-126207200D01*
X116333332Y-126207200D02*
X116238094Y-126254819D01*
X116238094Y-126254819D02*
X115999999Y-126254819D01*
X115999999Y-126254819D02*
X115904761Y-126207200D01*
X115904761Y-126207200D02*
X115857142Y-126159580D01*
X116714285Y-125254819D02*
X117047618Y-126254819D01*
X117047618Y-126254819D02*
X117380951Y-125254819D01*
X118238094Y-126254819D02*
X117666666Y-126254819D01*
X117952380Y-126254819D02*
X117952380Y-125254819D01*
X117952380Y-125254819D02*
X117857142Y-125397676D01*
X117857142Y-125397676D02*
X117761904Y-125492914D01*
X117761904Y-125492914D02*
X117666666Y-125540533D01*
X118619047Y-125969104D02*
X119095237Y-125969104D01*
X118523809Y-126254819D02*
X118857142Y-125254819D01*
X118857142Y-125254819D02*
X119190475Y-126254819D01*
X119285714Y-126350057D02*
X120047618Y-126350057D01*
X120190476Y-125254819D02*
X120428571Y-126254819D01*
X120428571Y-126254819D02*
X120619047Y-125540533D01*
X120619047Y-125540533D02*
X120809523Y-126254819D01*
X120809523Y-126254819D02*
X121047619Y-125254819D01*
X121857142Y-126254819D02*
X121857142Y-125731009D01*
X121857142Y-125731009D02*
X121809523Y-125635771D01*
X121809523Y-125635771D02*
X121714285Y-125588152D01*
X121714285Y-125588152D02*
X121523809Y-125588152D01*
X121523809Y-125588152D02*
X121428571Y-125635771D01*
X121857142Y-126207200D02*
X121761904Y-126254819D01*
X121761904Y-126254819D02*
X121523809Y-126254819D01*
X121523809Y-126254819D02*
X121428571Y-126207200D01*
X121428571Y-126207200D02*
X121380952Y-126111961D01*
X121380952Y-126111961D02*
X121380952Y-126016723D01*
X121380952Y-126016723D02*
X121428571Y-125921485D01*
X121428571Y-125921485D02*
X121523809Y-125873866D01*
X121523809Y-125873866D02*
X121761904Y-125873866D01*
X121761904Y-125873866D02*
X121857142Y-125826247D01*
X122476190Y-126254819D02*
X122380952Y-126207200D01*
X122380952Y-126207200D02*
X122333333Y-126111961D01*
X122333333Y-126111961D02*
X122333333Y-125254819D01*
X123000000Y-126254819D02*
X122904762Y-126207200D01*
X122904762Y-126207200D02*
X122857143Y-126111961D01*
X122857143Y-126111961D02*
X122857143Y-125254819D01*
X123904762Y-126254819D02*
X123333334Y-126254819D01*
X123619048Y-126254819D02*
X123619048Y-125254819D01*
X123619048Y-125254819D02*
X123523810Y-125397676D01*
X123523810Y-125397676D02*
X123428572Y-125492914D01*
X123428572Y-125492914D02*
X123333334Y-125540533D01*
X114904319Y-106719666D02*
X114428128Y-107052999D01*
X114904319Y-107291094D02*
X113904319Y-107291094D01*
X113904319Y-107291094D02*
X113904319Y-106910142D01*
X113904319Y-106910142D02*
X113951938Y-106814904D01*
X113951938Y-106814904D02*
X113999557Y-106767285D01*
X113999557Y-106767285D02*
X114094795Y-106719666D01*
X114094795Y-106719666D02*
X114237652Y-106719666D01*
X114237652Y-106719666D02*
X114332890Y-106767285D01*
X114332890Y-106767285D02*
X114380509Y-106814904D01*
X114380509Y-106814904D02*
X114428128Y-106910142D01*
X114428128Y-106910142D02*
X114428128Y-107291094D01*
X113999557Y-106338713D02*
X113951938Y-106291094D01*
X113951938Y-106291094D02*
X113904319Y-106195856D01*
X113904319Y-106195856D02*
X113904319Y-105957761D01*
X113904319Y-105957761D02*
X113951938Y-105862523D01*
X113951938Y-105862523D02*
X113999557Y-105814904D01*
X113999557Y-105814904D02*
X114094795Y-105767285D01*
X114094795Y-105767285D02*
X114190033Y-105767285D01*
X114190033Y-105767285D02*
X114332890Y-105814904D01*
X114332890Y-105814904D02*
X114904319Y-106386332D01*
X114904319Y-106386332D02*
X114904319Y-105767285D01*
X92034819Y-91058904D02*
X92844342Y-91058904D01*
X92844342Y-91058904D02*
X92939580Y-91011285D01*
X92939580Y-91011285D02*
X92987200Y-90963666D01*
X92987200Y-90963666D02*
X93034819Y-90868428D01*
X93034819Y-90868428D02*
X93034819Y-90677952D01*
X93034819Y-90677952D02*
X92987200Y-90582714D01*
X92987200Y-90582714D02*
X92939580Y-90535095D01*
X92939580Y-90535095D02*
X92844342Y-90487476D01*
X92844342Y-90487476D02*
X92034819Y-90487476D01*
X92130057Y-90058904D02*
X92082438Y-90011285D01*
X92082438Y-90011285D02*
X92034819Y-89916047D01*
X92034819Y-89916047D02*
X92034819Y-89677952D01*
X92034819Y-89677952D02*
X92082438Y-89582714D01*
X92082438Y-89582714D02*
X92130057Y-89535095D01*
X92130057Y-89535095D02*
X92225295Y-89487476D01*
X92225295Y-89487476D02*
X92320533Y-89487476D01*
X92320533Y-89487476D02*
X92463390Y-89535095D01*
X92463390Y-89535095D02*
X93034819Y-90106523D01*
X93034819Y-90106523D02*
X93034819Y-89487476D01*
X86774819Y-100431299D02*
X87012914Y-100431299D01*
X86917676Y-100669394D02*
X87012914Y-100431299D01*
X87012914Y-100431299D02*
X86917676Y-100193204D01*
X87203390Y-100574156D02*
X87012914Y-100431299D01*
X87012914Y-100431299D02*
X87203390Y-100288442D01*
X86774819Y-100431299D02*
X87012914Y-100431299D01*
X86917676Y-100669394D02*
X87012914Y-100431299D01*
X87012914Y-100431299D02*
X86917676Y-100193204D01*
X87203390Y-100574156D02*
X87012914Y-100431299D01*
X87012914Y-100431299D02*
X87203390Y-100288442D01*
X86830819Y-117998380D02*
X87640342Y-117998380D01*
X87640342Y-117998380D02*
X87735580Y-117950761D01*
X87735580Y-117950761D02*
X87783200Y-117903142D01*
X87783200Y-117903142D02*
X87830819Y-117807904D01*
X87830819Y-117807904D02*
X87830819Y-117617428D01*
X87830819Y-117617428D02*
X87783200Y-117522190D01*
X87783200Y-117522190D02*
X87735580Y-117474571D01*
X87735580Y-117474571D02*
X87640342Y-117426952D01*
X87640342Y-117426952D02*
X86830819Y-117426952D01*
X87783200Y-116998380D02*
X87830819Y-116855523D01*
X87830819Y-116855523D02*
X87830819Y-116617428D01*
X87830819Y-116617428D02*
X87783200Y-116522190D01*
X87783200Y-116522190D02*
X87735580Y-116474571D01*
X87735580Y-116474571D02*
X87640342Y-116426952D01*
X87640342Y-116426952D02*
X87545104Y-116426952D01*
X87545104Y-116426952D02*
X87449866Y-116474571D01*
X87449866Y-116474571D02*
X87402247Y-116522190D01*
X87402247Y-116522190D02*
X87354628Y-116617428D01*
X87354628Y-116617428D02*
X87307009Y-116807904D01*
X87307009Y-116807904D02*
X87259390Y-116903142D01*
X87259390Y-116903142D02*
X87211771Y-116950761D01*
X87211771Y-116950761D02*
X87116533Y-116998380D01*
X87116533Y-116998380D02*
X87021295Y-116998380D01*
X87021295Y-116998380D02*
X86926057Y-116950761D01*
X86926057Y-116950761D02*
X86878438Y-116903142D01*
X86878438Y-116903142D02*
X86830819Y-116807904D01*
X86830819Y-116807904D02*
X86830819Y-116569809D01*
X86830819Y-116569809D02*
X86878438Y-116426952D01*
X87307009Y-115665047D02*
X87354628Y-115522190D01*
X87354628Y-115522190D02*
X87402247Y-115474571D01*
X87402247Y-115474571D02*
X87497485Y-115426952D01*
X87497485Y-115426952D02*
X87640342Y-115426952D01*
X87640342Y-115426952D02*
X87735580Y-115474571D01*
X87735580Y-115474571D02*
X87783200Y-115522190D01*
X87783200Y-115522190D02*
X87830819Y-115617428D01*
X87830819Y-115617428D02*
X87830819Y-115998380D01*
X87830819Y-115998380D02*
X86830819Y-115998380D01*
X86830819Y-115998380D02*
X86830819Y-115665047D01*
X86830819Y-115665047D02*
X86878438Y-115569809D01*
X86878438Y-115569809D02*
X86926057Y-115522190D01*
X86926057Y-115522190D02*
X87021295Y-115474571D01*
X87021295Y-115474571D02*
X87116533Y-115474571D01*
X87116533Y-115474571D02*
X87211771Y-115522190D01*
X87211771Y-115522190D02*
X87259390Y-115569809D01*
X87259390Y-115569809D02*
X87307009Y-115665047D01*
X87307009Y-115665047D02*
X87307009Y-115998380D01*
X87926057Y-115236476D02*
X87926057Y-114474571D01*
X86830819Y-114236475D02*
X87640342Y-114236475D01*
X87640342Y-114236475D02*
X87735580Y-114188856D01*
X87735580Y-114188856D02*
X87783200Y-114141237D01*
X87783200Y-114141237D02*
X87830819Y-114045999D01*
X87830819Y-114045999D02*
X87830819Y-113855523D01*
X87830819Y-113855523D02*
X87783200Y-113760285D01*
X87783200Y-113760285D02*
X87735580Y-113712666D01*
X87735580Y-113712666D02*
X87640342Y-113665047D01*
X87640342Y-113665047D02*
X86830819Y-113665047D01*
X87545104Y-113236475D02*
X87545104Y-112760285D01*
X87830819Y-113331713D02*
X86830819Y-112998380D01*
X86830819Y-112998380D02*
X87830819Y-112665047D01*
X87830819Y-111760285D02*
X87354628Y-112093618D01*
X87830819Y-112331713D02*
X86830819Y-112331713D01*
X86830819Y-112331713D02*
X86830819Y-111950761D01*
X86830819Y-111950761D02*
X86878438Y-111855523D01*
X86878438Y-111855523D02*
X86926057Y-111807904D01*
X86926057Y-111807904D02*
X87021295Y-111760285D01*
X87021295Y-111760285D02*
X87164152Y-111760285D01*
X87164152Y-111760285D02*
X87259390Y-111807904D01*
X87259390Y-111807904D02*
X87307009Y-111855523D01*
X87307009Y-111855523D02*
X87354628Y-111950761D01*
X87354628Y-111950761D02*
X87354628Y-112331713D01*
X86830819Y-111474570D02*
X86830819Y-110903142D01*
X87830819Y-111188856D02*
X86830819Y-111188856D01*
X87830819Y-110045999D02*
X87830819Y-110617427D01*
X87830819Y-110331713D02*
X86830819Y-110331713D01*
X86830819Y-110331713D02*
X86973676Y-110426951D01*
X86973676Y-110426951D02*
X87068914Y-110522189D01*
X87068914Y-110522189D02*
X87116533Y-110617427D01*
X162427200Y-118629332D02*
X162474819Y-118486475D01*
X162474819Y-118486475D02*
X162474819Y-118248380D01*
X162474819Y-118248380D02*
X162427200Y-118153142D01*
X162427200Y-118153142D02*
X162379580Y-118105523D01*
X162379580Y-118105523D02*
X162284342Y-118057904D01*
X162284342Y-118057904D02*
X162189104Y-118057904D01*
X162189104Y-118057904D02*
X162093866Y-118105523D01*
X162093866Y-118105523D02*
X162046247Y-118153142D01*
X162046247Y-118153142D02*
X161998628Y-118248380D01*
X161998628Y-118248380D02*
X161951009Y-118438856D01*
X161951009Y-118438856D02*
X161903390Y-118534094D01*
X161903390Y-118534094D02*
X161855771Y-118581713D01*
X161855771Y-118581713D02*
X161760533Y-118629332D01*
X161760533Y-118629332D02*
X161665295Y-118629332D01*
X161665295Y-118629332D02*
X161570057Y-118581713D01*
X161570057Y-118581713D02*
X161522438Y-118534094D01*
X161522438Y-118534094D02*
X161474819Y-118438856D01*
X161474819Y-118438856D02*
X161474819Y-118200761D01*
X161474819Y-118200761D02*
X161522438Y-118057904D01*
X161474819Y-117724570D02*
X162474819Y-117486475D01*
X162474819Y-117486475D02*
X161760533Y-117295999D01*
X161760533Y-117295999D02*
X162474819Y-117105523D01*
X162474819Y-117105523D02*
X161474819Y-116867428D01*
X162474819Y-115962666D02*
X162474819Y-116534094D01*
X162474819Y-116248380D02*
X161474819Y-116248380D01*
X161474819Y-116248380D02*
X161617676Y-116343618D01*
X161617676Y-116343618D02*
X161712914Y-116438856D01*
X161712914Y-116438856D02*
X161760533Y-116534094D01*
X162427200Y-107961332D02*
X162474819Y-107818475D01*
X162474819Y-107818475D02*
X162474819Y-107580380D01*
X162474819Y-107580380D02*
X162427200Y-107485142D01*
X162427200Y-107485142D02*
X162379580Y-107437523D01*
X162379580Y-107437523D02*
X162284342Y-107389904D01*
X162284342Y-107389904D02*
X162189104Y-107389904D01*
X162189104Y-107389904D02*
X162093866Y-107437523D01*
X162093866Y-107437523D02*
X162046247Y-107485142D01*
X162046247Y-107485142D02*
X161998628Y-107580380D01*
X161998628Y-107580380D02*
X161951009Y-107770856D01*
X161951009Y-107770856D02*
X161903390Y-107866094D01*
X161903390Y-107866094D02*
X161855771Y-107913713D01*
X161855771Y-107913713D02*
X161760533Y-107961332D01*
X161760533Y-107961332D02*
X161665295Y-107961332D01*
X161665295Y-107961332D02*
X161570057Y-107913713D01*
X161570057Y-107913713D02*
X161522438Y-107866094D01*
X161522438Y-107866094D02*
X161474819Y-107770856D01*
X161474819Y-107770856D02*
X161474819Y-107532761D01*
X161474819Y-107532761D02*
X161522438Y-107389904D01*
X161474819Y-107056570D02*
X162474819Y-106818475D01*
X162474819Y-106818475D02*
X161760533Y-106627999D01*
X161760533Y-106627999D02*
X162474819Y-106437523D01*
X162474819Y-106437523D02*
X161474819Y-106199428D01*
X161570057Y-105866094D02*
X161522438Y-105818475D01*
X161522438Y-105818475D02*
X161474819Y-105723237D01*
X161474819Y-105723237D02*
X161474819Y-105485142D01*
X161474819Y-105485142D02*
X161522438Y-105389904D01*
X161522438Y-105389904D02*
X161570057Y-105342285D01*
X161570057Y-105342285D02*
X161665295Y-105294666D01*
X161665295Y-105294666D02*
X161760533Y-105294666D01*
X161760533Y-105294666D02*
X161903390Y-105342285D01*
X161903390Y-105342285D02*
X162474819Y-105913713D01*
X162474819Y-105913713D02*
X162474819Y-105294666D01*
X138249819Y-75247142D02*
X137249819Y-75247142D01*
X137726009Y-75247142D02*
X137726009Y-74675714D01*
X138249819Y-74675714D02*
X137249819Y-74675714D01*
X138154580Y-73628095D02*
X138202200Y-73675714D01*
X138202200Y-73675714D02*
X138249819Y-73818571D01*
X138249819Y-73818571D02*
X138249819Y-73913809D01*
X138249819Y-73913809D02*
X138202200Y-74056666D01*
X138202200Y-74056666D02*
X138106961Y-74151904D01*
X138106961Y-74151904D02*
X138011723Y-74199523D01*
X138011723Y-74199523D02*
X137821247Y-74247142D01*
X137821247Y-74247142D02*
X137678390Y-74247142D01*
X137678390Y-74247142D02*
X137487914Y-74199523D01*
X137487914Y-74199523D02*
X137392676Y-74151904D01*
X137392676Y-74151904D02*
X137297438Y-74056666D01*
X137297438Y-74056666D02*
X137249819Y-73913809D01*
X137249819Y-73913809D02*
X137249819Y-73818571D01*
X137249819Y-73818571D02*
X137297438Y-73675714D01*
X137297438Y-73675714D02*
X137345057Y-73628095D01*
X137868866Y-73199523D02*
X137868866Y-72437619D01*
X138202200Y-72009047D02*
X138249819Y-71866190D01*
X138249819Y-71866190D02*
X138249819Y-71628095D01*
X138249819Y-71628095D02*
X138202200Y-71532857D01*
X138202200Y-71532857D02*
X138154580Y-71485238D01*
X138154580Y-71485238D02*
X138059342Y-71437619D01*
X138059342Y-71437619D02*
X137964104Y-71437619D01*
X137964104Y-71437619D02*
X137868866Y-71485238D01*
X137868866Y-71485238D02*
X137821247Y-71532857D01*
X137821247Y-71532857D02*
X137773628Y-71628095D01*
X137773628Y-71628095D02*
X137726009Y-71818571D01*
X137726009Y-71818571D02*
X137678390Y-71913809D01*
X137678390Y-71913809D02*
X137630771Y-71961428D01*
X137630771Y-71961428D02*
X137535533Y-72009047D01*
X137535533Y-72009047D02*
X137440295Y-72009047D01*
X137440295Y-72009047D02*
X137345057Y-71961428D01*
X137345057Y-71961428D02*
X137297438Y-71913809D01*
X137297438Y-71913809D02*
X137249819Y-71818571D01*
X137249819Y-71818571D02*
X137249819Y-71580476D01*
X137249819Y-71580476D02*
X137297438Y-71437619D01*
X138249819Y-70437619D02*
X137773628Y-70770952D01*
X138249819Y-71009047D02*
X137249819Y-71009047D01*
X137249819Y-71009047D02*
X137249819Y-70628095D01*
X137249819Y-70628095D02*
X137297438Y-70532857D01*
X137297438Y-70532857D02*
X137345057Y-70485238D01*
X137345057Y-70485238D02*
X137440295Y-70437619D01*
X137440295Y-70437619D02*
X137583152Y-70437619D01*
X137583152Y-70437619D02*
X137678390Y-70485238D01*
X137678390Y-70485238D02*
X137726009Y-70532857D01*
X137726009Y-70532857D02*
X137773628Y-70628095D01*
X137773628Y-70628095D02*
X137773628Y-71009047D01*
X137583152Y-69580476D02*
X138249819Y-69580476D01*
X137202200Y-69818571D02*
X137916485Y-70056666D01*
X137916485Y-70056666D02*
X137916485Y-69437619D01*
X83738095Y-69254819D02*
X83738095Y-68254819D01*
X83738095Y-68731009D02*
X84309523Y-68731009D01*
X84309523Y-69254819D02*
X84309523Y-68254819D01*
X85214285Y-68588152D02*
X85214285Y-69254819D01*
X84976190Y-68207200D02*
X84738095Y-68921485D01*
X84738095Y-68921485D02*
X85357142Y-68921485D01*
X158738095Y-69254819D02*
X158738095Y-68254819D01*
X158738095Y-68731009D02*
X159309523Y-68731009D01*
X159309523Y-69254819D02*
X159309523Y-68254819D01*
X160309523Y-69254819D02*
X159738095Y-69254819D01*
X160023809Y-69254819D02*
X160023809Y-68254819D01*
X160023809Y-68254819D02*
X159928571Y-68397676D01*
X159928571Y-68397676D02*
X159833333Y-68492914D01*
X159833333Y-68492914D02*
X159738095Y-68540533D01*
X158738095Y-124254819D02*
X158738095Y-123254819D01*
X158738095Y-123731009D02*
X159309523Y-123731009D01*
X159309523Y-124254819D02*
X159309523Y-123254819D01*
X159738095Y-123350057D02*
X159785714Y-123302438D01*
X159785714Y-123302438D02*
X159880952Y-123254819D01*
X159880952Y-123254819D02*
X160119047Y-123254819D01*
X160119047Y-123254819D02*
X160214285Y-123302438D01*
X160214285Y-123302438D02*
X160261904Y-123350057D01*
X160261904Y-123350057D02*
X160309523Y-123445295D01*
X160309523Y-123445295D02*
X160309523Y-123540533D01*
X160309523Y-123540533D02*
X160261904Y-123683390D01*
X160261904Y-123683390D02*
X159690476Y-124254819D01*
X159690476Y-124254819D02*
X160309523Y-124254819D01*
X93305333Y-73208080D02*
X93257714Y-73255700D01*
X93257714Y-73255700D02*
X93114857Y-73303319D01*
X93114857Y-73303319D02*
X93019619Y-73303319D01*
X93019619Y-73303319D02*
X92876762Y-73255700D01*
X92876762Y-73255700D02*
X92781524Y-73160461D01*
X92781524Y-73160461D02*
X92733905Y-73065223D01*
X92733905Y-73065223D02*
X92686286Y-72874747D01*
X92686286Y-72874747D02*
X92686286Y-72731890D01*
X92686286Y-72731890D02*
X92733905Y-72541414D01*
X92733905Y-72541414D02*
X92781524Y-72446176D01*
X92781524Y-72446176D02*
X92876762Y-72350938D01*
X92876762Y-72350938D02*
X93019619Y-72303319D01*
X93019619Y-72303319D02*
X93114857Y-72303319D01*
X93114857Y-72303319D02*
X93257714Y-72350938D01*
X93257714Y-72350938D02*
X93305333Y-72398557D01*
X93686286Y-72398557D02*
X93733905Y-72350938D01*
X93733905Y-72350938D02*
X93829143Y-72303319D01*
X93829143Y-72303319D02*
X94067238Y-72303319D01*
X94067238Y-72303319D02*
X94162476Y-72350938D01*
X94162476Y-72350938D02*
X94210095Y-72398557D01*
X94210095Y-72398557D02*
X94257714Y-72493795D01*
X94257714Y-72493795D02*
X94257714Y-72589033D01*
X94257714Y-72589033D02*
X94210095Y-72731890D01*
X94210095Y-72731890D02*
X93638667Y-73303319D01*
X93638667Y-73303319D02*
X94257714Y-73303319D01*
X93305333Y-75688319D02*
X92972000Y-75212128D01*
X92733905Y-75688319D02*
X92733905Y-74688319D01*
X92733905Y-74688319D02*
X93114857Y-74688319D01*
X93114857Y-74688319D02*
X93210095Y-74735938D01*
X93210095Y-74735938D02*
X93257714Y-74783557D01*
X93257714Y-74783557D02*
X93305333Y-74878795D01*
X93305333Y-74878795D02*
X93305333Y-75021652D01*
X93305333Y-75021652D02*
X93257714Y-75116890D01*
X93257714Y-75116890D02*
X93210095Y-75164509D01*
X93210095Y-75164509D02*
X93114857Y-75212128D01*
X93114857Y-75212128D02*
X92733905Y-75212128D01*
X93638667Y-74688319D02*
X94257714Y-74688319D01*
X94257714Y-74688319D02*
X93924381Y-75069271D01*
X93924381Y-75069271D02*
X94067238Y-75069271D01*
X94067238Y-75069271D02*
X94162476Y-75116890D01*
X94162476Y-75116890D02*
X94210095Y-75164509D01*
X94210095Y-75164509D02*
X94257714Y-75259747D01*
X94257714Y-75259747D02*
X94257714Y-75497842D01*
X94257714Y-75497842D02*
X94210095Y-75593080D01*
X94210095Y-75593080D02*
X94162476Y-75640700D01*
X94162476Y-75640700D02*
X94067238Y-75688319D01*
X94067238Y-75688319D02*
X93781524Y-75688319D01*
X93781524Y-75688319D02*
X93686286Y-75640700D01*
X93686286Y-75640700D02*
X93638667Y-75593080D01*
X137912819Y-129119047D02*
X136912819Y-129119047D01*
X136912819Y-129119047D02*
X136912819Y-128880952D01*
X136912819Y-128880952D02*
X136960438Y-128738095D01*
X136960438Y-128738095D02*
X137055676Y-128642857D01*
X137055676Y-128642857D02*
X137150914Y-128595238D01*
X137150914Y-128595238D02*
X137341390Y-128547619D01*
X137341390Y-128547619D02*
X137484247Y-128547619D01*
X137484247Y-128547619D02*
X137674723Y-128595238D01*
X137674723Y-128595238D02*
X137769961Y-128642857D01*
X137769961Y-128642857D02*
X137865200Y-128738095D01*
X137865200Y-128738095D02*
X137912819Y-128880952D01*
X137912819Y-128880952D02*
X137912819Y-129119047D01*
X137912819Y-128119047D02*
X136912819Y-128119047D01*
X137389009Y-128119047D02*
X137389009Y-127547619D01*
X137912819Y-127547619D02*
X136912819Y-127547619D01*
X136912819Y-127214285D02*
X136912819Y-126642857D01*
X137912819Y-126928571D02*
X136912819Y-126928571D01*
X137008057Y-126357142D02*
X136960438Y-126309523D01*
X136960438Y-126309523D02*
X136912819Y-126214285D01*
X136912819Y-126214285D02*
X136912819Y-125976190D01*
X136912819Y-125976190D02*
X136960438Y-125880952D01*
X136960438Y-125880952D02*
X137008057Y-125833333D01*
X137008057Y-125833333D02*
X137103295Y-125785714D01*
X137103295Y-125785714D02*
X137198533Y-125785714D01*
X137198533Y-125785714D02*
X137341390Y-125833333D01*
X137341390Y-125833333D02*
X137912819Y-126404761D01*
X137912819Y-126404761D02*
X137912819Y-125785714D01*
X137008057Y-125404761D02*
X136960438Y-125357142D01*
X136960438Y-125357142D02*
X136912819Y-125261904D01*
X136912819Y-125261904D02*
X136912819Y-125023809D01*
X136912819Y-125023809D02*
X136960438Y-124928571D01*
X136960438Y-124928571D02*
X137008057Y-124880952D01*
X137008057Y-124880952D02*
X137103295Y-124833333D01*
X137103295Y-124833333D02*
X137198533Y-124833333D01*
X137198533Y-124833333D02*
X137341390Y-124880952D01*
X137341390Y-124880952D02*
X137912819Y-125452380D01*
X137912819Y-125452380D02*
X137912819Y-124833333D01*
X113117333Y-115120819D02*
X112784000Y-114644628D01*
X112545905Y-115120819D02*
X112545905Y-114120819D01*
X112545905Y-114120819D02*
X112926857Y-114120819D01*
X112926857Y-114120819D02*
X113022095Y-114168438D01*
X113022095Y-114168438D02*
X113069714Y-114216057D01*
X113069714Y-114216057D02*
X113117333Y-114311295D01*
X113117333Y-114311295D02*
X113117333Y-114454152D01*
X113117333Y-114454152D02*
X113069714Y-114549390D01*
X113069714Y-114549390D02*
X113022095Y-114597009D01*
X113022095Y-114597009D02*
X112926857Y-114644628D01*
X112926857Y-114644628D02*
X112545905Y-114644628D01*
X114069714Y-115120819D02*
X113498286Y-115120819D01*
X113784000Y-115120819D02*
X113784000Y-114120819D01*
X113784000Y-114120819D02*
X113688762Y-114263676D01*
X113688762Y-114263676D02*
X113593524Y-114358914D01*
X113593524Y-114358914D02*
X113498286Y-114406533D01*
X113117333Y-119184819D02*
X112784000Y-118708628D01*
X112545905Y-119184819D02*
X112545905Y-118184819D01*
X112545905Y-118184819D02*
X112926857Y-118184819D01*
X112926857Y-118184819D02*
X113022095Y-118232438D01*
X113022095Y-118232438D02*
X113069714Y-118280057D01*
X113069714Y-118280057D02*
X113117333Y-118375295D01*
X113117333Y-118375295D02*
X113117333Y-118518152D01*
X113117333Y-118518152D02*
X113069714Y-118613390D01*
X113069714Y-118613390D02*
X113022095Y-118661009D01*
X113022095Y-118661009D02*
X112926857Y-118708628D01*
X112926857Y-118708628D02*
X112545905Y-118708628D01*
X113974476Y-118518152D02*
X113974476Y-119184819D01*
X113736381Y-118137200D02*
X113498286Y-118851485D01*
X113498286Y-118851485D02*
X114117333Y-118851485D01*
X88064819Y-125417713D02*
X87064819Y-125417713D01*
X87064819Y-125417713D02*
X87779104Y-125084380D01*
X87779104Y-125084380D02*
X87064819Y-124751047D01*
X87064819Y-124751047D02*
X88064819Y-124751047D01*
X88160057Y-123608190D02*
X88112438Y-123703428D01*
X88112438Y-123703428D02*
X88017200Y-123798666D01*
X88017200Y-123798666D02*
X87874342Y-123941523D01*
X87874342Y-123941523D02*
X87826723Y-124036761D01*
X87826723Y-124036761D02*
X87826723Y-124131999D01*
X88064819Y-124084380D02*
X88017200Y-124179618D01*
X88017200Y-124179618D02*
X87921961Y-124274856D01*
X87921961Y-124274856D02*
X87731485Y-124322475D01*
X87731485Y-124322475D02*
X87398152Y-124322475D01*
X87398152Y-124322475D02*
X87207676Y-124274856D01*
X87207676Y-124274856D02*
X87112438Y-124179618D01*
X87112438Y-124179618D02*
X87064819Y-124084380D01*
X87064819Y-124084380D02*
X87064819Y-123893904D01*
X87064819Y-123893904D02*
X87112438Y-123798666D01*
X87112438Y-123798666D02*
X87207676Y-123703428D01*
X87207676Y-123703428D02*
X87398152Y-123655809D01*
X87398152Y-123655809D02*
X87731485Y-123655809D01*
X87731485Y-123655809D02*
X87921961Y-123703428D01*
X87921961Y-123703428D02*
X88017200Y-123798666D01*
X88017200Y-123798666D02*
X88064819Y-123893904D01*
X88064819Y-123893904D02*
X88064819Y-124084380D01*
X88064819Y-122703428D02*
X88064819Y-123274856D01*
X88064819Y-122989142D02*
X87064819Y-122989142D01*
X87064819Y-122989142D02*
X87207676Y-123084380D01*
X87207676Y-123084380D02*
X87302914Y-123179618D01*
X87302914Y-123179618D02*
X87350533Y-123274856D01*
X87064819Y-122370094D02*
X87064819Y-121751047D01*
X87064819Y-121751047D02*
X87445771Y-122084380D01*
X87445771Y-122084380D02*
X87445771Y-121941523D01*
X87445771Y-121941523D02*
X87493390Y-121846285D01*
X87493390Y-121846285D02*
X87541009Y-121798666D01*
X87541009Y-121798666D02*
X87636247Y-121751047D01*
X87636247Y-121751047D02*
X87874342Y-121751047D01*
X87874342Y-121751047D02*
X87969580Y-121798666D01*
X87969580Y-121798666D02*
X88017200Y-121846285D01*
X88017200Y-121846285D02*
X88064819Y-121941523D01*
X88064819Y-121941523D02*
X88064819Y-122227237D01*
X88064819Y-122227237D02*
X88017200Y-122322475D01*
X88017200Y-122322475D02*
X87969580Y-122370094D01*
X87064819Y-120846285D02*
X87064819Y-121322475D01*
X87064819Y-121322475D02*
X87541009Y-121370094D01*
X87541009Y-121370094D02*
X87493390Y-121322475D01*
X87493390Y-121322475D02*
X87445771Y-121227237D01*
X87445771Y-121227237D02*
X87445771Y-120989142D01*
X87445771Y-120989142D02*
X87493390Y-120893904D01*
X87493390Y-120893904D02*
X87541009Y-120846285D01*
X87541009Y-120846285D02*
X87636247Y-120798666D01*
X87636247Y-120798666D02*
X87874342Y-120798666D01*
X87874342Y-120798666D02*
X87969580Y-120846285D01*
X87969580Y-120846285D02*
X88017200Y-120893904D01*
X88017200Y-120893904D02*
X88064819Y-120989142D01*
X88064819Y-120989142D02*
X88064819Y-121227237D01*
X88064819Y-121227237D02*
X88017200Y-121322475D01*
X88017200Y-121322475D02*
X87969580Y-121370094D01*
D12*
X104936580Y-106640095D02*
X104127057Y-106640095D01*
X104127057Y-106640095D02*
X104031819Y-106687714D01*
X104031819Y-106687714D02*
X103984200Y-106735333D01*
X103984200Y-106735333D02*
X103936580Y-106830571D01*
X103936580Y-106830571D02*
X103936580Y-107021047D01*
X103936580Y-107021047D02*
X103984200Y-107116285D01*
X103984200Y-107116285D02*
X104031819Y-107163904D01*
X104031819Y-107163904D02*
X104127057Y-107211523D01*
X104127057Y-107211523D02*
X104936580Y-107211523D01*
X103936580Y-108211523D02*
X103936580Y-107640095D01*
X103936580Y-107925809D02*
X104936580Y-107925809D01*
X104936580Y-107925809D02*
X104793723Y-107830571D01*
X104793723Y-107830571D02*
X104698485Y-107735333D01*
X104698485Y-107735333D02*
X104650866Y-107640095D01*
D13*
%TO.C,MicroUSB_5V1A_Wall1*%
X112140000Y-127690000D02*
X114200000Y-127690000D01*
X112140000Y-129400000D02*
X112140000Y-127690000D01*
X114200000Y-127690000D02*
X114200000Y-127100000D01*
X119860000Y-127690000D02*
X117800000Y-127690000D01*
X119860000Y-129400000D02*
X119860000Y-127690000D01*
%TO.C,R2*%
X113534500Y-106325936D02*
X113534500Y-106780064D01*
X112064500Y-106325936D02*
X112064500Y-106780064D01*
D14*
%TO.C,U2*%
X79702200Y-99428300D02*
X79702200Y-81165700D01*
X86542760Y-99428300D02*
X79702200Y-99428300D01*
X105457800Y-99428300D02*
X104607240Y-99428300D01*
X105457800Y-98059240D02*
X105457800Y-99428300D01*
X79702200Y-81165700D02*
X86542760Y-81165700D01*
X104607240Y-81165700D02*
X105457800Y-81165700D01*
X105457800Y-81165700D02*
X105457800Y-82534760D01*
D13*
%TO.C,USB_UART1*%
X83252000Y-105604000D02*
X84582000Y-105604000D01*
X83252000Y-106934000D02*
X83252000Y-105604000D01*
X83252000Y-108204000D02*
X83252000Y-120964000D01*
X83252000Y-108204000D02*
X85912000Y-108204000D01*
X83252000Y-120964000D02*
X85912000Y-120964000D01*
X85912000Y-108204000D02*
X85912000Y-120964000D01*
%TO.C,SW1*%
X158520000Y-113796000D02*
X157020000Y-113796000D01*
X154520000Y-115046000D02*
X154520000Y-119546000D01*
X161020000Y-119546000D02*
X161020000Y-115046000D01*
X157020000Y-120796000D02*
X158520000Y-120796000D01*
%TO.C,SW2*%
X158520000Y-103128000D02*
X157020000Y-103128000D01*
X154520000Y-104378000D02*
X154520000Y-108878000D01*
X161020000Y-108878000D02*
X161020000Y-104378000D01*
X157020000Y-110128000D02*
X158520000Y-110128000D01*
%TO.C,HC-SR4*%
X133604000Y-72196000D02*
X125924000Y-72196000D01*
X125924000Y-69536000D02*
X125924000Y-72196000D01*
X133604000Y-69536000D02*
X133604000Y-72196000D01*
X133604000Y-69536000D02*
X125924000Y-69536000D01*
X134874000Y-69536000D02*
X136204000Y-69536000D01*
X136204000Y-69536000D02*
X136204000Y-70866000D01*
%TO.C,C2*%
X93733252Y-71903500D02*
X93210748Y-71903500D01*
X93733252Y-70433500D02*
X93210748Y-70433500D01*
%TO.C,R3*%
X93244936Y-76148500D02*
X93699064Y-76148500D01*
X93244936Y-77618500D02*
X93699064Y-77618500D01*
%TO.C,DHT22*%
X133858000Y-128330000D02*
X126178000Y-128330000D01*
X135128000Y-125670000D02*
X136458000Y-125670000D01*
X126178000Y-125670000D02*
X126178000Y-128330000D01*
X133858000Y-125670000D02*
X133858000Y-128330000D01*
X136458000Y-125670000D02*
X136458000Y-127000000D01*
X133858000Y-125670000D02*
X126178000Y-125670000D01*
%TO.C,R1*%
X111364000Y-117506000D02*
X115204000Y-117506000D01*
X111364000Y-115666000D02*
X115204000Y-115666000D01*
%TO.C,R4*%
X111364000Y-121570000D02*
X115204000Y-121570000D01*
X111364000Y-119730000D02*
X115204000Y-119730000D01*
%TO.C,MQ135*%
X108235000Y-123132000D02*
G75*
G03*
X88985000Y-123132000I-9625000J0D01*
G01*
X88985000Y-123132000D02*
G75*
G03*
X108235000Y-123132000I9625000J0D01*
G01*
%TD*%
M02*
