%TF.GenerationSoftware,KiCad,Pcbnew,7.0.10*%
%TF.CreationDate,2024-03-26T13:41:38-05:00*%
%TF.ProjectId,ESP32,45535033-322e-46b6-9963-61645f706362,rev?*%
%TF.SameCoordinates,Original*%
%TF.FileFunction,Soldermask,Top*%
%TF.FilePolarity,Negative*%
%FSLAX46Y46*%
G04 Gerber Fmt 4.6, Leading zero omitted, Abs format (unit mm)*
G04 Created by KiCad (PCBNEW 7.0.10) date 2024-03-26 13:41:38*
%MOMM*%
%LPD*%
G01*
G04 APERTURE LIST*
G04 Aperture macros list*
%AMRoundRect*
0 Rectangle with rounded corners*
0 $1 Rounding radius*
0 $2 $3 $4 $5 $6 $7 $8 $9 X,Y pos of 4 corners*
0 Add a 4 corners polygon primitive as box body*
4,1,4,$2,$3,$4,$5,$6,$7,$8,$9,$2,$3,0*
0 Add four circle primitives for the rounded corners*
1,1,$1+$1,$2,$3*
1,1,$1+$1,$4,$5*
1,1,$1+$1,$6,$7*
1,1,$1+$1,$8,$9*
0 Add four rect primitives between the rounded corners*
20,1,$1+$1,$2,$3,$4,$5,0*
20,1,$1+$1,$4,$5,$6,$7,0*
20,1,$1+$1,$6,$7,$8,$9,0*
20,1,$1+$1,$8,$9,$2,$3,0*%
G04 Aperture macros list end*
%ADD10C,3.200000*%
%ADD11R,0.400000X1.400000*%
%ADD12R,2.300000X1.900000*%
%ADD13R,1.800000X1.900000*%
%ADD14RoundRect,0.250000X-0.450000X0.262500X-0.450000X-0.262500X0.450000X-0.262500X0.450000X0.262500X0*%
%ADD15R,0.889000X1.498600*%
%ADD16R,1.498600X0.889000*%
%ADD17R,0.889000X0.889000*%
%ADD18R,1.700000X1.700000*%
%ADD19O,1.700000X1.700000*%
%ADD20C,2.000000*%
%ADD21RoundRect,0.250000X0.250000X0.475000X-0.250000X0.475000X-0.250000X-0.475000X0.250000X-0.475000X0*%
%ADD22RoundRect,0.250000X-0.262500X-0.450000X0.262500X-0.450000X0.262500X0.450000X-0.262500X0.450000X0*%
%ADD23C,1.400000*%
%ADD24O,1.400000X1.400000*%
%ADD25R,2.000000X2.000000*%
%ADD26R,2.500000X1.500000*%
%ADD27R,7.000000X7.000000*%
G04 APERTURE END LIST*
D10*
%TO.C,H3*%
X84500000Y-128000000D03*
%TD*%
D11*
%TO.C,MicroUSB_5V1A_Wall1*%
X114700000Y-127800000D03*
X115350000Y-127800000D03*
X116000000Y-127800000D03*
X116650000Y-127800000D03*
X117300000Y-127800000D03*
D12*
X112250000Y-130650000D03*
D13*
X114850000Y-130650000D03*
X117150000Y-130650000D03*
D12*
X119750000Y-130650000D03*
%TD*%
D14*
%TO.C,R2*%
X112799500Y-105640500D03*
X112799500Y-107465500D03*
%TD*%
D15*
%TO.C,U2*%
X87320000Y-99047000D03*
X88590000Y-99047000D03*
X89860000Y-99047000D03*
X91130000Y-99047000D03*
X92400000Y-99047000D03*
X93670000Y-99047000D03*
X94940000Y-99047000D03*
X96210000Y-99047000D03*
X97480000Y-99047000D03*
X98750000Y-99047000D03*
X100020000Y-99047000D03*
X101290000Y-99047000D03*
X102560000Y-99047000D03*
X103830000Y-99047000D03*
D16*
X105080000Y-97282000D03*
X105080000Y-96012000D03*
X105080000Y-94742000D03*
X105080000Y-93472000D03*
X105080000Y-92202000D03*
X105080000Y-90932000D03*
X105080000Y-89662000D03*
X105080000Y-88392000D03*
X105080000Y-87122000D03*
X105080000Y-85852000D03*
X105080000Y-84582000D03*
X105080000Y-83312000D03*
D15*
X103830000Y-81547000D03*
X102560000Y-81547000D03*
X101290000Y-81547000D03*
X100020000Y-81547000D03*
X98750000Y-81547000D03*
X97480000Y-81547000D03*
X96210000Y-81547000D03*
X94940000Y-81547000D03*
X93670000Y-81547000D03*
X92400000Y-81547000D03*
X91130000Y-81547000D03*
X89860000Y-81547000D03*
X88590000Y-81547000D03*
X87320000Y-81547000D03*
D17*
X95040000Y-91547000D03*
X93640000Y-91547000D03*
X93640000Y-92947000D03*
X95040000Y-92947000D03*
X96440000Y-92947000D03*
X96440000Y-91547000D03*
X96440000Y-90147000D03*
X95040000Y-90147000D03*
X93640000Y-90147000D03*
%TD*%
D18*
%TO.C,USB_UART1*%
X84582000Y-106934000D03*
D19*
X84582000Y-109474000D03*
X84582000Y-112014000D03*
X84582000Y-114554000D03*
X84582000Y-117094000D03*
X84582000Y-119634000D03*
%TD*%
D20*
%TO.C,SW1*%
X160020000Y-114046000D03*
X160020000Y-120546000D03*
X155520000Y-114046000D03*
X155520000Y-120546000D03*
%TD*%
%TO.C,SW2*%
X160020000Y-103378000D03*
X160020000Y-109878000D03*
X155520000Y-103378000D03*
X155520000Y-109878000D03*
%TD*%
D19*
%TO.C,HC-SR4*%
X127254000Y-70866000D03*
X129794000Y-70866000D03*
X132334000Y-70866000D03*
D18*
X134874000Y-70866000D03*
%TD*%
D10*
%TO.C,H4*%
X84500000Y-73000000D03*
%TD*%
%TO.C,H1*%
X159500000Y-73000000D03*
%TD*%
%TO.C,H2*%
X159500000Y-128000000D03*
%TD*%
D21*
%TO.C,C2*%
X94422000Y-71168500D03*
X92522000Y-71168500D03*
%TD*%
D22*
%TO.C,R3*%
X92559500Y-76883500D03*
X94384500Y-76883500D03*
%TD*%
D18*
%TO.C,DHT22*%
X135128000Y-127000000D03*
D19*
X132588000Y-127000000D03*
X130048000Y-127000000D03*
X127508000Y-127000000D03*
%TD*%
D23*
%TO.C,R1*%
X110744000Y-116586000D03*
D24*
X115824000Y-116586000D03*
%TD*%
D23*
%TO.C,R4*%
X110744000Y-120650000D03*
D24*
X115824000Y-120650000D03*
%TD*%
D20*
%TO.C,MQ135*%
X95250000Y-119772000D03*
X98610000Y-118382000D03*
X101970000Y-119772000D03*
X101970000Y-126492000D03*
X98610000Y-127882000D03*
D25*
X95250000Y-126492000D03*
%TD*%
D26*
%TO.C,U1*%
X92464000Y-109702000D03*
D27*
X99314000Y-107402000D03*
D26*
X92464000Y-105102000D03*
%TD*%
M02*
