%TF.GenerationSoftware,KiCad,Pcbnew,7.0.10*%
%TF.CreationDate,2024-03-26T13:41:38-05:00*%
%TF.ProjectId,ESP32,45535033-322e-46b6-9963-61645f706362,rev?*%
%TF.SameCoordinates,Original*%
%TF.FileFunction,Soldermask,Bot*%
%TF.FilePolarity,Negative*%
%FSLAX46Y46*%
G04 Gerber Fmt 4.6, Leading zero omitted, Abs format (unit mm)*
G04 Created by KiCad (PCBNEW 7.0.10) date 2024-03-26 13:41:38*
%MOMM*%
%LPD*%
G01*
G04 APERTURE LIST*
G04 Aperture macros list*
%AMRoundRect*
0 Rectangle with rounded corners*
0 $1 Rounding radius*
0 $2 $3 $4 $5 $6 $7 $8 $9 X,Y pos of 4 corners*
0 Add a 4 corners polygon primitive as box body*
4,1,4,$2,$3,$4,$5,$6,$7,$8,$9,$2,$3,0*
0 Add four circle primitives for the rounded corners*
1,1,$1+$1,$2,$3*
1,1,$1+$1,$4,$5*
1,1,$1+$1,$6,$7*
1,1,$1+$1,$8,$9*
0 Add four rect primitives between the rounded corners*
20,1,$1+$1,$2,$3,$4,$5,0*
20,1,$1+$1,$4,$5,$6,$7,0*
20,1,$1+$1,$6,$7,$8,$9,0*
20,1,$1+$1,$8,$9,$2,$3,0*%
G04 Aperture macros list end*
%ADD10C,3.200000*%
%ADD11R,1.700000X1.700000*%
%ADD12O,1.700000X1.700000*%
%ADD13C,2.000000*%
%ADD14RoundRect,0.250000X-0.262500X-0.450000X0.262500X-0.450000X0.262500X0.450000X-0.262500X0.450000X0*%
%ADD15RoundRect,0.250000X-0.475000X0.250000X-0.475000X-0.250000X0.475000X-0.250000X0.475000X0.250000X0*%
%ADD16RoundRect,0.250000X0.262500X0.450000X-0.262500X0.450000X-0.262500X-0.450000X0.262500X-0.450000X0*%
%ADD17RoundRect,0.250000X0.250000X0.475000X-0.250000X0.475000X-0.250000X-0.475000X0.250000X-0.475000X0*%
%ADD18C,1.400000*%
%ADD19O,1.400000X1.400000*%
%ADD20R,2.000000X2.000000*%
G04 APERTURE END LIST*
D10*
%TO.C,H3*%
X84500000Y-128000000D03*
%TD*%
D11*
%TO.C,USB_UART1*%
X84582000Y-106934000D03*
D12*
X84582000Y-109474000D03*
X84582000Y-112014000D03*
X84582000Y-114554000D03*
X84582000Y-117094000D03*
X84582000Y-119634000D03*
%TD*%
D13*
%TO.C,SW1*%
X160020000Y-114046000D03*
X160020000Y-120546000D03*
X155520000Y-114046000D03*
X155520000Y-120546000D03*
%TD*%
%TO.C,SW2*%
X160020000Y-103378000D03*
X160020000Y-109878000D03*
X155520000Y-103378000D03*
X155520000Y-109878000D03*
%TD*%
D12*
%TO.C,HC-SR4*%
X127254000Y-70866000D03*
X129794000Y-70866000D03*
X132334000Y-70866000D03*
D11*
X134874000Y-70866000D03*
%TD*%
D10*
%TO.C,H4*%
X84500000Y-73000000D03*
%TD*%
D14*
%TO.C,R7*%
X96791500Y-97409000D03*
X98616500Y-97409000D03*
%TD*%
%TO.C,R10*%
X88900000Y-89916000D03*
X90725000Y-89916000D03*
%TD*%
D15*
%TO.C,C3*%
X94996000Y-114874000D03*
X94996000Y-116774000D03*
%TD*%
D10*
%TO.C,H1*%
X159500000Y-73000000D03*
%TD*%
D15*
%TO.C,C5*%
X105156000Y-115128000D03*
X105156000Y-117028000D03*
%TD*%
D10*
%TO.C,H2*%
X159500000Y-128000000D03*
%TD*%
D15*
%TO.C,C4*%
X91440000Y-116774000D03*
X91440000Y-114874000D03*
%TD*%
D16*
%TO.C,R11*%
X90742500Y-93599000D03*
X88917500Y-93599000D03*
%TD*%
D17*
%TO.C,C1*%
X90762500Y-97409000D03*
X88862500Y-97409000D03*
%TD*%
D14*
%TO.C,R8*%
X99331500Y-89281000D03*
X101156500Y-89281000D03*
%TD*%
D11*
%TO.C,DHT22*%
X135128000Y-127000000D03*
D12*
X132588000Y-127000000D03*
X130048000Y-127000000D03*
X127508000Y-127000000D03*
%TD*%
D18*
%TO.C,R1*%
X110744000Y-116586000D03*
D19*
X115824000Y-116586000D03*
%TD*%
D18*
%TO.C,R4*%
X110744000Y-120650000D03*
D19*
X115824000Y-120650000D03*
%TD*%
D13*
%TO.C,MQ135*%
X95250000Y-119772000D03*
X98610000Y-118382000D03*
X101970000Y-119772000D03*
X101970000Y-126492000D03*
X98610000Y-127882000D03*
D20*
X95250000Y-126492000D03*
%TD*%
M02*
