%TF.GenerationSoftware,KiCad,Pcbnew,7.0.10*%
%TF.CreationDate,2024-03-01T12:09:53-06:00*%
%TF.ProjectId,ESP32,45535033-322e-46b6-9963-61645f706362,rev?*%
%TF.SameCoordinates,Original*%
%TF.FileFunction,Copper,L2,Bot*%
%TF.FilePolarity,Positive*%
%FSLAX46Y46*%
G04 Gerber Fmt 4.6, Leading zero omitted, Abs format (unit mm)*
G04 Created by KiCad (PCBNEW 7.0.10) date 2024-03-01 12:09:53*
%MOMM*%
%LPD*%
G01*
G04 APERTURE LIST*
G04 Aperture macros list*
%AMRoundRect*
0 Rectangle with rounded corners*
0 $1 Rounding radius*
0 $2 $3 $4 $5 $6 $7 $8 $9 X,Y pos of 4 corners*
0 Add a 4 corners polygon primitive as box body*
4,1,4,$2,$3,$4,$5,$6,$7,$8,$9,$2,$3,0*
0 Add four circle primitives for the rounded corners*
1,1,$1+$1,$2,$3*
1,1,$1+$1,$4,$5*
1,1,$1+$1,$6,$7*
1,1,$1+$1,$8,$9*
0 Add four rect primitives between the rounded corners*
20,1,$1+$1,$2,$3,$4,$5,0*
20,1,$1+$1,$4,$5,$6,$7,0*
20,1,$1+$1,$6,$7,$8,$9,0*
20,1,$1+$1,$8,$9,$2,$3,0*%
%AMFreePoly0*
4,1,6,1.000000,0.000000,0.500000,-0.750000,-0.500000,-0.750000,-0.500000,0.750000,0.500000,0.750000,1.000000,0.000000,1.000000,0.000000,$1*%
%AMFreePoly1*
4,1,7,0.700000,0.000000,1.200000,-0.750000,-1.200000,-0.750000,-0.700000,0.000000,-1.200000,0.750000,1.200000,0.750000,0.700000,0.000000,0.700000,0.000000,$1*%
G04 Aperture macros list end*
%TA.AperFunction,ComponentPad*%
%ADD10R,1.700000X1.700000*%
%TD*%
%TA.AperFunction,ComponentPad*%
%ADD11O,1.700000X1.700000*%
%TD*%
%TA.AperFunction,ComponentPad*%
%ADD12C,2.000000*%
%TD*%
%TA.AperFunction,SMDPad,CuDef*%
%ADD13RoundRect,0.250000X-0.262500X-0.450000X0.262500X-0.450000X0.262500X0.450000X-0.262500X0.450000X0*%
%TD*%
%TA.AperFunction,SMDPad,CuDef*%
%ADD14RoundRect,0.250000X-0.475000X0.250000X-0.475000X-0.250000X0.475000X-0.250000X0.475000X0.250000X0*%
%TD*%
%TA.AperFunction,SMDPad,CuDef*%
%ADD15RoundRect,0.250000X0.250000X0.475000X-0.250000X0.475000X-0.250000X-0.475000X0.250000X-0.475000X0*%
%TD*%
%TA.AperFunction,SMDPad,CuDef*%
%ADD16RoundRect,0.250000X0.262500X0.450000X-0.262500X0.450000X-0.262500X-0.450000X0.262500X-0.450000X0*%
%TD*%
%TA.AperFunction,SMDPad,CuDef*%
%ADD17FreePoly0,90.000000*%
%TD*%
%TA.AperFunction,SMDPad,CuDef*%
%ADD18FreePoly1,90.000000*%
%TD*%
%TA.AperFunction,SMDPad,CuDef*%
%ADD19FreePoly0,270.000000*%
%TD*%
%TA.AperFunction,ViaPad*%
%ADD20C,0.800000*%
%TD*%
%TA.AperFunction,ViaPad*%
%ADD21C,1.016000*%
%TD*%
%TA.AperFunction,Conductor*%
%ADD22C,0.508000*%
%TD*%
%TA.AperFunction,Conductor*%
%ADD23C,0.762000*%
%TD*%
%TA.AperFunction,Conductor*%
%ADD24C,0.254000*%
%TD*%
G04 APERTURE END LIST*
D10*
%TO.P,DHT22,1,Pin_1*%
%TO.N,+3V3*%
X131826000Y-128778000D03*
D11*
%TO.P,DHT22,2,Pin_2*%
%TO.N,/S*%
X129286000Y-128778000D03*
%TO.P,DHT22,3,Pin_3*%
%TO.N,GND*%
X126746000Y-128778000D03*
%TD*%
D10*
%TO.P,MQ135,1,Pin_1*%
%TO.N,+5V*%
X95250000Y-126492000D03*
D11*
%TO.P,MQ135,2,Pin_2*%
%TO.N,GND*%
X97790000Y-126492000D03*
%TO.P,MQ135,3,Pin_3*%
%TO.N,unconnected-(MQ135-Pin_3-Pad3)*%
X100330000Y-126492000D03*
%TO.P,MQ135,4,Pin_4*%
%TO.N,Net-(MQ135-Pin_4)*%
X102870000Y-126492000D03*
%TD*%
D12*
%TO.P,SW2,1,1*%
%TO.N,GND*%
X131282000Y-95302000D03*
X131282000Y-101802000D03*
%TO.P,SW2,2,2*%
%TO.N,/GPIO0_STRAPPING*%
X126782000Y-95302000D03*
X126782000Y-101802000D03*
%TD*%
D10*
%TO.P,USB_UART1,1,Pin_1*%
%TO.N,GND*%
X84582000Y-80010000D03*
D11*
%TO.P,USB_UART1,2,Pin_2*%
%TO.N,/RTS*%
X84582000Y-82550000D03*
%TO.P,USB_UART1,3,Pin_3*%
%TO.N,unconnected-(USB_UART1-Pin_3-Pad3)*%
X84582000Y-85090000D03*
%TO.P,USB_UART1,4,Pin_4*%
%TO.N,/RX*%
X84582000Y-87630000D03*
%TO.P,USB_UART1,5,Pin_5*%
%TO.N,/TX*%
X84582000Y-90170000D03*
%TO.P,USB_UART1,6,Pin_6*%
%TO.N,/DTR*%
X84582000Y-92710000D03*
%TD*%
D12*
%TO.P,SW1,1,1*%
%TO.N,GND*%
X131282000Y-106732000D03*
X131282000Y-113232000D03*
%TO.P,SW1,2,2*%
%TO.N,/CHIP_PU*%
X126782000Y-106732000D03*
X126782000Y-113232000D03*
%TD*%
D10*
%TO.P,HC-SR4,1,Pin_1*%
%TO.N,+5V*%
X117856000Y-70612000D03*
D11*
%TO.P,HC-SR4,2,Pin_2*%
%TO.N,/Trig*%
X115316000Y-70612000D03*
%TO.P,HC-SR4,3,Pin_3*%
%TO.N,Net-(HC-SR4-Pin_3)*%
X112776000Y-70612000D03*
%TO.P,HC-SR4,4,Pin_4*%
%TO.N,GND*%
X110236000Y-70612000D03*
%TD*%
D13*
%TO.P,R7,1*%
%TO.N,+3V3*%
X110339500Y-97790000D03*
%TO.P,R7,2*%
%TO.N,/CHIP_PU*%
X112164500Y-97790000D03*
%TD*%
%TO.P,R10,1*%
%TO.N,Net-(HC-SR4-Pin_3)*%
X102448000Y-90297000D03*
%TO.P,R10,2*%
%TO.N,/Echo*%
X104273000Y-90297000D03*
%TD*%
D14*
%TO.P,C3,1*%
%TO.N,+3V3*%
X94996000Y-115128000D03*
%TO.P,C3,2*%
%TO.N,GND*%
X94996000Y-117028000D03*
%TD*%
%TO.P,C5,1*%
%TO.N,+5V*%
X105156000Y-115128000D03*
%TO.P,C5,2*%
%TO.N,GND*%
X105156000Y-117028000D03*
%TD*%
%TO.P,C4,1*%
%TO.N,+3V3*%
X90551000Y-115128000D03*
%TO.P,C4,2*%
%TO.N,GND*%
X90551000Y-117028000D03*
%TD*%
D15*
%TO.P,C1,1*%
%TO.N,/CHIP_PU*%
X104310500Y-97790000D03*
%TO.P,C1,2*%
%TO.N,GND*%
X102410500Y-97790000D03*
%TD*%
D16*
%TO.P,R11,1*%
%TO.N,/Echo*%
X104290500Y-93980000D03*
%TO.P,R11,2*%
%TO.N,GND*%
X102465500Y-93980000D03*
%TD*%
D13*
%TO.P,R13,1*%
%TO.N,+3V3*%
X108307500Y-85090000D03*
%TO.P,R13,2*%
%TO.N,/ZMOD_SCL*%
X110132500Y-85090000D03*
%TD*%
D16*
%TO.P,R1,1*%
%TO.N,/GPIO46_STRAPPING*%
X112164500Y-93980000D03*
%TO.P,R1,2*%
%TO.N,+3V3*%
X110339500Y-93980000D03*
%TD*%
D13*
%TO.P,R12,1*%
%TO.N,+3V3*%
X113133500Y-85090000D03*
%TO.P,R12,2*%
%TO.N,/ZMOD_SDA*%
X114958500Y-85090000D03*
%TD*%
%TO.P,R8,1*%
%TO.N,+3V3*%
X112879500Y-89662000D03*
%TO.P,R8,2*%
%TO.N,/GPIO0_STRAPPING*%
X114704500Y-89662000D03*
%TD*%
D17*
%TO.P,JP1,1,A*%
%TO.N,GND*%
X100076000Y-118008000D03*
D18*
%TO.P,JP1,2,C*%
%TO.N,Net-(JP1-C)*%
X100076000Y-116008000D03*
D19*
%TO.P,JP1,3,B*%
%TO.N,+3V3*%
X100076000Y-114008000D03*
%TD*%
D16*
%TO.P,R4,1*%
%TO.N,/GPIO3_STRAPPING*%
X106369500Y-109093000D03*
%TO.P,R4,2*%
%TO.N,Net-(JP1-C)*%
X104544500Y-109093000D03*
%TD*%
D20*
%TO.N,GND*%
X100838000Y-83566000D03*
X90932000Y-112014000D03*
X90170000Y-83820000D03*
%TO.N,/CHIP_PU*%
X103378000Y-100838000D03*
X118872000Y-99060000D03*
%TO.N,GND*%
X138684000Y-114300000D03*
X108712000Y-80010000D03*
X123444000Y-114808000D03*
X100584000Y-109220000D03*
X95758000Y-79502000D03*
X114808000Y-87122000D03*
X104394000Y-85344000D03*
X103124000Y-121920000D03*
X84328000Y-108712000D03*
X128016000Y-74676000D03*
X138684000Y-101092000D03*
X121666000Y-109728000D03*
X111506000Y-86614000D03*
X102616000Y-115316000D03*
X101854000Y-77978000D03*
X100584000Y-86614000D03*
X111506000Y-116840000D03*
X114554000Y-122174000D03*
X122682000Y-91948000D03*
X139446000Y-84328000D03*
X113792000Y-96012000D03*
X115824000Y-102108000D03*
X108712000Y-88138000D03*
X95250000Y-120396000D03*
X84328000Y-118618000D03*
X84328000Y-100584000D03*
X113538000Y-91186000D03*
X116586000Y-74422000D03*
X103886000Y-71120000D03*
X100330000Y-93980000D03*
%TO.N,/GPIO0_STRAPPING*%
X117348000Y-78762700D03*
D21*
X117094000Y-83566000D03*
%TO.N,+3V3*%
X92964000Y-108458000D03*
X106680000Y-114047000D03*
X104949433Y-96434247D03*
X102108000Y-112268000D03*
D20*
%TO.N,/Trig*%
X105948000Y-89124000D03*
%TO.N,/RTS*%
X104232000Y-104394000D03*
X92710000Y-79756000D03*
%TO.N,/DTR*%
X94234000Y-85852000D03*
X98552000Y-79756000D03*
X112799500Y-104394000D03*
%TO.N,/GPIO46_STRAPPING*%
X116586000Y-96266000D03*
%TO.N,/GPIO3_STRAPPING*%
X120142000Y-97790000D03*
%TO.N,/Echo*%
X107188000Y-94742000D03*
%TO.N,/ZMOD_RES_N*%
X119366881Y-81124700D03*
X129533933Y-117608067D03*
%TO.N,/ZMOD_SDA*%
X113538000Y-83566000D03*
%TO.N,/ZMOD_SCL*%
X111760000Y-83566000D03*
%TD*%
D22*
%TO.N,/DTR*%
X112037500Y-103632000D02*
X112799500Y-104394000D01*
X104964261Y-103632000D02*
X112037500Y-103632000D01*
X94234000Y-92901739D02*
X104964261Y-103632000D01*
X94234000Y-84074000D02*
X98552000Y-79756000D01*
X94234000Y-85852000D02*
X94234000Y-92901739D01*
X94234000Y-85852000D02*
X94234000Y-84074000D01*
D23*
%TO.N,+3V3*%
X92964000Y-113096000D02*
X94996000Y-115128000D01*
X92964000Y-108458000D02*
X92964000Y-113096000D01*
D22*
%TO.N,/CHIP_PU*%
X117602000Y-97790000D02*
X112164500Y-97790000D01*
X105410000Y-99060000D02*
X110894500Y-99060000D01*
X110894500Y-99060000D02*
X112164500Y-97790000D01*
X104140000Y-97790000D02*
X105410000Y-99060000D01*
X104310500Y-97790000D02*
X104140000Y-97790000D01*
X104310500Y-99905500D02*
X103378000Y-100838000D01*
X104310500Y-97790000D02*
X104310500Y-99905500D01*
X118872000Y-99060000D02*
X117602000Y-97790000D01*
D23*
%TO.N,/GPIO0_STRAPPING*%
X117094000Y-87272500D02*
X117094000Y-83566000D01*
X114704500Y-89662000D02*
X117094000Y-87272500D01*
D22*
X117348000Y-78762700D02*
X117348000Y-83312000D01*
X117348000Y-83312000D02*
X117094000Y-83566000D01*
D23*
%TO.N,+3V3*%
X96116000Y-114008000D02*
X98806000Y-114008000D01*
X100368000Y-114008000D02*
X102108000Y-112268000D01*
X106680000Y-114047000D02*
X117095000Y-114047000D01*
X110339500Y-93980000D02*
X110339500Y-92202000D01*
X110339500Y-95114662D02*
X110339500Y-93980000D01*
X109001831Y-96452331D02*
X110339500Y-95114662D01*
X117095000Y-114047000D02*
X131826000Y-128778000D01*
X109001831Y-96452331D02*
X110339500Y-97790000D01*
X98806000Y-114008000D02*
X100076000Y-114008000D01*
D22*
X108307500Y-85090000D02*
X112879500Y-89662000D01*
D23*
X110339500Y-92202000D02*
X112879500Y-89662000D01*
D22*
X112879500Y-85344000D02*
X112879500Y-89662000D01*
D23*
X90551000Y-115128000D02*
X94996000Y-115128000D01*
X98806000Y-114008000D02*
X100368000Y-114008000D01*
X104949433Y-96434247D02*
X104967517Y-96452331D01*
D22*
X113133500Y-85090000D02*
X112879500Y-85344000D01*
D23*
X104967517Y-96452331D02*
X109001831Y-96452331D01*
X94996000Y-115128000D02*
X96116000Y-114008000D01*
%TO.N,+5V*%
X105156000Y-115128000D02*
X105156000Y-114030921D01*
X95250000Y-125026862D02*
X105148862Y-115128000D01*
X121123000Y-96993000D02*
X118340676Y-94210676D01*
X118340676Y-71096676D02*
X117856000Y-70612000D01*
X105148862Y-115128000D02*
X105156000Y-115128000D01*
X121123000Y-100975662D02*
X121123000Y-96993000D01*
X105156000Y-114030921D02*
X109258921Y-109928000D01*
X118340676Y-94210676D02*
X118340676Y-71096676D01*
X95250000Y-126492000D02*
X95250000Y-125026862D01*
X109258921Y-109928000D02*
X112170662Y-109928000D01*
X112170662Y-109928000D02*
X121123000Y-100975662D01*
D22*
%TO.N,/Trig*%
X105948000Y-89124000D02*
X105948000Y-78441264D01*
X113484000Y-72444000D02*
X115316000Y-70612000D01*
X105948000Y-78441264D02*
X111945264Y-72444000D01*
X111945264Y-72444000D02*
X113484000Y-72444000D01*
%TO.N,Net-(HC-SR4-Pin_3)*%
X102616000Y-90129000D02*
X102616000Y-80772000D01*
X102616000Y-80772000D02*
X112776000Y-70612000D01*
X102448000Y-90297000D02*
X102616000Y-90129000D01*
%TO.N,Net-(JP1-C)*%
X104544500Y-109093000D02*
X104544500Y-111539500D01*
X104544500Y-111539500D02*
X100076000Y-116008000D01*
%TO.N,/RTS*%
X104232000Y-104394000D02*
X92710000Y-92872000D01*
X92710000Y-92872000D02*
X92710000Y-79756000D01*
%TO.N,/GPIO46_STRAPPING*%
X114300000Y-93980000D02*
X116586000Y-96266000D01*
X112164500Y-93980000D02*
X114300000Y-93980000D01*
%TO.N,/GPIO3_STRAPPING*%
X111824794Y-109093000D02*
X120142000Y-100775794D01*
X120142000Y-100775794D02*
X120142000Y-97790000D01*
X106369500Y-109093000D02*
X111824794Y-109093000D01*
%TO.N,/Echo*%
X106426000Y-93980000D02*
X104290500Y-93980000D01*
X104273000Y-93962500D02*
X104290500Y-93980000D01*
X104273000Y-90297000D02*
X104273000Y-93962500D01*
X107188000Y-94742000D02*
X106426000Y-93980000D01*
D24*
%TO.N,/ZMOD_RES_N*%
X129533933Y-91433933D02*
X129533933Y-117608067D01*
X119366881Y-81124700D02*
X119366881Y-81266881D01*
X119366881Y-81266881D02*
X129533933Y-91433933D01*
D22*
%TO.N,/ZMOD_SDA*%
X114958500Y-85090000D02*
X113538000Y-83669500D01*
X113538000Y-83669500D02*
X113538000Y-83566000D01*
%TO.N,/ZMOD_SCL*%
X110236000Y-85090000D02*
X111760000Y-83566000D01*
X110132500Y-85090000D02*
X110236000Y-85090000D01*
%TD*%
%TA.AperFunction,Conductor*%
%TO.N,GND*%
G36*
X107837409Y-109875502D02*
G01*
X107883902Y-109929158D01*
X107894006Y-109999432D01*
X107864512Y-110064012D01*
X107858383Y-110070595D01*
X104583544Y-113345432D01*
X104568518Y-113358267D01*
X104557530Y-113366251D01*
X104512768Y-113415964D01*
X104508233Y-113420743D01*
X104494065Y-113434912D01*
X104494057Y-113434921D01*
X104481448Y-113450490D01*
X104477172Y-113455496D01*
X104432418Y-113505202D01*
X104432410Y-113505213D01*
X104425626Y-113516963D01*
X104414431Y-113533252D01*
X104405893Y-113543795D01*
X104375521Y-113603402D01*
X104372375Y-113609196D01*
X104338925Y-113667134D01*
X104338923Y-113667138D01*
X104334731Y-113680041D01*
X104327168Y-113698302D01*
X104321007Y-113710394D01*
X104303688Y-113775025D01*
X104301815Y-113781347D01*
X104281144Y-113844963D01*
X104279726Y-113858459D01*
X104276125Y-113877889D01*
X104272610Y-113891008D01*
X104269110Y-113957807D01*
X104268593Y-113964383D01*
X104266500Y-113984293D01*
X104266500Y-114004327D01*
X104266327Y-114010921D01*
X104262825Y-114077728D01*
X104264949Y-114091133D01*
X104266500Y-114110845D01*
X104266500Y-114172161D01*
X104246498Y-114240282D01*
X104212503Y-114273653D01*
X104213106Y-114274416D01*
X104207347Y-114278969D01*
X104081975Y-114404341D01*
X104081970Y-114404347D01*
X103988885Y-114555262D01*
X103933113Y-114723572D01*
X103933112Y-114723579D01*
X103922500Y-114827446D01*
X103922500Y-115044228D01*
X103902498Y-115112349D01*
X103885595Y-115133323D01*
X101520846Y-117498071D01*
X101458534Y-117532097D01*
X101387718Y-117527032D01*
X101330883Y-117484485D01*
X101306072Y-117417965D01*
X101317138Y-117356632D01*
X101318919Y-117352734D01*
X101339729Y-117208000D01*
X101339729Y-115874798D01*
X101359731Y-115806677D01*
X101376634Y-115785703D01*
X103204530Y-113957807D01*
X105037901Y-112124435D01*
X105051740Y-112112475D01*
X105071322Y-112097898D01*
X105103677Y-112059336D01*
X105111096Y-112051240D01*
X105115073Y-112047265D01*
X105134649Y-112022504D01*
X105136895Y-112019749D01*
X105185896Y-111961353D01*
X105185896Y-111961351D01*
X105185899Y-111961349D01*
X105189930Y-111955220D01*
X105189983Y-111955255D01*
X105194095Y-111948800D01*
X105194041Y-111948767D01*
X105197887Y-111942529D01*
X105197895Y-111942520D01*
X105230130Y-111873389D01*
X105231666Y-111870215D01*
X105265894Y-111802066D01*
X105265895Y-111802060D01*
X105265897Y-111802057D01*
X105268408Y-111795161D01*
X105268466Y-111795182D01*
X105270975Y-111787962D01*
X105270916Y-111787943D01*
X105273223Y-111780979D01*
X105273223Y-111780977D01*
X105273225Y-111780974D01*
X105288648Y-111706272D01*
X105289420Y-111702796D01*
X105307000Y-111628623D01*
X105307000Y-111628615D01*
X105307852Y-111621334D01*
X105307912Y-111621341D01*
X105308690Y-111613726D01*
X105308629Y-111613721D01*
X105309267Y-111606417D01*
X105309269Y-111606409D01*
X105307053Y-111530245D01*
X105307000Y-111526581D01*
X105307000Y-110167872D01*
X105327002Y-110099751D01*
X105343898Y-110078783D01*
X105367906Y-110054775D01*
X105430213Y-110020752D01*
X105501029Y-110025815D01*
X105546094Y-110054777D01*
X105633341Y-110142024D01*
X105633347Y-110142029D01*
X105633348Y-110142030D01*
X105784262Y-110235115D01*
X105952574Y-110290887D01*
X106056455Y-110301500D01*
X106682544Y-110301499D01*
X106786426Y-110290887D01*
X106954738Y-110235115D01*
X107105652Y-110142030D01*
X107231030Y-110016652D01*
X107293512Y-109915352D01*
X107346298Y-109867875D01*
X107400753Y-109855500D01*
X107769288Y-109855500D01*
X107837409Y-109875502D01*
G37*
%TD.AperFunction*%
%TA.AperFunction,Conductor*%
G36*
X117369209Y-88359400D02*
G01*
X117426044Y-88401947D01*
X117450855Y-88468467D01*
X117451176Y-88477456D01*
X117451176Y-94130750D01*
X117449625Y-94150460D01*
X117447501Y-94163866D01*
X117451003Y-94230674D01*
X117451176Y-94237269D01*
X117451176Y-94257299D01*
X117453269Y-94277210D01*
X117453786Y-94283788D01*
X117457286Y-94350584D01*
X117457287Y-94350595D01*
X117460801Y-94363709D01*
X117464402Y-94383139D01*
X117465820Y-94396633D01*
X117486494Y-94460258D01*
X117488367Y-94466582D01*
X117505682Y-94531200D01*
X117511841Y-94543289D01*
X117519405Y-94561548D01*
X117523601Y-94574461D01*
X117557061Y-94632415D01*
X117560199Y-94638196D01*
X117590567Y-94697799D01*
X117599106Y-94708343D01*
X117610305Y-94724637D01*
X117617091Y-94736391D01*
X117661858Y-94786110D01*
X117666136Y-94791120D01*
X117678739Y-94806682D01*
X117678740Y-94806683D01*
X117678745Y-94806689D01*
X117692886Y-94820830D01*
X117697427Y-94825614D01*
X117742206Y-94875345D01*
X117753185Y-94883322D01*
X117768221Y-94896164D01*
X119688481Y-96816424D01*
X119722507Y-96878736D01*
X119717442Y-96949551D01*
X119674895Y-97006387D01*
X119673447Y-97007455D01*
X119530744Y-97111135D01*
X119402965Y-97253048D01*
X119402958Y-97253058D01*
X119307476Y-97418438D01*
X119307473Y-97418445D01*
X119248457Y-97600072D01*
X119228496Y-97790000D01*
X119248457Y-97979930D01*
X119261745Y-98020825D01*
X119263772Y-98091792D01*
X119227109Y-98152590D01*
X119163397Y-98183915D01*
X119115713Y-98183006D01*
X119098411Y-98179328D01*
X119035938Y-98145599D01*
X119035515Y-98145177D01*
X118186942Y-97296604D01*
X118174970Y-97282752D01*
X118160398Y-97263178D01*
X118160396Y-97263176D01*
X118121835Y-97230819D01*
X118113733Y-97223394D01*
X118109771Y-97219432D01*
X118109767Y-97219429D01*
X118109765Y-97219427D01*
X118085062Y-97199894D01*
X118082222Y-97197581D01*
X118023855Y-97148605D01*
X118017728Y-97144576D01*
X118017761Y-97144524D01*
X118011303Y-97140410D01*
X118011272Y-97140461D01*
X118005019Y-97136604D01*
X117935958Y-97104400D01*
X117932661Y-97102804D01*
X117864569Y-97068607D01*
X117857671Y-97066097D01*
X117857691Y-97066039D01*
X117850459Y-97063525D01*
X117850440Y-97063583D01*
X117843477Y-97061275D01*
X117768865Y-97045869D01*
X117765290Y-97045076D01*
X117691125Y-97027500D01*
X117683833Y-97026648D01*
X117683840Y-97026587D01*
X117676226Y-97025809D01*
X117676221Y-97025871D01*
X117668909Y-97025231D01*
X117592746Y-97027447D01*
X117589082Y-97027500D01*
X117405850Y-97027500D01*
X117337729Y-97007498D01*
X117291236Y-96953842D01*
X117281132Y-96883568D01*
X117310626Y-96818988D01*
X117312213Y-96817191D01*
X117325034Y-96802951D01*
X117325035Y-96802949D01*
X117325040Y-96802944D01*
X117420527Y-96637556D01*
X117479542Y-96455928D01*
X117499504Y-96266000D01*
X117479542Y-96076072D01*
X117420527Y-95894444D01*
X117325040Y-95729056D01*
X117325038Y-95729054D01*
X117325034Y-95729048D01*
X117197255Y-95587135D01*
X117042752Y-95474882D01*
X116868288Y-95397206D01*
X116812411Y-95385328D01*
X116749938Y-95351599D01*
X116749515Y-95351177D01*
X114884942Y-93486604D01*
X114872970Y-93472752D01*
X114858398Y-93453178D01*
X114858396Y-93453176D01*
X114819835Y-93420819D01*
X114811733Y-93413394D01*
X114807771Y-93409432D01*
X114807767Y-93409429D01*
X114807765Y-93409427D01*
X114783062Y-93389894D01*
X114780222Y-93387581D01*
X114721855Y-93338605D01*
X114715728Y-93334576D01*
X114715761Y-93334524D01*
X114709303Y-93330410D01*
X114709272Y-93330461D01*
X114703019Y-93326604D01*
X114633958Y-93294400D01*
X114630661Y-93292804D01*
X114562569Y-93258607D01*
X114555671Y-93256097D01*
X114555691Y-93256039D01*
X114548459Y-93253525D01*
X114548440Y-93253583D01*
X114541477Y-93251275D01*
X114466865Y-93235869D01*
X114463290Y-93235076D01*
X114389125Y-93217500D01*
X114381833Y-93216648D01*
X114381840Y-93216587D01*
X114374226Y-93215809D01*
X114374221Y-93215871D01*
X114366909Y-93215231D01*
X114321954Y-93216539D01*
X114290746Y-93217447D01*
X114287082Y-93217500D01*
X113195753Y-93217500D01*
X113127632Y-93197498D01*
X113088512Y-93157647D01*
X113054000Y-93101694D01*
X113026030Y-93056348D01*
X113026029Y-93056347D01*
X113026024Y-93056341D01*
X112900658Y-92930975D01*
X112900652Y-92930970D01*
X112873804Y-92914410D01*
X112749738Y-92837885D01*
X112657349Y-92807271D01*
X112581427Y-92782113D01*
X112581420Y-92782112D01*
X112477553Y-92771500D01*
X111851455Y-92771500D01*
X111747574Y-92782112D01*
X111579261Y-92837885D01*
X111498618Y-92887627D01*
X111428348Y-92930970D01*
X111428347Y-92930970D01*
X111422102Y-92934823D01*
X111420525Y-92932267D01*
X111367299Y-92953735D01*
X111297551Y-92940478D01*
X111246043Y-92891617D01*
X111229000Y-92828337D01*
X111229000Y-92622631D01*
X111249002Y-92554510D01*
X111265900Y-92533541D01*
X112892037Y-90907403D01*
X112954349Y-90873378D01*
X112981132Y-90870499D01*
X113192544Y-90870499D01*
X113296426Y-90859887D01*
X113464738Y-90804115D01*
X113615652Y-90711030D01*
X113615658Y-90711024D01*
X113702905Y-90623778D01*
X113765217Y-90589752D01*
X113836032Y-90594817D01*
X113881095Y-90623778D01*
X113968341Y-90711024D01*
X113968347Y-90711029D01*
X113968348Y-90711030D01*
X114119262Y-90804115D01*
X114287574Y-90859887D01*
X114391455Y-90870500D01*
X115017544Y-90870499D01*
X115121426Y-90859887D01*
X115289738Y-90804115D01*
X115440652Y-90711030D01*
X115566030Y-90585652D01*
X115659115Y-90434738D01*
X115714887Y-90266426D01*
X115725500Y-90162545D01*
X115725499Y-89951132D01*
X115745501Y-89883012D01*
X115762399Y-89862042D01*
X117236082Y-88388359D01*
X117298393Y-88354335D01*
X117369209Y-88359400D01*
G37*
%TD.AperFunction*%
%TA.AperFunction,Conductor*%
G36*
X114000094Y-94762502D02*
G01*
X114021067Y-94779404D01*
X114853985Y-95612323D01*
X115668597Y-96426935D01*
X115699334Y-96477092D01*
X115751473Y-96637556D01*
X115764657Y-96660391D01*
X115846958Y-96802941D01*
X115846965Y-96802951D01*
X115859787Y-96817191D01*
X115890504Y-96881199D01*
X115881739Y-96951652D01*
X115836275Y-97006183D01*
X115768547Y-97027477D01*
X115766150Y-97027500D01*
X113195753Y-97027500D01*
X113127632Y-97007498D01*
X113088512Y-96967647D01*
X113075391Y-96946375D01*
X113026030Y-96866348D01*
X113026029Y-96866347D01*
X113026024Y-96866341D01*
X112900658Y-96740975D01*
X112900652Y-96740970D01*
X112860129Y-96715975D01*
X112749738Y-96647885D01*
X112630104Y-96608243D01*
X112581427Y-96592113D01*
X112581420Y-96592112D01*
X112477553Y-96581500D01*
X111851455Y-96581500D01*
X111747574Y-96592112D01*
X111579261Y-96647885D01*
X111428347Y-96740970D01*
X111428341Y-96740975D01*
X111341095Y-96828222D01*
X111278783Y-96862248D01*
X111207968Y-96857183D01*
X111162905Y-96828222D01*
X111075658Y-96740975D01*
X111075652Y-96740970D01*
X111035129Y-96715975D01*
X110924738Y-96647885D01*
X110805104Y-96608243D01*
X110756427Y-96592113D01*
X110756420Y-96592112D01*
X110652553Y-96581500D01*
X110652545Y-96581500D01*
X110441133Y-96581500D01*
X110373012Y-96561498D01*
X110352038Y-96544595D01*
X110348869Y-96541426D01*
X110314843Y-96479114D01*
X110319908Y-96408299D01*
X110348866Y-96363238D01*
X110911961Y-95800142D01*
X110926988Y-95787308D01*
X110937970Y-95779331D01*
X110982741Y-95729605D01*
X110987263Y-95724840D01*
X111001437Y-95710668D01*
X111014045Y-95695096D01*
X111018324Y-95690089D01*
X111063081Y-95640382D01*
X111063081Y-95640380D01*
X111063085Y-95640377D01*
X111069871Y-95628621D01*
X111081065Y-95612333D01*
X111089607Y-95601787D01*
X111119991Y-95542151D01*
X111123119Y-95536391D01*
X111150382Y-95489173D01*
X111156573Y-95478451D01*
X111156573Y-95478450D01*
X111156575Y-95478447D01*
X111160768Y-95465539D01*
X111168333Y-95447275D01*
X111174494Y-95435186D01*
X111191809Y-95370561D01*
X111193684Y-95364235D01*
X111214354Y-95300622D01*
X111214355Y-95300616D01*
X111215772Y-95287133D01*
X111219377Y-95267682D01*
X111221980Y-95257968D01*
X111222889Y-95254577D01*
X111226392Y-95187703D01*
X111226901Y-95181240D01*
X111229000Y-95161282D01*
X111229000Y-95141255D01*
X111229172Y-95134671D01*
X111229655Y-95125456D01*
X111253189Y-95058477D01*
X111309201Y-95014852D01*
X111379907Y-95008434D01*
X111420798Y-95027290D01*
X111422102Y-95025177D01*
X111428346Y-95029028D01*
X111428348Y-95029030D01*
X111579262Y-95122115D01*
X111747574Y-95177887D01*
X111851455Y-95188500D01*
X112477544Y-95188499D01*
X112581426Y-95177887D01*
X112749738Y-95122115D01*
X112900652Y-95029030D01*
X113026030Y-94903652D01*
X113088512Y-94802352D01*
X113141298Y-94754875D01*
X113195753Y-94742500D01*
X113931973Y-94742500D01*
X114000094Y-94762502D01*
G37*
%TD.AperFunction*%
%TA.AperFunction,Conductor*%
G36*
X116432061Y-71514200D02*
G01*
X116490606Y-71554362D01*
X116511000Y-71589941D01*
X116555111Y-71708204D01*
X116555112Y-71708207D01*
X116642738Y-71825261D01*
X116759792Y-71912887D01*
X116759794Y-71912888D01*
X116759796Y-71912889D01*
X116813600Y-71932957D01*
X116896795Y-71963988D01*
X116896803Y-71963990D01*
X116957350Y-71970499D01*
X116957355Y-71970499D01*
X116957362Y-71970500D01*
X117325176Y-71970500D01*
X117393297Y-71990502D01*
X117439790Y-72044158D01*
X117451176Y-72096500D01*
X117451176Y-77728200D01*
X117431174Y-77796321D01*
X117377518Y-77842814D01*
X117325176Y-77854200D01*
X117252513Y-77854200D01*
X117065711Y-77893906D01*
X116891247Y-77971582D01*
X116736744Y-78083835D01*
X116608965Y-78225748D01*
X116608958Y-78225758D01*
X116513476Y-78391138D01*
X116513473Y-78391145D01*
X116454457Y-78572772D01*
X116434496Y-78762700D01*
X116454457Y-78952627D01*
X116484526Y-79045170D01*
X116513473Y-79134256D01*
X116562432Y-79219056D01*
X116568619Y-79229771D01*
X116585500Y-79292771D01*
X116585500Y-82609972D01*
X116565498Y-82678093D01*
X116529505Y-82714735D01*
X116526534Y-82716719D01*
X116371748Y-82843748D01*
X116244720Y-82998533D01*
X116150334Y-83175116D01*
X116150332Y-83175122D01*
X116092206Y-83366736D01*
X116092206Y-83366738D01*
X116072582Y-83565996D01*
X116072582Y-83566003D01*
X116092206Y-83765261D01*
X116092206Y-83765263D01*
X116150332Y-83956877D01*
X116150334Y-83956882D01*
X116189622Y-84030384D01*
X116204500Y-84089780D01*
X116204500Y-84415787D01*
X116184498Y-84483908D01*
X116130842Y-84530401D01*
X116060568Y-84540505D01*
X115995988Y-84511011D01*
X115958895Y-84455420D01*
X115945762Y-84415787D01*
X115913115Y-84317262D01*
X115820030Y-84166348D01*
X115820029Y-84166347D01*
X115820024Y-84166341D01*
X115694658Y-84040975D01*
X115694652Y-84040970D01*
X115677489Y-84030384D01*
X115543738Y-83947885D01*
X115459582Y-83919999D01*
X115375427Y-83892113D01*
X115375420Y-83892112D01*
X115271553Y-83881500D01*
X115271545Y-83881500D01*
X114880528Y-83881500D01*
X114812407Y-83861498D01*
X114791433Y-83844595D01*
X114475851Y-83529013D01*
X114441825Y-83466701D01*
X114439636Y-83453087D01*
X114432719Y-83387270D01*
X114431542Y-83376072D01*
X114372527Y-83194444D01*
X114277040Y-83029056D01*
X114277038Y-83029054D01*
X114277034Y-83029048D01*
X114149255Y-82887135D01*
X113994752Y-82774882D01*
X113820288Y-82697206D01*
X113633487Y-82657500D01*
X113442513Y-82657500D01*
X113255711Y-82697206D01*
X113081247Y-82774882D01*
X112926744Y-82887135D01*
X112798965Y-83029048D01*
X112798961Y-83029055D01*
X112758119Y-83099795D01*
X112706736Y-83148788D01*
X112637022Y-83162223D01*
X112571111Y-83135836D01*
X112539881Y-83099795D01*
X112499040Y-83029056D01*
X112499036Y-83029051D01*
X112499034Y-83029048D01*
X112371255Y-82887135D01*
X112216752Y-82774882D01*
X112042288Y-82697206D01*
X111855487Y-82657500D01*
X111664513Y-82657500D01*
X111477711Y-82697206D01*
X111303247Y-82774882D01*
X111148744Y-82887135D01*
X111020965Y-83029048D01*
X111020958Y-83029058D01*
X110925476Y-83194438D01*
X110925473Y-83194445D01*
X110873335Y-83354905D01*
X110842597Y-83405063D01*
X110403065Y-83844595D01*
X110340753Y-83878621D01*
X110313970Y-83881500D01*
X109819455Y-83881500D01*
X109715574Y-83892112D01*
X109547261Y-83947885D01*
X109396347Y-84040970D01*
X109396341Y-84040975D01*
X109309095Y-84128222D01*
X109246783Y-84162248D01*
X109175968Y-84157183D01*
X109130905Y-84128222D01*
X109043658Y-84040975D01*
X109043652Y-84040970D01*
X109026489Y-84030384D01*
X108892738Y-83947885D01*
X108808582Y-83919999D01*
X108724427Y-83892113D01*
X108724420Y-83892112D01*
X108620553Y-83881500D01*
X107994455Y-83881500D01*
X107890574Y-83892112D01*
X107722261Y-83947885D01*
X107571347Y-84040970D01*
X107571341Y-84040975D01*
X107445975Y-84166341D01*
X107445970Y-84166347D01*
X107352885Y-84317262D01*
X107297113Y-84485572D01*
X107297112Y-84485579D01*
X107286500Y-84589446D01*
X107286500Y-85590544D01*
X107297112Y-85694425D01*
X107352885Y-85862738D01*
X107445970Y-86013652D01*
X107445975Y-86013658D01*
X107571341Y-86139024D01*
X107571347Y-86139029D01*
X107571348Y-86139030D01*
X107722262Y-86232115D01*
X107890574Y-86287887D01*
X107994455Y-86298500D01*
X108385472Y-86298499D01*
X108453592Y-86318501D01*
X108474566Y-86335403D01*
X111622265Y-89483103D01*
X111656290Y-89545413D01*
X111651225Y-89616228D01*
X111622264Y-89661291D01*
X109767044Y-91516511D01*
X109752018Y-91529346D01*
X109741030Y-91537330D01*
X109696268Y-91587043D01*
X109691733Y-91591822D01*
X109677565Y-91605991D01*
X109677557Y-91606000D01*
X109664948Y-91621569D01*
X109660672Y-91626575D01*
X109615918Y-91676281D01*
X109615910Y-91676292D01*
X109609126Y-91688042D01*
X109597931Y-91704331D01*
X109589393Y-91714874D01*
X109559021Y-91774481D01*
X109555875Y-91780275D01*
X109522425Y-91838213D01*
X109522423Y-91838217D01*
X109518231Y-91851120D01*
X109510668Y-91869381D01*
X109504507Y-91881473D01*
X109487188Y-91946104D01*
X109485315Y-91952426D01*
X109464644Y-92016042D01*
X109463226Y-92029538D01*
X109459625Y-92048968D01*
X109456110Y-92062087D01*
X109452610Y-92128886D01*
X109452093Y-92135462D01*
X109450000Y-92155372D01*
X109450000Y-92175406D01*
X109449827Y-92182000D01*
X109446325Y-92248807D01*
X109448449Y-92262212D01*
X109450000Y-92281924D01*
X109450000Y-93065960D01*
X109431241Y-93132106D01*
X109384885Y-93207260D01*
X109329113Y-93375572D01*
X109329112Y-93375579D01*
X109318500Y-93479446D01*
X109318500Y-94480544D01*
X109329113Y-94584426D01*
X109375023Y-94722976D01*
X109377463Y-94793930D01*
X109344514Y-94851703D01*
X108670293Y-95525926D01*
X108607980Y-95559951D01*
X108581197Y-95562831D01*
X107954428Y-95562831D01*
X107886307Y-95542829D01*
X107839814Y-95489173D01*
X107829710Y-95418899D01*
X107859204Y-95354319D01*
X107860792Y-95352521D01*
X107927034Y-95278951D01*
X107927035Y-95278949D01*
X107927040Y-95278944D01*
X108022527Y-95113556D01*
X108081542Y-94931928D01*
X108101504Y-94742000D01*
X108081542Y-94552072D01*
X108022527Y-94370444D01*
X107927040Y-94205056D01*
X107927038Y-94205054D01*
X107927034Y-94205048D01*
X107799255Y-94063135D01*
X107644752Y-93950882D01*
X107470288Y-93873206D01*
X107414411Y-93861328D01*
X107351938Y-93827599D01*
X107351515Y-93827177D01*
X107010942Y-93486604D01*
X106998970Y-93472752D01*
X106984398Y-93453178D01*
X106984396Y-93453176D01*
X106945835Y-93420819D01*
X106937733Y-93413394D01*
X106933771Y-93409432D01*
X106933767Y-93409429D01*
X106933765Y-93409427D01*
X106909062Y-93389894D01*
X106906222Y-93387581D01*
X106847855Y-93338605D01*
X106841728Y-93334576D01*
X106841761Y-93334524D01*
X106835303Y-93330410D01*
X106835272Y-93330461D01*
X106829019Y-93326604D01*
X106759958Y-93294400D01*
X106756661Y-93292804D01*
X106688569Y-93258607D01*
X106681671Y-93256097D01*
X106681691Y-93256039D01*
X106674459Y-93253525D01*
X106674440Y-93253583D01*
X106667477Y-93251275D01*
X106592865Y-93235869D01*
X106589290Y-93235076D01*
X106515125Y-93217500D01*
X106507833Y-93216648D01*
X106507840Y-93216587D01*
X106500226Y-93215809D01*
X106500221Y-93215871D01*
X106492909Y-93215231D01*
X106447954Y-93216539D01*
X106416746Y-93217447D01*
X106413082Y-93217500D01*
X105321753Y-93217500D01*
X105253632Y-93197498D01*
X105214512Y-93157647D01*
X105180000Y-93101694D01*
X105152030Y-93056348D01*
X105152029Y-93056347D01*
X105152024Y-93056341D01*
X105072405Y-92976722D01*
X105038379Y-92914410D01*
X105035500Y-92887627D01*
X105035500Y-91371872D01*
X105055502Y-91303751D01*
X105072400Y-91282781D01*
X105134530Y-91220652D01*
X105227615Y-91069738D01*
X105283387Y-90901426D01*
X105294000Y-90797545D01*
X105293999Y-90019096D01*
X105314001Y-89950976D01*
X105367657Y-89904483D01*
X105437931Y-89894379D01*
X105484651Y-89913340D01*
X105485531Y-89911817D01*
X105491242Y-89915113D01*
X105491248Y-89915118D01*
X105665712Y-89992794D01*
X105852513Y-90032500D01*
X106043487Y-90032500D01*
X106230288Y-89992794D01*
X106404752Y-89915118D01*
X106559253Y-89802866D01*
X106565025Y-89796456D01*
X106687034Y-89660951D01*
X106687035Y-89660949D01*
X106687040Y-89660944D01*
X106782527Y-89495556D01*
X106841542Y-89313928D01*
X106861504Y-89124000D01*
X106841542Y-88934072D01*
X106782527Y-88752444D01*
X106782525Y-88752441D01*
X106782524Y-88752437D01*
X106727381Y-88656926D01*
X106710500Y-88593927D01*
X106710500Y-78809291D01*
X106730502Y-78741170D01*
X106747405Y-78720196D01*
X112224197Y-73243405D01*
X112286509Y-73209379D01*
X112313292Y-73206500D01*
X113419272Y-73206500D01*
X113437532Y-73207830D01*
X113439741Y-73208153D01*
X113461672Y-73211366D01*
X113507976Y-73207314D01*
X113511817Y-73206979D01*
X113522797Y-73206500D01*
X113528413Y-73206500D01*
X113542331Y-73204872D01*
X113559688Y-73202843D01*
X113563328Y-73202472D01*
X113639240Y-73195831D01*
X113639246Y-73195828D01*
X113646425Y-73194347D01*
X113646437Y-73194407D01*
X113653914Y-73192749D01*
X113653900Y-73192690D01*
X113661029Y-73190999D01*
X113661042Y-73190998D01*
X113732682Y-73164922D01*
X113736074Y-73163743D01*
X113808440Y-73139765D01*
X113808443Y-73139762D01*
X113815090Y-73136664D01*
X113815116Y-73136720D01*
X113822003Y-73133386D01*
X113821976Y-73133331D01*
X113828534Y-73130036D01*
X113828534Y-73130035D01*
X113828539Y-73130034D01*
X113892245Y-73088132D01*
X113895264Y-73086209D01*
X113960149Y-73046188D01*
X113960150Y-73046187D01*
X113965909Y-73041634D01*
X113965947Y-73041682D01*
X113971874Y-73036855D01*
X113971834Y-73036807D01*
X113977452Y-73032091D01*
X113977462Y-73032085D01*
X114029819Y-72976588D01*
X114032306Y-72974029D01*
X115013944Y-71992392D01*
X115076254Y-71958368D01*
X115123776Y-71957208D01*
X115203429Y-71970500D01*
X115203431Y-71970500D01*
X115428565Y-71970500D01*
X115428569Y-71970500D01*
X115650635Y-71933444D01*
X115863574Y-71860342D01*
X116061576Y-71753189D01*
X116239240Y-71614906D01*
X116300245Y-71548637D01*
X116361096Y-71512067D01*
X116432061Y-71514200D01*
G37*
%TD.AperFunction*%
%TA.AperFunction,Conductor*%
G36*
X105103532Y-79466971D02*
G01*
X105160368Y-79509518D01*
X105185179Y-79576038D01*
X105185500Y-79585027D01*
X105185500Y-88593927D01*
X105168619Y-88656926D01*
X105113475Y-88752437D01*
X105054457Y-88934072D01*
X105041631Y-89056114D01*
X105014618Y-89121771D01*
X104956397Y-89162401D01*
X104885451Y-89165104D01*
X104863072Y-89157139D01*
X104858241Y-89154886D01*
X104689927Y-89099113D01*
X104689920Y-89099112D01*
X104586053Y-89088500D01*
X103959955Y-89088500D01*
X103856074Y-89099112D01*
X103687759Y-89154886D01*
X103570646Y-89227122D01*
X103502167Y-89245859D01*
X103434428Y-89224599D01*
X103388937Y-89170092D01*
X103378500Y-89119881D01*
X103378500Y-81140027D01*
X103398502Y-81071906D01*
X103415405Y-81050932D01*
X104970405Y-79495932D01*
X105032717Y-79461906D01*
X105103532Y-79466971D01*
G37*
%TD.AperFunction*%
%TA.AperFunction,Conductor*%
G36*
X116134750Y-85651464D02*
G01*
X116186776Y-85699773D01*
X116204500Y-85764211D01*
X116204500Y-86851866D01*
X116184498Y-86919987D01*
X116167595Y-86940961D01*
X114691960Y-88416595D01*
X114629648Y-88450621D01*
X114602866Y-88453500D01*
X114391455Y-88453500D01*
X114287574Y-88464112D01*
X114119261Y-88519885D01*
X113968347Y-88612970D01*
X113881094Y-88700223D01*
X113818782Y-88734248D01*
X113747966Y-88729182D01*
X113702904Y-88700222D01*
X113678903Y-88676221D01*
X113644879Y-88613908D01*
X113642000Y-88587127D01*
X113642000Y-86348169D01*
X113662002Y-86280048D01*
X113714759Y-86233970D01*
X113718730Y-86232117D01*
X113718738Y-86232115D01*
X113869652Y-86139030D01*
X113869658Y-86139024D01*
X113956905Y-86051778D01*
X114019217Y-86017752D01*
X114090032Y-86022817D01*
X114135095Y-86051778D01*
X114222341Y-86139024D01*
X114222347Y-86139029D01*
X114222348Y-86139030D01*
X114373262Y-86232115D01*
X114541574Y-86287887D01*
X114645455Y-86298500D01*
X115271544Y-86298499D01*
X115375426Y-86287887D01*
X115543738Y-86232115D01*
X115694652Y-86139030D01*
X115820030Y-86013652D01*
X115913115Y-85862738D01*
X115958895Y-85724577D01*
X115999309Y-85666207D01*
X116064865Y-85638951D01*
X116134750Y-85651464D01*
G37*
%TD.AperFunction*%
%TA.AperFunction,Conductor*%
G36*
X112030533Y-84477971D02*
G01*
X112087368Y-84520518D01*
X112112179Y-84587038D01*
X112112500Y-84596027D01*
X112112500Y-85590544D01*
X112116348Y-85628202D01*
X112117000Y-85641007D01*
X112117000Y-87516972D01*
X112096998Y-87585093D01*
X112043342Y-87631586D01*
X111973068Y-87641690D01*
X111908488Y-87612196D01*
X111901905Y-87606067D01*
X110713034Y-86417196D01*
X110679008Y-86354884D01*
X110684073Y-86284069D01*
X110726620Y-86227233D01*
X110735962Y-86220874D01*
X110868652Y-86139030D01*
X110994030Y-86013652D01*
X111087115Y-85862738D01*
X111142887Y-85694426D01*
X111153500Y-85590545D01*
X111153499Y-85303026D01*
X111173501Y-85234907D01*
X111190399Y-85213936D01*
X111897407Y-84506929D01*
X111959717Y-84472906D01*
X112030533Y-84477971D01*
G37*
%TD.AperFunction*%
%TA.AperFunction,Conductor*%
G36*
X144441621Y-68020502D02*
G01*
X144488114Y-68074158D01*
X144499500Y-68126500D01*
X144499500Y-132873500D01*
X144479498Y-132941621D01*
X144425842Y-132988114D01*
X144373500Y-132999500D01*
X121626500Y-132999500D01*
X121558379Y-132979498D01*
X121511886Y-132925842D01*
X121500500Y-132873500D01*
X121500500Y-132125157D01*
X121500528Y-132125014D01*
X121500524Y-132125014D01*
X121500539Y-132100002D01*
X121500541Y-132100000D01*
X121500383Y-132099617D01*
X121500381Y-132099616D01*
X121500380Y-132099615D01*
X121500305Y-132099584D01*
X121500096Y-132099498D01*
X121500002Y-132099459D01*
X121475048Y-132099459D01*
X121474842Y-132099500D01*
X110525158Y-132099500D01*
X110524952Y-132099459D01*
X110499998Y-132099459D01*
X110499901Y-132099499D01*
X110499696Y-132099584D01*
X110499618Y-132099615D01*
X110499617Y-132099617D01*
X110499459Y-132100000D01*
X110499476Y-132125014D01*
X110499471Y-132125014D01*
X110499500Y-132125157D01*
X110499500Y-132873500D01*
X110479498Y-132941621D01*
X110425842Y-132988114D01*
X110373500Y-132999500D01*
X79626500Y-132999500D01*
X79558379Y-132979498D01*
X79511886Y-132925842D01*
X79500500Y-132873500D01*
X79500500Y-128067765D01*
X82645788Y-128067765D01*
X82675412Y-128337014D01*
X82743928Y-128599090D01*
X82849869Y-128848389D01*
X82894923Y-128922211D01*
X82990982Y-129079610D01*
X83164255Y-129287820D01*
X83365998Y-129468582D01*
X83591910Y-129618044D01*
X83837176Y-129733020D01*
X84096569Y-129811060D01*
X84096572Y-129811060D01*
X84096574Y-129811061D01*
X84364557Y-129850500D01*
X84364561Y-129850500D01*
X84567631Y-129850500D01*
X84770156Y-129835677D01*
X84770160Y-129835676D01*
X84770161Y-129835676D01*
X84880665Y-129811060D01*
X85034553Y-129776780D01*
X85287558Y-129680014D01*
X85523777Y-129547441D01*
X85738177Y-129381888D01*
X85926186Y-129186881D01*
X86083799Y-128966579D01*
X86143794Y-128849889D01*
X86207656Y-128725675D01*
X86207657Y-128725672D01*
X86266349Y-128553632D01*
X86295118Y-128469305D01*
X86344319Y-128202933D01*
X86354212Y-127932235D01*
X86338880Y-127792889D01*
X86324587Y-127662985D01*
X86273981Y-127469416D01*
X86256072Y-127400912D01*
X86250487Y-127387770D01*
X86150130Y-127151610D01*
X86141357Y-127137235D01*
X86009018Y-126920390D01*
X85835745Y-126712180D01*
X85835741Y-126712177D01*
X85835740Y-126712175D01*
X85634012Y-126531427D01*
X85634002Y-126531418D01*
X85408090Y-126381956D01*
X85162824Y-126266980D01*
X85005392Y-126219615D01*
X84903425Y-126188938D01*
X84635442Y-126149500D01*
X84635439Y-126149500D01*
X84432369Y-126149500D01*
X84229839Y-126164323D01*
X84229838Y-126164323D01*
X83965456Y-126223217D01*
X83965441Y-126223222D01*
X83712441Y-126319986D01*
X83476229Y-126452555D01*
X83476225Y-126452557D01*
X83261818Y-126618116D01*
X83073815Y-126813117D01*
X83073810Y-126813123D01*
X82916203Y-127033417D01*
X82916196Y-127033427D01*
X82792343Y-127274324D01*
X82792342Y-127274327D01*
X82704883Y-127530689D01*
X82704880Y-127530702D01*
X82655681Y-127797058D01*
X82655680Y-127797069D01*
X82645788Y-128067765D01*
X79500500Y-128067765D01*
X79500500Y-117282000D01*
X89318000Y-117282000D01*
X89318000Y-117328516D01*
X89328605Y-117432318D01*
X89328606Y-117432321D01*
X89384342Y-117600525D01*
X89477365Y-117751339D01*
X89477370Y-117751345D01*
X89602654Y-117876629D01*
X89602660Y-117876634D01*
X89753474Y-117969657D01*
X89921678Y-118025393D01*
X89921681Y-118025394D01*
X90025483Y-118035999D01*
X90025483Y-118036000D01*
X90297000Y-118036000D01*
X90297000Y-117282000D01*
X90805000Y-117282000D01*
X90805000Y-118036000D01*
X91076517Y-118036000D01*
X91076516Y-118035999D01*
X91180318Y-118025394D01*
X91180321Y-118025393D01*
X91348525Y-117969657D01*
X91499339Y-117876634D01*
X91499345Y-117876629D01*
X91624629Y-117751345D01*
X91624634Y-117751339D01*
X91717657Y-117600525D01*
X91773393Y-117432321D01*
X91773394Y-117432318D01*
X91783999Y-117328516D01*
X91784000Y-117328516D01*
X91784000Y-117282000D01*
X93763000Y-117282000D01*
X93763000Y-117328516D01*
X93773605Y-117432318D01*
X93773606Y-117432321D01*
X93829342Y-117600525D01*
X93922365Y-117751339D01*
X93922370Y-117751345D01*
X94047654Y-117876629D01*
X94047660Y-117876634D01*
X94198474Y-117969657D01*
X94366678Y-118025393D01*
X94366681Y-118025394D01*
X94470483Y-118035999D01*
X94470483Y-118036000D01*
X94742000Y-118036000D01*
X94742000Y-117282000D01*
X95250000Y-117282000D01*
X95250000Y-118036000D01*
X95521517Y-118036000D01*
X95521516Y-118035999D01*
X95625318Y-118025394D01*
X95625321Y-118025393D01*
X95793525Y-117969657D01*
X95944339Y-117876634D01*
X95944345Y-117876629D01*
X96069629Y-117751345D01*
X96069634Y-117751339D01*
X96162657Y-117600525D01*
X96218393Y-117432321D01*
X96218394Y-117432318D01*
X96228999Y-117328516D01*
X96229000Y-117328516D01*
X96229000Y-117282000D01*
X95250000Y-117282000D01*
X94742000Y-117282000D01*
X93763000Y-117282000D01*
X91784000Y-117282000D01*
X90805000Y-117282000D01*
X90297000Y-117282000D01*
X89318000Y-117282000D01*
X79500500Y-117282000D01*
X79500500Y-115428544D01*
X89317500Y-115428544D01*
X89328112Y-115532425D01*
X89383885Y-115700738D01*
X89476970Y-115851652D01*
X89476975Y-115851658D01*
X89602345Y-115977028D01*
X89605450Y-115979483D01*
X89607027Y-115981710D01*
X89607537Y-115982220D01*
X89607449Y-115982307D01*
X89646481Y-116037422D01*
X89649673Y-116108347D01*
X89614014Y-116169739D01*
X89605454Y-116177157D01*
X89602654Y-116179370D01*
X89477370Y-116304654D01*
X89477365Y-116304660D01*
X89384342Y-116455474D01*
X89328606Y-116623678D01*
X89328605Y-116623681D01*
X89318000Y-116727483D01*
X89318000Y-116774000D01*
X91784000Y-116774000D01*
X91784000Y-116727483D01*
X91773394Y-116623681D01*
X91773393Y-116623678D01*
X91717657Y-116455474D01*
X91624634Y-116304660D01*
X91624629Y-116304654D01*
X91552570Y-116232595D01*
X91518544Y-116170283D01*
X91523609Y-116099468D01*
X91566156Y-116042632D01*
X91632676Y-116017821D01*
X91641665Y-116017500D01*
X93905335Y-116017500D01*
X93973456Y-116037502D01*
X94019949Y-116091158D01*
X94030053Y-116161432D01*
X94000559Y-116226012D01*
X93994430Y-116232595D01*
X93922370Y-116304654D01*
X93922365Y-116304660D01*
X93829342Y-116455474D01*
X93773606Y-116623678D01*
X93773605Y-116623681D01*
X93763000Y-116727483D01*
X93763000Y-116774000D01*
X96229000Y-116774000D01*
X96229000Y-116727483D01*
X96218394Y-116623681D01*
X96218393Y-116623678D01*
X96162657Y-116455474D01*
X96069634Y-116304660D01*
X96069629Y-116304654D01*
X95944344Y-116179369D01*
X95941551Y-116177161D01*
X95940131Y-116175156D01*
X95939150Y-116174175D01*
X95939317Y-116174007D01*
X95900519Y-116119222D01*
X95897325Y-116048298D01*
X95932983Y-115986905D01*
X95941554Y-115979478D01*
X95944639Y-115977037D01*
X95944652Y-115977030D01*
X96070030Y-115851652D01*
X96163115Y-115700738D01*
X96218887Y-115532426D01*
X96229500Y-115428545D01*
X96229499Y-115204633D01*
X96249501Y-115136513D01*
X96266399Y-115115542D01*
X96447539Y-114934404D01*
X96509851Y-114900379D01*
X96536634Y-114897500D01*
X98686271Y-114897500D01*
X98754392Y-114917502D01*
X98800885Y-114971158D01*
X98812271Y-115023500D01*
X98812271Y-117208000D01*
X98818800Y-117289645D01*
X98830927Y-117328516D01*
X98858832Y-117417965D01*
X98862348Y-117429233D01*
X98943457Y-117550897D01*
X98943458Y-117550898D01*
X98943459Y-117550899D01*
X99002714Y-117600525D01*
X99055558Y-117644782D01*
X99189569Y-117703282D01*
X99251738Y-117711156D01*
X99334628Y-117721656D01*
X99334629Y-117721655D01*
X99334632Y-117721656D01*
X99478996Y-117698418D01*
X99610966Y-117635448D01*
X100006111Y-117372017D01*
X100073881Y-117350875D01*
X100142329Y-117369729D01*
X100145888Y-117372017D01*
X100541034Y-117635448D01*
X100541040Y-117635451D01*
X100541046Y-117635455D01*
X100612589Y-117675304D01*
X100752889Y-117716500D01*
X100752892Y-117716500D01*
X100899108Y-117716500D01*
X100899111Y-117716500D01*
X100996401Y-117687933D01*
X101067396Y-117687933D01*
X101127122Y-117726316D01*
X101156615Y-117790897D01*
X101146512Y-117861171D01*
X101120993Y-117897924D01*
X94677544Y-124341373D01*
X94662518Y-124354208D01*
X94651530Y-124362192D01*
X94606768Y-124411905D01*
X94602233Y-124416684D01*
X94588065Y-124430853D01*
X94588057Y-124430862D01*
X94575448Y-124446431D01*
X94571172Y-124451437D01*
X94526418Y-124501143D01*
X94526410Y-124501154D01*
X94519626Y-124512904D01*
X94508431Y-124529193D01*
X94499893Y-124539736D01*
X94469521Y-124599343D01*
X94466375Y-124605137D01*
X94432925Y-124663075D01*
X94432923Y-124663079D01*
X94428731Y-124675982D01*
X94421168Y-124694243D01*
X94415007Y-124706335D01*
X94397688Y-124770966D01*
X94395815Y-124777288D01*
X94375144Y-124840904D01*
X94373726Y-124854400D01*
X94370125Y-124873830D01*
X94366610Y-124886949D01*
X94363110Y-124953748D01*
X94362593Y-124960324D01*
X94360500Y-124980234D01*
X94360500Y-125000268D01*
X94360327Y-125006863D01*
X94358923Y-125033649D01*
X94335383Y-125100630D01*
X94279367Y-125144250D01*
X94277129Y-125145109D01*
X94153797Y-125191110D01*
X94153792Y-125191112D01*
X94036738Y-125278738D01*
X93949112Y-125395792D01*
X93949110Y-125395797D01*
X93898011Y-125532795D01*
X93898009Y-125532803D01*
X93891500Y-125593350D01*
X93891500Y-127390649D01*
X93898009Y-127451196D01*
X93898011Y-127451204D01*
X93949110Y-127588202D01*
X93949112Y-127588207D01*
X94036738Y-127705261D01*
X94153792Y-127792887D01*
X94153794Y-127792888D01*
X94153796Y-127792889D01*
X94207600Y-127812957D01*
X94290795Y-127843988D01*
X94290803Y-127843990D01*
X94351350Y-127850499D01*
X94351355Y-127850499D01*
X94351362Y-127850500D01*
X94351368Y-127850500D01*
X96148632Y-127850500D01*
X96148638Y-127850500D01*
X96148645Y-127850499D01*
X96148649Y-127850499D01*
X96209196Y-127843990D01*
X96209199Y-127843989D01*
X96209201Y-127843989D01*
X96346204Y-127792889D01*
X96369976Y-127775094D01*
X96463261Y-127705261D01*
X96550886Y-127588208D01*
X96550885Y-127588208D01*
X96550889Y-127588204D01*
X96595196Y-127469413D01*
X96637741Y-127412581D01*
X96704262Y-127387770D01*
X96773636Y-127402862D01*
X96805952Y-127428112D01*
X96867097Y-127494534D01*
X97044698Y-127632767D01*
X97044699Y-127632768D01*
X97242628Y-127739882D01*
X97242630Y-127739883D01*
X97455483Y-127812955D01*
X97455492Y-127812957D01*
X97536000Y-127826391D01*
X97536000Y-126925674D01*
X97647685Y-126976680D01*
X97754237Y-126992000D01*
X97825763Y-126992000D01*
X97932315Y-126976680D01*
X98044000Y-126925674D01*
X98044000Y-127826390D01*
X98124507Y-127812957D01*
X98124516Y-127812955D01*
X98337369Y-127739883D01*
X98337371Y-127739882D01*
X98535300Y-127632768D01*
X98535301Y-127632767D01*
X98712902Y-127494534D01*
X98865327Y-127328955D01*
X98954217Y-127192899D01*
X99008220Y-127146810D01*
X99078568Y-127137235D01*
X99142925Y-127167212D01*
X99165183Y-127192898D01*
X99254279Y-127329270D01*
X99371904Y-127457043D01*
X99390377Y-127477110D01*
X99406762Y-127494908D01*
X99452733Y-127530689D01*
X99584424Y-127633189D01*
X99782426Y-127740342D01*
X99782427Y-127740342D01*
X99782428Y-127740343D01*
X99883646Y-127775091D01*
X99995365Y-127813444D01*
X100217431Y-127850500D01*
X100217435Y-127850500D01*
X100442565Y-127850500D01*
X100442569Y-127850500D01*
X100664635Y-127813444D01*
X100877574Y-127740342D01*
X101075576Y-127633189D01*
X101253240Y-127494906D01*
X101405722Y-127329268D01*
X101405927Y-127328955D01*
X101422519Y-127303558D01*
X101494518Y-127193354D01*
X101548520Y-127147268D01*
X101618868Y-127137692D01*
X101683225Y-127167669D01*
X101705480Y-127193353D01*
X101736770Y-127241246D01*
X101794275Y-127329265D01*
X101794279Y-127329270D01*
X101911904Y-127457043D01*
X101930377Y-127477110D01*
X101946762Y-127494908D01*
X101992733Y-127530689D01*
X102124424Y-127633189D01*
X102322426Y-127740342D01*
X102322427Y-127740342D01*
X102322428Y-127740343D01*
X102423646Y-127775091D01*
X102535365Y-127813444D01*
X102757431Y-127850500D01*
X102757435Y-127850500D01*
X102982565Y-127850500D01*
X102982569Y-127850500D01*
X103204635Y-127813444D01*
X103417574Y-127740342D01*
X103615576Y-127633189D01*
X103793240Y-127494906D01*
X103945722Y-127329268D01*
X103945927Y-127328955D01*
X103981618Y-127274325D01*
X104068860Y-127140791D01*
X104159296Y-126934616D01*
X104214564Y-126716368D01*
X104233156Y-126492000D01*
X104214564Y-126267632D01*
X104203317Y-126223217D01*
X104159297Y-126049387D01*
X104159296Y-126049386D01*
X104159296Y-126049384D01*
X104068860Y-125843209D01*
X104051597Y-125816786D01*
X103945724Y-125654734D01*
X103945720Y-125654729D01*
X103829570Y-125528559D01*
X103793240Y-125489094D01*
X103793239Y-125489093D01*
X103793237Y-125489091D01*
X103673367Y-125395792D01*
X103615576Y-125350811D01*
X103417574Y-125243658D01*
X103417572Y-125243657D01*
X103417571Y-125243656D01*
X103204639Y-125170557D01*
X103204630Y-125170555D01*
X103127029Y-125157606D01*
X102982569Y-125133500D01*
X102757431Y-125133500D01*
X102612971Y-125157606D01*
X102535369Y-125170555D01*
X102535360Y-125170557D01*
X102322428Y-125243656D01*
X102322426Y-125243658D01*
X102124426Y-125350810D01*
X102124424Y-125350811D01*
X101946762Y-125489091D01*
X101794279Y-125654729D01*
X101705483Y-125790643D01*
X101651479Y-125836731D01*
X101581131Y-125846306D01*
X101516774Y-125816329D01*
X101494517Y-125790643D01*
X101405720Y-125654729D01*
X101289570Y-125528559D01*
X101253240Y-125489094D01*
X101253239Y-125489093D01*
X101253237Y-125489091D01*
X101133367Y-125395792D01*
X101075576Y-125350811D01*
X100877574Y-125243658D01*
X100877572Y-125243657D01*
X100877571Y-125243656D01*
X100664639Y-125170557D01*
X100664630Y-125170555D01*
X100587029Y-125157606D01*
X100442569Y-125133500D01*
X100217431Y-125133500D01*
X100072971Y-125157606D01*
X99995369Y-125170555D01*
X99995360Y-125170557D01*
X99782428Y-125243656D01*
X99782426Y-125243658D01*
X99584426Y-125350810D01*
X99584424Y-125350811D01*
X99406762Y-125489091D01*
X99254279Y-125654729D01*
X99165183Y-125791101D01*
X99111179Y-125837189D01*
X99040831Y-125846764D01*
X98976474Y-125816786D01*
X98954217Y-125791100D01*
X98865327Y-125655044D01*
X98712902Y-125489465D01*
X98535301Y-125351232D01*
X98535300Y-125351231D01*
X98337371Y-125244117D01*
X98337369Y-125244116D01*
X98124512Y-125171043D01*
X98124501Y-125171040D01*
X98044000Y-125157606D01*
X98044000Y-126058325D01*
X97932315Y-126007320D01*
X97825763Y-125992000D01*
X97754237Y-125992000D01*
X97647685Y-126007320D01*
X97536000Y-126058325D01*
X97536000Y-125157607D01*
X97535999Y-125157606D01*
X97455498Y-125171040D01*
X97455487Y-125171043D01*
X97242630Y-125244116D01*
X97242628Y-125244117D01*
X97044699Y-125351231D01*
X97044698Y-125351232D01*
X96867096Y-125489465D01*
X96805951Y-125555888D01*
X96745098Y-125592459D01*
X96674134Y-125590324D01*
X96615588Y-125550163D01*
X96595195Y-125514583D01*
X96550889Y-125395796D01*
X96550887Y-125395792D01*
X96463262Y-125278740D01*
X96463261Y-125278739D01*
X96461173Y-125277176D01*
X96459607Y-125275084D01*
X96456889Y-125272366D01*
X96457279Y-125271975D01*
X96418628Y-125220341D01*
X96413564Y-125149525D01*
X96447587Y-125087216D01*
X103855659Y-117679144D01*
X103917967Y-117645121D01*
X103988782Y-117650186D01*
X104045618Y-117692733D01*
X104051990Y-117702095D01*
X104082361Y-117751333D01*
X104082370Y-117751345D01*
X104207654Y-117876629D01*
X104207660Y-117876634D01*
X104358474Y-117969657D01*
X104526678Y-118025393D01*
X104526681Y-118025394D01*
X104630483Y-118035999D01*
X104630483Y-118036000D01*
X104902000Y-118036000D01*
X104902000Y-117282000D01*
X105410000Y-117282000D01*
X105410000Y-118036000D01*
X105681517Y-118036000D01*
X105681516Y-118035999D01*
X105785318Y-118025394D01*
X105785321Y-118025393D01*
X105953525Y-117969657D01*
X106104339Y-117876634D01*
X106104345Y-117876629D01*
X106229629Y-117751345D01*
X106229634Y-117751339D01*
X106322657Y-117600525D01*
X106378393Y-117432321D01*
X106378394Y-117432318D01*
X106388999Y-117328516D01*
X106389000Y-117328516D01*
X106389000Y-117282000D01*
X105410000Y-117282000D01*
X104902000Y-117282000D01*
X104902000Y-116900000D01*
X104922002Y-116831879D01*
X104975658Y-116785386D01*
X105028000Y-116774000D01*
X106389000Y-116774000D01*
X106389000Y-116727483D01*
X106378394Y-116623681D01*
X106378393Y-116623678D01*
X106322657Y-116455474D01*
X106229634Y-116304660D01*
X106229629Y-116304654D01*
X106104344Y-116179369D01*
X106101551Y-116177161D01*
X106100131Y-116175156D01*
X106099150Y-116174175D01*
X106099317Y-116174007D01*
X106060519Y-116119222D01*
X106057325Y-116048298D01*
X106092983Y-115986905D01*
X106101554Y-115979478D01*
X106104639Y-115977037D01*
X106104652Y-115977030D01*
X106230030Y-115851652D01*
X106323115Y-115700738D01*
X106378887Y-115532426D01*
X106389500Y-115428545D01*
X106389499Y-115178824D01*
X106409501Y-115110706D01*
X106463156Y-115064213D01*
X106527849Y-115053433D01*
X106679997Y-115068418D01*
X106680000Y-115068418D01*
X106680003Y-115068418D01*
X106879261Y-115048793D01*
X106879263Y-115048793D01*
X106879264Y-115048792D01*
X106879269Y-115048792D01*
X107070880Y-114990667D01*
X107144384Y-114951377D01*
X107203780Y-114936500D01*
X116674367Y-114936500D01*
X116742488Y-114956502D01*
X116763462Y-114973405D01*
X129031303Y-127241246D01*
X129065329Y-127303558D01*
X129060264Y-127374373D01*
X129017717Y-127431209D01*
X128962951Y-127454622D01*
X128951373Y-127456554D01*
X128951360Y-127456557D01*
X128738428Y-127529656D01*
X128738426Y-127529658D01*
X128540426Y-127636810D01*
X128540424Y-127636811D01*
X128362762Y-127775091D01*
X128210279Y-127940729D01*
X128121183Y-128077101D01*
X128067179Y-128123189D01*
X127996831Y-128132764D01*
X127932474Y-128102786D01*
X127910217Y-128077100D01*
X127821327Y-127941044D01*
X127668902Y-127775465D01*
X127491301Y-127637232D01*
X127491300Y-127637231D01*
X127293371Y-127530117D01*
X127293369Y-127530116D01*
X127080512Y-127457043D01*
X127080501Y-127457040D01*
X127000000Y-127443606D01*
X127000000Y-128344325D01*
X126888315Y-128293320D01*
X126781763Y-128278000D01*
X126710237Y-128278000D01*
X126603685Y-128293320D01*
X126492000Y-128344325D01*
X126492000Y-127443607D01*
X126491999Y-127443606D01*
X126411498Y-127457040D01*
X126411487Y-127457043D01*
X126198630Y-127530116D01*
X126198628Y-127530117D01*
X126000699Y-127637231D01*
X126000698Y-127637232D01*
X125823097Y-127775465D01*
X125670674Y-127941041D01*
X125547580Y-128129451D01*
X125457179Y-128335543D01*
X125457176Y-128335550D01*
X125409455Y-128523999D01*
X125409456Y-128524000D01*
X126314884Y-128524000D01*
X126286507Y-128568156D01*
X126246000Y-128706111D01*
X126246000Y-128849889D01*
X126286507Y-128987844D01*
X126314884Y-129032000D01*
X125409455Y-129032000D01*
X125457176Y-129220449D01*
X125457179Y-129220456D01*
X125547580Y-129426548D01*
X125670674Y-129614958D01*
X125823097Y-129780534D01*
X126000698Y-129918767D01*
X126000699Y-129918768D01*
X126198628Y-130025882D01*
X126198630Y-130025883D01*
X126411483Y-130098955D01*
X126411492Y-130098957D01*
X126492000Y-130112391D01*
X126492000Y-129211674D01*
X126603685Y-129262680D01*
X126710237Y-129278000D01*
X126781763Y-129278000D01*
X126888315Y-129262680D01*
X127000000Y-129211674D01*
X127000000Y-130112390D01*
X127080507Y-130098957D01*
X127080516Y-130098955D01*
X127293369Y-130025883D01*
X127293371Y-130025882D01*
X127491300Y-129918768D01*
X127491301Y-129918767D01*
X127668902Y-129780534D01*
X127821327Y-129614955D01*
X127910217Y-129478899D01*
X127964220Y-129432810D01*
X128034568Y-129423235D01*
X128098925Y-129453212D01*
X128121183Y-129478898D01*
X128210279Y-129615270D01*
X128362762Y-129780908D01*
X128401501Y-129811060D01*
X128540424Y-129919189D01*
X128738426Y-130026342D01*
X128738427Y-130026342D01*
X128738428Y-130026343D01*
X128850227Y-130064723D01*
X128951365Y-130099444D01*
X129173431Y-130136500D01*
X129173435Y-130136500D01*
X129398565Y-130136500D01*
X129398569Y-130136500D01*
X129620635Y-130099444D01*
X129833574Y-130026342D01*
X130031576Y-129919189D01*
X130209240Y-129780906D01*
X130270245Y-129714637D01*
X130331096Y-129678067D01*
X130402061Y-129680200D01*
X130460606Y-129720362D01*
X130481000Y-129755941D01*
X130525111Y-129874204D01*
X130525112Y-129874207D01*
X130612738Y-129991261D01*
X130729792Y-130078887D01*
X130729794Y-130078888D01*
X130729796Y-130078889D01*
X130783600Y-130098957D01*
X130866795Y-130129988D01*
X130866803Y-130129990D01*
X130927350Y-130136499D01*
X130927355Y-130136499D01*
X130927362Y-130136500D01*
X130927368Y-130136500D01*
X132724632Y-130136500D01*
X132724638Y-130136500D01*
X132724645Y-130136499D01*
X132724649Y-130136499D01*
X132785196Y-130129990D01*
X132785199Y-130129989D01*
X132785201Y-130129989D01*
X132922204Y-130078889D01*
X132992399Y-130026342D01*
X133039261Y-129991261D01*
X133126887Y-129874207D01*
X133126887Y-129874206D01*
X133126889Y-129874204D01*
X133177989Y-129737201D01*
X133178439Y-129733020D01*
X133184499Y-129676649D01*
X133184500Y-129676632D01*
X133184500Y-128067765D01*
X137645788Y-128067765D01*
X137675412Y-128337014D01*
X137743928Y-128599090D01*
X137849869Y-128848389D01*
X137894923Y-128922211D01*
X137990982Y-129079610D01*
X138164255Y-129287820D01*
X138365998Y-129468582D01*
X138591910Y-129618044D01*
X138837176Y-129733020D01*
X139096569Y-129811060D01*
X139096572Y-129811060D01*
X139096574Y-129811061D01*
X139364557Y-129850500D01*
X139364561Y-129850500D01*
X139567631Y-129850500D01*
X139770156Y-129835677D01*
X139770160Y-129835676D01*
X139770161Y-129835676D01*
X139880665Y-129811060D01*
X140034553Y-129776780D01*
X140287558Y-129680014D01*
X140523777Y-129547441D01*
X140738177Y-129381888D01*
X140926186Y-129186881D01*
X141083799Y-128966579D01*
X141143794Y-128849889D01*
X141207656Y-128725675D01*
X141207657Y-128725672D01*
X141266349Y-128553632D01*
X141295118Y-128469305D01*
X141344319Y-128202933D01*
X141354212Y-127932235D01*
X141338880Y-127792889D01*
X141324587Y-127662985D01*
X141273981Y-127469416D01*
X141256072Y-127400912D01*
X141250487Y-127387770D01*
X141150130Y-127151610D01*
X141141357Y-127137235D01*
X141009018Y-126920390D01*
X140835745Y-126712180D01*
X140835741Y-126712177D01*
X140835740Y-126712175D01*
X140634012Y-126531427D01*
X140634002Y-126531418D01*
X140408090Y-126381956D01*
X140162824Y-126266980D01*
X140005392Y-126219615D01*
X139903425Y-126188938D01*
X139635442Y-126149500D01*
X139635439Y-126149500D01*
X139432369Y-126149500D01*
X139229839Y-126164323D01*
X139229838Y-126164323D01*
X138965456Y-126223217D01*
X138965441Y-126223222D01*
X138712441Y-126319986D01*
X138476229Y-126452555D01*
X138476225Y-126452557D01*
X138261818Y-126618116D01*
X138073815Y-126813117D01*
X138073810Y-126813123D01*
X137916203Y-127033417D01*
X137916196Y-127033427D01*
X137792343Y-127274324D01*
X137792342Y-127274327D01*
X137704883Y-127530689D01*
X137704880Y-127530702D01*
X137655681Y-127797058D01*
X137655680Y-127797069D01*
X137645788Y-128067765D01*
X133184500Y-128067765D01*
X133184500Y-127879367D01*
X133184499Y-127879350D01*
X133177990Y-127818803D01*
X133177988Y-127818795D01*
X133126889Y-127681797D01*
X133126887Y-127681792D01*
X133039261Y-127564738D01*
X132922207Y-127477112D01*
X132922202Y-127477110D01*
X132785204Y-127426011D01*
X132785196Y-127426009D01*
X132724649Y-127419500D01*
X132724638Y-127419500D01*
X131777633Y-127419500D01*
X131709512Y-127399498D01*
X131688538Y-127382595D01*
X117780488Y-113474545D01*
X117767646Y-113459509D01*
X117759669Y-113448530D01*
X117709938Y-113403751D01*
X117705154Y-113399210D01*
X117691013Y-113385069D01*
X117691007Y-113385064D01*
X117675449Y-113372465D01*
X117670434Y-113368182D01*
X117668289Y-113366251D01*
X117620715Y-113323415D01*
X117608961Y-113316629D01*
X117592667Y-113305430D01*
X117582123Y-113296891D01*
X117522520Y-113266523D01*
X117516739Y-113263385D01*
X117462379Y-113232000D01*
X125268835Y-113232000D01*
X125287465Y-113468711D01*
X125301110Y-113525545D01*
X125342894Y-113699592D01*
X125413503Y-113870057D01*
X125433760Y-113918963D01*
X125556650Y-114119501D01*
X125557825Y-114121417D01*
X125557826Y-114121419D01*
X125712030Y-114301969D01*
X125831901Y-114404348D01*
X125892584Y-114456176D01*
X126095037Y-114580240D01*
X126314406Y-114671105D01*
X126545289Y-114726535D01*
X126782000Y-114745165D01*
X127018711Y-114726535D01*
X127249594Y-114671105D01*
X127468963Y-114580240D01*
X127671416Y-114456176D01*
X127851969Y-114301969D01*
X128006176Y-114121416D01*
X128130240Y-113918963D01*
X128221105Y-113699594D01*
X128276535Y-113468711D01*
X128295165Y-113232000D01*
X128276535Y-112995289D01*
X128221105Y-112764406D01*
X128130240Y-112545037D01*
X128006176Y-112342584D01*
X128006173Y-112342580D01*
X127851969Y-112162030D01*
X127671419Y-112007826D01*
X127671417Y-112007825D01*
X127671416Y-112007824D01*
X127468963Y-111883760D01*
X127452926Y-111877117D01*
X127249592Y-111792894D01*
X127091651Y-111754976D01*
X127018711Y-111737465D01*
X126782000Y-111718835D01*
X126545289Y-111737465D01*
X126314407Y-111792894D01*
X126095038Y-111883759D01*
X125892582Y-112007825D01*
X125892580Y-112007826D01*
X125712030Y-112162030D01*
X125557826Y-112342580D01*
X125557825Y-112342582D01*
X125433759Y-112545038D01*
X125342894Y-112764407D01*
X125307498Y-112911844D01*
X125287465Y-112995289D01*
X125268835Y-113232000D01*
X117462379Y-113232000D01*
X117458785Y-113229925D01*
X117451393Y-113227523D01*
X117445872Y-113225729D01*
X117427613Y-113218165D01*
X117415524Y-113212006D01*
X117415521Y-113212005D01*
X117350906Y-113194691D01*
X117344582Y-113192818D01*
X117280957Y-113172144D01*
X117267463Y-113170726D01*
X117248033Y-113167125D01*
X117234919Y-113163611D01*
X117234908Y-113163610D01*
X117168112Y-113160110D01*
X117161534Y-113159593D01*
X117141623Y-113157500D01*
X117141620Y-113157500D01*
X117121593Y-113157500D01*
X117114999Y-113157327D01*
X117112793Y-113157211D01*
X117048191Y-113153825D01*
X117034786Y-113155949D01*
X117015075Y-113157500D01*
X107591554Y-113157500D01*
X107523433Y-113137498D01*
X107476940Y-113083842D01*
X107466836Y-113013568D01*
X107496330Y-112948988D01*
X107502459Y-112942405D01*
X109590459Y-110854405D01*
X109652771Y-110820379D01*
X109679554Y-110817500D01*
X112090737Y-110817500D01*
X112110447Y-110819050D01*
X112123852Y-110821174D01*
X112190661Y-110817672D01*
X112197255Y-110817500D01*
X112217274Y-110817500D01*
X112217282Y-110817500D01*
X112237240Y-110815401D01*
X112243703Y-110814892D01*
X112310577Y-110811389D01*
X112323682Y-110807876D01*
X112343133Y-110804272D01*
X112356618Y-110802855D01*
X112356620Y-110802854D01*
X112356622Y-110802854D01*
X112420235Y-110782184D01*
X112426564Y-110780309D01*
X112491182Y-110762995D01*
X112491181Y-110762995D01*
X112491186Y-110762994D01*
X112503275Y-110756833D01*
X112521539Y-110749268D01*
X112534447Y-110745075D01*
X112534450Y-110745073D01*
X112534451Y-110745073D01*
X112550991Y-110735522D01*
X112592391Y-110711619D01*
X112598151Y-110708491D01*
X112657787Y-110678107D01*
X112668333Y-110669565D01*
X112684621Y-110658371D01*
X112696377Y-110651585D01*
X112696380Y-110651581D01*
X112696382Y-110651581D01*
X112746089Y-110606824D01*
X112751096Y-110602545D01*
X112766668Y-110589937D01*
X112780840Y-110575763D01*
X112785611Y-110571237D01*
X112835326Y-110526475D01*
X112835327Y-110526473D01*
X112835331Y-110526470D01*
X112843316Y-110515478D01*
X112856145Y-110500458D01*
X116624603Y-106732000D01*
X125268835Y-106732000D01*
X125287465Y-106968711D01*
X125304976Y-107041651D01*
X125342894Y-107199592D01*
X125342895Y-107199594D01*
X125433760Y-107418963D01*
X125548310Y-107605891D01*
X125557825Y-107621417D01*
X125557826Y-107621419D01*
X125712030Y-107801969D01*
X125821087Y-107895112D01*
X125892584Y-107956176D01*
X126095037Y-108080240D01*
X126314406Y-108171105D01*
X126545289Y-108226535D01*
X126782000Y-108245165D01*
X127018711Y-108226535D01*
X127249594Y-108171105D01*
X127468963Y-108080240D01*
X127671416Y-107956176D01*
X127851969Y-107801969D01*
X128006176Y-107621416D01*
X128130240Y-107418963D01*
X128221105Y-107199594D01*
X128276535Y-106968711D01*
X128295165Y-106732000D01*
X128276535Y-106495289D01*
X128221105Y-106264406D01*
X128130240Y-106045037D01*
X128006176Y-105842584D01*
X128006173Y-105842580D01*
X127851969Y-105662030D01*
X127671419Y-105507826D01*
X127671417Y-105507825D01*
X127671416Y-105507824D01*
X127468963Y-105383760D01*
X127250744Y-105293371D01*
X127249592Y-105292894D01*
X127091651Y-105254976D01*
X127018711Y-105237465D01*
X126782000Y-105218835D01*
X126545289Y-105237465D01*
X126314407Y-105292894D01*
X126095038Y-105383759D01*
X125892582Y-105507825D01*
X125892580Y-105507826D01*
X125712030Y-105662030D01*
X125557826Y-105842580D01*
X125557825Y-105842582D01*
X125433759Y-106045038D01*
X125342894Y-106264407D01*
X125307498Y-106411844D01*
X125287465Y-106495289D01*
X125268835Y-106732000D01*
X116624603Y-106732000D01*
X121554603Y-101802000D01*
X125268835Y-101802000D01*
X125287465Y-102038711D01*
X125304976Y-102111651D01*
X125342894Y-102269592D01*
X125342895Y-102269594D01*
X125433760Y-102488963D01*
X125548310Y-102675891D01*
X125557825Y-102691417D01*
X125557826Y-102691419D01*
X125712030Y-102871969D01*
X125854476Y-102993629D01*
X125892584Y-103026176D01*
X126095037Y-103150240D01*
X126314406Y-103241105D01*
X126545289Y-103296535D01*
X126782000Y-103315165D01*
X127018711Y-103296535D01*
X127249594Y-103241105D01*
X127468963Y-103150240D01*
X127671416Y-103026176D01*
X127851969Y-102871969D01*
X128006176Y-102691416D01*
X128130240Y-102488963D01*
X128221105Y-102269594D01*
X128276535Y-102038711D01*
X128295165Y-101802000D01*
X128276535Y-101565289D01*
X128221105Y-101334406D01*
X128130240Y-101115037D01*
X128006176Y-100912584D01*
X128006173Y-100912580D01*
X127851969Y-100732030D01*
X127671419Y-100577826D01*
X127671417Y-100577825D01*
X127671416Y-100577824D01*
X127468963Y-100453760D01*
X127390180Y-100421127D01*
X127249592Y-100362894D01*
X127091651Y-100324976D01*
X127018711Y-100307465D01*
X126782000Y-100288835D01*
X126545289Y-100307465D01*
X126314407Y-100362894D01*
X126095038Y-100453759D01*
X125892582Y-100577825D01*
X125892580Y-100577826D01*
X125712030Y-100732030D01*
X125557826Y-100912580D01*
X125557825Y-100912582D01*
X125433759Y-101115038D01*
X125342894Y-101334407D01*
X125299090Y-101516866D01*
X125287465Y-101565289D01*
X125268835Y-101802000D01*
X121554603Y-101802000D01*
X121695458Y-101661145D01*
X121710478Y-101648316D01*
X121721470Y-101640331D01*
X121766241Y-101590605D01*
X121770763Y-101585840D01*
X121784937Y-101571668D01*
X121797545Y-101556096D01*
X121801824Y-101551089D01*
X121846581Y-101501382D01*
X121846581Y-101501380D01*
X121846585Y-101501377D01*
X121853371Y-101489621D01*
X121864565Y-101473333D01*
X121873107Y-101462787D01*
X121903491Y-101403151D01*
X121906619Y-101397391D01*
X121940075Y-101339447D01*
X121944268Y-101326539D01*
X121951833Y-101308275D01*
X121957994Y-101296186D01*
X121975309Y-101231561D01*
X121977184Y-101225235D01*
X121997854Y-101161622D01*
X121997855Y-101161616D01*
X121999272Y-101148133D01*
X122002877Y-101128682D01*
X122006389Y-101115577D01*
X122009892Y-101048703D01*
X122010401Y-101042240D01*
X122012500Y-101022282D01*
X122012500Y-101002255D01*
X122012673Y-100995660D01*
X122016174Y-100928852D01*
X122014051Y-100915446D01*
X122012500Y-100895736D01*
X122012500Y-97072924D01*
X122014051Y-97053212D01*
X122016174Y-97039807D01*
X122012673Y-96973008D01*
X122012500Y-96966413D01*
X122012500Y-96946388D01*
X122012500Y-96946380D01*
X122010404Y-96926451D01*
X122009888Y-96919882D01*
X122006388Y-96853085D01*
X122002875Y-96839974D01*
X121999274Y-96820541D01*
X121998656Y-96814662D01*
X121997855Y-96807044D01*
X121977181Y-96743417D01*
X121975307Y-96737090D01*
X121957994Y-96672475D01*
X121951832Y-96660382D01*
X121944268Y-96642121D01*
X121940075Y-96629215D01*
X121906606Y-96571245D01*
X121903476Y-96565479D01*
X121873109Y-96505879D01*
X121873103Y-96505871D01*
X121864570Y-96495334D01*
X121853373Y-96479043D01*
X121846585Y-96467285D01*
X121801795Y-96417541D01*
X121797541Y-96412559D01*
X121794091Y-96408299D01*
X121784937Y-96396994D01*
X121770762Y-96382819D01*
X121766237Y-96378050D01*
X121721472Y-96328333D01*
X121721471Y-96328332D01*
X121721470Y-96328331D01*
X121710483Y-96320348D01*
X121695452Y-96307509D01*
X120689943Y-95302000D01*
X125268835Y-95302000D01*
X125287465Y-95538711D01*
X125292564Y-95559951D01*
X125342894Y-95769592D01*
X125394610Y-95894445D01*
X125433760Y-95988963D01*
X125548310Y-96175891D01*
X125557825Y-96191417D01*
X125557826Y-96191419D01*
X125712030Y-96371969D01*
X125868819Y-96505879D01*
X125892584Y-96526176D01*
X126095037Y-96650240D01*
X126314406Y-96741105D01*
X126545289Y-96796535D01*
X126782000Y-96815165D01*
X127018711Y-96796535D01*
X127249594Y-96741105D01*
X127468963Y-96650240D01*
X127671416Y-96526176D01*
X127851969Y-96371969D01*
X128006176Y-96191416D01*
X128130240Y-95988963D01*
X128221105Y-95769594D01*
X128276535Y-95538711D01*
X128295165Y-95302000D01*
X128276535Y-95065289D01*
X128221105Y-94834406D01*
X128130240Y-94615037D01*
X128006176Y-94412584D01*
X127981028Y-94383139D01*
X127851969Y-94232030D01*
X127671419Y-94077826D01*
X127671417Y-94077825D01*
X127671416Y-94077824D01*
X127468963Y-93953760D01*
X127288809Y-93879138D01*
X127249592Y-93862894D01*
X127057702Y-93816826D01*
X127018711Y-93807465D01*
X126782000Y-93788835D01*
X126545289Y-93807465D01*
X126314407Y-93862894D01*
X126095038Y-93953759D01*
X125892582Y-94077825D01*
X125892580Y-94077826D01*
X125712030Y-94232030D01*
X125557826Y-94412580D01*
X125557825Y-94412582D01*
X125433759Y-94615038D01*
X125342894Y-94834407D01*
X125299574Y-95014852D01*
X125287465Y-95065289D01*
X125268835Y-95302000D01*
X120689943Y-95302000D01*
X119267081Y-93879138D01*
X119233055Y-93816826D01*
X119230176Y-93790043D01*
X119230176Y-82333098D01*
X119250178Y-82264977D01*
X119303834Y-82218484D01*
X119374108Y-82208380D01*
X119438688Y-82237874D01*
X119445271Y-82244003D01*
X128861528Y-91660260D01*
X128895554Y-91722572D01*
X128898433Y-91749355D01*
X128898433Y-116907763D01*
X128878431Y-116975884D01*
X128866069Y-116992073D01*
X128794898Y-117071115D01*
X128794891Y-117071125D01*
X128699409Y-117236505D01*
X128699406Y-117236512D01*
X128640390Y-117418139D01*
X128620429Y-117608067D01*
X128640390Y-117797994D01*
X128670459Y-117890537D01*
X128699406Y-117979623D01*
X128699409Y-117979628D01*
X128794891Y-118145008D01*
X128794898Y-118145018D01*
X128922677Y-118286931D01*
X128922680Y-118286933D01*
X129077181Y-118399185D01*
X129251645Y-118476861D01*
X129438446Y-118516567D01*
X129629420Y-118516567D01*
X129816221Y-118476861D01*
X129990685Y-118399185D01*
X130145186Y-118286933D01*
X130272973Y-118145011D01*
X130368460Y-117979623D01*
X130427475Y-117797995D01*
X130447437Y-117608067D01*
X130427475Y-117418139D01*
X130368460Y-117236511D01*
X130272973Y-117071123D01*
X130272971Y-117071121D01*
X130272967Y-117071115D01*
X130201797Y-116992073D01*
X130171079Y-116928066D01*
X130169433Y-116907763D01*
X130169433Y-114538243D01*
X130189435Y-114470122D01*
X130243091Y-114423629D01*
X130313365Y-114413525D01*
X130377266Y-114442434D01*
X130392879Y-114455769D01*
X130595266Y-114579793D01*
X130814562Y-114670628D01*
X131045367Y-114726039D01*
X131282000Y-114744662D01*
X131518632Y-114726039D01*
X131749437Y-114670628D01*
X131968738Y-114579791D01*
X132155890Y-114465102D01*
X132155891Y-114465101D01*
X131449624Y-113758834D01*
X131570458Y-113706349D01*
X131687739Y-113610934D01*
X131774928Y-113487415D01*
X131806838Y-113397627D01*
X132515102Y-114105891D01*
X132515102Y-114105890D01*
X132629791Y-113918738D01*
X132720628Y-113699437D01*
X132776039Y-113468632D01*
X132794662Y-113232000D01*
X132776039Y-112995367D01*
X132720628Y-112764562D01*
X132629791Y-112545261D01*
X132515102Y-112358108D01*
X132515101Y-112358107D01*
X131808902Y-113064306D01*
X131805116Y-113046085D01*
X131735558Y-112911844D01*
X131632362Y-112801348D01*
X131503181Y-112722791D01*
X131447577Y-112707211D01*
X132155890Y-111998897D01*
X132155890Y-111998896D01*
X131968738Y-111884208D01*
X131749437Y-111793371D01*
X131518632Y-111737960D01*
X131282000Y-111719337D01*
X131045367Y-111737960D01*
X130814562Y-111793371D01*
X130595266Y-111884206D01*
X130392877Y-112008231D01*
X130392875Y-112008232D01*
X130377263Y-112021567D01*
X130312473Y-112050598D01*
X130242273Y-112039993D01*
X130188951Y-111993118D01*
X130169433Y-111925756D01*
X130169433Y-108038243D01*
X130189435Y-107970122D01*
X130243091Y-107923629D01*
X130313365Y-107913525D01*
X130377266Y-107942434D01*
X130392879Y-107955769D01*
X130595266Y-108079793D01*
X130814562Y-108170628D01*
X131045367Y-108226039D01*
X131282000Y-108244662D01*
X131518632Y-108226039D01*
X131749437Y-108170628D01*
X131968738Y-108079791D01*
X132155890Y-107965102D01*
X132155891Y-107965101D01*
X131449624Y-107258834D01*
X131570458Y-107206349D01*
X131687739Y-107110934D01*
X131774928Y-106987415D01*
X131806838Y-106897627D01*
X132515102Y-107605891D01*
X132515102Y-107605890D01*
X132629791Y-107418738D01*
X132720628Y-107199437D01*
X132776039Y-106968632D01*
X132794662Y-106732000D01*
X132776039Y-106495367D01*
X132720628Y-106264562D01*
X132629791Y-106045261D01*
X132515102Y-105858108D01*
X132515101Y-105858107D01*
X131808902Y-106564306D01*
X131805116Y-106546085D01*
X131735558Y-106411844D01*
X131632362Y-106301348D01*
X131503181Y-106222791D01*
X131447577Y-106207211D01*
X132155890Y-105498897D01*
X132155890Y-105498896D01*
X131968738Y-105384208D01*
X131749437Y-105293371D01*
X131518632Y-105237960D01*
X131282000Y-105219337D01*
X131045367Y-105237960D01*
X130814562Y-105293371D01*
X130595266Y-105384206D01*
X130392877Y-105508231D01*
X130392875Y-105508232D01*
X130377263Y-105521567D01*
X130312473Y-105550598D01*
X130242273Y-105539993D01*
X130188951Y-105493118D01*
X130169433Y-105425756D01*
X130169433Y-103108243D01*
X130189435Y-103040122D01*
X130243091Y-102993629D01*
X130313365Y-102983525D01*
X130377266Y-103012434D01*
X130392879Y-103025769D01*
X130595266Y-103149793D01*
X130814562Y-103240628D01*
X131045367Y-103296039D01*
X131282000Y-103314662D01*
X131518632Y-103296039D01*
X131749437Y-103240628D01*
X131968738Y-103149791D01*
X132155890Y-103035102D01*
X132155891Y-103035101D01*
X131449624Y-102328834D01*
X131570458Y-102276349D01*
X131687739Y-102180934D01*
X131774928Y-102057415D01*
X131806838Y-101967627D01*
X132515102Y-102675891D01*
X132515102Y-102675890D01*
X132629791Y-102488738D01*
X132720628Y-102269437D01*
X132776039Y-102038632D01*
X132794662Y-101802000D01*
X132776039Y-101565367D01*
X132720628Y-101334562D01*
X132629791Y-101115261D01*
X132515102Y-100928108D01*
X132515101Y-100928107D01*
X131808902Y-101634306D01*
X131805116Y-101616085D01*
X131735558Y-101481844D01*
X131632362Y-101371348D01*
X131503181Y-101292791D01*
X131447577Y-101277211D01*
X132155890Y-100568897D01*
X132155890Y-100568896D01*
X131968738Y-100454208D01*
X131749437Y-100363371D01*
X131518632Y-100307960D01*
X131282000Y-100289337D01*
X131045367Y-100307960D01*
X130814562Y-100363371D01*
X130595266Y-100454206D01*
X130392877Y-100578231D01*
X130392875Y-100578232D01*
X130377263Y-100591567D01*
X130312473Y-100620598D01*
X130242273Y-100609993D01*
X130188951Y-100563118D01*
X130169433Y-100495756D01*
X130169433Y-96608243D01*
X130189435Y-96540122D01*
X130243091Y-96493629D01*
X130313365Y-96483525D01*
X130377266Y-96512434D01*
X130392879Y-96525769D01*
X130595266Y-96649793D01*
X130814562Y-96740628D01*
X131045367Y-96796039D01*
X131282000Y-96814662D01*
X131518632Y-96796039D01*
X131749437Y-96740628D01*
X131968738Y-96649791D01*
X132155890Y-96535102D01*
X132155891Y-96535101D01*
X131449624Y-95828834D01*
X131570458Y-95776349D01*
X131687739Y-95680934D01*
X131774928Y-95557415D01*
X131806838Y-95467627D01*
X132515102Y-96175891D01*
X132515102Y-96175890D01*
X132629791Y-95988738D01*
X132720628Y-95769437D01*
X132776039Y-95538632D01*
X132794662Y-95302000D01*
X132776039Y-95065367D01*
X132720628Y-94834562D01*
X132629791Y-94615261D01*
X132515102Y-94428108D01*
X132515101Y-94428107D01*
X131808902Y-95134306D01*
X131805116Y-95116085D01*
X131735558Y-94981844D01*
X131632362Y-94871348D01*
X131503181Y-94792791D01*
X131447577Y-94777211D01*
X132155890Y-94068897D01*
X132155890Y-94068896D01*
X131968738Y-93954208D01*
X131749437Y-93863371D01*
X131518632Y-93807960D01*
X131282000Y-93789337D01*
X131045367Y-93807960D01*
X130814562Y-93863371D01*
X130595266Y-93954206D01*
X130392877Y-94078231D01*
X130392875Y-94078232D01*
X130377263Y-94091567D01*
X130312473Y-94120598D01*
X130242273Y-94109993D01*
X130188951Y-94063118D01*
X130169433Y-93995756D01*
X130169433Y-91518008D01*
X130171185Y-91502135D01*
X130170896Y-91502108D01*
X130171642Y-91494215D01*
X130169495Y-91425901D01*
X130169433Y-91421943D01*
X130169433Y-91393953D01*
X130169433Y-91393950D01*
X130168924Y-91389927D01*
X130167991Y-91378081D01*
X130166984Y-91346029D01*
X130166598Y-91333728D01*
X130160917Y-91314176D01*
X130156910Y-91294828D01*
X130154360Y-91274634D01*
X130138017Y-91233358D01*
X130134184Y-91222160D01*
X130121802Y-91179540D01*
X130111440Y-91162020D01*
X130102742Y-91144264D01*
X130095252Y-91125345D01*
X130069163Y-91089437D01*
X130062650Y-91079521D01*
X130056864Y-91069738D01*
X130040067Y-91041335D01*
X130040064Y-91041331D01*
X130025682Y-91026949D01*
X130012841Y-91011916D01*
X130000874Y-90995445D01*
X129966675Y-90967153D01*
X129957896Y-90959164D01*
X120307954Y-81309221D01*
X120273928Y-81246909D01*
X120271739Y-81206955D01*
X120280385Y-81124700D01*
X120260423Y-80934772D01*
X120201408Y-80753144D01*
X120105921Y-80587756D01*
X120105919Y-80587754D01*
X120105915Y-80587748D01*
X119978136Y-80445835D01*
X119823633Y-80333582D01*
X119649169Y-80255906D01*
X119462368Y-80216200D01*
X119356176Y-80216200D01*
X119288055Y-80196198D01*
X119241562Y-80142542D01*
X119230176Y-80090200D01*
X119230176Y-73067765D01*
X137645788Y-73067765D01*
X137675412Y-73337014D01*
X137743928Y-73599090D01*
X137849869Y-73848389D01*
X137849870Y-73848390D01*
X137990982Y-74079610D01*
X138164255Y-74287820D01*
X138365998Y-74468582D01*
X138591910Y-74618044D01*
X138837176Y-74733020D01*
X139096569Y-74811060D01*
X139096572Y-74811060D01*
X139096574Y-74811061D01*
X139364557Y-74850500D01*
X139364561Y-74850500D01*
X139567631Y-74850500D01*
X139770156Y-74835677D01*
X139770160Y-74835676D01*
X139770161Y-74835676D01*
X139880665Y-74811060D01*
X140034553Y-74776780D01*
X140287558Y-74680014D01*
X140523777Y-74547441D01*
X140738177Y-74381888D01*
X140926186Y-74186881D01*
X141083799Y-73966579D01*
X141207656Y-73725675D01*
X141295118Y-73469305D01*
X141336844Y-73243405D01*
X141344318Y-73202941D01*
X141344319Y-73202930D01*
X141344336Y-73202472D01*
X141354212Y-72932235D01*
X141339338Y-72797058D01*
X141324587Y-72662985D01*
X141256071Y-72400909D01*
X141150130Y-72151610D01*
X141009018Y-71920390D01*
X140835745Y-71712180D01*
X140835741Y-71712177D01*
X140835740Y-71712175D01*
X140634012Y-71531427D01*
X140634002Y-71531418D01*
X140408090Y-71381956D01*
X140162824Y-71266980D01*
X140005392Y-71219615D01*
X139903425Y-71188938D01*
X139635442Y-71149500D01*
X139635439Y-71149500D01*
X139432369Y-71149500D01*
X139229839Y-71164323D01*
X139229838Y-71164323D01*
X138965456Y-71223217D01*
X138965441Y-71223222D01*
X138712441Y-71319986D01*
X138476229Y-71452555D01*
X138476225Y-71452557D01*
X138261818Y-71618116D01*
X138073815Y-71813117D01*
X138073810Y-71813123D01*
X137916203Y-72033417D01*
X137916196Y-72033427D01*
X137792343Y-72274324D01*
X137792342Y-72274327D01*
X137704883Y-72530689D01*
X137704880Y-72530702D01*
X137655681Y-72797058D01*
X137655680Y-72797069D01*
X137645788Y-73067765D01*
X119230176Y-73067765D01*
X119230176Y-71176599D01*
X119231727Y-71156887D01*
X119233850Y-71143482D01*
X119230349Y-71076683D01*
X119230176Y-71070088D01*
X119230176Y-71050064D01*
X119230176Y-71050056D01*
X119228080Y-71030128D01*
X119227564Y-71023559D01*
X119224064Y-70956767D01*
X119224064Y-70956761D01*
X119220552Y-70943656D01*
X119216949Y-70924212D01*
X119215190Y-70907472D01*
X119214500Y-70894305D01*
X119214500Y-69713367D01*
X119214499Y-69713350D01*
X119207990Y-69652803D01*
X119207988Y-69652795D01*
X119156889Y-69515797D01*
X119156887Y-69515792D01*
X119069261Y-69398738D01*
X118952207Y-69311112D01*
X118952202Y-69311110D01*
X118815204Y-69260011D01*
X118815196Y-69260009D01*
X118754649Y-69253500D01*
X118754638Y-69253500D01*
X116957362Y-69253500D01*
X116957350Y-69253500D01*
X116896803Y-69260009D01*
X116896795Y-69260011D01*
X116759797Y-69311110D01*
X116759792Y-69311112D01*
X116642738Y-69398738D01*
X116555112Y-69515792D01*
X116555111Y-69515795D01*
X116511000Y-69634058D01*
X116468453Y-69690893D01*
X116401932Y-69715703D01*
X116332558Y-69700611D01*
X116300246Y-69675363D01*
X116239240Y-69609094D01*
X116239239Y-69609093D01*
X116239237Y-69609091D01*
X116119372Y-69515796D01*
X116061576Y-69470811D01*
X115863574Y-69363658D01*
X115863572Y-69363657D01*
X115863571Y-69363656D01*
X115650639Y-69290557D01*
X115650630Y-69290555D01*
X115573029Y-69277606D01*
X115428569Y-69253500D01*
X115203431Y-69253500D01*
X115058971Y-69277606D01*
X114981369Y-69290555D01*
X114981360Y-69290557D01*
X114768428Y-69363656D01*
X114768426Y-69363658D01*
X114570426Y-69470810D01*
X114570424Y-69470811D01*
X114392762Y-69609091D01*
X114240279Y-69774729D01*
X114151483Y-69910643D01*
X114097479Y-69956731D01*
X114027131Y-69966306D01*
X113962774Y-69936329D01*
X113940517Y-69910643D01*
X113851720Y-69774729D01*
X113722221Y-69634058D01*
X113699240Y-69609094D01*
X113699239Y-69609093D01*
X113699237Y-69609091D01*
X113579372Y-69515796D01*
X113521576Y-69470811D01*
X113323574Y-69363658D01*
X113323572Y-69363657D01*
X113323571Y-69363656D01*
X113110639Y-69290557D01*
X113110630Y-69290555D01*
X113033029Y-69277606D01*
X112888569Y-69253500D01*
X112663431Y-69253500D01*
X112518971Y-69277606D01*
X112441369Y-69290555D01*
X112441360Y-69290557D01*
X112228428Y-69363656D01*
X112228426Y-69363658D01*
X112030426Y-69470810D01*
X112030424Y-69470811D01*
X111852762Y-69609091D01*
X111700279Y-69774729D01*
X111611183Y-69911101D01*
X111557179Y-69957189D01*
X111486831Y-69966764D01*
X111422474Y-69936786D01*
X111400217Y-69911100D01*
X111311327Y-69775044D01*
X111158902Y-69609465D01*
X110981301Y-69471232D01*
X110981300Y-69471231D01*
X110783371Y-69364117D01*
X110783369Y-69364116D01*
X110570512Y-69291043D01*
X110570501Y-69291040D01*
X110490000Y-69277606D01*
X110490000Y-70178325D01*
X110378315Y-70127320D01*
X110271763Y-70112000D01*
X110200237Y-70112000D01*
X110093685Y-70127320D01*
X109982000Y-70178325D01*
X109982000Y-69277607D01*
X109981999Y-69277606D01*
X109901498Y-69291040D01*
X109901487Y-69291043D01*
X109688630Y-69364116D01*
X109688628Y-69364117D01*
X109490699Y-69471231D01*
X109490698Y-69471232D01*
X109313097Y-69609465D01*
X109160674Y-69775041D01*
X109037580Y-69963451D01*
X108947179Y-70169543D01*
X108947176Y-70169550D01*
X108899455Y-70357999D01*
X108899456Y-70358000D01*
X109804884Y-70358000D01*
X109776507Y-70402156D01*
X109736000Y-70540111D01*
X109736000Y-70683889D01*
X109776507Y-70821844D01*
X109804884Y-70866000D01*
X108899455Y-70866000D01*
X108947176Y-71054449D01*
X108947179Y-71054456D01*
X109037580Y-71260548D01*
X109160674Y-71448958D01*
X109313097Y-71614534D01*
X109490698Y-71752767D01*
X109490699Y-71752768D01*
X109688628Y-71859882D01*
X109688630Y-71859883D01*
X109901483Y-71932955D01*
X109901490Y-71932957D01*
X110067301Y-71960626D01*
X110131200Y-71991568D01*
X110168228Y-72052144D01*
X110166627Y-72123123D01*
X110135657Y-72174003D01*
X102122602Y-80187058D01*
X102108753Y-80199028D01*
X102089179Y-80213601D01*
X102089176Y-80213603D01*
X102056820Y-80252163D01*
X102049409Y-80260252D01*
X102045427Y-80264234D01*
X102045421Y-80264241D01*
X102025884Y-80288948D01*
X102023576Y-80291782D01*
X101974604Y-80350147D01*
X101970574Y-80356275D01*
X101970523Y-80356242D01*
X101966405Y-80362706D01*
X101966455Y-80362737D01*
X101962605Y-80368978D01*
X101930394Y-80438054D01*
X101928798Y-80441351D01*
X101894605Y-80509434D01*
X101892095Y-80516332D01*
X101892039Y-80516311D01*
X101889525Y-80523545D01*
X101889582Y-80523564D01*
X101887273Y-80530529D01*
X101871865Y-80605148D01*
X101871073Y-80608722D01*
X101853500Y-80682874D01*
X101852648Y-80690167D01*
X101852587Y-80690159D01*
X101851809Y-80697773D01*
X101851871Y-80697779D01*
X101851231Y-80705090D01*
X101853447Y-80781254D01*
X101853500Y-80784918D01*
X101853500Y-89090274D01*
X101833498Y-89158395D01*
X101793648Y-89197514D01*
X101711850Y-89247968D01*
X101711841Y-89247975D01*
X101586475Y-89373341D01*
X101586470Y-89373347D01*
X101493385Y-89524262D01*
X101437613Y-89692572D01*
X101437612Y-89692579D01*
X101427000Y-89796446D01*
X101427000Y-90797544D01*
X101437612Y-90901425D01*
X101493385Y-91069738D01*
X101586470Y-91220652D01*
X101586475Y-91220658D01*
X101711841Y-91346024D01*
X101711847Y-91346029D01*
X101711848Y-91346030D01*
X101862762Y-91439115D01*
X102031074Y-91494887D01*
X102134955Y-91505500D01*
X102761044Y-91505499D01*
X102864926Y-91494887D01*
X103033238Y-91439115D01*
X103184152Y-91346030D01*
X103271406Y-91258775D01*
X103333716Y-91224752D01*
X103404532Y-91229816D01*
X103449595Y-91258777D01*
X103473595Y-91282777D01*
X103507621Y-91345089D01*
X103510500Y-91371872D01*
X103510500Y-92922627D01*
X103490498Y-92990748D01*
X103473595Y-93011722D01*
X103466741Y-93018576D01*
X103404429Y-93052602D01*
X103333614Y-93047537D01*
X103288551Y-93018576D01*
X103201345Y-92931370D01*
X103201339Y-92931365D01*
X103050525Y-92838342D01*
X102882321Y-92782606D01*
X102882318Y-92782605D01*
X102778516Y-92772000D01*
X102719500Y-92772000D01*
X102719500Y-95188000D01*
X102778517Y-95188000D01*
X102778516Y-95187999D01*
X102882318Y-95177394D01*
X102882321Y-95177393D01*
X103050525Y-95121657D01*
X103201339Y-95028634D01*
X103201345Y-95028629D01*
X103288551Y-94941424D01*
X103350863Y-94907398D01*
X103421678Y-94912463D01*
X103466741Y-94941424D01*
X103554341Y-95029024D01*
X103554347Y-95029029D01*
X103554348Y-95029030D01*
X103705262Y-95122115D01*
X103873574Y-95177887D01*
X103977455Y-95188500D01*
X104603544Y-95188499D01*
X104707426Y-95177887D01*
X104875738Y-95122115D01*
X105026652Y-95029030D01*
X105152030Y-94903652D01*
X105214512Y-94802352D01*
X105267298Y-94754875D01*
X105321753Y-94742500D01*
X106057973Y-94742500D01*
X106126094Y-94762502D01*
X106147068Y-94779405D01*
X106270597Y-94902934D01*
X106301334Y-94953090D01*
X106353473Y-95113556D01*
X106353476Y-95113561D01*
X106448958Y-95278941D01*
X106448965Y-95278951D01*
X106515208Y-95352521D01*
X106545926Y-95416528D01*
X106537161Y-95486982D01*
X106491698Y-95541513D01*
X106423971Y-95562808D01*
X106421572Y-95562831D01*
X105507046Y-95562831D01*
X105447650Y-95547953D01*
X105340316Y-95490581D01*
X105340310Y-95490579D01*
X105226681Y-95456110D01*
X105148702Y-95432455D01*
X105148701Y-95432454D01*
X105148695Y-95432453D01*
X104949436Y-95412829D01*
X104949430Y-95412829D01*
X104750171Y-95432453D01*
X104750169Y-95432453D01*
X104558555Y-95490579D01*
X104558549Y-95490581D01*
X104381966Y-95584967D01*
X104227181Y-95711995D01*
X104100153Y-95866780D01*
X104005767Y-96043363D01*
X104005765Y-96043369D01*
X103947639Y-96234983D01*
X103947639Y-96234985D01*
X103928015Y-96434243D01*
X103930119Y-96455610D01*
X103916888Y-96525363D01*
X103868047Y-96576891D01*
X103844358Y-96587562D01*
X103737765Y-96622883D01*
X103586847Y-96715970D01*
X103586841Y-96715975D01*
X103461471Y-96841345D01*
X103459011Y-96844457D01*
X103456781Y-96846035D01*
X103456280Y-96846537D01*
X103456194Y-96846451D01*
X103401068Y-96885483D01*
X103330143Y-96888671D01*
X103268754Y-96853008D01*
X103261337Y-96844446D01*
X103259132Y-96841657D01*
X103133845Y-96716370D01*
X103133839Y-96716365D01*
X102983025Y-96623342D01*
X102814821Y-96567606D01*
X102814818Y-96567605D01*
X102711016Y-96557000D01*
X102664500Y-96557000D01*
X102664500Y-99023000D01*
X102711017Y-99023000D01*
X102711016Y-99022999D01*
X102814818Y-99012394D01*
X102814821Y-99012393D01*
X102983025Y-98956657D01*
X103133839Y-98863634D01*
X103133845Y-98863629D01*
X103259124Y-98738350D01*
X103261332Y-98735558D01*
X103263337Y-98734137D01*
X103264325Y-98733150D01*
X103264493Y-98733318D01*
X103319268Y-98694522D01*
X103390193Y-98691323D01*
X103451588Y-98726976D01*
X103459015Y-98735547D01*
X103461469Y-98738651D01*
X103461470Y-98738652D01*
X103511096Y-98788278D01*
X103545120Y-98850588D01*
X103548000Y-98877372D01*
X103548000Y-99537470D01*
X103527998Y-99605591D01*
X103511095Y-99626566D01*
X103214481Y-99923179D01*
X103152169Y-99957204D01*
X103151585Y-99957329D01*
X103095713Y-99969205D01*
X102921249Y-100046881D01*
X102921248Y-100046882D01*
X102766749Y-100159132D01*
X102766742Y-100159138D01*
X102762239Y-100164139D01*
X102701790Y-100201374D01*
X102630806Y-100200016D01*
X102579515Y-100168916D01*
X100454599Y-98044000D01*
X101402500Y-98044000D01*
X101402500Y-98315516D01*
X101413105Y-98419318D01*
X101413106Y-98419321D01*
X101468842Y-98587525D01*
X101561865Y-98738339D01*
X101561870Y-98738345D01*
X101687154Y-98863629D01*
X101687160Y-98863634D01*
X101837974Y-98956657D01*
X102006178Y-99012393D01*
X102006181Y-99012394D01*
X102109983Y-99022999D01*
X102109983Y-99023000D01*
X102156500Y-99023000D01*
X102156500Y-98044000D01*
X101402500Y-98044000D01*
X100454599Y-98044000D01*
X99946599Y-97536000D01*
X101402500Y-97536000D01*
X102156500Y-97536000D01*
X102156500Y-96557000D01*
X102109983Y-96557000D01*
X102006181Y-96567605D01*
X102006178Y-96567606D01*
X101837974Y-96623342D01*
X101687160Y-96716365D01*
X101687154Y-96716370D01*
X101561870Y-96841654D01*
X101561865Y-96841660D01*
X101468842Y-96992474D01*
X101413106Y-97160678D01*
X101413105Y-97160681D01*
X101402500Y-97264483D01*
X101402500Y-97536000D01*
X99946599Y-97536000D01*
X96644599Y-94234000D01*
X101445000Y-94234000D01*
X101445000Y-94480516D01*
X101455605Y-94584318D01*
X101455606Y-94584321D01*
X101511342Y-94752525D01*
X101604365Y-94903339D01*
X101604370Y-94903345D01*
X101729654Y-95028629D01*
X101729660Y-95028634D01*
X101880474Y-95121657D01*
X102048678Y-95177393D01*
X102048681Y-95177394D01*
X102152483Y-95187999D01*
X102152483Y-95188000D01*
X102211500Y-95188000D01*
X102211500Y-94234000D01*
X101445000Y-94234000D01*
X96644599Y-94234000D01*
X96136599Y-93726000D01*
X101445000Y-93726000D01*
X102211500Y-93726000D01*
X102211500Y-92772000D01*
X102152483Y-92772000D01*
X102048681Y-92782605D01*
X102048678Y-92782606D01*
X101880474Y-92838342D01*
X101729660Y-92931365D01*
X101729654Y-92931370D01*
X101604370Y-93056654D01*
X101604365Y-93056660D01*
X101511342Y-93207474D01*
X101455606Y-93375678D01*
X101455605Y-93375681D01*
X101445000Y-93479483D01*
X101445000Y-93726000D01*
X96136599Y-93726000D01*
X95033405Y-92622806D01*
X94999379Y-92560494D01*
X94996500Y-92533711D01*
X94996500Y-86382071D01*
X95013381Y-86319071D01*
X95013710Y-86318501D01*
X95068527Y-86223556D01*
X95127542Y-86041928D01*
X95147504Y-85852000D01*
X95127542Y-85662072D01*
X95068527Y-85480444D01*
X95068525Y-85480441D01*
X95068524Y-85480437D01*
X95013381Y-85384926D01*
X94996500Y-85321927D01*
X94996500Y-84442027D01*
X95016502Y-84373906D01*
X95033405Y-84352932D01*
X96836337Y-82550000D01*
X98715516Y-80670820D01*
X98777826Y-80636796D01*
X98778181Y-80636719D01*
X98834288Y-80624794D01*
X99008752Y-80547118D01*
X99163253Y-80434866D01*
X99234017Y-80356275D01*
X99291034Y-80292951D01*
X99291035Y-80292949D01*
X99291040Y-80292944D01*
X99386527Y-80127556D01*
X99445542Y-79945928D01*
X99465504Y-79756000D01*
X99445542Y-79566072D01*
X99386527Y-79384444D01*
X99291040Y-79219056D01*
X99291038Y-79219054D01*
X99291034Y-79219048D01*
X99163255Y-79077135D01*
X99008752Y-78964882D01*
X98834288Y-78887206D01*
X98647487Y-78847500D01*
X98456513Y-78847500D01*
X98269711Y-78887206D01*
X98095247Y-78964882D01*
X97940744Y-79077135D01*
X97812965Y-79219048D01*
X97812958Y-79219058D01*
X97717476Y-79384438D01*
X97717473Y-79384445D01*
X97665335Y-79544905D01*
X97634597Y-79595063D01*
X93740602Y-83489058D01*
X93726753Y-83501028D01*
X93707179Y-83515601D01*
X93707176Y-83515603D01*
X93695020Y-83530091D01*
X93635910Y-83569416D01*
X93564922Y-83570542D01*
X93504595Y-83533109D01*
X93474082Y-83469004D01*
X93472500Y-83449098D01*
X93472500Y-80286071D01*
X93489381Y-80223071D01*
X93493348Y-80216200D01*
X93544527Y-80127556D01*
X93603542Y-79945928D01*
X93623504Y-79756000D01*
X93603542Y-79566072D01*
X93544527Y-79384444D01*
X93449040Y-79219056D01*
X93449038Y-79219054D01*
X93449034Y-79219048D01*
X93321255Y-79077135D01*
X93166752Y-78964882D01*
X92992288Y-78887206D01*
X92805487Y-78847500D01*
X92614513Y-78847500D01*
X92427711Y-78887206D01*
X92253247Y-78964882D01*
X92098744Y-79077135D01*
X91970965Y-79219048D01*
X91970958Y-79219058D01*
X91875476Y-79384438D01*
X91875473Y-79384445D01*
X91816457Y-79566072D01*
X91796496Y-79756000D01*
X91816457Y-79945927D01*
X91846526Y-80038470D01*
X91875473Y-80127556D01*
X91925152Y-80213603D01*
X91930619Y-80223071D01*
X91947500Y-80286071D01*
X91947500Y-92807271D01*
X91946170Y-92825530D01*
X91942634Y-92849668D01*
X91942634Y-92849673D01*
X91947021Y-92899817D01*
X91947500Y-92910797D01*
X91947500Y-92916420D01*
X91951155Y-92947696D01*
X91951527Y-92951337D01*
X91958168Y-93027236D01*
X91959652Y-93034423D01*
X91959593Y-93034435D01*
X91961251Y-93041916D01*
X91961310Y-93041903D01*
X91963002Y-93049043D01*
X91989070Y-93120666D01*
X91990272Y-93124126D01*
X92014234Y-93196438D01*
X92017335Y-93203088D01*
X92017280Y-93203113D01*
X92020619Y-93210010D01*
X92020673Y-93209983D01*
X92023964Y-93216537D01*
X92065850Y-93280222D01*
X92067807Y-93283292D01*
X92107812Y-93348149D01*
X92107813Y-93348150D01*
X92107815Y-93348153D01*
X92112362Y-93353903D01*
X92112314Y-93353940D01*
X92117154Y-93359881D01*
X92117200Y-93359843D01*
X92121915Y-93365462D01*
X92177375Y-93417787D01*
X92180003Y-93420340D01*
X103314597Y-104554935D01*
X103345334Y-104605092D01*
X103397473Y-104765556D01*
X103397476Y-104765561D01*
X103492958Y-104930941D01*
X103492965Y-104930951D01*
X103620744Y-105072864D01*
X103620747Y-105072866D01*
X103775248Y-105185118D01*
X103949712Y-105262794D01*
X104136513Y-105302500D01*
X104327487Y-105302500D01*
X104514288Y-105262794D01*
X104688752Y-105185118D01*
X104843253Y-105072866D01*
X104971040Y-104930944D01*
X105066527Y-104765556D01*
X105125542Y-104583928D01*
X105128589Y-104554934D01*
X105133593Y-104507330D01*
X105160606Y-104441673D01*
X105218828Y-104401043D01*
X105258903Y-104394500D01*
X111669473Y-104394500D01*
X111737594Y-104414502D01*
X111758568Y-104431405D01*
X111882097Y-104554934D01*
X111912834Y-104605090D01*
X111964973Y-104765556D01*
X111964976Y-104765561D01*
X112060458Y-104930941D01*
X112060465Y-104930951D01*
X112188244Y-105072864D01*
X112188247Y-105072866D01*
X112342748Y-105185118D01*
X112517212Y-105262794D01*
X112704013Y-105302500D01*
X112894987Y-105302500D01*
X113081788Y-105262794D01*
X113256252Y-105185118D01*
X113410753Y-105072866D01*
X113538540Y-104930944D01*
X113634027Y-104765556D01*
X113693042Y-104583928D01*
X113713004Y-104394000D01*
X113693042Y-104204072D01*
X113634027Y-104022444D01*
X113538540Y-103857056D01*
X113538538Y-103857054D01*
X113538534Y-103857048D01*
X113410755Y-103715135D01*
X113256252Y-103602882D01*
X113081788Y-103525206D01*
X113025911Y-103513328D01*
X112963438Y-103479599D01*
X112963015Y-103479177D01*
X112622442Y-103138604D01*
X112610470Y-103124752D01*
X112595898Y-103105178D01*
X112595896Y-103105176D01*
X112557335Y-103072819D01*
X112549233Y-103065394D01*
X112545271Y-103061432D01*
X112545267Y-103061429D01*
X112545265Y-103061427D01*
X112520562Y-103041894D01*
X112517722Y-103039581D01*
X112459355Y-102990605D01*
X112453228Y-102986576D01*
X112453261Y-102986524D01*
X112446803Y-102982410D01*
X112446772Y-102982461D01*
X112440519Y-102978604D01*
X112371458Y-102946400D01*
X112368161Y-102944804D01*
X112300069Y-102910607D01*
X112293171Y-102908097D01*
X112293191Y-102908039D01*
X112285959Y-102905525D01*
X112285940Y-102905583D01*
X112278977Y-102903275D01*
X112204365Y-102887869D01*
X112200790Y-102887076D01*
X112126625Y-102869500D01*
X112119333Y-102868648D01*
X112119340Y-102868587D01*
X112111726Y-102867809D01*
X112111721Y-102867871D01*
X112104409Y-102867231D01*
X112028246Y-102869447D01*
X112024582Y-102869500D01*
X105332289Y-102869500D01*
X105264168Y-102849498D01*
X105243194Y-102832595D01*
X104044526Y-101633927D01*
X104010500Y-101571615D01*
X104015565Y-101500800D01*
X104039982Y-101460525D01*
X104117040Y-101374944D01*
X104212527Y-101209556D01*
X104264665Y-101049090D01*
X104295401Y-100998934D01*
X104803905Y-100490431D01*
X104817743Y-100478472D01*
X104837322Y-100463898D01*
X104869677Y-100425336D01*
X104877096Y-100417240D01*
X104881073Y-100413265D01*
X104900649Y-100388504D01*
X104902895Y-100385749D01*
X104951896Y-100327353D01*
X104951896Y-100327351D01*
X104951899Y-100327349D01*
X104955930Y-100321220D01*
X104955983Y-100321255D01*
X104960095Y-100314800D01*
X104960041Y-100314767D01*
X104963887Y-100308529D01*
X104963895Y-100308520D01*
X104996130Y-100239389D01*
X104997666Y-100236215D01*
X105031894Y-100168066D01*
X105031895Y-100168060D01*
X105031897Y-100168057D01*
X105034408Y-100161161D01*
X105034466Y-100161182D01*
X105036975Y-100153962D01*
X105036916Y-100153943D01*
X105039223Y-100146979D01*
X105039223Y-100146977D01*
X105039225Y-100146974D01*
X105054648Y-100072272D01*
X105055420Y-100068796D01*
X105060614Y-100046881D01*
X105073000Y-99994623D01*
X105073000Y-99994615D01*
X105073852Y-99987334D01*
X105073912Y-99987341D01*
X105074690Y-99979726D01*
X105074629Y-99979721D01*
X105075267Y-99972416D01*
X105075269Y-99972409D01*
X105073963Y-99927523D01*
X105091974Y-99858854D01*
X105144254Y-99810820D01*
X105214204Y-99798676D01*
X105225373Y-99800462D01*
X105243183Y-99804139D01*
X105246701Y-99804920D01*
X105320872Y-99822499D01*
X105320873Y-99822499D01*
X105320877Y-99822500D01*
X105320881Y-99822500D01*
X105328166Y-99823352D01*
X105328158Y-99823412D01*
X105335773Y-99824190D01*
X105335779Y-99824129D01*
X105343083Y-99824767D01*
X105343091Y-99824769D01*
X105419254Y-99822552D01*
X105422918Y-99822500D01*
X110829772Y-99822500D01*
X110848032Y-99823830D01*
X110850074Y-99824129D01*
X110872172Y-99827366D01*
X110918476Y-99823314D01*
X110922317Y-99822979D01*
X110933297Y-99822500D01*
X110938913Y-99822500D01*
X110952831Y-99820872D01*
X110970188Y-99818843D01*
X110973828Y-99818472D01*
X111049740Y-99811831D01*
X111049746Y-99811828D01*
X111056925Y-99810347D01*
X111056937Y-99810407D01*
X111064414Y-99808749D01*
X111064400Y-99808690D01*
X111071529Y-99806999D01*
X111071542Y-99806998D01*
X111143182Y-99780922D01*
X111146574Y-99779743D01*
X111218940Y-99755765D01*
X111218943Y-99755762D01*
X111225590Y-99752664D01*
X111225616Y-99752720D01*
X111232503Y-99749386D01*
X111232476Y-99749331D01*
X111239034Y-99746036D01*
X111239034Y-99746035D01*
X111239039Y-99746034D01*
X111302745Y-99704132D01*
X111305764Y-99702209D01*
X111370649Y-99662188D01*
X111370650Y-99662187D01*
X111376409Y-99657634D01*
X111376447Y-99657682D01*
X111382374Y-99652855D01*
X111382334Y-99652807D01*
X111387952Y-99648091D01*
X111387962Y-99648085D01*
X111440320Y-99592587D01*
X111442772Y-99590063D01*
X111997434Y-99035401D01*
X112059744Y-99001378D01*
X112086527Y-98998499D01*
X112477544Y-98998499D01*
X112581426Y-98987887D01*
X112749738Y-98932115D01*
X112900652Y-98839030D01*
X113026030Y-98713652D01*
X113088512Y-98612352D01*
X113141298Y-98564875D01*
X113195753Y-98552500D01*
X117233973Y-98552500D01*
X117302094Y-98572502D01*
X117323068Y-98589405D01*
X117954597Y-99220934D01*
X117985334Y-99271090D01*
X118037473Y-99431556D01*
X118037476Y-99431561D01*
X118132958Y-99596941D01*
X118132965Y-99596951D01*
X118260744Y-99738864D01*
X118271085Y-99746377D01*
X118415248Y-99851118D01*
X118589712Y-99928794D01*
X118776513Y-99968500D01*
X118967487Y-99968500D01*
X119154288Y-99928794D01*
X119202250Y-99907439D01*
X119272617Y-99898005D01*
X119336915Y-99928111D01*
X119374728Y-99988199D01*
X119379500Y-100022546D01*
X119379500Y-100407766D01*
X119359498Y-100475887D01*
X119342595Y-100496861D01*
X111545861Y-108293595D01*
X111483549Y-108327621D01*
X111456766Y-108330500D01*
X107400753Y-108330500D01*
X107332632Y-108310498D01*
X107293512Y-108270647D01*
X107282000Y-108251983D01*
X107231030Y-108169348D01*
X107231029Y-108169347D01*
X107231024Y-108169341D01*
X107105658Y-108043975D01*
X107105652Y-108043970D01*
X107096367Y-108038243D01*
X106954738Y-107950885D01*
X106841991Y-107913525D01*
X106786427Y-107895113D01*
X106786420Y-107895112D01*
X106682553Y-107884500D01*
X106056455Y-107884500D01*
X105952574Y-107895112D01*
X105784261Y-107950885D01*
X105633347Y-108043970D01*
X105633341Y-108043975D01*
X105546095Y-108131222D01*
X105483783Y-108165248D01*
X105412968Y-108160183D01*
X105367905Y-108131222D01*
X105280658Y-108043975D01*
X105280652Y-108043970D01*
X105271367Y-108038243D01*
X105129738Y-107950885D01*
X105016991Y-107913525D01*
X104961427Y-107895113D01*
X104961420Y-107895112D01*
X104857553Y-107884500D01*
X104231455Y-107884500D01*
X104127574Y-107895112D01*
X103959261Y-107950885D01*
X103808347Y-108043970D01*
X103808341Y-108043975D01*
X103682975Y-108169341D01*
X103682970Y-108169347D01*
X103589885Y-108320262D01*
X103534113Y-108488572D01*
X103534112Y-108488579D01*
X103523500Y-108592446D01*
X103523500Y-109593544D01*
X103534112Y-109697425D01*
X103589885Y-109865738D01*
X103682970Y-110016652D01*
X103745096Y-110078778D01*
X103779120Y-110141088D01*
X103782000Y-110167872D01*
X103782000Y-111171470D01*
X103761998Y-111239591D01*
X103745095Y-111260565D01*
X103198575Y-111807085D01*
X103136263Y-111841111D01*
X103065448Y-111836046D01*
X103008612Y-111793499D01*
X102998358Y-111777386D01*
X102957279Y-111700533D01*
X102957278Y-111700531D01*
X102830252Y-111545748D01*
X102675469Y-111418722D01*
X102675467Y-111418721D01*
X102675466Y-111418720D01*
X102498883Y-111324334D01*
X102498877Y-111324332D01*
X102307262Y-111266206D01*
X102108003Y-111246582D01*
X102107997Y-111246582D01*
X101908738Y-111266206D01*
X101908736Y-111266206D01*
X101717122Y-111324332D01*
X101717116Y-111324334D01*
X101540533Y-111418720D01*
X101385748Y-111545748D01*
X101258720Y-111700533D01*
X101164334Y-111877117D01*
X101140137Y-111956880D01*
X101108658Y-112009397D01*
X100160689Y-112957367D01*
X100098379Y-112991391D01*
X100071596Y-112994271D01*
X99326000Y-112994271D01*
X99300173Y-112996118D01*
X99252892Y-112999499D01*
X99252884Y-112999501D01*
X99112589Y-113040696D01*
X99112587Y-113040697D01*
X99022648Y-113098498D01*
X98954527Y-113118500D01*
X96195925Y-113118500D01*
X96176215Y-113116949D01*
X96162806Y-113114825D01*
X96098822Y-113118179D01*
X96096006Y-113118327D01*
X96089414Y-113118500D01*
X96069380Y-113118500D01*
X96069376Y-113118500D01*
X96069362Y-113118501D01*
X96049451Y-113120593D01*
X96042882Y-113121110D01*
X95976086Y-113124611D01*
X95962975Y-113128124D01*
X95943545Y-113131725D01*
X95930047Y-113133144D01*
X95866417Y-113153818D01*
X95860096Y-113155690D01*
X95795475Y-113173006D01*
X95795473Y-113173006D01*
X95783378Y-113179169D01*
X95765123Y-113186730D01*
X95752221Y-113190922D01*
X95752207Y-113190929D01*
X95694271Y-113224377D01*
X95688477Y-113227523D01*
X95628876Y-113257891D01*
X95618331Y-113266431D01*
X95602042Y-113277626D01*
X95590292Y-113284410D01*
X95590281Y-113284418D01*
X95540575Y-113329172D01*
X95535569Y-113333448D01*
X95520000Y-113346057D01*
X95519991Y-113346065D01*
X95505822Y-113360233D01*
X95501043Y-113364768D01*
X95451331Y-113409529D01*
X95443350Y-113420513D01*
X95430515Y-113435540D01*
X95085095Y-113780961D01*
X95022782Y-113814986D01*
X94951967Y-113809922D01*
X94906904Y-113780961D01*
X93890405Y-112764462D01*
X93856379Y-112702150D01*
X93853500Y-112675367D01*
X93853500Y-108981780D01*
X93868378Y-108922384D01*
X93907667Y-108848880D01*
X93965792Y-108657269D01*
X93972176Y-108592455D01*
X93985418Y-108458003D01*
X93985418Y-108457996D01*
X93965793Y-108258738D01*
X93965793Y-108258736D01*
X93965792Y-108258733D01*
X93965792Y-108258731D01*
X93907667Y-108067120D01*
X93813278Y-107890531D01*
X93686252Y-107735748D01*
X93531469Y-107608722D01*
X93531467Y-107608721D01*
X93531466Y-107608720D01*
X93354883Y-107514334D01*
X93354877Y-107514332D01*
X93163262Y-107456206D01*
X92964003Y-107436582D01*
X92963997Y-107436582D01*
X92764738Y-107456206D01*
X92764736Y-107456206D01*
X92573122Y-107514332D01*
X92573116Y-107514334D01*
X92396533Y-107608720D01*
X92241748Y-107735748D01*
X92114720Y-107890533D01*
X92020334Y-108067116D01*
X92020332Y-108067122D01*
X91962206Y-108258736D01*
X91962206Y-108258738D01*
X91942582Y-108457996D01*
X91942582Y-108458003D01*
X91962206Y-108657261D01*
X91962206Y-108657263D01*
X92020332Y-108848877D01*
X92020334Y-108848882D01*
X92059622Y-108922384D01*
X92074500Y-108981780D01*
X92074500Y-113016074D01*
X92072949Y-113035784D01*
X92070825Y-113049190D01*
X92073410Y-113098498D01*
X92074265Y-113114825D01*
X92074327Y-113115998D01*
X92074500Y-113122593D01*
X92074500Y-113142623D01*
X92076593Y-113162534D01*
X92077110Y-113169112D01*
X92080610Y-113235908D01*
X92080611Y-113235919D01*
X92084125Y-113249033D01*
X92087726Y-113268463D01*
X92089144Y-113281957D01*
X92109818Y-113345582D01*
X92111691Y-113351906D01*
X92127131Y-113409529D01*
X92129006Y-113416524D01*
X92135165Y-113428613D01*
X92142729Y-113446872D01*
X92146925Y-113459785D01*
X92180385Y-113517739D01*
X92183523Y-113523520D01*
X92213891Y-113583123D01*
X92222430Y-113593667D01*
X92233629Y-113609961D01*
X92240415Y-113621715D01*
X92285182Y-113671434D01*
X92289465Y-113676449D01*
X92302064Y-113692007D01*
X92302069Y-113692013D01*
X92316210Y-113706154D01*
X92320751Y-113710938D01*
X92365530Y-113760669D01*
X92376509Y-113768646D01*
X92391545Y-113781488D01*
X92633462Y-114023405D01*
X92667488Y-114085717D01*
X92662423Y-114156532D01*
X92619876Y-114213368D01*
X92553356Y-114238179D01*
X92544367Y-114238500D01*
X91469774Y-114238500D01*
X91403628Y-114219741D01*
X91348739Y-114185885D01*
X91180427Y-114130113D01*
X91180420Y-114130112D01*
X91076553Y-114119500D01*
X90025455Y-114119500D01*
X89921574Y-114130112D01*
X89753261Y-114185885D01*
X89602347Y-114278970D01*
X89602341Y-114278975D01*
X89476975Y-114404341D01*
X89476970Y-114404347D01*
X89383885Y-114555262D01*
X89328113Y-114723572D01*
X89328112Y-114723579D01*
X89317500Y-114827446D01*
X89317500Y-115428544D01*
X79500500Y-115428544D01*
X79500500Y-92710000D01*
X83218844Y-92710000D01*
X83237187Y-92931365D01*
X83237437Y-92934375D01*
X83292702Y-93152612D01*
X83292703Y-93152613D01*
X83292704Y-93152616D01*
X83374285Y-93338604D01*
X83383141Y-93358793D01*
X83506275Y-93547265D01*
X83506279Y-93547270D01*
X83658762Y-93712908D01*
X83675583Y-93726000D01*
X83836424Y-93851189D01*
X84034426Y-93958342D01*
X84034427Y-93958342D01*
X84034428Y-93958343D01*
X84143409Y-93995756D01*
X84247365Y-94031444D01*
X84469431Y-94068500D01*
X84469435Y-94068500D01*
X84694565Y-94068500D01*
X84694569Y-94068500D01*
X84916635Y-94031444D01*
X85129574Y-93958342D01*
X85327576Y-93851189D01*
X85505240Y-93712906D01*
X85657722Y-93547268D01*
X85780860Y-93358791D01*
X85871296Y-93152616D01*
X85926564Y-92934368D01*
X85945156Y-92710000D01*
X85926564Y-92485632D01*
X85874978Y-92281924D01*
X85871297Y-92267387D01*
X85871296Y-92267386D01*
X85871296Y-92267384D01*
X85780860Y-92061209D01*
X85707736Y-91949284D01*
X85657724Y-91872734D01*
X85657720Y-91872729D01*
X85541570Y-91746559D01*
X85505240Y-91707094D01*
X85505239Y-91707093D01*
X85505237Y-91707091D01*
X85398632Y-91624117D01*
X85327576Y-91568811D01*
X85294319Y-91550813D01*
X85243929Y-91500802D01*
X85228576Y-91431485D01*
X85253136Y-91364872D01*
X85294320Y-91329186D01*
X85327576Y-91311189D01*
X85505240Y-91172906D01*
X85657722Y-91007268D01*
X85780860Y-90818791D01*
X85871296Y-90612616D01*
X85926564Y-90394368D01*
X85945156Y-90170000D01*
X85926564Y-89945632D01*
X85913585Y-89894379D01*
X85871297Y-89727387D01*
X85871296Y-89727386D01*
X85871296Y-89727384D01*
X85780860Y-89521209D01*
X85684258Y-89373348D01*
X85657724Y-89332734D01*
X85657720Y-89332729D01*
X85505237Y-89167091D01*
X85404265Y-89088501D01*
X85327576Y-89028811D01*
X85294319Y-89010813D01*
X85243929Y-88960802D01*
X85228576Y-88891485D01*
X85253136Y-88824872D01*
X85294320Y-88789186D01*
X85327576Y-88771189D01*
X85505240Y-88632906D01*
X85657722Y-88467268D01*
X85780860Y-88278791D01*
X85871296Y-88072616D01*
X85926564Y-87854368D01*
X85945156Y-87630000D01*
X85926564Y-87405632D01*
X85871296Y-87187384D01*
X85780860Y-86981209D01*
X85730454Y-86904057D01*
X85657724Y-86792734D01*
X85657720Y-86792729D01*
X85505237Y-86627091D01*
X85423382Y-86563381D01*
X85327576Y-86488811D01*
X85294319Y-86470813D01*
X85243929Y-86420802D01*
X85228576Y-86351485D01*
X85253136Y-86284872D01*
X85294320Y-86249186D01*
X85327576Y-86231189D01*
X85505240Y-86092906D01*
X85657722Y-85927268D01*
X85780860Y-85738791D01*
X85871296Y-85532616D01*
X85926564Y-85314368D01*
X85945156Y-85090000D01*
X85926564Y-84865632D01*
X85871296Y-84647384D01*
X85780860Y-84441209D01*
X85723186Y-84352932D01*
X85657724Y-84252734D01*
X85657720Y-84252729D01*
X85541570Y-84126559D01*
X85505240Y-84087094D01*
X85505239Y-84087093D01*
X85505237Y-84087091D01*
X85368491Y-83980657D01*
X85327576Y-83948811D01*
X85294319Y-83930813D01*
X85243929Y-83880802D01*
X85228576Y-83811485D01*
X85253136Y-83744872D01*
X85294320Y-83709186D01*
X85327576Y-83691189D01*
X85505240Y-83552906D01*
X85657722Y-83387268D01*
X85661291Y-83381806D01*
X85678866Y-83354905D01*
X85780860Y-83198791D01*
X85871296Y-82992616D01*
X85926564Y-82774368D01*
X85945156Y-82550000D01*
X85926564Y-82325632D01*
X85904341Y-82237874D01*
X85871297Y-82107387D01*
X85871296Y-82107386D01*
X85871296Y-82107384D01*
X85780860Y-81901209D01*
X85774140Y-81890924D01*
X85657724Y-81712734D01*
X85657714Y-81712722D01*
X85514159Y-81556782D01*
X85482737Y-81493117D01*
X85490723Y-81422571D01*
X85535582Y-81367542D01*
X85562827Y-81353388D01*
X85677965Y-81310444D01*
X85794904Y-81222904D01*
X85882444Y-81105965D01*
X85882444Y-81105964D01*
X85933494Y-80969093D01*
X85939999Y-80908597D01*
X85940000Y-80908585D01*
X85940000Y-80264000D01*
X85013116Y-80264000D01*
X85041493Y-80219844D01*
X85082000Y-80081889D01*
X85082000Y-79938111D01*
X85041493Y-79800156D01*
X85013116Y-79756000D01*
X85940000Y-79756000D01*
X85940000Y-79111414D01*
X85939999Y-79111402D01*
X85933494Y-79050906D01*
X85882444Y-78914035D01*
X85882444Y-78914034D01*
X85794904Y-78797095D01*
X85677965Y-78709555D01*
X85541093Y-78658505D01*
X85480597Y-78652000D01*
X84836000Y-78652000D01*
X84836000Y-79576325D01*
X84724315Y-79525320D01*
X84617763Y-79510000D01*
X84546237Y-79510000D01*
X84439685Y-79525320D01*
X84328000Y-79576325D01*
X84328000Y-78652000D01*
X83683402Y-78652000D01*
X83622906Y-78658505D01*
X83486035Y-78709555D01*
X83486034Y-78709555D01*
X83369095Y-78797095D01*
X83281555Y-78914034D01*
X83281555Y-78914035D01*
X83230505Y-79050906D01*
X83224000Y-79111402D01*
X83224000Y-79756000D01*
X84150884Y-79756000D01*
X84122507Y-79800156D01*
X84082000Y-79938111D01*
X84082000Y-80081889D01*
X84122507Y-80219844D01*
X84150884Y-80264000D01*
X83224000Y-80264000D01*
X83224000Y-80908597D01*
X83230505Y-80969093D01*
X83281555Y-81105964D01*
X83281555Y-81105965D01*
X83369095Y-81222904D01*
X83486034Y-81310444D01*
X83601172Y-81353388D01*
X83658008Y-81395935D01*
X83682819Y-81462455D01*
X83667728Y-81531829D01*
X83649841Y-81556782D01*
X83506280Y-81712729D01*
X83506275Y-81712734D01*
X83383141Y-81901206D01*
X83292703Y-82107386D01*
X83292702Y-82107387D01*
X83237437Y-82325624D01*
X83237436Y-82325630D01*
X83237436Y-82325632D01*
X83218844Y-82550000D01*
X83232659Y-82716722D01*
X83237437Y-82774375D01*
X83292702Y-82992612D01*
X83292703Y-82992613D01*
X83292704Y-82992616D01*
X83308688Y-83029056D01*
X83383141Y-83198793D01*
X83506275Y-83387265D01*
X83506279Y-83387270D01*
X83658762Y-83552908D01*
X83681418Y-83570542D01*
X83836424Y-83691189D01*
X83869680Y-83709186D01*
X83920071Y-83759200D01*
X83935423Y-83828516D01*
X83910862Y-83895129D01*
X83869680Y-83930813D01*
X83836426Y-83948810D01*
X83836424Y-83948811D01*
X83658762Y-84087091D01*
X83506279Y-84252729D01*
X83506275Y-84252734D01*
X83383141Y-84441206D01*
X83292703Y-84647386D01*
X83292702Y-84647387D01*
X83237437Y-84865624D01*
X83237436Y-84865630D01*
X83237436Y-84865632D01*
X83218844Y-85090000D01*
X83236496Y-85303027D01*
X83237437Y-85314375D01*
X83292702Y-85532612D01*
X83292703Y-85532613D01*
X83292704Y-85532616D01*
X83363680Y-85694426D01*
X83383141Y-85738793D01*
X83506275Y-85927265D01*
X83506279Y-85927270D01*
X83658762Y-86092908D01*
X83713331Y-86135381D01*
X83836424Y-86231189D01*
X83869680Y-86249186D01*
X83920071Y-86299200D01*
X83935423Y-86368516D01*
X83910862Y-86435129D01*
X83869680Y-86470813D01*
X83836426Y-86488810D01*
X83836424Y-86488811D01*
X83658762Y-86627091D01*
X83506279Y-86792729D01*
X83506275Y-86792734D01*
X83383141Y-86981206D01*
X83292703Y-87187386D01*
X83292702Y-87187387D01*
X83237437Y-87405624D01*
X83237436Y-87405630D01*
X83237436Y-87405632D01*
X83218844Y-87630000D01*
X83234684Y-87821162D01*
X83237437Y-87854375D01*
X83292702Y-88072612D01*
X83292703Y-88072613D01*
X83383141Y-88278793D01*
X83506275Y-88467265D01*
X83506279Y-88467270D01*
X83658762Y-88632908D01*
X83713331Y-88675381D01*
X83836424Y-88771189D01*
X83869680Y-88789186D01*
X83920071Y-88839200D01*
X83935423Y-88908516D01*
X83910862Y-88975129D01*
X83869680Y-89010813D01*
X83836426Y-89028810D01*
X83836424Y-89028811D01*
X83658762Y-89167091D01*
X83506279Y-89332729D01*
X83506275Y-89332734D01*
X83383141Y-89521206D01*
X83292703Y-89727386D01*
X83292702Y-89727387D01*
X83237437Y-89945624D01*
X83237436Y-89945630D01*
X83237436Y-89945632D01*
X83230238Y-90032500D01*
X83218844Y-90170000D01*
X83237437Y-90394375D01*
X83292702Y-90612612D01*
X83292703Y-90612613D01*
X83292704Y-90612616D01*
X83335872Y-90711029D01*
X83383141Y-90818793D01*
X83506275Y-91007265D01*
X83506279Y-91007270D01*
X83658762Y-91172908D01*
X83667282Y-91179539D01*
X83836424Y-91311189D01*
X83869680Y-91329186D01*
X83920071Y-91379200D01*
X83935423Y-91448516D01*
X83910862Y-91515129D01*
X83869680Y-91550813D01*
X83836426Y-91568810D01*
X83836424Y-91568811D01*
X83658762Y-91707091D01*
X83506279Y-91872729D01*
X83506275Y-91872734D01*
X83383141Y-92061206D01*
X83292703Y-92267386D01*
X83292702Y-92267387D01*
X83237437Y-92485624D01*
X83237436Y-92485630D01*
X83237436Y-92485632D01*
X83218844Y-92710000D01*
X79500500Y-92710000D01*
X79500500Y-73067765D01*
X82645788Y-73067765D01*
X82675412Y-73337014D01*
X82743928Y-73599090D01*
X82849869Y-73848389D01*
X82849870Y-73848390D01*
X82990982Y-74079610D01*
X83164255Y-74287820D01*
X83365998Y-74468582D01*
X83591910Y-74618044D01*
X83837176Y-74733020D01*
X84096569Y-74811060D01*
X84096572Y-74811060D01*
X84096574Y-74811061D01*
X84364557Y-74850500D01*
X84364561Y-74850500D01*
X84567631Y-74850500D01*
X84770156Y-74835677D01*
X84770160Y-74835676D01*
X84770161Y-74835676D01*
X84880665Y-74811060D01*
X85034553Y-74776780D01*
X85287558Y-74680014D01*
X85523777Y-74547441D01*
X85738177Y-74381888D01*
X85926186Y-74186881D01*
X86083799Y-73966579D01*
X86207656Y-73725675D01*
X86295118Y-73469305D01*
X86336844Y-73243405D01*
X86344318Y-73202941D01*
X86344319Y-73202930D01*
X86344336Y-73202472D01*
X86354212Y-72932235D01*
X86339338Y-72797058D01*
X86324587Y-72662985D01*
X86256071Y-72400909D01*
X86150130Y-72151610D01*
X86009018Y-71920390D01*
X85835745Y-71712180D01*
X85835741Y-71712177D01*
X85835740Y-71712175D01*
X85634012Y-71531427D01*
X85634002Y-71531418D01*
X85408090Y-71381956D01*
X85162824Y-71266980D01*
X85005392Y-71219615D01*
X84903425Y-71188938D01*
X84635442Y-71149500D01*
X84635439Y-71149500D01*
X84432369Y-71149500D01*
X84229839Y-71164323D01*
X84229838Y-71164323D01*
X83965456Y-71223217D01*
X83965441Y-71223222D01*
X83712441Y-71319986D01*
X83476229Y-71452555D01*
X83476225Y-71452557D01*
X83261818Y-71618116D01*
X83073815Y-71813117D01*
X83073810Y-71813123D01*
X82916203Y-72033417D01*
X82916196Y-72033427D01*
X82792343Y-72274324D01*
X82792342Y-72274327D01*
X82704883Y-72530689D01*
X82704880Y-72530702D01*
X82655681Y-72797058D01*
X82655680Y-72797069D01*
X82645788Y-73067765D01*
X79500500Y-73067765D01*
X79500500Y-68126500D01*
X79520502Y-68058379D01*
X79574158Y-68011886D01*
X79626500Y-68000500D01*
X144373500Y-68000500D01*
X144441621Y-68020502D01*
G37*
%TD.AperFunction*%
%TD*%
M02*
