M48
; DRILL file {KiCad 7.0.10} date Sat Feb 24 20:42:56 2024
; FORMAT={-:-/ absolute / inch / decimal}
; #@! TF.CreationDate,2024-02-24T20:42:56-06:00
; #@! TF.GenerationSoftware,Kicad,Pcbnew,7.0.10
; #@! TF.FileFunction,Plated,1,2,PTH
FMAT,2
INCH
; #@! TA.AperFunction,Plated,PTH,ViaDrill
T1C0.0157
; #@! TA.AperFunction,Plated,PTH,ViaDrill
T2C0.0200
; #@! TA.AperFunction,Plated,PTH,ComponentDrill
T3C0.0394
%
G90
G05
T1
X3.32Y-3.96
X3.32Y-4.28
X3.32Y-4.67
X3.65Y-3.14
X3.71Y-3.31
X3.75Y-4.74
X3.88Y-3.14
X3.95Y-3.7
X3.96Y-3.41
X3.96Y-4.3
X4.04Y-4.54
X4.06Y-4.8
X4.07Y-3.97
X4.09Y-2.8
X4.1036Y-4.11
X4.1712Y-3.5088
X4.22Y-3.73
X4.31Y-3.45
X4.39Y-4.6
X4.4409Y-4.11
X4.47Y-3.32
X4.47Y-3.59
X4.48Y-3.78
X4.49Y-2.94
X4.51Y-4.81
X4.56Y-4.02
X4.59Y-3.79
X4.62Y-3.1009
X4.68Y-3.9
X4.6995Y-3.1939
X4.73Y-3.85
X4.79Y-4.32
X4.83Y-3.62
X4.86Y-4.52
X5.04Y-2.94
X5.0998Y-4.6302
X5.46Y-3.98
X5.46Y-4.5
X5.49Y-3.32
T2
X3.66Y-4.18
X4.02Y-4.42
X4.1319Y-3.7966
X4.2Y-4.49
X4.61Y-3.29
T3
X3.33Y-3.15
X3.33Y-3.25
X3.33Y-3.35
X3.33Y-3.45
X3.33Y-3.55
X3.33Y-3.65
X3.75Y-4.98
X3.85Y-4.98
X3.95Y-4.98
X4.05Y-4.98
X4.34Y-2.78
X4.44Y-2.78
X4.54Y-2.78
X4.64Y-2.78
X4.99Y-5.07
X5.09Y-5.07
X5.19Y-5.07
M30
