%TF.GenerationSoftware,KiCad,Pcbnew,7.0.10*%
%TF.CreationDate,2024-03-01T12:09:53-06:00*%
%TF.ProjectId,ESP32,45535033-322e-46b6-9963-61645f706362,rev?*%
%TF.SameCoordinates,Original*%
%TF.FileFunction,Legend,Top*%
%TF.FilePolarity,Positive*%
%FSLAX46Y46*%
G04 Gerber Fmt 4.6, Leading zero omitted, Abs format (unit mm)*
G04 Created by KiCad (PCBNEW 7.0.10) date 2024-03-01 12:09:53*
%MOMM*%
%LPD*%
G01*
G04 APERTURE LIST*
%ADD10C,0.150000*%
%ADD11C,0.600000*%
%ADD12C,0.100000*%
%ADD13C,0.120000*%
%ADD14C,0.152400*%
G04 APERTURE END LIST*
D10*
X80616588Y-79689438D02*
X80521350Y-79641819D01*
X80521350Y-79641819D02*
X80378493Y-79641819D01*
X80378493Y-79641819D02*
X80235636Y-79689438D01*
X80235636Y-79689438D02*
X80140398Y-79784676D01*
X80140398Y-79784676D02*
X80092779Y-79879914D01*
X80092779Y-79879914D02*
X80045160Y-80070390D01*
X80045160Y-80070390D02*
X80045160Y-80213247D01*
X80045160Y-80213247D02*
X80092779Y-80403723D01*
X80092779Y-80403723D02*
X80140398Y-80498961D01*
X80140398Y-80498961D02*
X80235636Y-80594200D01*
X80235636Y-80594200D02*
X80378493Y-80641819D01*
X80378493Y-80641819D02*
X80473731Y-80641819D01*
X80473731Y-80641819D02*
X80616588Y-80594200D01*
X80616588Y-80594200D02*
X80664207Y-80546580D01*
X80664207Y-80546580D02*
X80664207Y-80213247D01*
X80664207Y-80213247D02*
X80473731Y-80213247D01*
X81092779Y-80641819D02*
X81092779Y-79641819D01*
X81092779Y-79641819D02*
X81664207Y-80641819D01*
X81664207Y-80641819D02*
X81664207Y-79641819D01*
X82140398Y-80641819D02*
X82140398Y-79641819D01*
X82140398Y-79641819D02*
X82378493Y-79641819D01*
X82378493Y-79641819D02*
X82521350Y-79689438D01*
X82521350Y-79689438D02*
X82616588Y-79784676D01*
X82616588Y-79784676D02*
X82664207Y-79879914D01*
X82664207Y-79879914D02*
X82711826Y-80070390D01*
X82711826Y-80070390D02*
X82711826Y-80213247D01*
X82711826Y-80213247D02*
X82664207Y-80403723D01*
X82664207Y-80403723D02*
X82616588Y-80498961D01*
X82616588Y-80498961D02*
X82521350Y-80594200D01*
X82521350Y-80594200D02*
X82378493Y-80641819D01*
X82378493Y-80641819D02*
X82140398Y-80641819D01*
X95046969Y-128663819D02*
X94570779Y-128663819D01*
X94570779Y-128663819D02*
X94523160Y-129140009D01*
X94523160Y-129140009D02*
X94570779Y-129092390D01*
X94570779Y-129092390D02*
X94666017Y-129044771D01*
X94666017Y-129044771D02*
X94904112Y-129044771D01*
X94904112Y-129044771D02*
X94999350Y-129092390D01*
X94999350Y-129092390D02*
X95046969Y-129140009D01*
X95046969Y-129140009D02*
X95094588Y-129235247D01*
X95094588Y-129235247D02*
X95094588Y-129473342D01*
X95094588Y-129473342D02*
X95046969Y-129568580D01*
X95046969Y-129568580D02*
X94999350Y-129616200D01*
X94999350Y-129616200D02*
X94904112Y-129663819D01*
X94904112Y-129663819D02*
X94666017Y-129663819D01*
X94666017Y-129663819D02*
X94570779Y-129616200D01*
X94570779Y-129616200D02*
X94523160Y-129568580D01*
X95380303Y-128663819D02*
X95713636Y-129663819D01*
X95713636Y-129663819D02*
X96046969Y-128663819D01*
X80664207Y-82927819D02*
X80330874Y-82451628D01*
X80092779Y-82927819D02*
X80092779Y-81927819D01*
X80092779Y-81927819D02*
X80473731Y-81927819D01*
X80473731Y-81927819D02*
X80568969Y-81975438D01*
X80568969Y-81975438D02*
X80616588Y-82023057D01*
X80616588Y-82023057D02*
X80664207Y-82118295D01*
X80664207Y-82118295D02*
X80664207Y-82261152D01*
X80664207Y-82261152D02*
X80616588Y-82356390D01*
X80616588Y-82356390D02*
X80568969Y-82404009D01*
X80568969Y-82404009D02*
X80473731Y-82451628D01*
X80473731Y-82451628D02*
X80092779Y-82451628D01*
X80949922Y-81927819D02*
X81521350Y-81927819D01*
X81235636Y-82927819D02*
X81235636Y-81927819D01*
X81807065Y-82880200D02*
X81949922Y-82927819D01*
X81949922Y-82927819D02*
X82188017Y-82927819D01*
X82188017Y-82927819D02*
X82283255Y-82880200D01*
X82283255Y-82880200D02*
X82330874Y-82832580D01*
X82330874Y-82832580D02*
X82378493Y-82737342D01*
X82378493Y-82737342D02*
X82378493Y-82642104D01*
X82378493Y-82642104D02*
X82330874Y-82546866D01*
X82330874Y-82546866D02*
X82283255Y-82499247D01*
X82283255Y-82499247D02*
X82188017Y-82451628D01*
X82188017Y-82451628D02*
X81997541Y-82404009D01*
X81997541Y-82404009D02*
X81902303Y-82356390D01*
X81902303Y-82356390D02*
X81854684Y-82308771D01*
X81854684Y-82308771D02*
X81807065Y-82213533D01*
X81807065Y-82213533D02*
X81807065Y-82118295D01*
X81807065Y-82118295D02*
X81854684Y-82023057D01*
X81854684Y-82023057D02*
X81902303Y-81975438D01*
X81902303Y-81975438D02*
X81997541Y-81927819D01*
X81997541Y-81927819D02*
X82235636Y-81927819D01*
X82235636Y-81927819D02*
X82378493Y-81975438D01*
D11*
X135948228Y-108872978D02*
X135948228Y-107872978D01*
X137519657Y-107444406D02*
X137519657Y-108872978D01*
X137519657Y-108872978D02*
X134519657Y-108872978D01*
X134519657Y-108872978D02*
X134519657Y-107444406D01*
X137233942Y-104444406D02*
X137376800Y-104587263D01*
X137376800Y-104587263D02*
X137519657Y-105015835D01*
X137519657Y-105015835D02*
X137519657Y-105301549D01*
X137519657Y-105301549D02*
X137376800Y-105730120D01*
X137376800Y-105730120D02*
X137091085Y-106015835D01*
X137091085Y-106015835D02*
X136805371Y-106158692D01*
X136805371Y-106158692D02*
X136233942Y-106301549D01*
X136233942Y-106301549D02*
X135805371Y-106301549D01*
X135805371Y-106301549D02*
X135233942Y-106158692D01*
X135233942Y-106158692D02*
X134948228Y-106015835D01*
X134948228Y-106015835D02*
X134662514Y-105730120D01*
X134662514Y-105730120D02*
X134519657Y-105301549D01*
X134519657Y-105301549D02*
X134519657Y-105015835D01*
X134519657Y-105015835D02*
X134662514Y-104587263D01*
X134662514Y-104587263D02*
X134805371Y-104444406D01*
X135948228Y-103158692D02*
X135948228Y-102158692D01*
X137519657Y-101730120D02*
X137519657Y-103158692D01*
X137519657Y-103158692D02*
X134519657Y-103158692D01*
X134519657Y-103158692D02*
X134519657Y-101730120D01*
X135519657Y-96872978D02*
X137519657Y-96872978D01*
X134376800Y-97587263D02*
X136519657Y-98301549D01*
X136519657Y-98301549D02*
X136519657Y-96444406D01*
X135519657Y-94015835D02*
X137519657Y-94015835D01*
X134376800Y-94730120D02*
X136519657Y-95444406D01*
X136519657Y-95444406D02*
X136519657Y-93587263D01*
X134519657Y-91015834D02*
X134519657Y-92444406D01*
X134519657Y-92444406D02*
X135948228Y-92587263D01*
X135948228Y-92587263D02*
X135805371Y-92444406D01*
X135805371Y-92444406D02*
X135662514Y-92158692D01*
X135662514Y-92158692D02*
X135662514Y-91444406D01*
X135662514Y-91444406D02*
X135805371Y-91158692D01*
X135805371Y-91158692D02*
X135948228Y-91015834D01*
X135948228Y-91015834D02*
X136233942Y-90872977D01*
X136233942Y-90872977D02*
X136948228Y-90872977D01*
X136948228Y-90872977D02*
X137233942Y-91015834D01*
X137233942Y-91015834D02*
X137376800Y-91158692D01*
X137376800Y-91158692D02*
X137519657Y-91444406D01*
X137519657Y-91444406D02*
X137519657Y-92158692D01*
X137519657Y-92158692D02*
X137376800Y-92444406D01*
X137376800Y-92444406D02*
X137233942Y-92587263D01*
X139492514Y-107301549D02*
X139349657Y-107587264D01*
X139349657Y-107587264D02*
X139349657Y-108015835D01*
X139349657Y-108015835D02*
X139492514Y-108444406D01*
X139492514Y-108444406D02*
X139778228Y-108730121D01*
X139778228Y-108730121D02*
X140063942Y-108872978D01*
X140063942Y-108872978D02*
X140635371Y-109015835D01*
X140635371Y-109015835D02*
X141063942Y-109015835D01*
X141063942Y-109015835D02*
X141635371Y-108872978D01*
X141635371Y-108872978D02*
X141921085Y-108730121D01*
X141921085Y-108730121D02*
X142206800Y-108444406D01*
X142206800Y-108444406D02*
X142349657Y-108015835D01*
X142349657Y-108015835D02*
X142349657Y-107730121D01*
X142349657Y-107730121D02*
X142206800Y-107301549D01*
X142206800Y-107301549D02*
X142063942Y-107158692D01*
X142063942Y-107158692D02*
X141063942Y-107158692D01*
X141063942Y-107158692D02*
X141063942Y-107730121D01*
X142349657Y-105872978D02*
X140349657Y-105872978D01*
X140921085Y-105872978D02*
X140635371Y-105730121D01*
X140635371Y-105730121D02*
X140492514Y-105587264D01*
X140492514Y-105587264D02*
X140349657Y-105301549D01*
X140349657Y-105301549D02*
X140349657Y-105015835D01*
X142349657Y-103587263D02*
X142206800Y-103872978D01*
X142206800Y-103872978D02*
X142063942Y-104015835D01*
X142063942Y-104015835D02*
X141778228Y-104158692D01*
X141778228Y-104158692D02*
X140921085Y-104158692D01*
X140921085Y-104158692D02*
X140635371Y-104015835D01*
X140635371Y-104015835D02*
X140492514Y-103872978D01*
X140492514Y-103872978D02*
X140349657Y-103587263D01*
X140349657Y-103587263D02*
X140349657Y-103158692D01*
X140349657Y-103158692D02*
X140492514Y-102872978D01*
X140492514Y-102872978D02*
X140635371Y-102730121D01*
X140635371Y-102730121D02*
X140921085Y-102587263D01*
X140921085Y-102587263D02*
X141778228Y-102587263D01*
X141778228Y-102587263D02*
X142063942Y-102730121D01*
X142063942Y-102730121D02*
X142206800Y-102872978D01*
X142206800Y-102872978D02*
X142349657Y-103158692D01*
X142349657Y-103158692D02*
X142349657Y-103587263D01*
X140349657Y-100015835D02*
X142349657Y-100015835D01*
X140349657Y-101301549D02*
X141921085Y-101301549D01*
X141921085Y-101301549D02*
X142206800Y-101158692D01*
X142206800Y-101158692D02*
X142349657Y-100872977D01*
X142349657Y-100872977D02*
X142349657Y-100444406D01*
X142349657Y-100444406D02*
X142206800Y-100158692D01*
X142206800Y-100158692D02*
X142063942Y-100015835D01*
X140349657Y-98587263D02*
X143349657Y-98587263D01*
X140492514Y-98587263D02*
X140349657Y-98301549D01*
X140349657Y-98301549D02*
X140349657Y-97730120D01*
X140349657Y-97730120D02*
X140492514Y-97444406D01*
X140492514Y-97444406D02*
X140635371Y-97301549D01*
X140635371Y-97301549D02*
X140921085Y-97158691D01*
X140921085Y-97158691D02*
X141778228Y-97158691D01*
X141778228Y-97158691D02*
X142063942Y-97301549D01*
X142063942Y-97301549D02*
X142206800Y-97444406D01*
X142206800Y-97444406D02*
X142349657Y-97730120D01*
X142349657Y-97730120D02*
X142349657Y-98301549D01*
X142349657Y-98301549D02*
X142206800Y-98587263D01*
X142349657Y-92015834D02*
X142349657Y-93730120D01*
X142349657Y-92872977D02*
X139349657Y-92872977D01*
X139349657Y-92872977D02*
X139778228Y-93158691D01*
X139778228Y-93158691D02*
X140063942Y-93444406D01*
X140063942Y-93444406D02*
X140206800Y-93730120D01*
D10*
X80092779Y-93595819D02*
X80092779Y-92595819D01*
X80092779Y-92595819D02*
X80330874Y-92595819D01*
X80330874Y-92595819D02*
X80473731Y-92643438D01*
X80473731Y-92643438D02*
X80568969Y-92738676D01*
X80568969Y-92738676D02*
X80616588Y-92833914D01*
X80616588Y-92833914D02*
X80664207Y-93024390D01*
X80664207Y-93024390D02*
X80664207Y-93167247D01*
X80664207Y-93167247D02*
X80616588Y-93357723D01*
X80616588Y-93357723D02*
X80568969Y-93452961D01*
X80568969Y-93452961D02*
X80473731Y-93548200D01*
X80473731Y-93548200D02*
X80330874Y-93595819D01*
X80330874Y-93595819D02*
X80092779Y-93595819D01*
X80949922Y-92595819D02*
X81521350Y-92595819D01*
X81235636Y-93595819D02*
X81235636Y-92595819D01*
X82426112Y-93595819D02*
X82092779Y-93119628D01*
X81854684Y-93595819D02*
X81854684Y-92595819D01*
X81854684Y-92595819D02*
X82235636Y-92595819D01*
X82235636Y-92595819D02*
X82330874Y-92643438D01*
X82330874Y-92643438D02*
X82378493Y-92691057D01*
X82378493Y-92691057D02*
X82426112Y-92786295D01*
X82426112Y-92786295D02*
X82426112Y-92929152D01*
X82426112Y-92929152D02*
X82378493Y-93024390D01*
X82378493Y-93024390D02*
X82330874Y-93072009D01*
X82330874Y-93072009D02*
X82235636Y-93119628D01*
X82235636Y-93119628D02*
X81854684Y-93119628D01*
X80918207Y-88007819D02*
X80584874Y-87531628D01*
X80346779Y-88007819D02*
X80346779Y-87007819D01*
X80346779Y-87007819D02*
X80727731Y-87007819D01*
X80727731Y-87007819D02*
X80822969Y-87055438D01*
X80822969Y-87055438D02*
X80870588Y-87103057D01*
X80870588Y-87103057D02*
X80918207Y-87198295D01*
X80918207Y-87198295D02*
X80918207Y-87341152D01*
X80918207Y-87341152D02*
X80870588Y-87436390D01*
X80870588Y-87436390D02*
X80822969Y-87484009D01*
X80822969Y-87484009D02*
X80727731Y-87531628D01*
X80727731Y-87531628D02*
X80346779Y-87531628D01*
X81251541Y-87007819D02*
X81918207Y-88007819D01*
X81918207Y-87007819D02*
X81251541Y-88007819D01*
X117652969Y-72783819D02*
X117176779Y-72783819D01*
X117176779Y-72783819D02*
X117129160Y-73260009D01*
X117129160Y-73260009D02*
X117176779Y-73212390D01*
X117176779Y-73212390D02*
X117272017Y-73164771D01*
X117272017Y-73164771D02*
X117510112Y-73164771D01*
X117510112Y-73164771D02*
X117605350Y-73212390D01*
X117605350Y-73212390D02*
X117652969Y-73260009D01*
X117652969Y-73260009D02*
X117700588Y-73355247D01*
X117700588Y-73355247D02*
X117700588Y-73593342D01*
X117700588Y-73593342D02*
X117652969Y-73688580D01*
X117652969Y-73688580D02*
X117605350Y-73736200D01*
X117605350Y-73736200D02*
X117510112Y-73783819D01*
X117510112Y-73783819D02*
X117272017Y-73783819D01*
X117272017Y-73783819D02*
X117176779Y-73736200D01*
X117176779Y-73736200D02*
X117129160Y-73688580D01*
X117986303Y-72783819D02*
X118319636Y-73783819D01*
X118319636Y-73783819D02*
X118652969Y-72783819D01*
X130797541Y-130949819D02*
X131416588Y-130949819D01*
X131416588Y-130949819D02*
X131083255Y-131330771D01*
X131083255Y-131330771D02*
X131226112Y-131330771D01*
X131226112Y-131330771D02*
X131321350Y-131378390D01*
X131321350Y-131378390D02*
X131368969Y-131426009D01*
X131368969Y-131426009D02*
X131416588Y-131521247D01*
X131416588Y-131521247D02*
X131416588Y-131759342D01*
X131416588Y-131759342D02*
X131368969Y-131854580D01*
X131368969Y-131854580D02*
X131321350Y-131902200D01*
X131321350Y-131902200D02*
X131226112Y-131949819D01*
X131226112Y-131949819D02*
X130940398Y-131949819D01*
X130940398Y-131949819D02*
X130845160Y-131902200D01*
X130845160Y-131902200D02*
X130797541Y-131854580D01*
X131702303Y-130949819D02*
X132035636Y-131949819D01*
X132035636Y-131949819D02*
X132368969Y-130949819D01*
X132607065Y-130949819D02*
X133226112Y-130949819D01*
X133226112Y-130949819D02*
X132892779Y-131330771D01*
X132892779Y-131330771D02*
X133035636Y-131330771D01*
X133035636Y-131330771D02*
X133130874Y-131378390D01*
X133130874Y-131378390D02*
X133178493Y-131426009D01*
X133178493Y-131426009D02*
X133226112Y-131521247D01*
X133226112Y-131521247D02*
X133226112Y-131759342D01*
X133226112Y-131759342D02*
X133178493Y-131854580D01*
X133178493Y-131854580D02*
X133130874Y-131902200D01*
X133130874Y-131902200D02*
X133035636Y-131949819D01*
X133035636Y-131949819D02*
X132749922Y-131949819D01*
X132749922Y-131949819D02*
X132654684Y-131902200D01*
X132654684Y-131902200D02*
X132607065Y-131854580D01*
X80457922Y-89801819D02*
X81029350Y-89801819D01*
X80743636Y-90801819D02*
X80743636Y-89801819D01*
X81267446Y-89801819D02*
X81934112Y-90801819D01*
X81934112Y-89801819D02*
X81267446Y-90801819D01*
X109572588Y-72831438D02*
X109477350Y-72783819D01*
X109477350Y-72783819D02*
X109334493Y-72783819D01*
X109334493Y-72783819D02*
X109191636Y-72831438D01*
X109191636Y-72831438D02*
X109096398Y-72926676D01*
X109096398Y-72926676D02*
X109048779Y-73021914D01*
X109048779Y-73021914D02*
X109001160Y-73212390D01*
X109001160Y-73212390D02*
X109001160Y-73355247D01*
X109001160Y-73355247D02*
X109048779Y-73545723D01*
X109048779Y-73545723D02*
X109096398Y-73640961D01*
X109096398Y-73640961D02*
X109191636Y-73736200D01*
X109191636Y-73736200D02*
X109334493Y-73783819D01*
X109334493Y-73783819D02*
X109429731Y-73783819D01*
X109429731Y-73783819D02*
X109572588Y-73736200D01*
X109572588Y-73736200D02*
X109620207Y-73688580D01*
X109620207Y-73688580D02*
X109620207Y-73355247D01*
X109620207Y-73355247D02*
X109429731Y-73355247D01*
X110048779Y-73783819D02*
X110048779Y-72783819D01*
X110048779Y-72783819D02*
X110620207Y-73783819D01*
X110620207Y-73783819D02*
X110620207Y-72783819D01*
X111096398Y-73783819D02*
X111096398Y-72783819D01*
X111096398Y-72783819D02*
X111334493Y-72783819D01*
X111334493Y-72783819D02*
X111477350Y-72831438D01*
X111477350Y-72831438D02*
X111572588Y-72926676D01*
X111572588Y-72926676D02*
X111620207Y-73021914D01*
X111620207Y-73021914D02*
X111667826Y-73212390D01*
X111667826Y-73212390D02*
X111667826Y-73355247D01*
X111667826Y-73355247D02*
X111620207Y-73545723D01*
X111620207Y-73545723D02*
X111572588Y-73640961D01*
X111572588Y-73640961D02*
X111477350Y-73736200D01*
X111477350Y-73736200D02*
X111334493Y-73783819D01*
X111334493Y-73783819D02*
X111096398Y-73783819D01*
X124660819Y-130897047D02*
X123660819Y-130897047D01*
X123660819Y-130897047D02*
X123660819Y-130658952D01*
X123660819Y-130658952D02*
X123708438Y-130516095D01*
X123708438Y-130516095D02*
X123803676Y-130420857D01*
X123803676Y-130420857D02*
X123898914Y-130373238D01*
X123898914Y-130373238D02*
X124089390Y-130325619D01*
X124089390Y-130325619D02*
X124232247Y-130325619D01*
X124232247Y-130325619D02*
X124422723Y-130373238D01*
X124422723Y-130373238D02*
X124517961Y-130420857D01*
X124517961Y-130420857D02*
X124613200Y-130516095D01*
X124613200Y-130516095D02*
X124660819Y-130658952D01*
X124660819Y-130658952D02*
X124660819Y-130897047D01*
X124660819Y-129897047D02*
X123660819Y-129897047D01*
X124137009Y-129897047D02*
X124137009Y-129325619D01*
X124660819Y-129325619D02*
X123660819Y-129325619D01*
X123660819Y-128992285D02*
X123660819Y-128420857D01*
X124660819Y-128706571D02*
X123660819Y-128706571D01*
X123756057Y-128135142D02*
X123708438Y-128087523D01*
X123708438Y-128087523D02*
X123660819Y-127992285D01*
X123660819Y-127992285D02*
X123660819Y-127754190D01*
X123660819Y-127754190D02*
X123708438Y-127658952D01*
X123708438Y-127658952D02*
X123756057Y-127611333D01*
X123756057Y-127611333D02*
X123851295Y-127563714D01*
X123851295Y-127563714D02*
X123946533Y-127563714D01*
X123946533Y-127563714D02*
X124089390Y-127611333D01*
X124089390Y-127611333D02*
X124660819Y-128182761D01*
X124660819Y-128182761D02*
X124660819Y-127563714D01*
X123756057Y-127182761D02*
X123708438Y-127135142D01*
X123708438Y-127135142D02*
X123660819Y-127039904D01*
X123660819Y-127039904D02*
X123660819Y-126801809D01*
X123660819Y-126801809D02*
X123708438Y-126706571D01*
X123708438Y-126706571D02*
X123756057Y-126658952D01*
X123756057Y-126658952D02*
X123851295Y-126611333D01*
X123851295Y-126611333D02*
X123946533Y-126611333D01*
X123946533Y-126611333D02*
X124089390Y-126658952D01*
X124089390Y-126658952D02*
X124660819Y-127230380D01*
X124660819Y-127230380D02*
X124660819Y-126611333D01*
X102714319Y-106719666D02*
X102238128Y-107052999D01*
X102714319Y-107291094D02*
X101714319Y-107291094D01*
X101714319Y-107291094D02*
X101714319Y-106910142D01*
X101714319Y-106910142D02*
X101761938Y-106814904D01*
X101761938Y-106814904D02*
X101809557Y-106767285D01*
X101809557Y-106767285D02*
X101904795Y-106719666D01*
X101904795Y-106719666D02*
X102047652Y-106719666D01*
X102047652Y-106719666D02*
X102142890Y-106767285D01*
X102142890Y-106767285D02*
X102190509Y-106814904D01*
X102190509Y-106814904D02*
X102238128Y-106910142D01*
X102238128Y-106910142D02*
X102238128Y-107291094D01*
X101714319Y-105814904D02*
X101714319Y-106291094D01*
X101714319Y-106291094D02*
X102190509Y-106338713D01*
X102190509Y-106338713D02*
X102142890Y-106291094D01*
X102142890Y-106291094D02*
X102095271Y-106195856D01*
X102095271Y-106195856D02*
X102095271Y-105957761D01*
X102095271Y-105957761D02*
X102142890Y-105862523D01*
X102142890Y-105862523D02*
X102190509Y-105814904D01*
X102190509Y-105814904D02*
X102285747Y-105767285D01*
X102285747Y-105767285D02*
X102523842Y-105767285D01*
X102523842Y-105767285D02*
X102619080Y-105814904D01*
X102619080Y-105814904D02*
X102666700Y-105862523D01*
X102666700Y-105862523D02*
X102714319Y-105957761D01*
X102714319Y-105957761D02*
X102714319Y-106195856D01*
X102714319Y-106195856D02*
X102666700Y-106291094D01*
X102666700Y-106291094D02*
X102619080Y-106338713D01*
X96702057Y-77057238D02*
X96654438Y-77152476D01*
X96654438Y-77152476D02*
X96559200Y-77247714D01*
X96559200Y-77247714D02*
X96416342Y-77390571D01*
X96416342Y-77390571D02*
X96368723Y-77485809D01*
X96368723Y-77485809D02*
X96368723Y-77581047D01*
X96606819Y-77533428D02*
X96559200Y-77628666D01*
X96559200Y-77628666D02*
X96463961Y-77723904D01*
X96463961Y-77723904D02*
X96273485Y-77771523D01*
X96273485Y-77771523D02*
X95940152Y-77771523D01*
X95940152Y-77771523D02*
X95749676Y-77723904D01*
X95749676Y-77723904D02*
X95654438Y-77628666D01*
X95654438Y-77628666D02*
X95606819Y-77533428D01*
X95606819Y-77533428D02*
X95606819Y-77342952D01*
X95606819Y-77342952D02*
X95654438Y-77247714D01*
X95654438Y-77247714D02*
X95749676Y-77152476D01*
X95749676Y-77152476D02*
X95940152Y-77104857D01*
X95940152Y-77104857D02*
X96273485Y-77104857D01*
X96273485Y-77104857D02*
X96463961Y-77152476D01*
X96463961Y-77152476D02*
X96559200Y-77247714D01*
X96559200Y-77247714D02*
X96606819Y-77342952D01*
X96606819Y-77342952D02*
X96606819Y-77533428D01*
X95702057Y-76723904D02*
X95654438Y-76676285D01*
X95654438Y-76676285D02*
X95606819Y-76581047D01*
X95606819Y-76581047D02*
X95606819Y-76342952D01*
X95606819Y-76342952D02*
X95654438Y-76247714D01*
X95654438Y-76247714D02*
X95702057Y-76200095D01*
X95702057Y-76200095D02*
X95797295Y-76152476D01*
X95797295Y-76152476D02*
X95892533Y-76152476D01*
X95892533Y-76152476D02*
X96035390Y-76200095D01*
X96035390Y-76200095D02*
X96606819Y-76771523D01*
X96606819Y-76771523D02*
X96606819Y-76152476D01*
D12*
X125441419Y-122038761D02*
X125441419Y-121372095D01*
X125441419Y-121372095D02*
X126441419Y-122038761D01*
X126441419Y-122038761D02*
X126441419Y-121372095D01*
X126441419Y-120991142D02*
X125441419Y-120991142D01*
X125441419Y-120991142D02*
X126155704Y-120657809D01*
X126155704Y-120657809D02*
X125441419Y-120324476D01*
X125441419Y-120324476D02*
X126441419Y-120324476D01*
X125441419Y-119657809D02*
X125441419Y-119467333D01*
X125441419Y-119467333D02*
X125489038Y-119372095D01*
X125489038Y-119372095D02*
X125584276Y-119276857D01*
X125584276Y-119276857D02*
X125774752Y-119229238D01*
X125774752Y-119229238D02*
X126108085Y-119229238D01*
X126108085Y-119229238D02*
X126298561Y-119276857D01*
X126298561Y-119276857D02*
X126393800Y-119372095D01*
X126393800Y-119372095D02*
X126441419Y-119467333D01*
X126441419Y-119467333D02*
X126441419Y-119657809D01*
X126441419Y-119657809D02*
X126393800Y-119753047D01*
X126393800Y-119753047D02*
X126298561Y-119848285D01*
X126298561Y-119848285D02*
X126108085Y-119895904D01*
X126108085Y-119895904D02*
X125774752Y-119895904D01*
X125774752Y-119895904D02*
X125584276Y-119848285D01*
X125584276Y-119848285D02*
X125489038Y-119753047D01*
X125489038Y-119753047D02*
X125441419Y-119657809D01*
X126441419Y-118800666D02*
X125441419Y-118800666D01*
X125441419Y-118800666D02*
X125441419Y-118562571D01*
X125441419Y-118562571D02*
X125489038Y-118419714D01*
X125489038Y-118419714D02*
X125584276Y-118324476D01*
X125584276Y-118324476D02*
X125679514Y-118276857D01*
X125679514Y-118276857D02*
X125869990Y-118229238D01*
X125869990Y-118229238D02*
X126012847Y-118229238D01*
X126012847Y-118229238D02*
X126203323Y-118276857D01*
X126203323Y-118276857D02*
X126298561Y-118324476D01*
X126298561Y-118324476D02*
X126393800Y-118419714D01*
X126393800Y-118419714D02*
X126441419Y-118562571D01*
X126441419Y-118562571D02*
X126441419Y-118800666D01*
X126441419Y-117276857D02*
X126441419Y-117848285D01*
X126441419Y-117562571D02*
X125441419Y-117562571D01*
X125441419Y-117562571D02*
X125584276Y-117657809D01*
X125584276Y-117657809D02*
X125679514Y-117753047D01*
X125679514Y-117753047D02*
X125727133Y-117848285D01*
D10*
X105582819Y-91439904D02*
X106392342Y-91439904D01*
X106392342Y-91439904D02*
X106487580Y-91392285D01*
X106487580Y-91392285D02*
X106535200Y-91344666D01*
X106535200Y-91344666D02*
X106582819Y-91249428D01*
X106582819Y-91249428D02*
X106582819Y-91058952D01*
X106582819Y-91058952D02*
X106535200Y-90963714D01*
X106535200Y-90963714D02*
X106487580Y-90916095D01*
X106487580Y-90916095D02*
X106392342Y-90868476D01*
X106392342Y-90868476D02*
X105582819Y-90868476D01*
X105678057Y-90439904D02*
X105630438Y-90392285D01*
X105630438Y-90392285D02*
X105582819Y-90297047D01*
X105582819Y-90297047D02*
X105582819Y-90058952D01*
X105582819Y-90058952D02*
X105630438Y-89963714D01*
X105630438Y-89963714D02*
X105678057Y-89916095D01*
X105678057Y-89916095D02*
X105773295Y-89868476D01*
X105773295Y-89868476D02*
X105868533Y-89868476D01*
X105868533Y-89868476D02*
X106011390Y-89916095D01*
X106011390Y-89916095D02*
X106582819Y-90487523D01*
X106582819Y-90487523D02*
X106582819Y-89868476D01*
X100322819Y-100812299D02*
X100560914Y-100812299D01*
X100465676Y-101050394D02*
X100560914Y-100812299D01*
X100560914Y-100812299D02*
X100465676Y-100574204D01*
X100751390Y-100955156D02*
X100560914Y-100812299D01*
X100560914Y-100812299D02*
X100751390Y-100669442D01*
X100322819Y-100812299D02*
X100560914Y-100812299D01*
X100465676Y-101050394D02*
X100560914Y-100812299D01*
X100560914Y-100812299D02*
X100465676Y-100574204D01*
X100751390Y-100955156D02*
X100560914Y-100812299D01*
X100560914Y-100812299D02*
X100751390Y-100669442D01*
X83738095Y-124254819D02*
X83738095Y-123254819D01*
X83738095Y-123731009D02*
X84309523Y-123731009D01*
X84309523Y-124254819D02*
X84309523Y-123254819D01*
X84690476Y-123254819D02*
X85309523Y-123254819D01*
X85309523Y-123254819D02*
X84976190Y-123635771D01*
X84976190Y-123635771D02*
X85119047Y-123635771D01*
X85119047Y-123635771D02*
X85214285Y-123683390D01*
X85214285Y-123683390D02*
X85261904Y-123731009D01*
X85261904Y-123731009D02*
X85309523Y-123826247D01*
X85309523Y-123826247D02*
X85309523Y-124064342D01*
X85309523Y-124064342D02*
X85261904Y-124159580D01*
X85261904Y-124159580D02*
X85214285Y-124207200D01*
X85214285Y-124207200D02*
X85119047Y-124254819D01*
X85119047Y-124254819D02*
X84833333Y-124254819D01*
X84833333Y-124254819D02*
X84738095Y-124207200D01*
X84738095Y-124207200D02*
X84690476Y-124159580D01*
X107656333Y-111960819D02*
X107323000Y-111484628D01*
X107084905Y-111960819D02*
X107084905Y-110960819D01*
X107084905Y-110960819D02*
X107465857Y-110960819D01*
X107465857Y-110960819D02*
X107561095Y-111008438D01*
X107561095Y-111008438D02*
X107608714Y-111056057D01*
X107608714Y-111056057D02*
X107656333Y-111151295D01*
X107656333Y-111151295D02*
X107656333Y-111294152D01*
X107656333Y-111294152D02*
X107608714Y-111389390D01*
X107608714Y-111389390D02*
X107561095Y-111437009D01*
X107561095Y-111437009D02*
X107465857Y-111484628D01*
X107465857Y-111484628D02*
X107084905Y-111484628D01*
X108132524Y-111960819D02*
X108323000Y-111960819D01*
X108323000Y-111960819D02*
X108418238Y-111913200D01*
X108418238Y-111913200D02*
X108465857Y-111865580D01*
X108465857Y-111865580D02*
X108561095Y-111722723D01*
X108561095Y-111722723D02*
X108608714Y-111532247D01*
X108608714Y-111532247D02*
X108608714Y-111151295D01*
X108608714Y-111151295D02*
X108561095Y-111056057D01*
X108561095Y-111056057D02*
X108513476Y-111008438D01*
X108513476Y-111008438D02*
X108418238Y-110960819D01*
X108418238Y-110960819D02*
X108227762Y-110960819D01*
X108227762Y-110960819D02*
X108132524Y-111008438D01*
X108132524Y-111008438D02*
X108084905Y-111056057D01*
X108084905Y-111056057D02*
X108037286Y-111151295D01*
X108037286Y-111151295D02*
X108037286Y-111389390D01*
X108037286Y-111389390D02*
X108084905Y-111484628D01*
X108084905Y-111484628D02*
X108132524Y-111532247D01*
X108132524Y-111532247D02*
X108227762Y-111579866D01*
X108227762Y-111579866D02*
X108418238Y-111579866D01*
X108418238Y-111579866D02*
X108513476Y-111532247D01*
X108513476Y-111532247D02*
X108561095Y-111484628D01*
X108561095Y-111484628D02*
X108608714Y-111389390D01*
X97356819Y-72351166D02*
X96880628Y-72684499D01*
X97356819Y-72922594D02*
X96356819Y-72922594D01*
X96356819Y-72922594D02*
X96356819Y-72541642D01*
X96356819Y-72541642D02*
X96404438Y-72446404D01*
X96404438Y-72446404D02*
X96452057Y-72398785D01*
X96452057Y-72398785D02*
X96547295Y-72351166D01*
X96547295Y-72351166D02*
X96690152Y-72351166D01*
X96690152Y-72351166D02*
X96785390Y-72398785D01*
X96785390Y-72398785D02*
X96833009Y-72446404D01*
X96833009Y-72446404D02*
X96880628Y-72541642D01*
X96880628Y-72541642D02*
X96880628Y-72922594D01*
X96356819Y-71494023D02*
X96356819Y-71684499D01*
X96356819Y-71684499D02*
X96404438Y-71779737D01*
X96404438Y-71779737D02*
X96452057Y-71827356D01*
X96452057Y-71827356D02*
X96594914Y-71922594D01*
X96594914Y-71922594D02*
X96785390Y-71970213D01*
X96785390Y-71970213D02*
X97166342Y-71970213D01*
X97166342Y-71970213D02*
X97261580Y-71922594D01*
X97261580Y-71922594D02*
X97309200Y-71874975D01*
X97309200Y-71874975D02*
X97356819Y-71779737D01*
X97356819Y-71779737D02*
X97356819Y-71589261D01*
X97356819Y-71589261D02*
X97309200Y-71494023D01*
X97309200Y-71494023D02*
X97261580Y-71446404D01*
X97261580Y-71446404D02*
X97166342Y-71398785D01*
X97166342Y-71398785D02*
X96928247Y-71398785D01*
X96928247Y-71398785D02*
X96833009Y-71446404D01*
X96833009Y-71446404D02*
X96785390Y-71494023D01*
X96785390Y-71494023D02*
X96737771Y-71589261D01*
X96737771Y-71589261D02*
X96737771Y-71779737D01*
X96737771Y-71779737D02*
X96785390Y-71874975D01*
X96785390Y-71874975D02*
X96833009Y-71922594D01*
X96833009Y-71922594D02*
X96928247Y-71970213D01*
X93164819Y-128777713D02*
X92164819Y-128777713D01*
X92164819Y-128777713D02*
X92879104Y-128444380D01*
X92879104Y-128444380D02*
X92164819Y-128111047D01*
X92164819Y-128111047D02*
X93164819Y-128111047D01*
X93260057Y-126968190D02*
X93212438Y-127063428D01*
X93212438Y-127063428D02*
X93117200Y-127158666D01*
X93117200Y-127158666D02*
X92974342Y-127301523D01*
X92974342Y-127301523D02*
X92926723Y-127396761D01*
X92926723Y-127396761D02*
X92926723Y-127491999D01*
X93164819Y-127444380D02*
X93117200Y-127539618D01*
X93117200Y-127539618D02*
X93021961Y-127634856D01*
X93021961Y-127634856D02*
X92831485Y-127682475D01*
X92831485Y-127682475D02*
X92498152Y-127682475D01*
X92498152Y-127682475D02*
X92307676Y-127634856D01*
X92307676Y-127634856D02*
X92212438Y-127539618D01*
X92212438Y-127539618D02*
X92164819Y-127444380D01*
X92164819Y-127444380D02*
X92164819Y-127253904D01*
X92164819Y-127253904D02*
X92212438Y-127158666D01*
X92212438Y-127158666D02*
X92307676Y-127063428D01*
X92307676Y-127063428D02*
X92498152Y-127015809D01*
X92498152Y-127015809D02*
X92831485Y-127015809D01*
X92831485Y-127015809D02*
X93021961Y-127063428D01*
X93021961Y-127063428D02*
X93117200Y-127158666D01*
X93117200Y-127158666D02*
X93164819Y-127253904D01*
X93164819Y-127253904D02*
X93164819Y-127444380D01*
X93164819Y-126063428D02*
X93164819Y-126634856D01*
X93164819Y-126349142D02*
X92164819Y-126349142D01*
X92164819Y-126349142D02*
X92307676Y-126444380D01*
X92307676Y-126444380D02*
X92402914Y-126539618D01*
X92402914Y-126539618D02*
X92450533Y-126634856D01*
X92164819Y-125730094D02*
X92164819Y-125111047D01*
X92164819Y-125111047D02*
X92545771Y-125444380D01*
X92545771Y-125444380D02*
X92545771Y-125301523D01*
X92545771Y-125301523D02*
X92593390Y-125206285D01*
X92593390Y-125206285D02*
X92641009Y-125158666D01*
X92641009Y-125158666D02*
X92736247Y-125111047D01*
X92736247Y-125111047D02*
X92974342Y-125111047D01*
X92974342Y-125111047D02*
X93069580Y-125158666D01*
X93069580Y-125158666D02*
X93117200Y-125206285D01*
X93117200Y-125206285D02*
X93164819Y-125301523D01*
X93164819Y-125301523D02*
X93164819Y-125587237D01*
X93164819Y-125587237D02*
X93117200Y-125682475D01*
X93117200Y-125682475D02*
X93069580Y-125730094D01*
X92164819Y-124206285D02*
X92164819Y-124682475D01*
X92164819Y-124682475D02*
X92641009Y-124730094D01*
X92641009Y-124730094D02*
X92593390Y-124682475D01*
X92593390Y-124682475D02*
X92545771Y-124587237D01*
X92545771Y-124587237D02*
X92545771Y-124349142D01*
X92545771Y-124349142D02*
X92593390Y-124253904D01*
X92593390Y-124253904D02*
X92641009Y-124206285D01*
X92641009Y-124206285D02*
X92736247Y-124158666D01*
X92736247Y-124158666D02*
X92974342Y-124158666D01*
X92974342Y-124158666D02*
X93069580Y-124206285D01*
X93069580Y-124206285D02*
X93117200Y-124253904D01*
X93117200Y-124253904D02*
X93164819Y-124349142D01*
X93164819Y-124349142D02*
X93164819Y-124587237D01*
X93164819Y-124587237D02*
X93117200Y-124682475D01*
X93117200Y-124682475D02*
X93069580Y-124730094D01*
X108386261Y-104436057D02*
X108291023Y-104388438D01*
X108291023Y-104388438D02*
X108195785Y-104293200D01*
X108195785Y-104293200D02*
X108052928Y-104150342D01*
X108052928Y-104150342D02*
X107957690Y-104102723D01*
X107957690Y-104102723D02*
X107862452Y-104102723D01*
X107910071Y-104340819D02*
X107814833Y-104293200D01*
X107814833Y-104293200D02*
X107719595Y-104197961D01*
X107719595Y-104197961D02*
X107671976Y-104007485D01*
X107671976Y-104007485D02*
X107671976Y-103674152D01*
X107671976Y-103674152D02*
X107719595Y-103483676D01*
X107719595Y-103483676D02*
X107814833Y-103388438D01*
X107814833Y-103388438D02*
X107910071Y-103340819D01*
X107910071Y-103340819D02*
X108100547Y-103340819D01*
X108100547Y-103340819D02*
X108195785Y-103388438D01*
X108195785Y-103388438D02*
X108291023Y-103483676D01*
X108291023Y-103483676D02*
X108338642Y-103674152D01*
X108338642Y-103674152D02*
X108338642Y-104007485D01*
X108338642Y-104007485D02*
X108291023Y-104197961D01*
X108291023Y-104197961D02*
X108195785Y-104293200D01*
X108195785Y-104293200D02*
X108100547Y-104340819D01*
X108100547Y-104340819D02*
X107910071Y-104340819D01*
X109291023Y-104340819D02*
X108719595Y-104340819D01*
X109005309Y-104340819D02*
X109005309Y-103340819D01*
X109005309Y-103340819D02*
X108910071Y-103483676D01*
X108910071Y-103483676D02*
X108814833Y-103578914D01*
X108814833Y-103578914D02*
X108719595Y-103626533D01*
X133689200Y-99885332D02*
X133736819Y-99742475D01*
X133736819Y-99742475D02*
X133736819Y-99504380D01*
X133736819Y-99504380D02*
X133689200Y-99409142D01*
X133689200Y-99409142D02*
X133641580Y-99361523D01*
X133641580Y-99361523D02*
X133546342Y-99313904D01*
X133546342Y-99313904D02*
X133451104Y-99313904D01*
X133451104Y-99313904D02*
X133355866Y-99361523D01*
X133355866Y-99361523D02*
X133308247Y-99409142D01*
X133308247Y-99409142D02*
X133260628Y-99504380D01*
X133260628Y-99504380D02*
X133213009Y-99694856D01*
X133213009Y-99694856D02*
X133165390Y-99790094D01*
X133165390Y-99790094D02*
X133117771Y-99837713D01*
X133117771Y-99837713D02*
X133022533Y-99885332D01*
X133022533Y-99885332D02*
X132927295Y-99885332D01*
X132927295Y-99885332D02*
X132832057Y-99837713D01*
X132832057Y-99837713D02*
X132784438Y-99790094D01*
X132784438Y-99790094D02*
X132736819Y-99694856D01*
X132736819Y-99694856D02*
X132736819Y-99456761D01*
X132736819Y-99456761D02*
X132784438Y-99313904D01*
X132736819Y-98980570D02*
X133736819Y-98742475D01*
X133736819Y-98742475D02*
X133022533Y-98551999D01*
X133022533Y-98551999D02*
X133736819Y-98361523D01*
X133736819Y-98361523D02*
X132736819Y-98123428D01*
X132832057Y-97790094D02*
X132784438Y-97742475D01*
X132784438Y-97742475D02*
X132736819Y-97647237D01*
X132736819Y-97647237D02*
X132736819Y-97409142D01*
X132736819Y-97409142D02*
X132784438Y-97313904D01*
X132784438Y-97313904D02*
X132832057Y-97266285D01*
X132832057Y-97266285D02*
X132927295Y-97218666D01*
X132927295Y-97218666D02*
X133022533Y-97218666D01*
X133022533Y-97218666D02*
X133165390Y-97266285D01*
X133165390Y-97266285D02*
X133736819Y-97837713D01*
X133736819Y-97837713D02*
X133736819Y-97218666D01*
X108142856Y-126254819D02*
X108142856Y-125254819D01*
X108142856Y-125254819D02*
X108476189Y-125969104D01*
X108476189Y-125969104D02*
X108809522Y-125254819D01*
X108809522Y-125254819D02*
X108809522Y-126254819D01*
X109285713Y-126254819D02*
X109285713Y-125588152D01*
X109285713Y-125254819D02*
X109238094Y-125302438D01*
X109238094Y-125302438D02*
X109285713Y-125350057D01*
X109285713Y-125350057D02*
X109333332Y-125302438D01*
X109333332Y-125302438D02*
X109285713Y-125254819D01*
X109285713Y-125254819D02*
X109285713Y-125350057D01*
X110190474Y-126207200D02*
X110095236Y-126254819D01*
X110095236Y-126254819D02*
X109904760Y-126254819D01*
X109904760Y-126254819D02*
X109809522Y-126207200D01*
X109809522Y-126207200D02*
X109761903Y-126159580D01*
X109761903Y-126159580D02*
X109714284Y-126064342D01*
X109714284Y-126064342D02*
X109714284Y-125778628D01*
X109714284Y-125778628D02*
X109761903Y-125683390D01*
X109761903Y-125683390D02*
X109809522Y-125635771D01*
X109809522Y-125635771D02*
X109904760Y-125588152D01*
X109904760Y-125588152D02*
X110095236Y-125588152D01*
X110095236Y-125588152D02*
X110190474Y-125635771D01*
X110619046Y-126254819D02*
X110619046Y-125588152D01*
X110619046Y-125778628D02*
X110666665Y-125683390D01*
X110666665Y-125683390D02*
X110714284Y-125635771D01*
X110714284Y-125635771D02*
X110809522Y-125588152D01*
X110809522Y-125588152D02*
X110904760Y-125588152D01*
X111380951Y-126254819D02*
X111285713Y-126207200D01*
X111285713Y-126207200D02*
X111238094Y-126159580D01*
X111238094Y-126159580D02*
X111190475Y-126064342D01*
X111190475Y-126064342D02*
X111190475Y-125778628D01*
X111190475Y-125778628D02*
X111238094Y-125683390D01*
X111238094Y-125683390D02*
X111285713Y-125635771D01*
X111285713Y-125635771D02*
X111380951Y-125588152D01*
X111380951Y-125588152D02*
X111523808Y-125588152D01*
X111523808Y-125588152D02*
X111619046Y-125635771D01*
X111619046Y-125635771D02*
X111666665Y-125683390D01*
X111666665Y-125683390D02*
X111714284Y-125778628D01*
X111714284Y-125778628D02*
X111714284Y-126064342D01*
X111714284Y-126064342D02*
X111666665Y-126159580D01*
X111666665Y-126159580D02*
X111619046Y-126207200D01*
X111619046Y-126207200D02*
X111523808Y-126254819D01*
X111523808Y-126254819D02*
X111380951Y-126254819D01*
X112142856Y-125254819D02*
X112142856Y-126064342D01*
X112142856Y-126064342D02*
X112190475Y-126159580D01*
X112190475Y-126159580D02*
X112238094Y-126207200D01*
X112238094Y-126207200D02*
X112333332Y-126254819D01*
X112333332Y-126254819D02*
X112523808Y-126254819D01*
X112523808Y-126254819D02*
X112619046Y-126207200D01*
X112619046Y-126207200D02*
X112666665Y-126159580D01*
X112666665Y-126159580D02*
X112714284Y-126064342D01*
X112714284Y-126064342D02*
X112714284Y-125254819D01*
X113142856Y-126207200D02*
X113285713Y-126254819D01*
X113285713Y-126254819D02*
X113523808Y-126254819D01*
X113523808Y-126254819D02*
X113619046Y-126207200D01*
X113619046Y-126207200D02*
X113666665Y-126159580D01*
X113666665Y-126159580D02*
X113714284Y-126064342D01*
X113714284Y-126064342D02*
X113714284Y-125969104D01*
X113714284Y-125969104D02*
X113666665Y-125873866D01*
X113666665Y-125873866D02*
X113619046Y-125826247D01*
X113619046Y-125826247D02*
X113523808Y-125778628D01*
X113523808Y-125778628D02*
X113333332Y-125731009D01*
X113333332Y-125731009D02*
X113238094Y-125683390D01*
X113238094Y-125683390D02*
X113190475Y-125635771D01*
X113190475Y-125635771D02*
X113142856Y-125540533D01*
X113142856Y-125540533D02*
X113142856Y-125445295D01*
X113142856Y-125445295D02*
X113190475Y-125350057D01*
X113190475Y-125350057D02*
X113238094Y-125302438D01*
X113238094Y-125302438D02*
X113333332Y-125254819D01*
X113333332Y-125254819D02*
X113571427Y-125254819D01*
X113571427Y-125254819D02*
X113714284Y-125302438D01*
X114476189Y-125731009D02*
X114619046Y-125778628D01*
X114619046Y-125778628D02*
X114666665Y-125826247D01*
X114666665Y-125826247D02*
X114714284Y-125921485D01*
X114714284Y-125921485D02*
X114714284Y-126064342D01*
X114714284Y-126064342D02*
X114666665Y-126159580D01*
X114666665Y-126159580D02*
X114619046Y-126207200D01*
X114619046Y-126207200D02*
X114523808Y-126254819D01*
X114523808Y-126254819D02*
X114142856Y-126254819D01*
X114142856Y-126254819D02*
X114142856Y-125254819D01*
X114142856Y-125254819D02*
X114476189Y-125254819D01*
X114476189Y-125254819D02*
X114571427Y-125302438D01*
X114571427Y-125302438D02*
X114619046Y-125350057D01*
X114619046Y-125350057D02*
X114666665Y-125445295D01*
X114666665Y-125445295D02*
X114666665Y-125540533D01*
X114666665Y-125540533D02*
X114619046Y-125635771D01*
X114619046Y-125635771D02*
X114571427Y-125683390D01*
X114571427Y-125683390D02*
X114476189Y-125731009D01*
X114476189Y-125731009D02*
X114142856Y-125731009D01*
X114904761Y-126350057D02*
X115666665Y-126350057D01*
X116380951Y-125254819D02*
X115904761Y-125254819D01*
X115904761Y-125254819D02*
X115857142Y-125731009D01*
X115857142Y-125731009D02*
X115904761Y-125683390D01*
X115904761Y-125683390D02*
X115999999Y-125635771D01*
X115999999Y-125635771D02*
X116238094Y-125635771D01*
X116238094Y-125635771D02*
X116333332Y-125683390D01*
X116333332Y-125683390D02*
X116380951Y-125731009D01*
X116380951Y-125731009D02*
X116428570Y-125826247D01*
X116428570Y-125826247D02*
X116428570Y-126064342D01*
X116428570Y-126064342D02*
X116380951Y-126159580D01*
X116380951Y-126159580D02*
X116333332Y-126207200D01*
X116333332Y-126207200D02*
X116238094Y-126254819D01*
X116238094Y-126254819D02*
X115999999Y-126254819D01*
X115999999Y-126254819D02*
X115904761Y-126207200D01*
X115904761Y-126207200D02*
X115857142Y-126159580D01*
X116714285Y-125254819D02*
X117047618Y-126254819D01*
X117047618Y-126254819D02*
X117380951Y-125254819D01*
X118238094Y-126254819D02*
X117666666Y-126254819D01*
X117952380Y-126254819D02*
X117952380Y-125254819D01*
X117952380Y-125254819D02*
X117857142Y-125397676D01*
X117857142Y-125397676D02*
X117761904Y-125492914D01*
X117761904Y-125492914D02*
X117666666Y-125540533D01*
X118619047Y-125969104D02*
X119095237Y-125969104D01*
X118523809Y-126254819D02*
X118857142Y-125254819D01*
X118857142Y-125254819D02*
X119190475Y-126254819D01*
X119285714Y-126350057D02*
X120047618Y-126350057D01*
X120190476Y-125254819D02*
X120428571Y-126254819D01*
X120428571Y-126254819D02*
X120619047Y-125540533D01*
X120619047Y-125540533D02*
X120809523Y-126254819D01*
X120809523Y-126254819D02*
X121047619Y-125254819D01*
X121857142Y-126254819D02*
X121857142Y-125731009D01*
X121857142Y-125731009D02*
X121809523Y-125635771D01*
X121809523Y-125635771D02*
X121714285Y-125588152D01*
X121714285Y-125588152D02*
X121523809Y-125588152D01*
X121523809Y-125588152D02*
X121428571Y-125635771D01*
X121857142Y-126207200D02*
X121761904Y-126254819D01*
X121761904Y-126254819D02*
X121523809Y-126254819D01*
X121523809Y-126254819D02*
X121428571Y-126207200D01*
X121428571Y-126207200D02*
X121380952Y-126111961D01*
X121380952Y-126111961D02*
X121380952Y-126016723D01*
X121380952Y-126016723D02*
X121428571Y-125921485D01*
X121428571Y-125921485D02*
X121523809Y-125873866D01*
X121523809Y-125873866D02*
X121761904Y-125873866D01*
X121761904Y-125873866D02*
X121857142Y-125826247D01*
X122476190Y-126254819D02*
X122380952Y-126207200D01*
X122380952Y-126207200D02*
X122333333Y-126111961D01*
X122333333Y-126111961D02*
X122333333Y-125254819D01*
X123000000Y-126254819D02*
X122904762Y-126207200D01*
X122904762Y-126207200D02*
X122857143Y-126111961D01*
X122857143Y-126111961D02*
X122857143Y-125254819D01*
X123904762Y-126254819D02*
X123333334Y-126254819D01*
X123619048Y-126254819D02*
X123619048Y-125254819D01*
X123619048Y-125254819D02*
X123523810Y-125397676D01*
X123523810Y-125397676D02*
X123428572Y-125492914D01*
X123428572Y-125492914D02*
X123333334Y-125540533D01*
X114904319Y-106719666D02*
X114428128Y-107052999D01*
X114904319Y-107291094D02*
X113904319Y-107291094D01*
X113904319Y-107291094D02*
X113904319Y-106910142D01*
X113904319Y-106910142D02*
X113951938Y-106814904D01*
X113951938Y-106814904D02*
X113999557Y-106767285D01*
X113999557Y-106767285D02*
X114094795Y-106719666D01*
X114094795Y-106719666D02*
X114237652Y-106719666D01*
X114237652Y-106719666D02*
X114332890Y-106767285D01*
X114332890Y-106767285D02*
X114380509Y-106814904D01*
X114380509Y-106814904D02*
X114428128Y-106910142D01*
X114428128Y-106910142D02*
X114428128Y-107291094D01*
X113999557Y-106338713D02*
X113951938Y-106291094D01*
X113951938Y-106291094D02*
X113904319Y-106195856D01*
X113904319Y-106195856D02*
X113904319Y-105957761D01*
X113904319Y-105957761D02*
X113951938Y-105862523D01*
X113951938Y-105862523D02*
X113999557Y-105814904D01*
X113999557Y-105814904D02*
X114094795Y-105767285D01*
X114094795Y-105767285D02*
X114190033Y-105767285D01*
X114190033Y-105767285D02*
X114332890Y-105814904D01*
X114332890Y-105814904D02*
X114904319Y-106386332D01*
X114904319Y-106386332D02*
X114904319Y-105767285D01*
X86830819Y-91074380D02*
X87640342Y-91074380D01*
X87640342Y-91074380D02*
X87735580Y-91026761D01*
X87735580Y-91026761D02*
X87783200Y-90979142D01*
X87783200Y-90979142D02*
X87830819Y-90883904D01*
X87830819Y-90883904D02*
X87830819Y-90693428D01*
X87830819Y-90693428D02*
X87783200Y-90598190D01*
X87783200Y-90598190D02*
X87735580Y-90550571D01*
X87735580Y-90550571D02*
X87640342Y-90502952D01*
X87640342Y-90502952D02*
X86830819Y-90502952D01*
X87783200Y-90074380D02*
X87830819Y-89931523D01*
X87830819Y-89931523D02*
X87830819Y-89693428D01*
X87830819Y-89693428D02*
X87783200Y-89598190D01*
X87783200Y-89598190D02*
X87735580Y-89550571D01*
X87735580Y-89550571D02*
X87640342Y-89502952D01*
X87640342Y-89502952D02*
X87545104Y-89502952D01*
X87545104Y-89502952D02*
X87449866Y-89550571D01*
X87449866Y-89550571D02*
X87402247Y-89598190D01*
X87402247Y-89598190D02*
X87354628Y-89693428D01*
X87354628Y-89693428D02*
X87307009Y-89883904D01*
X87307009Y-89883904D02*
X87259390Y-89979142D01*
X87259390Y-89979142D02*
X87211771Y-90026761D01*
X87211771Y-90026761D02*
X87116533Y-90074380D01*
X87116533Y-90074380D02*
X87021295Y-90074380D01*
X87021295Y-90074380D02*
X86926057Y-90026761D01*
X86926057Y-90026761D02*
X86878438Y-89979142D01*
X86878438Y-89979142D02*
X86830819Y-89883904D01*
X86830819Y-89883904D02*
X86830819Y-89645809D01*
X86830819Y-89645809D02*
X86878438Y-89502952D01*
X87307009Y-88741047D02*
X87354628Y-88598190D01*
X87354628Y-88598190D02*
X87402247Y-88550571D01*
X87402247Y-88550571D02*
X87497485Y-88502952D01*
X87497485Y-88502952D02*
X87640342Y-88502952D01*
X87640342Y-88502952D02*
X87735580Y-88550571D01*
X87735580Y-88550571D02*
X87783200Y-88598190D01*
X87783200Y-88598190D02*
X87830819Y-88693428D01*
X87830819Y-88693428D02*
X87830819Y-89074380D01*
X87830819Y-89074380D02*
X86830819Y-89074380D01*
X86830819Y-89074380D02*
X86830819Y-88741047D01*
X86830819Y-88741047D02*
X86878438Y-88645809D01*
X86878438Y-88645809D02*
X86926057Y-88598190D01*
X86926057Y-88598190D02*
X87021295Y-88550571D01*
X87021295Y-88550571D02*
X87116533Y-88550571D01*
X87116533Y-88550571D02*
X87211771Y-88598190D01*
X87211771Y-88598190D02*
X87259390Y-88645809D01*
X87259390Y-88645809D02*
X87307009Y-88741047D01*
X87307009Y-88741047D02*
X87307009Y-89074380D01*
X87926057Y-88312476D02*
X87926057Y-87550571D01*
X86830819Y-87312475D02*
X87640342Y-87312475D01*
X87640342Y-87312475D02*
X87735580Y-87264856D01*
X87735580Y-87264856D02*
X87783200Y-87217237D01*
X87783200Y-87217237D02*
X87830819Y-87121999D01*
X87830819Y-87121999D02*
X87830819Y-86931523D01*
X87830819Y-86931523D02*
X87783200Y-86836285D01*
X87783200Y-86836285D02*
X87735580Y-86788666D01*
X87735580Y-86788666D02*
X87640342Y-86741047D01*
X87640342Y-86741047D02*
X86830819Y-86741047D01*
X87545104Y-86312475D02*
X87545104Y-85836285D01*
X87830819Y-86407713D02*
X86830819Y-86074380D01*
X86830819Y-86074380D02*
X87830819Y-85741047D01*
X87830819Y-84836285D02*
X87354628Y-85169618D01*
X87830819Y-85407713D02*
X86830819Y-85407713D01*
X86830819Y-85407713D02*
X86830819Y-85026761D01*
X86830819Y-85026761D02*
X86878438Y-84931523D01*
X86878438Y-84931523D02*
X86926057Y-84883904D01*
X86926057Y-84883904D02*
X87021295Y-84836285D01*
X87021295Y-84836285D02*
X87164152Y-84836285D01*
X87164152Y-84836285D02*
X87259390Y-84883904D01*
X87259390Y-84883904D02*
X87307009Y-84931523D01*
X87307009Y-84931523D02*
X87354628Y-85026761D01*
X87354628Y-85026761D02*
X87354628Y-85407713D01*
X86830819Y-84550570D02*
X86830819Y-83979142D01*
X87830819Y-84264856D02*
X86830819Y-84264856D01*
X87830819Y-83121999D02*
X87830819Y-83693427D01*
X87830819Y-83407713D02*
X86830819Y-83407713D01*
X86830819Y-83407713D02*
X86973676Y-83502951D01*
X86973676Y-83502951D02*
X87068914Y-83598189D01*
X87068914Y-83598189D02*
X87116533Y-83693427D01*
X133689200Y-111315332D02*
X133736819Y-111172475D01*
X133736819Y-111172475D02*
X133736819Y-110934380D01*
X133736819Y-110934380D02*
X133689200Y-110839142D01*
X133689200Y-110839142D02*
X133641580Y-110791523D01*
X133641580Y-110791523D02*
X133546342Y-110743904D01*
X133546342Y-110743904D02*
X133451104Y-110743904D01*
X133451104Y-110743904D02*
X133355866Y-110791523D01*
X133355866Y-110791523D02*
X133308247Y-110839142D01*
X133308247Y-110839142D02*
X133260628Y-110934380D01*
X133260628Y-110934380D02*
X133213009Y-111124856D01*
X133213009Y-111124856D02*
X133165390Y-111220094D01*
X133165390Y-111220094D02*
X133117771Y-111267713D01*
X133117771Y-111267713D02*
X133022533Y-111315332D01*
X133022533Y-111315332D02*
X132927295Y-111315332D01*
X132927295Y-111315332D02*
X132832057Y-111267713D01*
X132832057Y-111267713D02*
X132784438Y-111220094D01*
X132784438Y-111220094D02*
X132736819Y-111124856D01*
X132736819Y-111124856D02*
X132736819Y-110886761D01*
X132736819Y-110886761D02*
X132784438Y-110743904D01*
X132736819Y-110410570D02*
X133736819Y-110172475D01*
X133736819Y-110172475D02*
X133022533Y-109981999D01*
X133022533Y-109981999D02*
X133736819Y-109791523D01*
X133736819Y-109791523D02*
X132736819Y-109553428D01*
X133736819Y-108648666D02*
X133736819Y-109220094D01*
X133736819Y-108934380D02*
X132736819Y-108934380D01*
X132736819Y-108934380D02*
X132879676Y-109029618D01*
X132879676Y-109029618D02*
X132974914Y-109124856D01*
X132974914Y-109124856D02*
X133022533Y-109220094D01*
X93305333Y-74224080D02*
X93257714Y-74271700D01*
X93257714Y-74271700D02*
X93114857Y-74319319D01*
X93114857Y-74319319D02*
X93019619Y-74319319D01*
X93019619Y-74319319D02*
X92876762Y-74271700D01*
X92876762Y-74271700D02*
X92781524Y-74176461D01*
X92781524Y-74176461D02*
X92733905Y-74081223D01*
X92733905Y-74081223D02*
X92686286Y-73890747D01*
X92686286Y-73890747D02*
X92686286Y-73747890D01*
X92686286Y-73747890D02*
X92733905Y-73557414D01*
X92733905Y-73557414D02*
X92781524Y-73462176D01*
X92781524Y-73462176D02*
X92876762Y-73366938D01*
X92876762Y-73366938D02*
X93019619Y-73319319D01*
X93019619Y-73319319D02*
X93114857Y-73319319D01*
X93114857Y-73319319D02*
X93257714Y-73366938D01*
X93257714Y-73366938D02*
X93305333Y-73414557D01*
X93686286Y-73414557D02*
X93733905Y-73366938D01*
X93733905Y-73366938D02*
X93829143Y-73319319D01*
X93829143Y-73319319D02*
X94067238Y-73319319D01*
X94067238Y-73319319D02*
X94162476Y-73366938D01*
X94162476Y-73366938D02*
X94210095Y-73414557D01*
X94210095Y-73414557D02*
X94257714Y-73509795D01*
X94257714Y-73509795D02*
X94257714Y-73605033D01*
X94257714Y-73605033D02*
X94210095Y-73747890D01*
X94210095Y-73747890D02*
X93638667Y-74319319D01*
X93638667Y-74319319D02*
X94257714Y-74319319D01*
D12*
X99297080Y-105410095D02*
X98487557Y-105410095D01*
X98487557Y-105410095D02*
X98392319Y-105457714D01*
X98392319Y-105457714D02*
X98344700Y-105505333D01*
X98344700Y-105505333D02*
X98297080Y-105600571D01*
X98297080Y-105600571D02*
X98297080Y-105791047D01*
X98297080Y-105791047D02*
X98344700Y-105886285D01*
X98344700Y-105886285D02*
X98392319Y-105933904D01*
X98392319Y-105933904D02*
X98487557Y-105981523D01*
X98487557Y-105981523D02*
X99297080Y-105981523D01*
X98297080Y-106981523D02*
X98297080Y-106410095D01*
X98297080Y-106695809D02*
X99297080Y-106695809D01*
X99297080Y-106695809D02*
X99154223Y-106600571D01*
X99154223Y-106600571D02*
X99058985Y-106505333D01*
X99058985Y-106505333D02*
X99011366Y-106410095D01*
D10*
X93305333Y-76704319D02*
X92972000Y-76228128D01*
X92733905Y-76704319D02*
X92733905Y-75704319D01*
X92733905Y-75704319D02*
X93114857Y-75704319D01*
X93114857Y-75704319D02*
X93210095Y-75751938D01*
X93210095Y-75751938D02*
X93257714Y-75799557D01*
X93257714Y-75799557D02*
X93305333Y-75894795D01*
X93305333Y-75894795D02*
X93305333Y-76037652D01*
X93305333Y-76037652D02*
X93257714Y-76132890D01*
X93257714Y-76132890D02*
X93210095Y-76180509D01*
X93210095Y-76180509D02*
X93114857Y-76228128D01*
X93114857Y-76228128D02*
X92733905Y-76228128D01*
X93638667Y-75704319D02*
X94257714Y-75704319D01*
X94257714Y-75704319D02*
X93924381Y-76085271D01*
X93924381Y-76085271D02*
X94067238Y-76085271D01*
X94067238Y-76085271D02*
X94162476Y-76132890D01*
X94162476Y-76132890D02*
X94210095Y-76180509D01*
X94210095Y-76180509D02*
X94257714Y-76275747D01*
X94257714Y-76275747D02*
X94257714Y-76513842D01*
X94257714Y-76513842D02*
X94210095Y-76609080D01*
X94210095Y-76609080D02*
X94162476Y-76656700D01*
X94162476Y-76656700D02*
X94067238Y-76704319D01*
X94067238Y-76704319D02*
X93781524Y-76704319D01*
X93781524Y-76704319D02*
X93686286Y-76656700D01*
X93686286Y-76656700D02*
X93638667Y-76609080D01*
X138738095Y-69254819D02*
X138738095Y-68254819D01*
X138738095Y-68731009D02*
X139309523Y-68731009D01*
X139309523Y-69254819D02*
X139309523Y-68254819D01*
X140309523Y-69254819D02*
X139738095Y-69254819D01*
X140023809Y-69254819D02*
X140023809Y-68254819D01*
X140023809Y-68254819D02*
X139928571Y-68397676D01*
X139928571Y-68397676D02*
X139833333Y-68492914D01*
X139833333Y-68492914D02*
X139738095Y-68540533D01*
X121231819Y-74993142D02*
X120231819Y-74993142D01*
X120708009Y-74993142D02*
X120708009Y-74421714D01*
X121231819Y-74421714D02*
X120231819Y-74421714D01*
X121136580Y-73374095D02*
X121184200Y-73421714D01*
X121184200Y-73421714D02*
X121231819Y-73564571D01*
X121231819Y-73564571D02*
X121231819Y-73659809D01*
X121231819Y-73659809D02*
X121184200Y-73802666D01*
X121184200Y-73802666D02*
X121088961Y-73897904D01*
X121088961Y-73897904D02*
X120993723Y-73945523D01*
X120993723Y-73945523D02*
X120803247Y-73993142D01*
X120803247Y-73993142D02*
X120660390Y-73993142D01*
X120660390Y-73993142D02*
X120469914Y-73945523D01*
X120469914Y-73945523D02*
X120374676Y-73897904D01*
X120374676Y-73897904D02*
X120279438Y-73802666D01*
X120279438Y-73802666D02*
X120231819Y-73659809D01*
X120231819Y-73659809D02*
X120231819Y-73564571D01*
X120231819Y-73564571D02*
X120279438Y-73421714D01*
X120279438Y-73421714D02*
X120327057Y-73374095D01*
X120850866Y-72945523D02*
X120850866Y-72183619D01*
X121184200Y-71755047D02*
X121231819Y-71612190D01*
X121231819Y-71612190D02*
X121231819Y-71374095D01*
X121231819Y-71374095D02*
X121184200Y-71278857D01*
X121184200Y-71278857D02*
X121136580Y-71231238D01*
X121136580Y-71231238D02*
X121041342Y-71183619D01*
X121041342Y-71183619D02*
X120946104Y-71183619D01*
X120946104Y-71183619D02*
X120850866Y-71231238D01*
X120850866Y-71231238D02*
X120803247Y-71278857D01*
X120803247Y-71278857D02*
X120755628Y-71374095D01*
X120755628Y-71374095D02*
X120708009Y-71564571D01*
X120708009Y-71564571D02*
X120660390Y-71659809D01*
X120660390Y-71659809D02*
X120612771Y-71707428D01*
X120612771Y-71707428D02*
X120517533Y-71755047D01*
X120517533Y-71755047D02*
X120422295Y-71755047D01*
X120422295Y-71755047D02*
X120327057Y-71707428D01*
X120327057Y-71707428D02*
X120279438Y-71659809D01*
X120279438Y-71659809D02*
X120231819Y-71564571D01*
X120231819Y-71564571D02*
X120231819Y-71326476D01*
X120231819Y-71326476D02*
X120279438Y-71183619D01*
X121231819Y-70183619D02*
X120755628Y-70516952D01*
X121231819Y-70755047D02*
X120231819Y-70755047D01*
X120231819Y-70755047D02*
X120231819Y-70374095D01*
X120231819Y-70374095D02*
X120279438Y-70278857D01*
X120279438Y-70278857D02*
X120327057Y-70231238D01*
X120327057Y-70231238D02*
X120422295Y-70183619D01*
X120422295Y-70183619D02*
X120565152Y-70183619D01*
X120565152Y-70183619D02*
X120660390Y-70231238D01*
X120660390Y-70231238D02*
X120708009Y-70278857D01*
X120708009Y-70278857D02*
X120755628Y-70374095D01*
X120755628Y-70374095D02*
X120755628Y-70755047D01*
X120565152Y-69326476D02*
X121231819Y-69326476D01*
X120184200Y-69564571D02*
X120898485Y-69802666D01*
X120898485Y-69802666D02*
X120898485Y-69183619D01*
X83738095Y-69254819D02*
X83738095Y-68254819D01*
X83738095Y-68731009D02*
X84309523Y-68731009D01*
X84309523Y-69254819D02*
X84309523Y-68254819D01*
X85214285Y-68588152D02*
X85214285Y-69254819D01*
X84976190Y-68207200D02*
X84738095Y-68921485D01*
X84738095Y-68921485D02*
X85357142Y-68921485D01*
X138738095Y-124254819D02*
X138738095Y-123254819D01*
X138738095Y-123731009D02*
X139309523Y-123731009D01*
X139309523Y-124254819D02*
X139309523Y-123254819D01*
X139738095Y-123350057D02*
X139785714Y-123302438D01*
X139785714Y-123302438D02*
X139880952Y-123254819D01*
X139880952Y-123254819D02*
X140119047Y-123254819D01*
X140119047Y-123254819D02*
X140214285Y-123302438D01*
X140214285Y-123302438D02*
X140261904Y-123350057D01*
X140261904Y-123350057D02*
X140309523Y-123445295D01*
X140309523Y-123445295D02*
X140309523Y-123540533D01*
X140309523Y-123540533D02*
X140261904Y-123683390D01*
X140261904Y-123683390D02*
X139690476Y-124254819D01*
X139690476Y-124254819D02*
X140309523Y-124254819D01*
D13*
%TO.C,DHT22*%
X133156000Y-127448000D02*
X133156000Y-128778000D01*
X131826000Y-127448000D02*
X133156000Y-127448000D01*
X130556000Y-127448000D02*
X125416000Y-127448000D01*
X130556000Y-127448000D02*
X130556000Y-130108000D01*
X125416000Y-127448000D02*
X125416000Y-130108000D01*
X130556000Y-130108000D02*
X125416000Y-130108000D01*
%TO.C,R5*%
X103174500Y-106780064D02*
X103174500Y-106325936D01*
X104644500Y-106780064D02*
X104644500Y-106325936D01*
%TO.C,Q2*%
X96992000Y-76962000D02*
X96992000Y-78637000D01*
X96992000Y-76962000D02*
X96992000Y-76312000D01*
X100112000Y-76962000D02*
X100112000Y-77612000D01*
X100112000Y-76962000D02*
X100112000Y-76312000D01*
D10*
%TO.C,ZMOD1*%
X132870000Y-122858000D02*
G75*
G03*
X132270000Y-122858000I-300000J0D01*
G01*
X132270000Y-122858000D02*
G75*
G03*
X132870000Y-122858000I300000J0D01*
G01*
X127030000Y-122398000D02*
X132110000Y-122398000D01*
X132110000Y-122398000D02*
X132110000Y-117318000D01*
X132110000Y-117318000D02*
X127030000Y-117318000D01*
X127030000Y-117318000D02*
X127030000Y-122398000D01*
D14*
%TO.C,U2*%
X93250200Y-99809300D02*
X93250200Y-81546700D01*
X100090760Y-99809300D02*
X93250200Y-99809300D01*
X119005800Y-99809300D02*
X118155240Y-99809300D01*
X119005800Y-98440240D02*
X119005800Y-99809300D01*
X93250200Y-81546700D02*
X100090760Y-81546700D01*
X118155240Y-81546700D02*
X119005800Y-81546700D01*
X119005800Y-81546700D02*
X119005800Y-82915760D01*
D13*
%TO.C,R9*%
X106960936Y-108993000D02*
X107415064Y-108993000D01*
X106960936Y-110463000D02*
X107415064Y-110463000D01*
%TO.C,R6*%
X97817000Y-72411564D02*
X97817000Y-71957436D01*
X99287000Y-72411564D02*
X99287000Y-71957436D01*
%TO.C,MQ135*%
X93920000Y-127822000D02*
X93920000Y-126492000D01*
X95250000Y-127822000D02*
X93920000Y-127822000D01*
X96520000Y-127822000D02*
X104200000Y-127822000D01*
X96520000Y-127822000D02*
X96520000Y-125162000D01*
X104200000Y-127822000D02*
X104200000Y-125162000D01*
X96520000Y-125162000D02*
X104200000Y-125162000D01*
%TO.C,Q1*%
X108354500Y-108113000D02*
X110029500Y-108113000D01*
X108354500Y-108113000D02*
X107704500Y-108113000D01*
X108354500Y-104993000D02*
X109004500Y-104993000D01*
X108354500Y-104993000D02*
X107704500Y-104993000D01*
%TO.C,SW2*%
X129782000Y-95052000D02*
X128282000Y-95052000D01*
X125782000Y-96302000D02*
X125782000Y-100802000D01*
X132282000Y-100802000D02*
X132282000Y-96302000D01*
X128282000Y-102052000D02*
X129782000Y-102052000D01*
%TO.C,MicroUSB_5V1A_Wall1*%
X112140000Y-127690000D02*
X114200000Y-127690000D01*
X112140000Y-129400000D02*
X112140000Y-127690000D01*
X114200000Y-127690000D02*
X114200000Y-127100000D01*
X119860000Y-127690000D02*
X117800000Y-127690000D01*
X119860000Y-129400000D02*
X119860000Y-127690000D01*
%TO.C,R2*%
X113534500Y-106325936D02*
X113534500Y-106780064D01*
X112064500Y-106325936D02*
X112064500Y-106780064D01*
%TO.C,USB_UART1*%
X83252000Y-78680000D02*
X84582000Y-78680000D01*
X83252000Y-80010000D02*
X83252000Y-78680000D01*
X83252000Y-81280000D02*
X83252000Y-94040000D01*
X83252000Y-81280000D02*
X85912000Y-81280000D01*
X83252000Y-94040000D02*
X85912000Y-94040000D01*
X85912000Y-81280000D02*
X85912000Y-94040000D01*
%TO.C,SW1*%
X129782000Y-106482000D02*
X128282000Y-106482000D01*
X125782000Y-107732000D02*
X125782000Y-112232000D01*
X132282000Y-112232000D02*
X132282000Y-107732000D01*
X128282000Y-113482000D02*
X129782000Y-113482000D01*
%TO.C,C2*%
X93733252Y-72919500D02*
X93210748Y-72919500D01*
X93733252Y-71449500D02*
X93210748Y-71449500D01*
%TO.C,R3*%
X93244936Y-77164500D02*
X93699064Y-77164500D01*
X93244936Y-78634500D02*
X93699064Y-78634500D01*
%TO.C,HC-SR4*%
X119186000Y-69282000D02*
X119186000Y-70612000D01*
X117856000Y-69282000D02*
X119186000Y-69282000D01*
X116586000Y-69282000D02*
X108906000Y-69282000D01*
X116586000Y-69282000D02*
X116586000Y-71942000D01*
X108906000Y-69282000D02*
X108906000Y-71942000D01*
X116586000Y-71942000D02*
X108906000Y-71942000D01*
%TD*%
M02*
