%TF.GenerationSoftware,KiCad,Pcbnew,7.0.10*%
%TF.CreationDate,2024-02-24T20:42:51-06:00*%
%TF.ProjectId,ESP32,45535033-322e-46b6-9963-61645f706362,rev?*%
%TF.SameCoordinates,Original*%
%TF.FileFunction,Soldermask,Bot*%
%TF.FilePolarity,Negative*%
%FSLAX46Y46*%
G04 Gerber Fmt 4.6, Leading zero omitted, Abs format (unit mm)*
G04 Created by KiCad (PCBNEW 7.0.10) date 2024-02-24 20:42:51*
%MOMM*%
%LPD*%
G01*
G04 APERTURE LIST*
G04 Aperture macros list*
%AMRoundRect*
0 Rectangle with rounded corners*
0 $1 Rounding radius*
0 $2 $3 $4 $5 $6 $7 $8 $9 X,Y pos of 4 corners*
0 Add a 4 corners polygon primitive as box body*
4,1,4,$2,$3,$4,$5,$6,$7,$8,$9,$2,$3,0*
0 Add four circle primitives for the rounded corners*
1,1,$1+$1,$2,$3*
1,1,$1+$1,$4,$5*
1,1,$1+$1,$6,$7*
1,1,$1+$1,$8,$9*
0 Add four rect primitives between the rounded corners*
20,1,$1+$1,$2,$3,$4,$5,0*
20,1,$1+$1,$4,$5,$6,$7,0*
20,1,$1+$1,$6,$7,$8,$9,0*
20,1,$1+$1,$8,$9,$2,$3,0*%
%AMFreePoly0*
4,1,6,1.000000,0.000000,0.500000,-0.750000,-0.500000,-0.750000,-0.500000,0.750000,0.500000,0.750000,1.000000,0.000000,1.000000,0.000000,$1*%
G04 Aperture macros list end*
%ADD10C,3.200000*%
%ADD11O,1.700000X1.700000*%
%ADD12R,1.700000X1.700000*%
%ADD13RoundRect,0.250000X-0.262500X-0.450000X0.262500X-0.450000X0.262500X0.450000X-0.262500X0.450000X0*%
%ADD14RoundRect,0.250000X-0.475000X0.250000X-0.475000X-0.250000X0.475000X-0.250000X0.475000X0.250000X0*%
%ADD15RoundRect,0.250000X0.250000X0.475000X-0.250000X0.475000X-0.250000X-0.475000X0.250000X-0.475000X0*%
%ADD16RoundRect,0.250000X0.262500X0.450000X-0.262500X0.450000X-0.262500X-0.450000X0.262500X-0.450000X0*%
%ADD17FreePoly0,270.000000*%
%ADD18FreePoly0,90.000000*%
%ADD19R,1.500000X1.500000*%
G04 APERTURE END LIST*
D10*
%TO.C,H4*%
X84500000Y-73000000D03*
%TD*%
%TO.C,H3*%
X84500000Y-128000000D03*
%TD*%
%TO.C,H2*%
X139500000Y-128000000D03*
%TD*%
%TO.C,H1*%
X139500000Y-73000000D03*
%TD*%
D11*
%TO.C,DHT22*%
X126746000Y-128778000D03*
X129286000Y-128778000D03*
D12*
X131826000Y-128778000D03*
%TD*%
D13*
%TO.C,R7*%
X110339500Y-97790000D03*
X112164500Y-97790000D03*
%TD*%
D11*
%TO.C,MQ135*%
X102870000Y-126492000D03*
X100330000Y-126492000D03*
X97790000Y-126492000D03*
D12*
X95250000Y-126492000D03*
%TD*%
D11*
%TO.C,USB_UART1*%
X84582000Y-92710000D03*
X84582000Y-90170000D03*
X84582000Y-87630000D03*
X84582000Y-85090000D03*
X84582000Y-82550000D03*
D12*
X84582000Y-80010000D03*
%TD*%
D11*
%TO.C,HC-SR4*%
X110236000Y-70612000D03*
X112776000Y-70612000D03*
X115316000Y-70612000D03*
D12*
X117856000Y-70612000D03*
%TD*%
D13*
%TO.C,R10*%
X104273000Y-90297000D03*
X102448000Y-90297000D03*
%TD*%
D14*
%TO.C,C3*%
X94996000Y-117028000D03*
X94996000Y-115128000D03*
%TD*%
%TO.C,C5*%
X105156000Y-117028000D03*
X105156000Y-115128000D03*
%TD*%
%TO.C,C4*%
X90551000Y-117028000D03*
X90551000Y-115128000D03*
%TD*%
D15*
%TO.C,C1*%
X102410500Y-97790000D03*
X104310500Y-97790000D03*
%TD*%
D16*
%TO.C,R11*%
X102465500Y-93980000D03*
X104290500Y-93980000D03*
%TD*%
%TO.C,R1*%
X110339500Y-93980000D03*
X112164500Y-93980000D03*
%TD*%
D13*
%TO.C,R8*%
X114433000Y-86487000D03*
X112608000Y-86487000D03*
%TD*%
D17*
%TO.C,JP1*%
X100076000Y-114008000D03*
D18*
X100076000Y-118008000D03*
D19*
X100076000Y-114808000D03*
X100076000Y-117208000D03*
%TD*%
D16*
%TO.C,R4*%
X106369500Y-109093000D03*
X104544500Y-109093000D03*
%TD*%
M02*
