%TF.GenerationSoftware,KiCad,Pcbnew,7.0.10*%
%TF.CreationDate,2024-02-24T20:42:51-06:00*%
%TF.ProjectId,ESP32,45535033-322e-46b6-9963-61645f706362,rev?*%
%TF.SameCoordinates,Original*%
%TF.FileFunction,Paste,Top*%
%TF.FilePolarity,Positive*%
%FSLAX46Y46*%
G04 Gerber Fmt 4.6, Leading zero omitted, Abs format (unit mm)*
G04 Created by KiCad (PCBNEW 7.0.10) date 2024-02-24 20:42:51*
%MOMM*%
%LPD*%
G01*
G04 APERTURE LIST*
G04 Aperture macros list*
%AMRoundRect*
0 Rectangle with rounded corners*
0 $1 Rounding radius*
0 $2 $3 $4 $5 $6 $7 $8 $9 X,Y pos of 4 corners*
0 Add a 4 corners polygon primitive as box body*
4,1,4,$2,$3,$4,$5,$6,$7,$8,$9,$2,$3,0*
0 Add four circle primitives for the rounded corners*
1,1,$1+$1,$2,$3*
1,1,$1+$1,$4,$5*
1,1,$1+$1,$6,$7*
1,1,$1+$1,$8,$9*
0 Add four rect primitives between the rounded corners*
20,1,$1+$1,$2,$3,$4,$5,0*
20,1,$1+$1,$4,$5,$6,$7,0*
20,1,$1+$1,$6,$7,$8,$9,0*
20,1,$1+$1,$8,$9,$2,$3,0*%
%AMOutline5P*
0 Free polygon, 5 corners , with rotation*
0 The origin of the aperture is its center*
0 number of corners: always 5*
0 $1 to $10 corner X, Y*
0 $11 Rotation angle, in degrees counterclockwise*
0 create outline with 5 corners*
4,1,5,$1,$2,$3,$4,$5,$6,$7,$8,$9,$10,$1,$2,$11*%
%AMOutline6P*
0 Free polygon, 6 corners , with rotation*
0 The origin of the aperture is its center*
0 number of corners: always 6*
0 $1 to $12 corner X, Y*
0 $13 Rotation angle, in degrees counterclockwise*
0 create outline with 6 corners*
4,1,6,$1,$2,$3,$4,$5,$6,$7,$8,$9,$10,$11,$12,$1,$2,$13*%
%AMOutline7P*
0 Free polygon, 7 corners , with rotation*
0 The origin of the aperture is its center*
0 number of corners: always 7*
0 $1 to $14 corner X, Y*
0 $15 Rotation angle, in degrees counterclockwise*
0 create outline with 7 corners*
4,1,7,$1,$2,$3,$4,$5,$6,$7,$8,$9,$10,$11,$12,$13,$14,$1,$2,$15*%
%AMOutline8P*
0 Free polygon, 8 corners , with rotation*
0 The origin of the aperture is its center*
0 number of corners: always 8*
0 $1 to $16 corner X, Y*
0 $17 Rotation angle, in degrees counterclockwise*
0 create outline with 8 corners*
4,1,8,$1,$2,$3,$4,$5,$6,$7,$8,$9,$10,$11,$12,$13,$14,$15,$16,$1,$2,$17*%
G04 Aperture macros list end*
%ADD10R,0.400000X1.400000*%
%ADD11R,2.300000X1.900000*%
%ADD12R,1.800000X1.900000*%
%ADD13RoundRect,0.250000X0.450000X-0.262500X0.450000X0.262500X-0.450000X0.262500X-0.450000X-0.262500X0*%
%ADD14RoundRect,0.150000X0.150000X-0.587500X0.150000X0.587500X-0.150000X0.587500X-0.150000X-0.587500X0*%
%ADD15Outline5P,-0.125000X0.150000X-0.025000X0.250000X0.125000X0.250000X0.125000X-0.250000X-0.125000X-0.250000X90.000000*%
%ADD16R,0.500000X0.250000*%
%ADD17R,0.250000X0.500000*%
%ADD18R,0.889000X0.889000*%
%ADD19R,0.889000X1.498600*%
%ADD20R,1.498600X0.889000*%
%ADD21RoundRect,0.250000X-0.262500X-0.450000X0.262500X-0.450000X0.262500X0.450000X-0.262500X0.450000X0*%
%ADD22RoundRect,0.150000X0.587500X0.150000X-0.587500X0.150000X-0.587500X-0.150000X0.587500X-0.150000X0*%
%ADD23R,1.300000X1.550000*%
%ADD24RoundRect,0.250000X-0.450000X0.262500X-0.450000X-0.262500X0.450000X-0.262500X0.450000X0.262500X0*%
%ADD25RoundRect,0.250000X0.250000X0.475000X-0.250000X0.475000X-0.250000X-0.475000X0.250000X-0.475000X0*%
%ADD26R,2.200000X1.200000*%
%ADD27R,2.200000X3.500000*%
G04 APERTURE END LIST*
D10*
%TO.C,MicroUSB_5V1A_Wall1*%
X114700000Y-127800000D03*
X115350000Y-127800000D03*
X116000000Y-127800000D03*
X116650000Y-127800000D03*
X117300000Y-127800000D03*
D11*
X119750000Y-130650000D03*
D12*
X117150000Y-130650000D03*
D11*
X112250000Y-130650000D03*
D12*
X114850000Y-130650000D03*
%TD*%
D13*
%TO.C,R5*%
X103909500Y-107465500D03*
X103909500Y-105640500D03*
%TD*%
D14*
%TO.C,Q2*%
X98552000Y-76024500D03*
X99502000Y-77899500D03*
X97602000Y-77899500D03*
%TD*%
D15*
%TO.C,ZMOD1*%
X130870000Y-120358000D03*
D16*
X130870000Y-119858000D03*
X130870000Y-119358000D03*
D17*
X130570000Y-118558000D03*
X129570000Y-118558000D03*
X128570000Y-118558000D03*
D16*
X128270000Y-119358000D03*
X128270000Y-119858000D03*
X128270000Y-120358000D03*
D17*
X128570000Y-121158000D03*
X129570000Y-121158000D03*
X130570000Y-121158000D03*
%TD*%
D18*
%TO.C,U2*%
X107188000Y-90528000D03*
X108588000Y-90528000D03*
X109988000Y-90528000D03*
X109988000Y-91928000D03*
X109988000Y-93328000D03*
X108588000Y-93328000D03*
X107188000Y-93328000D03*
X107188000Y-91928000D03*
X108588000Y-91928000D03*
D19*
X100868000Y-81928000D03*
X102138000Y-81928000D03*
X103408000Y-81928000D03*
X104678000Y-81928000D03*
X105948000Y-81928000D03*
X107218000Y-81928000D03*
X108488000Y-81928000D03*
X109758000Y-81928000D03*
X111028000Y-81928000D03*
X112298000Y-81928000D03*
X113568000Y-81928000D03*
X114838000Y-81928000D03*
X116108000Y-81928000D03*
X117378000Y-81928000D03*
D20*
X118628000Y-83693000D03*
X118628000Y-84963000D03*
X118628000Y-86233000D03*
X118628000Y-87503000D03*
X118628000Y-88773000D03*
X118628000Y-90043000D03*
X118628000Y-91313000D03*
X118628000Y-92583000D03*
X118628000Y-93853000D03*
X118628000Y-95123000D03*
X118628000Y-96393000D03*
X118628000Y-97663000D03*
D19*
X117378000Y-99428000D03*
X116108000Y-99428000D03*
X114838000Y-99428000D03*
X113568000Y-99428000D03*
X112298000Y-99428000D03*
X111028000Y-99428000D03*
X109758000Y-99428000D03*
X108488000Y-99428000D03*
X107218000Y-99428000D03*
X105948000Y-99428000D03*
X104678000Y-99428000D03*
X103408000Y-99428000D03*
X102138000Y-99428000D03*
X100868000Y-99428000D03*
%TD*%
D21*
%TO.C,R9*%
X108100500Y-109728000D03*
X106275500Y-109728000D03*
%TD*%
D13*
%TO.C,R6*%
X98552000Y-71272000D03*
X98552000Y-73097000D03*
%TD*%
D22*
%TO.C,Q1*%
X109292000Y-107503000D03*
X109292000Y-105603000D03*
X107417000Y-106553000D03*
%TD*%
D23*
%TO.C,SW2*%
X131536000Y-91275000D03*
X131536000Y-99225000D03*
X127036000Y-91275000D03*
X127036000Y-99225000D03*
%TD*%
D24*
%TO.C,R2*%
X112799500Y-105640500D03*
X112799500Y-107465500D03*
%TD*%
D23*
%TO.C,SW1*%
X131536000Y-104229000D03*
X131536000Y-112179000D03*
X127036000Y-104229000D03*
X127036000Y-112179000D03*
%TD*%
D25*
%TO.C,C2*%
X92522000Y-72184500D03*
X94422000Y-72184500D03*
%TD*%
D26*
%TO.C,U1*%
X90574500Y-103872000D03*
X90574500Y-106172000D03*
X90574500Y-108472000D03*
D27*
X96774500Y-106172000D03*
%TD*%
D21*
%TO.C,R3*%
X94384500Y-77899500D03*
X92559500Y-77899500D03*
%TD*%
M02*
