%TF.GenerationSoftware,KiCad,Pcbnew,7.0.10*%
%TF.CreationDate,2024-03-04T00:36:13-06:00*%
%TF.ProjectId,ESP32,45535033-322e-46b6-9963-61645f706362,rev?*%
%TF.SameCoordinates,Original*%
%TF.FileFunction,Soldermask,Bot*%
%TF.FilePolarity,Negative*%
%FSLAX46Y46*%
G04 Gerber Fmt 4.6, Leading zero omitted, Abs format (unit mm)*
G04 Created by KiCad (PCBNEW 7.0.10) date 2024-03-04 00:36:13*
%MOMM*%
%LPD*%
G01*
G04 APERTURE LIST*
G04 Aperture macros list*
%AMRoundRect*
0 Rectangle with rounded corners*
0 $1 Rounding radius*
0 $2 $3 $4 $5 $6 $7 $8 $9 X,Y pos of 4 corners*
0 Add a 4 corners polygon primitive as box body*
4,1,4,$2,$3,$4,$5,$6,$7,$8,$9,$2,$3,0*
0 Add four circle primitives for the rounded corners*
1,1,$1+$1,$2,$3*
1,1,$1+$1,$4,$5*
1,1,$1+$1,$6,$7*
1,1,$1+$1,$8,$9*
0 Add four rect primitives between the rounded corners*
20,1,$1+$1,$2,$3,$4,$5,0*
20,1,$1+$1,$4,$5,$6,$7,0*
20,1,$1+$1,$6,$7,$8,$9,0*
20,1,$1+$1,$8,$9,$2,$3,0*%
%AMFreePoly0*
4,1,6,1.000000,0.000000,0.500000,-0.750000,-0.500000,-0.750000,-0.500000,0.750000,0.500000,0.750000,1.000000,0.000000,1.000000,0.000000,$1*%
G04 Aperture macros list end*
%ADD10R,1.700000X1.700000*%
%ADD11O,1.700000X1.700000*%
%ADD12C,3.200000*%
%ADD13C,2.000000*%
%ADD14RoundRect,0.250000X-0.262500X-0.450000X0.262500X-0.450000X0.262500X0.450000X-0.262500X0.450000X0*%
%ADD15RoundRect,0.250000X-0.475000X0.250000X-0.475000X-0.250000X0.475000X-0.250000X0.475000X0.250000X0*%
%ADD16RoundRect,0.250000X0.250000X0.475000X-0.250000X0.475000X-0.250000X-0.475000X0.250000X-0.475000X0*%
%ADD17RoundRect,0.250000X0.262500X0.450000X-0.262500X0.450000X-0.262500X-0.450000X0.262500X-0.450000X0*%
%ADD18FreePoly0,270.000000*%
%ADD19FreePoly0,90.000000*%
%ADD20R,1.500000X1.500000*%
G04 APERTURE END LIST*
D10*
%TO.C,DHT22*%
X131826000Y-128778000D03*
D11*
X129286000Y-128778000D03*
X126746000Y-128778000D03*
%TD*%
D12*
%TO.C,H3*%
X84500000Y-128000000D03*
%TD*%
D10*
%TO.C,MQ135*%
X95250000Y-126492000D03*
D11*
X97790000Y-126492000D03*
X100330000Y-126492000D03*
X102870000Y-126492000D03*
%TD*%
D13*
%TO.C,SW2*%
X131282000Y-95302000D03*
X131282000Y-101802000D03*
X126782000Y-95302000D03*
X126782000Y-101802000D03*
%TD*%
D10*
%TO.C,USB_UART1*%
X84582000Y-106934000D03*
D11*
X84582000Y-109474000D03*
X84582000Y-112014000D03*
X84582000Y-114554000D03*
X84582000Y-117094000D03*
X84582000Y-119634000D03*
%TD*%
D13*
%TO.C,SW1*%
X131282000Y-106732000D03*
X131282000Y-113232000D03*
X126782000Y-106732000D03*
X126782000Y-113232000D03*
%TD*%
D12*
%TO.C,H1*%
X139500000Y-73000000D03*
%TD*%
D10*
%TO.C,HC-SR4*%
X117856000Y-70612000D03*
D11*
X115316000Y-70612000D03*
X112776000Y-70612000D03*
X110236000Y-70612000D03*
%TD*%
D12*
%TO.C,H4*%
X84500000Y-73000000D03*
%TD*%
%TO.C,H2*%
X139500000Y-128000000D03*
%TD*%
D14*
%TO.C,R7*%
X98616500Y-97409000D03*
X96791500Y-97409000D03*
%TD*%
%TO.C,R10*%
X90725000Y-89916000D03*
X88900000Y-89916000D03*
%TD*%
D15*
%TO.C,C3*%
X94996000Y-117028000D03*
X94996000Y-115128000D03*
%TD*%
%TO.C,C5*%
X105156000Y-115128000D03*
X105156000Y-117028000D03*
%TD*%
%TO.C,C4*%
X90551000Y-117028000D03*
X90551000Y-115128000D03*
%TD*%
D16*
%TO.C,C1*%
X88862500Y-97409000D03*
X90762500Y-97409000D03*
%TD*%
D17*
%TO.C,R11*%
X88917500Y-93599000D03*
X90742500Y-93599000D03*
%TD*%
D14*
%TO.C,R13*%
X96584500Y-84709000D03*
X94759500Y-84709000D03*
%TD*%
D17*
%TO.C,R1*%
X96791500Y-93599000D03*
X98616500Y-93599000D03*
%TD*%
D14*
%TO.C,R12*%
X101410500Y-84709000D03*
X99585500Y-84709000D03*
%TD*%
%TO.C,R8*%
X101156500Y-89281000D03*
X99331500Y-89281000D03*
%TD*%
D18*
%TO.C,JP1*%
X100076000Y-114008000D03*
D19*
X100076000Y-118008000D03*
D20*
X100076000Y-114808000D03*
X100076000Y-117208000D03*
%TD*%
D17*
%TO.C,R4*%
X104544500Y-109093000D03*
X106369500Y-109093000D03*
%TD*%
M02*
