%TF.GenerationSoftware,KiCad,Pcbnew,7.0.10*%
%TF.CreationDate,2024-03-04T00:36:13-06:00*%
%TF.ProjectId,ESP32,45535033-322e-46b6-9963-61645f706362,rev?*%
%TF.SameCoordinates,Original*%
%TF.FileFunction,Copper,L1,Top*%
%TF.FilePolarity,Positive*%
%FSLAX46Y46*%
G04 Gerber Fmt 4.6, Leading zero omitted, Abs format (unit mm)*
G04 Created by KiCad (PCBNEW 7.0.10) date 2024-03-04 00:36:13*
%MOMM*%
%LPD*%
G01*
G04 APERTURE LIST*
G04 Aperture macros list*
%AMRoundRect*
0 Rectangle with rounded corners*
0 $1 Rounding radius*
0 $2 $3 $4 $5 $6 $7 $8 $9 X,Y pos of 4 corners*
0 Add a 4 corners polygon primitive as box body*
4,1,4,$2,$3,$4,$5,$6,$7,$8,$9,$2,$3,0*
0 Add four circle primitives for the rounded corners*
1,1,$1+$1,$2,$3*
1,1,$1+$1,$4,$5*
1,1,$1+$1,$6,$7*
1,1,$1+$1,$8,$9*
0 Add four rect primitives between the rounded corners*
20,1,$1+$1,$2,$3,$4,$5,0*
20,1,$1+$1,$4,$5,$6,$7,0*
20,1,$1+$1,$6,$7,$8,$9,0*
20,1,$1+$1,$8,$9,$2,$3,0*%
%AMOutline5P*
0 Free polygon, 5 corners , with rotation*
0 The origin of the aperture is its center*
0 number of corners: always 5*
0 $1 to $10 corner X, Y*
0 $11 Rotation angle, in degrees counterclockwise*
0 create outline with 5 corners*
4,1,5,$1,$2,$3,$4,$5,$6,$7,$8,$9,$10,$1,$2,$11*%
%AMOutline6P*
0 Free polygon, 6 corners , with rotation*
0 The origin of the aperture is its center*
0 number of corners: always 6*
0 $1 to $12 corner X, Y*
0 $13 Rotation angle, in degrees counterclockwise*
0 create outline with 6 corners*
4,1,6,$1,$2,$3,$4,$5,$6,$7,$8,$9,$10,$11,$12,$1,$2,$13*%
%AMOutline7P*
0 Free polygon, 7 corners , with rotation*
0 The origin of the aperture is its center*
0 number of corners: always 7*
0 $1 to $14 corner X, Y*
0 $15 Rotation angle, in degrees counterclockwise*
0 create outline with 7 corners*
4,1,7,$1,$2,$3,$4,$5,$6,$7,$8,$9,$10,$11,$12,$13,$14,$1,$2,$15*%
%AMOutline8P*
0 Free polygon, 8 corners , with rotation*
0 The origin of the aperture is its center*
0 number of corners: always 8*
0 $1 to $16 corner X, Y*
0 $17 Rotation angle, in degrees counterclockwise*
0 create outline with 8 corners*
4,1,8,$1,$2,$3,$4,$5,$6,$7,$8,$9,$10,$11,$12,$13,$14,$15,$16,$1,$2,$17*%
G04 Aperture macros list end*
%TA.AperFunction,ComponentPad*%
%ADD10R,1.700000X1.700000*%
%TD*%
%TA.AperFunction,ComponentPad*%
%ADD11O,1.700000X1.700000*%
%TD*%
%TA.AperFunction,SMDPad,CuDef*%
%ADD12RoundRect,0.250000X0.450000X-0.262500X0.450000X0.262500X-0.450000X0.262500X-0.450000X-0.262500X0*%
%TD*%
%TA.AperFunction,SMDPad,CuDef*%
%ADD13RoundRect,0.150000X0.150000X-0.587500X0.150000X0.587500X-0.150000X0.587500X-0.150000X-0.587500X0*%
%TD*%
%TA.AperFunction,SMDPad,CuDef*%
%ADD14Outline5P,-0.125000X0.150000X-0.025000X0.250000X0.125000X0.250000X0.125000X-0.250000X-0.125000X-0.250000X90.000000*%
%TD*%
%TA.AperFunction,SMDPad,CuDef*%
%ADD15R,0.500000X0.250000*%
%TD*%
%TA.AperFunction,SMDPad,CuDef*%
%ADD16R,0.250000X0.500000*%
%TD*%
%TA.AperFunction,SMDPad,CuDef*%
%ADD17R,0.889000X0.889000*%
%TD*%
%TA.AperFunction,SMDPad,CuDef*%
%ADD18R,0.889000X1.498600*%
%TD*%
%TA.AperFunction,SMDPad,CuDef*%
%ADD19R,1.498600X0.889000*%
%TD*%
%TA.AperFunction,SMDPad,CuDef*%
%ADD20RoundRect,0.250000X-0.262500X-0.450000X0.262500X-0.450000X0.262500X0.450000X-0.262500X0.450000X0*%
%TD*%
%TA.AperFunction,SMDPad,CuDef*%
%ADD21RoundRect,0.150000X0.587500X0.150000X-0.587500X0.150000X-0.587500X-0.150000X0.587500X-0.150000X0*%
%TD*%
%TA.AperFunction,ComponentPad*%
%ADD22C,2.000000*%
%TD*%
%TA.AperFunction,SMDPad,CuDef*%
%ADD23R,0.400000X1.400000*%
%TD*%
%TA.AperFunction,SMDPad,CuDef*%
%ADD24R,2.300000X1.900000*%
%TD*%
%TA.AperFunction,SMDPad,CuDef*%
%ADD25R,1.800000X1.900000*%
%TD*%
%TA.AperFunction,SMDPad,CuDef*%
%ADD26RoundRect,0.250000X-0.450000X0.262500X-0.450000X-0.262500X0.450000X-0.262500X0.450000X0.262500X0*%
%TD*%
%TA.AperFunction,SMDPad,CuDef*%
%ADD27RoundRect,0.250000X0.250000X0.475000X-0.250000X0.475000X-0.250000X-0.475000X0.250000X-0.475000X0*%
%TD*%
%TA.AperFunction,SMDPad,CuDef*%
%ADD28R,2.200000X1.200000*%
%TD*%
%TA.AperFunction,SMDPad,CuDef*%
%ADD29R,2.200000X3.500000*%
%TD*%
%TA.AperFunction,ViaPad*%
%ADD30C,0.800000*%
%TD*%
%TA.AperFunction,ViaPad*%
%ADD31C,1.016000*%
%TD*%
%TA.AperFunction,Conductor*%
%ADD32C,0.508000*%
%TD*%
%TA.AperFunction,Conductor*%
%ADD33C,0.762000*%
%TD*%
%TA.AperFunction,Conductor*%
%ADD34C,0.254000*%
%TD*%
%TA.AperFunction,Conductor*%
%ADD35C,0.400000*%
%TD*%
G04 APERTURE END LIST*
D10*
%TO.P,DHT22,1,Pin_1*%
%TO.N,+3V3*%
X131826000Y-128778000D03*
D11*
%TO.P,DHT22,2,Pin_2*%
%TO.N,/S*%
X129286000Y-128778000D03*
%TO.P,DHT22,3,Pin_3*%
%TO.N,GND*%
X126746000Y-128778000D03*
%TD*%
D12*
%TO.P,R5,2*%
%TO.N,/CHIP_PU*%
X103909500Y-105640500D03*
%TO.P,R5,1*%
%TO.N,Net-(Q1-C)*%
X103909500Y-107465500D03*
%TD*%
D13*
%TO.P,Q2,1,B*%
%TO.N,Net-(Q2-B)*%
X97602000Y-76883500D03*
%TO.P,Q2,2,E*%
%TO.N,/DTR*%
X99502000Y-76883500D03*
%TO.P,Q2,3,C*%
%TO.N,Net-(Q2-C)*%
X98552000Y-75008500D03*
%TD*%
D14*
%TO.P,ZMOD1,1,SCL*%
%TO.N,/ZMOD_SCL*%
X130870000Y-120358000D03*
D15*
%TO.P,ZMOD1,2,SDA*%
%TO.N,/ZMOD_SDA*%
X130870000Y-119858000D03*
%TO.P,ZMOD1,3,INT*%
%TO.N,/ZMOD_INT*%
X130870000Y-119358000D03*
D16*
%TO.P,ZMOD1,4,n.c.*%
%TO.N,unconnected-(ZMOD1-n.c.-Pad4)*%
X130570000Y-118558000D03*
%TO.P,ZMOD1,5,VDD*%
%TO.N,+3V3*%
X129570000Y-118558000D03*
%TO.P,ZMOD1,6,VSS*%
%TO.N,GND*%
X128570000Y-118558000D03*
D15*
%TO.P,ZMOD1,7,VSS*%
X128270000Y-119358000D03*
%TO.P,ZMOD1,8,n.c.*%
%TO.N,unconnected-(ZMOD1-n.c.-Pad8)*%
X128270000Y-119858000D03*
%TO.P,ZMOD1,9,VSS*%
%TO.N,GND*%
X128270000Y-120358000D03*
D16*
%TO.P,ZMOD1,10,VDDH*%
%TO.N,+3V3*%
X128570000Y-121158000D03*
%TO.P,ZMOD1,11,RES_N*%
%TO.N,/ZMOD_RES_N*%
X129570000Y-121158000D03*
%TO.P,ZMOD1,12,VDDIO*%
%TO.N,+3V3*%
X130570000Y-121158000D03*
%TD*%
D17*
%TO.P,U2,49,GND*%
%TO.N,GND*%
X93640000Y-90147000D03*
%TO.P,U2,48,GND*%
X95040000Y-90147000D03*
%TO.P,U2,47,GND*%
X96440000Y-90147000D03*
%TO.P,U2,46,GND*%
X96440000Y-91547000D03*
%TO.P,U2,45,GND*%
X96440000Y-92947000D03*
%TO.P,U2,44,GND*%
X95040000Y-92947000D03*
%TO.P,U2,43,GND*%
X93640000Y-92947000D03*
%TO.P,U2,42,GND*%
X93640000Y-91547000D03*
%TO.P,U2,41,GND*%
X95040000Y-91547000D03*
D18*
%TO.P,U2,40,GND*%
X87320000Y-81547000D03*
%TO.P,U2,39,IO1*%
%TO.N,/I_M_2*%
X88590000Y-81547000D03*
%TO.P,U2,38,IO2*%
%TO.N,/I_M_1*%
X89860000Y-81547000D03*
%TO.P,U2,37,TXD0*%
%TO.N,/TX*%
X91130000Y-81547000D03*
%TO.P,U2,36,RXD0*%
%TO.N,/RX*%
X92400000Y-81547000D03*
%TO.P,U2,35,IO42*%
%TO.N,/MTMS*%
X93670000Y-81547000D03*
%TO.P,U2,34,IO41*%
%TO.N,/MTDI*%
X94940000Y-81547000D03*
%TO.P,U2,33,IO40*%
%TO.N,/MTDO*%
X96210000Y-81547000D03*
%TO.P,U2,32,IO39*%
%TO.N,/MTCK*%
X97480000Y-81547000D03*
%TO.P,U2,31,IO38*%
%TO.N,/ZMOD_SCL*%
X98750000Y-81547000D03*
%TO.P,U2,30,IO37*%
%TO.N,/ZMOD_SDA*%
X100020000Y-81547000D03*
%TO.P,U2,29,IO36*%
%TO.N,/ZMOD_INT*%
X101290000Y-81547000D03*
%TO.P,U2,28,IO35*%
%TO.N,/ZMOD_RES_N*%
X102560000Y-81547000D03*
%TO.P,U2,27,IO0*%
%TO.N,/GPIO0_STRAPPING*%
X103830000Y-81547000D03*
D19*
%TO.P,U2,26,IO45*%
%TO.N,/GPIO45_STRAPPING*%
X105080000Y-83312000D03*
%TO.P,U2,25,IO48*%
%TO.N,/CAMERA_MOSI*%
X105080000Y-84582000D03*
%TO.P,U2,24,IO47*%
%TO.N,/CAMERA_CS*%
X105080000Y-85852000D03*
%TO.P,U2,23,IO21*%
%TO.N,/M2_DIR*%
X105080000Y-87122000D03*
%TO.P,U2,22,IO14*%
%TO.N,/M2_PWM*%
X105080000Y-88392000D03*
%TO.P,U2,21,IO13*%
%TO.N,/M2_EN*%
X105080000Y-89662000D03*
%TO.P,U2,20,IO12*%
%TO.N,/M2_FAULT*%
X105080000Y-90932000D03*
%TO.P,U2,19,IO11*%
%TO.N,/M1_DIR*%
X105080000Y-92202000D03*
%TO.P,U2,18,IO10*%
%TO.N,/M1_PWM*%
X105080000Y-93472000D03*
%TO.P,U2,17,IO9*%
%TO.N,/M1_EN*%
X105080000Y-94742000D03*
%TO.P,U2,16,IO46*%
%TO.N,/GPIO46_STRAPPING*%
X105080000Y-96012000D03*
%TO.P,U2,15,IO3*%
%TO.N,/GPIO3_STRAPPING*%
X105080000Y-97282000D03*
D18*
%TO.P,U2,14,IO20*%
%TO.N,/D+*%
X103830000Y-99047000D03*
%TO.P,U2,13,IO19*%
%TO.N,/D-*%
X102560000Y-99047000D03*
%TO.P,U2,12,IO8*%
%TO.N,/M1_FAULT*%
X101290000Y-99047000D03*
%TO.P,U2,11,IO18*%
%TO.N,/GPIO18*%
X100020000Y-99047000D03*
%TO.P,U2,10,IO17*%
%TO.N,/GPIO17*%
X98750000Y-99047000D03*
%TO.P,U2,9,IO16*%
%TO.N,/GPIO16*%
X97480000Y-99047000D03*
%TO.P,U2,8,IO15*%
%TO.N,/S*%
X96210000Y-99047000D03*
%TO.P,U2,7,IO7*%
%TO.N,/A0*%
X94940000Y-99047000D03*
%TO.P,U2,6,IO6*%
%TO.N,/Echo*%
X93670000Y-99047000D03*
%TO.P,U2,5,IO5*%
%TO.N,/Trig*%
X92400000Y-99047000D03*
%TO.P,U2,4,IO4*%
%TO.N,/VBAT_SENSE*%
X91130000Y-99047000D03*
%TO.P,U2,3,EN*%
%TO.N,/CHIP_PU*%
X89860000Y-99047000D03*
%TO.P,U2,2,3V3*%
%TO.N,+3V3*%
X88590000Y-99047000D03*
%TO.P,U2,1,GND*%
%TO.N,GND*%
X87320000Y-99047000D03*
%TD*%
D20*
%TO.P,R9,2*%
%TO.N,Net-(MQ135-Pin_4)*%
X108100500Y-109728000D03*
%TO.P,R9,1*%
%TO.N,/A0*%
X106275500Y-109728000D03*
%TD*%
D12*
%TO.P,R6,1*%
%TO.N,Net-(Q2-C)*%
X98552000Y-72081000D03*
%TO.P,R6,2*%
%TO.N,/GPIO0_STRAPPING*%
X98552000Y-70256000D03*
%TD*%
D10*
%TO.P,MQ135,1,Pin_1*%
%TO.N,+5V*%
X95250000Y-126492000D03*
D11*
%TO.P,MQ135,2,Pin_2*%
%TO.N,GND*%
X97790000Y-126492000D03*
%TO.P,MQ135,3,Pin_3*%
%TO.N,unconnected-(MQ135-Pin_3-Pad3)*%
X100330000Y-126492000D03*
%TO.P,MQ135,4,Pin_4*%
%TO.N,Net-(MQ135-Pin_4)*%
X102870000Y-126492000D03*
%TD*%
D21*
%TO.P,Q1,3,C*%
%TO.N,Net-(Q1-C)*%
X107417000Y-106553000D03*
%TO.P,Q1,2,E*%
%TO.N,/RTS*%
X109292000Y-105603000D03*
%TO.P,Q1,1,B*%
%TO.N,Net-(Q1-B)*%
X109292000Y-107503000D03*
%TD*%
D22*
%TO.P,SW2,1,1*%
%TO.N,GND*%
X131282000Y-95302000D03*
X131282000Y-101802000D03*
%TO.P,SW2,2,2*%
%TO.N,/GPIO0_STRAPPING*%
X126782000Y-95302000D03*
X126782000Y-101802000D03*
%TD*%
D23*
%TO.P,MicroUSB_5V1A_Wall1,1,Pin_1*%
%TO.N,+5V*%
X114700000Y-127800000D03*
%TO.P,MicroUSB_5V1A_Wall1,2,Pin_2*%
%TO.N,unconnected-(MicroUSB_5V1A_Wall1-Pin_2-Pad2)*%
X115350000Y-127800000D03*
%TO.P,MicroUSB_5V1A_Wall1,3,Pin_3*%
%TO.N,unconnected-(MicroUSB_5V1A_Wall1-Pin_3-Pad3)*%
X116000000Y-127800000D03*
%TO.P,MicroUSB_5V1A_Wall1,4,Pin_4*%
%TO.N,unconnected-(MicroUSB_5V1A_Wall1-Pin_4-Pad4)*%
X116650000Y-127800000D03*
%TO.P,MicroUSB_5V1A_Wall1,5,Pin_5*%
%TO.N,GND*%
X117300000Y-127800000D03*
D24*
%TO.P,MicroUSB_5V1A_Wall1,6,Pin_6*%
X112250000Y-130650000D03*
D25*
X114850000Y-130650000D03*
X117150000Y-130650000D03*
D24*
X119750000Y-130650000D03*
%TD*%
D26*
%TO.P,R2,2*%
%TO.N,Net-(Q1-B)*%
X112799500Y-107465500D03*
%TO.P,R2,1*%
%TO.N,/DTR*%
X112799500Y-105640500D03*
%TD*%
D10*
%TO.P,USB_UART1,1,Pin_1*%
%TO.N,GND*%
X84582000Y-106934000D03*
D11*
%TO.P,USB_UART1,2,Pin_2*%
%TO.N,/RTS*%
X84582000Y-109474000D03*
%TO.P,USB_UART1,3,Pin_3*%
%TO.N,unconnected-(USB_UART1-Pin_3-Pad3)*%
X84582000Y-112014000D03*
%TO.P,USB_UART1,4,Pin_4*%
%TO.N,/RX*%
X84582000Y-114554000D03*
%TO.P,USB_UART1,5,Pin_5*%
%TO.N,/TX*%
X84582000Y-117094000D03*
%TO.P,USB_UART1,6,Pin_6*%
%TO.N,/DTR*%
X84582000Y-119634000D03*
%TD*%
D22*
%TO.P,SW1,1,1*%
%TO.N,GND*%
X131282000Y-106732000D03*
X131282000Y-113232000D03*
%TO.P,SW1,2,2*%
%TO.N,/CHIP_PU*%
X126782000Y-106732000D03*
X126782000Y-113232000D03*
%TD*%
D27*
%TO.P,C2,1*%
%TO.N,/GPIO0_STRAPPING*%
X94422000Y-71168500D03*
%TO.P,C2,2*%
%TO.N,GND*%
X92522000Y-71168500D03*
%TD*%
D28*
%TO.P,U1,1,VI*%
%TO.N,+5V*%
X92150000Y-103872000D03*
%TO.P,U1,2,GND*%
%TO.N,unconnected-(U1-GND-Pad2)*%
X92150000Y-106172000D03*
%TO.P,U1,3,VO*%
%TO.N,+3V3*%
X92150000Y-108472000D03*
D29*
%TO.P,U1,4,ADJ*%
%TO.N,GND*%
X98350000Y-106172000D03*
%TD*%
D20*
%TO.P,R3,1*%
%TO.N,/RTS*%
X92559500Y-76883500D03*
%TO.P,R3,2*%
%TO.N,Net-(Q2-B)*%
X94384500Y-76883500D03*
%TD*%
D10*
%TO.P,HC-SR4,1,Pin_1*%
%TO.N,+5V*%
X117856000Y-70612000D03*
D11*
%TO.P,HC-SR4,2,Pin_2*%
%TO.N,/Trig*%
X115316000Y-70612000D03*
%TO.P,HC-SR4,3,Pin_3*%
%TO.N,Net-(HC-SR4-Pin_3)*%
X112776000Y-70612000D03*
%TO.P,HC-SR4,4,Pin_4*%
%TO.N,GND*%
X110236000Y-70612000D03*
%TD*%
D30*
%TO.N,GND*%
X98044000Y-85344000D03*
X101092000Y-86868000D03*
X106680000Y-103124000D03*
X115570000Y-103632000D03*
X117094000Y-107188000D03*
X91186000Y-101092000D03*
X94234000Y-101092000D03*
X114554000Y-89662000D03*
X93980000Y-79502000D03*
X101346000Y-73406000D03*
X104648000Y-74676000D03*
X89662000Y-109728000D03*
X100076000Y-109728000D03*
X114554000Y-110998000D03*
X81280000Y-119634000D03*
X81280000Y-102108000D03*
X93218000Y-94488000D03*
X95504000Y-96012000D03*
X102108000Y-92456000D03*
X97282000Y-88138000D03*
X92202000Y-88392000D03*
X88138000Y-84074000D03*
X90170000Y-73914000D03*
%TO.N,/CHIP_PU*%
X118580000Y-105918000D03*
%TO.N,/GPIO0_STRAPPING*%
X115570000Y-79756000D03*
X115062000Y-75692000D03*
%TO.N,/DTR*%
X113030000Y-75692000D03*
%TO.N,/GPIO3_STRAPPING*%
X107442000Y-97282000D03*
%TO.N,/CHIP_PU*%
X101600000Y-103331000D03*
%TO.N,/GPIO46_STRAPPING*%
X102870000Y-96012000D03*
%TO.N,/Trig*%
X93218000Y-86614000D03*
X96266000Y-83312000D03*
D31*
%TO.N,+3V3*%
X98552000Y-102416000D03*
D30*
%TO.N,/TX*%
X91186000Y-83566000D03*
%TO.N,/RX*%
X92456000Y-83566000D03*
%TO.N,/Trig*%
X92456000Y-97536000D03*
%TO.N,/GPIO0_STRAPPING*%
X103124000Y-83820000D03*
%TO.N,/ZMOD_SDA*%
X100330000Y-83312000D03*
%TO.N,/ZMOD_SCL*%
X98044000Y-83312000D03*
%TO.N,/CHIP_PU*%
X89916000Y-100584000D03*
%TO.N,/Echo*%
X93472000Y-96266000D03*
D31*
%TO.N,+3V3*%
X94488000Y-108458000D03*
D30*
%TO.N,GND*%
X92710000Y-112522000D03*
D31*
%TO.N,+3V3*%
X106680000Y-114047000D03*
D30*
%TO.N,/RTS*%
X104232000Y-104394000D03*
D31*
%TO.N,+3V3*%
X102108000Y-112268000D03*
D30*
%TO.N,GND*%
X95250000Y-120396000D03*
X103124000Y-121920000D03*
X102616000Y-115316000D03*
%TO.N,/DTR*%
X112799500Y-104394000D03*
%TO.N,GND*%
X111506000Y-116840000D03*
X114554000Y-122174000D03*
X138684000Y-114300000D03*
X123444000Y-114808000D03*
X128016000Y-74676000D03*
X138684000Y-101092000D03*
X121666000Y-109728000D03*
X122682000Y-91948000D03*
X139446000Y-84328000D03*
X116586000Y-74422000D03*
X103886000Y-71120000D03*
%TD*%
D32*
%TO.N,/RTS*%
X85598000Y-109474000D02*
X84582000Y-109474000D01*
X87303000Y-104067000D02*
X87303000Y-107769000D01*
X86421500Y-103185500D02*
X87303000Y-104067000D01*
X86421500Y-78932500D02*
X86421500Y-103185500D01*
X88470500Y-76883500D02*
X86421500Y-78932500D01*
X92559500Y-76883500D02*
X88470500Y-76883500D01*
X87303000Y-107769000D02*
X85598000Y-109474000D01*
%TO.N,/CHIP_PU*%
X103378000Y-105109000D02*
X103909500Y-105640500D01*
X115645800Y-101675800D02*
X105742461Y-101675800D01*
X118580000Y-104610000D02*
X115645800Y-101675800D01*
X103378000Y-104040261D02*
X103378000Y-105109000D01*
X118580000Y-105918000D02*
X118580000Y-104610000D01*
X105742461Y-101675800D02*
X103378000Y-104040261D01*
D33*
%TO.N,+3V3*%
X88590000Y-101544000D02*
X88590000Y-99047000D01*
X89408000Y-102362000D02*
X88590000Y-101544000D01*
X93853000Y-102743000D02*
X93472000Y-102362000D01*
X94615000Y-102743000D02*
X93853000Y-102743000D01*
X93472000Y-102362000D02*
X89408000Y-102362000D01*
D32*
%TO.N,/A0*%
X94940000Y-99878800D02*
X94940000Y-99047000D01*
X115968536Y-100967800D02*
X96029000Y-100967800D01*
X119434000Y-104433264D02*
X115968536Y-100967800D01*
X119434000Y-106626000D02*
X119434000Y-104433264D01*
X117628000Y-108432000D02*
X119434000Y-106626000D01*
X106706000Y-108432000D02*
X117628000Y-108432000D01*
X96029000Y-100967800D02*
X94940000Y-99878800D01*
X106275500Y-108862500D02*
X106706000Y-108432000D01*
X106275500Y-109728000D02*
X106275500Y-108862500D01*
%TO.N,/S*%
X96591000Y-100259800D02*
X96210000Y-99878800D01*
X96210000Y-99878800D02*
X96210000Y-99047000D01*
X116261800Y-100259800D02*
X96591000Y-100259800D01*
X120142000Y-119634000D02*
X120142000Y-104140000D01*
X129286000Y-128778000D02*
X120142000Y-119634000D01*
X120142000Y-104140000D02*
X116261800Y-100259800D01*
%TO.N,/GPIO0_STRAPPING*%
X116378186Y-79756000D02*
X116632186Y-79502000D01*
X115570000Y-79756000D02*
X116378186Y-79756000D01*
X114208000Y-74838000D02*
X115062000Y-75692000D01*
X106334000Y-74838000D02*
X114208000Y-74838000D01*
X102610500Y-71114500D02*
X106334000Y-74838000D01*
X97693500Y-71114500D02*
X102610500Y-71114500D01*
X97639500Y-71168500D02*
X97693500Y-71114500D01*
%TO.N,/DTR*%
X100693500Y-75692000D02*
X113030000Y-75692000D01*
X99502000Y-76883500D02*
X100693500Y-75692000D01*
D33*
%TO.N,+3V3*%
X94615000Y-102743000D02*
X94234000Y-103124000D01*
X94942000Y-102416000D02*
X94615000Y-102743000D01*
X94234000Y-108204000D02*
X94488000Y-108458000D01*
X98552000Y-102416000D02*
X94942000Y-102416000D01*
X94234000Y-103124000D02*
X94234000Y-108204000D01*
D32*
%TO.N,/CHIP_PU*%
X101600000Y-103331000D02*
X103909500Y-105640500D01*
%TO.N,/GPIO3_STRAPPING*%
X107442000Y-97282000D02*
X105080000Y-97282000D01*
%TO.N,/GPIO0_STRAPPING*%
X116632186Y-79502000D02*
X105875000Y-79502000D01*
X105875000Y-79502000D02*
X103830000Y-81547000D01*
X126782000Y-95302000D02*
X126782000Y-89651814D01*
X126782000Y-89651814D02*
X116632186Y-79502000D01*
D34*
%TO.N,/ZMOD_SCL*%
X98750000Y-81082000D02*
X98750000Y-81547000D01*
X102273000Y-77559000D02*
X98750000Y-81082000D01*
X117437000Y-77559000D02*
X102273000Y-77559000D01*
X129540000Y-115301895D02*
X129540000Y-89662000D01*
X131930000Y-117691895D02*
X129540000Y-115301895D01*
X129540000Y-89662000D02*
X117437000Y-77559000D01*
X131930000Y-119969052D02*
X131930000Y-117691895D01*
X131541052Y-120358000D02*
X131930000Y-119969052D01*
X130870000Y-120358000D02*
X131541052Y-120358000D01*
%TO.N,/ZMOD_SDA*%
X100020000Y-80840134D02*
X100020000Y-81547000D01*
X129032000Y-89796052D02*
X117248948Y-78013000D01*
X102847134Y-78013000D02*
X100020000Y-80840134D01*
X129032000Y-115435948D02*
X129032000Y-89796052D01*
X131476000Y-117879948D02*
X129032000Y-115435948D01*
X131476000Y-119781000D02*
X131476000Y-117879948D01*
X131399000Y-119858000D02*
X131476000Y-119781000D01*
X130870000Y-119858000D02*
X131399000Y-119858000D01*
X117248948Y-78013000D02*
X102847134Y-78013000D01*
%TO.N,/ZMOD_INT*%
X103366700Y-78467000D02*
X101290000Y-80543700D01*
X117060896Y-78467000D02*
X103366700Y-78467000D01*
X101290000Y-80543700D02*
X101290000Y-81547000D01*
X128578000Y-115624000D02*
X128578000Y-89984104D01*
X131022000Y-118068000D02*
X128578000Y-115624000D01*
X130870000Y-119358000D02*
X131022000Y-119206000D01*
X131022000Y-119206000D02*
X131022000Y-118068000D01*
X128578000Y-89984104D02*
X117060896Y-78467000D01*
%TO.N,/ZMOD_RES_N*%
X128124000Y-116440000D02*
X129116000Y-117432000D01*
X128124000Y-90172156D02*
X128124000Y-116440000D01*
X116872844Y-78921000D02*
X128124000Y-90172156D01*
X104182700Y-78921000D02*
X116872844Y-78921000D01*
X129116000Y-117432000D02*
X129116000Y-120704000D01*
X102560000Y-80543700D02*
X104182700Y-78921000D01*
X129116000Y-120704000D02*
X129570000Y-121158000D01*
X102560000Y-81547000D02*
X102560000Y-80543700D01*
D32*
%TO.N,/GPIO46_STRAPPING*%
X102870000Y-96012000D02*
X105080000Y-96012000D01*
%TO.N,/Trig*%
X96266000Y-83566000D02*
X96266000Y-83312000D01*
X93218000Y-86614000D02*
X96266000Y-83566000D01*
%TO.N,/TX*%
X91186000Y-81603000D02*
X91130000Y-81547000D01*
X91186000Y-83566000D02*
X91186000Y-81603000D01*
%TO.N,/RX*%
X92456000Y-81603000D02*
X92400000Y-81547000D01*
X92456000Y-83566000D02*
X92456000Y-81603000D01*
%TO.N,/Trig*%
X92456000Y-98991000D02*
X92400000Y-99047000D01*
X92456000Y-97536000D02*
X92456000Y-98991000D01*
%TO.N,/GPIO0_STRAPPING*%
X103830000Y-83114000D02*
X103830000Y-81547000D01*
X103124000Y-83820000D02*
X103830000Y-83114000D01*
%TO.N,/ZMOD_SDA*%
X100330000Y-83312000D02*
X100330000Y-81857000D01*
X100330000Y-81857000D02*
X100020000Y-81547000D01*
%TO.N,/ZMOD_SCL*%
X98044000Y-83312000D02*
X98750000Y-82606000D01*
X98750000Y-82606000D02*
X98750000Y-81547000D01*
%TO.N,/CHIP_PU*%
X89916000Y-99103000D02*
X89860000Y-99047000D01*
X89916000Y-100584000D02*
X89916000Y-99103000D01*
%TO.N,/Echo*%
X93472000Y-98849000D02*
X93670000Y-99047000D01*
X93472000Y-96266000D02*
X93472000Y-98849000D01*
D33*
%TO.N,+3V3*%
X92164000Y-108458000D02*
X92150000Y-108472000D01*
X94488000Y-108458000D02*
X92164000Y-108458000D01*
%TO.N,+5V*%
X89930000Y-103872000D02*
X88138000Y-105664000D01*
X88138000Y-119380000D02*
X95250000Y-126492000D01*
X92150000Y-103872000D02*
X89930000Y-103872000D01*
X88138000Y-105664000D02*
X88138000Y-119380000D01*
%TO.N,+3V3*%
X102108000Y-112268000D02*
X102507000Y-111869000D01*
X102507000Y-111869000D02*
X105607079Y-111869000D01*
X105607079Y-111869000D02*
X106680000Y-112941921D01*
X106680000Y-112941921D02*
X106680000Y-114047000D01*
D32*
%TO.N,Net-(MQ135-Pin_4)*%
X102870000Y-126492000D02*
X107997000Y-121365000D01*
X107997000Y-109831500D02*
X108100500Y-109728000D01*
%TO.N,Net-(Q1-B)*%
X109292000Y-107503000D02*
X112762000Y-107503000D01*
%TO.N,Net-(MQ135-Pin_4)*%
X107997000Y-121365000D02*
X107997000Y-109831500D01*
%TO.N,/RTS*%
X108083000Y-104394000D02*
X104232000Y-104394000D01*
X109292000Y-105603000D02*
X108083000Y-104394000D01*
%TO.N,Net-(Q1-C)*%
X106504500Y-107465500D02*
X107417000Y-106553000D01*
X103909500Y-107465500D02*
X106504500Y-107465500D01*
%TO.N,Net-(Q1-B)*%
X112762000Y-107503000D02*
X112799500Y-107465500D01*
%TO.N,/DTR*%
X112799500Y-104394000D02*
X112799500Y-105640500D01*
%TO.N,/CHIP_PU*%
X126782000Y-106732000D02*
X126782000Y-113232000D01*
D34*
%TO.N,GND*%
X127022000Y-119358000D02*
X127000000Y-119380000D01*
X128570000Y-118558000D02*
X127702000Y-118558000D01*
X128570000Y-118156000D02*
X128143000Y-117729000D01*
X128270000Y-120396000D02*
X127508000Y-121158000D01*
X128270000Y-119358000D02*
X128270000Y-118858000D01*
X128270000Y-119358000D02*
X127022000Y-119358000D01*
X117310000Y-127800000D02*
X117348000Y-127762000D01*
X117300000Y-127800000D02*
X117310000Y-127800000D01*
X128270000Y-120358000D02*
X127216000Y-120358000D01*
X128270000Y-118858000D02*
X128570000Y-118558000D01*
D35*
X117300000Y-127800000D02*
X117300000Y-126238000D01*
D34*
X127702000Y-118558000D02*
X127508000Y-118364000D01*
X127216000Y-120358000D02*
X127000000Y-120142000D01*
X128570000Y-118558000D02*
X128570000Y-118156000D01*
X128270000Y-120358000D02*
X128270000Y-120396000D01*
D32*
%TO.N,/GPIO0_STRAPPING*%
X97639500Y-71168500D02*
X98552000Y-70256000D01*
X126782000Y-95302000D02*
X126782000Y-101802000D01*
X94422000Y-71168500D02*
X97639500Y-71168500D01*
D34*
%TO.N,+3V3*%
X130570000Y-121158000D02*
X130570000Y-123158000D01*
X131087000Y-123675000D02*
X131826000Y-124414000D01*
X129570000Y-118558000D02*
X129570000Y-120158000D01*
X129570000Y-120158000D02*
X130570000Y-121158000D01*
X130570000Y-123158000D02*
X131087000Y-123675000D01*
X131826000Y-124414000D02*
X131826000Y-128778000D01*
X128570000Y-121158000D02*
X131087000Y-123675000D01*
D33*
%TO.N,+5V*%
X106963000Y-129794000D02*
X108995000Y-127762000D01*
X95250000Y-128270000D02*
X96774000Y-129794000D01*
X108995000Y-127762000D02*
X114357000Y-127762000D01*
X114357000Y-127762000D02*
X114518000Y-127923000D01*
X96774000Y-129794000D02*
X106963000Y-129794000D01*
X95250000Y-126492000D02*
X95250000Y-128270000D01*
D32*
%TO.N,/RTS*%
X92710000Y-77034000D02*
X92559500Y-76883500D01*
%TO.N,Net-(Q2-B)*%
X97602000Y-76883500D02*
X94384500Y-76883500D01*
%TO.N,Net-(Q2-C)*%
X98552000Y-72081000D02*
X98552000Y-75008500D01*
%TD*%
%TA.AperFunction,Conductor*%
%TO.N,GND*%
G36*
X144441621Y-68020502D02*
G01*
X144488114Y-68074158D01*
X144499500Y-68126500D01*
X144499500Y-132873500D01*
X144479498Y-132941621D01*
X144425842Y-132988114D01*
X144373500Y-132999500D01*
X121626500Y-132999500D01*
X121558379Y-132979498D01*
X121511886Y-132925842D01*
X121500500Y-132873500D01*
X121500500Y-132125157D01*
X121500528Y-132125014D01*
X121500524Y-132125014D01*
X121500539Y-132100002D01*
X121500541Y-132100000D01*
X121500383Y-132099617D01*
X121500381Y-132099616D01*
X121500380Y-132099615D01*
X121500305Y-132099584D01*
X121500096Y-132099498D01*
X121500002Y-132099459D01*
X121475048Y-132099459D01*
X121474842Y-132099500D01*
X121412366Y-132099500D01*
X121344245Y-132079498D01*
X121297752Y-132025842D01*
X121287648Y-131955568D01*
X121311498Y-131897991D01*
X121350444Y-131845965D01*
X121350444Y-131845964D01*
X121401494Y-131709093D01*
X121407999Y-131648597D01*
X121408000Y-131648585D01*
X121408000Y-130904000D01*
X110592000Y-130904000D01*
X110592000Y-131648597D01*
X110598505Y-131709093D01*
X110649555Y-131845964D01*
X110649555Y-131845965D01*
X110688502Y-131897991D01*
X110713313Y-131964511D01*
X110698222Y-132033885D01*
X110648020Y-132084087D01*
X110587634Y-132099500D01*
X110525158Y-132099500D01*
X110524952Y-132099459D01*
X110499998Y-132099459D01*
X110499901Y-132099499D01*
X110499696Y-132099584D01*
X110499618Y-132099615D01*
X110499617Y-132099617D01*
X110499459Y-132100000D01*
X110499476Y-132125014D01*
X110499471Y-132125014D01*
X110499500Y-132125157D01*
X110499500Y-132873500D01*
X110479498Y-132941621D01*
X110425842Y-132988114D01*
X110373500Y-132999500D01*
X79626500Y-132999500D01*
X79558379Y-132979498D01*
X79511886Y-132925842D01*
X79500500Y-132873500D01*
X79500500Y-128067765D01*
X82645788Y-128067765D01*
X82675412Y-128337014D01*
X82743928Y-128599090D01*
X82849869Y-128848389D01*
X82894923Y-128922211D01*
X82990982Y-129079610D01*
X83164255Y-129287820D01*
X83365998Y-129468582D01*
X83591910Y-129618044D01*
X83837176Y-129733020D01*
X84096569Y-129811060D01*
X84096572Y-129811060D01*
X84096574Y-129811061D01*
X84364557Y-129850500D01*
X84364561Y-129850500D01*
X84567631Y-129850500D01*
X84770156Y-129835677D01*
X84770160Y-129835676D01*
X84770161Y-129835676D01*
X84880665Y-129811060D01*
X85034553Y-129776780D01*
X85287558Y-129680014D01*
X85523777Y-129547441D01*
X85738177Y-129381888D01*
X85926186Y-129186881D01*
X86083799Y-128966579D01*
X86087979Y-128958450D01*
X86207656Y-128725675D01*
X86207657Y-128725672D01*
X86247392Y-128609201D01*
X86295118Y-128469305D01*
X86327628Y-128293300D01*
X86344318Y-128202941D01*
X86344319Y-128202930D01*
X86347984Y-128102637D01*
X86354212Y-127932235D01*
X86336922Y-127775094D01*
X86324587Y-127662985D01*
X86270747Y-127457044D01*
X86256072Y-127400912D01*
X86254666Y-127397604D01*
X86150130Y-127151610D01*
X86130087Y-127118768D01*
X86009018Y-126920390D01*
X85835745Y-126712180D01*
X85835741Y-126712177D01*
X85835740Y-126712175D01*
X85634012Y-126531427D01*
X85634002Y-126531418D01*
X85408090Y-126381956D01*
X85162824Y-126266980D01*
X84998815Y-126217637D01*
X84903425Y-126188938D01*
X84635442Y-126149500D01*
X84635439Y-126149500D01*
X84432369Y-126149500D01*
X84229839Y-126164323D01*
X84229838Y-126164323D01*
X83965456Y-126223217D01*
X83965441Y-126223222D01*
X83712441Y-126319986D01*
X83476229Y-126452555D01*
X83476225Y-126452557D01*
X83332045Y-126563889D01*
X83280225Y-126603903D01*
X83261818Y-126618116D01*
X83073815Y-126813117D01*
X83073810Y-126813123D01*
X82916203Y-127033417D01*
X82916196Y-127033427D01*
X82792343Y-127274324D01*
X82792342Y-127274327D01*
X82704883Y-127530689D01*
X82704880Y-127530702D01*
X82655681Y-127797058D01*
X82655680Y-127797069D01*
X82645788Y-128067765D01*
X79500500Y-128067765D01*
X79500500Y-100202000D01*
X79520502Y-100133879D01*
X79574158Y-100087386D01*
X79626500Y-100076000D01*
X85533000Y-100076000D01*
X85601121Y-100096002D01*
X85647614Y-100149658D01*
X85659000Y-100202000D01*
X85659000Y-103120771D01*
X85657670Y-103139030D01*
X85654134Y-103163168D01*
X85654134Y-103163173D01*
X85658521Y-103213317D01*
X85659000Y-103224297D01*
X85659000Y-103229920D01*
X85662655Y-103261196D01*
X85663027Y-103264837D01*
X85669668Y-103340736D01*
X85671152Y-103347923D01*
X85671093Y-103347935D01*
X85672751Y-103355416D01*
X85672810Y-103355403D01*
X85674502Y-103362543D01*
X85700570Y-103434166D01*
X85701772Y-103437626D01*
X85725734Y-103509938D01*
X85728835Y-103516588D01*
X85728780Y-103516613D01*
X85732119Y-103523510D01*
X85732173Y-103523483D01*
X85735464Y-103530037D01*
X85777350Y-103593722D01*
X85779307Y-103596792D01*
X85819312Y-103661649D01*
X85819313Y-103661650D01*
X85819315Y-103661653D01*
X85823862Y-103667403D01*
X85823813Y-103667441D01*
X85828653Y-103673381D01*
X85828699Y-103673343D01*
X85833413Y-103678961D01*
X85888838Y-103731252D01*
X85891467Y-103733805D01*
X86503595Y-104345932D01*
X86537620Y-104408245D01*
X86540500Y-104435028D01*
X86540500Y-107400971D01*
X86520498Y-107469092D01*
X86503595Y-107490066D01*
X86155095Y-107838566D01*
X86092783Y-107872592D01*
X86021968Y-107867527D01*
X85965132Y-107824980D01*
X85940321Y-107758460D01*
X85940000Y-107749471D01*
X85940000Y-107188000D01*
X85013116Y-107188000D01*
X85041493Y-107143844D01*
X85082000Y-107005889D01*
X85082000Y-106862111D01*
X85041493Y-106724156D01*
X85013116Y-106680000D01*
X85940000Y-106680000D01*
X85940000Y-106035414D01*
X85939999Y-106035402D01*
X85933494Y-105974906D01*
X85882444Y-105838035D01*
X85882444Y-105838034D01*
X85794904Y-105721095D01*
X85677965Y-105633555D01*
X85541093Y-105582505D01*
X85480597Y-105576000D01*
X84836000Y-105576000D01*
X84836000Y-106500325D01*
X84724315Y-106449320D01*
X84617763Y-106434000D01*
X84546237Y-106434000D01*
X84439685Y-106449320D01*
X84328000Y-106500325D01*
X84328000Y-105576000D01*
X83683402Y-105576000D01*
X83622906Y-105582505D01*
X83486035Y-105633555D01*
X83486034Y-105633555D01*
X83369095Y-105721095D01*
X83281555Y-105838034D01*
X83281555Y-105838035D01*
X83230505Y-105974906D01*
X83224000Y-106035402D01*
X83224000Y-106680000D01*
X84150884Y-106680000D01*
X84122507Y-106724156D01*
X84082000Y-106862111D01*
X84082000Y-107005889D01*
X84122507Y-107143844D01*
X84150884Y-107188000D01*
X83224000Y-107188000D01*
X83224000Y-107832597D01*
X83230505Y-107893093D01*
X83281555Y-108029964D01*
X83281555Y-108029965D01*
X83369095Y-108146904D01*
X83486034Y-108234444D01*
X83601172Y-108277388D01*
X83658008Y-108319935D01*
X83682819Y-108386455D01*
X83667728Y-108455829D01*
X83649841Y-108480782D01*
X83506280Y-108636729D01*
X83506275Y-108636734D01*
X83383141Y-108825206D01*
X83292703Y-109031386D01*
X83292702Y-109031387D01*
X83237437Y-109249624D01*
X83237436Y-109249630D01*
X83237436Y-109249632D01*
X83218844Y-109474000D01*
X83227129Y-109573989D01*
X83237437Y-109698375D01*
X83292702Y-109916612D01*
X83292703Y-109916613D01*
X83292704Y-109916616D01*
X83359218Y-110068253D01*
X83383141Y-110122793D01*
X83506275Y-110311265D01*
X83506279Y-110311270D01*
X83658762Y-110476908D01*
X83689379Y-110500738D01*
X83836424Y-110615189D01*
X83869680Y-110633186D01*
X83920071Y-110683200D01*
X83935423Y-110752516D01*
X83910862Y-110819129D01*
X83869680Y-110854813D01*
X83836426Y-110872810D01*
X83836424Y-110872811D01*
X83658762Y-111011091D01*
X83506279Y-111176729D01*
X83506275Y-111176734D01*
X83383141Y-111365206D01*
X83292703Y-111571386D01*
X83292702Y-111571387D01*
X83237437Y-111789624D01*
X83237436Y-111789630D01*
X83237436Y-111789632D01*
X83218844Y-112014000D01*
X83231110Y-112162031D01*
X83237437Y-112238375D01*
X83292702Y-112456612D01*
X83292703Y-112456613D01*
X83292704Y-112456616D01*
X83381426Y-112658883D01*
X83383141Y-112662793D01*
X83506275Y-112851265D01*
X83506279Y-112851270D01*
X83658762Y-113016908D01*
X83696249Y-113046085D01*
X83836424Y-113155189D01*
X83869680Y-113173186D01*
X83920071Y-113223200D01*
X83935423Y-113292516D01*
X83910862Y-113359129D01*
X83869680Y-113394813D01*
X83836426Y-113412810D01*
X83836424Y-113412811D01*
X83658762Y-113551091D01*
X83506279Y-113716729D01*
X83506275Y-113716734D01*
X83383141Y-113905206D01*
X83292703Y-114111386D01*
X83292702Y-114111387D01*
X83237437Y-114329624D01*
X83237436Y-114329630D01*
X83237436Y-114329632D01*
X83218844Y-114554000D01*
X83235973Y-114760718D01*
X83237437Y-114778375D01*
X83292702Y-114996612D01*
X83292703Y-114996613D01*
X83292704Y-114996616D01*
X83315591Y-115048793D01*
X83383141Y-115202793D01*
X83506275Y-115391265D01*
X83506279Y-115391270D01*
X83658762Y-115556908D01*
X83713331Y-115599381D01*
X83836424Y-115695189D01*
X83869680Y-115713186D01*
X83920071Y-115763200D01*
X83935423Y-115832516D01*
X83910862Y-115899129D01*
X83869680Y-115934813D01*
X83836426Y-115952810D01*
X83836424Y-115952811D01*
X83658762Y-116091091D01*
X83506279Y-116256729D01*
X83506275Y-116256734D01*
X83383141Y-116445206D01*
X83292703Y-116651386D01*
X83292702Y-116651387D01*
X83237437Y-116869624D01*
X83237436Y-116869630D01*
X83237436Y-116869632D01*
X83218844Y-117094000D01*
X83234663Y-117284907D01*
X83237437Y-117318375D01*
X83292702Y-117536612D01*
X83292703Y-117536613D01*
X83292704Y-117536616D01*
X83378182Y-117731488D01*
X83383141Y-117742793D01*
X83506275Y-117931265D01*
X83506279Y-117931270D01*
X83658762Y-118096908D01*
X83713331Y-118139381D01*
X83836424Y-118235189D01*
X83869680Y-118253186D01*
X83920071Y-118303200D01*
X83935423Y-118372516D01*
X83910862Y-118439129D01*
X83869680Y-118474813D01*
X83836426Y-118492810D01*
X83836424Y-118492811D01*
X83658762Y-118631091D01*
X83506279Y-118796729D01*
X83506275Y-118796734D01*
X83383141Y-118985206D01*
X83292703Y-119191386D01*
X83292702Y-119191387D01*
X83237437Y-119409624D01*
X83237436Y-119409630D01*
X83237436Y-119409632D01*
X83218844Y-119634000D01*
X83233514Y-119811043D01*
X83237437Y-119858375D01*
X83292702Y-120076612D01*
X83292703Y-120076613D01*
X83292704Y-120076616D01*
X83383140Y-120282791D01*
X83383141Y-120282793D01*
X83506275Y-120471265D01*
X83506279Y-120471270D01*
X83658762Y-120636908D01*
X83690738Y-120661796D01*
X83836424Y-120775189D01*
X84034426Y-120882342D01*
X84034427Y-120882342D01*
X84034428Y-120882343D01*
X84142128Y-120919316D01*
X84247365Y-120955444D01*
X84469431Y-120992500D01*
X84469435Y-120992500D01*
X84694565Y-120992500D01*
X84694569Y-120992500D01*
X84916635Y-120955444D01*
X85129574Y-120882342D01*
X85327576Y-120775189D01*
X85505240Y-120636906D01*
X85657722Y-120471268D01*
X85780860Y-120282791D01*
X85871296Y-120076616D01*
X85926564Y-119858368D01*
X85945156Y-119634000D01*
X85926564Y-119409632D01*
X85871296Y-119191384D01*
X85780860Y-118985209D01*
X85763977Y-118959367D01*
X85657724Y-118796734D01*
X85657720Y-118796729D01*
X85505237Y-118631091D01*
X85423382Y-118567381D01*
X85327576Y-118492811D01*
X85294319Y-118474813D01*
X85243929Y-118424802D01*
X85228576Y-118355485D01*
X85253136Y-118288872D01*
X85294320Y-118253186D01*
X85327576Y-118235189D01*
X85505240Y-118096906D01*
X85657722Y-117931268D01*
X85780860Y-117742791D01*
X85871296Y-117536616D01*
X85926564Y-117318368D01*
X85945156Y-117094000D01*
X85926564Y-116869632D01*
X85922605Y-116853997D01*
X85871297Y-116651387D01*
X85871296Y-116651386D01*
X85871296Y-116651384D01*
X85780860Y-116445209D01*
X85738074Y-116379720D01*
X85657724Y-116256734D01*
X85657720Y-116256729D01*
X85505237Y-116091091D01*
X85423382Y-116027381D01*
X85327576Y-115952811D01*
X85294319Y-115934813D01*
X85243929Y-115884802D01*
X85228576Y-115815485D01*
X85253136Y-115748872D01*
X85294320Y-115713186D01*
X85327576Y-115695189D01*
X85505240Y-115556906D01*
X85657722Y-115391268D01*
X85780860Y-115202791D01*
X85871296Y-114996616D01*
X85926564Y-114778368D01*
X85945156Y-114554000D01*
X85926564Y-114329632D01*
X85873837Y-114121417D01*
X85871297Y-114111387D01*
X85871296Y-114111386D01*
X85871296Y-114111384D01*
X85780860Y-113905209D01*
X85774140Y-113894924D01*
X85657724Y-113716734D01*
X85657720Y-113716729D01*
X85508633Y-113554780D01*
X85505240Y-113551094D01*
X85505239Y-113551093D01*
X85505237Y-113551091D01*
X85423382Y-113487381D01*
X85327576Y-113412811D01*
X85294319Y-113394813D01*
X85243929Y-113344802D01*
X85228576Y-113275485D01*
X85253136Y-113208872D01*
X85294320Y-113173186D01*
X85327576Y-113155189D01*
X85505240Y-113016906D01*
X85657722Y-112851268D01*
X85780860Y-112662791D01*
X85871296Y-112456616D01*
X85926564Y-112238368D01*
X85945156Y-112014000D01*
X85926564Y-111789632D01*
X85871296Y-111571384D01*
X85780860Y-111365209D01*
X85774140Y-111354924D01*
X85657724Y-111176734D01*
X85657720Y-111176729D01*
X85517771Y-111024706D01*
X85505240Y-111011094D01*
X85505239Y-111011093D01*
X85505237Y-111011091D01*
X85359337Y-110897532D01*
X85327576Y-110872811D01*
X85322592Y-110870114D01*
X85294320Y-110854814D01*
X85243929Y-110804802D01*
X85228576Y-110735485D01*
X85253136Y-110668872D01*
X85294320Y-110633186D01*
X85327576Y-110615189D01*
X85505240Y-110476906D01*
X85657722Y-110311268D01*
X85678678Y-110279190D01*
X85732680Y-110233101D01*
X85746421Y-110228667D01*
X85746249Y-110228148D01*
X85751650Y-110226357D01*
X85757825Y-110224987D01*
X85758718Y-110224700D01*
X85760464Y-110224340D01*
X85760476Y-110224400D01*
X85767914Y-110222751D01*
X85767900Y-110222690D01*
X85775029Y-110220999D01*
X85775042Y-110220998D01*
X85846682Y-110194922D01*
X85850074Y-110193743D01*
X85922440Y-110169765D01*
X85922443Y-110169762D01*
X85929090Y-110166664D01*
X85929116Y-110166720D01*
X85936003Y-110163386D01*
X85935976Y-110163331D01*
X85942534Y-110160036D01*
X85942534Y-110160035D01*
X85942539Y-110160034D01*
X86006245Y-110118132D01*
X86009264Y-110116209D01*
X86074149Y-110076188D01*
X86074150Y-110076187D01*
X86079909Y-110071634D01*
X86079947Y-110071682D01*
X86085874Y-110066855D01*
X86085834Y-110066807D01*
X86091452Y-110062091D01*
X86091462Y-110062085D01*
X86143820Y-110006587D01*
X86146272Y-110004063D01*
X87033408Y-109116927D01*
X87095717Y-109082905D01*
X87166533Y-109087970D01*
X87223368Y-109130517D01*
X87248179Y-109197037D01*
X87248500Y-109206026D01*
X87248500Y-119300074D01*
X87246949Y-119319784D01*
X87244825Y-119333190D01*
X87248327Y-119399998D01*
X87248500Y-119406593D01*
X87248500Y-119426623D01*
X87250593Y-119446534D01*
X87251110Y-119453112D01*
X87254610Y-119519908D01*
X87254611Y-119519919D01*
X87258125Y-119533033D01*
X87261726Y-119552463D01*
X87263144Y-119565957D01*
X87283818Y-119629582D01*
X87285691Y-119635906D01*
X87298676Y-119684367D01*
X87303006Y-119700524D01*
X87309165Y-119712613D01*
X87316729Y-119730872D01*
X87320925Y-119743785D01*
X87354385Y-119801739D01*
X87357523Y-119807520D01*
X87387891Y-119867123D01*
X87396430Y-119877667D01*
X87407629Y-119893961D01*
X87414415Y-119905715D01*
X87459182Y-119955434D01*
X87463460Y-119960444D01*
X87467242Y-119965113D01*
X87476064Y-119976007D01*
X87476069Y-119976013D01*
X87490210Y-119990154D01*
X87494751Y-119994938D01*
X87539530Y-120044669D01*
X87550509Y-120052646D01*
X87565545Y-120065488D01*
X93854595Y-126354538D01*
X93888621Y-126416850D01*
X93891500Y-126443633D01*
X93891500Y-127390649D01*
X93898009Y-127451196D01*
X93898011Y-127451204D01*
X93949110Y-127588202D01*
X93949112Y-127588207D01*
X94036738Y-127705261D01*
X94153791Y-127792886D01*
X94153792Y-127792886D01*
X94153796Y-127792889D01*
X94278535Y-127839414D01*
X94335368Y-127881960D01*
X94360179Y-127948481D01*
X94360500Y-127957469D01*
X94360500Y-128190074D01*
X94358949Y-128209784D01*
X94356825Y-128223190D01*
X94360327Y-128289998D01*
X94360500Y-128296593D01*
X94360500Y-128316623D01*
X94362593Y-128336534D01*
X94363110Y-128343112D01*
X94366610Y-128409908D01*
X94366611Y-128409919D01*
X94370125Y-128423033D01*
X94373726Y-128442463D01*
X94375144Y-128455957D01*
X94395818Y-128519582D01*
X94397691Y-128525906D01*
X94415006Y-128590524D01*
X94421165Y-128602613D01*
X94428729Y-128620872D01*
X94432925Y-128633785D01*
X94466385Y-128691739D01*
X94469523Y-128697520D01*
X94499891Y-128757123D01*
X94508430Y-128767667D01*
X94519629Y-128783961D01*
X94526415Y-128795715D01*
X94571182Y-128845434D01*
X94575465Y-128850449D01*
X94588064Y-128866007D01*
X94588069Y-128866013D01*
X94602210Y-128880154D01*
X94606751Y-128884938D01*
X94651530Y-128934669D01*
X94662509Y-128942646D01*
X94677545Y-128955488D01*
X96088508Y-130366450D01*
X96101349Y-130381484D01*
X96109332Y-130392472D01*
X96159060Y-130437246D01*
X96163829Y-130441771D01*
X96177992Y-130455934D01*
X96177999Y-130455941D01*
X96193548Y-130468532D01*
X96198544Y-130472798D01*
X96243721Y-130513476D01*
X96248286Y-130517586D01*
X96260037Y-130524370D01*
X96276327Y-130535565D01*
X96276338Y-130535573D01*
X96286879Y-130544109D01*
X96346479Y-130574476D01*
X96352245Y-130577606D01*
X96410215Y-130611075D01*
X96423122Y-130615268D01*
X96441385Y-130622834D01*
X96441393Y-130622838D01*
X96453475Y-130628994D01*
X96518134Y-130646319D01*
X96524386Y-130648171D01*
X96588044Y-130668855D01*
X96598189Y-130669921D01*
X96601530Y-130670272D01*
X96620977Y-130673876D01*
X96630367Y-130676392D01*
X96634084Y-130677388D01*
X96700890Y-130680888D01*
X96707452Y-130681404D01*
X96727380Y-130683500D01*
X96747413Y-130683500D01*
X96754005Y-130683672D01*
X96776495Y-130684851D01*
X96820807Y-130687174D01*
X96820807Y-130687173D01*
X96820809Y-130687174D01*
X96830573Y-130685627D01*
X96834214Y-130685051D01*
X96853924Y-130683500D01*
X106883075Y-130683500D01*
X106902785Y-130685050D01*
X106916190Y-130687174D01*
X106982999Y-130683672D01*
X106989593Y-130683500D01*
X107009612Y-130683500D01*
X107009620Y-130683500D01*
X107029578Y-130681401D01*
X107036041Y-130680892D01*
X107102915Y-130677389D01*
X107116020Y-130673876D01*
X107135471Y-130670272D01*
X107148956Y-130668855D01*
X107148958Y-130668854D01*
X107148960Y-130668854D01*
X107212573Y-130648184D01*
X107218902Y-130646309D01*
X107283520Y-130628995D01*
X107283519Y-130628995D01*
X107283524Y-130628994D01*
X107295613Y-130622833D01*
X107313877Y-130615268D01*
X107326785Y-130611075D01*
X107326788Y-130611073D01*
X107326789Y-130611073D01*
X107343329Y-130601522D01*
X107384729Y-130577619D01*
X107390489Y-130574491D01*
X107450125Y-130544107D01*
X107460671Y-130535565D01*
X107476959Y-130524371D01*
X107488715Y-130517585D01*
X107488718Y-130517581D01*
X107488720Y-130517581D01*
X107538427Y-130472824D01*
X107543434Y-130468545D01*
X107559006Y-130455937D01*
X107573178Y-130441763D01*
X107577949Y-130437237D01*
X107623749Y-130396000D01*
X110592000Y-130396000D01*
X111996000Y-130396000D01*
X111996000Y-129192000D01*
X111051402Y-129192000D01*
X110990906Y-129198505D01*
X110854035Y-129249555D01*
X110854034Y-129249555D01*
X110737095Y-129337095D01*
X110649555Y-129454034D01*
X110649555Y-129454035D01*
X110598505Y-129590906D01*
X110592000Y-129651402D01*
X110592000Y-130396000D01*
X107623749Y-130396000D01*
X107627664Y-130392475D01*
X107627665Y-130392473D01*
X107627669Y-130392470D01*
X107635654Y-130381478D01*
X107648477Y-130366464D01*
X109326540Y-128688402D01*
X109388850Y-128654379D01*
X109415633Y-128651500D01*
X113926305Y-128651500D01*
X113994426Y-128671502D01*
X114040919Y-128725158D01*
X114044356Y-128733457D01*
X114049111Y-128746204D01*
X114077376Y-128783961D01*
X114136738Y-128863261D01*
X114253792Y-128950887D01*
X114261701Y-128955205D01*
X114259929Y-128958450D01*
X114302721Y-128990469D01*
X114327547Y-129056983D01*
X114312471Y-129126361D01*
X114262280Y-129176574D01*
X114201870Y-129192000D01*
X113901402Y-129192000D01*
X113840905Y-129198505D01*
X113719032Y-129243961D01*
X113648216Y-129249025D01*
X113630968Y-129243961D01*
X113509094Y-129198505D01*
X113448597Y-129192000D01*
X112504000Y-129192000D01*
X112504000Y-130396000D01*
X119496000Y-130396000D01*
X119496000Y-129192000D01*
X120004000Y-129192000D01*
X120004000Y-130396000D01*
X121408000Y-130396000D01*
X121408000Y-129651414D01*
X121407999Y-129651402D01*
X121401494Y-129590906D01*
X121350444Y-129454035D01*
X121350444Y-129454034D01*
X121262904Y-129337095D01*
X121145965Y-129249555D01*
X121009093Y-129198505D01*
X120948597Y-129192000D01*
X120004000Y-129192000D01*
X119496000Y-129192000D01*
X118551402Y-129192000D01*
X118490905Y-129198505D01*
X118369032Y-129243961D01*
X118298216Y-129249025D01*
X118280968Y-129243961D01*
X118159094Y-129198505D01*
X118098597Y-129192000D01*
X117796701Y-129192000D01*
X117728580Y-129171998D01*
X117682087Y-129118342D01*
X117671983Y-129048068D01*
X117701477Y-128983488D01*
X117739373Y-128957173D01*
X117738057Y-128954762D01*
X117745965Y-128950444D01*
X117862904Y-128862904D01*
X117950444Y-128745965D01*
X117950444Y-128745964D01*
X118001494Y-128609093D01*
X118007999Y-128548597D01*
X118008000Y-128548585D01*
X118008000Y-128000000D01*
X117484500Y-128000000D01*
X117416379Y-127979998D01*
X117369886Y-127926342D01*
X117358500Y-127874000D01*
X117358500Y-127726000D01*
X117378502Y-127657879D01*
X117432158Y-127611386D01*
X117484500Y-127600000D01*
X118008000Y-127600000D01*
X118008000Y-127051414D01*
X118007999Y-127051402D01*
X118001494Y-126990906D01*
X117950444Y-126854035D01*
X117950444Y-126854034D01*
X117862904Y-126737095D01*
X117745965Y-126649555D01*
X117609093Y-126598505D01*
X117548597Y-126592000D01*
X117500000Y-126592000D01*
X117500000Y-126741207D01*
X117479998Y-126809328D01*
X117426342Y-126855821D01*
X117356068Y-126865925D01*
X117291488Y-126836431D01*
X117273132Y-126816716D01*
X117213262Y-126736740D01*
X117213259Y-126736738D01*
X117150490Y-126689749D01*
X117107944Y-126632913D01*
X117100686Y-126592685D01*
X117100001Y-126592000D01*
X117051415Y-126592000D01*
X117051394Y-126592001D01*
X116990818Y-126598513D01*
X116963884Y-126598513D01*
X116898652Y-126591501D01*
X116898643Y-126591500D01*
X116898638Y-126591500D01*
X116401362Y-126591500D01*
X116401350Y-126591500D01*
X116338468Y-126598261D01*
X116311532Y-126598261D01*
X116248649Y-126591500D01*
X116248638Y-126591500D01*
X115751362Y-126591500D01*
X115751350Y-126591500D01*
X115688468Y-126598261D01*
X115661532Y-126598261D01*
X115598649Y-126591500D01*
X115598638Y-126591500D01*
X115101362Y-126591500D01*
X115101350Y-126591500D01*
X115038468Y-126598261D01*
X115011532Y-126598261D01*
X114948649Y-126591500D01*
X114948638Y-126591500D01*
X114451362Y-126591500D01*
X114451350Y-126591500D01*
X114390803Y-126598009D01*
X114390795Y-126598011D01*
X114253797Y-126649110D01*
X114253792Y-126649112D01*
X114136738Y-126736738D01*
X114072906Y-126822009D01*
X114016070Y-126864556D01*
X113972038Y-126872500D01*
X109074925Y-126872500D01*
X109055214Y-126870949D01*
X109041805Y-126868825D01*
X108976850Y-126872230D01*
X108975000Y-126872327D01*
X108968407Y-126872500D01*
X108948372Y-126872500D01*
X108928462Y-126874593D01*
X108921886Y-126875110D01*
X108855087Y-126878610D01*
X108841968Y-126882125D01*
X108822538Y-126885726D01*
X108809042Y-126887144D01*
X108745426Y-126907815D01*
X108739104Y-126909688D01*
X108674476Y-126927006D01*
X108674475Y-126927006D01*
X108674473Y-126927007D01*
X108662381Y-126933168D01*
X108644120Y-126940731D01*
X108631217Y-126944923D01*
X108631213Y-126944925D01*
X108573275Y-126978375D01*
X108567481Y-126981521D01*
X108507874Y-127011893D01*
X108497331Y-127020431D01*
X108481042Y-127031626D01*
X108469292Y-127038410D01*
X108469281Y-127038418D01*
X108419575Y-127083172D01*
X108414569Y-127087448D01*
X108399000Y-127100057D01*
X108398991Y-127100065D01*
X108384822Y-127114233D01*
X108380043Y-127118768D01*
X108330330Y-127163530D01*
X108322346Y-127174518D01*
X108309511Y-127189544D01*
X106631460Y-128867596D01*
X106569150Y-128901620D01*
X106542367Y-128904500D01*
X97194632Y-128904500D01*
X97126511Y-128884498D01*
X97105541Y-128867599D01*
X96255137Y-128017195D01*
X96221114Y-127954885D01*
X96226179Y-127884069D01*
X96268726Y-127827234D01*
X96300196Y-127810049D01*
X96346204Y-127792889D01*
X96463261Y-127705261D01*
X96550889Y-127588204D01*
X96595196Y-127469413D01*
X96637741Y-127412581D01*
X96704262Y-127387770D01*
X96773636Y-127402862D01*
X96805952Y-127428112D01*
X96867097Y-127494534D01*
X97044698Y-127632767D01*
X97044699Y-127632768D01*
X97242628Y-127739882D01*
X97242630Y-127739883D01*
X97455483Y-127812955D01*
X97455492Y-127812957D01*
X97536000Y-127826391D01*
X97536000Y-126925674D01*
X97647685Y-126976680D01*
X97754237Y-126992000D01*
X97825763Y-126992000D01*
X97932315Y-126976680D01*
X98044000Y-126925674D01*
X98044000Y-127826390D01*
X98124507Y-127812957D01*
X98124516Y-127812955D01*
X98337369Y-127739883D01*
X98337371Y-127739882D01*
X98535300Y-127632768D01*
X98535301Y-127632767D01*
X98712902Y-127494534D01*
X98865327Y-127328955D01*
X98954217Y-127192899D01*
X99008220Y-127146810D01*
X99078568Y-127137235D01*
X99142925Y-127167212D01*
X99165183Y-127192898D01*
X99254279Y-127329270D01*
X99359406Y-127443466D01*
X99390377Y-127477110D01*
X99406762Y-127494908D01*
X99452733Y-127530689D01*
X99584424Y-127633189D01*
X99782426Y-127740342D01*
X99782427Y-127740342D01*
X99782428Y-127740343D01*
X99883646Y-127775091D01*
X99995365Y-127813444D01*
X100217431Y-127850500D01*
X100217435Y-127850500D01*
X100442565Y-127850500D01*
X100442569Y-127850500D01*
X100664635Y-127813444D01*
X100877574Y-127740342D01*
X101075576Y-127633189D01*
X101253240Y-127494906D01*
X101405722Y-127329268D01*
X101405927Y-127328955D01*
X101439016Y-127278308D01*
X101494518Y-127193354D01*
X101548520Y-127147268D01*
X101618868Y-127137692D01*
X101683225Y-127167669D01*
X101705480Y-127193353D01*
X101720274Y-127215996D01*
X101794275Y-127329265D01*
X101794279Y-127329270D01*
X101899406Y-127443466D01*
X101930377Y-127477110D01*
X101946762Y-127494908D01*
X101992733Y-127530689D01*
X102124424Y-127633189D01*
X102322426Y-127740342D01*
X102322427Y-127740342D01*
X102322428Y-127740343D01*
X102423646Y-127775091D01*
X102535365Y-127813444D01*
X102757431Y-127850500D01*
X102757435Y-127850500D01*
X102982565Y-127850500D01*
X102982569Y-127850500D01*
X103204635Y-127813444D01*
X103417574Y-127740342D01*
X103615576Y-127633189D01*
X103793240Y-127494906D01*
X103945722Y-127329268D01*
X103945927Y-127328955D01*
X103981618Y-127274325D01*
X104068860Y-127140791D01*
X104159296Y-126934616D01*
X104214564Y-126716368D01*
X104233156Y-126492000D01*
X104216183Y-126287175D01*
X104230492Y-126217637D01*
X104252655Y-126187680D01*
X108490401Y-121949935D01*
X108504240Y-121937975D01*
X108523822Y-121923398D01*
X108556177Y-121884836D01*
X108563596Y-121876740D01*
X108567573Y-121872765D01*
X108587149Y-121848004D01*
X108589395Y-121845249D01*
X108638396Y-121786853D01*
X108638396Y-121786851D01*
X108638399Y-121786849D01*
X108642430Y-121780720D01*
X108642483Y-121780755D01*
X108646595Y-121774300D01*
X108646541Y-121774267D01*
X108650389Y-121768027D01*
X108650395Y-121768020D01*
X108682620Y-121698909D01*
X108684172Y-121695704D01*
X108718394Y-121627566D01*
X108718395Y-121627563D01*
X108720907Y-121620663D01*
X108720965Y-121620684D01*
X108723477Y-121613455D01*
X108723417Y-121613435D01*
X108725720Y-121606482D01*
X108725725Y-121606473D01*
X108741147Y-121531776D01*
X108741919Y-121528300D01*
X108758901Y-121456649D01*
X108759500Y-121454123D01*
X108759500Y-121454115D01*
X108760352Y-121446834D01*
X108760412Y-121446841D01*
X108761189Y-121439229D01*
X108761129Y-121439224D01*
X108761767Y-121431916D01*
X108761769Y-121431909D01*
X108759553Y-121355745D01*
X108759500Y-121352081D01*
X108759500Y-110894940D01*
X108779502Y-110826819D01*
X108819355Y-110787698D01*
X108836652Y-110777030D01*
X108962030Y-110651652D01*
X109055115Y-110500738D01*
X109110887Y-110332426D01*
X109121500Y-110228545D01*
X109121499Y-109320499D01*
X109141501Y-109252379D01*
X109195157Y-109205886D01*
X109247499Y-109194500D01*
X117563272Y-109194500D01*
X117581532Y-109195830D01*
X117583741Y-109196153D01*
X117605672Y-109199366D01*
X117651976Y-109195314D01*
X117655817Y-109194979D01*
X117666797Y-109194500D01*
X117672413Y-109194500D01*
X117686331Y-109192872D01*
X117703688Y-109190843D01*
X117707328Y-109190472D01*
X117783240Y-109183831D01*
X117783246Y-109183828D01*
X117790425Y-109182347D01*
X117790437Y-109182407D01*
X117797914Y-109180749D01*
X117797900Y-109180690D01*
X117805029Y-109178999D01*
X117805042Y-109178998D01*
X117876682Y-109152922D01*
X117880074Y-109151743D01*
X117952440Y-109127765D01*
X117952443Y-109127762D01*
X117959090Y-109124664D01*
X117959116Y-109124720D01*
X117966003Y-109121386D01*
X117965976Y-109121331D01*
X117972534Y-109118036D01*
X117972534Y-109118035D01*
X117972539Y-109118034D01*
X118036245Y-109076132D01*
X118039264Y-109074209D01*
X118104149Y-109034188D01*
X118104150Y-109034187D01*
X118109909Y-109029634D01*
X118109947Y-109029682D01*
X118115874Y-109024855D01*
X118115834Y-109024807D01*
X118121452Y-109020091D01*
X118121462Y-109020085D01*
X118173819Y-108964588D01*
X118176306Y-108962029D01*
X119164406Y-107973930D01*
X119226717Y-107939905D01*
X119297533Y-107944970D01*
X119354368Y-107987517D01*
X119379179Y-108054037D01*
X119379500Y-108063026D01*
X119379500Y-119569271D01*
X119378170Y-119587530D01*
X119374634Y-119611668D01*
X119374634Y-119611673D01*
X119379021Y-119661817D01*
X119379500Y-119672797D01*
X119379500Y-119678420D01*
X119383155Y-119709696D01*
X119383527Y-119713337D01*
X119390168Y-119789236D01*
X119391652Y-119796423D01*
X119391593Y-119796435D01*
X119393251Y-119803916D01*
X119393310Y-119803903D01*
X119395002Y-119811043D01*
X119421070Y-119882666D01*
X119422272Y-119886126D01*
X119446234Y-119958438D01*
X119449335Y-119965088D01*
X119449280Y-119965113D01*
X119452619Y-119972010D01*
X119452673Y-119971983D01*
X119455964Y-119978537D01*
X119497850Y-120042222D01*
X119499807Y-120045292D01*
X119539812Y-120110149D01*
X119539813Y-120110150D01*
X119539815Y-120110153D01*
X119544362Y-120115903D01*
X119544314Y-120115940D01*
X119549154Y-120121881D01*
X119549200Y-120121843D01*
X119553915Y-120127462D01*
X119609375Y-120179787D01*
X119612003Y-120182340D01*
X126645659Y-127215996D01*
X126679685Y-127278308D01*
X126674620Y-127349123D01*
X126632073Y-127405959D01*
X126577303Y-127429372D01*
X126411502Y-127457039D01*
X126411483Y-127457044D01*
X126198630Y-127530116D01*
X126198628Y-127530117D01*
X126000699Y-127637231D01*
X126000698Y-127637232D01*
X125823097Y-127775465D01*
X125670674Y-127941041D01*
X125547580Y-128129451D01*
X125457179Y-128335543D01*
X125457176Y-128335550D01*
X125409455Y-128523999D01*
X125409456Y-128524000D01*
X126314884Y-128524000D01*
X126286507Y-128568156D01*
X126246000Y-128706111D01*
X126246000Y-128849889D01*
X126286507Y-128987844D01*
X126314884Y-129032000D01*
X125409455Y-129032000D01*
X125457176Y-129220449D01*
X125457179Y-129220456D01*
X125547580Y-129426548D01*
X125670674Y-129614958D01*
X125823097Y-129780534D01*
X126000698Y-129918767D01*
X126000699Y-129918768D01*
X126198628Y-130025882D01*
X126198630Y-130025883D01*
X126411483Y-130098955D01*
X126411492Y-130098957D01*
X126492000Y-130112391D01*
X126492000Y-129211674D01*
X126603685Y-129262680D01*
X126710237Y-129278000D01*
X126781763Y-129278000D01*
X126888315Y-129262680D01*
X127000000Y-129211674D01*
X127000000Y-130112390D01*
X127080507Y-130098957D01*
X127080516Y-130098955D01*
X127293369Y-130025883D01*
X127293371Y-130025882D01*
X127491300Y-129918768D01*
X127491301Y-129918767D01*
X127668902Y-129780534D01*
X127821327Y-129614955D01*
X127910217Y-129478899D01*
X127964220Y-129432810D01*
X128034568Y-129423235D01*
X128098925Y-129453212D01*
X128121183Y-129478898D01*
X128210279Y-129615270D01*
X128362762Y-129780908D01*
X128401501Y-129811060D01*
X128540424Y-129919189D01*
X128738426Y-130026342D01*
X128738427Y-130026342D01*
X128738428Y-130026343D01*
X128850227Y-130064723D01*
X128951365Y-130099444D01*
X129173431Y-130136500D01*
X129173435Y-130136500D01*
X129398565Y-130136500D01*
X129398569Y-130136500D01*
X129620635Y-130099444D01*
X129833574Y-130026342D01*
X130031576Y-129919189D01*
X130209240Y-129780906D01*
X130270245Y-129714637D01*
X130331096Y-129678067D01*
X130402061Y-129680200D01*
X130460606Y-129720362D01*
X130481000Y-129755941D01*
X130525111Y-129874204D01*
X130525112Y-129874207D01*
X130612738Y-129991261D01*
X130729792Y-130078887D01*
X130729794Y-130078888D01*
X130729796Y-130078889D01*
X130783600Y-130098957D01*
X130866795Y-130129988D01*
X130866803Y-130129990D01*
X130927350Y-130136499D01*
X130927355Y-130136499D01*
X130927362Y-130136500D01*
X130927368Y-130136500D01*
X132724632Y-130136500D01*
X132724638Y-130136500D01*
X132724645Y-130136499D01*
X132724649Y-130136499D01*
X132785196Y-130129990D01*
X132785199Y-130129989D01*
X132785201Y-130129989D01*
X132922204Y-130078889D01*
X132992399Y-130026342D01*
X133039261Y-129991261D01*
X133126887Y-129874207D01*
X133126887Y-129874206D01*
X133126889Y-129874204D01*
X133177989Y-129737201D01*
X133178439Y-129733020D01*
X133184499Y-129676649D01*
X133184500Y-129676632D01*
X133184500Y-128067765D01*
X137645788Y-128067765D01*
X137675412Y-128337014D01*
X137743928Y-128599090D01*
X137849869Y-128848389D01*
X137894923Y-128922211D01*
X137990982Y-129079610D01*
X138164255Y-129287820D01*
X138365998Y-129468582D01*
X138591910Y-129618044D01*
X138837176Y-129733020D01*
X139096569Y-129811060D01*
X139096572Y-129811060D01*
X139096574Y-129811061D01*
X139364557Y-129850500D01*
X139364561Y-129850500D01*
X139567631Y-129850500D01*
X139770156Y-129835677D01*
X139770160Y-129835676D01*
X139770161Y-129835676D01*
X139880665Y-129811060D01*
X140034553Y-129776780D01*
X140287558Y-129680014D01*
X140523777Y-129547441D01*
X140738177Y-129381888D01*
X140926186Y-129186881D01*
X141083799Y-128966579D01*
X141087979Y-128958450D01*
X141207656Y-128725675D01*
X141207657Y-128725672D01*
X141247392Y-128609201D01*
X141295118Y-128469305D01*
X141327628Y-128293300D01*
X141344318Y-128202941D01*
X141344319Y-128202930D01*
X141347984Y-128102637D01*
X141354212Y-127932235D01*
X141336922Y-127775094D01*
X141324587Y-127662985D01*
X141270747Y-127457044D01*
X141256072Y-127400912D01*
X141254666Y-127397604D01*
X141150130Y-127151610D01*
X141130087Y-127118768D01*
X141009018Y-126920390D01*
X140835745Y-126712180D01*
X140835741Y-126712177D01*
X140835740Y-126712175D01*
X140634012Y-126531427D01*
X140634002Y-126531418D01*
X140408090Y-126381956D01*
X140162824Y-126266980D01*
X139998815Y-126217637D01*
X139903425Y-126188938D01*
X139635442Y-126149500D01*
X139635439Y-126149500D01*
X139432369Y-126149500D01*
X139229839Y-126164323D01*
X139229838Y-126164323D01*
X138965456Y-126223217D01*
X138965441Y-126223222D01*
X138712441Y-126319986D01*
X138476229Y-126452555D01*
X138476225Y-126452557D01*
X138332045Y-126563889D01*
X138280225Y-126603903D01*
X138261818Y-126618116D01*
X138073815Y-126813117D01*
X138073810Y-126813123D01*
X137916203Y-127033417D01*
X137916196Y-127033427D01*
X137792343Y-127274324D01*
X137792342Y-127274327D01*
X137704883Y-127530689D01*
X137704880Y-127530702D01*
X137655681Y-127797058D01*
X137655680Y-127797069D01*
X137645788Y-128067765D01*
X133184500Y-128067765D01*
X133184500Y-127879367D01*
X133184499Y-127879350D01*
X133177990Y-127818803D01*
X133177988Y-127818795D01*
X133126889Y-127681797D01*
X133126887Y-127681792D01*
X133039261Y-127564738D01*
X132922207Y-127477112D01*
X132922202Y-127477110D01*
X132785204Y-127426011D01*
X132785196Y-127426009D01*
X132724649Y-127419500D01*
X132724638Y-127419500D01*
X132587500Y-127419500D01*
X132519379Y-127399498D01*
X132472886Y-127345842D01*
X132461500Y-127293500D01*
X132461500Y-124498075D01*
X132463252Y-124482202D01*
X132462963Y-124482175D01*
X132463709Y-124474282D01*
X132461562Y-124405968D01*
X132461500Y-124402010D01*
X132461500Y-124374020D01*
X132461500Y-124374017D01*
X132460991Y-124369994D01*
X132460058Y-124358148D01*
X132458665Y-124313795D01*
X132452984Y-124294243D01*
X132448977Y-124274895D01*
X132446427Y-124254701D01*
X132430084Y-124213425D01*
X132426251Y-124202227D01*
X132413869Y-124159607D01*
X132403507Y-124142087D01*
X132394809Y-124124331D01*
X132387319Y-124105412D01*
X132361230Y-124069504D01*
X132354717Y-124059588D01*
X132332134Y-124021402D01*
X132332131Y-124021398D01*
X132317749Y-124007016D01*
X132304908Y-123991983D01*
X132292940Y-123975510D01*
X132258750Y-123947227D01*
X132249969Y-123939236D01*
X131242405Y-122931672D01*
X131208379Y-122869360D01*
X131205500Y-122842577D01*
X131205500Y-121242075D01*
X131207252Y-121226202D01*
X131206963Y-121226175D01*
X131207709Y-121218282D01*
X131205562Y-121149969D01*
X131205500Y-121146011D01*
X131205500Y-121119500D01*
X131225502Y-121051379D01*
X131279158Y-121004886D01*
X131331500Y-120993500D01*
X131456982Y-120993500D01*
X131472850Y-120995252D01*
X131472878Y-120994962D01*
X131480770Y-120995708D01*
X131480770Y-120995707D01*
X131480771Y-120995708D01*
X131549064Y-120993562D01*
X131553021Y-120993500D01*
X131581035Y-120993500D01*
X131585065Y-120992990D01*
X131596903Y-120992058D01*
X131641257Y-120990665D01*
X131660803Y-120984985D01*
X131680154Y-120980978D01*
X131700351Y-120978427D01*
X131741607Y-120962092D01*
X131752830Y-120958249D01*
X131795445Y-120945869D01*
X131812959Y-120935510D01*
X131830708Y-120926814D01*
X131849640Y-120919319D01*
X131885546Y-120893230D01*
X131895446Y-120886727D01*
X131933650Y-120864134D01*
X131948036Y-120849747D01*
X131963070Y-120836906D01*
X131979539Y-120824942D01*
X132007834Y-120790737D01*
X132015804Y-120781978D01*
X132319920Y-120477863D01*
X132332378Y-120467884D01*
X132332192Y-120467660D01*
X132338298Y-120462607D01*
X132338303Y-120462605D01*
X132385103Y-120412766D01*
X132387794Y-120409989D01*
X132407639Y-120390146D01*
X132410131Y-120386932D01*
X132417839Y-120377905D01*
X132448217Y-120345558D01*
X132458025Y-120327715D01*
X132468868Y-120311208D01*
X132481350Y-120295118D01*
X132498977Y-120254381D01*
X132504188Y-120243745D01*
X132525569Y-120204855D01*
X132530631Y-120185136D01*
X132537029Y-120166445D01*
X132545117Y-120147759D01*
X132552057Y-120103937D01*
X132554465Y-120092308D01*
X132565500Y-120049334D01*
X132565500Y-120028985D01*
X132567051Y-120009274D01*
X132570235Y-119989172D01*
X132566059Y-119944995D01*
X132565500Y-119933137D01*
X132565500Y-117775964D01*
X132567252Y-117760096D01*
X132566962Y-117760069D01*
X132567708Y-117752176D01*
X132565562Y-117683895D01*
X132565500Y-117679937D01*
X132565500Y-117651912D01*
X132565499Y-117651904D01*
X132564990Y-117647874D01*
X132564057Y-117636029D01*
X132562664Y-117591690D01*
X132556987Y-117572149D01*
X132552978Y-117552792D01*
X132550427Y-117532596D01*
X132550426Y-117532594D01*
X132550426Y-117532592D01*
X132534088Y-117491328D01*
X132530242Y-117480095D01*
X132517868Y-117437502D01*
X132507505Y-117419980D01*
X132498810Y-117402229D01*
X132491320Y-117383309D01*
X132491319Y-117383308D01*
X132491319Y-117383307D01*
X132465234Y-117347404D01*
X132458720Y-117337487D01*
X132436135Y-117299296D01*
X132421746Y-117284907D01*
X132408905Y-117269873D01*
X132396942Y-117253408D01*
X132396941Y-117253406D01*
X132362750Y-117225122D01*
X132353969Y-117217131D01*
X130212405Y-115075567D01*
X130178379Y-115013255D01*
X130175500Y-114986472D01*
X130175500Y-114543425D01*
X130195502Y-114475304D01*
X130249158Y-114428811D01*
X130319432Y-114418707D01*
X130383333Y-114447616D01*
X130392879Y-114455769D01*
X130595266Y-114579793D01*
X130814562Y-114670628D01*
X131045367Y-114726039D01*
X131282000Y-114744662D01*
X131518632Y-114726039D01*
X131749437Y-114670628D01*
X131968738Y-114579791D01*
X132155890Y-114465102D01*
X132155891Y-114465101D01*
X131449624Y-113758834D01*
X131570458Y-113706349D01*
X131687739Y-113610934D01*
X131774928Y-113487415D01*
X131806838Y-113397627D01*
X132515102Y-114105891D01*
X132515102Y-114105890D01*
X132629791Y-113918738D01*
X132720628Y-113699437D01*
X132776039Y-113468632D01*
X132794662Y-113232000D01*
X132776039Y-112995367D01*
X132720628Y-112764562D01*
X132629791Y-112545261D01*
X132515102Y-112358108D01*
X132515101Y-112358107D01*
X131808902Y-113064306D01*
X131805116Y-113046085D01*
X131735558Y-112911844D01*
X131632362Y-112801348D01*
X131503181Y-112722791D01*
X131447577Y-112707211D01*
X132155890Y-111998897D01*
X132155890Y-111998896D01*
X131968738Y-111884208D01*
X131749437Y-111793371D01*
X131518632Y-111737960D01*
X131282000Y-111719337D01*
X131045367Y-111737960D01*
X130814562Y-111793371D01*
X130595266Y-111884206D01*
X130392877Y-112008231D01*
X130392876Y-112008232D01*
X130383329Y-112016386D01*
X130318539Y-112045417D01*
X130248339Y-112034810D01*
X130195017Y-111987934D01*
X130175500Y-111920574D01*
X130175500Y-108043425D01*
X130195502Y-107975304D01*
X130249158Y-107928811D01*
X130319432Y-107918707D01*
X130383333Y-107947616D01*
X130392879Y-107955769D01*
X130595266Y-108079793D01*
X130814562Y-108170628D01*
X131045367Y-108226039D01*
X131282000Y-108244662D01*
X131518632Y-108226039D01*
X131749437Y-108170628D01*
X131968738Y-108079791D01*
X132155890Y-107965102D01*
X132155891Y-107965101D01*
X131449624Y-107258834D01*
X131570458Y-107206349D01*
X131687739Y-107110934D01*
X131774928Y-106987415D01*
X131806838Y-106897627D01*
X132515102Y-107605891D01*
X132515102Y-107605890D01*
X132629791Y-107418738D01*
X132720628Y-107199437D01*
X132776039Y-106968632D01*
X132794662Y-106732000D01*
X132776039Y-106495367D01*
X132720628Y-106264562D01*
X132629791Y-106045261D01*
X132515102Y-105858108D01*
X132515101Y-105858107D01*
X131808902Y-106564306D01*
X131805116Y-106546085D01*
X131735558Y-106411844D01*
X131632362Y-106301348D01*
X131503181Y-106222791D01*
X131447577Y-106207211D01*
X132155890Y-105498897D01*
X132155890Y-105498896D01*
X131968738Y-105384208D01*
X131749437Y-105293371D01*
X131518632Y-105237960D01*
X131282000Y-105219337D01*
X131045367Y-105237960D01*
X130814562Y-105293371D01*
X130595266Y-105384206D01*
X130392877Y-105508231D01*
X130392876Y-105508232D01*
X130383329Y-105516386D01*
X130318539Y-105545417D01*
X130248339Y-105534810D01*
X130195017Y-105487934D01*
X130175500Y-105420574D01*
X130175500Y-103113425D01*
X130195502Y-103045304D01*
X130249158Y-102998811D01*
X130319432Y-102988707D01*
X130383333Y-103017616D01*
X130392879Y-103025769D01*
X130595266Y-103149793D01*
X130814562Y-103240628D01*
X131045367Y-103296039D01*
X131282000Y-103314662D01*
X131518632Y-103296039D01*
X131749437Y-103240628D01*
X131968738Y-103149791D01*
X132155890Y-103035102D01*
X132155891Y-103035101D01*
X131449624Y-102328834D01*
X131570458Y-102276349D01*
X131687739Y-102180934D01*
X131774928Y-102057415D01*
X131806838Y-101967627D01*
X132515102Y-102675891D01*
X132515102Y-102675890D01*
X132629791Y-102488738D01*
X132720628Y-102269437D01*
X132776039Y-102038632D01*
X132794662Y-101802000D01*
X132776039Y-101565367D01*
X132720628Y-101334562D01*
X132629791Y-101115261D01*
X132515102Y-100928108D01*
X132515101Y-100928107D01*
X131808902Y-101634306D01*
X131805116Y-101616085D01*
X131735558Y-101481844D01*
X131632362Y-101371348D01*
X131503181Y-101292791D01*
X131447577Y-101277211D01*
X132155890Y-100568897D01*
X132155890Y-100568896D01*
X131968738Y-100454208D01*
X131749437Y-100363371D01*
X131518632Y-100307960D01*
X131282000Y-100289337D01*
X131045367Y-100307960D01*
X130814562Y-100363371D01*
X130595266Y-100454206D01*
X130392877Y-100578231D01*
X130392876Y-100578232D01*
X130383329Y-100586386D01*
X130318539Y-100615417D01*
X130248339Y-100604810D01*
X130195017Y-100557934D01*
X130175500Y-100490574D01*
X130175500Y-96613425D01*
X130195502Y-96545304D01*
X130249158Y-96498811D01*
X130319432Y-96488707D01*
X130383333Y-96517616D01*
X130392879Y-96525769D01*
X130595266Y-96649793D01*
X130814562Y-96740628D01*
X131045367Y-96796039D01*
X131282000Y-96814662D01*
X131518632Y-96796039D01*
X131749437Y-96740628D01*
X131968738Y-96649791D01*
X132155890Y-96535102D01*
X132155891Y-96535101D01*
X131449624Y-95828834D01*
X131570458Y-95776349D01*
X131687739Y-95680934D01*
X131774928Y-95557415D01*
X131806838Y-95467627D01*
X132515102Y-96175891D01*
X132515102Y-96175890D01*
X132629791Y-95988738D01*
X132720628Y-95769437D01*
X132776039Y-95538632D01*
X132794662Y-95302000D01*
X132776039Y-95065367D01*
X132720628Y-94834562D01*
X132629791Y-94615261D01*
X132515102Y-94428108D01*
X132515101Y-94428107D01*
X131808902Y-95134306D01*
X131805116Y-95116085D01*
X131735558Y-94981844D01*
X131632362Y-94871348D01*
X131503181Y-94792791D01*
X131447577Y-94777211D01*
X132155890Y-94068897D01*
X132155890Y-94068896D01*
X131968738Y-93954208D01*
X131749437Y-93863371D01*
X131518632Y-93807960D01*
X131282000Y-93789337D01*
X131045367Y-93807960D01*
X130814562Y-93863371D01*
X130595266Y-93954206D01*
X130392877Y-94078231D01*
X130392876Y-94078232D01*
X130383329Y-94086386D01*
X130318539Y-94115417D01*
X130248339Y-94104810D01*
X130195017Y-94057934D01*
X130175500Y-93990574D01*
X130175500Y-89746075D01*
X130177252Y-89730202D01*
X130176963Y-89730175D01*
X130177709Y-89722282D01*
X130175562Y-89653968D01*
X130175500Y-89650010D01*
X130175500Y-89622020D01*
X130175500Y-89622017D01*
X130174991Y-89617994D01*
X130174058Y-89606148D01*
X130173658Y-89593406D01*
X130172665Y-89561795D01*
X130166984Y-89542243D01*
X130162977Y-89522895D01*
X130160427Y-89502701D01*
X130144084Y-89461425D01*
X130140251Y-89450227D01*
X130127869Y-89407607D01*
X130117507Y-89390087D01*
X130108809Y-89372331D01*
X130101319Y-89353412D01*
X130075230Y-89317504D01*
X130068717Y-89307588D01*
X130046134Y-89269402D01*
X130046131Y-89269398D01*
X130031749Y-89255016D01*
X130018908Y-89239983D01*
X130006941Y-89223512D01*
X129972742Y-89195220D01*
X129963963Y-89187231D01*
X117945815Y-77169082D01*
X117935831Y-77156620D01*
X117935607Y-77156806D01*
X117930554Y-77150698D01*
X117916400Y-77137407D01*
X117880733Y-77103913D01*
X117877890Y-77101157D01*
X117858099Y-77081365D01*
X117858096Y-77081363D01*
X117858094Y-77081361D01*
X117854875Y-77078864D01*
X117845851Y-77071157D01*
X117813506Y-77040783D01*
X117813499Y-77040778D01*
X117795673Y-77030978D01*
X117779147Y-77020123D01*
X117763066Y-77007649D01*
X117722337Y-76990024D01*
X117711678Y-76984802D01*
X117672805Y-76963432D01*
X117672803Y-76963431D01*
X117653085Y-76958368D01*
X117634382Y-76951964D01*
X117615706Y-76943882D01*
X117571874Y-76936940D01*
X117560249Y-76934532D01*
X117517287Y-76923501D01*
X117517284Y-76923500D01*
X117517282Y-76923500D01*
X117517279Y-76923500D01*
X117496934Y-76923500D01*
X117477224Y-76921949D01*
X117457121Y-76918765D01*
X117457120Y-76918765D01*
X117430389Y-76921292D01*
X117412943Y-76922941D01*
X117401087Y-76923500D01*
X102357070Y-76923500D01*
X102341201Y-76921747D01*
X102341174Y-76922038D01*
X102333281Y-76921292D01*
X102309546Y-76922038D01*
X102265002Y-76923438D01*
X102261044Y-76923500D01*
X102233017Y-76923500D01*
X102231968Y-76923632D01*
X102228951Y-76924013D01*
X102217145Y-76924941D01*
X102172796Y-76926335D01*
X102172792Y-76926336D01*
X102153252Y-76932013D01*
X102133896Y-76936021D01*
X102113704Y-76938572D01*
X102113700Y-76938573D01*
X102072445Y-76954907D01*
X102061214Y-76958752D01*
X102018609Y-76971129D01*
X102018608Y-76971130D01*
X102001088Y-76981491D01*
X101983339Y-76990186D01*
X101964414Y-76997679D01*
X101928519Y-77023758D01*
X101918603Y-77030271D01*
X101880401Y-77052864D01*
X101866006Y-77067260D01*
X101850981Y-77080092D01*
X101834513Y-77092058D01*
X101834512Y-77092059D01*
X101806220Y-77126256D01*
X101798233Y-77135032D01*
X98680972Y-80252295D01*
X98618660Y-80286320D01*
X98591877Y-80289200D01*
X98256850Y-80289200D01*
X98196304Y-80295709D01*
X98196298Y-80295711D01*
X98159029Y-80309611D01*
X98088214Y-80314674D01*
X98070971Y-80309611D01*
X98033701Y-80295711D01*
X98033695Y-80295709D01*
X97973149Y-80289200D01*
X97973138Y-80289200D01*
X96986862Y-80289200D01*
X96986850Y-80289200D01*
X96926304Y-80295709D01*
X96926298Y-80295711D01*
X96889029Y-80309611D01*
X96818214Y-80314674D01*
X96800971Y-80309611D01*
X96763701Y-80295711D01*
X96763695Y-80295709D01*
X96703149Y-80289200D01*
X96703138Y-80289200D01*
X95716862Y-80289200D01*
X95716850Y-80289200D01*
X95656304Y-80295709D01*
X95656298Y-80295711D01*
X95619029Y-80309611D01*
X95548214Y-80314674D01*
X95530971Y-80309611D01*
X95493701Y-80295711D01*
X95493695Y-80295709D01*
X95433149Y-80289200D01*
X95433138Y-80289200D01*
X94446862Y-80289200D01*
X94446850Y-80289200D01*
X94386304Y-80295709D01*
X94386298Y-80295711D01*
X94349029Y-80309611D01*
X94278214Y-80314674D01*
X94260971Y-80309611D01*
X94223701Y-80295711D01*
X94223695Y-80295709D01*
X94163149Y-80289200D01*
X94163138Y-80289200D01*
X93176862Y-80289200D01*
X93176850Y-80289200D01*
X93116304Y-80295709D01*
X93116298Y-80295711D01*
X93079029Y-80309611D01*
X93008214Y-80314674D01*
X92990971Y-80309611D01*
X92953701Y-80295711D01*
X92953695Y-80295709D01*
X92893149Y-80289200D01*
X92893138Y-80289200D01*
X91906862Y-80289200D01*
X91906850Y-80289200D01*
X91846304Y-80295709D01*
X91846298Y-80295711D01*
X91809029Y-80309611D01*
X91738214Y-80314674D01*
X91720971Y-80309611D01*
X91683701Y-80295711D01*
X91683695Y-80295709D01*
X91623149Y-80289200D01*
X91623138Y-80289200D01*
X90636862Y-80289200D01*
X90636850Y-80289200D01*
X90576304Y-80295709D01*
X90576298Y-80295711D01*
X90539029Y-80309611D01*
X90468214Y-80314674D01*
X90450971Y-80309611D01*
X90413701Y-80295711D01*
X90413695Y-80295709D01*
X90353149Y-80289200D01*
X90353138Y-80289200D01*
X89366862Y-80289200D01*
X89366850Y-80289200D01*
X89306304Y-80295709D01*
X89306298Y-80295711D01*
X89269029Y-80309611D01*
X89198214Y-80314674D01*
X89180971Y-80309611D01*
X89143701Y-80295711D01*
X89143695Y-80295709D01*
X89083149Y-80289200D01*
X89083138Y-80289200D01*
X88096862Y-80289200D01*
X88096850Y-80289200D01*
X88036304Y-80295709D01*
X88036298Y-80295711D01*
X87998313Y-80309878D01*
X87927497Y-80314941D01*
X87910253Y-80309877D01*
X87873601Y-80296207D01*
X87873593Y-80296205D01*
X87813097Y-80289700D01*
X87574000Y-80289700D01*
X87574000Y-82804300D01*
X87813085Y-82804300D01*
X87813097Y-82804299D01*
X87873595Y-82797794D01*
X87873599Y-82797793D01*
X87910248Y-82784123D01*
X87981063Y-82779056D01*
X87998305Y-82784118D01*
X88036299Y-82798289D01*
X88036302Y-82798289D01*
X88036303Y-82798290D01*
X88096850Y-82804799D01*
X88096855Y-82804799D01*
X88096862Y-82804800D01*
X88096868Y-82804800D01*
X89083132Y-82804800D01*
X89083138Y-82804800D01*
X89083145Y-82804799D01*
X89083149Y-82804799D01*
X89143696Y-82798290D01*
X89143696Y-82798289D01*
X89143701Y-82798289D01*
X89180967Y-82784388D01*
X89251781Y-82779323D01*
X89269025Y-82784386D01*
X89306299Y-82798289D01*
X89306302Y-82798289D01*
X89306303Y-82798290D01*
X89366850Y-82804799D01*
X89366855Y-82804799D01*
X89366862Y-82804800D01*
X89366868Y-82804800D01*
X90297500Y-82804800D01*
X90365621Y-82824802D01*
X90412114Y-82878458D01*
X90423500Y-82930800D01*
X90423500Y-83035927D01*
X90406619Y-83098926D01*
X90351475Y-83194437D01*
X90292457Y-83376072D01*
X90272496Y-83566000D01*
X90292457Y-83755927D01*
X90299696Y-83778205D01*
X90351473Y-83937556D01*
X90351476Y-83937561D01*
X90446958Y-84102941D01*
X90446965Y-84102951D01*
X90574744Y-84244864D01*
X90574747Y-84244866D01*
X90729248Y-84357118D01*
X90903712Y-84434794D01*
X91090513Y-84474500D01*
X91281487Y-84474500D01*
X91468288Y-84434794D01*
X91642752Y-84357118D01*
X91746940Y-84281420D01*
X91813806Y-84257563D01*
X91882958Y-84273643D01*
X91895056Y-84281417D01*
X91999248Y-84357118D01*
X92173712Y-84434794D01*
X92360513Y-84474500D01*
X92551487Y-84474500D01*
X92738288Y-84434794D01*
X92912752Y-84357118D01*
X93067253Y-84244866D01*
X93115249Y-84191561D01*
X93195034Y-84102951D01*
X93195035Y-84102949D01*
X93195040Y-84102944D01*
X93290527Y-83937556D01*
X93349542Y-83755928D01*
X93369504Y-83566000D01*
X93349542Y-83376072D01*
X93290527Y-83194444D01*
X93290525Y-83194441D01*
X93290524Y-83194437D01*
X93235381Y-83098926D01*
X93218500Y-83035927D01*
X93218500Y-82930800D01*
X93238502Y-82862679D01*
X93292158Y-82816186D01*
X93344500Y-82804800D01*
X94163132Y-82804800D01*
X94163138Y-82804800D01*
X94163145Y-82804799D01*
X94163149Y-82804799D01*
X94223696Y-82798290D01*
X94223696Y-82798289D01*
X94223701Y-82798289D01*
X94260967Y-82784388D01*
X94331781Y-82779323D01*
X94349025Y-82784386D01*
X94386299Y-82798289D01*
X94386302Y-82798289D01*
X94386303Y-82798290D01*
X94446850Y-82804799D01*
X94446855Y-82804799D01*
X94446862Y-82804800D01*
X94446868Y-82804800D01*
X95302122Y-82804800D01*
X95370243Y-82824802D01*
X95416736Y-82878458D01*
X95426840Y-82948732D01*
X95421955Y-82969737D01*
X95372457Y-83122072D01*
X95352496Y-83312001D01*
X95352496Y-83312002D01*
X95354694Y-83332920D01*
X95341920Y-83402758D01*
X95318479Y-83435182D01*
X93054483Y-85699178D01*
X92992171Y-85733204D01*
X92991586Y-85733329D01*
X92935714Y-85745205D01*
X92761249Y-85822881D01*
X92761248Y-85822882D01*
X92606744Y-85935135D01*
X92478965Y-86077048D01*
X92478958Y-86077058D01*
X92383476Y-86242438D01*
X92383473Y-86242445D01*
X92324457Y-86424072D01*
X92304496Y-86614000D01*
X92324457Y-86803927D01*
X92331334Y-86825091D01*
X92383473Y-86985556D01*
X92383476Y-86985561D01*
X92478958Y-87150941D01*
X92478965Y-87150951D01*
X92606744Y-87292864D01*
X92606747Y-87292866D01*
X92761248Y-87405118D01*
X92935712Y-87482794D01*
X93122513Y-87522500D01*
X93313487Y-87522500D01*
X93500288Y-87482794D01*
X93674752Y-87405118D01*
X93829253Y-87292866D01*
X93957040Y-87150944D01*
X94052527Y-86985556D01*
X94104666Y-86825088D01*
X94135401Y-86774934D01*
X96759401Y-84150935D01*
X96773240Y-84138975D01*
X96792822Y-84124398D01*
X96825177Y-84085836D01*
X96832596Y-84077740D01*
X96836573Y-84073765D01*
X96856149Y-84049004D01*
X96858395Y-84046249D01*
X96907396Y-83987853D01*
X96907396Y-83987851D01*
X96907399Y-83987849D01*
X96911430Y-83981720D01*
X96911483Y-83981755D01*
X96915592Y-83975304D01*
X96915539Y-83975271D01*
X96919390Y-83969025D01*
X96919395Y-83969020D01*
X96935575Y-83934318D01*
X96956131Y-83903261D01*
X97005040Y-83848944D01*
X97045881Y-83778204D01*
X97097263Y-83729212D01*
X97166977Y-83715776D01*
X97232888Y-83742162D01*
X97264119Y-83778205D01*
X97304958Y-83848941D01*
X97304965Y-83848951D01*
X97432744Y-83990864D01*
X97458982Y-84009927D01*
X97587248Y-84103118D01*
X97761712Y-84180794D01*
X97948513Y-84220500D01*
X98139487Y-84220500D01*
X98326288Y-84180794D01*
X98500752Y-84103118D01*
X98655253Y-83990866D01*
X98703249Y-83937561D01*
X98783034Y-83848951D01*
X98783035Y-83848949D01*
X98783040Y-83848944D01*
X98878527Y-83683556D01*
X98930665Y-83523090D01*
X98961401Y-83472934D01*
X99201728Y-83232607D01*
X99264039Y-83198584D01*
X99334855Y-83203649D01*
X99391690Y-83246196D01*
X99416132Y-83308535D01*
X99436457Y-83501927D01*
X99457276Y-83566000D01*
X99495473Y-83683556D01*
X99495476Y-83683561D01*
X99590958Y-83848941D01*
X99590965Y-83848951D01*
X99718744Y-83990864D01*
X99744982Y-84009927D01*
X99873248Y-84103118D01*
X100047712Y-84180794D01*
X100234513Y-84220500D01*
X100425487Y-84220500D01*
X100612288Y-84180794D01*
X100786752Y-84103118D01*
X100941253Y-83990866D01*
X100989249Y-83937561D01*
X101069034Y-83848951D01*
X101069035Y-83848949D01*
X101069040Y-83848944D01*
X101164527Y-83683556D01*
X101223542Y-83501928D01*
X101243504Y-83312000D01*
X101223542Y-83122072D01*
X101174043Y-82969733D01*
X101172016Y-82898770D01*
X101208678Y-82837971D01*
X101272390Y-82806646D01*
X101293877Y-82804800D01*
X101783132Y-82804800D01*
X101783138Y-82804800D01*
X101783145Y-82804799D01*
X101783149Y-82804799D01*
X101843696Y-82798290D01*
X101843696Y-82798289D01*
X101843701Y-82798289D01*
X101880967Y-82784388D01*
X101951781Y-82779323D01*
X101969025Y-82784386D01*
X102006299Y-82798289D01*
X102006302Y-82798289D01*
X102006303Y-82798290D01*
X102066850Y-82804799D01*
X102066855Y-82804799D01*
X102066862Y-82804800D01*
X102066868Y-82804800D01*
X102587883Y-82804800D01*
X102656004Y-82824802D01*
X102702497Y-82878458D01*
X102712601Y-82948732D01*
X102683107Y-83013312D01*
X102661946Y-83032734D01*
X102623960Y-83060332D01*
X102512744Y-83141135D01*
X102384965Y-83283048D01*
X102384958Y-83283058D01*
X102289476Y-83448438D01*
X102289473Y-83448445D01*
X102230457Y-83630072D01*
X102210496Y-83820000D01*
X102230457Y-84009927D01*
X102256105Y-84088862D01*
X102289473Y-84191556D01*
X102289476Y-84191561D01*
X102384958Y-84356941D01*
X102384965Y-84356951D01*
X102512744Y-84498864D01*
X102512747Y-84498866D01*
X102667248Y-84611118D01*
X102841712Y-84688794D01*
X103028513Y-84728500D01*
X103219487Y-84728500D01*
X103406288Y-84688794D01*
X103580752Y-84611118D01*
X103622141Y-84581046D01*
X103689006Y-84557190D01*
X103758158Y-84573270D01*
X103807638Y-84624183D01*
X103822200Y-84682984D01*
X103822200Y-85075149D01*
X103828709Y-85135695D01*
X103828711Y-85135701D01*
X103842611Y-85172971D01*
X103847674Y-85243786D01*
X103842611Y-85261029D01*
X103828711Y-85298298D01*
X103828709Y-85298304D01*
X103822200Y-85358850D01*
X103822200Y-86345149D01*
X103828709Y-86405695D01*
X103828711Y-86405701D01*
X103842611Y-86442971D01*
X103847674Y-86513786D01*
X103842611Y-86531029D01*
X103828711Y-86568298D01*
X103828709Y-86568304D01*
X103822200Y-86628850D01*
X103822200Y-87615149D01*
X103828709Y-87675695D01*
X103828711Y-87675701D01*
X103842611Y-87712971D01*
X103847674Y-87783786D01*
X103842611Y-87801029D01*
X103828711Y-87838298D01*
X103828709Y-87838304D01*
X103822200Y-87898850D01*
X103822200Y-88885149D01*
X103828709Y-88945695D01*
X103828711Y-88945701D01*
X103842611Y-88982971D01*
X103847674Y-89053786D01*
X103842611Y-89071029D01*
X103828711Y-89108298D01*
X103828709Y-89108304D01*
X103822200Y-89168850D01*
X103822200Y-90155149D01*
X103828709Y-90215695D01*
X103828711Y-90215701D01*
X103842611Y-90252971D01*
X103847674Y-90323786D01*
X103842611Y-90341029D01*
X103828711Y-90378298D01*
X103828709Y-90378304D01*
X103822200Y-90438850D01*
X103822200Y-91425149D01*
X103828709Y-91485695D01*
X103828711Y-91485701D01*
X103842611Y-91522971D01*
X103847674Y-91593786D01*
X103842611Y-91611029D01*
X103828711Y-91648298D01*
X103828709Y-91648304D01*
X103822200Y-91708850D01*
X103822200Y-92695149D01*
X103828709Y-92755695D01*
X103828711Y-92755701D01*
X103842611Y-92792971D01*
X103847674Y-92863786D01*
X103842611Y-92881029D01*
X103828711Y-92918298D01*
X103828709Y-92918304D01*
X103822200Y-92978850D01*
X103822200Y-93965149D01*
X103828709Y-94025695D01*
X103828711Y-94025701D01*
X103842611Y-94062971D01*
X103847674Y-94133786D01*
X103842611Y-94151029D01*
X103828711Y-94188298D01*
X103828709Y-94188304D01*
X103822200Y-94248850D01*
X103822200Y-95123500D01*
X103802198Y-95191621D01*
X103748542Y-95238114D01*
X103696200Y-95249500D01*
X103407081Y-95249500D01*
X103338960Y-95229498D01*
X103333021Y-95225437D01*
X103326752Y-95220882D01*
X103152288Y-95143206D01*
X102965487Y-95103500D01*
X102774513Y-95103500D01*
X102587711Y-95143206D01*
X102413247Y-95220882D01*
X102258744Y-95333135D01*
X102130965Y-95475048D01*
X102130958Y-95475058D01*
X102035476Y-95640438D01*
X102035473Y-95640445D01*
X101976457Y-95822072D01*
X101956496Y-96012000D01*
X101976457Y-96201927D01*
X101997276Y-96266000D01*
X102035473Y-96383556D01*
X102063841Y-96432691D01*
X102130958Y-96548941D01*
X102130965Y-96548951D01*
X102258744Y-96690864D01*
X102258747Y-96690866D01*
X102413248Y-96803118D01*
X102587712Y-96880794D01*
X102774513Y-96920500D01*
X102965487Y-96920500D01*
X103152288Y-96880794D01*
X103326752Y-96803118D01*
X103333021Y-96798562D01*
X103399889Y-96774705D01*
X103407081Y-96774500D01*
X103696200Y-96774500D01*
X103764321Y-96794502D01*
X103810814Y-96848158D01*
X103822200Y-96900500D01*
X103822200Y-97663200D01*
X103802198Y-97731321D01*
X103748542Y-97777814D01*
X103696200Y-97789200D01*
X103336850Y-97789200D01*
X103276304Y-97795709D01*
X103276298Y-97795711D01*
X103239029Y-97809611D01*
X103168214Y-97814674D01*
X103150971Y-97809611D01*
X103113701Y-97795711D01*
X103113695Y-97795709D01*
X103053149Y-97789200D01*
X103053138Y-97789200D01*
X102066862Y-97789200D01*
X102066850Y-97789200D01*
X102006304Y-97795709D01*
X102006298Y-97795711D01*
X101969029Y-97809611D01*
X101898214Y-97814674D01*
X101880971Y-97809611D01*
X101843701Y-97795711D01*
X101843695Y-97795709D01*
X101783149Y-97789200D01*
X101783138Y-97789200D01*
X100796862Y-97789200D01*
X100796850Y-97789200D01*
X100736304Y-97795709D01*
X100736298Y-97795711D01*
X100699029Y-97809611D01*
X100628214Y-97814674D01*
X100610971Y-97809611D01*
X100573701Y-97795711D01*
X100573695Y-97795709D01*
X100513149Y-97789200D01*
X100513138Y-97789200D01*
X99526862Y-97789200D01*
X99526850Y-97789200D01*
X99466304Y-97795709D01*
X99466298Y-97795711D01*
X99429029Y-97809611D01*
X99358214Y-97814674D01*
X99340971Y-97809611D01*
X99303701Y-97795711D01*
X99303695Y-97795709D01*
X99243149Y-97789200D01*
X99243138Y-97789200D01*
X98256862Y-97789200D01*
X98256850Y-97789200D01*
X98196304Y-97795709D01*
X98196298Y-97795711D01*
X98159029Y-97809611D01*
X98088214Y-97814674D01*
X98070971Y-97809611D01*
X98033701Y-97795711D01*
X98033695Y-97795709D01*
X97973149Y-97789200D01*
X97973138Y-97789200D01*
X96986862Y-97789200D01*
X96986850Y-97789200D01*
X96926304Y-97795709D01*
X96926298Y-97795711D01*
X96889029Y-97809611D01*
X96818214Y-97814674D01*
X96800971Y-97809611D01*
X96763701Y-97795711D01*
X96763695Y-97795709D01*
X96703149Y-97789200D01*
X96703138Y-97789200D01*
X95716862Y-97789200D01*
X95716850Y-97789200D01*
X95656304Y-97795709D01*
X95656298Y-97795711D01*
X95619029Y-97809611D01*
X95548214Y-97814674D01*
X95530971Y-97809611D01*
X95493701Y-97795711D01*
X95493695Y-97795709D01*
X95433149Y-97789200D01*
X95433138Y-97789200D01*
X94446862Y-97789200D01*
X94446850Y-97789200D01*
X94378462Y-97796553D01*
X94378225Y-97794356D01*
X94318583Y-97791160D01*
X94260996Y-97749635D01*
X94235002Y-97683569D01*
X94234500Y-97672337D01*
X94234500Y-96796071D01*
X94251381Y-96733071D01*
X94275748Y-96690866D01*
X94306527Y-96637556D01*
X94365542Y-96455928D01*
X94385504Y-96266000D01*
X94365542Y-96076072D01*
X94306527Y-95894444D01*
X94211040Y-95729056D01*
X94211038Y-95729054D01*
X94211034Y-95729048D01*
X94083255Y-95587135D01*
X93928752Y-95474882D01*
X93754288Y-95397206D01*
X93567487Y-95357500D01*
X93376513Y-95357500D01*
X93189711Y-95397206D01*
X93015247Y-95474882D01*
X92860744Y-95587135D01*
X92732965Y-95729048D01*
X92732958Y-95729058D01*
X92637476Y-95894438D01*
X92637473Y-95894445D01*
X92578457Y-96076072D01*
X92558496Y-96266000D01*
X92578457Y-96455928D01*
X92580613Y-96462561D01*
X92582642Y-96533529D01*
X92545981Y-96594327D01*
X92482270Y-96625654D01*
X92460781Y-96627500D01*
X92360513Y-96627500D01*
X92173711Y-96667206D01*
X91999247Y-96744882D01*
X91844744Y-96857135D01*
X91716965Y-96999048D01*
X91716958Y-96999058D01*
X91621476Y-97164438D01*
X91621473Y-97164445D01*
X91562457Y-97346072D01*
X91542496Y-97535999D01*
X91554481Y-97650030D01*
X91541709Y-97719868D01*
X91493207Y-97771715D01*
X91429171Y-97789200D01*
X90636850Y-97789200D01*
X90576304Y-97795709D01*
X90576298Y-97795711D01*
X90539029Y-97809611D01*
X90468214Y-97814674D01*
X90450971Y-97809611D01*
X90413701Y-97795711D01*
X90413695Y-97795709D01*
X90353149Y-97789200D01*
X90353138Y-97789200D01*
X89366862Y-97789200D01*
X89366850Y-97789200D01*
X89306304Y-97795709D01*
X89306298Y-97795711D01*
X89269029Y-97809611D01*
X89198214Y-97814674D01*
X89180971Y-97809611D01*
X89143701Y-97795711D01*
X89143695Y-97795709D01*
X89083149Y-97789200D01*
X89083138Y-97789200D01*
X88096862Y-97789200D01*
X88096850Y-97789200D01*
X88036304Y-97795709D01*
X88036298Y-97795711D01*
X87998313Y-97809878D01*
X87927497Y-97814941D01*
X87910253Y-97809877D01*
X87873601Y-97796207D01*
X87873593Y-97796205D01*
X87813097Y-97789700D01*
X87574000Y-97789700D01*
X87574000Y-100304300D01*
X87574500Y-100304300D01*
X87642621Y-100324302D01*
X87689114Y-100377958D01*
X87700500Y-100430300D01*
X87700500Y-101464074D01*
X87698949Y-101483784D01*
X87696825Y-101497190D01*
X87700327Y-101563992D01*
X87700500Y-101570587D01*
X87700500Y-101590623D01*
X87702593Y-101610534D01*
X87703110Y-101617112D01*
X87706610Y-101683908D01*
X87706611Y-101683919D01*
X87710125Y-101697033D01*
X87713726Y-101716463D01*
X87715144Y-101729957D01*
X87735818Y-101793582D01*
X87737691Y-101799906D01*
X87750720Y-101848531D01*
X87755006Y-101864524D01*
X87761165Y-101876613D01*
X87768729Y-101894872D01*
X87772925Y-101907785D01*
X87806385Y-101965739D01*
X87809523Y-101971520D01*
X87839891Y-102031123D01*
X87848430Y-102041667D01*
X87859629Y-102057961D01*
X87866415Y-102069715D01*
X87911182Y-102119434D01*
X87915465Y-102124449D01*
X87928064Y-102140007D01*
X87928069Y-102140013D01*
X87942210Y-102154154D01*
X87946751Y-102158938D01*
X87991530Y-102208669D01*
X88002509Y-102216646D01*
X88017545Y-102229488D01*
X88722509Y-102934452D01*
X88735348Y-102949483D01*
X88743331Y-102960470D01*
X88743332Y-102960471D01*
X88743333Y-102960472D01*
X88793050Y-103005237D01*
X88797819Y-103009762D01*
X88811994Y-103023937D01*
X88827561Y-103036543D01*
X88832552Y-103040806D01*
X88882285Y-103085585D01*
X88891851Y-103091107D01*
X88894034Y-103092368D01*
X88910333Y-103103570D01*
X88920872Y-103112105D01*
X88920877Y-103112108D01*
X88980469Y-103142471D01*
X88986267Y-103145619D01*
X89016672Y-103163173D01*
X89044215Y-103179075D01*
X89057126Y-103183270D01*
X89075379Y-103190830D01*
X89087476Y-103196994D01*
X89087482Y-103196995D01*
X89087485Y-103196997D01*
X89093648Y-103199364D01*
X89092569Y-103202172D01*
X89142028Y-103232321D01*
X89173048Y-103296182D01*
X89164618Y-103366677D01*
X89137887Y-103406169D01*
X88280595Y-104263461D01*
X88218283Y-104297487D01*
X88147468Y-104292422D01*
X88090632Y-104249875D01*
X88065821Y-104183355D01*
X88065500Y-104174366D01*
X88065500Y-104131727D01*
X88066830Y-104113467D01*
X88067153Y-104111257D01*
X88070366Y-104089327D01*
X88065980Y-104039197D01*
X88065500Y-104028214D01*
X88065500Y-104022588D01*
X88064013Y-104009866D01*
X88061839Y-103991273D01*
X88061470Y-103987658D01*
X88054830Y-103911759D01*
X88054828Y-103911755D01*
X88053346Y-103904574D01*
X88053407Y-103904561D01*
X88051751Y-103897091D01*
X88051692Y-103897106D01*
X88049998Y-103889966D01*
X88049998Y-103889958D01*
X88023927Y-103818330D01*
X88022742Y-103814923D01*
X87998765Y-103742559D01*
X87998764Y-103742558D01*
X87998764Y-103742556D01*
X87995665Y-103735911D01*
X87995720Y-103735885D01*
X87992380Y-103728985D01*
X87992324Y-103729014D01*
X87989030Y-103722454D01*
X87956244Y-103672607D01*
X87947148Y-103658777D01*
X87945232Y-103655771D01*
X87905188Y-103590850D01*
X87905185Y-103590847D01*
X87900642Y-103585102D01*
X87900690Y-103585063D01*
X87895845Y-103579116D01*
X87895799Y-103579156D01*
X87891086Y-103573538D01*
X87835640Y-103521228D01*
X87833012Y-103518674D01*
X87220905Y-102906567D01*
X87186879Y-102844255D01*
X87184000Y-102817472D01*
X87184000Y-93201000D01*
X92687500Y-93201000D01*
X92687500Y-93440097D01*
X92694005Y-93500593D01*
X92745055Y-93637464D01*
X92745055Y-93637465D01*
X92832595Y-93754404D01*
X92949534Y-93841944D01*
X93086406Y-93892994D01*
X93146902Y-93899499D01*
X93146915Y-93899500D01*
X93386000Y-93899500D01*
X93386000Y-93201000D01*
X93894000Y-93201000D01*
X93894000Y-93899500D01*
X94133085Y-93899500D01*
X94133097Y-93899499D01*
X94193593Y-93892994D01*
X94295968Y-93854811D01*
X94366783Y-93849746D01*
X94384032Y-93854811D01*
X94486406Y-93892994D01*
X94546902Y-93899499D01*
X94546915Y-93899500D01*
X94786000Y-93899500D01*
X94786000Y-93201000D01*
X95294000Y-93201000D01*
X95294000Y-93899500D01*
X95533085Y-93899500D01*
X95533097Y-93899499D01*
X95593593Y-93892994D01*
X95695968Y-93854811D01*
X95766783Y-93849746D01*
X95784032Y-93854811D01*
X95886406Y-93892994D01*
X95946902Y-93899499D01*
X95946915Y-93899500D01*
X96186000Y-93899500D01*
X96186000Y-93201000D01*
X96694000Y-93201000D01*
X96694000Y-93899500D01*
X96933085Y-93899500D01*
X96933097Y-93899499D01*
X96993593Y-93892994D01*
X97130464Y-93841944D01*
X97130465Y-93841944D01*
X97247404Y-93754404D01*
X97334944Y-93637465D01*
X97334944Y-93637464D01*
X97385994Y-93500593D01*
X97392499Y-93440097D01*
X97392500Y-93440085D01*
X97392500Y-93201000D01*
X96694000Y-93201000D01*
X96186000Y-93201000D01*
X95294000Y-93201000D01*
X94786000Y-93201000D01*
X93894000Y-93201000D01*
X93386000Y-93201000D01*
X92687500Y-93201000D01*
X87184000Y-93201000D01*
X87184000Y-91801000D01*
X92687500Y-91801000D01*
X92687500Y-92040097D01*
X92694005Y-92100594D01*
X92732188Y-92202968D01*
X92737252Y-92273784D01*
X92732188Y-92291032D01*
X92694005Y-92393405D01*
X92687500Y-92453902D01*
X92687500Y-92693000D01*
X93386000Y-92693000D01*
X93386000Y-91801000D01*
X93894000Y-91801000D01*
X93894000Y-92693000D01*
X94786000Y-92693000D01*
X94786000Y-91801000D01*
X95294000Y-91801000D01*
X95294000Y-92693000D01*
X96186000Y-92693000D01*
X96186000Y-91801000D01*
X96694000Y-91801000D01*
X96694000Y-92693000D01*
X97392500Y-92693000D01*
X97392500Y-92453914D01*
X97392499Y-92453902D01*
X97385994Y-92393406D01*
X97347811Y-92291032D01*
X97342746Y-92220217D01*
X97347811Y-92202968D01*
X97385994Y-92100593D01*
X97392499Y-92040097D01*
X97392500Y-92040085D01*
X97392500Y-91801000D01*
X96694000Y-91801000D01*
X96186000Y-91801000D01*
X95294000Y-91801000D01*
X94786000Y-91801000D01*
X93894000Y-91801000D01*
X93386000Y-91801000D01*
X92687500Y-91801000D01*
X87184000Y-91801000D01*
X87184000Y-90401000D01*
X92687500Y-90401000D01*
X92687500Y-90640097D01*
X92694005Y-90700594D01*
X92732188Y-90802968D01*
X92737252Y-90873784D01*
X92732188Y-90891032D01*
X92694005Y-90993405D01*
X92687500Y-91053902D01*
X92687500Y-91293000D01*
X93386000Y-91293000D01*
X93386000Y-90401000D01*
X93894000Y-90401000D01*
X93894000Y-91293000D01*
X94786000Y-91293000D01*
X94786000Y-90401000D01*
X95294000Y-90401000D01*
X95294000Y-91293000D01*
X96186000Y-91293000D01*
X96186000Y-90401000D01*
X96694000Y-90401000D01*
X96694000Y-91293000D01*
X97392500Y-91293000D01*
X97392500Y-91053914D01*
X97392499Y-91053902D01*
X97385994Y-90993406D01*
X97347811Y-90891032D01*
X97342746Y-90820217D01*
X97347811Y-90802968D01*
X97385994Y-90700593D01*
X97392499Y-90640097D01*
X97392500Y-90640085D01*
X97392500Y-90401000D01*
X96694000Y-90401000D01*
X96186000Y-90401000D01*
X95294000Y-90401000D01*
X94786000Y-90401000D01*
X93894000Y-90401000D01*
X93386000Y-90401000D01*
X92687500Y-90401000D01*
X87184000Y-90401000D01*
X87184000Y-89893000D01*
X92687500Y-89893000D01*
X93386000Y-89893000D01*
X93386000Y-89194500D01*
X93894000Y-89194500D01*
X93894000Y-89893000D01*
X94786000Y-89893000D01*
X94786000Y-89194500D01*
X95294000Y-89194500D01*
X95294000Y-89893000D01*
X96186000Y-89893000D01*
X96186000Y-89194500D01*
X96694000Y-89194500D01*
X96694000Y-89893000D01*
X97392500Y-89893000D01*
X97392500Y-89653914D01*
X97392499Y-89653902D01*
X97385994Y-89593406D01*
X97334944Y-89456535D01*
X97334944Y-89456534D01*
X97247404Y-89339595D01*
X97130465Y-89252055D01*
X96993593Y-89201005D01*
X96933097Y-89194500D01*
X96694000Y-89194500D01*
X96186000Y-89194500D01*
X95946902Y-89194500D01*
X95886405Y-89201005D01*
X95784032Y-89239188D01*
X95713216Y-89244252D01*
X95695968Y-89239188D01*
X95593594Y-89201005D01*
X95533097Y-89194500D01*
X95294000Y-89194500D01*
X94786000Y-89194500D01*
X94546902Y-89194500D01*
X94486405Y-89201005D01*
X94384032Y-89239188D01*
X94313216Y-89244252D01*
X94295968Y-89239188D01*
X94193594Y-89201005D01*
X94133097Y-89194500D01*
X93894000Y-89194500D01*
X93386000Y-89194500D01*
X93146902Y-89194500D01*
X93086406Y-89201005D01*
X92949535Y-89252055D01*
X92949534Y-89252055D01*
X92832595Y-89339595D01*
X92745055Y-89456534D01*
X92745055Y-89456535D01*
X92694005Y-89593406D01*
X92687500Y-89653902D01*
X92687500Y-89893000D01*
X87184000Y-89893000D01*
X87184000Y-79300527D01*
X87204002Y-79232406D01*
X87220905Y-79211432D01*
X88749433Y-77682905D01*
X88811745Y-77648879D01*
X88838528Y-77646000D01*
X91528247Y-77646000D01*
X91596368Y-77666002D01*
X91635488Y-77705853D01*
X91697970Y-77807152D01*
X91697975Y-77807158D01*
X91823341Y-77932524D01*
X91823347Y-77932529D01*
X91823348Y-77932530D01*
X91974262Y-78025615D01*
X92142574Y-78081387D01*
X92246455Y-78092000D01*
X92872544Y-78091999D01*
X92976426Y-78081387D01*
X93144738Y-78025615D01*
X93295652Y-77932530D01*
X93295658Y-77932524D01*
X93382905Y-77845278D01*
X93445217Y-77811252D01*
X93516032Y-77816317D01*
X93561095Y-77845278D01*
X93648341Y-77932524D01*
X93648347Y-77932529D01*
X93648348Y-77932530D01*
X93799262Y-78025615D01*
X93967574Y-78081387D01*
X94071455Y-78092000D01*
X94697544Y-78091999D01*
X94801426Y-78081387D01*
X94969738Y-78025615D01*
X95120652Y-77932530D01*
X95246030Y-77807152D01*
X95308512Y-77705852D01*
X95361298Y-77658375D01*
X95415753Y-77646000D01*
X96722511Y-77646000D01*
X96790632Y-77666002D01*
X96837125Y-77719658D01*
X96841582Y-77731660D01*
X96842855Y-77734604D01*
X96927544Y-77877803D01*
X96927549Y-77877810D01*
X97045189Y-77995450D01*
X97045196Y-77995455D01*
X97188394Y-78080143D01*
X97188397Y-78080143D01*
X97188399Y-78080145D01*
X97348169Y-78126562D01*
X97385488Y-78129499D01*
X97385489Y-78129500D01*
X97385498Y-78129500D01*
X97818511Y-78129500D01*
X97818511Y-78129499D01*
X97855831Y-78126562D01*
X98015601Y-78080145D01*
X98015603Y-78080143D01*
X98015605Y-78080143D01*
X98107806Y-78025615D01*
X98158807Y-77995453D01*
X98276453Y-77877807D01*
X98361145Y-77734601D01*
X98407562Y-77574831D01*
X98410499Y-77537511D01*
X98410500Y-77537511D01*
X98410500Y-76380500D01*
X98430502Y-76312379D01*
X98484158Y-76265886D01*
X98536500Y-76254500D01*
X98567500Y-76254500D01*
X98635621Y-76274502D01*
X98682114Y-76328158D01*
X98693500Y-76380500D01*
X98693500Y-77537511D01*
X98696437Y-77574828D01*
X98696437Y-77574829D01*
X98742856Y-77734605D01*
X98827544Y-77877803D01*
X98827549Y-77877810D01*
X98945189Y-77995450D01*
X98945196Y-77995455D01*
X99088394Y-78080143D01*
X99088397Y-78080143D01*
X99088399Y-78080145D01*
X99248169Y-78126562D01*
X99285488Y-78129499D01*
X99285489Y-78129500D01*
X99285498Y-78129500D01*
X99718511Y-78129500D01*
X99718511Y-78129499D01*
X99755831Y-78126562D01*
X99915601Y-78080145D01*
X99915603Y-78080143D01*
X99915605Y-78080143D01*
X100007806Y-78025615D01*
X100058807Y-77995453D01*
X100176453Y-77877807D01*
X100261145Y-77734601D01*
X100307562Y-77574831D01*
X100310499Y-77537511D01*
X100310500Y-77537511D01*
X100310500Y-77205528D01*
X100330502Y-77137407D01*
X100347405Y-77116432D01*
X100972434Y-76491404D01*
X101034746Y-76457379D01*
X101061529Y-76454500D01*
X112492919Y-76454500D01*
X112561040Y-76474502D01*
X112566972Y-76478558D01*
X112573248Y-76483118D01*
X112747712Y-76560794D01*
X112934513Y-76600500D01*
X113125487Y-76600500D01*
X113312288Y-76560794D01*
X113486752Y-76483118D01*
X113641253Y-76370866D01*
X113659268Y-76350858D01*
X113769034Y-76228951D01*
X113769035Y-76228949D01*
X113769040Y-76228944D01*
X113864527Y-76063556D01*
X113921326Y-75888747D01*
X113961398Y-75830143D01*
X114026795Y-75802506D01*
X114096752Y-75814613D01*
X114130253Y-75838590D01*
X114144597Y-75852934D01*
X114175334Y-75903090D01*
X114227473Y-76063556D01*
X114227476Y-76063561D01*
X114322958Y-76228941D01*
X114322965Y-76228951D01*
X114450744Y-76370864D01*
X114450747Y-76370866D01*
X114605248Y-76483118D01*
X114779712Y-76560794D01*
X114966513Y-76600500D01*
X115157487Y-76600500D01*
X115344288Y-76560794D01*
X115518752Y-76483118D01*
X115673253Y-76370866D01*
X115691268Y-76350858D01*
X115801034Y-76228951D01*
X115801035Y-76228949D01*
X115801040Y-76228944D01*
X115896527Y-76063556D01*
X115955542Y-75881928D01*
X115975504Y-75692000D01*
X115955542Y-75502072D01*
X115896527Y-75320444D01*
X115801040Y-75155056D01*
X115801038Y-75155054D01*
X115801034Y-75155048D01*
X115673255Y-75013135D01*
X115518752Y-74900882D01*
X115344288Y-74823206D01*
X115288411Y-74811328D01*
X115225938Y-74777599D01*
X115225515Y-74777177D01*
X114792942Y-74344604D01*
X114780970Y-74330752D01*
X114766398Y-74311178D01*
X114766396Y-74311176D01*
X114727835Y-74278819D01*
X114719733Y-74271394D01*
X114715771Y-74267432D01*
X114715767Y-74267429D01*
X114715765Y-74267427D01*
X114691062Y-74247894D01*
X114688222Y-74245581D01*
X114629855Y-74196605D01*
X114623728Y-74192576D01*
X114623761Y-74192524D01*
X114617303Y-74188410D01*
X114617272Y-74188461D01*
X114611019Y-74184604D01*
X114541958Y-74152400D01*
X114538661Y-74150804D01*
X114470569Y-74116607D01*
X114463671Y-74114097D01*
X114463691Y-74114039D01*
X114456459Y-74111525D01*
X114456440Y-74111583D01*
X114449477Y-74109275D01*
X114374865Y-74093869D01*
X114371290Y-74093076D01*
X114297125Y-74075500D01*
X114289833Y-74074648D01*
X114289840Y-74074587D01*
X114282226Y-74073809D01*
X114282221Y-74073871D01*
X114274909Y-74073231D01*
X114198746Y-74075447D01*
X114195082Y-74075500D01*
X106702028Y-74075500D01*
X106633907Y-74055498D01*
X106612933Y-74038595D01*
X105642103Y-73067765D01*
X137645788Y-73067765D01*
X137675412Y-73337014D01*
X137743928Y-73599090D01*
X137849869Y-73848389D01*
X137849870Y-73848390D01*
X137990982Y-74079610D01*
X138164255Y-74287820D01*
X138164257Y-74287822D01*
X138164259Y-74287824D01*
X138212170Y-74330752D01*
X138365998Y-74468582D01*
X138591910Y-74618044D01*
X138837176Y-74733020D01*
X139096569Y-74811060D01*
X139096572Y-74811060D01*
X139096574Y-74811061D01*
X139364557Y-74850500D01*
X139364561Y-74850500D01*
X139567631Y-74850500D01*
X139770156Y-74835677D01*
X139770160Y-74835676D01*
X139770161Y-74835676D01*
X139914293Y-74803569D01*
X140034553Y-74776780D01*
X140287558Y-74680014D01*
X140523777Y-74547441D01*
X140738177Y-74381888D01*
X140926186Y-74186881D01*
X141083799Y-73966579D01*
X141207656Y-73725675D01*
X141295118Y-73469305D01*
X141344319Y-73202933D01*
X141354212Y-72932235D01*
X141339338Y-72797058D01*
X141324587Y-72662985D01*
X141256071Y-72400909D01*
X141150130Y-72151610D01*
X141129104Y-72117158D01*
X141009018Y-71920390D01*
X140835745Y-71712180D01*
X140835741Y-71712177D01*
X140835740Y-71712175D01*
X140634012Y-71531427D01*
X140634002Y-71531418D01*
X140408090Y-71381956D01*
X140162824Y-71266980D01*
X140005392Y-71219615D01*
X139903425Y-71188938D01*
X139635442Y-71149500D01*
X139635439Y-71149500D01*
X139432369Y-71149500D01*
X139229839Y-71164323D01*
X139229838Y-71164323D01*
X138965456Y-71223217D01*
X138965441Y-71223222D01*
X138712441Y-71319986D01*
X138476229Y-71452555D01*
X138476225Y-71452557D01*
X138344383Y-71554362D01*
X138265973Y-71614908D01*
X138261818Y-71618116D01*
X138073815Y-71813117D01*
X138073810Y-71813123D01*
X137916203Y-72033417D01*
X137916196Y-72033427D01*
X137792343Y-72274324D01*
X137792342Y-72274327D01*
X137704883Y-72530689D01*
X137704880Y-72530702D01*
X137655681Y-72797058D01*
X137655680Y-72797069D01*
X137645788Y-73067765D01*
X105642103Y-73067765D01*
X103440338Y-70866000D01*
X108899455Y-70866000D01*
X108947176Y-71054449D01*
X108947179Y-71054456D01*
X109037580Y-71260548D01*
X109160674Y-71448958D01*
X109313097Y-71614534D01*
X109490698Y-71752767D01*
X109490699Y-71752768D01*
X109688628Y-71859882D01*
X109688630Y-71859883D01*
X109901483Y-71932955D01*
X109901492Y-71932957D01*
X109982000Y-71946391D01*
X109982000Y-71045674D01*
X110093685Y-71096680D01*
X110200237Y-71112000D01*
X110271763Y-71112000D01*
X110378315Y-71096680D01*
X110490000Y-71045674D01*
X110490000Y-71946390D01*
X110570507Y-71932957D01*
X110570516Y-71932955D01*
X110783369Y-71859883D01*
X110783371Y-71859882D01*
X110981300Y-71752768D01*
X110981301Y-71752767D01*
X111158902Y-71614534D01*
X111311327Y-71448955D01*
X111400217Y-71312899D01*
X111454220Y-71266810D01*
X111524568Y-71257235D01*
X111588925Y-71287212D01*
X111611183Y-71312898D01*
X111700279Y-71449270D01*
X111852762Y-71614908D01*
X111856884Y-71618116D01*
X112030424Y-71753189D01*
X112228426Y-71860342D01*
X112228427Y-71860342D01*
X112228428Y-71860343D01*
X112276949Y-71877000D01*
X112441365Y-71933444D01*
X112663431Y-71970500D01*
X112663435Y-71970500D01*
X112888565Y-71970500D01*
X112888569Y-71970500D01*
X113110635Y-71933444D01*
X113323574Y-71860342D01*
X113521576Y-71753189D01*
X113699240Y-71614906D01*
X113851722Y-71449268D01*
X113851927Y-71448955D01*
X113895699Y-71381956D01*
X113940518Y-71313354D01*
X113994520Y-71267268D01*
X114064868Y-71257692D01*
X114129225Y-71287669D01*
X114151480Y-71313353D01*
X114184607Y-71364058D01*
X114240275Y-71449265D01*
X114240279Y-71449270D01*
X114392762Y-71614908D01*
X114396884Y-71618116D01*
X114570424Y-71753189D01*
X114768426Y-71860342D01*
X114768427Y-71860342D01*
X114768428Y-71860343D01*
X114816949Y-71877000D01*
X114981365Y-71933444D01*
X115203431Y-71970500D01*
X115203435Y-71970500D01*
X115428565Y-71970500D01*
X115428569Y-71970500D01*
X115650635Y-71933444D01*
X115863574Y-71860342D01*
X116061576Y-71753189D01*
X116239240Y-71614906D01*
X116300245Y-71548637D01*
X116361096Y-71512067D01*
X116432061Y-71514200D01*
X116490606Y-71554362D01*
X116511000Y-71589941D01*
X116555111Y-71708204D01*
X116555112Y-71708207D01*
X116642738Y-71825261D01*
X116759792Y-71912887D01*
X116759794Y-71912888D01*
X116759796Y-71912889D01*
X116813600Y-71932957D01*
X116896795Y-71963988D01*
X116896803Y-71963990D01*
X116957350Y-71970499D01*
X116957355Y-71970499D01*
X116957362Y-71970500D01*
X116957368Y-71970500D01*
X118754632Y-71970500D01*
X118754638Y-71970500D01*
X118754645Y-71970499D01*
X118754649Y-71970499D01*
X118815196Y-71963990D01*
X118815199Y-71963989D01*
X118815201Y-71963989D01*
X118952204Y-71912889D01*
X118973427Y-71897002D01*
X119069261Y-71825261D01*
X119156887Y-71708207D01*
X119156887Y-71708206D01*
X119156889Y-71708204D01*
X119207989Y-71571201D01*
X119209800Y-71554362D01*
X119214499Y-71510649D01*
X119214500Y-71510632D01*
X119214500Y-69713367D01*
X119214499Y-69713350D01*
X119207990Y-69652803D01*
X119207988Y-69652795D01*
X119158400Y-69519847D01*
X119156889Y-69515796D01*
X119156888Y-69515794D01*
X119156887Y-69515792D01*
X119069261Y-69398738D01*
X118952207Y-69311112D01*
X118952202Y-69311110D01*
X118815204Y-69260011D01*
X118815196Y-69260009D01*
X118754649Y-69253500D01*
X118754638Y-69253500D01*
X116957362Y-69253500D01*
X116957350Y-69253500D01*
X116896803Y-69260009D01*
X116896795Y-69260011D01*
X116759797Y-69311110D01*
X116759792Y-69311112D01*
X116642738Y-69398738D01*
X116555112Y-69515792D01*
X116555111Y-69515795D01*
X116511000Y-69634058D01*
X116468453Y-69690893D01*
X116401932Y-69715703D01*
X116332558Y-69700611D01*
X116300246Y-69675363D01*
X116239240Y-69609094D01*
X116239239Y-69609093D01*
X116239237Y-69609091D01*
X116124578Y-69519848D01*
X116061576Y-69470811D01*
X115863574Y-69363658D01*
X115863572Y-69363657D01*
X115863571Y-69363656D01*
X115650639Y-69290557D01*
X115650630Y-69290555D01*
X115573029Y-69277606D01*
X115428569Y-69253500D01*
X115203431Y-69253500D01*
X115058971Y-69277606D01*
X114981369Y-69290555D01*
X114981360Y-69290557D01*
X114768428Y-69363656D01*
X114768426Y-69363658D01*
X114570426Y-69470810D01*
X114570424Y-69470811D01*
X114392762Y-69609091D01*
X114240279Y-69774729D01*
X114151483Y-69910643D01*
X114097479Y-69956731D01*
X114027131Y-69966306D01*
X113962774Y-69936329D01*
X113940517Y-69910643D01*
X113851720Y-69774729D01*
X113722221Y-69634058D01*
X113699240Y-69609094D01*
X113699239Y-69609093D01*
X113699237Y-69609091D01*
X113584578Y-69519848D01*
X113521576Y-69470811D01*
X113323574Y-69363658D01*
X113323572Y-69363657D01*
X113323571Y-69363656D01*
X113110639Y-69290557D01*
X113110630Y-69290555D01*
X113033029Y-69277606D01*
X112888569Y-69253500D01*
X112663431Y-69253500D01*
X112518971Y-69277606D01*
X112441369Y-69290555D01*
X112441360Y-69290557D01*
X112228428Y-69363656D01*
X112228426Y-69363658D01*
X112030426Y-69470810D01*
X112030424Y-69470811D01*
X111852762Y-69609091D01*
X111700279Y-69774729D01*
X111611183Y-69911101D01*
X111557179Y-69957189D01*
X111486831Y-69966764D01*
X111422474Y-69936786D01*
X111400217Y-69911100D01*
X111311327Y-69775044D01*
X111158902Y-69609465D01*
X110981301Y-69471232D01*
X110981300Y-69471231D01*
X110783371Y-69364117D01*
X110783369Y-69364116D01*
X110570512Y-69291043D01*
X110570501Y-69291040D01*
X110490000Y-69277606D01*
X110490000Y-70178325D01*
X110378315Y-70127320D01*
X110271763Y-70112000D01*
X110200237Y-70112000D01*
X110093685Y-70127320D01*
X109982000Y-70178325D01*
X109982000Y-69277607D01*
X109981999Y-69277606D01*
X109901498Y-69291040D01*
X109901487Y-69291043D01*
X109688630Y-69364116D01*
X109688628Y-69364117D01*
X109490699Y-69471231D01*
X109490698Y-69471232D01*
X109313097Y-69609465D01*
X109160674Y-69775041D01*
X109037580Y-69963451D01*
X108947179Y-70169543D01*
X108947176Y-70169550D01*
X108899455Y-70357999D01*
X108899456Y-70358000D01*
X109804884Y-70358000D01*
X109776507Y-70402156D01*
X109736000Y-70540111D01*
X109736000Y-70683889D01*
X109776507Y-70821844D01*
X109804884Y-70866000D01*
X108899455Y-70866000D01*
X103440338Y-70866000D01*
X103195442Y-70621104D01*
X103183470Y-70607252D01*
X103168898Y-70587678D01*
X103168896Y-70587676D01*
X103130335Y-70555319D01*
X103122233Y-70547894D01*
X103118271Y-70543932D01*
X103118267Y-70543929D01*
X103118265Y-70543927D01*
X103093562Y-70524394D01*
X103090722Y-70522081D01*
X103032355Y-70473105D01*
X103026228Y-70469076D01*
X103026261Y-70469024D01*
X103019803Y-70464910D01*
X103019772Y-70464961D01*
X103013519Y-70461104D01*
X102944458Y-70428900D01*
X102941161Y-70427304D01*
X102873069Y-70393107D01*
X102866171Y-70390597D01*
X102866191Y-70390539D01*
X102858959Y-70388025D01*
X102858940Y-70388083D01*
X102851977Y-70385775D01*
X102777365Y-70370369D01*
X102773790Y-70369576D01*
X102699625Y-70352000D01*
X102692333Y-70351148D01*
X102692340Y-70351087D01*
X102684726Y-70350309D01*
X102684721Y-70350371D01*
X102677409Y-70349731D01*
X102601246Y-70351947D01*
X102597582Y-70352000D01*
X99886500Y-70352000D01*
X99818379Y-70331998D01*
X99771886Y-70278342D01*
X99760500Y-70226000D01*
X99760499Y-69942955D01*
X99749887Y-69839074D01*
X99728669Y-69775041D01*
X99694115Y-69670762D01*
X99601030Y-69519848D01*
X99601029Y-69519847D01*
X99601024Y-69519841D01*
X99475658Y-69394475D01*
X99475652Y-69394470D01*
X99426442Y-69364117D01*
X99324738Y-69301385D01*
X99240582Y-69273499D01*
X99156427Y-69245613D01*
X99156420Y-69245612D01*
X99052553Y-69235000D01*
X98051455Y-69235000D01*
X97947574Y-69245612D01*
X97779261Y-69301385D01*
X97628347Y-69394470D01*
X97628341Y-69394475D01*
X97502975Y-69519841D01*
X97502970Y-69519847D01*
X97409885Y-69670762D01*
X97354113Y-69839072D01*
X97354112Y-69839079D01*
X97343500Y-69942946D01*
X97343500Y-70280000D01*
X97323498Y-70348121D01*
X97269842Y-70394614D01*
X97217500Y-70406000D01*
X95456174Y-70406000D01*
X95388053Y-70385998D01*
X95348934Y-70346148D01*
X95271031Y-70219849D01*
X95271024Y-70219841D01*
X95145658Y-70094475D01*
X95145652Y-70094470D01*
X94994738Y-70001385D01*
X94880259Y-69963451D01*
X94826427Y-69945613D01*
X94826420Y-69945612D01*
X94722553Y-69935000D01*
X94121455Y-69935000D01*
X94017574Y-69945612D01*
X93849261Y-70001385D01*
X93698347Y-70094470D01*
X93698341Y-70094475D01*
X93572971Y-70219845D01*
X93570511Y-70222957D01*
X93568281Y-70224535D01*
X93567780Y-70225037D01*
X93567694Y-70224951D01*
X93512568Y-70263983D01*
X93441643Y-70267171D01*
X93380254Y-70231508D01*
X93372837Y-70222946D01*
X93370632Y-70220157D01*
X93245345Y-70094870D01*
X93245339Y-70094865D01*
X93094525Y-70001842D01*
X92926321Y-69946106D01*
X92926318Y-69946105D01*
X92822516Y-69935500D01*
X92776000Y-69935500D01*
X92776000Y-72401500D01*
X92822517Y-72401500D01*
X92822516Y-72401499D01*
X92926318Y-72390894D01*
X92926321Y-72390893D01*
X93094525Y-72335157D01*
X93245339Y-72242134D01*
X93245345Y-72242129D01*
X93370624Y-72116850D01*
X93372832Y-72114058D01*
X93374837Y-72112637D01*
X93375825Y-72111650D01*
X93375993Y-72111818D01*
X93430768Y-72073022D01*
X93501693Y-72069823D01*
X93563088Y-72105476D01*
X93570515Y-72114047D01*
X93572974Y-72117157D01*
X93698341Y-72242524D01*
X93698347Y-72242529D01*
X93698348Y-72242530D01*
X93849262Y-72335615D01*
X94017574Y-72391387D01*
X94121455Y-72402000D01*
X94722544Y-72401999D01*
X94826426Y-72391387D01*
X94994738Y-72335615D01*
X95145652Y-72242530D01*
X95271030Y-72117152D01*
X95300223Y-72069823D01*
X95348934Y-71990852D01*
X95401720Y-71943375D01*
X95456174Y-71931000D01*
X97217500Y-71931000D01*
X97285621Y-71951002D01*
X97332114Y-72004658D01*
X97343500Y-72057000D01*
X97343500Y-72394044D01*
X97354112Y-72497925D01*
X97409885Y-72666238D01*
X97502970Y-72817152D01*
X97502975Y-72817158D01*
X97628341Y-72942524D01*
X97628347Y-72942529D01*
X97628348Y-72942530D01*
X97729649Y-73005013D01*
X97777125Y-73057797D01*
X97789500Y-73112252D01*
X97789500Y-74151014D01*
X97784497Y-74186166D01*
X97746438Y-74317167D01*
X97746437Y-74317171D01*
X97743500Y-74354488D01*
X97743500Y-75511500D01*
X97723498Y-75579621D01*
X97669842Y-75626114D01*
X97617500Y-75637500D01*
X97385489Y-75637500D01*
X97348171Y-75640437D01*
X97348170Y-75640437D01*
X97188394Y-75686856D01*
X97045196Y-75771544D01*
X97045189Y-75771549D01*
X96927549Y-75889189D01*
X96927544Y-75889196D01*
X96842855Y-76032395D01*
X96839709Y-76039669D01*
X96837924Y-76038896D01*
X96805295Y-76089989D01*
X96740798Y-76119666D01*
X96722511Y-76121000D01*
X95415753Y-76121000D01*
X95347632Y-76100998D01*
X95308512Y-76061147D01*
X95290780Y-76032399D01*
X95246030Y-75959848D01*
X95246029Y-75959847D01*
X95246024Y-75959841D01*
X95120658Y-75834475D01*
X95120652Y-75834470D01*
X95018641Y-75771549D01*
X94969738Y-75741385D01*
X94885582Y-75713499D01*
X94801427Y-75685613D01*
X94801420Y-75685612D01*
X94697553Y-75675000D01*
X94071455Y-75675000D01*
X93967574Y-75685612D01*
X93799261Y-75741385D01*
X93648347Y-75834470D01*
X93648341Y-75834475D01*
X93561095Y-75921722D01*
X93498783Y-75955748D01*
X93427968Y-75950683D01*
X93382905Y-75921722D01*
X93295658Y-75834475D01*
X93295652Y-75834470D01*
X93193641Y-75771549D01*
X93144738Y-75741385D01*
X93060582Y-75713499D01*
X92976427Y-75685613D01*
X92976420Y-75685612D01*
X92872553Y-75675000D01*
X92246455Y-75675000D01*
X92142574Y-75685612D01*
X91974261Y-75741385D01*
X91823347Y-75834470D01*
X91823341Y-75834475D01*
X91697975Y-75959841D01*
X91697970Y-75959847D01*
X91635488Y-76061147D01*
X91582702Y-76108625D01*
X91528247Y-76121000D01*
X88535235Y-76121000D01*
X88516975Y-76119670D01*
X88492829Y-76116133D01*
X88492821Y-76116133D01*
X88448270Y-76120031D01*
X88442686Y-76120520D01*
X88431705Y-76121000D01*
X88426086Y-76121000D01*
X88394787Y-76124656D01*
X88391153Y-76125027D01*
X88315259Y-76131668D01*
X88308074Y-76133152D01*
X88308062Y-76133094D01*
X88300583Y-76134752D01*
X88300597Y-76134810D01*
X88293450Y-76136504D01*
X88221840Y-76162566D01*
X88218384Y-76163768D01*
X88146063Y-76187733D01*
X88139415Y-76190834D01*
X88139390Y-76190780D01*
X88132488Y-76194122D01*
X88132515Y-76194174D01*
X88125968Y-76197461D01*
X88062291Y-76239342D01*
X88059203Y-76241308D01*
X87994352Y-76281309D01*
X87988594Y-76285863D01*
X87988557Y-76285816D01*
X87982622Y-76290650D01*
X87982661Y-76290696D01*
X87977040Y-76295413D01*
X87924728Y-76350858D01*
X87922176Y-76353484D01*
X85928102Y-78347558D01*
X85914253Y-78359528D01*
X85894679Y-78374101D01*
X85894676Y-78374103D01*
X85862320Y-78412663D01*
X85854909Y-78420752D01*
X85850927Y-78424734D01*
X85850921Y-78424741D01*
X85831384Y-78449448D01*
X85829076Y-78452282D01*
X85780104Y-78510647D01*
X85776074Y-78516775D01*
X85776023Y-78516742D01*
X85771905Y-78523206D01*
X85771955Y-78523237D01*
X85768105Y-78529478D01*
X85735894Y-78598554D01*
X85734298Y-78601851D01*
X85700105Y-78669934D01*
X85697595Y-78676832D01*
X85697539Y-78676811D01*
X85695025Y-78684045D01*
X85695082Y-78684064D01*
X85692773Y-78691029D01*
X85677365Y-78765648D01*
X85676573Y-78769222D01*
X85659000Y-78843374D01*
X85658148Y-78850667D01*
X85658087Y-78850659D01*
X85657309Y-78858273D01*
X85657371Y-78858279D01*
X85656731Y-78865590D01*
X85658947Y-78941754D01*
X85659000Y-78945418D01*
X85659000Y-80392000D01*
X85638998Y-80460121D01*
X85585342Y-80506614D01*
X85533000Y-80518000D01*
X79626500Y-80518000D01*
X79558379Y-80497998D01*
X79511886Y-80444342D01*
X79500500Y-80392000D01*
X79500500Y-73067765D01*
X82645788Y-73067765D01*
X82675412Y-73337014D01*
X82743928Y-73599090D01*
X82849869Y-73848389D01*
X82849870Y-73848390D01*
X82990982Y-74079610D01*
X83164255Y-74287820D01*
X83164257Y-74287822D01*
X83164259Y-74287824D01*
X83212170Y-74330752D01*
X83365998Y-74468582D01*
X83591910Y-74618044D01*
X83837176Y-74733020D01*
X84096569Y-74811060D01*
X84096572Y-74811060D01*
X84096574Y-74811061D01*
X84364557Y-74850500D01*
X84364561Y-74850500D01*
X84567631Y-74850500D01*
X84770156Y-74835677D01*
X84770160Y-74835676D01*
X84770161Y-74835676D01*
X84914293Y-74803569D01*
X85034553Y-74776780D01*
X85287558Y-74680014D01*
X85523777Y-74547441D01*
X85738177Y-74381888D01*
X85926186Y-74186881D01*
X86083799Y-73966579D01*
X86207656Y-73725675D01*
X86295118Y-73469305D01*
X86344319Y-73202933D01*
X86354212Y-72932235D01*
X86339338Y-72797058D01*
X86324587Y-72662985D01*
X86256071Y-72400909D01*
X86150130Y-72151610D01*
X86129104Y-72117158D01*
X86009018Y-71920390D01*
X85835745Y-71712180D01*
X85835741Y-71712177D01*
X85835740Y-71712175D01*
X85634012Y-71531427D01*
X85634002Y-71531418D01*
X85469372Y-71422500D01*
X91514000Y-71422500D01*
X91514000Y-71694016D01*
X91524605Y-71797818D01*
X91524606Y-71797821D01*
X91580342Y-71966025D01*
X91673365Y-72116839D01*
X91673370Y-72116845D01*
X91798654Y-72242129D01*
X91798660Y-72242134D01*
X91949474Y-72335157D01*
X92117678Y-72390893D01*
X92117681Y-72390894D01*
X92221483Y-72401499D01*
X92221483Y-72401500D01*
X92268000Y-72401500D01*
X92268000Y-71422500D01*
X91514000Y-71422500D01*
X85469372Y-71422500D01*
X85408090Y-71381956D01*
X85162824Y-71266980D01*
X85005392Y-71219615D01*
X84903425Y-71188938D01*
X84635442Y-71149500D01*
X84635439Y-71149500D01*
X84432369Y-71149500D01*
X84229839Y-71164323D01*
X84229838Y-71164323D01*
X83965456Y-71223217D01*
X83965441Y-71223222D01*
X83712441Y-71319986D01*
X83476229Y-71452555D01*
X83476225Y-71452557D01*
X83344383Y-71554362D01*
X83265973Y-71614908D01*
X83261818Y-71618116D01*
X83073815Y-71813117D01*
X83073810Y-71813123D01*
X82916203Y-72033417D01*
X82916196Y-72033427D01*
X82792343Y-72274324D01*
X82792342Y-72274327D01*
X82704883Y-72530689D01*
X82704880Y-72530702D01*
X82655681Y-72797058D01*
X82655680Y-72797069D01*
X82645788Y-73067765D01*
X79500500Y-73067765D01*
X79500500Y-70914500D01*
X91514000Y-70914500D01*
X92268000Y-70914500D01*
X92268000Y-69935500D01*
X92221483Y-69935500D01*
X92117681Y-69946105D01*
X92117678Y-69946106D01*
X91949474Y-70001842D01*
X91798660Y-70094865D01*
X91798654Y-70094870D01*
X91673370Y-70220154D01*
X91673365Y-70220160D01*
X91580342Y-70370974D01*
X91524606Y-70539178D01*
X91524605Y-70539181D01*
X91514000Y-70642983D01*
X91514000Y-70914500D01*
X79500500Y-70914500D01*
X79500500Y-68126500D01*
X79520502Y-68058379D01*
X79574158Y-68011886D01*
X79626500Y-68000500D01*
X144373500Y-68000500D01*
X144441621Y-68020502D01*
G37*
%TD.AperFunction*%
%TA.AperFunction,Conductor*%
G36*
X114817371Y-80284502D02*
G01*
X114842886Y-80306190D01*
X114958744Y-80434864D01*
X114993507Y-80460121D01*
X115113248Y-80547118D01*
X115287712Y-80624794D01*
X115474513Y-80664500D01*
X115665487Y-80664500D01*
X115852288Y-80624794D01*
X116026752Y-80547118D01*
X116033021Y-80542562D01*
X116099889Y-80518705D01*
X116107081Y-80518500D01*
X116313458Y-80518500D01*
X116331718Y-80519830D01*
X116333927Y-80520153D01*
X116355858Y-80523366D01*
X116402162Y-80519314D01*
X116406003Y-80518979D01*
X116416983Y-80518500D01*
X116422599Y-80518500D01*
X116436517Y-80516872D01*
X116453874Y-80514843D01*
X116457504Y-80514472D01*
X116499038Y-80510839D01*
X116568642Y-80524828D01*
X116599114Y-80547265D01*
X125982595Y-89930746D01*
X126016621Y-89993058D01*
X126019500Y-90019841D01*
X126019500Y-93929486D01*
X125999498Y-93997607D01*
X125959335Y-94036918D01*
X125892591Y-94077818D01*
X125892580Y-94077826D01*
X125712030Y-94232030D01*
X125557826Y-94412580D01*
X125557825Y-94412582D01*
X125433759Y-94615038D01*
X125342894Y-94834407D01*
X125307498Y-94981844D01*
X125287465Y-95065289D01*
X125268835Y-95302000D01*
X125287465Y-95538711D01*
X125299090Y-95587134D01*
X125342894Y-95769592D01*
X125394610Y-95894445D01*
X125433760Y-95988963D01*
X125548310Y-96175891D01*
X125557825Y-96191417D01*
X125557826Y-96191419D01*
X125712030Y-96371969D01*
X125884527Y-96519295D01*
X125892584Y-96526176D01*
X125959334Y-96567080D01*
X126006966Y-96619727D01*
X126019500Y-96674513D01*
X126019500Y-100429486D01*
X125999498Y-100497607D01*
X125959335Y-100536918D01*
X125892591Y-100577818D01*
X125892580Y-100577826D01*
X125712030Y-100732030D01*
X125557826Y-100912580D01*
X125557825Y-100912582D01*
X125433759Y-101115038D01*
X125342894Y-101334407D01*
X125295310Y-101532611D01*
X125287465Y-101565289D01*
X125268835Y-101802000D01*
X125287465Y-102038711D01*
X125304976Y-102111651D01*
X125342894Y-102269592D01*
X125342895Y-102269594D01*
X125433760Y-102488963D01*
X125548310Y-102675891D01*
X125557825Y-102691417D01*
X125557826Y-102691419D01*
X125712030Y-102871969D01*
X125889960Y-103023935D01*
X125892584Y-103026176D01*
X126095037Y-103150240D01*
X126314406Y-103241105D01*
X126545289Y-103296535D01*
X126782000Y-103315165D01*
X127018711Y-103296535D01*
X127249594Y-103241105D01*
X127314284Y-103214309D01*
X127384871Y-103206720D01*
X127448358Y-103238499D01*
X127484586Y-103299556D01*
X127488500Y-103330718D01*
X127488500Y-105203280D01*
X127468498Y-105271401D01*
X127414842Y-105317894D01*
X127344568Y-105327998D01*
X127314284Y-105319690D01*
X127278841Y-105305009D01*
X127249594Y-105292895D01*
X127249592Y-105292894D01*
X127249591Y-105292894D01*
X127125337Y-105263063D01*
X127018711Y-105237465D01*
X126782000Y-105218835D01*
X126545289Y-105237465D01*
X126314407Y-105292894D01*
X126095038Y-105383759D01*
X125892582Y-105507825D01*
X125892580Y-105507826D01*
X125712030Y-105662030D01*
X125557826Y-105842580D01*
X125557825Y-105842582D01*
X125433759Y-106045038D01*
X125342894Y-106264407D01*
X125308286Y-106408562D01*
X125287465Y-106495289D01*
X125268835Y-106732000D01*
X125287465Y-106968711D01*
X125296391Y-107005889D01*
X125342894Y-107199592D01*
X125426308Y-107400971D01*
X125433760Y-107418963D01*
X125548310Y-107605891D01*
X125557825Y-107621417D01*
X125557826Y-107621419D01*
X125712030Y-107801969D01*
X125892107Y-107955769D01*
X125892584Y-107956176D01*
X125959334Y-107997080D01*
X126006966Y-108049727D01*
X126019500Y-108104513D01*
X126019500Y-111859486D01*
X125999498Y-111927607D01*
X125959335Y-111966918D01*
X125892591Y-112007818D01*
X125892580Y-112007826D01*
X125712030Y-112162030D01*
X125557826Y-112342580D01*
X125557825Y-112342582D01*
X125433759Y-112545038D01*
X125342894Y-112764407D01*
X125288674Y-112990252D01*
X125287465Y-112995289D01*
X125268835Y-113232000D01*
X125287465Y-113468711D01*
X125300551Y-113523218D01*
X125342894Y-113699592D01*
X125349995Y-113716734D01*
X125433760Y-113918963D01*
X125551678Y-114111387D01*
X125557825Y-114121417D01*
X125557826Y-114121419D01*
X125712030Y-114301969D01*
X125892107Y-114455769D01*
X125892584Y-114456176D01*
X126095037Y-114580240D01*
X126314406Y-114671105D01*
X126545289Y-114726535D01*
X126782000Y-114745165D01*
X127018711Y-114726535D01*
X127249594Y-114671105D01*
X127314284Y-114644309D01*
X127384871Y-114636720D01*
X127448358Y-114668499D01*
X127484586Y-114729556D01*
X127488500Y-114760718D01*
X127488500Y-116355931D01*
X127486748Y-116371801D01*
X127487038Y-116371829D01*
X127486292Y-116379720D01*
X127488438Y-116448011D01*
X127488500Y-116451969D01*
X127488500Y-116479987D01*
X127489011Y-116484038D01*
X127489940Y-116495847D01*
X127491334Y-116540202D01*
X127491335Y-116540207D01*
X127497014Y-116559756D01*
X127501021Y-116579107D01*
X127503572Y-116599295D01*
X127503572Y-116599296D01*
X127519906Y-116640553D01*
X127523749Y-116651779D01*
X127536129Y-116694390D01*
X127536131Y-116694395D01*
X127546492Y-116711914D01*
X127555189Y-116729666D01*
X127562681Y-116748588D01*
X127588765Y-116784490D01*
X127595281Y-116794410D01*
X127617865Y-116832597D01*
X127617868Y-116832601D01*
X127632250Y-116846983D01*
X127645090Y-116862016D01*
X127657054Y-116878483D01*
X127657057Y-116878486D01*
X127691254Y-116906776D01*
X127700034Y-116914766D01*
X128383629Y-117598361D01*
X128417655Y-117660673D01*
X128412590Y-117731488D01*
X128370043Y-117788324D01*
X128338567Y-117805511D01*
X128199039Y-117857553D01*
X128199034Y-117857555D01*
X128082095Y-117945095D01*
X127994555Y-118062034D01*
X127994555Y-118062035D01*
X127943505Y-118198906D01*
X127937000Y-118259402D01*
X127937000Y-118634289D01*
X127916998Y-118702410D01*
X127863342Y-118748903D01*
X127855033Y-118752345D01*
X127774033Y-118782556D01*
X127657095Y-118870095D01*
X127569555Y-118987034D01*
X127569555Y-118987035D01*
X127518505Y-119123906D01*
X127512000Y-119184402D01*
X127512000Y-119531585D01*
X127512001Y-119531605D01*
X127518513Y-119592182D01*
X127518513Y-119619116D01*
X127511501Y-119684347D01*
X127511500Y-119684367D01*
X127511500Y-120031632D01*
X127511501Y-120031652D01*
X127518513Y-120096884D01*
X127518513Y-120123818D01*
X127512001Y-120184394D01*
X127512000Y-120184414D01*
X127512000Y-120531597D01*
X127518505Y-120592093D01*
X127569555Y-120728964D01*
X127569555Y-120728965D01*
X127657095Y-120845904D01*
X127774034Y-120933444D01*
X127851403Y-120962301D01*
X127908239Y-121004848D01*
X127933050Y-121071368D01*
X127932812Y-121092212D01*
X127932291Y-121097715D01*
X127936438Y-121229658D01*
X127936500Y-121233615D01*
X127936500Y-121456649D01*
X127943009Y-121517196D01*
X127943011Y-121517204D01*
X127994110Y-121654202D01*
X127994112Y-121654207D01*
X128081738Y-121771261D01*
X128198792Y-121858887D01*
X128198794Y-121858888D01*
X128198796Y-121858889D01*
X128257077Y-121880627D01*
X128335795Y-121909988D01*
X128335803Y-121909990D01*
X128389597Y-121915773D01*
X128455189Y-121942941D01*
X128465224Y-121951956D01*
X130078252Y-123564984D01*
X130091095Y-123580021D01*
X130103054Y-123596483D01*
X130103056Y-123596485D01*
X130103058Y-123596487D01*
X130137261Y-123624782D01*
X130146030Y-123632763D01*
X131153595Y-124640328D01*
X131187621Y-124702640D01*
X131190500Y-124729423D01*
X131190500Y-127293500D01*
X131170498Y-127361621D01*
X131116842Y-127408114D01*
X131064500Y-127419500D01*
X130927350Y-127419500D01*
X130866803Y-127426009D01*
X130866795Y-127426011D01*
X130729797Y-127477110D01*
X130729792Y-127477112D01*
X130612738Y-127564738D01*
X130525112Y-127681792D01*
X130525111Y-127681795D01*
X130481000Y-127800058D01*
X130438453Y-127856893D01*
X130371932Y-127881703D01*
X130302558Y-127866611D01*
X130270246Y-127841363D01*
X130209240Y-127775094D01*
X130209239Y-127775093D01*
X130209237Y-127775091D01*
X130127382Y-127711381D01*
X130031576Y-127636811D01*
X129833574Y-127529658D01*
X129833572Y-127529657D01*
X129833571Y-127529656D01*
X129620639Y-127456557D01*
X129620630Y-127456555D01*
X129542190Y-127443466D01*
X129398569Y-127419500D01*
X129173431Y-127419500D01*
X129152805Y-127422941D01*
X129093773Y-127432791D01*
X129023289Y-127424272D01*
X128983942Y-127397604D01*
X120941405Y-119355067D01*
X120907379Y-119292755D01*
X120904500Y-119265972D01*
X120904500Y-104204727D01*
X120905830Y-104186467D01*
X120907357Y-104176039D01*
X120909366Y-104162327D01*
X120904980Y-104112197D01*
X120904500Y-104101214D01*
X120904500Y-104095588D01*
X120900843Y-104064307D01*
X120900470Y-104060658D01*
X120893830Y-103984759D01*
X120893828Y-103984755D01*
X120892346Y-103977574D01*
X120892407Y-103977561D01*
X120890749Y-103970083D01*
X120890690Y-103970098D01*
X120888998Y-103962962D01*
X120888998Y-103962958D01*
X120862925Y-103891324D01*
X120861723Y-103887867D01*
X120855124Y-103867951D01*
X120837764Y-103815559D01*
X120837761Y-103815555D01*
X120834660Y-103808902D01*
X120834715Y-103808876D01*
X120831382Y-103801991D01*
X120831327Y-103802019D01*
X120828032Y-103795458D01*
X120799847Y-103752605D01*
X120786139Y-103731763D01*
X120784198Y-103728715D01*
X120766063Y-103699315D01*
X120744188Y-103663849D01*
X120739639Y-103658096D01*
X120739686Y-103658058D01*
X120734845Y-103652116D01*
X120734799Y-103652156D01*
X120730086Y-103646538D01*
X120674640Y-103594228D01*
X120672012Y-103591674D01*
X116846742Y-99766404D01*
X116834770Y-99752552D01*
X116820198Y-99732978D01*
X116820196Y-99732976D01*
X116781635Y-99700619D01*
X116773533Y-99693194D01*
X116769571Y-99689232D01*
X116769567Y-99689229D01*
X116769565Y-99689227D01*
X116744862Y-99669694D01*
X116742022Y-99667381D01*
X116683655Y-99618405D01*
X116677528Y-99614376D01*
X116677561Y-99614324D01*
X116671103Y-99610210D01*
X116671072Y-99610261D01*
X116664819Y-99606404D01*
X116595758Y-99574200D01*
X116592461Y-99572604D01*
X116524369Y-99538407D01*
X116517471Y-99535897D01*
X116517491Y-99535839D01*
X116510259Y-99533325D01*
X116510240Y-99533383D01*
X116503277Y-99531075D01*
X116428665Y-99515669D01*
X116425090Y-99514876D01*
X116350925Y-99497300D01*
X116343633Y-99496448D01*
X116343640Y-99496387D01*
X116336026Y-99495609D01*
X116336021Y-99495671D01*
X116328709Y-99495031D01*
X116252546Y-99497247D01*
X116248882Y-99497300D01*
X104909000Y-99497300D01*
X104840879Y-99477298D01*
X104794386Y-99423642D01*
X104783000Y-99371300D01*
X104783000Y-98361000D01*
X104803002Y-98292879D01*
X104856658Y-98246386D01*
X104909000Y-98235000D01*
X105877932Y-98235000D01*
X105877938Y-98235000D01*
X105877945Y-98234999D01*
X105877949Y-98234999D01*
X105938496Y-98228490D01*
X105938499Y-98228489D01*
X105938501Y-98228489D01*
X106075504Y-98177389D01*
X106192561Y-98089761D01*
X106192561Y-98089759D01*
X106192563Y-98089759D01*
X106198934Y-98083389D01*
X106201165Y-98085620D01*
X106245474Y-98052447D01*
X106289514Y-98044500D01*
X106904919Y-98044500D01*
X106973040Y-98064502D01*
X106978972Y-98068558D01*
X106985248Y-98073118D01*
X107159712Y-98150794D01*
X107346513Y-98190500D01*
X107537487Y-98190500D01*
X107724288Y-98150794D01*
X107898752Y-98073118D01*
X108053253Y-97960866D01*
X108077048Y-97934439D01*
X108181034Y-97818951D01*
X108181035Y-97818949D01*
X108181040Y-97818944D01*
X108276527Y-97653556D01*
X108335542Y-97471928D01*
X108355504Y-97282000D01*
X108335542Y-97092072D01*
X108276527Y-96910444D01*
X108181040Y-96745056D01*
X108181038Y-96745054D01*
X108181034Y-96745048D01*
X108053255Y-96603135D01*
X107898752Y-96490882D01*
X107724288Y-96413206D01*
X107537487Y-96373500D01*
X107346513Y-96373500D01*
X107159711Y-96413206D01*
X106985248Y-96490882D01*
X106978979Y-96495437D01*
X106912111Y-96519295D01*
X106904919Y-96519500D01*
X106463800Y-96519500D01*
X106395679Y-96499498D01*
X106349186Y-96445842D01*
X106337800Y-96393500D01*
X106337800Y-95518867D01*
X106337799Y-95518850D01*
X106331290Y-95458303D01*
X106331289Y-95458302D01*
X106331289Y-95458299D01*
X106317388Y-95421032D01*
X106312323Y-95350219D01*
X106317386Y-95332974D01*
X106331289Y-95295701D01*
X106337800Y-95235138D01*
X106337800Y-94248862D01*
X106335991Y-94232031D01*
X106331290Y-94188303D01*
X106331289Y-94188302D01*
X106331289Y-94188299D01*
X106317388Y-94151032D01*
X106312323Y-94080219D01*
X106317386Y-94062974D01*
X106331289Y-94025701D01*
X106334310Y-93997607D01*
X106337799Y-93965149D01*
X106337800Y-93965132D01*
X106337800Y-92978867D01*
X106337799Y-92978850D01*
X106331290Y-92918303D01*
X106331289Y-92918302D01*
X106331289Y-92918299D01*
X106317388Y-92881032D01*
X106312323Y-92810219D01*
X106317386Y-92792974D01*
X106331289Y-92755701D01*
X106337800Y-92695138D01*
X106337800Y-91708862D01*
X106331290Y-91648304D01*
X106331290Y-91648303D01*
X106331289Y-91648302D01*
X106331289Y-91648299D01*
X106317388Y-91611032D01*
X106312323Y-91540219D01*
X106317386Y-91522974D01*
X106331289Y-91485701D01*
X106337800Y-91425138D01*
X106337800Y-90438862D01*
X106331290Y-90378304D01*
X106331290Y-90378303D01*
X106331289Y-90378302D01*
X106331289Y-90378299D01*
X106317388Y-90341032D01*
X106312323Y-90270219D01*
X106317386Y-90252974D01*
X106331289Y-90215701D01*
X106337800Y-90155138D01*
X106337800Y-89168862D01*
X106331290Y-89108304D01*
X106331290Y-89108303D01*
X106331289Y-89108302D01*
X106331289Y-89108299D01*
X106317388Y-89071032D01*
X106312323Y-89000219D01*
X106317386Y-88982974D01*
X106331289Y-88945701D01*
X106337800Y-88885138D01*
X106337800Y-87898862D01*
X106331290Y-87838304D01*
X106331290Y-87838303D01*
X106331289Y-87838302D01*
X106331289Y-87838299D01*
X106317388Y-87801032D01*
X106312323Y-87730219D01*
X106317386Y-87712974D01*
X106331289Y-87675701D01*
X106337800Y-87615138D01*
X106337800Y-86628862D01*
X106337799Y-86628850D01*
X106331290Y-86568303D01*
X106331289Y-86568302D01*
X106331289Y-86568299D01*
X106317388Y-86531032D01*
X106312323Y-86460219D01*
X106317386Y-86442974D01*
X106331289Y-86405701D01*
X106337800Y-86345138D01*
X106337800Y-85358862D01*
X106331290Y-85298304D01*
X106331290Y-85298303D01*
X106331289Y-85298302D01*
X106331289Y-85298299D01*
X106317388Y-85261032D01*
X106312323Y-85190219D01*
X106317386Y-85172974D01*
X106331289Y-85135701D01*
X106337800Y-85075138D01*
X106337800Y-84088862D01*
X106337799Y-84088850D01*
X106331290Y-84028303D01*
X106331289Y-84028302D01*
X106331289Y-84028299D01*
X106317388Y-83991032D01*
X106312323Y-83920219D01*
X106317386Y-83902974D01*
X106331289Y-83865701D01*
X106337800Y-83805138D01*
X106337800Y-82818862D01*
X106337799Y-82818850D01*
X106331290Y-82758303D01*
X106331288Y-82758295D01*
X106280189Y-82621297D01*
X106280187Y-82621292D01*
X106192561Y-82504238D01*
X106075507Y-82416612D01*
X106075502Y-82416610D01*
X105938504Y-82365511D01*
X105938496Y-82365509D01*
X105877949Y-82359000D01*
X105877938Y-82359000D01*
X104909000Y-82359000D01*
X104840879Y-82338998D01*
X104794386Y-82285342D01*
X104783000Y-82233000D01*
X104783000Y-81724527D01*
X104803002Y-81656406D01*
X104819905Y-81635432D01*
X106153933Y-80301405D01*
X106216245Y-80267379D01*
X106243028Y-80264500D01*
X114749250Y-80264500D01*
X114817371Y-80284502D01*
G37*
%TD.AperFunction*%
%TA.AperFunction,Conductor*%
G36*
X104373554Y-101750302D02*
G01*
X104420047Y-101803958D01*
X104430151Y-101874232D01*
X104400657Y-101938812D01*
X104394529Y-101945393D01*
X103648506Y-102691416D01*
X102932725Y-103407197D01*
X102870413Y-103441223D01*
X102799597Y-103436158D01*
X102754535Y-103407197D01*
X102517403Y-103170065D01*
X102486665Y-103119907D01*
X102475513Y-103085585D01*
X102434527Y-102959444D01*
X102339040Y-102794056D01*
X102339038Y-102794054D01*
X102339034Y-102794048D01*
X102211255Y-102652135D01*
X102056752Y-102539882D01*
X101882288Y-102462206D01*
X101695487Y-102422500D01*
X101504513Y-102422500D01*
X101317711Y-102462206D01*
X101143247Y-102539882D01*
X100988744Y-102652135D01*
X100860965Y-102794048D01*
X100860958Y-102794058D01*
X100765476Y-102959438D01*
X100765473Y-102959445D01*
X100706457Y-103141072D01*
X100686496Y-103331000D01*
X100706457Y-103520927D01*
X100729177Y-103590850D01*
X100765473Y-103702556D01*
X100765476Y-103702561D01*
X100860958Y-103867941D01*
X100860965Y-103867951D01*
X100988744Y-104009864D01*
X100988747Y-104009866D01*
X101143248Y-104122118D01*
X101317712Y-104199794D01*
X101373586Y-104211670D01*
X101436060Y-104245398D01*
X101436485Y-104245822D01*
X102664095Y-105473433D01*
X102698121Y-105535745D01*
X102701000Y-105562528D01*
X102701000Y-105953544D01*
X102711612Y-106057425D01*
X102767385Y-106225738D01*
X102860470Y-106376652D01*
X102860475Y-106376658D01*
X102947722Y-106463905D01*
X102981748Y-106526217D01*
X102976683Y-106597032D01*
X102947722Y-106642095D01*
X102860475Y-106729341D01*
X102860470Y-106729347D01*
X102767385Y-106880262D01*
X102711613Y-107048572D01*
X102711612Y-107048579D01*
X102701000Y-107152446D01*
X102701000Y-107778544D01*
X102711612Y-107882425D01*
X102767385Y-108050738D01*
X102860470Y-108201652D01*
X102860475Y-108201658D01*
X102985841Y-108327024D01*
X102985847Y-108327029D01*
X102985848Y-108327030D01*
X103136762Y-108420115D01*
X103305074Y-108475887D01*
X103408955Y-108486500D01*
X104410044Y-108486499D01*
X104513926Y-108475887D01*
X104682238Y-108420115D01*
X104833152Y-108327030D01*
X104895278Y-108264903D01*
X104957588Y-108230880D01*
X104984372Y-108228000D01*
X105542328Y-108228000D01*
X105610449Y-108248002D01*
X105656942Y-108301658D01*
X105667046Y-108371932D01*
X105638852Y-108434989D01*
X105634104Y-108440647D01*
X105630074Y-108446775D01*
X105630023Y-108446742D01*
X105625905Y-108453206D01*
X105625955Y-108453237D01*
X105622105Y-108459478D01*
X105589894Y-108528554D01*
X105588298Y-108531851D01*
X105554105Y-108599934D01*
X105551595Y-108606832D01*
X105551539Y-108606811D01*
X105549025Y-108614045D01*
X105549082Y-108614064D01*
X105546776Y-108621021D01*
X105541258Y-108647746D01*
X105507893Y-108710414D01*
X105506957Y-108711360D01*
X105413970Y-108804347D01*
X105320885Y-108955262D01*
X105265113Y-109123572D01*
X105265112Y-109123579D01*
X105254500Y-109227446D01*
X105254500Y-110228544D01*
X105265112Y-110332425D01*
X105320885Y-110500738D01*
X105413970Y-110651652D01*
X105413975Y-110651658D01*
X105526722Y-110764405D01*
X105560748Y-110826717D01*
X105555683Y-110897532D01*
X105513136Y-110954368D01*
X105446616Y-110979179D01*
X105437627Y-110979500D01*
X102586925Y-110979500D01*
X102567215Y-110977949D01*
X102553806Y-110975825D01*
X102489822Y-110979179D01*
X102487006Y-110979327D01*
X102480414Y-110979500D01*
X102460380Y-110979500D01*
X102460376Y-110979500D01*
X102460362Y-110979501D01*
X102440451Y-110981593D01*
X102433882Y-110982110D01*
X102367086Y-110985611D01*
X102353975Y-110989124D01*
X102334545Y-110992725D01*
X102321047Y-110994144D01*
X102257417Y-111014818D01*
X102251096Y-111016690D01*
X102186475Y-111034006D01*
X102186473Y-111034006D01*
X102174378Y-111040169D01*
X102156123Y-111047730D01*
X102143221Y-111051922D01*
X102143207Y-111051929D01*
X102085271Y-111085377D01*
X102079477Y-111088523D01*
X102019876Y-111118891D01*
X102009331Y-111127431D01*
X101993042Y-111138626D01*
X101981292Y-111145410D01*
X101981281Y-111145418D01*
X101931575Y-111190172D01*
X101926569Y-111194448D01*
X101911000Y-111207057D01*
X101910991Y-111207065D01*
X101896822Y-111221233D01*
X101892043Y-111225768D01*
X101837424Y-111274948D01*
X101835627Y-111272952D01*
X101789154Y-111302481D01*
X101717118Y-111324333D01*
X101540533Y-111418720D01*
X101385748Y-111545748D01*
X101258720Y-111700533D01*
X101164334Y-111877116D01*
X101164332Y-111877122D01*
X101106206Y-112068736D01*
X101106206Y-112068738D01*
X101086582Y-112267996D01*
X101086582Y-112268003D01*
X101106206Y-112467261D01*
X101106206Y-112467263D01*
X101164332Y-112658877D01*
X101164334Y-112658883D01*
X101258720Y-112835466D01*
X101258722Y-112835469D01*
X101385748Y-112990252D01*
X101540531Y-113117278D01*
X101717120Y-113211667D01*
X101908731Y-113269792D01*
X101908735Y-113269792D01*
X101908737Y-113269793D01*
X102107997Y-113289418D01*
X102108000Y-113289418D01*
X102108003Y-113289418D01*
X102307261Y-113269793D01*
X102307263Y-113269793D01*
X102307264Y-113269792D01*
X102307269Y-113269792D01*
X102498880Y-113211667D01*
X102675469Y-113117278D01*
X102830252Y-112990252D01*
X102957278Y-112835469D01*
X102962818Y-112825105D01*
X103012569Y-112774456D01*
X103073940Y-112758500D01*
X105186445Y-112758500D01*
X105254566Y-112778502D01*
X105275540Y-112795404D01*
X105753595Y-113273458D01*
X105787620Y-113335771D01*
X105790500Y-113362554D01*
X105790500Y-113523218D01*
X105775622Y-113582613D01*
X105736334Y-113656115D01*
X105736330Y-113656124D01*
X105678208Y-113847727D01*
X105678206Y-113847738D01*
X105658582Y-114046996D01*
X105658582Y-114047003D01*
X105678206Y-114246261D01*
X105678206Y-114246263D01*
X105736332Y-114437877D01*
X105736334Y-114437883D01*
X105806026Y-114568267D01*
X105830722Y-114614469D01*
X105957748Y-114769252D01*
X106112531Y-114896278D01*
X106112533Y-114896279D01*
X106287342Y-114989717D01*
X106289120Y-114990667D01*
X106480731Y-115048792D01*
X106480735Y-115048792D01*
X106480737Y-115048793D01*
X106679997Y-115068418D01*
X106680000Y-115068418D01*
X106680003Y-115068418D01*
X106879261Y-115048793D01*
X106879263Y-115048792D01*
X106879269Y-115048792D01*
X106912663Y-115038662D01*
X107071924Y-114990351D01*
X107142918Y-114989717D01*
X107202984Y-115027566D01*
X107233052Y-115091881D01*
X107234500Y-115110925D01*
X107234500Y-120996971D01*
X107214498Y-121065092D01*
X107197595Y-121086066D01*
X103172056Y-125111604D01*
X103109744Y-125145630D01*
X103062224Y-125146791D01*
X103020630Y-125139851D01*
X102982569Y-125133500D01*
X102757431Y-125133500D01*
X102613810Y-125157466D01*
X102535369Y-125170555D01*
X102535360Y-125170557D01*
X102322428Y-125243656D01*
X102322426Y-125243658D01*
X102124426Y-125350810D01*
X102124424Y-125350811D01*
X101946762Y-125489091D01*
X101794279Y-125654729D01*
X101705483Y-125790643D01*
X101651479Y-125836731D01*
X101581131Y-125846306D01*
X101516774Y-125816329D01*
X101494517Y-125790643D01*
X101405720Y-125654729D01*
X101289570Y-125528559D01*
X101253240Y-125489094D01*
X101253239Y-125489093D01*
X101253237Y-125489091D01*
X101133367Y-125395792D01*
X101075576Y-125350811D01*
X100877574Y-125243658D01*
X100877572Y-125243657D01*
X100877571Y-125243656D01*
X100664639Y-125170557D01*
X100664630Y-125170555D01*
X100586190Y-125157466D01*
X100442569Y-125133500D01*
X100217431Y-125133500D01*
X100073810Y-125157466D01*
X99995369Y-125170555D01*
X99995360Y-125170557D01*
X99782428Y-125243656D01*
X99782426Y-125243658D01*
X99584426Y-125350810D01*
X99584424Y-125350811D01*
X99406762Y-125489091D01*
X99254279Y-125654729D01*
X99165183Y-125791101D01*
X99111179Y-125837189D01*
X99040831Y-125846764D01*
X98976474Y-125816786D01*
X98954217Y-125791100D01*
X98865327Y-125655044D01*
X98712902Y-125489465D01*
X98535301Y-125351232D01*
X98535300Y-125351231D01*
X98337371Y-125244117D01*
X98337369Y-125244116D01*
X98124512Y-125171043D01*
X98124501Y-125171040D01*
X98044000Y-125157606D01*
X98044000Y-126058325D01*
X97932315Y-126007320D01*
X97825763Y-125992000D01*
X97754237Y-125992000D01*
X97647685Y-126007320D01*
X97536000Y-126058325D01*
X97536000Y-125157607D01*
X97535999Y-125157606D01*
X97455498Y-125171040D01*
X97455487Y-125171043D01*
X97242630Y-125244116D01*
X97242628Y-125244117D01*
X97044699Y-125351231D01*
X97044698Y-125351232D01*
X96867096Y-125489465D01*
X96805951Y-125555888D01*
X96745098Y-125592459D01*
X96674134Y-125590324D01*
X96615588Y-125550163D01*
X96595195Y-125514583D01*
X96550889Y-125395796D01*
X96550887Y-125395792D01*
X96463261Y-125278738D01*
X96346207Y-125191112D01*
X96346202Y-125191110D01*
X96209204Y-125140011D01*
X96209196Y-125140009D01*
X96148649Y-125133500D01*
X96148638Y-125133500D01*
X95201633Y-125133500D01*
X95133512Y-125113498D01*
X95112538Y-125096595D01*
X89064405Y-119048462D01*
X89030379Y-118986150D01*
X89027500Y-118959367D01*
X89027500Y-106084633D01*
X89047502Y-106016512D01*
X89064405Y-105995538D01*
X90261538Y-104798405D01*
X90323850Y-104764379D01*
X90350633Y-104761500D01*
X90568451Y-104761500D01*
X90636572Y-104781502D01*
X90669319Y-104811991D01*
X90686738Y-104835261D01*
X90801448Y-104921132D01*
X90843995Y-104977968D01*
X90849059Y-105048784D01*
X90815034Y-105111096D01*
X90801448Y-105122868D01*
X90686738Y-105208738D01*
X90599112Y-105325792D01*
X90599110Y-105325797D01*
X90548011Y-105462795D01*
X90548009Y-105462803D01*
X90541500Y-105523350D01*
X90541500Y-106820649D01*
X90548009Y-106881196D01*
X90548011Y-106881204D01*
X90599110Y-107018202D01*
X90599112Y-107018207D01*
X90686738Y-107135261D01*
X90801448Y-107221132D01*
X90843995Y-107277968D01*
X90849059Y-107348784D01*
X90815034Y-107411096D01*
X90801448Y-107422868D01*
X90686738Y-107508738D01*
X90599112Y-107625792D01*
X90599110Y-107625797D01*
X90548011Y-107762795D01*
X90548009Y-107762803D01*
X90541500Y-107823350D01*
X90541500Y-109120649D01*
X90548009Y-109181196D01*
X90548011Y-109181204D01*
X90599110Y-109318202D01*
X90599112Y-109318207D01*
X90686738Y-109435261D01*
X90803792Y-109522887D01*
X90803794Y-109522888D01*
X90803796Y-109522889D01*
X90862875Y-109544924D01*
X90940795Y-109573988D01*
X90940803Y-109573990D01*
X91001350Y-109580499D01*
X91001355Y-109580499D01*
X91001362Y-109580500D01*
X91001368Y-109580500D01*
X93298632Y-109580500D01*
X93298638Y-109580500D01*
X93298645Y-109580499D01*
X93298649Y-109580499D01*
X93359196Y-109573990D01*
X93359199Y-109573989D01*
X93359201Y-109573989D01*
X93496204Y-109522889D01*
X93613261Y-109435261D01*
X93641162Y-109397989D01*
X93697996Y-109355445D01*
X93742029Y-109347500D01*
X93964220Y-109347500D01*
X94023615Y-109362377D01*
X94097120Y-109401667D01*
X94288731Y-109459792D01*
X94288735Y-109459792D01*
X94288737Y-109459793D01*
X94487997Y-109479418D01*
X94488000Y-109479418D01*
X94488003Y-109479418D01*
X94687261Y-109459793D01*
X94687263Y-109459793D01*
X94687264Y-109459792D01*
X94687269Y-109459792D01*
X94878880Y-109401667D01*
X95055469Y-109307278D01*
X95210252Y-109180252D01*
X95337278Y-109025469D01*
X95431667Y-108848880D01*
X95489792Y-108657269D01*
X95490730Y-108647746D01*
X95509418Y-108458003D01*
X95509418Y-108457996D01*
X95489793Y-108258738D01*
X95489793Y-108258736D01*
X95489792Y-108258733D01*
X95489792Y-108258731D01*
X95443188Y-108105101D01*
X96776107Y-108105101D01*
X96799553Y-108167961D01*
X96799555Y-108167965D01*
X96887095Y-108284904D01*
X97004034Y-108372444D01*
X97140906Y-108423494D01*
X97201402Y-108429999D01*
X97201415Y-108430000D01*
X99498585Y-108430000D01*
X99498597Y-108429999D01*
X99559093Y-108423494D01*
X99695964Y-108372444D01*
X99695965Y-108372444D01*
X99812904Y-108284904D01*
X99900444Y-108167964D01*
X99900446Y-108167960D01*
X99923891Y-108105100D01*
X98350001Y-106531210D01*
X98349999Y-106531210D01*
X96776107Y-108105100D01*
X96776107Y-108105101D01*
X95443188Y-108105101D01*
X95431667Y-108067120D01*
X95337278Y-107890531D01*
X95210252Y-107735748D01*
X95210251Y-107735747D01*
X95169566Y-107702357D01*
X95129597Y-107643679D01*
X95123500Y-107604958D01*
X95123500Y-104923209D01*
X96742000Y-104923209D01*
X96742000Y-107420790D01*
X97990790Y-106172001D01*
X98709210Y-106172001D01*
X99957999Y-107420790D01*
X99958000Y-107420790D01*
X99958000Y-104923210D01*
X99957999Y-104923209D01*
X98709210Y-106171999D01*
X98709210Y-106172001D01*
X97990790Y-106172001D01*
X97990790Y-106171999D01*
X96742000Y-104923209D01*
X95123500Y-104923209D01*
X95123500Y-104238898D01*
X96776107Y-104238898D01*
X98349999Y-105812790D01*
X98350001Y-105812790D01*
X99923891Y-104238898D01*
X99900446Y-104176039D01*
X99900444Y-104176035D01*
X99812904Y-104059095D01*
X99695965Y-103971555D01*
X99559093Y-103920505D01*
X99498597Y-103914000D01*
X97201402Y-103914000D01*
X97140906Y-103920505D01*
X97004035Y-103971555D01*
X97004034Y-103971555D01*
X96887095Y-104059095D01*
X96799553Y-104176037D01*
X96776107Y-104238897D01*
X96776107Y-104238898D01*
X95123500Y-104238898D01*
X95123500Y-103544633D01*
X95143502Y-103476512D01*
X95160401Y-103455541D01*
X95225180Y-103390761D01*
X95229925Y-103386258D01*
X95279669Y-103341470D01*
X95279669Y-103341469D01*
X95283676Y-103337862D01*
X95347684Y-103307146D01*
X95367985Y-103305500D01*
X98028220Y-103305500D01*
X98087615Y-103320377D01*
X98161120Y-103359667D01*
X98352731Y-103417792D01*
X98352735Y-103417792D01*
X98352737Y-103417793D01*
X98551997Y-103437418D01*
X98552000Y-103437418D01*
X98552003Y-103437418D01*
X98751261Y-103417793D01*
X98751263Y-103417793D01*
X98751264Y-103417792D01*
X98751269Y-103417792D01*
X98942880Y-103359667D01*
X99119469Y-103265278D01*
X99274252Y-103138252D01*
X99401278Y-102983469D01*
X99495667Y-102806880D01*
X99553792Y-102615269D01*
X99573418Y-102416000D01*
X99565596Y-102336584D01*
X99553793Y-102216738D01*
X99553793Y-102216736D01*
X99553792Y-102216733D01*
X99553792Y-102216731D01*
X99495667Y-102025120D01*
X99437177Y-101915693D01*
X99422706Y-101846191D01*
X99448109Y-101779894D01*
X99505322Y-101737856D01*
X99548300Y-101730300D01*
X104305433Y-101730300D01*
X104373554Y-101750302D01*
G37*
%TD.AperFunction*%
%TA.AperFunction,Conductor*%
G36*
X115345894Y-102458302D02*
G01*
X115366868Y-102475205D01*
X117780595Y-104888932D01*
X117814621Y-104951244D01*
X117817500Y-104978027D01*
X117817500Y-105387927D01*
X117800619Y-105450926D01*
X117745475Y-105546437D01*
X117686457Y-105728072D01*
X117666496Y-105918000D01*
X117686457Y-106107927D01*
X117707276Y-106171999D01*
X117745473Y-106289556D01*
X117745476Y-106289561D01*
X117840958Y-106454941D01*
X117840965Y-106454951D01*
X117968744Y-106596864D01*
X118090366Y-106685228D01*
X118133720Y-106741450D01*
X118139795Y-106812187D01*
X118106663Y-106874978D01*
X118105401Y-106876259D01*
X117349067Y-107632595D01*
X117286754Y-107666620D01*
X117259971Y-107669500D01*
X114134000Y-107669500D01*
X114065879Y-107649498D01*
X114019386Y-107595842D01*
X114008000Y-107543500D01*
X114007999Y-107152455D01*
X113997387Y-107048574D01*
X113997386Y-107048572D01*
X113941615Y-106880262D01*
X113848530Y-106729348D01*
X113848529Y-106729347D01*
X113848524Y-106729341D01*
X113761278Y-106642095D01*
X113727252Y-106579783D01*
X113732317Y-106508968D01*
X113761278Y-106463905D01*
X113848524Y-106376658D01*
X113848530Y-106376652D01*
X113941615Y-106225738D01*
X113997387Y-106057426D01*
X114008000Y-105953545D01*
X114007999Y-105327456D01*
X114007829Y-105325796D01*
X113997387Y-105223574D01*
X113964017Y-105122868D01*
X113941615Y-105055262D01*
X113848530Y-104904348D01*
X113848529Y-104904347D01*
X113848524Y-104904341D01*
X113723159Y-104778976D01*
X113723154Y-104778972D01*
X113723152Y-104778970D01*
X113723149Y-104778968D01*
X113717557Y-104774547D01*
X113676527Y-104716607D01*
X113673334Y-104645683D01*
X113675863Y-104636795D01*
X113693042Y-104583928D01*
X113713004Y-104394000D01*
X113693042Y-104204072D01*
X113634027Y-104022444D01*
X113538540Y-103857056D01*
X113538538Y-103857054D01*
X113538534Y-103857048D01*
X113410755Y-103715135D01*
X113256252Y-103602882D01*
X113081788Y-103525206D01*
X112894987Y-103485500D01*
X112704013Y-103485500D01*
X112517211Y-103525206D01*
X112342747Y-103602882D01*
X112188244Y-103715135D01*
X112060465Y-103857048D01*
X112060458Y-103857058D01*
X111964976Y-104022438D01*
X111964973Y-104022444D01*
X111963098Y-104028214D01*
X111905957Y-104204072D01*
X111885996Y-104394000D01*
X111905957Y-104583930D01*
X111923127Y-104636773D01*
X111925154Y-104707741D01*
X111888491Y-104768538D01*
X111881449Y-104774540D01*
X111875847Y-104778969D01*
X111750475Y-104904341D01*
X111750470Y-104904347D01*
X111657385Y-105055262D01*
X111601613Y-105223572D01*
X111601612Y-105223579D01*
X111591000Y-105327446D01*
X111591000Y-105953544D01*
X111601612Y-106057425D01*
X111657385Y-106225738D01*
X111750470Y-106376652D01*
X111750475Y-106376658D01*
X111837722Y-106463905D01*
X111871748Y-106526217D01*
X111866683Y-106597032D01*
X111837722Y-106642095D01*
X111776222Y-106703595D01*
X111713910Y-106737621D01*
X111687127Y-106740500D01*
X110149485Y-106740500D01*
X110114333Y-106735497D01*
X109983332Y-106697438D01*
X109983328Y-106697437D01*
X109946011Y-106694500D01*
X109946002Y-106694500D01*
X108789000Y-106694500D01*
X108720879Y-106674498D01*
X108674386Y-106620842D01*
X108663000Y-106568500D01*
X108663000Y-106537500D01*
X108683002Y-106469379D01*
X108736658Y-106422886D01*
X108789000Y-106411500D01*
X109946011Y-106411500D01*
X109946011Y-106411499D01*
X109983331Y-106408562D01*
X110143101Y-106362145D01*
X110143103Y-106362143D01*
X110143105Y-106362143D01*
X110249584Y-106299171D01*
X110286307Y-106277453D01*
X110403953Y-106159807D01*
X110464505Y-106057420D01*
X110488643Y-106016605D01*
X110488643Y-106016603D01*
X110488645Y-106016601D01*
X110535062Y-105856831D01*
X110537999Y-105819511D01*
X110538000Y-105819511D01*
X110538000Y-105386489D01*
X110537999Y-105386488D01*
X110537819Y-105384206D01*
X110535062Y-105349169D01*
X110488645Y-105189399D01*
X110488643Y-105189397D01*
X110488643Y-105189394D01*
X110403955Y-105046196D01*
X110403950Y-105046189D01*
X110286310Y-104928549D01*
X110286303Y-104928544D01*
X110143105Y-104843856D01*
X109983329Y-104797437D01*
X109946011Y-104794500D01*
X109946002Y-104794500D01*
X109614028Y-104794500D01*
X109545907Y-104774498D01*
X109524933Y-104757595D01*
X108667942Y-103900604D01*
X108655970Y-103886752D01*
X108641966Y-103867941D01*
X108641398Y-103867178D01*
X108641396Y-103867176D01*
X108602835Y-103834819D01*
X108594733Y-103827394D01*
X108590771Y-103823432D01*
X108590767Y-103823429D01*
X108590765Y-103823427D01*
X108566062Y-103803894D01*
X108563222Y-103801581D01*
X108504855Y-103752605D01*
X108498728Y-103748576D01*
X108498761Y-103748524D01*
X108492303Y-103744410D01*
X108492272Y-103744461D01*
X108486019Y-103740604D01*
X108416958Y-103708400D01*
X108413661Y-103706804D01*
X108345569Y-103672607D01*
X108338671Y-103670097D01*
X108338691Y-103670039D01*
X108331459Y-103667525D01*
X108331440Y-103667583D01*
X108324477Y-103665275D01*
X108249865Y-103649869D01*
X108246290Y-103649076D01*
X108172125Y-103631500D01*
X108164833Y-103630648D01*
X108164840Y-103630587D01*
X108157226Y-103629809D01*
X108157221Y-103629871D01*
X108149909Y-103629231D01*
X108073746Y-103631447D01*
X108070082Y-103631500D01*
X105169288Y-103631500D01*
X105101167Y-103611498D01*
X105054674Y-103557842D01*
X105044570Y-103487568D01*
X105074064Y-103422988D01*
X105080177Y-103416421D01*
X106021396Y-102475202D01*
X106083706Y-102441179D01*
X106110489Y-102438300D01*
X115277773Y-102438300D01*
X115345894Y-102458302D01*
G37*
%TD.AperFunction*%
%TA.AperFunction,Conductor*%
G36*
X93079025Y-100284386D02*
G01*
X93116299Y-100298289D01*
X93116302Y-100298289D01*
X93116303Y-100298290D01*
X93176850Y-100304799D01*
X93176855Y-100304799D01*
X93176862Y-100304800D01*
X93176868Y-100304800D01*
X94163132Y-100304800D01*
X94163138Y-100304800D01*
X94218943Y-100298800D01*
X94288810Y-100311405D01*
X94331565Y-100350530D01*
X94333259Y-100349191D01*
X94342362Y-100360703D01*
X94342314Y-100360740D01*
X94347154Y-100366681D01*
X94347200Y-100366643D01*
X94351915Y-100372262D01*
X94407374Y-100424586D01*
X94409968Y-100427105D01*
X95294269Y-101311406D01*
X95328293Y-101373717D01*
X95323228Y-101444533D01*
X95280681Y-101501368D01*
X95214161Y-101526179D01*
X95205172Y-101526500D01*
X95021925Y-101526500D01*
X95002214Y-101524949D01*
X94988805Y-101522825D01*
X94923850Y-101526230D01*
X94922000Y-101526327D01*
X94915407Y-101526500D01*
X94895372Y-101526500D01*
X94875462Y-101528593D01*
X94868886Y-101529110D01*
X94802087Y-101532610D01*
X94788968Y-101536125D01*
X94769538Y-101539726D01*
X94756042Y-101541144D01*
X94692426Y-101561815D01*
X94686104Y-101563688D01*
X94672625Y-101567300D01*
X94621476Y-101581006D01*
X94621475Y-101581006D01*
X94621473Y-101581007D01*
X94609381Y-101587168D01*
X94591120Y-101594731D01*
X94578217Y-101598923D01*
X94578213Y-101598925D01*
X94520275Y-101632375D01*
X94514481Y-101635521D01*
X94454874Y-101665893D01*
X94444331Y-101674431D01*
X94428042Y-101685626D01*
X94416292Y-101692410D01*
X94416281Y-101692418D01*
X94366575Y-101737172D01*
X94361569Y-101741448D01*
X94346000Y-101754057D01*
X94345991Y-101754065D01*
X94331822Y-101768233D01*
X94327040Y-101772771D01*
X94320005Y-101779105D01*
X94255997Y-101809820D01*
X94185543Y-101801054D01*
X94142866Y-101766831D01*
X94141086Y-101768435D01*
X94136671Y-101763531D01*
X94086938Y-101718751D01*
X94082154Y-101714210D01*
X94068013Y-101700069D01*
X94068007Y-101700064D01*
X94064264Y-101697033D01*
X94052444Y-101687460D01*
X94047434Y-101683182D01*
X94044646Y-101680672D01*
X93997715Y-101638415D01*
X93985961Y-101631629D01*
X93969667Y-101620430D01*
X93959123Y-101611891D01*
X93899520Y-101581523D01*
X93893739Y-101578385D01*
X93835785Y-101544925D01*
X93822872Y-101540729D01*
X93804613Y-101533165D01*
X93792524Y-101527006D01*
X93792521Y-101527005D01*
X93727906Y-101509691D01*
X93721582Y-101507818D01*
X93657957Y-101487144D01*
X93644463Y-101485726D01*
X93625033Y-101482125D01*
X93611919Y-101478611D01*
X93611908Y-101478610D01*
X93545112Y-101475110D01*
X93538534Y-101474593D01*
X93518623Y-101472500D01*
X93518620Y-101472500D01*
X93498593Y-101472500D01*
X93491999Y-101472327D01*
X93489793Y-101472211D01*
X93425191Y-101468825D01*
X93411786Y-101470949D01*
X93392075Y-101472500D01*
X90621499Y-101472500D01*
X90553378Y-101452498D01*
X90506885Y-101398842D01*
X90496781Y-101328568D01*
X90526275Y-101263988D01*
X90527863Y-101262190D01*
X90655034Y-101120951D01*
X90655035Y-101120949D01*
X90655040Y-101120944D01*
X90750527Y-100955556D01*
X90809542Y-100773928D01*
X90829504Y-100584000D01*
X90819685Y-100490574D01*
X90814787Y-100443970D01*
X90827560Y-100374131D01*
X90876062Y-100322285D01*
X90940097Y-100304800D01*
X91623132Y-100304800D01*
X91623138Y-100304800D01*
X91623145Y-100304799D01*
X91623149Y-100304799D01*
X91683696Y-100298290D01*
X91683696Y-100298289D01*
X91683701Y-100298289D01*
X91720967Y-100284388D01*
X91791781Y-100279323D01*
X91809025Y-100284386D01*
X91846299Y-100298289D01*
X91846302Y-100298289D01*
X91846303Y-100298290D01*
X91906850Y-100304799D01*
X91906855Y-100304799D01*
X91906862Y-100304800D01*
X91906868Y-100304800D01*
X92893132Y-100304800D01*
X92893138Y-100304800D01*
X92893145Y-100304799D01*
X92893149Y-100304799D01*
X92953696Y-100298290D01*
X92953696Y-100298289D01*
X92953701Y-100298289D01*
X92990967Y-100284388D01*
X93061781Y-100279323D01*
X93079025Y-100284386D01*
G37*
%TD.AperFunction*%
%TA.AperFunction,Conductor*%
G36*
X102310594Y-71897002D02*
G01*
X102331568Y-71913905D01*
X105132067Y-74714405D01*
X105166093Y-74776717D01*
X105161028Y-74847533D01*
X105118481Y-74904368D01*
X105051961Y-74929179D01*
X105042972Y-74929500D01*
X100758227Y-74929500D01*
X100739967Y-74928170D01*
X100715828Y-74924634D01*
X100715820Y-74924634D01*
X100675412Y-74928170D01*
X100665696Y-74929020D01*
X100654715Y-74929500D01*
X100649088Y-74929500D01*
X100618858Y-74933032D01*
X100617786Y-74933158D01*
X100614146Y-74933529D01*
X100538264Y-74940168D01*
X100531078Y-74941653D01*
X100531065Y-74941594D01*
X100523581Y-74943253D01*
X100523595Y-74943311D01*
X100516454Y-74945003D01*
X100444801Y-74971082D01*
X100441369Y-74972274D01*
X100417743Y-74980103D01*
X100369056Y-74996236D01*
X100362410Y-74999336D01*
X100362385Y-74999282D01*
X100355491Y-75002619D01*
X100355518Y-75002672D01*
X100348965Y-75005963D01*
X100285310Y-75047828D01*
X100282225Y-75049793D01*
X100217353Y-75089809D01*
X100211597Y-75094361D01*
X100211560Y-75094314D01*
X100205622Y-75099150D01*
X100205661Y-75099196D01*
X100200040Y-75103913D01*
X100147744Y-75159341D01*
X100145193Y-75161967D01*
X99706567Y-75600595D01*
X99644255Y-75634620D01*
X99617471Y-75637500D01*
X99486500Y-75637500D01*
X99418379Y-75617498D01*
X99371886Y-75563842D01*
X99360500Y-75511500D01*
X99360500Y-74354489D01*
X99360499Y-74354488D01*
X99357562Y-74317171D01*
X99357561Y-74317167D01*
X99349036Y-74287824D01*
X99336764Y-74245581D01*
X99319503Y-74186166D01*
X99314500Y-74151014D01*
X99314500Y-73112252D01*
X99334502Y-73044131D01*
X99374350Y-73005013D01*
X99475652Y-72942530D01*
X99601030Y-72817152D01*
X99694115Y-72666238D01*
X99749887Y-72497926D01*
X99760500Y-72394045D01*
X99760499Y-72002999D01*
X99780501Y-71934880D01*
X99834156Y-71888387D01*
X99886499Y-71877000D01*
X102242473Y-71877000D01*
X102310594Y-71897002D01*
G37*
%TD.AperFunction*%
%TD*%
M02*
