M48
; DRILL file {KiCad 7.0.10} date Mon Mar  4 00:36:16 2024
; FORMAT={-:-/ absolute / inch / decimal}
; #@! TF.CreationDate,2024-03-04T00:36:16-06:00
; #@! TF.GenerationSoftware,Kicad,Pcbnew,7.0.10
; #@! TF.FileFunction,Plated,1,2,PTH
FMAT,2
INCH
; #@! TA.AperFunction,Plated,PTH,ViaDrill
T1C0.0157
; #@! TA.AperFunction,Plated,PTH,ViaDrill
T2C0.0200
; #@! TA.AperFunction,Plated,PTH,ComponentDrill
T3C0.0394
; #@! TA.AperFunction,Plated,PTH,ComponentDrill
T4C0.0433
%
G90
G05
T1
X3.2Y-4.02
X3.2Y-4.71
X3.47Y-3.31
X3.53Y-4.32
X3.54Y-3.96
X3.55Y-2.91
X3.59Y-3.29
X3.59Y-3.98
X3.63Y-3.48
X3.64Y-3.29
X3.64Y-3.84
X3.65Y-4.43
X3.67Y-3.41
X3.67Y-3.72
X3.68Y-3.79
X3.7Y-3.13
X3.71Y-3.98
X3.75Y-4.74
X3.76Y-3.78
X3.79Y-3.28
X3.83Y-3.47
X3.86Y-3.28
X3.86Y-3.36
X3.94Y-4.32
X3.95Y-3.28
X3.98Y-3.42
X3.99Y-2.89
X4.0Y-4.0681
X4.02Y-3.64
X4.04Y-4.54
X4.05Y-3.78
X4.06Y-3.3
X4.06Y-4.8
X4.09Y-2.8
X4.1036Y-4.11
X4.12Y-2.94
X4.2Y-4.06
X4.23Y-3.83
X4.39Y-4.6
X4.4409Y-4.11
X4.45Y-2.98
X4.51Y-3.53
X4.51Y-4.37
X4.51Y-4.81
X4.53Y-2.98
X4.55Y-3.14
X4.55Y-4.08
X4.59Y-2.93
X4.61Y-4.22
X4.6685Y-4.17
X4.79Y-4.32
X4.83Y-3.62
X4.86Y-4.52
X5.04Y-2.94
X5.46Y-3.98
X5.46Y-4.5
X5.49Y-3.32
T2
X3.72Y-4.27
X3.88Y-4.0321
X4.02Y-4.42
X4.2Y-4.49
T3
X3.33Y-4.21
X3.33Y-4.31
X3.33Y-4.41
X3.33Y-4.51
X3.33Y-4.61
X3.33Y-4.71
X3.75Y-4.98
X3.85Y-4.98
X3.95Y-4.98
X4.05Y-4.98
X4.34Y-2.78
X4.44Y-2.78
X4.54Y-2.78
X4.64Y-2.78
X4.99Y-5.07
X5.09Y-5.07
X5.19Y-5.07
T4
X4.9914Y-3.752
X4.9914Y-4.008
X4.9914Y-4.202
X4.9914Y-4.458
X5.1686Y-3.752
X5.1686Y-4.008
X5.1686Y-4.202
X5.1686Y-4.458
M30
