%TF.GenerationSoftware,KiCad,Pcbnew,7.0.10*%
%TF.CreationDate,2024-03-04T00:36:13-06:00*%
%TF.ProjectId,ESP32,45535033-322e-46b6-9963-61645f706362,rev?*%
%TF.SameCoordinates,Original*%
%TF.FileFunction,Legend,Bot*%
%TF.FilePolarity,Positive*%
%FSLAX46Y46*%
G04 Gerber Fmt 4.6, Leading zero omitted, Abs format (unit mm)*
G04 Created by KiCad (PCBNEW 7.0.10) date 2024-03-04 00:36:13*
%MOMM*%
%LPD*%
G01*
G04 APERTURE LIST*
%ADD10C,0.300000*%
%ADD11C,0.150000*%
%ADD12C,0.120000*%
G04 APERTURE END LIST*
D10*
X135026114Y-88430510D02*
X135097542Y-88644796D01*
X135097542Y-88644796D02*
X135168971Y-88716225D01*
X135168971Y-88716225D02*
X135311828Y-88787653D01*
X135311828Y-88787653D02*
X135526114Y-88787653D01*
X135526114Y-88787653D02*
X135668971Y-88716225D01*
X135668971Y-88716225D02*
X135740400Y-88644796D01*
X135740400Y-88644796D02*
X135811828Y-88501939D01*
X135811828Y-88501939D02*
X135811828Y-87930510D01*
X135811828Y-87930510D02*
X134311828Y-87930510D01*
X134311828Y-87930510D02*
X134311828Y-88430510D01*
X134311828Y-88430510D02*
X134383257Y-88573368D01*
X134383257Y-88573368D02*
X134454685Y-88644796D01*
X134454685Y-88644796D02*
X134597542Y-88716225D01*
X134597542Y-88716225D02*
X134740400Y-88716225D01*
X134740400Y-88716225D02*
X134883257Y-88644796D01*
X134883257Y-88644796D02*
X134954685Y-88573368D01*
X134954685Y-88573368D02*
X135026114Y-88430510D01*
X135026114Y-88430510D02*
X135026114Y-87930510D01*
X135740400Y-90001939D02*
X135811828Y-89859082D01*
X135811828Y-89859082D02*
X135811828Y-89573368D01*
X135811828Y-89573368D02*
X135740400Y-89430510D01*
X135740400Y-89430510D02*
X135597542Y-89359082D01*
X135597542Y-89359082D02*
X135026114Y-89359082D01*
X135026114Y-89359082D02*
X134883257Y-89430510D01*
X134883257Y-89430510D02*
X134811828Y-89573368D01*
X134811828Y-89573368D02*
X134811828Y-89859082D01*
X134811828Y-89859082D02*
X134883257Y-90001939D01*
X134883257Y-90001939D02*
X135026114Y-90073368D01*
X135026114Y-90073368D02*
X135168971Y-90073368D01*
X135168971Y-90073368D02*
X135311828Y-89359082D01*
X134811828Y-90716224D02*
X135811828Y-90716224D01*
X134954685Y-90716224D02*
X134883257Y-90787653D01*
X134883257Y-90787653D02*
X134811828Y-90930510D01*
X134811828Y-90930510D02*
X134811828Y-91144796D01*
X134811828Y-91144796D02*
X134883257Y-91287653D01*
X134883257Y-91287653D02*
X135026114Y-91359082D01*
X135026114Y-91359082D02*
X135811828Y-91359082D01*
X134811828Y-92073367D02*
X136097542Y-92073367D01*
X136097542Y-92073367D02*
X136240400Y-92001939D01*
X136240400Y-92001939D02*
X136311828Y-91859082D01*
X136311828Y-91859082D02*
X136311828Y-91787653D01*
X134311828Y-92073367D02*
X134383257Y-92001939D01*
X134383257Y-92001939D02*
X134454685Y-92073367D01*
X134454685Y-92073367D02*
X134383257Y-92144796D01*
X134383257Y-92144796D02*
X134311828Y-92073367D01*
X134311828Y-92073367D02*
X134454685Y-92073367D01*
X135811828Y-93430511D02*
X135026114Y-93430511D01*
X135026114Y-93430511D02*
X134883257Y-93359082D01*
X134883257Y-93359082D02*
X134811828Y-93216225D01*
X134811828Y-93216225D02*
X134811828Y-92930511D01*
X134811828Y-92930511D02*
X134883257Y-92787653D01*
X135740400Y-93430511D02*
X135811828Y-93287653D01*
X135811828Y-93287653D02*
X135811828Y-92930511D01*
X135811828Y-92930511D02*
X135740400Y-92787653D01*
X135740400Y-92787653D02*
X135597542Y-92716225D01*
X135597542Y-92716225D02*
X135454685Y-92716225D01*
X135454685Y-92716225D02*
X135311828Y-92787653D01*
X135311828Y-92787653D02*
X135240400Y-92930511D01*
X135240400Y-92930511D02*
X135240400Y-93287653D01*
X135240400Y-93287653D02*
X135168971Y-93430511D01*
X135811828Y-94144796D02*
X134811828Y-94144796D01*
X134954685Y-94144796D02*
X134883257Y-94216225D01*
X134883257Y-94216225D02*
X134811828Y-94359082D01*
X134811828Y-94359082D02*
X134811828Y-94573368D01*
X134811828Y-94573368D02*
X134883257Y-94716225D01*
X134883257Y-94716225D02*
X135026114Y-94787654D01*
X135026114Y-94787654D02*
X135811828Y-94787654D01*
X135026114Y-94787654D02*
X134883257Y-94859082D01*
X134883257Y-94859082D02*
X134811828Y-95001939D01*
X134811828Y-95001939D02*
X134811828Y-95216225D01*
X134811828Y-95216225D02*
X134883257Y-95359082D01*
X134883257Y-95359082D02*
X135026114Y-95430511D01*
X135026114Y-95430511D02*
X135811828Y-95430511D01*
X135811828Y-96144796D02*
X134811828Y-96144796D01*
X134311828Y-96144796D02*
X134383257Y-96073368D01*
X134383257Y-96073368D02*
X134454685Y-96144796D01*
X134454685Y-96144796D02*
X134383257Y-96216225D01*
X134383257Y-96216225D02*
X134311828Y-96144796D01*
X134311828Y-96144796D02*
X134454685Y-96144796D01*
X134811828Y-96859082D02*
X135811828Y-96859082D01*
X134954685Y-96859082D02*
X134883257Y-96930511D01*
X134883257Y-96930511D02*
X134811828Y-97073368D01*
X134811828Y-97073368D02*
X134811828Y-97287654D01*
X134811828Y-97287654D02*
X134883257Y-97430511D01*
X134883257Y-97430511D02*
X135026114Y-97501940D01*
X135026114Y-97501940D02*
X135811828Y-97501940D01*
X134383257Y-100144797D02*
X134311828Y-100001940D01*
X134311828Y-100001940D02*
X134311828Y-99787654D01*
X134311828Y-99787654D02*
X134383257Y-99573368D01*
X134383257Y-99573368D02*
X134526114Y-99430511D01*
X134526114Y-99430511D02*
X134668971Y-99359082D01*
X134668971Y-99359082D02*
X134954685Y-99287654D01*
X134954685Y-99287654D02*
X135168971Y-99287654D01*
X135168971Y-99287654D02*
X135454685Y-99359082D01*
X135454685Y-99359082D02*
X135597542Y-99430511D01*
X135597542Y-99430511D02*
X135740400Y-99573368D01*
X135740400Y-99573368D02*
X135811828Y-99787654D01*
X135811828Y-99787654D02*
X135811828Y-99930511D01*
X135811828Y-99930511D02*
X135740400Y-100144797D01*
X135740400Y-100144797D02*
X135668971Y-100216225D01*
X135668971Y-100216225D02*
X135168971Y-100216225D01*
X135168971Y-100216225D02*
X135168971Y-99930511D01*
X135811828Y-101501940D02*
X135026114Y-101501940D01*
X135026114Y-101501940D02*
X134883257Y-101430511D01*
X134883257Y-101430511D02*
X134811828Y-101287654D01*
X134811828Y-101287654D02*
X134811828Y-101001940D01*
X134811828Y-101001940D02*
X134883257Y-100859082D01*
X135740400Y-101501940D02*
X135811828Y-101359082D01*
X135811828Y-101359082D02*
X135811828Y-101001940D01*
X135811828Y-101001940D02*
X135740400Y-100859082D01*
X135740400Y-100859082D02*
X135597542Y-100787654D01*
X135597542Y-100787654D02*
X135454685Y-100787654D01*
X135454685Y-100787654D02*
X135311828Y-100859082D01*
X135311828Y-100859082D02*
X135240400Y-101001940D01*
X135240400Y-101001940D02*
X135240400Y-101359082D01*
X135240400Y-101359082D02*
X135168971Y-101501940D01*
X135811828Y-102430511D02*
X135740400Y-102287654D01*
X135740400Y-102287654D02*
X135668971Y-102216225D01*
X135668971Y-102216225D02*
X135526114Y-102144797D01*
X135526114Y-102144797D02*
X135097542Y-102144797D01*
X135097542Y-102144797D02*
X134954685Y-102216225D01*
X134954685Y-102216225D02*
X134883257Y-102287654D01*
X134883257Y-102287654D02*
X134811828Y-102430511D01*
X134811828Y-102430511D02*
X134811828Y-102644797D01*
X134811828Y-102644797D02*
X134883257Y-102787654D01*
X134883257Y-102787654D02*
X134954685Y-102859083D01*
X134954685Y-102859083D02*
X135097542Y-102930511D01*
X135097542Y-102930511D02*
X135526114Y-102930511D01*
X135526114Y-102930511D02*
X135668971Y-102859083D01*
X135668971Y-102859083D02*
X135740400Y-102787654D01*
X135740400Y-102787654D02*
X135811828Y-102644797D01*
X135811828Y-102644797D02*
X135811828Y-102430511D01*
X135811828Y-104716225D02*
X134311828Y-104716225D01*
X134883257Y-104716225D02*
X134811828Y-104859083D01*
X134811828Y-104859083D02*
X134811828Y-105144797D01*
X134811828Y-105144797D02*
X134883257Y-105287654D01*
X134883257Y-105287654D02*
X134954685Y-105359083D01*
X134954685Y-105359083D02*
X135097542Y-105430511D01*
X135097542Y-105430511D02*
X135526114Y-105430511D01*
X135526114Y-105430511D02*
X135668971Y-105359083D01*
X135668971Y-105359083D02*
X135740400Y-105287654D01*
X135740400Y-105287654D02*
X135811828Y-105144797D01*
X135811828Y-105144797D02*
X135811828Y-104859083D01*
X135811828Y-104859083D02*
X135740400Y-104716225D01*
X134811828Y-106716226D02*
X136026114Y-106716226D01*
X136026114Y-106716226D02*
X136168971Y-106644797D01*
X136168971Y-106644797D02*
X136240400Y-106573368D01*
X136240400Y-106573368D02*
X136311828Y-106430511D01*
X136311828Y-106430511D02*
X136311828Y-106216226D01*
X136311828Y-106216226D02*
X136240400Y-106073368D01*
X135740400Y-106716226D02*
X135811828Y-106573368D01*
X135811828Y-106573368D02*
X135811828Y-106287654D01*
X135811828Y-106287654D02*
X135740400Y-106144797D01*
X135740400Y-106144797D02*
X135668971Y-106073368D01*
X135668971Y-106073368D02*
X135526114Y-106001940D01*
X135526114Y-106001940D02*
X135097542Y-106001940D01*
X135097542Y-106001940D02*
X134954685Y-106073368D01*
X134954685Y-106073368D02*
X134883257Y-106144797D01*
X134883257Y-106144797D02*
X134811828Y-106287654D01*
X134811828Y-106287654D02*
X134811828Y-106573368D01*
X134811828Y-106573368D02*
X134883257Y-106716226D01*
X135811828Y-108073369D02*
X135026114Y-108073369D01*
X135026114Y-108073369D02*
X134883257Y-108001940D01*
X134883257Y-108001940D02*
X134811828Y-107859083D01*
X134811828Y-107859083D02*
X134811828Y-107573369D01*
X134811828Y-107573369D02*
X134883257Y-107430511D01*
X135740400Y-108073369D02*
X135811828Y-107930511D01*
X135811828Y-107930511D02*
X135811828Y-107573369D01*
X135811828Y-107573369D02*
X135740400Y-107430511D01*
X135740400Y-107430511D02*
X135597542Y-107359083D01*
X135597542Y-107359083D02*
X135454685Y-107359083D01*
X135454685Y-107359083D02*
X135311828Y-107430511D01*
X135311828Y-107430511D02*
X135240400Y-107573369D01*
X135240400Y-107573369D02*
X135240400Y-107930511D01*
X135240400Y-107930511D02*
X135168971Y-108073369D01*
X135811828Y-109001940D02*
X135740400Y-108859083D01*
X135740400Y-108859083D02*
X135668971Y-108787654D01*
X135668971Y-108787654D02*
X135526114Y-108716226D01*
X135526114Y-108716226D02*
X135097542Y-108716226D01*
X135097542Y-108716226D02*
X134954685Y-108787654D01*
X134954685Y-108787654D02*
X134883257Y-108859083D01*
X134883257Y-108859083D02*
X134811828Y-109001940D01*
X134811828Y-109001940D02*
X134811828Y-109216226D01*
X134811828Y-109216226D02*
X134883257Y-109359083D01*
X134883257Y-109359083D02*
X134954685Y-109430512D01*
X134954685Y-109430512D02*
X135097542Y-109501940D01*
X135097542Y-109501940D02*
X135526114Y-109501940D01*
X135526114Y-109501940D02*
X135668971Y-109430512D01*
X135668971Y-109430512D02*
X135740400Y-109359083D01*
X135740400Y-109359083D02*
X135811828Y-109216226D01*
X135811828Y-109216226D02*
X135811828Y-109001940D01*
X134954685Y-110359083D02*
X134883257Y-110216226D01*
X134883257Y-110216226D02*
X134811828Y-110144797D01*
X134811828Y-110144797D02*
X134668971Y-110073369D01*
X134668971Y-110073369D02*
X134597542Y-110073369D01*
X134597542Y-110073369D02*
X134454685Y-110144797D01*
X134454685Y-110144797D02*
X134383257Y-110216226D01*
X134383257Y-110216226D02*
X134311828Y-110359083D01*
X134311828Y-110359083D02*
X134311828Y-110644797D01*
X134311828Y-110644797D02*
X134383257Y-110787655D01*
X134383257Y-110787655D02*
X134454685Y-110859083D01*
X134454685Y-110859083D02*
X134597542Y-110930512D01*
X134597542Y-110930512D02*
X134668971Y-110930512D01*
X134668971Y-110930512D02*
X134811828Y-110859083D01*
X134811828Y-110859083D02*
X134883257Y-110787655D01*
X134883257Y-110787655D02*
X134954685Y-110644797D01*
X134954685Y-110644797D02*
X134954685Y-110359083D01*
X134954685Y-110359083D02*
X135026114Y-110216226D01*
X135026114Y-110216226D02*
X135097542Y-110144797D01*
X135097542Y-110144797D02*
X135240400Y-110073369D01*
X135240400Y-110073369D02*
X135526114Y-110073369D01*
X135526114Y-110073369D02*
X135668971Y-110144797D01*
X135668971Y-110144797D02*
X135740400Y-110216226D01*
X135740400Y-110216226D02*
X135811828Y-110359083D01*
X135811828Y-110359083D02*
X135811828Y-110644797D01*
X135811828Y-110644797D02*
X135740400Y-110787655D01*
X135740400Y-110787655D02*
X135668971Y-110859083D01*
X135668971Y-110859083D02*
X135526114Y-110930512D01*
X135526114Y-110930512D02*
X135240400Y-110930512D01*
X135240400Y-110930512D02*
X135097542Y-110859083D01*
X135097542Y-110859083D02*
X135026114Y-110787655D01*
X135026114Y-110787655D02*
X134954685Y-110644797D01*
X138226828Y-87930510D02*
X136726828Y-87930510D01*
X136726828Y-87930510D02*
X137798257Y-88430510D01*
X137798257Y-88430510D02*
X136726828Y-88930510D01*
X136726828Y-88930510D02*
X138226828Y-88930510D01*
X138226828Y-90287654D02*
X137441114Y-90287654D01*
X137441114Y-90287654D02*
X137298257Y-90216225D01*
X137298257Y-90216225D02*
X137226828Y-90073368D01*
X137226828Y-90073368D02*
X137226828Y-89787654D01*
X137226828Y-89787654D02*
X137298257Y-89644796D01*
X138155400Y-90287654D02*
X138226828Y-90144796D01*
X138226828Y-90144796D02*
X138226828Y-89787654D01*
X138226828Y-89787654D02*
X138155400Y-89644796D01*
X138155400Y-89644796D02*
X138012542Y-89573368D01*
X138012542Y-89573368D02*
X137869685Y-89573368D01*
X137869685Y-89573368D02*
X137726828Y-89644796D01*
X137726828Y-89644796D02*
X137655400Y-89787654D01*
X137655400Y-89787654D02*
X137655400Y-90144796D01*
X137655400Y-90144796D02*
X137583971Y-90287654D01*
X137226828Y-90787654D02*
X137226828Y-91359082D01*
X136726828Y-91001939D02*
X138012542Y-91001939D01*
X138012542Y-91001939D02*
X138155400Y-91073368D01*
X138155400Y-91073368D02*
X138226828Y-91216225D01*
X138226828Y-91216225D02*
X138226828Y-91359082D01*
X137226828Y-91644797D02*
X137226828Y-92216225D01*
X136726828Y-91859082D02*
X138012542Y-91859082D01*
X138012542Y-91859082D02*
X138155400Y-91930511D01*
X138155400Y-91930511D02*
X138226828Y-92073368D01*
X138226828Y-92073368D02*
X138226828Y-92216225D01*
X138226828Y-94716225D02*
X137512542Y-94216225D01*
X138226828Y-93859082D02*
X136726828Y-93859082D01*
X136726828Y-93859082D02*
X136726828Y-94430511D01*
X136726828Y-94430511D02*
X136798257Y-94573368D01*
X136798257Y-94573368D02*
X136869685Y-94644797D01*
X136869685Y-94644797D02*
X137012542Y-94716225D01*
X137012542Y-94716225D02*
X137226828Y-94716225D01*
X137226828Y-94716225D02*
X137369685Y-94644797D01*
X137369685Y-94644797D02*
X137441114Y-94573368D01*
X137441114Y-94573368D02*
X137512542Y-94430511D01*
X137512542Y-94430511D02*
X137512542Y-93859082D01*
X137226828Y-95216225D02*
X138226828Y-95573368D01*
X137226828Y-95930511D02*
X138226828Y-95573368D01*
X138226828Y-95573368D02*
X138583971Y-95430511D01*
X138583971Y-95430511D02*
X138655400Y-95359082D01*
X138655400Y-95359082D02*
X138726828Y-95216225D01*
X138226828Y-96716225D02*
X138155400Y-96573368D01*
X138155400Y-96573368D02*
X138012542Y-96501939D01*
X138012542Y-96501939D02*
X136726828Y-96501939D01*
X138226828Y-97930511D02*
X137441114Y-97930511D01*
X137441114Y-97930511D02*
X137298257Y-97859082D01*
X137298257Y-97859082D02*
X137226828Y-97716225D01*
X137226828Y-97716225D02*
X137226828Y-97430511D01*
X137226828Y-97430511D02*
X137298257Y-97287653D01*
X138155400Y-97930511D02*
X138226828Y-97787653D01*
X138226828Y-97787653D02*
X138226828Y-97430511D01*
X138226828Y-97430511D02*
X138155400Y-97287653D01*
X138155400Y-97287653D02*
X138012542Y-97216225D01*
X138012542Y-97216225D02*
X137869685Y-97216225D01*
X137869685Y-97216225D02*
X137726828Y-97287653D01*
X137726828Y-97287653D02*
X137655400Y-97430511D01*
X137655400Y-97430511D02*
X137655400Y-97787653D01*
X137655400Y-97787653D02*
X137583971Y-97930511D01*
X137226828Y-98644796D02*
X138226828Y-98644796D01*
X137369685Y-98644796D02*
X137298257Y-98716225D01*
X137298257Y-98716225D02*
X137226828Y-98859082D01*
X137226828Y-98859082D02*
X137226828Y-99073368D01*
X137226828Y-99073368D02*
X137298257Y-99216225D01*
X137298257Y-99216225D02*
X137441114Y-99287654D01*
X137441114Y-99287654D02*
X138226828Y-99287654D01*
X138226828Y-100644797D02*
X136726828Y-100644797D01*
X138155400Y-100644797D02*
X138226828Y-100501939D01*
X138226828Y-100501939D02*
X138226828Y-100216225D01*
X138226828Y-100216225D02*
X138155400Y-100073368D01*
X138155400Y-100073368D02*
X138083971Y-100001939D01*
X138083971Y-100001939D02*
X137941114Y-99930511D01*
X137941114Y-99930511D02*
X137512542Y-99930511D01*
X137512542Y-99930511D02*
X137369685Y-100001939D01*
X137369685Y-100001939D02*
X137298257Y-100073368D01*
X137298257Y-100073368D02*
X137226828Y-100216225D01*
X137226828Y-100216225D02*
X137226828Y-100501939D01*
X137226828Y-100501939D02*
X137298257Y-100644797D01*
X138155400Y-101930511D02*
X138226828Y-101787654D01*
X138226828Y-101787654D02*
X138226828Y-101501940D01*
X138226828Y-101501940D02*
X138155400Y-101359082D01*
X138155400Y-101359082D02*
X138012542Y-101287654D01*
X138012542Y-101287654D02*
X137441114Y-101287654D01*
X137441114Y-101287654D02*
X137298257Y-101359082D01*
X137298257Y-101359082D02*
X137226828Y-101501940D01*
X137226828Y-101501940D02*
X137226828Y-101787654D01*
X137226828Y-101787654D02*
X137298257Y-101930511D01*
X137298257Y-101930511D02*
X137441114Y-102001940D01*
X137441114Y-102001940D02*
X137583971Y-102001940D01*
X137583971Y-102001940D02*
X137726828Y-101287654D01*
X138226828Y-102644796D02*
X137226828Y-102644796D01*
X137512542Y-102644796D02*
X137369685Y-102716225D01*
X137369685Y-102716225D02*
X137298257Y-102787654D01*
X137298257Y-102787654D02*
X137226828Y-102930511D01*
X137226828Y-102930511D02*
X137226828Y-103073368D01*
X138226828Y-104716224D02*
X137226828Y-104716224D01*
X137369685Y-104716224D02*
X137298257Y-104787653D01*
X137298257Y-104787653D02*
X137226828Y-104930510D01*
X137226828Y-104930510D02*
X137226828Y-105144796D01*
X137226828Y-105144796D02*
X137298257Y-105287653D01*
X137298257Y-105287653D02*
X137441114Y-105359082D01*
X137441114Y-105359082D02*
X138226828Y-105359082D01*
X137441114Y-105359082D02*
X137298257Y-105430510D01*
X137298257Y-105430510D02*
X137226828Y-105573367D01*
X137226828Y-105573367D02*
X137226828Y-105787653D01*
X137226828Y-105787653D02*
X137298257Y-105930510D01*
X137298257Y-105930510D02*
X137441114Y-106001939D01*
X137441114Y-106001939D02*
X138226828Y-106001939D01*
X137226828Y-106716224D02*
X138512542Y-106716224D01*
X138512542Y-106716224D02*
X138655400Y-106644796D01*
X138655400Y-106644796D02*
X138726828Y-106501939D01*
X138726828Y-106501939D02*
X138726828Y-106430510D01*
X136726828Y-106716224D02*
X136798257Y-106644796D01*
X136798257Y-106644796D02*
X136869685Y-106716224D01*
X136869685Y-106716224D02*
X136798257Y-106787653D01*
X136798257Y-106787653D02*
X136726828Y-106716224D01*
X136726828Y-106716224D02*
X136869685Y-106716224D01*
X138226828Y-107430510D02*
X137226828Y-107430510D01*
X137512542Y-107430510D02*
X137369685Y-107501939D01*
X137369685Y-107501939D02*
X137298257Y-107573368D01*
X137298257Y-107573368D02*
X137226828Y-107716225D01*
X137226828Y-107716225D02*
X137226828Y-107859082D01*
X136726828Y-108216224D02*
X136726828Y-109216224D01*
X136726828Y-109216224D02*
X138226828Y-108573367D01*
X140213257Y-87859082D02*
X140213257Y-88573368D01*
X140641828Y-87716225D02*
X139141828Y-88216225D01*
X139141828Y-88216225D02*
X140641828Y-88716225D01*
X140641828Y-89430510D02*
X140570400Y-89287653D01*
X140570400Y-89287653D02*
X140427542Y-89216224D01*
X140427542Y-89216224D02*
X139141828Y-89216224D01*
X140641828Y-90216224D02*
X140570400Y-90073367D01*
X140570400Y-90073367D02*
X140427542Y-90001938D01*
X140427542Y-90001938D02*
X139141828Y-90001938D01*
X140570400Y-91359081D02*
X140641828Y-91216224D01*
X140641828Y-91216224D02*
X140641828Y-90930510D01*
X140641828Y-90930510D02*
X140570400Y-90787652D01*
X140570400Y-90787652D02*
X140427542Y-90716224D01*
X140427542Y-90716224D02*
X139856114Y-90716224D01*
X139856114Y-90716224D02*
X139713257Y-90787652D01*
X139713257Y-90787652D02*
X139641828Y-90930510D01*
X139641828Y-90930510D02*
X139641828Y-91216224D01*
X139641828Y-91216224D02*
X139713257Y-91359081D01*
X139713257Y-91359081D02*
X139856114Y-91430510D01*
X139856114Y-91430510D02*
X139998971Y-91430510D01*
X139998971Y-91430510D02*
X140141828Y-90716224D01*
X139641828Y-92073366D02*
X140641828Y-92073366D01*
X139784685Y-92073366D02*
X139713257Y-92144795D01*
X139713257Y-92144795D02*
X139641828Y-92287652D01*
X139641828Y-92287652D02*
X139641828Y-92501938D01*
X139641828Y-92501938D02*
X139713257Y-92644795D01*
X139713257Y-92644795D02*
X139856114Y-92716224D01*
X139856114Y-92716224D02*
X140641828Y-92716224D01*
X140570400Y-94501938D02*
X140641828Y-94716224D01*
X140641828Y-94716224D02*
X140641828Y-95073366D01*
X140641828Y-95073366D02*
X140570400Y-95216224D01*
X140570400Y-95216224D02*
X140498971Y-95287652D01*
X140498971Y-95287652D02*
X140356114Y-95359081D01*
X140356114Y-95359081D02*
X140213257Y-95359081D01*
X140213257Y-95359081D02*
X140070400Y-95287652D01*
X140070400Y-95287652D02*
X139998971Y-95216224D01*
X139998971Y-95216224D02*
X139927542Y-95073366D01*
X139927542Y-95073366D02*
X139856114Y-94787652D01*
X139856114Y-94787652D02*
X139784685Y-94644795D01*
X139784685Y-94644795D02*
X139713257Y-94573366D01*
X139713257Y-94573366D02*
X139570400Y-94501938D01*
X139570400Y-94501938D02*
X139427542Y-94501938D01*
X139427542Y-94501938D02*
X139284685Y-94573366D01*
X139284685Y-94573366D02*
X139213257Y-94644795D01*
X139213257Y-94644795D02*
X139141828Y-94787652D01*
X139141828Y-94787652D02*
X139141828Y-95144795D01*
X139141828Y-95144795D02*
X139213257Y-95359081D01*
X139641828Y-95787652D02*
X139641828Y-96359080D01*
X139141828Y-96001937D02*
X140427542Y-96001937D01*
X140427542Y-96001937D02*
X140570400Y-96073366D01*
X140570400Y-96073366D02*
X140641828Y-96216223D01*
X140641828Y-96216223D02*
X140641828Y-96359080D01*
X140570400Y-97430509D02*
X140641828Y-97287652D01*
X140641828Y-97287652D02*
X140641828Y-97001938D01*
X140641828Y-97001938D02*
X140570400Y-96859080D01*
X140570400Y-96859080D02*
X140427542Y-96787652D01*
X140427542Y-96787652D02*
X139856114Y-96787652D01*
X139856114Y-96787652D02*
X139713257Y-96859080D01*
X139713257Y-96859080D02*
X139641828Y-97001938D01*
X139641828Y-97001938D02*
X139641828Y-97287652D01*
X139641828Y-97287652D02*
X139713257Y-97430509D01*
X139713257Y-97430509D02*
X139856114Y-97501938D01*
X139856114Y-97501938D02*
X139998971Y-97501938D01*
X139998971Y-97501938D02*
X140141828Y-96787652D01*
X140641828Y-98144794D02*
X139641828Y-98144794D01*
X139141828Y-98144794D02*
X139213257Y-98073366D01*
X139213257Y-98073366D02*
X139284685Y-98144794D01*
X139284685Y-98144794D02*
X139213257Y-98216223D01*
X139213257Y-98216223D02*
X139141828Y-98144794D01*
X139141828Y-98144794D02*
X139284685Y-98144794D01*
X139641828Y-98859080D02*
X140641828Y-98859080D01*
X139784685Y-98859080D02*
X139713257Y-98930509D01*
X139713257Y-98930509D02*
X139641828Y-99073366D01*
X139641828Y-99073366D02*
X139641828Y-99287652D01*
X139641828Y-99287652D02*
X139713257Y-99430509D01*
X139713257Y-99430509D02*
X139856114Y-99501938D01*
X139856114Y-99501938D02*
X140641828Y-99501938D01*
X140641828Y-100216223D02*
X139141828Y-100216223D01*
X139713257Y-100216223D02*
X139641828Y-100359081D01*
X139641828Y-100359081D02*
X139641828Y-100644795D01*
X139641828Y-100644795D02*
X139713257Y-100787652D01*
X139713257Y-100787652D02*
X139784685Y-100859081D01*
X139784685Y-100859081D02*
X139927542Y-100930509D01*
X139927542Y-100930509D02*
X140356114Y-100930509D01*
X140356114Y-100930509D02*
X140498971Y-100859081D01*
X140498971Y-100859081D02*
X140570400Y-100787652D01*
X140570400Y-100787652D02*
X140641828Y-100644795D01*
X140641828Y-100644795D02*
X140641828Y-100359081D01*
X140641828Y-100359081D02*
X140570400Y-100216223D01*
X140570400Y-102144795D02*
X140641828Y-102001938D01*
X140641828Y-102001938D02*
X140641828Y-101716224D01*
X140641828Y-101716224D02*
X140570400Y-101573366D01*
X140570400Y-101573366D02*
X140427542Y-101501938D01*
X140427542Y-101501938D02*
X139856114Y-101501938D01*
X139856114Y-101501938D02*
X139713257Y-101573366D01*
X139713257Y-101573366D02*
X139641828Y-101716224D01*
X139641828Y-101716224D02*
X139641828Y-102001938D01*
X139641828Y-102001938D02*
X139713257Y-102144795D01*
X139713257Y-102144795D02*
X139856114Y-102216224D01*
X139856114Y-102216224D02*
X139998971Y-102216224D01*
X139998971Y-102216224D02*
X140141828Y-101501938D01*
X140641828Y-102859080D02*
X139641828Y-102859080D01*
X139927542Y-102859080D02*
X139784685Y-102930509D01*
X139784685Y-102930509D02*
X139713257Y-103001938D01*
X139713257Y-103001938D02*
X139641828Y-103144795D01*
X139641828Y-103144795D02*
X139641828Y-103287652D01*
X139641828Y-104430509D02*
X140856114Y-104430509D01*
X140856114Y-104430509D02*
X140998971Y-104359080D01*
X140998971Y-104359080D02*
X141070400Y-104287651D01*
X141070400Y-104287651D02*
X141141828Y-104144794D01*
X141141828Y-104144794D02*
X141141828Y-103930509D01*
X141141828Y-103930509D02*
X141070400Y-103787651D01*
X140570400Y-104430509D02*
X140641828Y-104287651D01*
X140641828Y-104287651D02*
X140641828Y-104001937D01*
X140641828Y-104001937D02*
X140570400Y-103859080D01*
X140570400Y-103859080D02*
X140498971Y-103787651D01*
X140498971Y-103787651D02*
X140356114Y-103716223D01*
X140356114Y-103716223D02*
X139927542Y-103716223D01*
X139927542Y-103716223D02*
X139784685Y-103787651D01*
X139784685Y-103787651D02*
X139713257Y-103859080D01*
X139713257Y-103859080D02*
X139641828Y-104001937D01*
X139641828Y-104001937D02*
X139641828Y-104287651D01*
X139641828Y-104287651D02*
X139713257Y-104430509D01*
X140641828Y-106930509D02*
X139856114Y-106930509D01*
X139856114Y-106930509D02*
X139713257Y-106859080D01*
X139713257Y-106859080D02*
X139641828Y-106716223D01*
X139641828Y-106716223D02*
X139641828Y-106430509D01*
X139641828Y-106430509D02*
X139713257Y-106287651D01*
X140570400Y-106930509D02*
X140641828Y-106787651D01*
X140641828Y-106787651D02*
X140641828Y-106430509D01*
X140641828Y-106430509D02*
X140570400Y-106287651D01*
X140570400Y-106287651D02*
X140427542Y-106216223D01*
X140427542Y-106216223D02*
X140284685Y-106216223D01*
X140284685Y-106216223D02*
X140141828Y-106287651D01*
X140141828Y-106287651D02*
X140070400Y-106430509D01*
X140070400Y-106430509D02*
X140070400Y-106787651D01*
X140070400Y-106787651D02*
X139998971Y-106930509D01*
X140641828Y-107859080D02*
X140570400Y-107716223D01*
X140570400Y-107716223D02*
X140427542Y-107644794D01*
X140427542Y-107644794D02*
X139141828Y-107644794D01*
X140641828Y-108644794D02*
X140570400Y-108501937D01*
X140570400Y-108501937D02*
X140427542Y-108430508D01*
X140427542Y-108430508D02*
X139141828Y-108430508D01*
X140570400Y-109787651D02*
X140641828Y-109644794D01*
X140641828Y-109644794D02*
X140641828Y-109359080D01*
X140641828Y-109359080D02*
X140570400Y-109216222D01*
X140570400Y-109216222D02*
X140427542Y-109144794D01*
X140427542Y-109144794D02*
X139856114Y-109144794D01*
X139856114Y-109144794D02*
X139713257Y-109216222D01*
X139713257Y-109216222D02*
X139641828Y-109359080D01*
X139641828Y-109359080D02*
X139641828Y-109644794D01*
X139641828Y-109644794D02*
X139713257Y-109787651D01*
X139713257Y-109787651D02*
X139856114Y-109859080D01*
X139856114Y-109859080D02*
X139998971Y-109859080D01*
X139998971Y-109859080D02*
X140141828Y-109144794D01*
X139641828Y-110501936D02*
X140641828Y-110501936D01*
X139784685Y-110501936D02*
X139713257Y-110573365D01*
X139713257Y-110573365D02*
X139641828Y-110716222D01*
X139641828Y-110716222D02*
X139641828Y-110930508D01*
X139641828Y-110930508D02*
X139713257Y-111073365D01*
X139713257Y-111073365D02*
X139856114Y-111144794D01*
X139856114Y-111144794D02*
X140641828Y-111144794D01*
X140641828Y-112501937D02*
X139141828Y-112501937D01*
X140570400Y-112501937D02*
X140641828Y-112359079D01*
X140641828Y-112359079D02*
X140641828Y-112073365D01*
X140641828Y-112073365D02*
X140570400Y-111930508D01*
X140570400Y-111930508D02*
X140498971Y-111859079D01*
X140498971Y-111859079D02*
X140356114Y-111787651D01*
X140356114Y-111787651D02*
X139927542Y-111787651D01*
X139927542Y-111787651D02*
X139784685Y-111859079D01*
X139784685Y-111859079D02*
X139713257Y-111930508D01*
X139713257Y-111930508D02*
X139641828Y-112073365D01*
X139641828Y-112073365D02*
X139641828Y-112359079D01*
X139641828Y-112359079D02*
X139713257Y-112501937D01*
X140570400Y-113144794D02*
X140641828Y-113287651D01*
X140641828Y-113287651D02*
X140641828Y-113573365D01*
X140641828Y-113573365D02*
X140570400Y-113716222D01*
X140570400Y-113716222D02*
X140427542Y-113787651D01*
X140427542Y-113787651D02*
X140356114Y-113787651D01*
X140356114Y-113787651D02*
X140213257Y-113716222D01*
X140213257Y-113716222D02*
X140141828Y-113573365D01*
X140141828Y-113573365D02*
X140141828Y-113359080D01*
X140141828Y-113359080D02*
X140070400Y-113216222D01*
X140070400Y-113216222D02*
X139927542Y-113144794D01*
X139927542Y-113144794D02*
X139856114Y-113144794D01*
X139856114Y-113144794D02*
X139713257Y-113216222D01*
X139713257Y-113216222D02*
X139641828Y-113359080D01*
X139641828Y-113359080D02*
X139641828Y-113573365D01*
X139641828Y-113573365D02*
X139713257Y-113716222D01*
X139284685Y-114359080D02*
X139213257Y-114430508D01*
X139213257Y-114430508D02*
X139141828Y-114573366D01*
X139141828Y-114573366D02*
X139141828Y-114930508D01*
X139141828Y-114930508D02*
X139213257Y-115073366D01*
X139213257Y-115073366D02*
X139284685Y-115144794D01*
X139284685Y-115144794D02*
X139427542Y-115216223D01*
X139427542Y-115216223D02*
X139570400Y-115216223D01*
X139570400Y-115216223D02*
X139784685Y-115144794D01*
X139784685Y-115144794D02*
X140641828Y-114287651D01*
X140641828Y-114287651D02*
X140641828Y-115216223D01*
X141556828Y-88216225D02*
X141556828Y-88359082D01*
X141556828Y-88359082D02*
X141628257Y-88501939D01*
X141628257Y-88501939D02*
X141699685Y-88573368D01*
X141699685Y-88573368D02*
X141842542Y-88644796D01*
X141842542Y-88644796D02*
X142128257Y-88716225D01*
X142128257Y-88716225D02*
X142485400Y-88716225D01*
X142485400Y-88716225D02*
X142771114Y-88644796D01*
X142771114Y-88644796D02*
X142913971Y-88573368D01*
X142913971Y-88573368D02*
X142985400Y-88501939D01*
X142985400Y-88501939D02*
X143056828Y-88359082D01*
X143056828Y-88359082D02*
X143056828Y-88216225D01*
X143056828Y-88216225D02*
X142985400Y-88073368D01*
X142985400Y-88073368D02*
X142913971Y-88001939D01*
X142913971Y-88001939D02*
X142771114Y-87930510D01*
X142771114Y-87930510D02*
X142485400Y-87859082D01*
X142485400Y-87859082D02*
X142128257Y-87859082D01*
X142128257Y-87859082D02*
X141842542Y-87930510D01*
X141842542Y-87930510D02*
X141699685Y-88001939D01*
X141699685Y-88001939D02*
X141628257Y-88073368D01*
X141628257Y-88073368D02*
X141556828Y-88216225D01*
X141699685Y-89287653D02*
X141628257Y-89359081D01*
X141628257Y-89359081D02*
X141556828Y-89501939D01*
X141556828Y-89501939D02*
X141556828Y-89859081D01*
X141556828Y-89859081D02*
X141628257Y-90001939D01*
X141628257Y-90001939D02*
X141699685Y-90073367D01*
X141699685Y-90073367D02*
X141842542Y-90144796D01*
X141842542Y-90144796D02*
X141985400Y-90144796D01*
X141985400Y-90144796D02*
X142199685Y-90073367D01*
X142199685Y-90073367D02*
X143056828Y-89216224D01*
X143056828Y-89216224D02*
X143056828Y-90144796D01*
X141485400Y-91859081D02*
X143413971Y-90573367D01*
X141699685Y-92287653D02*
X141628257Y-92359081D01*
X141628257Y-92359081D02*
X141556828Y-92501939D01*
X141556828Y-92501939D02*
X141556828Y-92859081D01*
X141556828Y-92859081D02*
X141628257Y-93001939D01*
X141628257Y-93001939D02*
X141699685Y-93073367D01*
X141699685Y-93073367D02*
X141842542Y-93144796D01*
X141842542Y-93144796D02*
X141985400Y-93144796D01*
X141985400Y-93144796D02*
X142199685Y-93073367D01*
X142199685Y-93073367D02*
X143056828Y-92216224D01*
X143056828Y-92216224D02*
X143056828Y-93144796D01*
X142056828Y-94430510D02*
X143056828Y-94430510D01*
X141485400Y-94073367D02*
X142556828Y-93716224D01*
X142556828Y-93716224D02*
X142556828Y-94644795D01*
X141485400Y-96287652D02*
X143413971Y-95001938D01*
X141699685Y-96716224D02*
X141628257Y-96787652D01*
X141628257Y-96787652D02*
X141556828Y-96930510D01*
X141556828Y-96930510D02*
X141556828Y-97287652D01*
X141556828Y-97287652D02*
X141628257Y-97430510D01*
X141628257Y-97430510D02*
X141699685Y-97501938D01*
X141699685Y-97501938D02*
X141842542Y-97573367D01*
X141842542Y-97573367D02*
X141985400Y-97573367D01*
X141985400Y-97573367D02*
X142199685Y-97501938D01*
X142199685Y-97501938D02*
X143056828Y-96644795D01*
X143056828Y-96644795D02*
X143056828Y-97573367D01*
X141556828Y-98501938D02*
X141556828Y-98644795D01*
X141556828Y-98644795D02*
X141628257Y-98787652D01*
X141628257Y-98787652D02*
X141699685Y-98859081D01*
X141699685Y-98859081D02*
X141842542Y-98930509D01*
X141842542Y-98930509D02*
X142128257Y-99001938D01*
X142128257Y-99001938D02*
X142485400Y-99001938D01*
X142485400Y-99001938D02*
X142771114Y-98930509D01*
X142771114Y-98930509D02*
X142913971Y-98859081D01*
X142913971Y-98859081D02*
X142985400Y-98787652D01*
X142985400Y-98787652D02*
X143056828Y-98644795D01*
X143056828Y-98644795D02*
X143056828Y-98501938D01*
X143056828Y-98501938D02*
X142985400Y-98359081D01*
X142985400Y-98359081D02*
X142913971Y-98287652D01*
X142913971Y-98287652D02*
X142771114Y-98216223D01*
X142771114Y-98216223D02*
X142485400Y-98144795D01*
X142485400Y-98144795D02*
X142128257Y-98144795D01*
X142128257Y-98144795D02*
X141842542Y-98216223D01*
X141842542Y-98216223D02*
X141699685Y-98287652D01*
X141699685Y-98287652D02*
X141628257Y-98359081D01*
X141628257Y-98359081D02*
X141556828Y-98501938D01*
X141699685Y-99573366D02*
X141628257Y-99644794D01*
X141628257Y-99644794D02*
X141556828Y-99787652D01*
X141556828Y-99787652D02*
X141556828Y-100144794D01*
X141556828Y-100144794D02*
X141628257Y-100287652D01*
X141628257Y-100287652D02*
X141699685Y-100359080D01*
X141699685Y-100359080D02*
X141842542Y-100430509D01*
X141842542Y-100430509D02*
X141985400Y-100430509D01*
X141985400Y-100430509D02*
X142199685Y-100359080D01*
X142199685Y-100359080D02*
X143056828Y-99501937D01*
X143056828Y-99501937D02*
X143056828Y-100430509D01*
X142056828Y-101716223D02*
X143056828Y-101716223D01*
X141485400Y-101359080D02*
X142556828Y-101001937D01*
X142556828Y-101001937D02*
X142556828Y-101930508D01*
X141556828Y-103430508D02*
X143056828Y-103930508D01*
X143056828Y-103930508D02*
X141556828Y-104430508D01*
X141699685Y-104859079D02*
X141628257Y-104930507D01*
X141628257Y-104930507D02*
X141556828Y-105073365D01*
X141556828Y-105073365D02*
X141556828Y-105430507D01*
X141556828Y-105430507D02*
X141628257Y-105573365D01*
X141628257Y-105573365D02*
X141699685Y-105644793D01*
X141699685Y-105644793D02*
X141842542Y-105716222D01*
X141842542Y-105716222D02*
X141985400Y-105716222D01*
X141985400Y-105716222D02*
X142199685Y-105644793D01*
X142199685Y-105644793D02*
X143056828Y-104787650D01*
X143056828Y-104787650D02*
X143056828Y-105716222D01*
X142913971Y-106359078D02*
X142985400Y-106430507D01*
X142985400Y-106430507D02*
X143056828Y-106359078D01*
X143056828Y-106359078D02*
X142985400Y-106287650D01*
X142985400Y-106287650D02*
X142913971Y-106359078D01*
X142913971Y-106359078D02*
X143056828Y-106359078D01*
X141556828Y-107359079D02*
X141556828Y-107501936D01*
X141556828Y-107501936D02*
X141628257Y-107644793D01*
X141628257Y-107644793D02*
X141699685Y-107716222D01*
X141699685Y-107716222D02*
X141842542Y-107787650D01*
X141842542Y-107787650D02*
X142128257Y-107859079D01*
X142128257Y-107859079D02*
X142485400Y-107859079D01*
X142485400Y-107859079D02*
X142771114Y-107787650D01*
X142771114Y-107787650D02*
X142913971Y-107716222D01*
X142913971Y-107716222D02*
X142985400Y-107644793D01*
X142985400Y-107644793D02*
X143056828Y-107501936D01*
X143056828Y-107501936D02*
X143056828Y-107359079D01*
X143056828Y-107359079D02*
X142985400Y-107216222D01*
X142985400Y-107216222D02*
X142913971Y-107144793D01*
X142913971Y-107144793D02*
X142771114Y-107073364D01*
X142771114Y-107073364D02*
X142485400Y-107001936D01*
X142485400Y-107001936D02*
X142128257Y-107001936D01*
X142128257Y-107001936D02*
X141842542Y-107073364D01*
X141842542Y-107073364D02*
X141699685Y-107144793D01*
X141699685Y-107144793D02*
X141628257Y-107216222D01*
X141628257Y-107216222D02*
X141556828Y-107359079D01*
D11*
X97870666Y-95958819D02*
X98203999Y-95482628D01*
X98442094Y-95958819D02*
X98442094Y-94958819D01*
X98442094Y-94958819D02*
X98061142Y-94958819D01*
X98061142Y-94958819D02*
X97965904Y-95006438D01*
X97965904Y-95006438D02*
X97918285Y-95054057D01*
X97918285Y-95054057D02*
X97870666Y-95149295D01*
X97870666Y-95149295D02*
X97870666Y-95292152D01*
X97870666Y-95292152D02*
X97918285Y-95387390D01*
X97918285Y-95387390D02*
X97965904Y-95435009D01*
X97965904Y-95435009D02*
X98061142Y-95482628D01*
X98061142Y-95482628D02*
X98442094Y-95482628D01*
X97537332Y-94958819D02*
X96870666Y-94958819D01*
X96870666Y-94958819D02*
X97299237Y-95958819D01*
X90455357Y-88465819D02*
X90788690Y-87989628D01*
X91026785Y-88465819D02*
X91026785Y-87465819D01*
X91026785Y-87465819D02*
X90645833Y-87465819D01*
X90645833Y-87465819D02*
X90550595Y-87513438D01*
X90550595Y-87513438D02*
X90502976Y-87561057D01*
X90502976Y-87561057D02*
X90455357Y-87656295D01*
X90455357Y-87656295D02*
X90455357Y-87799152D01*
X90455357Y-87799152D02*
X90502976Y-87894390D01*
X90502976Y-87894390D02*
X90550595Y-87942009D01*
X90550595Y-87942009D02*
X90645833Y-87989628D01*
X90645833Y-87989628D02*
X91026785Y-87989628D01*
X89502976Y-88465819D02*
X90074404Y-88465819D01*
X89788690Y-88465819D02*
X89788690Y-87465819D01*
X89788690Y-87465819D02*
X89883928Y-87608676D01*
X89883928Y-87608676D02*
X89979166Y-87703914D01*
X89979166Y-87703914D02*
X90074404Y-87751533D01*
X88883928Y-87465819D02*
X88788690Y-87465819D01*
X88788690Y-87465819D02*
X88693452Y-87513438D01*
X88693452Y-87513438D02*
X88645833Y-87561057D01*
X88645833Y-87561057D02*
X88598214Y-87656295D01*
X88598214Y-87656295D02*
X88550595Y-87846771D01*
X88550595Y-87846771D02*
X88550595Y-88084866D01*
X88550595Y-88084866D02*
X88598214Y-88275342D01*
X88598214Y-88275342D02*
X88645833Y-88370580D01*
X88645833Y-88370580D02*
X88693452Y-88418200D01*
X88693452Y-88418200D02*
X88788690Y-88465819D01*
X88788690Y-88465819D02*
X88883928Y-88465819D01*
X88883928Y-88465819D02*
X88979166Y-88418200D01*
X88979166Y-88418200D02*
X89026785Y-88370580D01*
X89026785Y-88370580D02*
X89074404Y-88275342D01*
X89074404Y-88275342D02*
X89122023Y-88084866D01*
X89122023Y-88084866D02*
X89122023Y-87846771D01*
X89122023Y-87846771D02*
X89074404Y-87656295D01*
X89074404Y-87656295D02*
X89026785Y-87561057D01*
X89026785Y-87561057D02*
X88979166Y-87513438D01*
X88979166Y-87513438D02*
X88883928Y-87465819D01*
X93675580Y-115911333D02*
X93723200Y-115863714D01*
X93723200Y-115863714D02*
X93770819Y-115720857D01*
X93770819Y-115720857D02*
X93770819Y-115625619D01*
X93770819Y-115625619D02*
X93723200Y-115482762D01*
X93723200Y-115482762D02*
X93627961Y-115387524D01*
X93627961Y-115387524D02*
X93532723Y-115339905D01*
X93532723Y-115339905D02*
X93342247Y-115292286D01*
X93342247Y-115292286D02*
X93199390Y-115292286D01*
X93199390Y-115292286D02*
X93008914Y-115339905D01*
X93008914Y-115339905D02*
X92913676Y-115387524D01*
X92913676Y-115387524D02*
X92818438Y-115482762D01*
X92818438Y-115482762D02*
X92770819Y-115625619D01*
X92770819Y-115625619D02*
X92770819Y-115720857D01*
X92770819Y-115720857D02*
X92818438Y-115863714D01*
X92818438Y-115863714D02*
X92866057Y-115911333D01*
X92770819Y-116244667D02*
X92770819Y-116863714D01*
X92770819Y-116863714D02*
X93151771Y-116530381D01*
X93151771Y-116530381D02*
X93151771Y-116673238D01*
X93151771Y-116673238D02*
X93199390Y-116768476D01*
X93199390Y-116768476D02*
X93247009Y-116816095D01*
X93247009Y-116816095D02*
X93342247Y-116863714D01*
X93342247Y-116863714D02*
X93580342Y-116863714D01*
X93580342Y-116863714D02*
X93675580Y-116816095D01*
X93675580Y-116816095D02*
X93723200Y-116768476D01*
X93723200Y-116768476D02*
X93770819Y-116673238D01*
X93770819Y-116673238D02*
X93770819Y-116387524D01*
X93770819Y-116387524D02*
X93723200Y-116292286D01*
X93723200Y-116292286D02*
X93675580Y-116244667D01*
X103835580Y-115911333D02*
X103883200Y-115863714D01*
X103883200Y-115863714D02*
X103930819Y-115720857D01*
X103930819Y-115720857D02*
X103930819Y-115625619D01*
X103930819Y-115625619D02*
X103883200Y-115482762D01*
X103883200Y-115482762D02*
X103787961Y-115387524D01*
X103787961Y-115387524D02*
X103692723Y-115339905D01*
X103692723Y-115339905D02*
X103502247Y-115292286D01*
X103502247Y-115292286D02*
X103359390Y-115292286D01*
X103359390Y-115292286D02*
X103168914Y-115339905D01*
X103168914Y-115339905D02*
X103073676Y-115387524D01*
X103073676Y-115387524D02*
X102978438Y-115482762D01*
X102978438Y-115482762D02*
X102930819Y-115625619D01*
X102930819Y-115625619D02*
X102930819Y-115720857D01*
X102930819Y-115720857D02*
X102978438Y-115863714D01*
X102978438Y-115863714D02*
X103026057Y-115911333D01*
X102930819Y-116816095D02*
X102930819Y-116339905D01*
X102930819Y-116339905D02*
X103407009Y-116292286D01*
X103407009Y-116292286D02*
X103359390Y-116339905D01*
X103359390Y-116339905D02*
X103311771Y-116435143D01*
X103311771Y-116435143D02*
X103311771Y-116673238D01*
X103311771Y-116673238D02*
X103359390Y-116768476D01*
X103359390Y-116768476D02*
X103407009Y-116816095D01*
X103407009Y-116816095D02*
X103502247Y-116863714D01*
X103502247Y-116863714D02*
X103740342Y-116863714D01*
X103740342Y-116863714D02*
X103835580Y-116816095D01*
X103835580Y-116816095D02*
X103883200Y-116768476D01*
X103883200Y-116768476D02*
X103930819Y-116673238D01*
X103930819Y-116673238D02*
X103930819Y-116435143D01*
X103930819Y-116435143D02*
X103883200Y-116339905D01*
X103883200Y-116339905D02*
X103835580Y-116292286D01*
X89230580Y-115911333D02*
X89278200Y-115863714D01*
X89278200Y-115863714D02*
X89325819Y-115720857D01*
X89325819Y-115720857D02*
X89325819Y-115625619D01*
X89325819Y-115625619D02*
X89278200Y-115482762D01*
X89278200Y-115482762D02*
X89182961Y-115387524D01*
X89182961Y-115387524D02*
X89087723Y-115339905D01*
X89087723Y-115339905D02*
X88897247Y-115292286D01*
X88897247Y-115292286D02*
X88754390Y-115292286D01*
X88754390Y-115292286D02*
X88563914Y-115339905D01*
X88563914Y-115339905D02*
X88468676Y-115387524D01*
X88468676Y-115387524D02*
X88373438Y-115482762D01*
X88373438Y-115482762D02*
X88325819Y-115625619D01*
X88325819Y-115625619D02*
X88325819Y-115720857D01*
X88325819Y-115720857D02*
X88373438Y-115863714D01*
X88373438Y-115863714D02*
X88421057Y-115911333D01*
X88659152Y-116768476D02*
X89325819Y-116768476D01*
X88278200Y-116530381D02*
X88992485Y-116292286D01*
X88992485Y-116292286D02*
X88992485Y-116911333D01*
X89979166Y-96088580D02*
X90026785Y-96136200D01*
X90026785Y-96136200D02*
X90169642Y-96183819D01*
X90169642Y-96183819D02*
X90264880Y-96183819D01*
X90264880Y-96183819D02*
X90407737Y-96136200D01*
X90407737Y-96136200D02*
X90502975Y-96040961D01*
X90502975Y-96040961D02*
X90550594Y-95945723D01*
X90550594Y-95945723D02*
X90598213Y-95755247D01*
X90598213Y-95755247D02*
X90598213Y-95612390D01*
X90598213Y-95612390D02*
X90550594Y-95421914D01*
X90550594Y-95421914D02*
X90502975Y-95326676D01*
X90502975Y-95326676D02*
X90407737Y-95231438D01*
X90407737Y-95231438D02*
X90264880Y-95183819D01*
X90264880Y-95183819D02*
X90169642Y-95183819D01*
X90169642Y-95183819D02*
X90026785Y-95231438D01*
X90026785Y-95231438D02*
X89979166Y-95279057D01*
X89026785Y-96183819D02*
X89598213Y-96183819D01*
X89312499Y-96183819D02*
X89312499Y-95183819D01*
X89312499Y-95183819D02*
X89407737Y-95326676D01*
X89407737Y-95326676D02*
X89502975Y-95421914D01*
X89502975Y-95421914D02*
X89598213Y-95469533D01*
X90472857Y-92403819D02*
X90806190Y-91927628D01*
X91044285Y-92403819D02*
X91044285Y-91403819D01*
X91044285Y-91403819D02*
X90663333Y-91403819D01*
X90663333Y-91403819D02*
X90568095Y-91451438D01*
X90568095Y-91451438D02*
X90520476Y-91499057D01*
X90520476Y-91499057D02*
X90472857Y-91594295D01*
X90472857Y-91594295D02*
X90472857Y-91737152D01*
X90472857Y-91737152D02*
X90520476Y-91832390D01*
X90520476Y-91832390D02*
X90568095Y-91880009D01*
X90568095Y-91880009D02*
X90663333Y-91927628D01*
X90663333Y-91927628D02*
X91044285Y-91927628D01*
X89520476Y-92403819D02*
X90091904Y-92403819D01*
X89806190Y-92403819D02*
X89806190Y-91403819D01*
X89806190Y-91403819D02*
X89901428Y-91546676D01*
X89901428Y-91546676D02*
X89996666Y-91641914D01*
X89996666Y-91641914D02*
X90091904Y-91689533D01*
X88568095Y-92403819D02*
X89139523Y-92403819D01*
X88853809Y-92403819D02*
X88853809Y-91403819D01*
X88853809Y-91403819D02*
X88949047Y-91546676D01*
X88949047Y-91546676D02*
X89044285Y-91641914D01*
X89044285Y-91641914D02*
X89139523Y-91689533D01*
X96314857Y-86813819D02*
X96648190Y-86337628D01*
X96886285Y-86813819D02*
X96886285Y-85813819D01*
X96886285Y-85813819D02*
X96505333Y-85813819D01*
X96505333Y-85813819D02*
X96410095Y-85861438D01*
X96410095Y-85861438D02*
X96362476Y-85909057D01*
X96362476Y-85909057D02*
X96314857Y-86004295D01*
X96314857Y-86004295D02*
X96314857Y-86147152D01*
X96314857Y-86147152D02*
X96362476Y-86242390D01*
X96362476Y-86242390D02*
X96410095Y-86290009D01*
X96410095Y-86290009D02*
X96505333Y-86337628D01*
X96505333Y-86337628D02*
X96886285Y-86337628D01*
X95362476Y-86813819D02*
X95933904Y-86813819D01*
X95648190Y-86813819D02*
X95648190Y-85813819D01*
X95648190Y-85813819D02*
X95743428Y-85956676D01*
X95743428Y-85956676D02*
X95838666Y-86051914D01*
X95838666Y-86051914D02*
X95933904Y-86099533D01*
X95029142Y-85813819D02*
X94410095Y-85813819D01*
X94410095Y-85813819D02*
X94743428Y-86194771D01*
X94743428Y-86194771D02*
X94600571Y-86194771D01*
X94600571Y-86194771D02*
X94505333Y-86242390D01*
X94505333Y-86242390D02*
X94457714Y-86290009D01*
X94457714Y-86290009D02*
X94410095Y-86385247D01*
X94410095Y-86385247D02*
X94410095Y-86623342D01*
X94410095Y-86623342D02*
X94457714Y-86718580D01*
X94457714Y-86718580D02*
X94505333Y-86766200D01*
X94505333Y-86766200D02*
X94600571Y-86813819D01*
X94600571Y-86813819D02*
X94886285Y-86813819D01*
X94886285Y-86813819D02*
X94981523Y-86766200D01*
X94981523Y-86766200D02*
X95029142Y-86718580D01*
X97870666Y-92403819D02*
X98203999Y-91927628D01*
X98442094Y-92403819D02*
X98442094Y-91403819D01*
X98442094Y-91403819D02*
X98061142Y-91403819D01*
X98061142Y-91403819D02*
X97965904Y-91451438D01*
X97965904Y-91451438D02*
X97918285Y-91499057D01*
X97918285Y-91499057D02*
X97870666Y-91594295D01*
X97870666Y-91594295D02*
X97870666Y-91737152D01*
X97870666Y-91737152D02*
X97918285Y-91832390D01*
X97918285Y-91832390D02*
X97965904Y-91880009D01*
X97965904Y-91880009D02*
X98061142Y-91927628D01*
X98061142Y-91927628D02*
X98442094Y-91927628D01*
X96918285Y-92403819D02*
X97489713Y-92403819D01*
X97203999Y-92403819D02*
X97203999Y-91403819D01*
X97203999Y-91403819D02*
X97299237Y-91546676D01*
X97299237Y-91546676D02*
X97394475Y-91641914D01*
X97394475Y-91641914D02*
X97489713Y-91689533D01*
X101140857Y-86813819D02*
X101474190Y-86337628D01*
X101712285Y-86813819D02*
X101712285Y-85813819D01*
X101712285Y-85813819D02*
X101331333Y-85813819D01*
X101331333Y-85813819D02*
X101236095Y-85861438D01*
X101236095Y-85861438D02*
X101188476Y-85909057D01*
X101188476Y-85909057D02*
X101140857Y-86004295D01*
X101140857Y-86004295D02*
X101140857Y-86147152D01*
X101140857Y-86147152D02*
X101188476Y-86242390D01*
X101188476Y-86242390D02*
X101236095Y-86290009D01*
X101236095Y-86290009D02*
X101331333Y-86337628D01*
X101331333Y-86337628D02*
X101712285Y-86337628D01*
X100188476Y-86813819D02*
X100759904Y-86813819D01*
X100474190Y-86813819D02*
X100474190Y-85813819D01*
X100474190Y-85813819D02*
X100569428Y-85956676D01*
X100569428Y-85956676D02*
X100664666Y-86051914D01*
X100664666Y-86051914D02*
X100759904Y-86099533D01*
X99807523Y-85909057D02*
X99759904Y-85861438D01*
X99759904Y-85861438D02*
X99664666Y-85813819D01*
X99664666Y-85813819D02*
X99426571Y-85813819D01*
X99426571Y-85813819D02*
X99331333Y-85861438D01*
X99331333Y-85861438D02*
X99283714Y-85909057D01*
X99283714Y-85909057D02*
X99236095Y-86004295D01*
X99236095Y-86004295D02*
X99236095Y-86099533D01*
X99236095Y-86099533D02*
X99283714Y-86242390D01*
X99283714Y-86242390D02*
X99855142Y-86813819D01*
X99855142Y-86813819D02*
X99236095Y-86813819D01*
X100410666Y-91385819D02*
X100743999Y-90909628D01*
X100982094Y-91385819D02*
X100982094Y-90385819D01*
X100982094Y-90385819D02*
X100601142Y-90385819D01*
X100601142Y-90385819D02*
X100505904Y-90433438D01*
X100505904Y-90433438D02*
X100458285Y-90481057D01*
X100458285Y-90481057D02*
X100410666Y-90576295D01*
X100410666Y-90576295D02*
X100410666Y-90719152D01*
X100410666Y-90719152D02*
X100458285Y-90814390D01*
X100458285Y-90814390D02*
X100505904Y-90862009D01*
X100505904Y-90862009D02*
X100601142Y-90909628D01*
X100601142Y-90909628D02*
X100982094Y-90909628D01*
X99839237Y-90814390D02*
X99934475Y-90766771D01*
X99934475Y-90766771D02*
X99982094Y-90719152D01*
X99982094Y-90719152D02*
X100029713Y-90623914D01*
X100029713Y-90623914D02*
X100029713Y-90576295D01*
X100029713Y-90576295D02*
X99982094Y-90481057D01*
X99982094Y-90481057D02*
X99934475Y-90433438D01*
X99934475Y-90433438D02*
X99839237Y-90385819D01*
X99839237Y-90385819D02*
X99648761Y-90385819D01*
X99648761Y-90385819D02*
X99553523Y-90433438D01*
X99553523Y-90433438D02*
X99505904Y-90481057D01*
X99505904Y-90481057D02*
X99458285Y-90576295D01*
X99458285Y-90576295D02*
X99458285Y-90623914D01*
X99458285Y-90623914D02*
X99505904Y-90719152D01*
X99505904Y-90719152D02*
X99553523Y-90766771D01*
X99553523Y-90766771D02*
X99648761Y-90814390D01*
X99648761Y-90814390D02*
X99839237Y-90814390D01*
X99839237Y-90814390D02*
X99934475Y-90862009D01*
X99934475Y-90862009D02*
X99982094Y-90909628D01*
X99982094Y-90909628D02*
X100029713Y-91004866D01*
X100029713Y-91004866D02*
X100029713Y-91195342D01*
X100029713Y-91195342D02*
X99982094Y-91290580D01*
X99982094Y-91290580D02*
X99934475Y-91338200D01*
X99934475Y-91338200D02*
X99839237Y-91385819D01*
X99839237Y-91385819D02*
X99648761Y-91385819D01*
X99648761Y-91385819D02*
X99553523Y-91338200D01*
X99553523Y-91338200D02*
X99505904Y-91290580D01*
X99505904Y-91290580D02*
X99458285Y-91195342D01*
X99458285Y-91195342D02*
X99458285Y-91004866D01*
X99458285Y-91004866D02*
X99505904Y-90909628D01*
X99505904Y-90909628D02*
X99553523Y-90862009D01*
X99553523Y-90862009D02*
X99648761Y-90814390D01*
X101562819Y-112958666D02*
X102277104Y-112958666D01*
X102277104Y-112958666D02*
X102419961Y-112911047D01*
X102419961Y-112911047D02*
X102515200Y-112815809D01*
X102515200Y-112815809D02*
X102562819Y-112672952D01*
X102562819Y-112672952D02*
X102562819Y-112577714D01*
X102562819Y-113434857D02*
X101562819Y-113434857D01*
X101562819Y-113434857D02*
X101562819Y-113815809D01*
X101562819Y-113815809D02*
X101610438Y-113911047D01*
X101610438Y-113911047D02*
X101658057Y-113958666D01*
X101658057Y-113958666D02*
X101753295Y-114006285D01*
X101753295Y-114006285D02*
X101896152Y-114006285D01*
X101896152Y-114006285D02*
X101991390Y-113958666D01*
X101991390Y-113958666D02*
X102039009Y-113911047D01*
X102039009Y-113911047D02*
X102086628Y-113815809D01*
X102086628Y-113815809D02*
X102086628Y-113434857D01*
X102562819Y-114958666D02*
X102562819Y-114387238D01*
X102562819Y-114672952D02*
X101562819Y-114672952D01*
X101562819Y-114672952D02*
X101705676Y-114577714D01*
X101705676Y-114577714D02*
X101800914Y-114482476D01*
X101800914Y-114482476D02*
X101848533Y-114387238D01*
X105623666Y-107897819D02*
X105956999Y-107421628D01*
X106195094Y-107897819D02*
X106195094Y-106897819D01*
X106195094Y-106897819D02*
X105814142Y-106897819D01*
X105814142Y-106897819D02*
X105718904Y-106945438D01*
X105718904Y-106945438D02*
X105671285Y-106993057D01*
X105671285Y-106993057D02*
X105623666Y-107088295D01*
X105623666Y-107088295D02*
X105623666Y-107231152D01*
X105623666Y-107231152D02*
X105671285Y-107326390D01*
X105671285Y-107326390D02*
X105718904Y-107374009D01*
X105718904Y-107374009D02*
X105814142Y-107421628D01*
X105814142Y-107421628D02*
X106195094Y-107421628D01*
X104766523Y-107231152D02*
X104766523Y-107897819D01*
X105004618Y-106850200D02*
X105242713Y-107564485D01*
X105242713Y-107564485D02*
X104623666Y-107564485D01*
D12*
%TO.C,R7*%
X97476936Y-98144000D02*
X97931064Y-98144000D01*
X97476936Y-96674000D02*
X97931064Y-96674000D01*
%TO.C,R10*%
X89585436Y-90651000D02*
X90039564Y-90651000D01*
X89585436Y-89181000D02*
X90039564Y-89181000D01*
%TO.C,C3*%
X94261000Y-115816748D02*
X94261000Y-116339252D01*
X95731000Y-115816748D02*
X95731000Y-116339252D01*
%TO.C,C5*%
X105891000Y-115816748D02*
X105891000Y-116339252D01*
X104421000Y-115816748D02*
X104421000Y-116339252D01*
%TO.C,C4*%
X89816000Y-115816748D02*
X89816000Y-116339252D01*
X91286000Y-115816748D02*
X91286000Y-116339252D01*
%TO.C,C1*%
X90073752Y-96674000D02*
X89551248Y-96674000D01*
X90073752Y-98144000D02*
X89551248Y-98144000D01*
%TO.C,R11*%
X90057064Y-92864000D02*
X89602936Y-92864000D01*
X90057064Y-94334000D02*
X89602936Y-94334000D01*
%TO.C,R13*%
X95444936Y-85444000D02*
X95899064Y-85444000D01*
X95444936Y-83974000D02*
X95899064Y-83974000D01*
%TO.C,R1*%
X97931064Y-92864000D02*
X97476936Y-92864000D01*
X97931064Y-94334000D02*
X97476936Y-94334000D01*
%TO.C,R12*%
X100270936Y-85444000D02*
X100725064Y-85444000D01*
X100270936Y-83974000D02*
X100725064Y-83974000D01*
%TO.C,R8*%
X100016936Y-90016000D02*
X100471064Y-90016000D01*
X100016936Y-88546000D02*
X100471064Y-88546000D01*
%TO.C,JP1*%
X101076000Y-113258000D02*
X99126000Y-113258000D01*
X99126000Y-113258000D02*
X99126000Y-118758000D01*
X98576000Y-117108000D02*
X98876000Y-117408000D01*
X98876000Y-117408000D02*
X98576000Y-117708000D01*
X98576000Y-117708000D02*
X98576000Y-117108000D01*
X101076000Y-118758000D02*
X101076000Y-113258000D01*
X99126000Y-118758000D02*
X101076000Y-118758000D01*
%TO.C,R4*%
X105684064Y-108358000D02*
X105229936Y-108358000D01*
X105684064Y-109828000D02*
X105229936Y-109828000D01*
%TD*%
M02*
