%TF.GenerationSoftware,KiCad,Pcbnew,7.0.10*%
%TF.CreationDate,2024-03-04T00:36:13-06:00*%
%TF.ProjectId,ESP32,45535033-322e-46b6-9963-61645f706362,rev?*%
%TF.SameCoordinates,Original*%
%TF.FileFunction,Copper,L2,Bot*%
%TF.FilePolarity,Positive*%
%FSLAX46Y46*%
G04 Gerber Fmt 4.6, Leading zero omitted, Abs format (unit mm)*
G04 Created by KiCad (PCBNEW 7.0.10) date 2024-03-04 00:36:13*
%MOMM*%
%LPD*%
G01*
G04 APERTURE LIST*
G04 Aperture macros list*
%AMRoundRect*
0 Rectangle with rounded corners*
0 $1 Rounding radius*
0 $2 $3 $4 $5 $6 $7 $8 $9 X,Y pos of 4 corners*
0 Add a 4 corners polygon primitive as box body*
4,1,4,$2,$3,$4,$5,$6,$7,$8,$9,$2,$3,0*
0 Add four circle primitives for the rounded corners*
1,1,$1+$1,$2,$3*
1,1,$1+$1,$4,$5*
1,1,$1+$1,$6,$7*
1,1,$1+$1,$8,$9*
0 Add four rect primitives between the rounded corners*
20,1,$1+$1,$2,$3,$4,$5,0*
20,1,$1+$1,$4,$5,$6,$7,0*
20,1,$1+$1,$6,$7,$8,$9,0*
20,1,$1+$1,$8,$9,$2,$3,0*%
%AMFreePoly0*
4,1,6,1.000000,0.000000,0.500000,-0.750000,-0.500000,-0.750000,-0.500000,0.750000,0.500000,0.750000,1.000000,0.000000,1.000000,0.000000,$1*%
%AMFreePoly1*
4,1,7,0.700000,0.000000,1.200000,-0.750000,-1.200000,-0.750000,-0.700000,0.000000,-1.200000,0.750000,1.200000,0.750000,0.700000,0.000000,0.700000,0.000000,$1*%
G04 Aperture macros list end*
%TA.AperFunction,ComponentPad*%
%ADD10R,1.700000X1.700000*%
%TD*%
%TA.AperFunction,ComponentPad*%
%ADD11O,1.700000X1.700000*%
%TD*%
%TA.AperFunction,ComponentPad*%
%ADD12C,2.000000*%
%TD*%
%TA.AperFunction,SMDPad,CuDef*%
%ADD13RoundRect,0.250000X-0.262500X-0.450000X0.262500X-0.450000X0.262500X0.450000X-0.262500X0.450000X0*%
%TD*%
%TA.AperFunction,SMDPad,CuDef*%
%ADD14RoundRect,0.250000X-0.475000X0.250000X-0.475000X-0.250000X0.475000X-0.250000X0.475000X0.250000X0*%
%TD*%
%TA.AperFunction,SMDPad,CuDef*%
%ADD15RoundRect,0.250000X0.250000X0.475000X-0.250000X0.475000X-0.250000X-0.475000X0.250000X-0.475000X0*%
%TD*%
%TA.AperFunction,SMDPad,CuDef*%
%ADD16RoundRect,0.250000X0.262500X0.450000X-0.262500X0.450000X-0.262500X-0.450000X0.262500X-0.450000X0*%
%TD*%
%TA.AperFunction,SMDPad,CuDef*%
%ADD17FreePoly0,270.000000*%
%TD*%
%TA.AperFunction,SMDPad,CuDef*%
%ADD18FreePoly1,90.000000*%
%TD*%
%TA.AperFunction,SMDPad,CuDef*%
%ADD19FreePoly0,90.000000*%
%TD*%
%TA.AperFunction,ViaPad*%
%ADD20C,0.800000*%
%TD*%
%TA.AperFunction,ViaPad*%
%ADD21C,1.016000*%
%TD*%
%TA.AperFunction,Conductor*%
%ADD22C,0.508000*%
%TD*%
%TA.AperFunction,Conductor*%
%ADD23C,0.762000*%
%TD*%
G04 APERTURE END LIST*
D10*
%TO.P,DHT22,1,Pin_1*%
%TO.N,+3V3*%
X131826000Y-128778000D03*
D11*
%TO.P,DHT22,2,Pin_2*%
%TO.N,/S*%
X129286000Y-128778000D03*
%TO.P,DHT22,3,Pin_3*%
%TO.N,GND*%
X126746000Y-128778000D03*
%TD*%
D10*
%TO.P,MQ135,1,Pin_1*%
%TO.N,+5V*%
X95250000Y-126492000D03*
D11*
%TO.P,MQ135,2,Pin_2*%
%TO.N,GND*%
X97790000Y-126492000D03*
%TO.P,MQ135,3,Pin_3*%
%TO.N,unconnected-(MQ135-Pin_3-Pad3)*%
X100330000Y-126492000D03*
%TO.P,MQ135,4,Pin_4*%
%TO.N,Net-(MQ135-Pin_4)*%
X102870000Y-126492000D03*
%TD*%
D12*
%TO.P,SW2,1,1*%
%TO.N,GND*%
X131282000Y-95302000D03*
X131282000Y-101802000D03*
%TO.P,SW2,2,2*%
%TO.N,/GPIO0_STRAPPING*%
X126782000Y-95302000D03*
X126782000Y-101802000D03*
%TD*%
D10*
%TO.P,USB_UART1,1,Pin_1*%
%TO.N,GND*%
X84582000Y-106934000D03*
D11*
%TO.P,USB_UART1,2,Pin_2*%
%TO.N,/RTS*%
X84582000Y-109474000D03*
%TO.P,USB_UART1,3,Pin_3*%
%TO.N,unconnected-(USB_UART1-Pin_3-Pad3)*%
X84582000Y-112014000D03*
%TO.P,USB_UART1,4,Pin_4*%
%TO.N,/RX*%
X84582000Y-114554000D03*
%TO.P,USB_UART1,5,Pin_5*%
%TO.N,/TX*%
X84582000Y-117094000D03*
%TO.P,USB_UART1,6,Pin_6*%
%TO.N,/DTR*%
X84582000Y-119634000D03*
%TD*%
D12*
%TO.P,SW1,1,1*%
%TO.N,GND*%
X131282000Y-106732000D03*
X131282000Y-113232000D03*
%TO.P,SW1,2,2*%
%TO.N,/CHIP_PU*%
X126782000Y-106732000D03*
X126782000Y-113232000D03*
%TD*%
D10*
%TO.P,HC-SR4,1,Pin_1*%
%TO.N,+5V*%
X117856000Y-70612000D03*
D11*
%TO.P,HC-SR4,2,Pin_2*%
%TO.N,/Trig*%
X115316000Y-70612000D03*
%TO.P,HC-SR4,3,Pin_3*%
%TO.N,Net-(HC-SR4-Pin_3)*%
X112776000Y-70612000D03*
%TO.P,HC-SR4,4,Pin_4*%
%TO.N,GND*%
X110236000Y-70612000D03*
%TD*%
D13*
%TO.P,R7,2*%
%TO.N,/CHIP_PU*%
X98616500Y-97409000D03*
%TO.P,R7,1*%
%TO.N,+3V3*%
X96791500Y-97409000D03*
%TD*%
%TO.P,R10,2*%
%TO.N,/Echo*%
X90725000Y-89916000D03*
%TO.P,R10,1*%
%TO.N,Net-(HC-SR4-Pin_3)*%
X88900000Y-89916000D03*
%TD*%
D14*
%TO.P,C3,2*%
%TO.N,GND*%
X94996000Y-117028000D03*
%TO.P,C3,1*%
%TO.N,+3V3*%
X94996000Y-115128000D03*
%TD*%
%TO.P,C5,1*%
%TO.N,+5V*%
X105156000Y-115128000D03*
%TO.P,C5,2*%
%TO.N,GND*%
X105156000Y-117028000D03*
%TD*%
%TO.P,C4,2*%
%TO.N,GND*%
X90551000Y-117028000D03*
%TO.P,C4,1*%
%TO.N,+3V3*%
X90551000Y-115128000D03*
%TD*%
D15*
%TO.P,C1,2*%
%TO.N,GND*%
X88862500Y-97409000D03*
%TO.P,C1,1*%
%TO.N,/CHIP_PU*%
X90762500Y-97409000D03*
%TD*%
D16*
%TO.P,R11,2*%
%TO.N,GND*%
X88917500Y-93599000D03*
%TO.P,R11,1*%
%TO.N,/Echo*%
X90742500Y-93599000D03*
%TD*%
D13*
%TO.P,R13,2*%
%TO.N,/ZMOD_SCL*%
X96584500Y-84709000D03*
%TO.P,R13,1*%
%TO.N,+3V3*%
X94759500Y-84709000D03*
%TD*%
D16*
%TO.P,R1,2*%
%TO.N,+3V3*%
X96791500Y-93599000D03*
%TO.P,R1,1*%
%TO.N,/GPIO46_STRAPPING*%
X98616500Y-93599000D03*
%TD*%
D13*
%TO.P,R12,2*%
%TO.N,/ZMOD_SDA*%
X101410500Y-84709000D03*
%TO.P,R12,1*%
%TO.N,+3V3*%
X99585500Y-84709000D03*
%TD*%
%TO.P,R8,2*%
%TO.N,/GPIO0_STRAPPING*%
X101156500Y-89281000D03*
%TO.P,R8,1*%
%TO.N,+3V3*%
X99331500Y-89281000D03*
%TD*%
D17*
%TO.P,JP1,3,B*%
%TO.N,+3V3*%
X100076000Y-114008000D03*
D18*
%TO.P,JP1,2,C*%
%TO.N,Net-(JP1-C)*%
X100076000Y-116008000D03*
D19*
%TO.P,JP1,1,A*%
%TO.N,GND*%
X100076000Y-118008000D03*
%TD*%
D16*
%TO.P,R4,2*%
%TO.N,Net-(JP1-C)*%
X104544500Y-109093000D03*
%TO.P,R4,1*%
%TO.N,/GPIO3_STRAPPING*%
X106369500Y-109093000D03*
%TD*%
D20*
%TO.N,GND*%
X98044000Y-85344000D03*
X101092000Y-86868000D03*
X106680000Y-103124000D03*
X115570000Y-103632000D03*
X117094000Y-107188000D03*
X91186000Y-101092000D03*
X94234000Y-101092000D03*
X114554000Y-89662000D03*
X93980000Y-79502000D03*
X101346000Y-73406000D03*
X104648000Y-74676000D03*
X89662000Y-109728000D03*
X100076000Y-109728000D03*
X114554000Y-110998000D03*
X81280000Y-119634000D03*
X81280000Y-102108000D03*
X93218000Y-94488000D03*
X95504000Y-96012000D03*
X102108000Y-92456000D03*
X97282000Y-88138000D03*
X92202000Y-88392000D03*
X88138000Y-84074000D03*
X90170000Y-73914000D03*
%TO.N,/CHIP_PU*%
X118580000Y-105918000D03*
%TO.N,/GPIO0_STRAPPING*%
X115570000Y-79756000D03*
X115062000Y-75692000D03*
%TO.N,/DTR*%
X113030000Y-75692000D03*
%TO.N,/GPIO3_STRAPPING*%
X107442000Y-97282000D03*
%TO.N,/CHIP_PU*%
X101600000Y-103331000D03*
%TO.N,/GPIO46_STRAPPING*%
X102870000Y-96012000D03*
%TO.N,/Trig*%
X93218000Y-86614000D03*
X96266000Y-83312000D03*
D21*
%TO.N,+3V3*%
X98552000Y-102416000D03*
D20*
%TO.N,/TX*%
X91186000Y-83566000D03*
%TO.N,/RX*%
X92456000Y-83566000D03*
%TO.N,/Trig*%
X92456000Y-97536000D03*
%TO.N,/GPIO0_STRAPPING*%
X103124000Y-83820000D03*
%TO.N,/ZMOD_SDA*%
X100330000Y-83312000D03*
%TO.N,/ZMOD_SCL*%
X98044000Y-83312000D03*
%TO.N,/CHIP_PU*%
X89916000Y-100584000D03*
%TO.N,/Echo*%
X93472000Y-96266000D03*
D21*
%TO.N,+3V3*%
X94488000Y-108458000D03*
D20*
%TO.N,GND*%
X92710000Y-112522000D03*
D21*
%TO.N,+3V3*%
X106680000Y-114047000D03*
D20*
%TO.N,/RTS*%
X104232000Y-104394000D03*
D21*
%TO.N,+3V3*%
X102108000Y-112268000D03*
D20*
%TO.N,GND*%
X95250000Y-120396000D03*
X103124000Y-121920000D03*
X102616000Y-115316000D03*
%TO.N,/DTR*%
X112799500Y-104394000D03*
%TO.N,GND*%
X111506000Y-116840000D03*
X114554000Y-122174000D03*
X138684000Y-114300000D03*
X123444000Y-114808000D03*
X128016000Y-74676000D03*
X138684000Y-101092000D03*
X121666000Y-109728000D03*
X122682000Y-91948000D03*
X139446000Y-84328000D03*
X116586000Y-74422000D03*
X103886000Y-71120000D03*
%TD*%
D22*
%TO.N,/RTS*%
X90678000Y-104394000D02*
X104232000Y-104394000D01*
X85598000Y-109474000D02*
X90678000Y-104394000D01*
X84582000Y-109474000D02*
X85598000Y-109474000D01*
%TO.N,/GPIO3_STRAPPING*%
X112430000Y-103540000D02*
X107442000Y-98552000D01*
X107442000Y-98552000D02*
X107442000Y-97282000D01*
X111824794Y-109093000D02*
X114300000Y-106617794D01*
X114300000Y-104686761D02*
X113153239Y-103540000D01*
X113153239Y-103540000D02*
X112430000Y-103540000D01*
X106369500Y-109093000D02*
X111824794Y-109093000D01*
X114300000Y-106617794D02*
X114300000Y-104686761D01*
%TO.N,/CHIP_PU*%
X119394000Y-106732000D02*
X126782000Y-106732000D01*
X118580000Y-105918000D02*
X119394000Y-106732000D01*
X92710000Y-99356500D02*
X92159500Y-98806000D01*
X101600000Y-103331000D02*
X101553000Y-103378000D01*
X101553000Y-103378000D02*
X94488000Y-103378000D01*
X94488000Y-103378000D02*
X92710000Y-101600000D01*
X92710000Y-101600000D02*
X92710000Y-99356500D01*
%TO.N,/GPIO0_STRAPPING*%
X115570000Y-79756000D02*
X115570000Y-76200000D01*
X115570000Y-76200000D02*
X115062000Y-75692000D01*
%TO.N,/DTR*%
X113030000Y-75692000D02*
X106588000Y-82134000D01*
X106588000Y-82134000D02*
X106588000Y-98968000D01*
X106588000Y-98968000D02*
X112014000Y-104394000D01*
D23*
%TO.N,+3V3*%
X96791500Y-96709000D02*
X96791500Y-97409000D01*
X97742500Y-95758000D02*
X96791500Y-96709000D01*
X99314000Y-95758000D02*
X97742500Y-95758000D01*
X100076000Y-96520000D02*
X99314000Y-95758000D01*
X100076000Y-98552000D02*
X100076000Y-96520000D01*
X98552000Y-102416000D02*
X98552000Y-100076000D01*
X98552000Y-100076000D02*
X100076000Y-98552000D01*
%TO.N,+5V*%
X121123000Y-73879000D02*
X117856000Y-70612000D01*
X121123000Y-100975662D02*
X121123000Y-73879000D01*
D22*
%TO.N,/GPIO46_STRAPPING*%
X100457000Y-93599000D02*
X102870000Y-96012000D01*
X98616500Y-93599000D02*
X100457000Y-93599000D01*
%TO.N,/Trig*%
X113484000Y-72444000D02*
X115316000Y-70612000D01*
X111945264Y-72444000D02*
X113484000Y-72444000D01*
X102678261Y-79756000D02*
X103992997Y-78441264D01*
X99822000Y-79756000D02*
X102678261Y-79756000D01*
X103992997Y-78441264D02*
X105948000Y-78441264D01*
X96266000Y-83312000D02*
X99822000Y-79756000D01*
X105948000Y-78441264D02*
X111945264Y-72444000D01*
X97013000Y-90409000D02*
X93218000Y-86614000D01*
X97551000Y-90409000D02*
X97013000Y-90409000D01*
D23*
%TO.N,+3V3*%
X94759500Y-85409000D02*
X94759500Y-84709000D01*
X99331500Y-86868000D02*
X96218500Y-86868000D01*
X99331500Y-86868000D02*
X99331500Y-84963000D01*
X99331500Y-89281000D02*
X99331500Y-86868000D01*
X96218500Y-86868000D02*
X94759500Y-85409000D01*
X99331500Y-84963000D02*
X99585500Y-84709000D01*
X99331500Y-89809368D02*
X99331500Y-89281000D01*
X96791500Y-92349368D02*
X99331500Y-89809368D01*
X96791500Y-93599000D02*
X96791500Y-92349368D01*
X96791500Y-97409000D02*
X96791500Y-93599000D01*
D22*
%TO.N,/DTR*%
X111160000Y-105248000D02*
X112014000Y-104394000D01*
X90078000Y-111507526D02*
X96337526Y-105248000D01*
X112014000Y-104394000D02*
X112799500Y-104394000D01*
X90078000Y-113873466D02*
X90078000Y-111507526D01*
X84582000Y-119634000D02*
X84582000Y-119369466D01*
X84582000Y-119369466D02*
X90078000Y-113873466D01*
X96337526Y-105248000D02*
X111160000Y-105248000D01*
%TO.N,/TX*%
X86614000Y-88138000D02*
X91186000Y-83566000D01*
X82570000Y-105136000D02*
X86614000Y-101092000D01*
X86614000Y-101092000D02*
X86614000Y-88138000D01*
X82570000Y-115082000D02*
X82570000Y-105136000D01*
X84582000Y-117094000D02*
X82570000Y-115082000D01*
%TO.N,/RX*%
X83278000Y-105444000D02*
X87376000Y-101346000D01*
X83278000Y-113250000D02*
X83278000Y-105444000D01*
X87376000Y-88646000D02*
X92456000Y-83566000D01*
X84582000Y-114554000D02*
X83278000Y-113250000D01*
X87376000Y-101346000D02*
X87376000Y-88646000D01*
%TO.N,/Trig*%
X93472000Y-97536000D02*
X92456000Y-97536000D01*
X97551000Y-90409000D02*
X94326000Y-93634000D01*
X94326000Y-93634000D02*
X94326000Y-96682000D01*
X94326000Y-96682000D02*
X93472000Y-97536000D01*
%TO.N,/GPIO0_STRAPPING*%
X103124000Y-87313500D02*
X103124000Y-83820000D01*
X101156500Y-89281000D02*
X103124000Y-87313500D01*
%TO.N,/ZMOD_SDA*%
X101410500Y-84392500D02*
X100330000Y-83312000D01*
X101410500Y-84709000D02*
X101410500Y-84392500D01*
%TO.N,/ZMOD_SCL*%
X96647000Y-84709000D02*
X98044000Y-83312000D01*
X96584500Y-84709000D02*
X96647000Y-84709000D01*
%TO.N,Net-(HC-SR4-Pin_3)*%
X111472000Y-71916000D02*
X112776000Y-70612000D01*
X105837466Y-71916000D02*
X111472000Y-71916000D01*
X88900000Y-88853466D02*
X105837466Y-71916000D01*
X88900000Y-89916000D02*
X88900000Y-88853466D01*
%TO.N,/CHIP_PU*%
X90762500Y-99737500D02*
X89916000Y-100584000D01*
X90762500Y-97409000D02*
X90762500Y-99737500D01*
X97219500Y-98806000D02*
X98616500Y-97409000D01*
X90762500Y-97409000D02*
X92159500Y-98806000D01*
X92159500Y-98806000D02*
X97219500Y-98806000D01*
%TO.N,/Echo*%
X90805000Y-93599000D02*
X93472000Y-96266000D01*
X90742500Y-93599000D02*
X90805000Y-93599000D01*
X90742500Y-89933500D02*
X90725000Y-89916000D01*
X90742500Y-93599000D02*
X90742500Y-89933500D01*
D23*
%TO.N,+3V3*%
X94742000Y-114874000D02*
X94996000Y-115128000D01*
X94742000Y-108712000D02*
X94742000Y-114874000D01*
X94488000Y-108458000D02*
X94742000Y-108712000D01*
X100368000Y-114008000D02*
X102108000Y-112268000D01*
X96116000Y-114008000D02*
X98806000Y-114008000D01*
X106680000Y-114047000D02*
X117095000Y-114047000D01*
%TO.N,+5V*%
X105156000Y-115128000D02*
X105156000Y-114030921D01*
D22*
%TO.N,Net-(JP1-C)*%
X104544500Y-111539500D02*
X100076000Y-116008000D01*
D23*
%TO.N,+3V3*%
X94996000Y-115128000D02*
X96116000Y-114008000D01*
%TO.N,+5V*%
X105148862Y-115128000D02*
X105156000Y-115128000D01*
%TO.N,+3V3*%
X98806000Y-114008000D02*
X100076000Y-114008000D01*
%TO.N,+5V*%
X95250000Y-125026862D02*
X105148862Y-115128000D01*
%TO.N,+3V3*%
X98806000Y-114008000D02*
X100368000Y-114008000D01*
X90551000Y-115128000D02*
X94996000Y-115128000D01*
%TO.N,+5V*%
X109258921Y-109928000D02*
X112170662Y-109928000D01*
D22*
%TO.N,Net-(JP1-C)*%
X104544500Y-109093000D02*
X104544500Y-111539500D01*
D23*
%TO.N,+5V*%
X105156000Y-114030921D02*
X109258921Y-109928000D01*
X112170662Y-109928000D02*
X121123000Y-100975662D01*
%TO.N,+3V3*%
X117095000Y-114047000D02*
X131826000Y-128778000D01*
%TO.N,+5V*%
X95250000Y-126492000D02*
X95250000Y-125026862D01*
%TD*%
%TA.AperFunction,Conductor*%
%TO.N,GND*%
G36*
X144441621Y-68020502D02*
G01*
X144488114Y-68074158D01*
X144499500Y-68126500D01*
X144499500Y-132873500D01*
X144479498Y-132941621D01*
X144425842Y-132988114D01*
X144373500Y-132999500D01*
X121626500Y-132999500D01*
X121558379Y-132979498D01*
X121511886Y-132925842D01*
X121500500Y-132873500D01*
X121500500Y-132125157D01*
X121500528Y-132125014D01*
X121500524Y-132125014D01*
X121500539Y-132100002D01*
X121500541Y-132100000D01*
X121500383Y-132099617D01*
X121500381Y-132099616D01*
X121500380Y-132099615D01*
X121500305Y-132099584D01*
X121500096Y-132099498D01*
X121500002Y-132099459D01*
X121475048Y-132099459D01*
X121474842Y-132099500D01*
X110525158Y-132099500D01*
X110524952Y-132099459D01*
X110499998Y-132099459D01*
X110499901Y-132099499D01*
X110499696Y-132099584D01*
X110499618Y-132099615D01*
X110499617Y-132099617D01*
X110499459Y-132100000D01*
X110499476Y-132125014D01*
X110499471Y-132125014D01*
X110499500Y-132125157D01*
X110499500Y-132873500D01*
X110479498Y-132941621D01*
X110425842Y-132988114D01*
X110373500Y-132999500D01*
X79626500Y-132999500D01*
X79558379Y-132979498D01*
X79511886Y-132925842D01*
X79500500Y-132873500D01*
X79500500Y-128067765D01*
X82645788Y-128067765D01*
X82675412Y-128337014D01*
X82743928Y-128599090D01*
X82849869Y-128848389D01*
X82894923Y-128922211D01*
X82990982Y-129079610D01*
X83164255Y-129287820D01*
X83365998Y-129468582D01*
X83591910Y-129618044D01*
X83837176Y-129733020D01*
X84096569Y-129811060D01*
X84096572Y-129811060D01*
X84096574Y-129811061D01*
X84364557Y-129850500D01*
X84364561Y-129850500D01*
X84567631Y-129850500D01*
X84770156Y-129835677D01*
X84770160Y-129835676D01*
X84770161Y-129835676D01*
X84880665Y-129811060D01*
X85034553Y-129776780D01*
X85287558Y-129680014D01*
X85523777Y-129547441D01*
X85738177Y-129381888D01*
X85926186Y-129186881D01*
X86083799Y-128966579D01*
X86143794Y-128849889D01*
X86207656Y-128725675D01*
X86207657Y-128725672D01*
X86266349Y-128553632D01*
X86295118Y-128469305D01*
X86344319Y-128202933D01*
X86354212Y-127932235D01*
X86338880Y-127792889D01*
X86324587Y-127662985D01*
X86273981Y-127469416D01*
X86256072Y-127400912D01*
X86250487Y-127387770D01*
X86150130Y-127151610D01*
X86141357Y-127137235D01*
X86009018Y-126920390D01*
X85835745Y-126712180D01*
X85835741Y-126712177D01*
X85835740Y-126712175D01*
X85634012Y-126531427D01*
X85634002Y-126531418D01*
X85408090Y-126381956D01*
X85162824Y-126266980D01*
X85005392Y-126219615D01*
X84903425Y-126188938D01*
X84635442Y-126149500D01*
X84635439Y-126149500D01*
X84432369Y-126149500D01*
X84229839Y-126164323D01*
X84229838Y-126164323D01*
X83965456Y-126223217D01*
X83965441Y-126223222D01*
X83712441Y-126319986D01*
X83476229Y-126452555D01*
X83476225Y-126452557D01*
X83261818Y-126618116D01*
X83073815Y-126813117D01*
X83073810Y-126813123D01*
X82916203Y-127033417D01*
X82916196Y-127033427D01*
X82792343Y-127274324D01*
X82792342Y-127274327D01*
X82704883Y-127530689D01*
X82704880Y-127530702D01*
X82655681Y-127797058D01*
X82655680Y-127797069D01*
X82645788Y-128067765D01*
X79500500Y-128067765D01*
X79500500Y-100202000D01*
X79520502Y-100133879D01*
X79574158Y-100087386D01*
X79626500Y-100076000D01*
X85725500Y-100076000D01*
X85793621Y-100096002D01*
X85840114Y-100149658D01*
X85851500Y-100202000D01*
X85851500Y-100723971D01*
X85831498Y-100792092D01*
X85814595Y-100813066D01*
X82076602Y-104551058D01*
X82062753Y-104563028D01*
X82043179Y-104577601D01*
X82043176Y-104577603D01*
X82010820Y-104616163D01*
X82003409Y-104624252D01*
X81999427Y-104628234D01*
X81999421Y-104628241D01*
X81979884Y-104652948D01*
X81977576Y-104655782D01*
X81928604Y-104714147D01*
X81924574Y-104720275D01*
X81924523Y-104720242D01*
X81920405Y-104726706D01*
X81920455Y-104726737D01*
X81916605Y-104732978D01*
X81884394Y-104802054D01*
X81882798Y-104805351D01*
X81848605Y-104873434D01*
X81846095Y-104880332D01*
X81846039Y-104880311D01*
X81843525Y-104887545D01*
X81843582Y-104887564D01*
X81841273Y-104894529D01*
X81825865Y-104969148D01*
X81825073Y-104972722D01*
X81807500Y-105046874D01*
X81806648Y-105054167D01*
X81806587Y-105054159D01*
X81805809Y-105061773D01*
X81805871Y-105061779D01*
X81805231Y-105069090D01*
X81807447Y-105145254D01*
X81807500Y-105148918D01*
X81807500Y-115017271D01*
X81806170Y-115035530D01*
X81802634Y-115059668D01*
X81802634Y-115059673D01*
X81807021Y-115109817D01*
X81807500Y-115120797D01*
X81807500Y-115126420D01*
X81811155Y-115157696D01*
X81811527Y-115161337D01*
X81818168Y-115237236D01*
X81819652Y-115244423D01*
X81819593Y-115244435D01*
X81821251Y-115251916D01*
X81821310Y-115251903D01*
X81823002Y-115259043D01*
X81849070Y-115330666D01*
X81850272Y-115334126D01*
X81874234Y-115406438D01*
X81877335Y-115413088D01*
X81877280Y-115413113D01*
X81880619Y-115420010D01*
X81880673Y-115419983D01*
X81883964Y-115426537D01*
X81925850Y-115490222D01*
X81927807Y-115493292D01*
X81967812Y-115558149D01*
X81967813Y-115558150D01*
X81967815Y-115558153D01*
X81972362Y-115563903D01*
X81972314Y-115563940D01*
X81977154Y-115569881D01*
X81977200Y-115569843D01*
X81981915Y-115575462D01*
X82037375Y-115627787D01*
X82040003Y-115630340D01*
X83199341Y-116789678D01*
X83233367Y-116851990D01*
X83235816Y-116889178D01*
X83231549Y-116940676D01*
X83218844Y-117094000D01*
X83234422Y-117282000D01*
X83237437Y-117318375D01*
X83292702Y-117536612D01*
X83292703Y-117536613D01*
X83292704Y-117536616D01*
X83383140Y-117742791D01*
X83383141Y-117742793D01*
X83506275Y-117931265D01*
X83506279Y-117931270D01*
X83658762Y-118096908D01*
X83713331Y-118139381D01*
X83836424Y-118235189D01*
X83869680Y-118253186D01*
X83920071Y-118303200D01*
X83935423Y-118372516D01*
X83910862Y-118439129D01*
X83869680Y-118474814D01*
X83836426Y-118492810D01*
X83836424Y-118492811D01*
X83658762Y-118631091D01*
X83506279Y-118796729D01*
X83506275Y-118796734D01*
X83383141Y-118985206D01*
X83292703Y-119191386D01*
X83292702Y-119191387D01*
X83237437Y-119409624D01*
X83218844Y-119634000D01*
X83237437Y-119858375D01*
X83292702Y-120076612D01*
X83292703Y-120076613D01*
X83383141Y-120282793D01*
X83506275Y-120471265D01*
X83506279Y-120471270D01*
X83658762Y-120636908D01*
X83713331Y-120679381D01*
X83836424Y-120775189D01*
X84034426Y-120882342D01*
X84034427Y-120882342D01*
X84034428Y-120882343D01*
X84146227Y-120920723D01*
X84247365Y-120955444D01*
X84469431Y-120992500D01*
X84469435Y-120992500D01*
X84694565Y-120992500D01*
X84694569Y-120992500D01*
X84916635Y-120955444D01*
X85129574Y-120882342D01*
X85327576Y-120775189D01*
X85505240Y-120636906D01*
X85657722Y-120471268D01*
X85780860Y-120282791D01*
X85871296Y-120076616D01*
X85926564Y-119858368D01*
X85945156Y-119634000D01*
X85926564Y-119409632D01*
X85926562Y-119409624D01*
X85882228Y-119234551D01*
X85884895Y-119163605D01*
X85915277Y-119114525D01*
X87611837Y-117417965D01*
X87747802Y-117282000D01*
X89318000Y-117282000D01*
X89318000Y-117328516D01*
X89328605Y-117432318D01*
X89328606Y-117432321D01*
X89384342Y-117600525D01*
X89477365Y-117751339D01*
X89477370Y-117751345D01*
X89602654Y-117876629D01*
X89602660Y-117876634D01*
X89753474Y-117969657D01*
X89921678Y-118025393D01*
X89921681Y-118025394D01*
X90025483Y-118035999D01*
X90025483Y-118036000D01*
X90297000Y-118036000D01*
X90297000Y-117282000D01*
X90805000Y-117282000D01*
X90805000Y-118036000D01*
X91076517Y-118036000D01*
X91076516Y-118035999D01*
X91180318Y-118025394D01*
X91180321Y-118025393D01*
X91348525Y-117969657D01*
X91499339Y-117876634D01*
X91499345Y-117876629D01*
X91624629Y-117751345D01*
X91624634Y-117751339D01*
X91717657Y-117600525D01*
X91773393Y-117432321D01*
X91773394Y-117432318D01*
X91783999Y-117328516D01*
X91784000Y-117328516D01*
X91784000Y-117282000D01*
X93763000Y-117282000D01*
X93763000Y-117328516D01*
X93773605Y-117432318D01*
X93773606Y-117432321D01*
X93829342Y-117600525D01*
X93922365Y-117751339D01*
X93922370Y-117751345D01*
X94047654Y-117876629D01*
X94047660Y-117876634D01*
X94198474Y-117969657D01*
X94366678Y-118025393D01*
X94366681Y-118025394D01*
X94470483Y-118035999D01*
X94470483Y-118036000D01*
X94742000Y-118036000D01*
X94742000Y-117282000D01*
X95250000Y-117282000D01*
X95250000Y-118036000D01*
X95521517Y-118036000D01*
X95521516Y-118035999D01*
X95625318Y-118025394D01*
X95625321Y-118025393D01*
X95793525Y-117969657D01*
X95944339Y-117876634D01*
X95944345Y-117876629D01*
X96069629Y-117751345D01*
X96069634Y-117751339D01*
X96162657Y-117600525D01*
X96218393Y-117432321D01*
X96218394Y-117432318D01*
X96228999Y-117328516D01*
X96229000Y-117328516D01*
X96229000Y-117282000D01*
X95250000Y-117282000D01*
X94742000Y-117282000D01*
X93763000Y-117282000D01*
X91784000Y-117282000D01*
X90805000Y-117282000D01*
X90297000Y-117282000D01*
X89318000Y-117282000D01*
X87747802Y-117282000D01*
X89250293Y-115779509D01*
X89312603Y-115745485D01*
X89383418Y-115750550D01*
X89440254Y-115793097D01*
X89446626Y-115802458D01*
X89476968Y-115851649D01*
X89476975Y-115851658D01*
X89602345Y-115977028D01*
X89605450Y-115979483D01*
X89607027Y-115981710D01*
X89607537Y-115982220D01*
X89607449Y-115982307D01*
X89646481Y-116037422D01*
X89649673Y-116108347D01*
X89614014Y-116169739D01*
X89605454Y-116177157D01*
X89602654Y-116179370D01*
X89477370Y-116304654D01*
X89477365Y-116304660D01*
X89384342Y-116455474D01*
X89328606Y-116623678D01*
X89328605Y-116623681D01*
X89318000Y-116727483D01*
X89318000Y-116774000D01*
X91784000Y-116774000D01*
X91784000Y-116727483D01*
X91773394Y-116623681D01*
X91773393Y-116623678D01*
X91717657Y-116455474D01*
X91624634Y-116304660D01*
X91624629Y-116304654D01*
X91552570Y-116232595D01*
X91518544Y-116170283D01*
X91523609Y-116099468D01*
X91566156Y-116042632D01*
X91632676Y-116017821D01*
X91641665Y-116017500D01*
X93905335Y-116017500D01*
X93973456Y-116037502D01*
X94019949Y-116091158D01*
X94030053Y-116161432D01*
X94000559Y-116226012D01*
X93994430Y-116232595D01*
X93922370Y-116304654D01*
X93922365Y-116304660D01*
X93829342Y-116455474D01*
X93773606Y-116623678D01*
X93773605Y-116623681D01*
X93763000Y-116727483D01*
X93763000Y-116774000D01*
X96229000Y-116774000D01*
X96229000Y-116727483D01*
X96218394Y-116623681D01*
X96218393Y-116623678D01*
X96162657Y-116455474D01*
X96069634Y-116304660D01*
X96069629Y-116304654D01*
X95944344Y-116179369D01*
X95941551Y-116177161D01*
X95940131Y-116175156D01*
X95939150Y-116174175D01*
X95939317Y-116174007D01*
X95900519Y-116119222D01*
X95897325Y-116048298D01*
X95932983Y-115986905D01*
X95941554Y-115979478D01*
X95944639Y-115977037D01*
X95944652Y-115977030D01*
X96070030Y-115851652D01*
X96163115Y-115700738D01*
X96218887Y-115532426D01*
X96229500Y-115428545D01*
X96229499Y-115204633D01*
X96249501Y-115136513D01*
X96266399Y-115115542D01*
X96447539Y-114934404D01*
X96509851Y-114900379D01*
X96536634Y-114897500D01*
X98686271Y-114897500D01*
X98754392Y-114917502D01*
X98800885Y-114971158D01*
X98812271Y-115023500D01*
X98812271Y-117208000D01*
X98818800Y-117289645D01*
X98830927Y-117328516D01*
X98858832Y-117417965D01*
X98862348Y-117429233D01*
X98943457Y-117550897D01*
X98943458Y-117550898D01*
X98943459Y-117550899D01*
X99002714Y-117600525D01*
X99055558Y-117644782D01*
X99189569Y-117703282D01*
X99251738Y-117711156D01*
X99334628Y-117721656D01*
X99334629Y-117721655D01*
X99334632Y-117721656D01*
X99478996Y-117698418D01*
X99610966Y-117635448D01*
X100006111Y-117372017D01*
X100073881Y-117350875D01*
X100142329Y-117369729D01*
X100145888Y-117372017D01*
X100541034Y-117635448D01*
X100541040Y-117635451D01*
X100541046Y-117635455D01*
X100612589Y-117675304D01*
X100752889Y-117716500D01*
X100752892Y-117716500D01*
X100899108Y-117716500D01*
X100899111Y-117716500D01*
X100996401Y-117687933D01*
X101067396Y-117687933D01*
X101127122Y-117726316D01*
X101156615Y-117790897D01*
X101146512Y-117861171D01*
X101120993Y-117897924D01*
X94677544Y-124341373D01*
X94662518Y-124354208D01*
X94651530Y-124362192D01*
X94606768Y-124411905D01*
X94602233Y-124416684D01*
X94588065Y-124430853D01*
X94588057Y-124430862D01*
X94575448Y-124446431D01*
X94571172Y-124451437D01*
X94526418Y-124501143D01*
X94526410Y-124501154D01*
X94519626Y-124512904D01*
X94508431Y-124529193D01*
X94499893Y-124539736D01*
X94469521Y-124599343D01*
X94466375Y-124605137D01*
X94432925Y-124663075D01*
X94432923Y-124663079D01*
X94428731Y-124675982D01*
X94421168Y-124694243D01*
X94415007Y-124706335D01*
X94397688Y-124770966D01*
X94395815Y-124777288D01*
X94375144Y-124840904D01*
X94373726Y-124854400D01*
X94370125Y-124873830D01*
X94366610Y-124886949D01*
X94363110Y-124953748D01*
X94362593Y-124960324D01*
X94360500Y-124980234D01*
X94360500Y-125000268D01*
X94360327Y-125006863D01*
X94358923Y-125033649D01*
X94335383Y-125100630D01*
X94279367Y-125144250D01*
X94277129Y-125145109D01*
X94153797Y-125191110D01*
X94153792Y-125191112D01*
X94036738Y-125278738D01*
X93949112Y-125395792D01*
X93949110Y-125395797D01*
X93898011Y-125532795D01*
X93898009Y-125532803D01*
X93891500Y-125593350D01*
X93891500Y-127390649D01*
X93898009Y-127451196D01*
X93898011Y-127451204D01*
X93949110Y-127588202D01*
X93949112Y-127588207D01*
X94036738Y-127705261D01*
X94153792Y-127792887D01*
X94153794Y-127792888D01*
X94153796Y-127792889D01*
X94207600Y-127812957D01*
X94290795Y-127843988D01*
X94290803Y-127843990D01*
X94351350Y-127850499D01*
X94351355Y-127850499D01*
X94351362Y-127850500D01*
X94351368Y-127850500D01*
X96148632Y-127850500D01*
X96148638Y-127850500D01*
X96148645Y-127850499D01*
X96148649Y-127850499D01*
X96209196Y-127843990D01*
X96209199Y-127843989D01*
X96209201Y-127843989D01*
X96346204Y-127792889D01*
X96369976Y-127775094D01*
X96463261Y-127705261D01*
X96550886Y-127588208D01*
X96550885Y-127588208D01*
X96550889Y-127588204D01*
X96595196Y-127469413D01*
X96637741Y-127412581D01*
X96704262Y-127387770D01*
X96773636Y-127402862D01*
X96805952Y-127428112D01*
X96867097Y-127494534D01*
X97044698Y-127632767D01*
X97044699Y-127632768D01*
X97242628Y-127739882D01*
X97242630Y-127739883D01*
X97455483Y-127812955D01*
X97455492Y-127812957D01*
X97536000Y-127826391D01*
X97536000Y-126925674D01*
X97647685Y-126976680D01*
X97754237Y-126992000D01*
X97825763Y-126992000D01*
X97932315Y-126976680D01*
X98044000Y-126925674D01*
X98044000Y-127826390D01*
X98124507Y-127812957D01*
X98124516Y-127812955D01*
X98337369Y-127739883D01*
X98337371Y-127739882D01*
X98535300Y-127632768D01*
X98535301Y-127632767D01*
X98712902Y-127494534D01*
X98865327Y-127328955D01*
X98954217Y-127192899D01*
X99008220Y-127146810D01*
X99078568Y-127137235D01*
X99142925Y-127167212D01*
X99165183Y-127192898D01*
X99254279Y-127329270D01*
X99371904Y-127457043D01*
X99390377Y-127477110D01*
X99406762Y-127494908D01*
X99452733Y-127530689D01*
X99584424Y-127633189D01*
X99782426Y-127740342D01*
X99782427Y-127740342D01*
X99782428Y-127740343D01*
X99883646Y-127775091D01*
X99995365Y-127813444D01*
X100217431Y-127850500D01*
X100217435Y-127850500D01*
X100442565Y-127850500D01*
X100442569Y-127850500D01*
X100664635Y-127813444D01*
X100877574Y-127740342D01*
X101075576Y-127633189D01*
X101253240Y-127494906D01*
X101405722Y-127329268D01*
X101405927Y-127328955D01*
X101422519Y-127303558D01*
X101494518Y-127193354D01*
X101548520Y-127147268D01*
X101618868Y-127137692D01*
X101683225Y-127167669D01*
X101705480Y-127193353D01*
X101736770Y-127241246D01*
X101794275Y-127329265D01*
X101794279Y-127329270D01*
X101911904Y-127457043D01*
X101930377Y-127477110D01*
X101946762Y-127494908D01*
X101992733Y-127530689D01*
X102124424Y-127633189D01*
X102322426Y-127740342D01*
X102322427Y-127740342D01*
X102322428Y-127740343D01*
X102423646Y-127775091D01*
X102535365Y-127813444D01*
X102757431Y-127850500D01*
X102757435Y-127850500D01*
X102982565Y-127850500D01*
X102982569Y-127850500D01*
X103204635Y-127813444D01*
X103417574Y-127740342D01*
X103615576Y-127633189D01*
X103793240Y-127494906D01*
X103945722Y-127329268D01*
X103945927Y-127328955D01*
X103981618Y-127274325D01*
X104068860Y-127140791D01*
X104159296Y-126934616D01*
X104214564Y-126716368D01*
X104233156Y-126492000D01*
X104214564Y-126267632D01*
X104203317Y-126223217D01*
X104159297Y-126049387D01*
X104159296Y-126049386D01*
X104159296Y-126049384D01*
X104068860Y-125843209D01*
X104051597Y-125816786D01*
X103945724Y-125654734D01*
X103945720Y-125654729D01*
X103829570Y-125528559D01*
X103793240Y-125489094D01*
X103793239Y-125489093D01*
X103793237Y-125489091D01*
X103673367Y-125395792D01*
X103615576Y-125350811D01*
X103417574Y-125243658D01*
X103417572Y-125243657D01*
X103417571Y-125243656D01*
X103204639Y-125170557D01*
X103204630Y-125170555D01*
X103127029Y-125157606D01*
X102982569Y-125133500D01*
X102757431Y-125133500D01*
X102612971Y-125157606D01*
X102535369Y-125170555D01*
X102535360Y-125170557D01*
X102322428Y-125243656D01*
X102322426Y-125243658D01*
X102124426Y-125350810D01*
X102124424Y-125350811D01*
X101946762Y-125489091D01*
X101794279Y-125654729D01*
X101705483Y-125790643D01*
X101651479Y-125836731D01*
X101581131Y-125846306D01*
X101516774Y-125816329D01*
X101494517Y-125790643D01*
X101405720Y-125654729D01*
X101289570Y-125528559D01*
X101253240Y-125489094D01*
X101253239Y-125489093D01*
X101253237Y-125489091D01*
X101133367Y-125395792D01*
X101075576Y-125350811D01*
X100877574Y-125243658D01*
X100877572Y-125243657D01*
X100877571Y-125243656D01*
X100664639Y-125170557D01*
X100664630Y-125170555D01*
X100587029Y-125157606D01*
X100442569Y-125133500D01*
X100217431Y-125133500D01*
X100072971Y-125157606D01*
X99995369Y-125170555D01*
X99995360Y-125170557D01*
X99782428Y-125243656D01*
X99782426Y-125243658D01*
X99584426Y-125350810D01*
X99584424Y-125350811D01*
X99406762Y-125489091D01*
X99254279Y-125654729D01*
X99165183Y-125791101D01*
X99111179Y-125837189D01*
X99040831Y-125846764D01*
X98976474Y-125816786D01*
X98954217Y-125791100D01*
X98865327Y-125655044D01*
X98712902Y-125489465D01*
X98535301Y-125351232D01*
X98535300Y-125351231D01*
X98337371Y-125244117D01*
X98337369Y-125244116D01*
X98124512Y-125171043D01*
X98124501Y-125171040D01*
X98044000Y-125157606D01*
X98044000Y-126058325D01*
X97932315Y-126007320D01*
X97825763Y-125992000D01*
X97754237Y-125992000D01*
X97647685Y-126007320D01*
X97536000Y-126058325D01*
X97536000Y-125157607D01*
X97535999Y-125157606D01*
X97455498Y-125171040D01*
X97455487Y-125171043D01*
X97242630Y-125244116D01*
X97242628Y-125244117D01*
X97044699Y-125351231D01*
X97044698Y-125351232D01*
X96867096Y-125489465D01*
X96805951Y-125555888D01*
X96745098Y-125592459D01*
X96674134Y-125590324D01*
X96615588Y-125550163D01*
X96595195Y-125514583D01*
X96550889Y-125395796D01*
X96550887Y-125395792D01*
X96463262Y-125278740D01*
X96463261Y-125278739D01*
X96461173Y-125277176D01*
X96459607Y-125275084D01*
X96456889Y-125272366D01*
X96457279Y-125271975D01*
X96418628Y-125220341D01*
X96413564Y-125149525D01*
X96447587Y-125087216D01*
X103855659Y-117679144D01*
X103917967Y-117645121D01*
X103988782Y-117650186D01*
X104045618Y-117692733D01*
X104051990Y-117702095D01*
X104082361Y-117751333D01*
X104082370Y-117751345D01*
X104207654Y-117876629D01*
X104207660Y-117876634D01*
X104358474Y-117969657D01*
X104526678Y-118025393D01*
X104526681Y-118025394D01*
X104630483Y-118035999D01*
X104630483Y-118036000D01*
X104902000Y-118036000D01*
X104902000Y-117282000D01*
X105410000Y-117282000D01*
X105410000Y-118036000D01*
X105681517Y-118036000D01*
X105681516Y-118035999D01*
X105785318Y-118025394D01*
X105785321Y-118025393D01*
X105953525Y-117969657D01*
X106104339Y-117876634D01*
X106104345Y-117876629D01*
X106229629Y-117751345D01*
X106229634Y-117751339D01*
X106322657Y-117600525D01*
X106378393Y-117432321D01*
X106378394Y-117432318D01*
X106388999Y-117328516D01*
X106389000Y-117328516D01*
X106389000Y-117282000D01*
X105410000Y-117282000D01*
X104902000Y-117282000D01*
X104902000Y-116900000D01*
X104922002Y-116831879D01*
X104975658Y-116785386D01*
X105028000Y-116774000D01*
X106389000Y-116774000D01*
X106389000Y-116727483D01*
X106378394Y-116623681D01*
X106378393Y-116623678D01*
X106322657Y-116455474D01*
X106229634Y-116304660D01*
X106229629Y-116304654D01*
X106104344Y-116179369D01*
X106101551Y-116177161D01*
X106100131Y-116175156D01*
X106099150Y-116174175D01*
X106099317Y-116174007D01*
X106060519Y-116119222D01*
X106057325Y-116048298D01*
X106092983Y-115986905D01*
X106101554Y-115979478D01*
X106104639Y-115977037D01*
X106104652Y-115977030D01*
X106230030Y-115851652D01*
X106323115Y-115700738D01*
X106378887Y-115532426D01*
X106389500Y-115428545D01*
X106389499Y-115178824D01*
X106409501Y-115110706D01*
X106463156Y-115064213D01*
X106527849Y-115053433D01*
X106679997Y-115068418D01*
X106680000Y-115068418D01*
X106680003Y-115068418D01*
X106879261Y-115048793D01*
X106879263Y-115048793D01*
X106879264Y-115048792D01*
X106879269Y-115048792D01*
X107070880Y-114990667D01*
X107144384Y-114951377D01*
X107203780Y-114936500D01*
X116674367Y-114936500D01*
X116742488Y-114956502D01*
X116763462Y-114973405D01*
X129031303Y-127241246D01*
X129065329Y-127303558D01*
X129060264Y-127374373D01*
X129017717Y-127431209D01*
X128962951Y-127454622D01*
X128951373Y-127456554D01*
X128951360Y-127456557D01*
X128738428Y-127529656D01*
X128738426Y-127529658D01*
X128540426Y-127636810D01*
X128540424Y-127636811D01*
X128362762Y-127775091D01*
X128210279Y-127940729D01*
X128121183Y-128077101D01*
X128067179Y-128123189D01*
X127996831Y-128132764D01*
X127932474Y-128102786D01*
X127910217Y-128077100D01*
X127821327Y-127941044D01*
X127668902Y-127775465D01*
X127491301Y-127637232D01*
X127491300Y-127637231D01*
X127293371Y-127530117D01*
X127293369Y-127530116D01*
X127080512Y-127457043D01*
X127080501Y-127457040D01*
X127000000Y-127443606D01*
X127000000Y-128344325D01*
X126888315Y-128293320D01*
X126781763Y-128278000D01*
X126710237Y-128278000D01*
X126603685Y-128293320D01*
X126492000Y-128344325D01*
X126492000Y-127443607D01*
X126491999Y-127443606D01*
X126411498Y-127457040D01*
X126411487Y-127457043D01*
X126198630Y-127530116D01*
X126198628Y-127530117D01*
X126000699Y-127637231D01*
X126000698Y-127637232D01*
X125823097Y-127775465D01*
X125670674Y-127941041D01*
X125547580Y-128129451D01*
X125457179Y-128335543D01*
X125457176Y-128335550D01*
X125409455Y-128523999D01*
X125409456Y-128524000D01*
X126314884Y-128524000D01*
X126286507Y-128568156D01*
X126246000Y-128706111D01*
X126246000Y-128849889D01*
X126286507Y-128987844D01*
X126314884Y-129032000D01*
X125409455Y-129032000D01*
X125457176Y-129220449D01*
X125457179Y-129220456D01*
X125547580Y-129426548D01*
X125670674Y-129614958D01*
X125823097Y-129780534D01*
X126000698Y-129918767D01*
X126000699Y-129918768D01*
X126198628Y-130025882D01*
X126198630Y-130025883D01*
X126411483Y-130098955D01*
X126411492Y-130098957D01*
X126492000Y-130112391D01*
X126492000Y-129211674D01*
X126603685Y-129262680D01*
X126710237Y-129278000D01*
X126781763Y-129278000D01*
X126888315Y-129262680D01*
X127000000Y-129211674D01*
X127000000Y-130112390D01*
X127080507Y-130098957D01*
X127080516Y-130098955D01*
X127293369Y-130025883D01*
X127293371Y-130025882D01*
X127491300Y-129918768D01*
X127491301Y-129918767D01*
X127668902Y-129780534D01*
X127821327Y-129614955D01*
X127910217Y-129478899D01*
X127964220Y-129432810D01*
X128034568Y-129423235D01*
X128098925Y-129453212D01*
X128121183Y-129478898D01*
X128210279Y-129615270D01*
X128362762Y-129780908D01*
X128401501Y-129811060D01*
X128540424Y-129919189D01*
X128738426Y-130026342D01*
X128738427Y-130026342D01*
X128738428Y-130026343D01*
X128850227Y-130064723D01*
X128951365Y-130099444D01*
X129173431Y-130136500D01*
X129173435Y-130136500D01*
X129398565Y-130136500D01*
X129398569Y-130136500D01*
X129620635Y-130099444D01*
X129833574Y-130026342D01*
X130031576Y-129919189D01*
X130209240Y-129780906D01*
X130270245Y-129714637D01*
X130331096Y-129678067D01*
X130402061Y-129680200D01*
X130460606Y-129720362D01*
X130481000Y-129755941D01*
X130525111Y-129874204D01*
X130525112Y-129874207D01*
X130612738Y-129991261D01*
X130729792Y-130078887D01*
X130729794Y-130078888D01*
X130729796Y-130078889D01*
X130783600Y-130098957D01*
X130866795Y-130129988D01*
X130866803Y-130129990D01*
X130927350Y-130136499D01*
X130927355Y-130136499D01*
X130927362Y-130136500D01*
X130927368Y-130136500D01*
X132724632Y-130136500D01*
X132724638Y-130136500D01*
X132724645Y-130136499D01*
X132724649Y-130136499D01*
X132785196Y-130129990D01*
X132785199Y-130129989D01*
X132785201Y-130129989D01*
X132922204Y-130078889D01*
X132992399Y-130026342D01*
X133039261Y-129991261D01*
X133126887Y-129874207D01*
X133126887Y-129874206D01*
X133126889Y-129874204D01*
X133177989Y-129737201D01*
X133178439Y-129733020D01*
X133184499Y-129676649D01*
X133184500Y-129676632D01*
X133184500Y-128067765D01*
X137645788Y-128067765D01*
X137675412Y-128337014D01*
X137743928Y-128599090D01*
X137849869Y-128848389D01*
X137894923Y-128922211D01*
X137990982Y-129079610D01*
X138164255Y-129287820D01*
X138365998Y-129468582D01*
X138591910Y-129618044D01*
X138837176Y-129733020D01*
X139096569Y-129811060D01*
X139096572Y-129811060D01*
X139096574Y-129811061D01*
X139364557Y-129850500D01*
X139364561Y-129850500D01*
X139567631Y-129850500D01*
X139770156Y-129835677D01*
X139770160Y-129835676D01*
X139770161Y-129835676D01*
X139880665Y-129811060D01*
X140034553Y-129776780D01*
X140287558Y-129680014D01*
X140523777Y-129547441D01*
X140738177Y-129381888D01*
X140926186Y-129186881D01*
X141083799Y-128966579D01*
X141143794Y-128849889D01*
X141207656Y-128725675D01*
X141207657Y-128725672D01*
X141266349Y-128553632D01*
X141295118Y-128469305D01*
X141344319Y-128202933D01*
X141354212Y-127932235D01*
X141338880Y-127792889D01*
X141324587Y-127662985D01*
X141273981Y-127469416D01*
X141256072Y-127400912D01*
X141250487Y-127387770D01*
X141150130Y-127151610D01*
X141141357Y-127137235D01*
X141009018Y-126920390D01*
X140835745Y-126712180D01*
X140835741Y-126712177D01*
X140835740Y-126712175D01*
X140634012Y-126531427D01*
X140634002Y-126531418D01*
X140408090Y-126381956D01*
X140162824Y-126266980D01*
X140005392Y-126219615D01*
X139903425Y-126188938D01*
X139635442Y-126149500D01*
X139635439Y-126149500D01*
X139432369Y-126149500D01*
X139229839Y-126164323D01*
X139229838Y-126164323D01*
X138965456Y-126223217D01*
X138965441Y-126223222D01*
X138712441Y-126319986D01*
X138476229Y-126452555D01*
X138476225Y-126452557D01*
X138261818Y-126618116D01*
X138073815Y-126813117D01*
X138073810Y-126813123D01*
X137916203Y-127033417D01*
X137916196Y-127033427D01*
X137792343Y-127274324D01*
X137792342Y-127274327D01*
X137704883Y-127530689D01*
X137704880Y-127530702D01*
X137655681Y-127797058D01*
X137655680Y-127797069D01*
X137645788Y-128067765D01*
X133184500Y-128067765D01*
X133184500Y-127879367D01*
X133184499Y-127879350D01*
X133177990Y-127818803D01*
X133177988Y-127818795D01*
X133126889Y-127681797D01*
X133126887Y-127681792D01*
X133039261Y-127564738D01*
X132922207Y-127477112D01*
X132922202Y-127477110D01*
X132785204Y-127426011D01*
X132785196Y-127426009D01*
X132724649Y-127419500D01*
X132724638Y-127419500D01*
X131777633Y-127419500D01*
X131709512Y-127399498D01*
X131688538Y-127382595D01*
X117780488Y-113474545D01*
X117767646Y-113459509D01*
X117759669Y-113448530D01*
X117709938Y-113403751D01*
X117705154Y-113399210D01*
X117691013Y-113385069D01*
X117691007Y-113385064D01*
X117675449Y-113372465D01*
X117670434Y-113368182D01*
X117668289Y-113366251D01*
X117620715Y-113323415D01*
X117608961Y-113316629D01*
X117592667Y-113305430D01*
X117582123Y-113296891D01*
X117522520Y-113266523D01*
X117516739Y-113263385D01*
X117462379Y-113232000D01*
X125268835Y-113232000D01*
X125287465Y-113468711D01*
X125296226Y-113505202D01*
X125342894Y-113699592D01*
X125411075Y-113864195D01*
X125433760Y-113918963D01*
X125552360Y-114112500D01*
X125557825Y-114121417D01*
X125557826Y-114121419D01*
X125712030Y-114301969D01*
X125831901Y-114404348D01*
X125892584Y-114456176D01*
X126095037Y-114580240D01*
X126314406Y-114671105D01*
X126545289Y-114726535D01*
X126782000Y-114745165D01*
X127018711Y-114726535D01*
X127249594Y-114671105D01*
X127468963Y-114580240D01*
X127671416Y-114456176D01*
X127851969Y-114301969D01*
X128006176Y-114121416D01*
X128130240Y-113918963D01*
X128221105Y-113699594D01*
X128276535Y-113468711D01*
X128295165Y-113232000D01*
X129769337Y-113232000D01*
X129787960Y-113468632D01*
X129843371Y-113699437D01*
X129934208Y-113918738D01*
X130048896Y-114105890D01*
X130048897Y-114105890D01*
X130755096Y-113399690D01*
X130758884Y-113417915D01*
X130828442Y-113552156D01*
X130931638Y-113662652D01*
X131060819Y-113741209D01*
X131116420Y-113756787D01*
X130408107Y-114465101D01*
X130408108Y-114465102D01*
X130595261Y-114579791D01*
X130814562Y-114670628D01*
X131045367Y-114726039D01*
X131282000Y-114744662D01*
X131518632Y-114726039D01*
X131749437Y-114670628D01*
X131968738Y-114579791D01*
X132155890Y-114465102D01*
X132155891Y-114465102D01*
X131449624Y-113758834D01*
X131570458Y-113706349D01*
X131687739Y-113610934D01*
X131774928Y-113487415D01*
X131806838Y-113397627D01*
X132515102Y-114105891D01*
X132515102Y-114105890D01*
X132629791Y-113918738D01*
X132720628Y-113699437D01*
X132776039Y-113468632D01*
X132794662Y-113232000D01*
X132776039Y-112995367D01*
X132720628Y-112764562D01*
X132629791Y-112545261D01*
X132515102Y-112358108D01*
X132515101Y-112358107D01*
X131808902Y-113064306D01*
X131805116Y-113046085D01*
X131735558Y-112911844D01*
X131632362Y-112801348D01*
X131503181Y-112722791D01*
X131447577Y-112707211D01*
X132155890Y-111998897D01*
X132155890Y-111998896D01*
X131968738Y-111884208D01*
X131749437Y-111793371D01*
X131518632Y-111737960D01*
X131282000Y-111719337D01*
X131045367Y-111737960D01*
X130814562Y-111793371D01*
X130595266Y-111884206D01*
X130408108Y-111998897D01*
X130408108Y-111998898D01*
X131114375Y-112705165D01*
X130993542Y-112757651D01*
X130876261Y-112853066D01*
X130789072Y-112976585D01*
X130757161Y-113066371D01*
X130048898Y-112358108D01*
X130048897Y-112358108D01*
X129934206Y-112545266D01*
X129843371Y-112764562D01*
X129787960Y-112995367D01*
X129769337Y-113232000D01*
X128295165Y-113232000D01*
X128276535Y-112995289D01*
X128221105Y-112764406D01*
X128130240Y-112545037D01*
X128006176Y-112342584D01*
X128006173Y-112342580D01*
X127851969Y-112162030D01*
X127671419Y-112007826D01*
X127671417Y-112007825D01*
X127671416Y-112007824D01*
X127468963Y-111883760D01*
X127452926Y-111877117D01*
X127249592Y-111792894D01*
X127091651Y-111754976D01*
X127018711Y-111737465D01*
X126782000Y-111718835D01*
X126545289Y-111737465D01*
X126314407Y-111792894D01*
X126095038Y-111883759D01*
X125892582Y-112007825D01*
X125892580Y-112007826D01*
X125712030Y-112162030D01*
X125557826Y-112342580D01*
X125557825Y-112342582D01*
X125433759Y-112545038D01*
X125342894Y-112764407D01*
X125307498Y-112911844D01*
X125287465Y-112995289D01*
X125268835Y-113232000D01*
X117462379Y-113232000D01*
X117458785Y-113229925D01*
X117445872Y-113225729D01*
X117427613Y-113218165D01*
X117415524Y-113212006D01*
X117415521Y-113212005D01*
X117350906Y-113194691D01*
X117344582Y-113192818D01*
X117280957Y-113172144D01*
X117267463Y-113170726D01*
X117248033Y-113167125D01*
X117234919Y-113163611D01*
X117234908Y-113163610D01*
X117168112Y-113160110D01*
X117161534Y-113159593D01*
X117141623Y-113157500D01*
X117141620Y-113157500D01*
X117121593Y-113157500D01*
X117114999Y-113157327D01*
X117112793Y-113157211D01*
X117048191Y-113153825D01*
X117034786Y-113155949D01*
X117015075Y-113157500D01*
X107591554Y-113157500D01*
X107523433Y-113137498D01*
X107476940Y-113083842D01*
X107466836Y-113013568D01*
X107496330Y-112948988D01*
X107502459Y-112942405D01*
X109590459Y-110854405D01*
X109652771Y-110820379D01*
X109679554Y-110817500D01*
X112090737Y-110817500D01*
X112110447Y-110819050D01*
X112123852Y-110821174D01*
X112190661Y-110817672D01*
X112197255Y-110817500D01*
X112217274Y-110817500D01*
X112217282Y-110817500D01*
X112237240Y-110815401D01*
X112243703Y-110814892D01*
X112310577Y-110811389D01*
X112323682Y-110807876D01*
X112343133Y-110804272D01*
X112356618Y-110802855D01*
X112356620Y-110802854D01*
X112356622Y-110802854D01*
X112420235Y-110782184D01*
X112426564Y-110780309D01*
X112491186Y-110762994D01*
X112503275Y-110756833D01*
X112521539Y-110749268D01*
X112534447Y-110745075D01*
X112534450Y-110745073D01*
X112534451Y-110745073D01*
X112570209Y-110724427D01*
X112592391Y-110711619D01*
X112598151Y-110708491D01*
X112657787Y-110678107D01*
X112668333Y-110669565D01*
X112684621Y-110658371D01*
X112696377Y-110651585D01*
X112696380Y-110651581D01*
X112696382Y-110651581D01*
X112746089Y-110606824D01*
X112751096Y-110602545D01*
X112766668Y-110589937D01*
X112780840Y-110575763D01*
X112785611Y-110571237D01*
X112835326Y-110526475D01*
X112835327Y-110526473D01*
X112835331Y-110526470D01*
X112843316Y-110515478D01*
X112856145Y-110500458D01*
X117458031Y-105898572D01*
X117520341Y-105864548D01*
X117591156Y-105869613D01*
X117647992Y-105912160D01*
X117672434Y-105974499D01*
X117686457Y-106107927D01*
X117710526Y-106182000D01*
X117745473Y-106289556D01*
X117745476Y-106289561D01*
X117840958Y-106454941D01*
X117840965Y-106454951D01*
X117968744Y-106596864D01*
X117968747Y-106596866D01*
X118123248Y-106709118D01*
X118297712Y-106786794D01*
X118353585Y-106798670D01*
X118416059Y-106832398D01*
X118416484Y-106832822D01*
X118809058Y-107225396D01*
X118821031Y-107239250D01*
X118822489Y-107241209D01*
X118835602Y-107258822D01*
X118874168Y-107291182D01*
X118882261Y-107298599D01*
X118886235Y-107302573D01*
X118910952Y-107322117D01*
X118913767Y-107324409D01*
X118972147Y-107373396D01*
X118972149Y-107373397D01*
X118978279Y-107377429D01*
X118978244Y-107377480D01*
X118984697Y-107381591D01*
X118984729Y-107381540D01*
X118990972Y-107385391D01*
X118990979Y-107385394D01*
X118990980Y-107385395D01*
X119060039Y-107417597D01*
X119063330Y-107419190D01*
X119131434Y-107453394D01*
X119131437Y-107453394D01*
X119131438Y-107453395D01*
X119138331Y-107455904D01*
X119138309Y-107455962D01*
X119145538Y-107458475D01*
X119145558Y-107458416D01*
X119152519Y-107460722D01*
X119152521Y-107460722D01*
X119152527Y-107460725D01*
X119227225Y-107476147D01*
X119230667Y-107476911D01*
X119304877Y-107494500D01*
X119312166Y-107495352D01*
X119312158Y-107495412D01*
X119319774Y-107496190D01*
X119319780Y-107496129D01*
X119327083Y-107496767D01*
X119327092Y-107496769D01*
X119401274Y-107494611D01*
X119403270Y-107494553D01*
X119406933Y-107494500D01*
X125409486Y-107494500D01*
X125477607Y-107514502D01*
X125516918Y-107554665D01*
X125557818Y-107621408D01*
X125557826Y-107621419D01*
X125712030Y-107801969D01*
X125821087Y-107895112D01*
X125892584Y-107956176D01*
X126095037Y-108080240D01*
X126314406Y-108171105D01*
X126545289Y-108226535D01*
X126782000Y-108245165D01*
X127018711Y-108226535D01*
X127249594Y-108171105D01*
X127468963Y-108080240D01*
X127671416Y-107956176D01*
X127851969Y-107801969D01*
X128006176Y-107621416D01*
X128130240Y-107418963D01*
X128221105Y-107199594D01*
X128276535Y-106968711D01*
X128295165Y-106732000D01*
X129769337Y-106732000D01*
X129787960Y-106968632D01*
X129843371Y-107199437D01*
X129934208Y-107418738D01*
X130048896Y-107605890D01*
X130048897Y-107605890D01*
X130755096Y-106899690D01*
X130758884Y-106917915D01*
X130828442Y-107052156D01*
X130931638Y-107162652D01*
X131060819Y-107241209D01*
X131116420Y-107256787D01*
X130408107Y-107965101D01*
X130408108Y-107965102D01*
X130595261Y-108079791D01*
X130814562Y-108170628D01*
X131045367Y-108226039D01*
X131282000Y-108244662D01*
X131518632Y-108226039D01*
X131749437Y-108170628D01*
X131968738Y-108079791D01*
X132155890Y-107965102D01*
X132155891Y-107965102D01*
X131449624Y-107258834D01*
X131570458Y-107206349D01*
X131687739Y-107110934D01*
X131774928Y-106987415D01*
X131806838Y-106897627D01*
X132515102Y-107605891D01*
X132515102Y-107605890D01*
X132629791Y-107418738D01*
X132720628Y-107199437D01*
X132776039Y-106968632D01*
X132794662Y-106732000D01*
X132776039Y-106495367D01*
X132720628Y-106264562D01*
X132629791Y-106045261D01*
X132515102Y-105858108D01*
X132515101Y-105858107D01*
X131808902Y-106564306D01*
X131805116Y-106546085D01*
X131735558Y-106411844D01*
X131632362Y-106301348D01*
X131503181Y-106222791D01*
X131447577Y-106207211D01*
X132155890Y-105498897D01*
X132155890Y-105498896D01*
X131968738Y-105384208D01*
X131749437Y-105293371D01*
X131518632Y-105237960D01*
X131282000Y-105219337D01*
X131045367Y-105237960D01*
X130814562Y-105293371D01*
X130595266Y-105384206D01*
X130408108Y-105498897D01*
X130408108Y-105498898D01*
X131114375Y-106205165D01*
X130993542Y-106257651D01*
X130876261Y-106353066D01*
X130789072Y-106476585D01*
X130757161Y-106566371D01*
X130048898Y-105858108D01*
X130048897Y-105858108D01*
X129934206Y-106045266D01*
X129843371Y-106264562D01*
X129787960Y-106495367D01*
X129769337Y-106732000D01*
X128295165Y-106732000D01*
X128276535Y-106495289D01*
X128221105Y-106264406D01*
X128130240Y-106045037D01*
X128006176Y-105842584D01*
X128006173Y-105842580D01*
X127851969Y-105662030D01*
X127671419Y-105507826D01*
X127671417Y-105507825D01*
X127671416Y-105507824D01*
X127468963Y-105383760D01*
X127250744Y-105293371D01*
X127249592Y-105292894D01*
X127091651Y-105254976D01*
X127018711Y-105237465D01*
X126782000Y-105218835D01*
X126545289Y-105237465D01*
X126314407Y-105292894D01*
X126095038Y-105383759D01*
X125892582Y-105507825D01*
X125892580Y-105507826D01*
X125712030Y-105662030D01*
X125557826Y-105842580D01*
X125557818Y-105842591D01*
X125516918Y-105909335D01*
X125464271Y-105956966D01*
X125409486Y-105969500D01*
X119762028Y-105969500D01*
X119693907Y-105949498D01*
X119672933Y-105932595D01*
X119497403Y-105757065D01*
X119466665Y-105706907D01*
X119414527Y-105546444D01*
X119319040Y-105381056D01*
X119319038Y-105381054D01*
X119319034Y-105381048D01*
X119191255Y-105239135D01*
X119036752Y-105126882D01*
X118862288Y-105049206D01*
X118675487Y-105009500D01*
X118651294Y-105009500D01*
X118583173Y-104989498D01*
X118536680Y-104935842D01*
X118526576Y-104865568D01*
X118556070Y-104800988D01*
X118562199Y-104794405D01*
X120115976Y-103240628D01*
X121554603Y-101802000D01*
X125268835Y-101802000D01*
X125287465Y-102038711D01*
X125297843Y-102081940D01*
X125342894Y-102269592D01*
X125428867Y-102477149D01*
X125433760Y-102488963D01*
X125548310Y-102675891D01*
X125557825Y-102691417D01*
X125557826Y-102691419D01*
X125712030Y-102871969D01*
X125877365Y-103013178D01*
X125892584Y-103026176D01*
X126095037Y-103150240D01*
X126314406Y-103241105D01*
X126545289Y-103296535D01*
X126782000Y-103315165D01*
X127018711Y-103296535D01*
X127249594Y-103241105D01*
X127468963Y-103150240D01*
X127671416Y-103026176D01*
X127851969Y-102871969D01*
X128006176Y-102691416D01*
X128130240Y-102488963D01*
X128221105Y-102269594D01*
X128276535Y-102038711D01*
X128295165Y-101802000D01*
X129769337Y-101802000D01*
X129787960Y-102038632D01*
X129843371Y-102269437D01*
X129934208Y-102488738D01*
X130048896Y-102675890D01*
X130048897Y-102675890D01*
X130755096Y-101969690D01*
X130758884Y-101987915D01*
X130828442Y-102122156D01*
X130931638Y-102232652D01*
X131060819Y-102311209D01*
X131116420Y-102326787D01*
X130408107Y-103035101D01*
X130408108Y-103035102D01*
X130595261Y-103149791D01*
X130814562Y-103240628D01*
X131045367Y-103296039D01*
X131282000Y-103314662D01*
X131518632Y-103296039D01*
X131749437Y-103240628D01*
X131968738Y-103149791D01*
X132155890Y-103035102D01*
X132155891Y-103035102D01*
X131449624Y-102328834D01*
X131570458Y-102276349D01*
X131687739Y-102180934D01*
X131774928Y-102057415D01*
X131806838Y-101967627D01*
X132515102Y-102675891D01*
X132515102Y-102675890D01*
X132629791Y-102488738D01*
X132720628Y-102269437D01*
X132776039Y-102038632D01*
X132794662Y-101802000D01*
X132776039Y-101565367D01*
X132720628Y-101334562D01*
X132629791Y-101115261D01*
X132515102Y-100928108D01*
X132515101Y-100928107D01*
X131808902Y-101634306D01*
X131805116Y-101616085D01*
X131735558Y-101481844D01*
X131632362Y-101371348D01*
X131503181Y-101292791D01*
X131447577Y-101277211D01*
X132155890Y-100568897D01*
X132155890Y-100568896D01*
X131968738Y-100454208D01*
X131749437Y-100363371D01*
X131518632Y-100307960D01*
X131282000Y-100289337D01*
X131045367Y-100307960D01*
X130814562Y-100363371D01*
X130595266Y-100454206D01*
X130408108Y-100568897D01*
X130408108Y-100568898D01*
X131114375Y-101275165D01*
X130993542Y-101327651D01*
X130876261Y-101423066D01*
X130789072Y-101546585D01*
X130757161Y-101636371D01*
X130048898Y-100928108D01*
X130048897Y-100928108D01*
X129934206Y-101115266D01*
X129843371Y-101334562D01*
X129787960Y-101565367D01*
X129769337Y-101802000D01*
X128295165Y-101802000D01*
X128276535Y-101565289D01*
X128221105Y-101334406D01*
X128130240Y-101115037D01*
X128006176Y-100912584D01*
X128006173Y-100912580D01*
X127851969Y-100732030D01*
X127671419Y-100577826D01*
X127671417Y-100577825D01*
X127671416Y-100577824D01*
X127468963Y-100453760D01*
X127446468Y-100444442D01*
X127249592Y-100362894D01*
X127054045Y-100315948D01*
X127018711Y-100307465D01*
X126782000Y-100288835D01*
X126545289Y-100307465D01*
X126314407Y-100362894D01*
X126095038Y-100453759D01*
X125892582Y-100577825D01*
X125892580Y-100577826D01*
X125712030Y-100732030D01*
X125557826Y-100912580D01*
X125557825Y-100912582D01*
X125433759Y-101115038D01*
X125342894Y-101334407D01*
X125291955Y-101546585D01*
X125287465Y-101565289D01*
X125268835Y-101802000D01*
X121554603Y-101802000D01*
X121695458Y-101661145D01*
X121710478Y-101648316D01*
X121721470Y-101640331D01*
X121722852Y-101638797D01*
X121766237Y-101590611D01*
X121770763Y-101585840D01*
X121784937Y-101571668D01*
X121797545Y-101556096D01*
X121801824Y-101551089D01*
X121846581Y-101501382D01*
X121846581Y-101501380D01*
X121846585Y-101501377D01*
X121853371Y-101489621D01*
X121864565Y-101473333D01*
X121873107Y-101462787D01*
X121903491Y-101403151D01*
X121906619Y-101397391D01*
X121940075Y-101339447D01*
X121944268Y-101326539D01*
X121951833Y-101308275D01*
X121957994Y-101296186D01*
X121975309Y-101231561D01*
X121977184Y-101225235D01*
X121997854Y-101161622D01*
X121997855Y-101161616D01*
X121999272Y-101148133D01*
X122002877Y-101128682D01*
X122006389Y-101115577D01*
X122009892Y-101048703D01*
X122010401Y-101042240D01*
X122012500Y-101022282D01*
X122012500Y-101002255D01*
X122012673Y-100995660D01*
X122016174Y-100928852D01*
X122014051Y-100915446D01*
X122012500Y-100895736D01*
X122012500Y-95302000D01*
X125268835Y-95302000D01*
X125287465Y-95538711D01*
X125304976Y-95611651D01*
X125342894Y-95769592D01*
X125375102Y-95847348D01*
X125433760Y-95988963D01*
X125554876Y-96186606D01*
X125557825Y-96191417D01*
X125557826Y-96191419D01*
X125712030Y-96371969D01*
X125870917Y-96507671D01*
X125892584Y-96526176D01*
X126095037Y-96650240D01*
X126314406Y-96741105D01*
X126545289Y-96796535D01*
X126782000Y-96815165D01*
X127018711Y-96796535D01*
X127249594Y-96741105D01*
X127468963Y-96650240D01*
X127671416Y-96526176D01*
X127851969Y-96371969D01*
X128006176Y-96191416D01*
X128130240Y-95988963D01*
X128221105Y-95769594D01*
X128276535Y-95538711D01*
X128295165Y-95302000D01*
X129769337Y-95302000D01*
X129787960Y-95538632D01*
X129843371Y-95769437D01*
X129934208Y-95988738D01*
X130048896Y-96175890D01*
X130048897Y-96175890D01*
X130755096Y-95469690D01*
X130758884Y-95487915D01*
X130828442Y-95622156D01*
X130931638Y-95732652D01*
X131060819Y-95811209D01*
X131116420Y-95826787D01*
X130408107Y-96535101D01*
X130408108Y-96535102D01*
X130595261Y-96649791D01*
X130814562Y-96740628D01*
X131045367Y-96796039D01*
X131282000Y-96814662D01*
X131518632Y-96796039D01*
X131749437Y-96740628D01*
X131968738Y-96649791D01*
X132155890Y-96535102D01*
X132155891Y-96535102D01*
X131449624Y-95828834D01*
X131570458Y-95776349D01*
X131687739Y-95680934D01*
X131774928Y-95557415D01*
X131806838Y-95467627D01*
X132515102Y-96175891D01*
X132515102Y-96175890D01*
X132629791Y-95988738D01*
X132720628Y-95769437D01*
X132776039Y-95538632D01*
X132794662Y-95302000D01*
X132776039Y-95065367D01*
X132720628Y-94834562D01*
X132629791Y-94615261D01*
X132515102Y-94428108D01*
X132515101Y-94428107D01*
X131808902Y-95134306D01*
X131805116Y-95116085D01*
X131735558Y-94981844D01*
X131632362Y-94871348D01*
X131503181Y-94792791D01*
X131447577Y-94777211D01*
X132155890Y-94068897D01*
X132155890Y-94068896D01*
X131968738Y-93954208D01*
X131749437Y-93863371D01*
X131518632Y-93807960D01*
X131282000Y-93789337D01*
X131045367Y-93807960D01*
X130814562Y-93863371D01*
X130595266Y-93954206D01*
X130408108Y-94068897D01*
X130408108Y-94068898D01*
X131114375Y-94775165D01*
X130993542Y-94827651D01*
X130876261Y-94923066D01*
X130789072Y-95046585D01*
X130757161Y-95136371D01*
X130048898Y-94428108D01*
X130048897Y-94428108D01*
X129934206Y-94615266D01*
X129843371Y-94834562D01*
X129787960Y-95065367D01*
X129769337Y-95302000D01*
X128295165Y-95302000D01*
X128276535Y-95065289D01*
X128221105Y-94834406D01*
X128130240Y-94615037D01*
X128006176Y-94412584D01*
X127994066Y-94398405D01*
X127851969Y-94232030D01*
X127671419Y-94077826D01*
X127671417Y-94077825D01*
X127671416Y-94077824D01*
X127468963Y-93953760D01*
X127250744Y-93863371D01*
X127249592Y-93862894D01*
X127091651Y-93824976D01*
X127018711Y-93807465D01*
X126782000Y-93788835D01*
X126545289Y-93807465D01*
X126314407Y-93862894D01*
X126095038Y-93953759D01*
X125892582Y-94077825D01*
X125892580Y-94077826D01*
X125712030Y-94232030D01*
X125557826Y-94412580D01*
X125557825Y-94412582D01*
X125433759Y-94615038D01*
X125342894Y-94834407D01*
X125299195Y-95016430D01*
X125287465Y-95065289D01*
X125268835Y-95302000D01*
X122012500Y-95302000D01*
X122012500Y-73958924D01*
X122014051Y-73939212D01*
X122016174Y-73925807D01*
X122012673Y-73859000D01*
X122012500Y-73852406D01*
X122012500Y-73832387D01*
X122012500Y-73832380D01*
X122010406Y-73812471D01*
X122009889Y-73805890D01*
X122006390Y-73739094D01*
X122006389Y-73739091D01*
X122006389Y-73739085D01*
X122002874Y-73725969D01*
X121999272Y-73706529D01*
X121997855Y-73693046D01*
X121997855Y-73693044D01*
X121977173Y-73629394D01*
X121975309Y-73623098D01*
X121957995Y-73558481D01*
X121957994Y-73558476D01*
X121951830Y-73546379D01*
X121944270Y-73528126D01*
X121940075Y-73515215D01*
X121930687Y-73498955D01*
X121906619Y-73457267D01*
X121903471Y-73451469D01*
X121873108Y-73391877D01*
X121873105Y-73391872D01*
X121864570Y-73381333D01*
X121853368Y-73365034D01*
X121852107Y-73362851D01*
X121846585Y-73353285D01*
X121801806Y-73303552D01*
X121797543Y-73298561D01*
X121784935Y-73282992D01*
X121770762Y-73268819D01*
X121766237Y-73264050D01*
X121721472Y-73214333D01*
X121721471Y-73214332D01*
X121721470Y-73214331D01*
X121714654Y-73209379D01*
X121710483Y-73206348D01*
X121695452Y-73193509D01*
X121569708Y-73067765D01*
X137645788Y-73067765D01*
X137675412Y-73337014D01*
X137743928Y-73599090D01*
X137849869Y-73848389D01*
X137856345Y-73859000D01*
X137990982Y-74079610D01*
X138164255Y-74287820D01*
X138365998Y-74468582D01*
X138591910Y-74618044D01*
X138837176Y-74733020D01*
X139096569Y-74811060D01*
X139096572Y-74811060D01*
X139096574Y-74811061D01*
X139364557Y-74850500D01*
X139364561Y-74850500D01*
X139567631Y-74850500D01*
X139770156Y-74835677D01*
X139770160Y-74835676D01*
X139770161Y-74835676D01*
X139880665Y-74811060D01*
X140034553Y-74776780D01*
X140287558Y-74680014D01*
X140523777Y-74547441D01*
X140738177Y-74381888D01*
X140926186Y-74186881D01*
X141083799Y-73966579D01*
X141097870Y-73939212D01*
X141207656Y-73725675D01*
X141207657Y-73725672D01*
X141268819Y-73546393D01*
X141295118Y-73469305D01*
X141319718Y-73336119D01*
X141344318Y-73202941D01*
X141344319Y-73202930D01*
X141344407Y-73200525D01*
X141354212Y-72932235D01*
X141334398Y-72752158D01*
X141324587Y-72662985D01*
X141256071Y-72400909D01*
X141150130Y-72151610D01*
X141009018Y-71920390D01*
X140835745Y-71712180D01*
X140835741Y-71712177D01*
X140835740Y-71712175D01*
X140634012Y-71531427D01*
X140634002Y-71531418D01*
X140408090Y-71381956D01*
X140162824Y-71266980D01*
X140005392Y-71219615D01*
X139903425Y-71188938D01*
X139635442Y-71149500D01*
X139635439Y-71149500D01*
X139432369Y-71149500D01*
X139229839Y-71164323D01*
X139229838Y-71164323D01*
X138965456Y-71223217D01*
X138965441Y-71223222D01*
X138712441Y-71319986D01*
X138476229Y-71452555D01*
X138476225Y-71452557D01*
X138261818Y-71618116D01*
X138073815Y-71813117D01*
X138073810Y-71813123D01*
X137916203Y-72033417D01*
X137916196Y-72033427D01*
X137792343Y-72274324D01*
X137792342Y-72274327D01*
X137704883Y-72530689D01*
X137704880Y-72530702D01*
X137655681Y-72797058D01*
X137655680Y-72797069D01*
X137645788Y-73067765D01*
X121569708Y-73067765D01*
X119251405Y-70749462D01*
X119217379Y-70687150D01*
X119214500Y-70660367D01*
X119214500Y-69713367D01*
X119214499Y-69713350D01*
X119207990Y-69652803D01*
X119207988Y-69652795D01*
X119156889Y-69515797D01*
X119156887Y-69515792D01*
X119069261Y-69398738D01*
X118952207Y-69311112D01*
X118952202Y-69311110D01*
X118815204Y-69260011D01*
X118815196Y-69260009D01*
X118754649Y-69253500D01*
X118754638Y-69253500D01*
X116957362Y-69253500D01*
X116957350Y-69253500D01*
X116896803Y-69260009D01*
X116896795Y-69260011D01*
X116759797Y-69311110D01*
X116759792Y-69311112D01*
X116642738Y-69398738D01*
X116555112Y-69515792D01*
X116555111Y-69515795D01*
X116511000Y-69634058D01*
X116468453Y-69690893D01*
X116401932Y-69715703D01*
X116332558Y-69700611D01*
X116300246Y-69675363D01*
X116239240Y-69609094D01*
X116239239Y-69609093D01*
X116239237Y-69609091D01*
X116119372Y-69515796D01*
X116061576Y-69470811D01*
X115863574Y-69363658D01*
X115863572Y-69363657D01*
X115863571Y-69363656D01*
X115650639Y-69290557D01*
X115650630Y-69290555D01*
X115573029Y-69277606D01*
X115428569Y-69253500D01*
X115203431Y-69253500D01*
X115058971Y-69277606D01*
X114981369Y-69290555D01*
X114981360Y-69290557D01*
X114768428Y-69363656D01*
X114768426Y-69363658D01*
X114570426Y-69470810D01*
X114570424Y-69470811D01*
X114392762Y-69609091D01*
X114240279Y-69774729D01*
X114151483Y-69910643D01*
X114097479Y-69956731D01*
X114027131Y-69966306D01*
X113962774Y-69936329D01*
X113940517Y-69910643D01*
X113851720Y-69774729D01*
X113722221Y-69634058D01*
X113699240Y-69609094D01*
X113699239Y-69609093D01*
X113699237Y-69609091D01*
X113579372Y-69515796D01*
X113521576Y-69470811D01*
X113323574Y-69363658D01*
X113323572Y-69363657D01*
X113323571Y-69363656D01*
X113110639Y-69290557D01*
X113110630Y-69290555D01*
X113033029Y-69277606D01*
X112888569Y-69253500D01*
X112663431Y-69253500D01*
X112518971Y-69277606D01*
X112441369Y-69290555D01*
X112441360Y-69290557D01*
X112228428Y-69363656D01*
X112228426Y-69363658D01*
X112030426Y-69470810D01*
X112030424Y-69470811D01*
X111852762Y-69609091D01*
X111700279Y-69774729D01*
X111611183Y-69911101D01*
X111557179Y-69957189D01*
X111486831Y-69966764D01*
X111422474Y-69936786D01*
X111400217Y-69911100D01*
X111311327Y-69775044D01*
X111158902Y-69609465D01*
X110981301Y-69471232D01*
X110981300Y-69471231D01*
X110783371Y-69364117D01*
X110783369Y-69364116D01*
X110570512Y-69291043D01*
X110570501Y-69291040D01*
X110490000Y-69277606D01*
X110490000Y-70178325D01*
X110378315Y-70127320D01*
X110271763Y-70112000D01*
X110200237Y-70112000D01*
X110093685Y-70127320D01*
X109982000Y-70178325D01*
X109982000Y-69277607D01*
X109981999Y-69277606D01*
X109901498Y-69291040D01*
X109901487Y-69291043D01*
X109688630Y-69364116D01*
X109688628Y-69364117D01*
X109490699Y-69471231D01*
X109490698Y-69471232D01*
X109313097Y-69609465D01*
X109160674Y-69775041D01*
X109037580Y-69963451D01*
X108947179Y-70169543D01*
X108947176Y-70169550D01*
X108899455Y-70357999D01*
X108899456Y-70358000D01*
X109804884Y-70358000D01*
X109776507Y-70402156D01*
X109736000Y-70540111D01*
X109736000Y-70683889D01*
X109776507Y-70821844D01*
X109804884Y-70866000D01*
X108899455Y-70866000D01*
X108932520Y-70996569D01*
X108929853Y-71067515D01*
X108889253Y-71125757D01*
X108823609Y-71152803D01*
X108810376Y-71153500D01*
X105902194Y-71153500D01*
X105883934Y-71152170D01*
X105859795Y-71148634D01*
X105859787Y-71148634D01*
X105819379Y-71152170D01*
X105809663Y-71153020D01*
X105798682Y-71153500D01*
X105793049Y-71153500D01*
X105761757Y-71157157D01*
X105758115Y-71157529D01*
X105682228Y-71164169D01*
X105675042Y-71165653D01*
X105675030Y-71165595D01*
X105667548Y-71167254D01*
X105667562Y-71167311D01*
X105660428Y-71169001D01*
X105660424Y-71169002D01*
X105660419Y-71169003D01*
X105660418Y-71169004D01*
X105588784Y-71195075D01*
X105585352Y-71196268D01*
X105513026Y-71220235D01*
X105513020Y-71220237D01*
X105506374Y-71223336D01*
X105506349Y-71223283D01*
X105499454Y-71226621D01*
X105499481Y-71226674D01*
X105492930Y-71229964D01*
X105429249Y-71271846D01*
X105426163Y-71273812D01*
X105361314Y-71313813D01*
X105355559Y-71318364D01*
X105355522Y-71318317D01*
X105349588Y-71323150D01*
X105349627Y-71323196D01*
X105344006Y-71327913D01*
X105291694Y-71383358D01*
X105289142Y-71385984D01*
X93476240Y-83198886D01*
X93413928Y-83232912D01*
X93343113Y-83227847D01*
X93286277Y-83185300D01*
X93278026Y-83172791D01*
X93195041Y-83029058D01*
X93195034Y-83029048D01*
X93067255Y-82887135D01*
X92912752Y-82774882D01*
X92738288Y-82697206D01*
X92551487Y-82657500D01*
X92360513Y-82657500D01*
X92173711Y-82697206D01*
X91999247Y-82774882D01*
X91895061Y-82850578D01*
X91828193Y-82874437D01*
X91759041Y-82858356D01*
X91746939Y-82850578D01*
X91642752Y-82774882D01*
X91468288Y-82697206D01*
X91281487Y-82657500D01*
X91090513Y-82657500D01*
X90903711Y-82697206D01*
X90729247Y-82774882D01*
X90574744Y-82887135D01*
X90446965Y-83029048D01*
X90446958Y-83029058D01*
X90351476Y-83194438D01*
X90351473Y-83194445D01*
X90299335Y-83354905D01*
X90268597Y-83405063D01*
X86321095Y-87352566D01*
X86258783Y-87386592D01*
X86187968Y-87381527D01*
X86131132Y-87338980D01*
X86106321Y-87272460D01*
X86106000Y-87263471D01*
X86106000Y-80518000D01*
X79626500Y-80518000D01*
X79558379Y-80497998D01*
X79511886Y-80444342D01*
X79500500Y-80392000D01*
X79500500Y-73067765D01*
X82645788Y-73067765D01*
X82675412Y-73337014D01*
X82743928Y-73599090D01*
X82849869Y-73848389D01*
X82856345Y-73859000D01*
X82990982Y-74079610D01*
X83164255Y-74287820D01*
X83365998Y-74468582D01*
X83591910Y-74618044D01*
X83837176Y-74733020D01*
X84096569Y-74811060D01*
X84096572Y-74811060D01*
X84096574Y-74811061D01*
X84364557Y-74850500D01*
X84364561Y-74850500D01*
X84567631Y-74850500D01*
X84770156Y-74835677D01*
X84770160Y-74835676D01*
X84770161Y-74835676D01*
X84880665Y-74811060D01*
X85034553Y-74776780D01*
X85287558Y-74680014D01*
X85523777Y-74547441D01*
X85738177Y-74381888D01*
X85926186Y-74186881D01*
X86083799Y-73966579D01*
X86097870Y-73939212D01*
X86207656Y-73725675D01*
X86207657Y-73725672D01*
X86268819Y-73546393D01*
X86295118Y-73469305D01*
X86319718Y-73336119D01*
X86344318Y-73202941D01*
X86344319Y-73202930D01*
X86344407Y-73200525D01*
X86354212Y-72932235D01*
X86334398Y-72752158D01*
X86324587Y-72662985D01*
X86256071Y-72400909D01*
X86150130Y-72151610D01*
X86009018Y-71920390D01*
X85835745Y-71712180D01*
X85835741Y-71712177D01*
X85835740Y-71712175D01*
X85634012Y-71531427D01*
X85634002Y-71531418D01*
X85408090Y-71381956D01*
X85162824Y-71266980D01*
X85005392Y-71219615D01*
X84903425Y-71188938D01*
X84635442Y-71149500D01*
X84635439Y-71149500D01*
X84432369Y-71149500D01*
X84229839Y-71164323D01*
X84229838Y-71164323D01*
X83965456Y-71223217D01*
X83965441Y-71223222D01*
X83712441Y-71319986D01*
X83476229Y-71452555D01*
X83476225Y-71452557D01*
X83261818Y-71618116D01*
X83073815Y-71813117D01*
X83073810Y-71813123D01*
X82916203Y-72033417D01*
X82916196Y-72033427D01*
X82792343Y-72274324D01*
X82792342Y-72274327D01*
X82704883Y-72530689D01*
X82704880Y-72530702D01*
X82655681Y-72797058D01*
X82655680Y-72797069D01*
X82645788Y-73067765D01*
X79500500Y-73067765D01*
X79500500Y-68126500D01*
X79520502Y-68058379D01*
X79574158Y-68011886D01*
X79626500Y-68000500D01*
X144373500Y-68000500D01*
X144441621Y-68020502D01*
G37*
%TD.AperFunction*%
%TA.AperFunction,Conductor*%
G36*
X107837409Y-109875502D02*
G01*
X107883902Y-109929158D01*
X107894006Y-109999432D01*
X107864512Y-110064012D01*
X107858383Y-110070595D01*
X104583544Y-113345432D01*
X104568518Y-113358267D01*
X104557530Y-113366251D01*
X104512768Y-113415964D01*
X104508233Y-113420743D01*
X104494065Y-113434912D01*
X104494057Y-113434921D01*
X104481448Y-113450490D01*
X104477172Y-113455496D01*
X104432418Y-113505202D01*
X104432410Y-113505213D01*
X104425626Y-113516963D01*
X104414431Y-113533252D01*
X104405893Y-113543795D01*
X104375521Y-113603402D01*
X104372375Y-113609196D01*
X104338925Y-113667134D01*
X104338923Y-113667138D01*
X104334731Y-113680041D01*
X104327168Y-113698302D01*
X104321007Y-113710394D01*
X104321006Y-113710396D01*
X104321006Y-113710397D01*
X104319308Y-113716734D01*
X104303688Y-113775025D01*
X104301815Y-113781347D01*
X104281144Y-113844963D01*
X104279726Y-113858459D01*
X104276125Y-113877889D01*
X104272610Y-113891008D01*
X104269110Y-113957807D01*
X104268593Y-113964383D01*
X104266500Y-113984293D01*
X104266500Y-114004327D01*
X104266327Y-114010921D01*
X104262825Y-114077728D01*
X104264949Y-114091133D01*
X104266500Y-114110845D01*
X104266500Y-114172161D01*
X104246498Y-114240282D01*
X104212503Y-114273653D01*
X104213106Y-114274416D01*
X104207347Y-114278969D01*
X104081975Y-114404341D01*
X104081970Y-114404347D01*
X103988885Y-114555262D01*
X103933113Y-114723572D01*
X103933112Y-114723579D01*
X103922500Y-114827446D01*
X103922500Y-115044228D01*
X103902498Y-115112349D01*
X103885595Y-115133323D01*
X101520846Y-117498071D01*
X101458534Y-117532097D01*
X101387718Y-117527032D01*
X101330883Y-117484485D01*
X101306072Y-117417965D01*
X101317138Y-117356632D01*
X101318919Y-117352734D01*
X101339729Y-117208000D01*
X101339729Y-115874798D01*
X101359731Y-115806677D01*
X101376634Y-115785703D01*
X103207036Y-113955301D01*
X105037901Y-112124435D01*
X105051740Y-112112475D01*
X105071322Y-112097898D01*
X105103677Y-112059336D01*
X105111096Y-112051240D01*
X105115073Y-112047265D01*
X105134649Y-112022504D01*
X105136895Y-112019749D01*
X105185896Y-111961353D01*
X105185896Y-111961351D01*
X105185899Y-111961349D01*
X105189930Y-111955220D01*
X105189983Y-111955255D01*
X105194095Y-111948800D01*
X105194041Y-111948767D01*
X105197887Y-111942529D01*
X105197895Y-111942520D01*
X105230130Y-111873389D01*
X105231666Y-111870215D01*
X105265894Y-111802066D01*
X105265895Y-111802060D01*
X105265897Y-111802057D01*
X105268408Y-111795161D01*
X105268466Y-111795182D01*
X105270975Y-111787962D01*
X105270916Y-111787943D01*
X105273223Y-111780979D01*
X105273223Y-111780977D01*
X105273225Y-111780974D01*
X105288648Y-111706272D01*
X105289420Y-111702796D01*
X105307000Y-111628623D01*
X105307000Y-111628615D01*
X105307852Y-111621334D01*
X105307912Y-111621341D01*
X105308690Y-111613726D01*
X105308629Y-111613721D01*
X105309267Y-111606417D01*
X105309269Y-111606409D01*
X105307053Y-111530245D01*
X105307000Y-111526581D01*
X105307000Y-110167872D01*
X105327002Y-110099751D01*
X105343898Y-110078783D01*
X105367906Y-110054775D01*
X105430213Y-110020752D01*
X105501029Y-110025815D01*
X105546094Y-110054777D01*
X105633341Y-110142024D01*
X105633347Y-110142029D01*
X105633348Y-110142030D01*
X105784262Y-110235115D01*
X105952574Y-110290887D01*
X106056455Y-110301500D01*
X106682544Y-110301499D01*
X106786426Y-110290887D01*
X106954738Y-110235115D01*
X107105652Y-110142030D01*
X107231030Y-110016652D01*
X107293512Y-109915352D01*
X107346298Y-109867875D01*
X107400753Y-109855500D01*
X107769288Y-109855500D01*
X107837409Y-109875502D01*
G37*
%TD.AperFunction*%
%TA.AperFunction,Conductor*%
G36*
X95114619Y-105176502D02*
G01*
X95161112Y-105230158D01*
X95171216Y-105300432D01*
X95141722Y-105365012D01*
X95135593Y-105371595D01*
X89584602Y-110922584D01*
X89570753Y-110934554D01*
X89551179Y-110949127D01*
X89551176Y-110949129D01*
X89518820Y-110987689D01*
X89511409Y-110995778D01*
X89507427Y-110999760D01*
X89507421Y-110999767D01*
X89487884Y-111024474D01*
X89485576Y-111027308D01*
X89436604Y-111085673D01*
X89432574Y-111091801D01*
X89432523Y-111091768D01*
X89428405Y-111098232D01*
X89428455Y-111098263D01*
X89424605Y-111104504D01*
X89392394Y-111173580D01*
X89390798Y-111176877D01*
X89356605Y-111244960D01*
X89354095Y-111251858D01*
X89354039Y-111251837D01*
X89351525Y-111259071D01*
X89351582Y-111259090D01*
X89349273Y-111266055D01*
X89333865Y-111340674D01*
X89333073Y-111344248D01*
X89315500Y-111418400D01*
X89314648Y-111425693D01*
X89314587Y-111425685D01*
X89313809Y-111433299D01*
X89313871Y-111433305D01*
X89313231Y-111440616D01*
X89315447Y-111516780D01*
X89315500Y-111520444D01*
X89315500Y-113505437D01*
X89295498Y-113573558D01*
X89278595Y-113594532D01*
X86098911Y-116774215D01*
X86036599Y-116808241D01*
X85965783Y-116803176D01*
X85908948Y-116760629D01*
X85887672Y-116716055D01*
X85871296Y-116651384D01*
X85780860Y-116445209D01*
X85689031Y-116304654D01*
X85657724Y-116256734D01*
X85657720Y-116256729D01*
X85541570Y-116130559D01*
X85505240Y-116091094D01*
X85505239Y-116091093D01*
X85505237Y-116091091D01*
X85371379Y-115986905D01*
X85327576Y-115952811D01*
X85294319Y-115934813D01*
X85243929Y-115884802D01*
X85228576Y-115815485D01*
X85253136Y-115748872D01*
X85294320Y-115713186D01*
X85327576Y-115695189D01*
X85505240Y-115556906D01*
X85657722Y-115391268D01*
X85780860Y-115202791D01*
X85871296Y-114996616D01*
X85926564Y-114778368D01*
X85945156Y-114554000D01*
X85926564Y-114329632D01*
X85904495Y-114242484D01*
X85871297Y-114111387D01*
X85871296Y-114111386D01*
X85871296Y-114111384D01*
X85780860Y-113905209D01*
X85741501Y-113844965D01*
X85657724Y-113716734D01*
X85657720Y-113716729D01*
X85511255Y-113557628D01*
X85505240Y-113551094D01*
X85505239Y-113551093D01*
X85505237Y-113551091D01*
X85406891Y-113474545D01*
X85327576Y-113412811D01*
X85294319Y-113394813D01*
X85243929Y-113344802D01*
X85228576Y-113275485D01*
X85253136Y-113208872D01*
X85294320Y-113173186D01*
X85294653Y-113173006D01*
X85327576Y-113155189D01*
X85505240Y-113016906D01*
X85657722Y-112851268D01*
X85780860Y-112662791D01*
X85871296Y-112456616D01*
X85926564Y-112238368D01*
X85945156Y-112014000D01*
X85926564Y-111789632D01*
X85924373Y-111780979D01*
X85871297Y-111571387D01*
X85871296Y-111571386D01*
X85871296Y-111571384D01*
X85780860Y-111365209D01*
X85754155Y-111324334D01*
X85657724Y-111176734D01*
X85657720Y-111176729D01*
X85520166Y-111027308D01*
X85505240Y-111011094D01*
X85505239Y-111011093D01*
X85505237Y-111011091D01*
X85423382Y-110947381D01*
X85327576Y-110872811D01*
X85294319Y-110854813D01*
X85243929Y-110804802D01*
X85228576Y-110735485D01*
X85253136Y-110668872D01*
X85294320Y-110633186D01*
X85327576Y-110615189D01*
X85505240Y-110476906D01*
X85657722Y-110311268D01*
X85678678Y-110279190D01*
X85732680Y-110233101D01*
X85746421Y-110228667D01*
X85746249Y-110228148D01*
X85751650Y-110226357D01*
X85757825Y-110224987D01*
X85758718Y-110224700D01*
X85760464Y-110224340D01*
X85760476Y-110224400D01*
X85767914Y-110222751D01*
X85767900Y-110222690D01*
X85775029Y-110220999D01*
X85775042Y-110220998D01*
X85846682Y-110194922D01*
X85850074Y-110193743D01*
X85922440Y-110169765D01*
X85922443Y-110169762D01*
X85929090Y-110166664D01*
X85929116Y-110166720D01*
X85936003Y-110163386D01*
X85935976Y-110163331D01*
X85942534Y-110160036D01*
X85942534Y-110160035D01*
X85942539Y-110160034D01*
X86006245Y-110118132D01*
X86009264Y-110116209D01*
X86074149Y-110076188D01*
X86074150Y-110076187D01*
X86079909Y-110071634D01*
X86079947Y-110071682D01*
X86085874Y-110066855D01*
X86085834Y-110066807D01*
X86091452Y-110062091D01*
X86091462Y-110062085D01*
X86143820Y-110006587D01*
X86146307Y-110004028D01*
X90956933Y-105193405D01*
X91019245Y-105159379D01*
X91046028Y-105156500D01*
X95046498Y-105156500D01*
X95114619Y-105176502D01*
G37*
%TD.AperFunction*%
%TA.AperFunction,Conductor*%
G36*
X93673398Y-109094629D02*
G01*
X93726765Y-109132752D01*
X93765744Y-109180248D01*
X93765746Y-109180249D01*
X93765748Y-109180252D01*
X93806433Y-109213640D01*
X93846402Y-109272316D01*
X93852500Y-109311040D01*
X93852500Y-114112500D01*
X93832498Y-114180621D01*
X93778842Y-114227114D01*
X93726500Y-114238500D01*
X91469774Y-114238500D01*
X91403628Y-114219741D01*
X91348739Y-114185885D01*
X91180427Y-114130113D01*
X91180420Y-114130112D01*
X91076553Y-114119500D01*
X91076545Y-114119500D01*
X90962664Y-114119500D01*
X90894543Y-114099498D01*
X90848050Y-114045842D01*
X90837946Y-113975568D01*
X90840059Y-113964449D01*
X90840500Y-113962589D01*
X90840500Y-113962582D01*
X90841352Y-113955301D01*
X90841411Y-113955308D01*
X90842190Y-113947691D01*
X90842129Y-113947686D01*
X90842767Y-113940383D01*
X90842769Y-113940374D01*
X90840553Y-113864195D01*
X90840500Y-113860532D01*
X90840500Y-111875552D01*
X90860502Y-111807431D01*
X90877400Y-111786462D01*
X93540273Y-109123588D01*
X93602583Y-109089564D01*
X93673398Y-109094629D01*
G37*
%TD.AperFunction*%
%TA.AperFunction,Conductor*%
G36*
X113473458Y-105118353D02*
G01*
X113522938Y-105169266D01*
X113537500Y-105228067D01*
X113537500Y-106249766D01*
X113517498Y-106317887D01*
X113500595Y-106338861D01*
X111545861Y-108293595D01*
X111483549Y-108327621D01*
X111456766Y-108330500D01*
X107400753Y-108330500D01*
X107332632Y-108310498D01*
X107293512Y-108270647D01*
X107282000Y-108251983D01*
X107231030Y-108169348D01*
X107231029Y-108169347D01*
X107231024Y-108169341D01*
X107105658Y-108043975D01*
X107105652Y-108043970D01*
X106954738Y-107950885D01*
X106870582Y-107922999D01*
X106786427Y-107895113D01*
X106786420Y-107895112D01*
X106682553Y-107884500D01*
X106056455Y-107884500D01*
X105952574Y-107895112D01*
X105784261Y-107950885D01*
X105633347Y-108043970D01*
X105633341Y-108043975D01*
X105546095Y-108131222D01*
X105483783Y-108165248D01*
X105412968Y-108160183D01*
X105367905Y-108131222D01*
X105280658Y-108043975D01*
X105280652Y-108043970D01*
X105129738Y-107950885D01*
X105045582Y-107922999D01*
X104961427Y-107895113D01*
X104961420Y-107895112D01*
X104857553Y-107884500D01*
X104231455Y-107884500D01*
X104127574Y-107895112D01*
X103959261Y-107950885D01*
X103808347Y-108043970D01*
X103808341Y-108043975D01*
X103682975Y-108169341D01*
X103682970Y-108169347D01*
X103589885Y-108320262D01*
X103534113Y-108488572D01*
X103534112Y-108488579D01*
X103523500Y-108592446D01*
X103523500Y-109593544D01*
X103534112Y-109697425D01*
X103589885Y-109865738D01*
X103682970Y-110016652D01*
X103745096Y-110078778D01*
X103779120Y-110141088D01*
X103782000Y-110167872D01*
X103782000Y-111171470D01*
X103761998Y-111239591D01*
X103745095Y-111260565D01*
X103198575Y-111807085D01*
X103136263Y-111841111D01*
X103065448Y-111836046D01*
X103008612Y-111793499D01*
X102998358Y-111777386D01*
X102957279Y-111700533D01*
X102957278Y-111700531D01*
X102830252Y-111545748D01*
X102675469Y-111418722D01*
X102675467Y-111418721D01*
X102675466Y-111418720D01*
X102498883Y-111324334D01*
X102498877Y-111324332D01*
X102307262Y-111266206D01*
X102108003Y-111246582D01*
X102107997Y-111246582D01*
X101908738Y-111266206D01*
X101908736Y-111266206D01*
X101717122Y-111324332D01*
X101717116Y-111324334D01*
X101540533Y-111418720D01*
X101385748Y-111545748D01*
X101258720Y-111700533D01*
X101164334Y-111877117D01*
X101140137Y-111956880D01*
X101108658Y-112009397D01*
X100160689Y-112957367D01*
X100098379Y-112991391D01*
X100071596Y-112994271D01*
X99326000Y-112994271D01*
X99300173Y-112996118D01*
X99252892Y-112999499D01*
X99252884Y-112999501D01*
X99112589Y-113040696D01*
X99112587Y-113040697D01*
X99022648Y-113098498D01*
X98954527Y-113118500D01*
X96195925Y-113118500D01*
X96176215Y-113116949D01*
X96162806Y-113114825D01*
X96098822Y-113118179D01*
X96096006Y-113118327D01*
X96089414Y-113118500D01*
X96069380Y-113118500D01*
X96069376Y-113118500D01*
X96069362Y-113118501D01*
X96049451Y-113120593D01*
X96042882Y-113121110D01*
X95976086Y-113124611D01*
X95962975Y-113128124D01*
X95943545Y-113131725D01*
X95930047Y-113133144D01*
X95866417Y-113153818D01*
X95860096Y-113155690D01*
X95817423Y-113167125D01*
X95795475Y-113173006D01*
X95795474Y-113173006D01*
X95790113Y-113174443D01*
X95719136Y-113172755D01*
X95660340Y-113132961D01*
X95632391Y-113067697D01*
X95631500Y-113052737D01*
X95631500Y-108791924D01*
X95633051Y-108772212D01*
X95635174Y-108758807D01*
X95631673Y-108692008D01*
X95631500Y-108685413D01*
X95631500Y-108665388D01*
X95631500Y-108665380D01*
X95629404Y-108645451D01*
X95628888Y-108638882D01*
X95625388Y-108572091D01*
X95625388Y-108572085D01*
X95621875Y-108558974D01*
X95618274Y-108539541D01*
X95617695Y-108534040D01*
X95616855Y-108526044D01*
X95596181Y-108462417D01*
X95594307Y-108456090D01*
X95576994Y-108391475D01*
X95570832Y-108379382D01*
X95563268Y-108361121D01*
X95559075Y-108348215D01*
X95525606Y-108290245D01*
X95522476Y-108284479D01*
X95492109Y-108224879D01*
X95492102Y-108224869D01*
X95487484Y-108219166D01*
X95464833Y-108176453D01*
X95431667Y-108067120D01*
X95337278Y-107890531D01*
X95210252Y-107735748D01*
X95162752Y-107696766D01*
X95122784Y-107638090D01*
X95120883Y-107567119D01*
X95153591Y-107510271D01*
X95457514Y-107206349D01*
X96229863Y-106434000D01*
X96616460Y-106047404D01*
X96678772Y-106013379D01*
X96705555Y-106010500D01*
X111095272Y-106010500D01*
X111113532Y-106011830D01*
X111115741Y-106012153D01*
X111137672Y-106015366D01*
X111183976Y-106011314D01*
X111187817Y-106010979D01*
X111198797Y-106010500D01*
X111204413Y-106010500D01*
X111218331Y-106008872D01*
X111235688Y-106006843D01*
X111239328Y-106006472D01*
X111315240Y-105999831D01*
X111315246Y-105999828D01*
X111322425Y-105998347D01*
X111322437Y-105998407D01*
X111329914Y-105996749D01*
X111329900Y-105996690D01*
X111337029Y-105994999D01*
X111337042Y-105994998D01*
X111408682Y-105968922D01*
X111412074Y-105967743D01*
X111484440Y-105943765D01*
X111484443Y-105943762D01*
X111491090Y-105940664D01*
X111491116Y-105940720D01*
X111498003Y-105937386D01*
X111497976Y-105937331D01*
X111504534Y-105934036D01*
X111504534Y-105934035D01*
X111504539Y-105934034D01*
X111568245Y-105892132D01*
X111571264Y-105890209D01*
X111636149Y-105850188D01*
X111636150Y-105850187D01*
X111641909Y-105845634D01*
X111641947Y-105845682D01*
X111647879Y-105840851D01*
X111647839Y-105840803D01*
X111653457Y-105836088D01*
X111653462Y-105836085D01*
X111705819Y-105780589D01*
X111708305Y-105778031D01*
X112252780Y-105233556D01*
X112315090Y-105199532D01*
X112385905Y-105204597D01*
X112393121Y-105207546D01*
X112517209Y-105262793D01*
X112517210Y-105262793D01*
X112517212Y-105262794D01*
X112704013Y-105302500D01*
X112894987Y-105302500D01*
X113081788Y-105262794D01*
X113256252Y-105185118D01*
X113337442Y-105126129D01*
X113404306Y-105102273D01*
X113473458Y-105118353D01*
G37*
%TD.AperFunction*%
%TA.AperFunction,Conductor*%
G36*
X89856532Y-90848816D02*
G01*
X89901595Y-90877777D01*
X89943095Y-90919277D01*
X89977121Y-90981589D01*
X89980000Y-91008372D01*
X89980000Y-92524127D01*
X89959998Y-92592248D01*
X89943095Y-92613222D01*
X89918741Y-92637576D01*
X89856429Y-92671602D01*
X89785614Y-92666537D01*
X89740551Y-92637576D01*
X89653345Y-92550370D01*
X89653339Y-92550365D01*
X89502525Y-92457342D01*
X89334321Y-92401606D01*
X89334318Y-92401605D01*
X89230516Y-92391000D01*
X89171500Y-92391000D01*
X89171500Y-94807000D01*
X89230517Y-94807000D01*
X89230516Y-94806999D01*
X89334318Y-94796394D01*
X89334321Y-94796393D01*
X89502525Y-94740657D01*
X89653339Y-94647634D01*
X89653345Y-94647629D01*
X89740551Y-94560424D01*
X89802863Y-94526398D01*
X89873678Y-94531463D01*
X89918741Y-94560424D01*
X90006341Y-94648024D01*
X90006347Y-94648029D01*
X90006348Y-94648030D01*
X90157262Y-94741115D01*
X90325574Y-94796887D01*
X90429455Y-94807500D01*
X90882971Y-94807499D01*
X90951092Y-94827501D01*
X90972066Y-94844404D01*
X92540067Y-96412405D01*
X92574093Y-96474717D01*
X92569028Y-96545532D01*
X92526481Y-96602368D01*
X92459961Y-96627179D01*
X92450972Y-96627500D01*
X92360513Y-96627500D01*
X92173711Y-96667206D01*
X91999248Y-96744882D01*
X91936917Y-96790168D01*
X91870049Y-96814026D01*
X91800898Y-96797945D01*
X91751418Y-96747030D01*
X91743252Y-96727864D01*
X91704615Y-96611262D01*
X91611530Y-96460348D01*
X91611527Y-96460345D01*
X91611524Y-96460341D01*
X91486158Y-96334975D01*
X91486152Y-96334970D01*
X91484651Y-96334044D01*
X91335238Y-96241885D01*
X91220252Y-96203783D01*
X91166927Y-96186113D01*
X91166920Y-96186112D01*
X91063053Y-96175500D01*
X90461955Y-96175500D01*
X90358074Y-96186112D01*
X90189761Y-96241885D01*
X90038847Y-96334970D01*
X90038841Y-96334975D01*
X89913471Y-96460345D01*
X89911011Y-96463457D01*
X89908781Y-96465035D01*
X89908280Y-96465537D01*
X89908194Y-96465451D01*
X89853068Y-96504483D01*
X89782143Y-96507671D01*
X89720754Y-96472008D01*
X89713337Y-96463446D01*
X89711132Y-96460657D01*
X89585845Y-96335370D01*
X89585839Y-96335365D01*
X89435025Y-96242342D01*
X89266821Y-96186606D01*
X89266818Y-96186605D01*
X89163016Y-96176000D01*
X89116500Y-96176000D01*
X89116500Y-98642000D01*
X89163017Y-98642000D01*
X89163016Y-98641999D01*
X89266818Y-98631394D01*
X89266821Y-98631393D01*
X89435025Y-98575657D01*
X89585839Y-98482634D01*
X89585845Y-98482629D01*
X89711124Y-98357350D01*
X89713332Y-98354558D01*
X89715337Y-98353137D01*
X89716325Y-98352150D01*
X89716493Y-98352318D01*
X89771268Y-98313522D01*
X89842193Y-98310323D01*
X89903588Y-98345976D01*
X89911015Y-98354547D01*
X89913469Y-98357651D01*
X89913470Y-98357652D01*
X89963096Y-98407278D01*
X89997120Y-98469588D01*
X90000000Y-98496372D01*
X90000000Y-99369470D01*
X89979998Y-99437591D01*
X89963095Y-99458566D01*
X89752481Y-99669179D01*
X89690169Y-99703204D01*
X89689585Y-99703329D01*
X89633713Y-99715205D01*
X89459249Y-99792881D01*
X89459248Y-99792882D01*
X89304744Y-99905135D01*
X89176965Y-100047048D01*
X89176958Y-100047058D01*
X89081476Y-100212438D01*
X89081473Y-100212444D01*
X89079304Y-100219120D01*
X89022457Y-100394072D01*
X89002496Y-100584000D01*
X89022457Y-100773927D01*
X89052526Y-100866470D01*
X89081473Y-100955556D01*
X89081476Y-100955561D01*
X89176958Y-101120941D01*
X89176965Y-101120951D01*
X89304744Y-101262864D01*
X89334058Y-101284162D01*
X89459248Y-101375118D01*
X89633712Y-101452794D01*
X89820513Y-101492500D01*
X90011487Y-101492500D01*
X90198288Y-101452794D01*
X90372752Y-101375118D01*
X90527253Y-101262866D01*
X90555070Y-101231972D01*
X90655034Y-101120951D01*
X90655035Y-101120949D01*
X90655040Y-101120944D01*
X90750527Y-100955556D01*
X90802665Y-100795090D01*
X90833401Y-100744934D01*
X91255905Y-100322431D01*
X91269743Y-100310472D01*
X91289322Y-100295898D01*
X91321677Y-100257336D01*
X91329096Y-100249240D01*
X91333073Y-100245265D01*
X91352649Y-100220504D01*
X91354895Y-100217749D01*
X91403896Y-100159353D01*
X91403896Y-100159351D01*
X91403899Y-100159349D01*
X91407930Y-100153220D01*
X91407983Y-100153255D01*
X91412095Y-100146800D01*
X91412041Y-100146767D01*
X91415889Y-100140527D01*
X91415895Y-100140520D01*
X91448120Y-100071409D01*
X91449672Y-100068204D01*
X91483894Y-100000066D01*
X91483895Y-100000063D01*
X91486407Y-99993163D01*
X91486465Y-99993184D01*
X91488977Y-99985955D01*
X91488917Y-99985935D01*
X91491221Y-99978980D01*
X91491225Y-99978973D01*
X91506643Y-99904293D01*
X91507409Y-99900838D01*
X91525000Y-99826623D01*
X91525000Y-99826622D01*
X91525852Y-99819335D01*
X91525911Y-99819342D01*
X91526690Y-99811725D01*
X91526629Y-99811720D01*
X91527267Y-99804417D01*
X91527269Y-99804408D01*
X91525053Y-99728229D01*
X91525000Y-99724566D01*
X91525000Y-99554027D01*
X91545002Y-99485906D01*
X91598658Y-99439413D01*
X91668932Y-99429309D01*
X91733512Y-99458803D01*
X91740095Y-99464932D01*
X91910595Y-99635432D01*
X91944621Y-99697744D01*
X91947500Y-99724527D01*
X91947500Y-101535271D01*
X91946170Y-101553530D01*
X91942634Y-101577668D01*
X91942634Y-101577673D01*
X91947021Y-101627817D01*
X91947500Y-101638797D01*
X91947500Y-101644420D01*
X91951155Y-101675696D01*
X91951527Y-101679337D01*
X91958168Y-101755236D01*
X91959652Y-101762423D01*
X91959593Y-101762435D01*
X91961251Y-101769916D01*
X91961310Y-101769903D01*
X91963002Y-101777043D01*
X91989070Y-101848666D01*
X91990272Y-101852126D01*
X92014234Y-101924438D01*
X92017335Y-101931088D01*
X92017280Y-101931113D01*
X92020619Y-101938010D01*
X92020673Y-101937983D01*
X92023964Y-101944537D01*
X92065850Y-102008222D01*
X92067807Y-102011292D01*
X92107812Y-102076149D01*
X92107813Y-102076150D01*
X92107815Y-102076153D01*
X92112362Y-102081903D01*
X92112314Y-102081940D01*
X92117154Y-102087881D01*
X92117200Y-102087843D01*
X92121911Y-102093458D01*
X92177375Y-102145787D01*
X92180002Y-102148340D01*
X93448067Y-103416405D01*
X93482093Y-103478717D01*
X93477028Y-103549532D01*
X93434481Y-103606368D01*
X93367961Y-103631179D01*
X93358972Y-103631500D01*
X90742728Y-103631500D01*
X90724468Y-103630170D01*
X90700328Y-103626634D01*
X90650183Y-103631021D01*
X90639203Y-103631500D01*
X90633588Y-103631500D01*
X90613833Y-103633808D01*
X90602301Y-103635156D01*
X90598661Y-103635527D01*
X90522767Y-103642167D01*
X90515573Y-103643653D01*
X90515560Y-103643594D01*
X90508083Y-103645252D01*
X90508097Y-103645310D01*
X90500950Y-103647004D01*
X90429340Y-103673066D01*
X90425884Y-103674268D01*
X90353563Y-103698233D01*
X90346915Y-103701334D01*
X90346890Y-103701280D01*
X90339988Y-103704622D01*
X90340015Y-103704674D01*
X90333464Y-103707963D01*
X90269782Y-103749847D01*
X90266696Y-103751813D01*
X90201851Y-103791811D01*
X90196098Y-103796361D01*
X90196060Y-103796314D01*
X90190123Y-103801150D01*
X90190161Y-103801196D01*
X90184540Y-103805913D01*
X90132211Y-103861376D01*
X90129659Y-103864002D01*
X86155095Y-107838566D01*
X86092783Y-107872592D01*
X86021968Y-107867527D01*
X85965132Y-107824980D01*
X85940321Y-107758460D01*
X85940000Y-107749471D01*
X85940000Y-107188000D01*
X85013116Y-107188000D01*
X85041493Y-107143844D01*
X85082000Y-107005889D01*
X85082000Y-106862111D01*
X85041493Y-106724156D01*
X85013116Y-106680000D01*
X85940000Y-106680000D01*
X85940000Y-106035414D01*
X85939999Y-106035402D01*
X85933494Y-105974906D01*
X85882444Y-105838035D01*
X85882444Y-105838034D01*
X85794904Y-105721095D01*
X85677965Y-105633555D01*
X85541093Y-105582505D01*
X85480597Y-105576000D01*
X84836000Y-105576000D01*
X84836000Y-106500325D01*
X84724315Y-106449320D01*
X84617763Y-106434000D01*
X84546237Y-106434000D01*
X84439685Y-106449320D01*
X84328000Y-106500325D01*
X84328000Y-105524527D01*
X84348002Y-105456406D01*
X84364905Y-105435432D01*
X86102104Y-103698233D01*
X87869401Y-101930935D01*
X87883240Y-101918975D01*
X87902822Y-101904398D01*
X87935177Y-101865836D01*
X87942596Y-101857740D01*
X87946573Y-101853765D01*
X87966149Y-101829004D01*
X87968395Y-101826249D01*
X88017396Y-101767853D01*
X88017396Y-101767851D01*
X88017399Y-101767849D01*
X88021430Y-101761720D01*
X88021483Y-101761755D01*
X88025595Y-101755300D01*
X88025541Y-101755267D01*
X88029387Y-101749029D01*
X88029395Y-101749020D01*
X88061630Y-101679889D01*
X88063166Y-101676715D01*
X88097394Y-101608566D01*
X88097395Y-101608560D01*
X88097397Y-101608557D01*
X88099908Y-101601661D01*
X88099966Y-101601682D01*
X88102475Y-101594462D01*
X88102416Y-101594443D01*
X88104723Y-101587479D01*
X88104723Y-101587477D01*
X88104725Y-101587474D01*
X88120148Y-101512772D01*
X88120920Y-101509296D01*
X88125580Y-101489635D01*
X88138500Y-101435123D01*
X88138500Y-101435115D01*
X88139352Y-101427834D01*
X88139412Y-101427841D01*
X88140190Y-101420226D01*
X88140129Y-101420221D01*
X88140767Y-101412917D01*
X88140769Y-101412909D01*
X88138553Y-101336745D01*
X88138500Y-101333081D01*
X88138500Y-98699953D01*
X88158502Y-98631832D01*
X88212158Y-98585339D01*
X88282432Y-98575235D01*
X88304133Y-98580349D01*
X88458169Y-98631392D01*
X88458181Y-98631394D01*
X88561983Y-98641999D01*
X88561983Y-98642000D01*
X88608500Y-98642000D01*
X88608500Y-96176000D01*
X88561983Y-96176000D01*
X88458181Y-96186605D01*
X88458177Y-96186606D01*
X88304133Y-96237651D01*
X88233178Y-96240091D01*
X88172168Y-96203783D01*
X88140473Y-96140254D01*
X88138500Y-96118046D01*
X88138500Y-94846770D01*
X88158502Y-94778649D01*
X88212158Y-94732156D01*
X88282432Y-94722052D01*
X88325734Y-94737750D01*
X88325825Y-94737557D01*
X88328008Y-94738575D01*
X88330656Y-94739535D01*
X88332475Y-94740657D01*
X88500678Y-94796393D01*
X88500681Y-94796394D01*
X88604483Y-94806999D01*
X88604483Y-94807000D01*
X88663500Y-94807000D01*
X88663500Y-92391000D01*
X88604483Y-92391000D01*
X88500681Y-92401605D01*
X88500678Y-92401606D01*
X88332472Y-92457343D01*
X88330646Y-92458470D01*
X88329218Y-92458860D01*
X88325825Y-92460443D01*
X88325554Y-92459863D01*
X88262166Y-92477207D01*
X88194428Y-92455947D01*
X88148937Y-92401440D01*
X88138500Y-92351229D01*
X88138500Y-91173702D01*
X88158502Y-91105581D01*
X88212158Y-91059088D01*
X88282432Y-91048984D01*
X88307572Y-91056477D01*
X88307795Y-91055806D01*
X88314760Y-91058114D01*
X88314762Y-91058115D01*
X88483074Y-91113887D01*
X88586955Y-91124500D01*
X89213044Y-91124499D01*
X89316926Y-91113887D01*
X89485238Y-91058115D01*
X89636152Y-90965030D01*
X89723406Y-90877775D01*
X89785716Y-90843752D01*
X89856532Y-90848816D01*
G37*
%TD.AperFunction*%
%TA.AperFunction,Conductor*%
G36*
X116432061Y-71514200D02*
G01*
X116490606Y-71554362D01*
X116511000Y-71589941D01*
X116555111Y-71708204D01*
X116555112Y-71708207D01*
X116642738Y-71825261D01*
X116759792Y-71912887D01*
X116759794Y-71912888D01*
X116759796Y-71912889D01*
X116814900Y-71933442D01*
X116896795Y-71963988D01*
X116896803Y-71963990D01*
X116957350Y-71970499D01*
X116957355Y-71970499D01*
X116957362Y-71970500D01*
X117904367Y-71970500D01*
X117972488Y-71990502D01*
X117993462Y-72007405D01*
X120196595Y-74210538D01*
X120230621Y-74272850D01*
X120233500Y-74299633D01*
X120233500Y-100555029D01*
X120213498Y-100623150D01*
X120196595Y-100644124D01*
X115277595Y-105563124D01*
X115215283Y-105597150D01*
X115144468Y-105592085D01*
X115087632Y-105549538D01*
X115062821Y-105483018D01*
X115062500Y-105474029D01*
X115062500Y-104751489D01*
X115063830Y-104733229D01*
X115066625Y-104714147D01*
X115067366Y-104709089D01*
X115062979Y-104658943D01*
X115062500Y-104647963D01*
X115062500Y-104642349D01*
X115060850Y-104628234D01*
X115058840Y-104611043D01*
X115058472Y-104607435D01*
X115053540Y-104551058D01*
X115051831Y-104531521D01*
X115051830Y-104531517D01*
X115050347Y-104524334D01*
X115050406Y-104524321D01*
X115048750Y-104516846D01*
X115048691Y-104516861D01*
X115046998Y-104509720D01*
X115020943Y-104438133D01*
X115019740Y-104434672D01*
X114995765Y-104362322D01*
X114992664Y-104355671D01*
X114992718Y-104355645D01*
X114989380Y-104348749D01*
X114989325Y-104348777D01*
X114986036Y-104342229D01*
X114986034Y-104342222D01*
X114944138Y-104278523D01*
X114942222Y-104275517D01*
X114902188Y-104210612D01*
X114902185Y-104210607D01*
X114897639Y-104204858D01*
X114897686Y-104204820D01*
X114892845Y-104198877D01*
X114892799Y-104198917D01*
X114888086Y-104193299D01*
X114832623Y-104140973D01*
X114829995Y-104138419D01*
X113738181Y-103046604D01*
X113726209Y-103032752D01*
X113711637Y-103013178D01*
X113711635Y-103013176D01*
X113673074Y-102980819D01*
X113664972Y-102973394D01*
X113661010Y-102969432D01*
X113661006Y-102969429D01*
X113661004Y-102969427D01*
X113636301Y-102949894D01*
X113633461Y-102947581D01*
X113575094Y-102898605D01*
X113568967Y-102894576D01*
X113569000Y-102894524D01*
X113562542Y-102890410D01*
X113562511Y-102890461D01*
X113556258Y-102886604D01*
X113487197Y-102854400D01*
X113483900Y-102852804D01*
X113415808Y-102818607D01*
X113408910Y-102816097D01*
X113408930Y-102816039D01*
X113401698Y-102813525D01*
X113401679Y-102813583D01*
X113394716Y-102811275D01*
X113320104Y-102795869D01*
X113316529Y-102795076D01*
X113242364Y-102777500D01*
X113235072Y-102776648D01*
X113235079Y-102776587D01*
X113227465Y-102775809D01*
X113227460Y-102775871D01*
X113220148Y-102775231D01*
X113143985Y-102777447D01*
X113140321Y-102777500D01*
X112798028Y-102777500D01*
X112729907Y-102757498D01*
X112708933Y-102740595D01*
X108241405Y-98273067D01*
X108207379Y-98210755D01*
X108204500Y-98183972D01*
X108204500Y-97812071D01*
X108221381Y-97749071D01*
X108276527Y-97653556D01*
X108335542Y-97471928D01*
X108355504Y-97282000D01*
X108335542Y-97092072D01*
X108276527Y-96910444D01*
X108181040Y-96745056D01*
X108181038Y-96745054D01*
X108181034Y-96745048D01*
X108053255Y-96603135D01*
X107898752Y-96490882D01*
X107724288Y-96413206D01*
X107537487Y-96373500D01*
X107476500Y-96373500D01*
X107408379Y-96353498D01*
X107361886Y-96299842D01*
X107350500Y-96247500D01*
X107350500Y-82502027D01*
X107370502Y-82433906D01*
X107387405Y-82412932D01*
X110234265Y-79566072D01*
X113193516Y-76606820D01*
X113255826Y-76572796D01*
X113256181Y-76572719D01*
X113312288Y-76560794D01*
X113486752Y-76483118D01*
X113641253Y-76370866D01*
X113736821Y-76264727D01*
X113769034Y-76228951D01*
X113769035Y-76228949D01*
X113769040Y-76228944D01*
X113864527Y-76063556D01*
X113923542Y-75881928D01*
X113923541Y-75881928D01*
X113925583Y-75875647D01*
X113927765Y-75876356D01*
X113956478Y-75823169D01*
X114018627Y-75788845D01*
X114089466Y-75793570D01*
X114146505Y-75835844D01*
X114164906Y-75876137D01*
X114166417Y-75875647D01*
X114168458Y-75881928D01*
X114227473Y-76063556D01*
X114227476Y-76063561D01*
X114322958Y-76228941D01*
X114322965Y-76228951D01*
X114450744Y-76370864D01*
X114450747Y-76370866D01*
X114605248Y-76483118D01*
X114732748Y-76539884D01*
X114786844Y-76585864D01*
X114807494Y-76653791D01*
X114807500Y-76654991D01*
X114807500Y-79225927D01*
X114790619Y-79288926D01*
X114735475Y-79384437D01*
X114676457Y-79566072D01*
X114656496Y-79756000D01*
X114676457Y-79945927D01*
X114706526Y-80038470D01*
X114735473Y-80127556D01*
X114735476Y-80127561D01*
X114830958Y-80292941D01*
X114830965Y-80292951D01*
X114958744Y-80434864D01*
X114973151Y-80445331D01*
X115113248Y-80547118D01*
X115287712Y-80624794D01*
X115474513Y-80664500D01*
X115665487Y-80664500D01*
X115852288Y-80624794D01*
X116026752Y-80547118D01*
X116181253Y-80434866D01*
X116181255Y-80434864D01*
X116309034Y-80292951D01*
X116309035Y-80292949D01*
X116309040Y-80292944D01*
X116404527Y-80127556D01*
X116463542Y-79945928D01*
X116483504Y-79756000D01*
X116463542Y-79566072D01*
X116404527Y-79384444D01*
X116404525Y-79384441D01*
X116404524Y-79384437D01*
X116349381Y-79288926D01*
X116332500Y-79225927D01*
X116332500Y-76264727D01*
X116333830Y-76246467D01*
X116334153Y-76244257D01*
X116337366Y-76222327D01*
X116332980Y-76172197D01*
X116332500Y-76161214D01*
X116332500Y-76155588D01*
X116328843Y-76124307D01*
X116328470Y-76120658D01*
X116321830Y-76044759D01*
X116321828Y-76044755D01*
X116320346Y-76037574D01*
X116320407Y-76037561D01*
X116318749Y-76030083D01*
X116318690Y-76030098D01*
X116316998Y-76022962D01*
X116316998Y-76022958D01*
X116290925Y-75951324D01*
X116289723Y-75947867D01*
X116265764Y-75875559D01*
X116265761Y-75875555D01*
X116262660Y-75868902D01*
X116262715Y-75868876D01*
X116259382Y-75861991D01*
X116259327Y-75862019D01*
X116256032Y-75855458D01*
X116234795Y-75823169D01*
X116214139Y-75791763D01*
X116212198Y-75788715D01*
X116194063Y-75759315D01*
X116172188Y-75723849D01*
X116167639Y-75718096D01*
X116167686Y-75718058D01*
X116162845Y-75712116D01*
X116162799Y-75712156D01*
X116158086Y-75706538D01*
X116102640Y-75654228D01*
X116100012Y-75651674D01*
X115979403Y-75531065D01*
X115948665Y-75480907D01*
X115948664Y-75480905D01*
X115896527Y-75320444D01*
X115801040Y-75155056D01*
X115801038Y-75155054D01*
X115801034Y-75155048D01*
X115673255Y-75013135D01*
X115518752Y-74900882D01*
X115344288Y-74823206D01*
X115157487Y-74783500D01*
X114966513Y-74783500D01*
X114779711Y-74823206D01*
X114605247Y-74900882D01*
X114450744Y-75013135D01*
X114322965Y-75155048D01*
X114322958Y-75155058D01*
X114227476Y-75320438D01*
X114227473Y-75320445D01*
X114166417Y-75508353D01*
X114164235Y-75507644D01*
X114135515Y-75560837D01*
X114073364Y-75595156D01*
X114002526Y-75590425D01*
X113945490Y-75548148D01*
X113927091Y-75507862D01*
X113925583Y-75508353D01*
X113916664Y-75480905D01*
X113864527Y-75320444D01*
X113769040Y-75155056D01*
X113769038Y-75155054D01*
X113769034Y-75155048D01*
X113641255Y-75013135D01*
X113486752Y-74900882D01*
X113312288Y-74823206D01*
X113125487Y-74783500D01*
X112934513Y-74783500D01*
X112747711Y-74823206D01*
X112573247Y-74900882D01*
X112418744Y-75013135D01*
X112290965Y-75155048D01*
X112290958Y-75155058D01*
X112195476Y-75320438D01*
X112195473Y-75320445D01*
X112143335Y-75480905D01*
X112112597Y-75531063D01*
X106094602Y-81549058D01*
X106080753Y-81561028D01*
X106061179Y-81575601D01*
X106061176Y-81575603D01*
X106028820Y-81614163D01*
X106021409Y-81622252D01*
X106017427Y-81626234D01*
X106017421Y-81626241D01*
X105997884Y-81650948D01*
X105995576Y-81653782D01*
X105946604Y-81712147D01*
X105942574Y-81718275D01*
X105942523Y-81718242D01*
X105938405Y-81724706D01*
X105938455Y-81724737D01*
X105934605Y-81730978D01*
X105902394Y-81800054D01*
X105900798Y-81803351D01*
X105866605Y-81871434D01*
X105864095Y-81878332D01*
X105864039Y-81878311D01*
X105861525Y-81885545D01*
X105861582Y-81885564D01*
X105859273Y-81892529D01*
X105843865Y-81967148D01*
X105843073Y-81970722D01*
X105825500Y-82044874D01*
X105824648Y-82052167D01*
X105824587Y-82052159D01*
X105823809Y-82059773D01*
X105823871Y-82059779D01*
X105823231Y-82067090D01*
X105825447Y-82143254D01*
X105825500Y-82146918D01*
X105825500Y-98903271D01*
X105824170Y-98921530D01*
X105820634Y-98945668D01*
X105820634Y-98945673D01*
X105825021Y-98995817D01*
X105825500Y-99006797D01*
X105825500Y-99012420D01*
X105829155Y-99043696D01*
X105829527Y-99047337D01*
X105836168Y-99123236D01*
X105837652Y-99130423D01*
X105837593Y-99130435D01*
X105839251Y-99137916D01*
X105839310Y-99137903D01*
X105841002Y-99145043D01*
X105867070Y-99216666D01*
X105868272Y-99220126D01*
X105892234Y-99292438D01*
X105895335Y-99299088D01*
X105895280Y-99299113D01*
X105898619Y-99306010D01*
X105898673Y-99305983D01*
X105901964Y-99312537D01*
X105943850Y-99376222D01*
X105945807Y-99379292D01*
X105985812Y-99444149D01*
X105985813Y-99444150D01*
X105985815Y-99444153D01*
X105990362Y-99449903D01*
X105990314Y-99449940D01*
X105995154Y-99455881D01*
X105995200Y-99455843D01*
X105999915Y-99461462D01*
X106055375Y-99513787D01*
X106058003Y-99516340D01*
X110812068Y-104270405D01*
X110846094Y-104332717D01*
X110841029Y-104403532D01*
X110798482Y-104460368D01*
X110731962Y-104485179D01*
X110722973Y-104485500D01*
X105268572Y-104485500D01*
X105200451Y-104465498D01*
X105153958Y-104411842D01*
X105143262Y-104372670D01*
X105142174Y-104362322D01*
X105125542Y-104204072D01*
X105066527Y-104022444D01*
X104971040Y-103857056D01*
X104971038Y-103857054D01*
X104971034Y-103857048D01*
X104843255Y-103715135D01*
X104688752Y-103602882D01*
X104514288Y-103525206D01*
X104327487Y-103485500D01*
X104136513Y-103485500D01*
X103949711Y-103525206D01*
X103775248Y-103602882D01*
X103768979Y-103607437D01*
X103702111Y-103631295D01*
X103694919Y-103631500D01*
X102621858Y-103631500D01*
X102553737Y-103611498D01*
X102507244Y-103557842D01*
X102496548Y-103492330D01*
X102500097Y-103458554D01*
X102513504Y-103331000D01*
X102493542Y-103141072D01*
X102434527Y-102959444D01*
X102339040Y-102794056D01*
X102339038Y-102794054D01*
X102339034Y-102794048D01*
X102211255Y-102652135D01*
X102056752Y-102539882D01*
X101882288Y-102462206D01*
X101695487Y-102422500D01*
X101504513Y-102422500D01*
X101317711Y-102462206D01*
X101143247Y-102539882D01*
X101072290Y-102591436D01*
X101005422Y-102615295D01*
X100998229Y-102615500D01*
X99692788Y-102615500D01*
X99624667Y-102595498D01*
X99578174Y-102541842D01*
X99567395Y-102477149D01*
X99573418Y-102416001D01*
X99573418Y-102415996D01*
X99553793Y-102216738D01*
X99553791Y-102216727D01*
X99495669Y-102025124D01*
X99495665Y-102025115D01*
X99456378Y-101951613D01*
X99441500Y-101892218D01*
X99441500Y-100496631D01*
X99461502Y-100428510D01*
X99478400Y-100407540D01*
X100648452Y-99237488D01*
X100663486Y-99224649D01*
X100674466Y-99216672D01*
X100674466Y-99216671D01*
X100674470Y-99216669D01*
X100719250Y-99166933D01*
X100723772Y-99162168D01*
X100737936Y-99148006D01*
X100750552Y-99132425D01*
X100754789Y-99127465D01*
X100799585Y-99077715D01*
X100806372Y-99065957D01*
X100817568Y-99049667D01*
X100826106Y-99039125D01*
X100856486Y-98979498D01*
X100859621Y-98973728D01*
X100893073Y-98915788D01*
X100893075Y-98915785D01*
X100897267Y-98902879D01*
X100904838Y-98884606D01*
X100910992Y-98872529D01*
X100910992Y-98872528D01*
X100910994Y-98872525D01*
X100928319Y-98807864D01*
X100930176Y-98801598D01*
X100950855Y-98737956D01*
X100952272Y-98724468D01*
X100955875Y-98705023D01*
X100959388Y-98691916D01*
X100962888Y-98625111D01*
X100963406Y-98618534D01*
X100963515Y-98617499D01*
X100965500Y-98598620D01*
X100965500Y-98578587D01*
X100965673Y-98571992D01*
X100969174Y-98505191D01*
X100967051Y-98491786D01*
X100965500Y-98472076D01*
X100965500Y-96599924D01*
X100967051Y-96580212D01*
X100969174Y-96566807D01*
X100965673Y-96500000D01*
X100965500Y-96493406D01*
X100965500Y-96473387D01*
X100965500Y-96473380D01*
X100963406Y-96453471D01*
X100962889Y-96446890D01*
X100959390Y-96380094D01*
X100959389Y-96380091D01*
X100959389Y-96380085D01*
X100955874Y-96366969D01*
X100952272Y-96347529D01*
X100950855Y-96334046D01*
X100950855Y-96334044D01*
X100930173Y-96270394D01*
X100928309Y-96264098D01*
X100922357Y-96241885D01*
X100910994Y-96199476D01*
X100904830Y-96187379D01*
X100897270Y-96169126D01*
X100893075Y-96156215D01*
X100871038Y-96118046D01*
X100859619Y-96098267D01*
X100856471Y-96092469D01*
X100826108Y-96032877D01*
X100826105Y-96032872D01*
X100817570Y-96022333D01*
X100806368Y-96006034D01*
X100805107Y-96003851D01*
X100799585Y-95994285D01*
X100754806Y-95944552D01*
X100750543Y-95939561D01*
X100737935Y-95923992D01*
X100723762Y-95909819D01*
X100719237Y-95905050D01*
X100674472Y-95855333D01*
X100674471Y-95855332D01*
X100674470Y-95855331D01*
X100663483Y-95847348D01*
X100648452Y-95834509D01*
X99999488Y-95185545D01*
X99986646Y-95170509D01*
X99978669Y-95159530D01*
X99928938Y-95114751D01*
X99924154Y-95110210D01*
X99910013Y-95096069D01*
X99910007Y-95096064D01*
X99894449Y-95083465D01*
X99889434Y-95079182D01*
X99839715Y-95034415D01*
X99827961Y-95027629D01*
X99811667Y-95016430D01*
X99801123Y-95007891D01*
X99741520Y-94977523D01*
X99735739Y-94974385D01*
X99677785Y-94940925D01*
X99664872Y-94936729D01*
X99646613Y-94929165D01*
X99634524Y-94923006D01*
X99634521Y-94923005D01*
X99569906Y-94905691D01*
X99563582Y-94903818D01*
X99499957Y-94883144D01*
X99486463Y-94881726D01*
X99467033Y-94878125D01*
X99453919Y-94874611D01*
X99453908Y-94874610D01*
X99423779Y-94873031D01*
X99356799Y-94849491D01*
X99313178Y-94793476D01*
X99306766Y-94722769D01*
X99339599Y-94659821D01*
X99352231Y-94648362D01*
X99352642Y-94648035D01*
X99352652Y-94648030D01*
X99478030Y-94522652D01*
X99540512Y-94421352D01*
X99593298Y-94373875D01*
X99647753Y-94361500D01*
X100088973Y-94361500D01*
X100157094Y-94381502D01*
X100178067Y-94398404D01*
X101081661Y-95301999D01*
X101952597Y-96172935D01*
X101983334Y-96223092D01*
X102035473Y-96383556D01*
X102063841Y-96432691D01*
X102130958Y-96548941D01*
X102130965Y-96548951D01*
X102258744Y-96690864D01*
X102258747Y-96690866D01*
X102413248Y-96803118D01*
X102587712Y-96880794D01*
X102774513Y-96920500D01*
X102965487Y-96920500D01*
X103152288Y-96880794D01*
X103326752Y-96803118D01*
X103481253Y-96690866D01*
X103520816Y-96646927D01*
X103609034Y-96548951D01*
X103609035Y-96548949D01*
X103609040Y-96548944D01*
X103704527Y-96383556D01*
X103763542Y-96201928D01*
X103783504Y-96012000D01*
X103763542Y-95822072D01*
X103704527Y-95640444D01*
X103609040Y-95475056D01*
X103609038Y-95475054D01*
X103609034Y-95475048D01*
X103481255Y-95333135D01*
X103326752Y-95220882D01*
X103152288Y-95143206D01*
X103096411Y-95131328D01*
X103033938Y-95097599D01*
X103033515Y-95097177D01*
X101041942Y-93105604D01*
X101029970Y-93091752D01*
X101015398Y-93072178D01*
X101015396Y-93072176D01*
X100976835Y-93039819D01*
X100968733Y-93032394D01*
X100964771Y-93028432D01*
X100964767Y-93028429D01*
X100964765Y-93028427D01*
X100940062Y-93008894D01*
X100937222Y-93006581D01*
X100878855Y-92957605D01*
X100872728Y-92953576D01*
X100872761Y-92953524D01*
X100866303Y-92949410D01*
X100866272Y-92949461D01*
X100860019Y-92945604D01*
X100790958Y-92913400D01*
X100787661Y-92911804D01*
X100719569Y-92877607D01*
X100712671Y-92875097D01*
X100712691Y-92875039D01*
X100705459Y-92872525D01*
X100705440Y-92872583D01*
X100698477Y-92870275D01*
X100623865Y-92854869D01*
X100620290Y-92854076D01*
X100546125Y-92836500D01*
X100538833Y-92835648D01*
X100538840Y-92835587D01*
X100531226Y-92834809D01*
X100531221Y-92834871D01*
X100523909Y-92834231D01*
X100447746Y-92836447D01*
X100444082Y-92836500D01*
X99647753Y-92836500D01*
X99579632Y-92816498D01*
X99540512Y-92776647D01*
X99478029Y-92675347D01*
X99478024Y-92675341D01*
X99352658Y-92549975D01*
X99352652Y-92549970D01*
X99310754Y-92524127D01*
X99201738Y-92456885D01*
X99117582Y-92428999D01*
X99033427Y-92401113D01*
X99033420Y-92401112D01*
X98929553Y-92390500D01*
X98312498Y-92390500D01*
X98244377Y-92370498D01*
X98197884Y-92316842D01*
X98187780Y-92246568D01*
X98217274Y-92181988D01*
X98223379Y-92175430D01*
X99903952Y-90494856D01*
X99918986Y-90482017D01*
X99929966Y-90474040D01*
X99929966Y-90474039D01*
X99929970Y-90474037D01*
X99974750Y-90424301D01*
X99979272Y-90419536D01*
X99993436Y-90405374D01*
X100006052Y-90389793D01*
X100010289Y-90384832D01*
X100037521Y-90354588D01*
X100065011Y-90331659D01*
X100065213Y-90331533D01*
X100067652Y-90330030D01*
X100067658Y-90330024D01*
X100154905Y-90242778D01*
X100217217Y-90208752D01*
X100288032Y-90213817D01*
X100333095Y-90242778D01*
X100420341Y-90330024D01*
X100420347Y-90330029D01*
X100420348Y-90330030D01*
X100571262Y-90423115D01*
X100739574Y-90478887D01*
X100843455Y-90489500D01*
X101469544Y-90489499D01*
X101573426Y-90478887D01*
X101741738Y-90423115D01*
X101892652Y-90330030D01*
X102018030Y-90204652D01*
X102111115Y-90053738D01*
X102166887Y-89885426D01*
X102177500Y-89781545D01*
X102177499Y-89390525D01*
X102197501Y-89322406D01*
X102214399Y-89301436D01*
X103617401Y-87898435D01*
X103631240Y-87886475D01*
X103650822Y-87871898D01*
X103683177Y-87833336D01*
X103690596Y-87825240D01*
X103694573Y-87821265D01*
X103714149Y-87796504D01*
X103716395Y-87793749D01*
X103765396Y-87735353D01*
X103765396Y-87735351D01*
X103765399Y-87735349D01*
X103769430Y-87729220D01*
X103769483Y-87729255D01*
X103773595Y-87722800D01*
X103773541Y-87722767D01*
X103777387Y-87716529D01*
X103777395Y-87716520D01*
X103809630Y-87647389D01*
X103811166Y-87644215D01*
X103845394Y-87576066D01*
X103845395Y-87576060D01*
X103845397Y-87576057D01*
X103847908Y-87569161D01*
X103847966Y-87569182D01*
X103850475Y-87561962D01*
X103850416Y-87561943D01*
X103852723Y-87554979D01*
X103852723Y-87554977D01*
X103852725Y-87554974D01*
X103868148Y-87480272D01*
X103868920Y-87476796D01*
X103871367Y-87466472D01*
X103886500Y-87402623D01*
X103886500Y-87402615D01*
X103887352Y-87395334D01*
X103887412Y-87395341D01*
X103888190Y-87387726D01*
X103888129Y-87387721D01*
X103888767Y-87380417D01*
X103888769Y-87380409D01*
X103886553Y-87304245D01*
X103886500Y-87300581D01*
X103886500Y-84350071D01*
X103903381Y-84287071D01*
X103913954Y-84268758D01*
X103958527Y-84191556D01*
X104017542Y-84009928D01*
X104037504Y-83820000D01*
X104017542Y-83630072D01*
X103958527Y-83448444D01*
X103863040Y-83283056D01*
X103863038Y-83283054D01*
X103863034Y-83283048D01*
X103735255Y-83141135D01*
X103580752Y-83028882D01*
X103406288Y-82951206D01*
X103219487Y-82911500D01*
X103028513Y-82911500D01*
X102841711Y-82951206D01*
X102667247Y-83028882D01*
X102512744Y-83141135D01*
X102384965Y-83283048D01*
X102384958Y-83283058D01*
X102289476Y-83448438D01*
X102289473Y-83448444D01*
X102279058Y-83480498D01*
X102257911Y-83545579D01*
X102217836Y-83604184D01*
X102152439Y-83631820D01*
X102082482Y-83619712D01*
X102071939Y-83613886D01*
X101995738Y-83566885D01*
X101882442Y-83529343D01*
X101827427Y-83511113D01*
X101827420Y-83511112D01*
X101723553Y-83500500D01*
X101723545Y-83500500D01*
X101649028Y-83500500D01*
X101580907Y-83480498D01*
X101559933Y-83463595D01*
X101247403Y-83151065D01*
X101216665Y-83100907D01*
X101164527Y-82940444D01*
X101069040Y-82775056D01*
X101069038Y-82775054D01*
X101069034Y-82775048D01*
X100941255Y-82633135D01*
X100786752Y-82520882D01*
X100612288Y-82443206D01*
X100425487Y-82403500D01*
X100234513Y-82403500D01*
X100047711Y-82443206D01*
X99873247Y-82520882D01*
X99718744Y-82633135D01*
X99590965Y-82775048D01*
X99590958Y-82775058D01*
X99495476Y-82940438D01*
X99495473Y-82940445D01*
X99436457Y-83122072D01*
X99416496Y-83312001D01*
X99421680Y-83361332D01*
X99408907Y-83431170D01*
X99360404Y-83483016D01*
X99296375Y-83500500D01*
X99272456Y-83500500D01*
X99168573Y-83511113D01*
X99113557Y-83529343D01*
X99042602Y-83531783D01*
X98981592Y-83495474D01*
X98949897Y-83431945D01*
X98948615Y-83396572D01*
X98957504Y-83312000D01*
X98937542Y-83122072D01*
X98878527Y-82940444D01*
X98783040Y-82775056D01*
X98783038Y-82775054D01*
X98783034Y-82775048D01*
X98655255Y-82633135D01*
X98500752Y-82520882D01*
X98415470Y-82482912D01*
X98361375Y-82436933D01*
X98340726Y-82369006D01*
X98360078Y-82300698D01*
X98377620Y-82278715D01*
X100100934Y-80555404D01*
X100163246Y-80521379D01*
X100190029Y-80518500D01*
X102613533Y-80518500D01*
X102631793Y-80519830D01*
X102634002Y-80520153D01*
X102655933Y-80523366D01*
X102702237Y-80519314D01*
X102706078Y-80518979D01*
X102717058Y-80518500D01*
X102722674Y-80518500D01*
X102736592Y-80516872D01*
X102753949Y-80514843D01*
X102757589Y-80514472D01*
X102833501Y-80507831D01*
X102833507Y-80507828D01*
X102840686Y-80506347D01*
X102840698Y-80506407D01*
X102848175Y-80504749D01*
X102848161Y-80504690D01*
X102855290Y-80502999D01*
X102855303Y-80502998D01*
X102926943Y-80476922D01*
X102930335Y-80475743D01*
X103002701Y-80451765D01*
X103002704Y-80451762D01*
X103009351Y-80448664D01*
X103009377Y-80448720D01*
X103016264Y-80445386D01*
X103016237Y-80445331D01*
X103022795Y-80442036D01*
X103022795Y-80442035D01*
X103022800Y-80442034D01*
X103086506Y-80400132D01*
X103089525Y-80398209D01*
X103154410Y-80358188D01*
X103154411Y-80358187D01*
X103160170Y-80353634D01*
X103160208Y-80353682D01*
X103166135Y-80348855D01*
X103166095Y-80348807D01*
X103171713Y-80344091D01*
X103171723Y-80344085D01*
X103224064Y-80288605D01*
X103226550Y-80286046D01*
X104271931Y-79240668D01*
X104334243Y-79206643D01*
X104361026Y-79203764D01*
X105883272Y-79203764D01*
X105901532Y-79205094D01*
X105903741Y-79205417D01*
X105925672Y-79208630D01*
X105971976Y-79204578D01*
X105975817Y-79204243D01*
X105986797Y-79203764D01*
X105992413Y-79203764D01*
X106006331Y-79202136D01*
X106023688Y-79200107D01*
X106027328Y-79199736D01*
X106103240Y-79193095D01*
X106103246Y-79193092D01*
X106110425Y-79191611D01*
X106110437Y-79191671D01*
X106117914Y-79190013D01*
X106117900Y-79189954D01*
X106125029Y-79188263D01*
X106125042Y-79188262D01*
X106196682Y-79162186D01*
X106200074Y-79161007D01*
X106272440Y-79137029D01*
X106272443Y-79137026D01*
X106279090Y-79133928D01*
X106279116Y-79133984D01*
X106286003Y-79130650D01*
X106285976Y-79130595D01*
X106292534Y-79127300D01*
X106292534Y-79127299D01*
X106292539Y-79127298D01*
X106356245Y-79085396D01*
X106359264Y-79083473D01*
X106424149Y-79043452D01*
X106424150Y-79043451D01*
X106429909Y-79038898D01*
X106429947Y-79038946D01*
X106435874Y-79034119D01*
X106435834Y-79034071D01*
X106441452Y-79029355D01*
X106441462Y-79029349D01*
X106493820Y-78973851D01*
X106496307Y-78971292D01*
X112224197Y-73243405D01*
X112286509Y-73209379D01*
X112313292Y-73206500D01*
X113419272Y-73206500D01*
X113437532Y-73207830D01*
X113439741Y-73208153D01*
X113461672Y-73211366D01*
X113507976Y-73207314D01*
X113511817Y-73206979D01*
X113522797Y-73206500D01*
X113528413Y-73206500D01*
X113542331Y-73204872D01*
X113559688Y-73202843D01*
X113563328Y-73202472D01*
X113639240Y-73195831D01*
X113639246Y-73195828D01*
X113646425Y-73194347D01*
X113646437Y-73194407D01*
X113653914Y-73192749D01*
X113653900Y-73192690D01*
X113661029Y-73190999D01*
X113661042Y-73190998D01*
X113732682Y-73164922D01*
X113736074Y-73163743D01*
X113808440Y-73139765D01*
X113808443Y-73139762D01*
X113815090Y-73136664D01*
X113815116Y-73136720D01*
X113822003Y-73133386D01*
X113821976Y-73133331D01*
X113828534Y-73130036D01*
X113828534Y-73130035D01*
X113828539Y-73130034D01*
X113892245Y-73088132D01*
X113895264Y-73086209D01*
X113960149Y-73046188D01*
X113960150Y-73046187D01*
X113965909Y-73041634D01*
X113965947Y-73041682D01*
X113971874Y-73036855D01*
X113971834Y-73036807D01*
X113977452Y-73032091D01*
X113977462Y-73032085D01*
X114029819Y-72976588D01*
X114032306Y-72974029D01*
X115013944Y-71992392D01*
X115076254Y-71958368D01*
X115123776Y-71957208D01*
X115203429Y-71970500D01*
X115203431Y-71970500D01*
X115428565Y-71970500D01*
X115428569Y-71970500D01*
X115650635Y-71933444D01*
X115863574Y-71860342D01*
X116061576Y-71753189D01*
X116239240Y-71614906D01*
X116300245Y-71548637D01*
X116361096Y-71512067D01*
X116432061Y-71514200D01*
G37*
%TD.AperFunction*%
%TA.AperFunction,Conductor*%
G36*
X97734723Y-99467930D02*
G01*
X97781782Y-99521089D01*
X97792631Y-99591252D01*
X97779997Y-99631847D01*
X97771522Y-99648480D01*
X97768375Y-99654275D01*
X97734925Y-99712213D01*
X97734923Y-99712217D01*
X97730731Y-99725120D01*
X97723168Y-99743381D01*
X97717007Y-99755473D01*
X97699688Y-99820104D01*
X97697815Y-99826426D01*
X97677144Y-99890042D01*
X97675726Y-99903538D01*
X97672125Y-99922968D01*
X97668610Y-99936087D01*
X97665110Y-100002886D01*
X97664593Y-100009462D01*
X97662500Y-100029372D01*
X97662500Y-100049406D01*
X97662327Y-100056000D01*
X97658825Y-100122807D01*
X97660949Y-100136212D01*
X97662500Y-100155924D01*
X97662500Y-101892218D01*
X97647622Y-101951613D01*
X97608334Y-102025115D01*
X97608330Y-102025124D01*
X97550208Y-102216727D01*
X97550206Y-102216738D01*
X97530582Y-102415996D01*
X97530582Y-102416001D01*
X97536605Y-102477149D01*
X97523377Y-102546902D01*
X97474537Y-102598431D01*
X97411212Y-102615500D01*
X94856028Y-102615500D01*
X94787907Y-102595498D01*
X94766933Y-102578595D01*
X93509405Y-101321067D01*
X93475379Y-101258755D01*
X93472500Y-101231972D01*
X93472500Y-99694500D01*
X93492502Y-99626379D01*
X93546158Y-99579886D01*
X93598500Y-99568500D01*
X97154772Y-99568500D01*
X97173032Y-99569830D01*
X97175241Y-99570153D01*
X97197172Y-99573366D01*
X97243476Y-99569314D01*
X97247317Y-99568979D01*
X97258297Y-99568500D01*
X97263913Y-99568500D01*
X97277831Y-99566872D01*
X97295188Y-99564843D01*
X97298828Y-99564472D01*
X97374740Y-99557831D01*
X97374746Y-99557828D01*
X97381925Y-99556347D01*
X97381937Y-99556407D01*
X97389414Y-99554749D01*
X97389400Y-99554690D01*
X97396529Y-99552999D01*
X97396542Y-99552998D01*
X97468182Y-99526922D01*
X97471574Y-99525743D01*
X97543940Y-99501765D01*
X97543943Y-99501762D01*
X97550590Y-99498664D01*
X97550616Y-99498720D01*
X97557503Y-99495386D01*
X97557476Y-99495331D01*
X97564030Y-99492039D01*
X97564035Y-99492035D01*
X97564039Y-99492034D01*
X97598492Y-99469372D01*
X97666394Y-99448651D01*
X97734723Y-99467930D01*
G37*
%TD.AperFunction*%
%TA.AperFunction,Conductor*%
G36*
X95688532Y-93453970D02*
G01*
X95745368Y-93496517D01*
X95770179Y-93563037D01*
X95770500Y-93572026D01*
X95770500Y-94099544D01*
X95781112Y-94203425D01*
X95836886Y-94371741D01*
X95883240Y-94446891D01*
X95902000Y-94513038D01*
X95902000Y-96494960D01*
X95883241Y-96561106D01*
X95836885Y-96636260D01*
X95781113Y-96804572D01*
X95781112Y-96804579D01*
X95770500Y-96908446D01*
X95770500Y-97909535D01*
X95770580Y-97911086D01*
X95770500Y-97911416D01*
X95770501Y-97912752D01*
X95770182Y-97912752D01*
X95754071Y-97980137D01*
X95702852Y-98029301D01*
X95644743Y-98043500D01*
X94347027Y-98043500D01*
X94278906Y-98023498D01*
X94232413Y-97969842D01*
X94222309Y-97899568D01*
X94251803Y-97834988D01*
X94257917Y-97828419D01*
X94819407Y-97266929D01*
X94833240Y-97254975D01*
X94852822Y-97240398D01*
X94885177Y-97201836D01*
X94892596Y-97193740D01*
X94896573Y-97189765D01*
X94916149Y-97165004D01*
X94918395Y-97162249D01*
X94967396Y-97103853D01*
X94967396Y-97103851D01*
X94967399Y-97103849D01*
X94971430Y-97097720D01*
X94971483Y-97097755D01*
X94975595Y-97091300D01*
X94975541Y-97091267D01*
X94979387Y-97085029D01*
X94979395Y-97085020D01*
X95011630Y-97015889D01*
X95013166Y-97012715D01*
X95047394Y-96944566D01*
X95047395Y-96944560D01*
X95047397Y-96944557D01*
X95049908Y-96937661D01*
X95049966Y-96937682D01*
X95052475Y-96930462D01*
X95052416Y-96930443D01*
X95054723Y-96923479D01*
X95054723Y-96923477D01*
X95054725Y-96923474D01*
X95070148Y-96848772D01*
X95070920Y-96845296D01*
X95088500Y-96771123D01*
X95088500Y-96771115D01*
X95089352Y-96763834D01*
X95089412Y-96763841D01*
X95090190Y-96756226D01*
X95090129Y-96756221D01*
X95090767Y-96748917D01*
X95090769Y-96748909D01*
X95088553Y-96672745D01*
X95088500Y-96669081D01*
X95088500Y-94002027D01*
X95108502Y-93933906D01*
X95125399Y-93912937D01*
X95555408Y-93482928D01*
X95617717Y-93448906D01*
X95688532Y-93453970D01*
G37*
%TD.AperFunction*%
%TA.AperFunction,Conductor*%
G36*
X92242584Y-86693383D02*
G01*
X92299420Y-86735930D01*
X92323861Y-86798259D01*
X92324456Y-86803925D01*
X92360577Y-86915091D01*
X92383473Y-86985556D01*
X92399660Y-87013592D01*
X92478958Y-87150941D01*
X92478965Y-87150951D01*
X92606744Y-87292864D01*
X92606747Y-87292866D01*
X92761248Y-87405118D01*
X92935712Y-87482794D01*
X92991586Y-87494670D01*
X93054060Y-87528398D01*
X93054485Y-87528822D01*
X96114567Y-90588904D01*
X96148593Y-90651216D01*
X96143528Y-90722031D01*
X96114567Y-90767094D01*
X93832602Y-93049058D01*
X93818753Y-93061028D01*
X93799179Y-93075601D01*
X93799176Y-93075603D01*
X93766820Y-93114163D01*
X93759409Y-93122252D01*
X93755427Y-93126234D01*
X93755421Y-93126241D01*
X93735884Y-93150948D01*
X93733576Y-93153782D01*
X93684604Y-93212147D01*
X93680574Y-93218275D01*
X93680523Y-93218242D01*
X93676405Y-93224706D01*
X93676455Y-93224737D01*
X93672605Y-93230978D01*
X93640394Y-93300054D01*
X93638798Y-93303351D01*
X93604605Y-93371434D01*
X93602095Y-93378332D01*
X93602039Y-93378311D01*
X93599525Y-93385545D01*
X93599582Y-93385564D01*
X93597273Y-93392529D01*
X93581865Y-93467148D01*
X93581073Y-93470722D01*
X93563500Y-93544874D01*
X93562648Y-93552167D01*
X93562587Y-93552159D01*
X93561809Y-93559773D01*
X93561871Y-93559779D01*
X93561231Y-93567090D01*
X93563447Y-93643254D01*
X93563500Y-93646918D01*
X93563500Y-94974972D01*
X93543498Y-95043093D01*
X93489842Y-95089586D01*
X93419568Y-95099690D01*
X93354988Y-95070196D01*
X93348405Y-95064067D01*
X91800404Y-93516066D01*
X91766378Y-93453754D01*
X91763499Y-93426971D01*
X91763499Y-93098455D01*
X91752887Y-92994574D01*
X91740637Y-92957605D01*
X91697115Y-92826262D01*
X91604030Y-92675348D01*
X91604029Y-92675347D01*
X91604024Y-92675341D01*
X91541905Y-92613222D01*
X91507879Y-92550910D01*
X91505000Y-92524127D01*
X91505000Y-90973372D01*
X91525002Y-90905251D01*
X91541900Y-90884281D01*
X91586530Y-90839652D01*
X91679615Y-90688738D01*
X91735387Y-90520426D01*
X91746000Y-90416545D01*
X91745999Y-89415456D01*
X91735387Y-89311574D01*
X91679615Y-89143262D01*
X91586530Y-88992348D01*
X91586529Y-88992347D01*
X91586524Y-88992341D01*
X91461158Y-88866975D01*
X91461152Y-88866970D01*
X91310238Y-88773885D01*
X91226082Y-88745999D01*
X91141927Y-88718113D01*
X91141920Y-88718112D01*
X91038053Y-88707500D01*
X90428491Y-88707500D01*
X90360370Y-88687498D01*
X90313877Y-88633842D01*
X90303773Y-88563568D01*
X90333267Y-88498988D01*
X90339382Y-88492419D01*
X92109459Y-86722342D01*
X92171769Y-86688318D01*
X92242584Y-86693383D01*
G37*
%TD.AperFunction*%
%TA.AperFunction,Conductor*%
G36*
X94247631Y-86168155D02*
G01*
X94287679Y-86195122D01*
X95533009Y-87440452D01*
X95545848Y-87455483D01*
X95553831Y-87466470D01*
X95553832Y-87466471D01*
X95553833Y-87466472D01*
X95603550Y-87511237D01*
X95608319Y-87515762D01*
X95620955Y-87528398D01*
X95622492Y-87529935D01*
X95638061Y-87542543D01*
X95643052Y-87546806D01*
X95692785Y-87591585D01*
X95702351Y-87597107D01*
X95704534Y-87598368D01*
X95720833Y-87609570D01*
X95731372Y-87618105D01*
X95731377Y-87618108D01*
X95790969Y-87648471D01*
X95796767Y-87651619D01*
X95838455Y-87675687D01*
X95854715Y-87685075D01*
X95867626Y-87689270D01*
X95885879Y-87696830D01*
X95897976Y-87702994D01*
X95962609Y-87720312D01*
X95968894Y-87722173D01*
X96032544Y-87742855D01*
X96046030Y-87744272D01*
X96065469Y-87747874D01*
X96078585Y-87751389D01*
X96078591Y-87751389D01*
X96078594Y-87751390D01*
X96145390Y-87754889D01*
X96151971Y-87755406D01*
X96171880Y-87757500D01*
X96191907Y-87757500D01*
X96198500Y-87757672D01*
X96215552Y-87758566D01*
X96265308Y-87761174D01*
X96265308Y-87761173D01*
X96265310Y-87761174D01*
X96278714Y-87759050D01*
X96298425Y-87757500D01*
X98316000Y-87757500D01*
X98384121Y-87777502D01*
X98430614Y-87831158D01*
X98442000Y-87883500D01*
X98442000Y-88366960D01*
X98423241Y-88433106D01*
X98376885Y-88508260D01*
X98321113Y-88676572D01*
X98321112Y-88676579D01*
X98310500Y-88780446D01*
X98310500Y-89520235D01*
X98290498Y-89588356D01*
X98273599Y-89609325D01*
X98200946Y-89681979D01*
X98131373Y-89751552D01*
X98069061Y-89785577D01*
X97998245Y-89780512D01*
X97973025Y-89767718D01*
X97972856Y-89767606D01*
X97972853Y-89767604D01*
X97972849Y-89767602D01*
X97972846Y-89767600D01*
X97951053Y-89756655D01*
X97935336Y-89747273D01*
X97915350Y-89733279D01*
X97915349Y-89733278D01*
X97915347Y-89733277D01*
X97915345Y-89733276D01*
X97915343Y-89733275D01*
X97868562Y-89714690D01*
X97858543Y-89710194D01*
X97813566Y-89687606D01*
X97813564Y-89687605D01*
X97813561Y-89687604D01*
X97813562Y-89687604D01*
X97789827Y-89681979D01*
X97772369Y-89676475D01*
X97749693Y-89667467D01*
X97699893Y-89660172D01*
X97689100Y-89658107D01*
X97640123Y-89646500D01*
X97615735Y-89646500D01*
X97597475Y-89645170D01*
X97573330Y-89641633D01*
X97573321Y-89641633D01*
X97528770Y-89645531D01*
X97523186Y-89646020D01*
X97512205Y-89646500D01*
X97381028Y-89646500D01*
X97312907Y-89626498D01*
X97291933Y-89609595D01*
X94135403Y-86453065D01*
X94104665Y-86402907D01*
X94078751Y-86323154D01*
X94076723Y-86252186D01*
X94113385Y-86191388D01*
X94177097Y-86160063D01*
X94247631Y-86168155D01*
G37*
%TD.AperFunction*%
%TA.AperFunction,Conductor*%
G36*
X100542032Y-85641817D02*
G01*
X100587095Y-85670778D01*
X100674341Y-85758024D01*
X100674346Y-85758028D01*
X100674348Y-85758030D01*
X100825262Y-85851115D01*
X100993574Y-85906887D01*
X101097455Y-85917500D01*
X101723544Y-85917499D01*
X101827426Y-85906887D01*
X101995738Y-85851115D01*
X102146652Y-85758030D01*
X102146658Y-85758024D01*
X102152410Y-85753477D01*
X102153250Y-85754539D01*
X102208717Y-85724252D01*
X102279532Y-85729317D01*
X102336368Y-85771864D01*
X102361179Y-85838384D01*
X102361500Y-85847373D01*
X102361500Y-86945471D01*
X102341498Y-87013592D01*
X102324595Y-87034566D01*
X101323565Y-88035595D01*
X101261253Y-88069621D01*
X101234470Y-88072500D01*
X100843455Y-88072500D01*
X100739574Y-88083112D01*
X100571261Y-88138885D01*
X100484149Y-88192617D01*
X100420348Y-88231970D01*
X100420347Y-88231970D01*
X100414102Y-88235823D01*
X100412525Y-88233267D01*
X100359299Y-88254735D01*
X100289551Y-88241478D01*
X100238043Y-88192617D01*
X100221000Y-88129337D01*
X100221000Y-85890435D01*
X100241002Y-85822314D01*
X100280853Y-85783194D01*
X100321652Y-85758030D01*
X100358746Y-85720936D01*
X100408905Y-85670778D01*
X100471217Y-85636752D01*
X100542032Y-85641817D01*
G37*
%TD.AperFunction*%
%TA.AperFunction,Conductor*%
G36*
X98521915Y-84174323D02*
G01*
X98559728Y-84234412D01*
X98564500Y-84268758D01*
X98564500Y-84478719D01*
X98547620Y-84541717D01*
X98514425Y-84599214D01*
X98514423Y-84599217D01*
X98510231Y-84612120D01*
X98502668Y-84630381D01*
X98496507Y-84642473D01*
X98479188Y-84707104D01*
X98477315Y-84713426D01*
X98456644Y-84777042D01*
X98455226Y-84790538D01*
X98451625Y-84809968D01*
X98448110Y-84823087D01*
X98444610Y-84889886D01*
X98444093Y-84896462D01*
X98442000Y-84916372D01*
X98442000Y-84936406D01*
X98441827Y-84943000D01*
X98438325Y-85009807D01*
X98440449Y-85023212D01*
X98442000Y-85042924D01*
X98442000Y-85852500D01*
X98421998Y-85920621D01*
X98368342Y-85967114D01*
X98316000Y-85978500D01*
X97404324Y-85978500D01*
X97336203Y-85958498D01*
X97289710Y-85904842D01*
X97279606Y-85834568D01*
X97309100Y-85769988D01*
X97315813Y-85763570D01*
X97315463Y-85763220D01*
X97446024Y-85632658D01*
X97446030Y-85632652D01*
X97539115Y-85481738D01*
X97594887Y-85313426D01*
X97605500Y-85209545D01*
X97605499Y-84881026D01*
X97625501Y-84812907D01*
X97642399Y-84791936D01*
X98207517Y-84226819D01*
X98269827Y-84192796D01*
X98270284Y-84192697D01*
X98326288Y-84180794D01*
X98326289Y-84180793D01*
X98326291Y-84180793D01*
X98387251Y-84153652D01*
X98457617Y-84144217D01*
X98521915Y-84174323D01*
G37*
%TD.AperFunction*%
%TA.AperFunction,Conductor*%
G36*
X110396357Y-72698502D02*
G01*
X110442850Y-72752158D01*
X110452954Y-72822432D01*
X110423460Y-72887012D01*
X110417331Y-72893595D01*
X105669067Y-77641859D01*
X105606755Y-77675885D01*
X105579972Y-77678764D01*
X104057724Y-77678764D01*
X104039464Y-77677434D01*
X104015325Y-77673898D01*
X104015317Y-77673898D01*
X103974909Y-77677434D01*
X103965193Y-77678284D01*
X103954212Y-77678764D01*
X103948585Y-77678764D01*
X103918355Y-77682296D01*
X103917283Y-77682422D01*
X103913643Y-77682793D01*
X103837761Y-77689432D01*
X103830575Y-77690917D01*
X103830562Y-77690858D01*
X103823078Y-77692517D01*
X103823092Y-77692575D01*
X103815951Y-77694267D01*
X103744298Y-77720346D01*
X103740866Y-77721538D01*
X103717240Y-77729367D01*
X103668553Y-77745500D01*
X103661907Y-77748600D01*
X103661882Y-77748546D01*
X103654988Y-77751883D01*
X103655015Y-77751936D01*
X103648462Y-77755227D01*
X103584807Y-77797092D01*
X103581722Y-77799057D01*
X103516850Y-77839073D01*
X103511094Y-77843625D01*
X103511057Y-77843578D01*
X103505119Y-77848414D01*
X103505158Y-77848460D01*
X103499537Y-77853177D01*
X103447225Y-77908622D01*
X103444673Y-77911248D01*
X102399326Y-78956596D01*
X102337016Y-78990620D01*
X102310233Y-78993500D01*
X100142492Y-78993500D01*
X100074371Y-78973498D01*
X100027878Y-78919842D01*
X100017774Y-78849568D01*
X100047268Y-78784988D01*
X100053397Y-78778405D01*
X104584361Y-74247443D01*
X106116399Y-72715405D01*
X106178711Y-72681379D01*
X106205494Y-72678500D01*
X110328236Y-72678500D01*
X110396357Y-72698502D01*
G37*
%TD.AperFunction*%
%TD*%
M02*
